<?xml version="1.0" encoding="utf-8"?>
<!-- Generator: Adobe Illustrator 19.0.0, SVG Export Plug-In . SVG Version: 6.00 Build 0)  -->
<svg version="1.1" id="图层_1" xmlns="http://www.w3.org/2000/svg" xmlns:xlink="http://www.w3.org/1999/xlink" x="0px" y="0px"
	 viewBox="-834 481 250 120" style="enable-background:new -834 481 250 120;" xml:space="preserve">
<path d="M-720.7,509.9c-16.8,6.2-25.8,17.8-23.5,35.9c1.8,14,10.8,22.4,24.3,26.2c-10.8,1-19.9-2.7-26.6-11.1
	c-8.3-10.5-9.6-22.2-3.6-34.1C-744,514.9-733.9,509.6-720.7,509.9z"/>
<path d="M-736.5,558.2c-9.8-11.3-7.9-29.4,4.1-38.6c11.4-8.9,28.7-6.8,36.4,4.3c-0.6,0.7-1.1,0.2-1.6-0.1
	c-10.5-6.4-22.8-4.4-30.6,2.3c-8.9,7.6-11.7,18.8-7.8,30.5c0.1,0.3,0.1,0.6,0.2,0.8C-735.6,558.1-735.9,558.3-736.5,558.2z"/>
<path d="M-692.4,553.6c0.3-10.6-3.5-18.5-12.7-22.8c-11.6-5.3-21.2-1.4-29,8.1c1.7-7.6,6.4-12.7,13.5-15.2c8.9-3.1,17-1.4,23.8,5.3
	C-690.6,535.4-689,545.5-692.4,553.6z"/>
<path d="M-736.5,558.2c0.2-0.2,0.4-0.5,0.7-0.7c0.4,0.7,0.7,1.3,1.3,2.5C-735.8,559.4-736.2,558.9-736.5,558.2z"/>
<path d="M-668,592L-668,592L-668,592C-668,592-667.9,592-668,592L-668,592L-668,592z"/>
<path d="M-667.9,592C-667.9,592-667.9,591.9-667.9,592C-667.9,591.9-668,591.9-667.9,592L-667.9,592z"/>
<path d="M-668,592L-668,592L-668,592z"/>
<path d="M-696.2,552.1c-2.4-1.1-2.8-1.2-4-1.1c-1.2,0.1-4.3-0.2-4.6-0.2s-0.5-0.2,0.2-0.4c0.7-0.3,1.1-0.9,1.3-1.3
	c0.2-0.4,0.6-1.2,1.8-1.2s2.2,0.2,2.2-0.7c0-0.9-0.1-1.2-0.7-1.6c-0.7-0.4-1.2-0.1-0.9-0.9c0.3-0.8,0.9-2.3,0.9-3.6
	c0-1.3,0.1-2-2.6-2.2c-2.7-0.2-2.8,0-2.8,0s0.1,0.7,0.1,1.1c0,0.4-1.1,1-1.8,1.4c-0.7,0.4-1.8,0.4-0.9,1.1s1.9,1.1,2.2,1.4
	c0.3,0.3-0.1,0.9-0.2,1.2c-0.1,0.3-0.5,0.6-1.6,0.6s-1.3-0.1-1.3-0.1l-0.2-0.3c0,0-1.4-0.1-1.9-0.1c-0.6,0,0.2,0.7,0.3,0.8
	c0.2,0.2-0.1,0.4-0.3,0.2c-0.2-0.2-0.6-0.3-0.9-0.3c-0.2,0-0.3-0.4-0.2-0.9c0.2-0.5,0.2-1.1,0.9-1.3c0.7-0.2,1.7-0.5,1.9-0.7
	c0.3-0.3,0.4-0.7,0.4-1.5s-0.7-0.8-1.3-0.8s-1.6,0.3-2.2,0.3s-0.9-0.3-1.5-0.6c-0.6-0.2-1.9-0.6-2.1-0.6c-0.7,0-0.9,0-0.9,0
	s0.1,0.8,0.4,1.6c0.3,0.8,0.4,2.5,0,3.6c-0.4,1.1-2.4,3.1-2.8,3.5c-0.4,0.4-0.3,0.4,0.2,0.9c0.6,0.6,1.4,1.1,1.8,1.1
	c0.4,0,0.2,0.3,0.2,0.7c0,0.4-0.1,2.2-0.1,2.5s0.2,0.9,0.9,0.5c0.8-0.4,1.1-0.7,1.4-0.9s0.4-0.1,0.6-0.1c0.1,0-0.1,0.3-0.5,0.9
	c-0.4,0.6-7.1,9-9.4,10.5c-2.3,1.6-0.3,3,0.6,2.4c1-0.6,2.6-1.3,4.1-3.1c1.5-1.8,3.2-3.7,3.9-4.7c0.7-0.9,1.1-1.8,1.1-1.8
	s0.4,0.4,0.4,0.9s-0.1,9.7-0.3,10.5c-0.3,0.8-0.8,0.7-1.2,0.8s0.7,1.7,0.9,2.2c0.2,0.4,1.1,0.8,1.6,0.8s3-0.8,5.1-1.5
	c2.1-0.7,3.6-2.3,3.9-2.3s2.5,1.2,3.2,1.6c0.7,0.3,1.1,0.6,1.9,0.6c0.9,0,1.4-0.3,1.4-0.3s0.3-1-0.3-1.9c-0.7-0.9-0.7-0.8-1.9-1.4
	c-0.3-0.2-3-1.1-3-1.1l-0.1-2.6c0,0,1.4-0.7,2-1.1c0.7-0.4,0.8-0.9,0.8-1.6c0-0.7,0.1-1.2-1.2-1.8c-1.3-0.6-1.3-0.3-1.7,0.2
	c-0.3,0.5-1.4,1.8-1.9,2.2c-0.4,0.4-0.8,0.7-0.6,0c0.3-0.7,0.7-2.8,1-3.2c0.4-0.4,0.6-0.7,0.6-1.6c0-0.9-0.8-2.2-1.6-2.7
	c-0.7-0.5-0.9,0.2-1.1,0.2c-0.2,0-0.1-0.6-0.1-1c0-0.4-0.6-0.7-0.9-0.7c-0.3,0,0.6-0.3,1.3-0.2s4.3,0.9,6,1.5c1.7,0.6,3.2,1.5,4,1.5
	s1.6-0.6,1.6-1.1C-694.3,554-693.7,553.2-696.2,552.1z M-714.4,550.3c-0.2,0-0.3,0.1-0.7-0.3c-0.4-0.4-0.1-0.7,0.3-0.8
	c0.4-0.1,1-1,1.2-1.2c0,0,0.2-0.1,0.2,0.2c0,0.2-0.3,0.9-0.5,1.3C-713.9,550-714.1,550.3-714.4,550.3z M-713.3,556.2
	c0.2,0,0.4-0.7,0.7-1.3c0.3-0.6,0.9-1.9,1.3-2.3c0.1-0.1,1.1,0.9,1.1,1.2c-0.1,0.5-0.2,0.4-0.7,1c-0.5,0.5-0.9,1.1-0.9,1.2
	c0,0.2-0.6,0.4-1,0.4S-713.6,556.2-713.3,556.2z M-710.3,561.1c0,0.3-0.2,0.4-0.4,0.8s-0.2,0.8,0,0.6c0.2-0.2,0.7-0.5,0.8-0.7
	c0.2-0.2,0.4-0.6,0.7-0.7c0.3-0.2,0.5-0.2,0.2,0.3c-0.3,0.6-0.5,0.7-1.1,1s-1.1,0.9-1.4,1.2s-0.5,0.1-0.4-0.4c0.1-0.5,0-1.5,0.2-1.7
	c0.2-0.2,0.4-0.9,0.6-1.3c0,0,0,0,0.3-0.1c0.3-0.1,0.2,0.1,0.2,0.4C-710.5,560.8-710.3,560.9-710.3,561.1z M-708.8,568
	c-0.7,0.2-1.3,0.8-2.2,0.9c-0.9,0.1-1.1,0.2-1.1,0s-0.2-2.6,0-2.7s1.2,0.2,2.1,0.8c0.8,0.6,1.3,0.7,1.6,0.7
	C-708.2,567.7-708.1,567.8-708.8,568z M-708.4,558.5c-0.1,0.1-0.3,0.6-0.4,0.7s-0.2-0.7-0.4-0.8c-0.2-0.1-0.6-0.3-0.4-0.3
	s0.4-0.4,0.7-0.7c0,0,0.6-0.1,0.6,0.2C-708.3,557.9-708.3,558.4-708.4,558.5z M-708.3,548.8c-0.3,0-0.4,0.4-0.7,0.7s-1,0.3-1.2,0
	c-0.3-0.3-0.7-0.8-0.4-0.8c0.3,0,0.6-0.6,0.9-0.9c0,0,0.6-0.6,0.8-0.3c0.3,0.3,0.6,0.3,0.9,0.6C-707.7,548.5-708,548.8-708.3,548.8z
	 M-706.5,565.5c0.3,0,1.1-0.6,1.4-0.7c0,0,0.6,0.2,0.3,0.2c-0.2,0-0.3,0.3-0.3,0.5c0,0.2-0.4,0.2-1.1,0.2
	C-706.9,565.7-706.9,565.5-706.5,565.5z"/>
<path d="M-687.4,557.8c-0.6-0.6-0.9-0.9-1.4-0.9s-0.9,0.8-1.4,1.6c-0.4,0.7-0.9,1.4-1.1,1.6s0,1.3,0,1.7s0.8,0.4,1.1,0.4
	c0.3,0,0.3,0.1,0.1,0.5s-2,3.3-2.4,4.1c-0.4,0.7-0.6,1.3-0.2,1.7c0.4,0.4,0.6,0.5,1,0.3c0.3-0.2,1-0.5,1.2-0.9
	c0.2-0.4,0.8-1.1,0.9-1.2c0.1-0.1,0.2,0.1,0.1,0.4c-0.1,0.4-0.3,0.9-0.3,1.6s0.3,1.2,0.4,1.6c0.1,0.3,0.4,0.4,0.7,0.4
	s0.4-0.5,0.4-1.4c0-0.4-0.1-1-0.1-1.6c0-0.7,0-1.4-0.2-1.6s-0.4-0.3-0.4-0.6c0-0.2,0.1-0.6,0.4-0.2c0.4,0.4,0.8,0.6,1.3,0.6
	s1.3-0.4,1.9-0.8c0.6-0.4,0.7-0.5,0.9-0.5c0.2,0,0.7-0.1,0.7,0.2s0,3.9,0,4.5c0,0.6,0.1,0.8-0.4,1c-0.4,0.2-1.1,0.1-1.3,0.1
	c-0.2,0,0,0.6,0.1,0.7c0.1,0.1,1,0.5,1.7,0.5c0.7,0,1.7-0.2,1.9-0.7s0.4-1.1,0.4-1.3c0-0.2-0.3-0.3-0.3-0.4s-0.1-5.1-0.1-5.3
	s0.1-0.2,1.1-0.3c1-0.1,1.9-0.1,2.1-0.4c0.1-0.3,0.4-1.7-1.1-1.7c-1.4,0-2.7,0.1-2.8,0.1c-0.1,0-0.2-0.2-0.2-0.3s-0.2-0.1-0.5,0
	c-0.2,0.1-0.6,0.6-0.6,0.8c0,0.2-0.4,0.4-1.5,0.7c-1.1,0.2-2.2,0.8-2.5,1.1c-0.3,0.3-0.4,0.3-0.6,0.4c-0.1,0.1-0.2-0.2-0.1-0.5
	c0.1-0.2,0.3-0.3,0.5-0.6c0.2-0.2,0-0.8,0-0.9c0-0.1-0.7-0.8-0.9-0.8s-0.4,0.1-0.4,0c0-0.1,0.2-0.4,0.6-0.6c0.4-0.2,1-0.8,1.4-0.9
	c0.3-0.2,0.2-0.8,0.1-1.2S-687.4,557.8-687.4,557.8z"/>
<path d="M-683.4,557.4c-0.8,0.4-1.7,0.8-2.1,1.3c-0.4,0.4,0.1,0.9,0.3,1.2c0.2,0.2,0.4,0.1,0.4,0.3s-0.1,0.4-0.2,0.4
	c-0.1,0,0.1,0.2,0.6,0.2s2.1-0.4,2.9-1.2s0.4-1.7,0.4-1.9c0-0.2-0.6-0.8-1.1-0.8C-682.7,556.9-683.4,557.4-683.4,557.4z"/>
<path d="M-661.5,570c-1.2,0-2.8-0.4-3.1-0.4c-0.2,0-0.2-0.7-0.2-1.3c0-0.7,0.1-1.2,0.1-1.3c0-0.1,0.3,0,0.6-0.2
	c0.2-0.2,0.7-0.6,0.7-0.9s0.1-1-0.2-1c-0.3,0-0.8,0.2-1,0.2s-0.4-0.2-0.1-0.3c0.4-0.2,0.9-0.3,1.1-0.6c0.1-0.3,0.4-1.1,0-1.1
	s-0.8-0.1-1,0.2c-0.2,0.2-0.3-0.4,0.1-0.6c0.4-0.2,0.8-0.3,0.9-0.7c0.2-0.4,0.1-0.6,0.1-0.9s0.1-0.6,0.3-0.7c0.2-0.2,0.2,0,0.6-0.1
	c0.4-0.1,0.7-0.2,0.7-0.6s0.1-0.8-0.4-0.8c-0.4,0-0.4,0.1-0.4-0.2s-0.1-0.7-0.6-0.9c-0.5-0.2-1-0.2-1.2-0.4
	c-0.2-0.2-0.2-0.4-0.4-0.6c-0.1-0.1-0.8-0.2-0.9-0.2s-0.1,0.9-0.1,1.1c0,0.1-0.9-0.1-1,0c-0.1,0.1-0.6,0.7,0,1.2
	c0.6,0.6,0.9,0.5,1,0.6c0.1,0.1,0.3,0.2-0.2,0.2s-0.9,0.2-1.2,0.3s-0.7,0.4-0.9,0.4s-0.3-0.3-0.5-0.6c-0.2-0.2-0.6-0.1-0.7-0.1
	s-0.8,0.7-1,0.9c-0.2,0.2-0.3,0.4-0.4,0.4c-0.1,0-0.4,0-0.1-0.3c0.3-0.3,0.6-0.8,0.6-1.4s-0.3-1.3-0.7-1.6c-0.4-0.2-0.9-0.2-0.9-0.2
	c-0.1,0-0.3,0.3-0.7,0.9s-2.1,3.6-2.5,4.4s-0.1,1.9-0.1,2.3c0,0.4,0.3,0.3,0.7,0.3s0.5-0.4,0.7-0.4c0.2,0,0.2,0,0.2,0.4
	s0.1,4.6,0.1,4.9s0.2,0.5,0.6,0.5s0.8-0.1,0.8-0.3c0-0.2,0.1-0.6,0.2-0.5s0.1,0.4,0.8,0.4s1.3,0.1,1.6-0.4c0.3-0.5,0.4-0.4,0.7-0.4
	s2.1,1.1,3.3,1.6c1.2,0.5,1.8,0.9,2.1,0.9c0.2,0,1.6-0.4,2.5-0.9c0.9-0.6,0.9-0.7,0.9-1S-660.4,570-661.5,570z M-664.3,558.3
	c0,0,0.2,0.1,0.2,0.1c0,0.1-0.1,0.1-0.2,0.1c-0.1,0.1-0.1-0.1-0.1-0.1C-664.4,558.3-664.3,558.3-664.3,558.3z M-670.3,569.1
	c-0.2,0.2-0.6,0.3-1,0.3s-0.6-0.3-0.6-0.7c0-0.4,0-1.1,0.2-1.1c0.1,0,0.2,0.3,0.4,0.3s0.3,0.2,0.7,0.6
	C-670.4,568.6-670.2,568.9-670.3,569.1z M-669.7,567.1c-0.1-0.1-0.9-0.2-1.3-0.4c-0.4-0.3-1.1-0.6-1.2-0.7s-0.3-0.8-0.5-1.1
	c-0.1-0.3-0.3-0.2-0.5-0.2c-0.2,0-0.1-0.8-0.1-0.8s0.2-0.2,0.4-0.4c0.2-0.2,0.6-0.5,0.6-0.7s0.2-0.8,0.6-0.8c0.1,0,0.2,0.2,0.4,0.3
	s0.4,0.4,0.4,0.7s0.2,1.1,0,1.3c-0.2,0.2-0.3,0.2-0.3,0.6c0,0.4,0.2,0.5,0.3,0.7c0.2,0.2,0.2,0.6,0.4,0.6c0.2,0,0.4-0.4,0.7-0.7
	c0.3-0.3,0.3-0.2,0.3,0.2S-669.6,567.2-669.7,567.1z M-665.9,561.2c-0.1,0.1-0.2,0.3-0.3,0.6c-0.2,0.2-0.6,0.6-1,0.7
	s-0.3,0.4-0.3,0.8c0,0.3,0.1,0.3,0.4,0.3s0.3,0.1,0.3,0.2c0,0.1,0,0.4-0.1,0.5c-0.2,0.2-0.3,0.1-0.3,0.2c0,0.2,0.1,0.6,0.1,0.7
	s0.2,0.1,0.6,0c0.3-0.1,0.3,0.3,0.3,0.6s-0.3,0.4-0.6,0.7c-0.3,0.3-0.6,0.4-0.4,0.6c0.2,0.1,0.2,0.4,0.6,0.7
	c0.4,0.3,0.7,0.3,0.8,0.7c0.2,0.4,0.2,0.7,0.2,0.7s0,0.2-0.2,0c-0.2-0.2-1.4-0.7-1.8-0.9c-0.4-0.2-0.4-0.1-0.4-0.4
	c0-0.3,0-0.9,0-1.4c0-0.4,0-1.1,0.2-1.2c0.2-0.2,0.1-0.4,0.1-0.8c0-0.3-0.2-0.3-0.4-0.6c-0.2-0.2-0.5,0-0.5-0.2
	c0-0.2,0.1-0.3,0.2-0.6c0.1-0.3,0.5-0.9,0.5-0.9s0.6-0.2,0.9-0.3c0.3-0.1,0.7-0.5,0.9-0.7C-666.3,561-665.8,561.1-665.9,561.2z"/>
</svg>
