<?xml version="1.0" encoding="utf-8"?>
<!-- Generator: Adobe Illustrator 19.0.0, SVG Export Plug-In . SVG Version: 6.00 Build 0)  -->
<svg version="1.1" id="图层_1" xmlns="http://www.w3.org/2000/svg" xmlns:xlink="http://www.w3.org/1999/xlink" x="0px" y="0px"
	 viewBox="-834 481 250 120" style="enable-background:new -834 481 250 120;" xml:space="preserve">
<g id="圆角矩形_5_1_">
	<g>
		<path d="M-772,538.1c-6.1,0-11.3,5-11.3,11.3s5,11.3,11.3,11.3c6.1,0,11.3-5,11.3-11.3S-765.7,538.1-772,538.1z M-771.7,556.5
			c-3.8,0-6.9-3.1-6.9-6.9s3.1-6.9,6.9-6.9c3.8,0,6.9,3.1,6.9,6.9S-767.8,556.5-771.7,556.5z M-754.7,560.5h4.7v-27.6h-4.7V560.5z
			 M-588.2,541.3c0.1-0.1,0.3-0.4,0.4-0.6C-588.1,541-588.2,541.3-588.2,541.3z M-585.3,545.2c-0.4-0.7-1.5-1-2.3-0.4l-4.8,2.5
			c-0.6-2.3-0.7-3.9-0.7-3.9h-0.6c3.5-0.6,5.8-2.6,5.8-2.6c1.3-1.8-1.3-2-1.3-2l-6,2c-1.6,0.6-4.7,0-4.7,0c-1.8,0-1.3,2.6-1.3,2.6
			l0,0c0,0.1,0,0.1,0,0.3v16.5c0,0.9,0.7,1.6,1.6,1.6h0.1c0.3,0,0.7,0,1-0.1l5-2.5c0.7-0.4,0.9-1.3,0.4-1.9c-0.4-0.6-1.3-0.9-2-0.4
			l-3.1,1.5v-14.6c0-0.1,0-0.3,0-0.3l0,0c0.7,0.1,1.3,0.1,2,0.1c0.4,11.3,6.6,17,6.6,17c1,1.8,3.4,0.7,3.4,0.7c0.9-1.2,0-2.6,0-2.6
			c-2.8-1.9-4.4-5.1-5.6-8l5.6-2.9C-585,547-584.7,546-585.3,545.2z M-798.3,538.1c-6.1,0-11.3,5-11.3,11.3s5,11.3,11.3,11.3
			s11.3-5,11.3-11.3S-792.2,538.1-798.3,538.1z M-798,556.5c-3.8,0-6.9-3.1-6.9-6.9s3.1-6.9,6.9-6.9s6.9,3.1,6.9,6.9
			S-794.2,556.5-798,556.5z M-613.3,536l3.4,3.7c0.7,0.4,1.8,0.1,2.2-0.6c0.4-0.7,0.1-1.8-0.6-2.2l-3.4-3.7
			c-0.7-0.4-1.8-0.1-2.2,0.6C-614.5,534.6-614.2,535.5-613.3,536z M-822.4,542.6c2.5,0,4.7,1.3,5.8,3.2l3.4-2.6
			c-2-3.2-5.6-5.3-9.5-5.3c-6.1,0-11.3,5-11.3,11.3c0,6.3,5,11.3,11.3,11.3c3.8,0,7.2-1.9,9.2-4.8l-3.1-2.3
			c-1.2,1.9-3.4,3.2-5.8,3.2c-3.8,0-6.9-3.1-6.9-6.9C-829.3,545.8-826.3,542.6-822.4,542.6z M-733,538.1c-5.7,0-10.5,4.4-11.1,9.9
			h-0.1v18.4h4.7v-8c1.9,1.3,4.1,2.2,6.6,2.2c6.1,0,11.3-5,11.3-11.3C-721.7,543.1-726.8,538.1-733,538.1z M-732.7,556.5
			c-3.8,0-6.9-3.1-6.9-6.9s3.1-6.9,6.9-6.9s6.9,3.1,6.9,6.9S-728.9,556.5-732.7,556.5z M-610,549.3c-0.9,0-1.6,0.7-1.6,1.8l-2.8,9.4
			c0,0.9,0.7,1.6,1.8,1.6c0.9,0,1.6-0.7,1.6-1.8l2.8-9.4C-608.4,550.1-609.1,549.3-610,549.3z M-588.9,535.5
			c0.1-0.1,0.3-0.4,0.4-0.6C-588.8,535.2-588.8,535.3-588.9,535.5z M-610.1,546.7c0.9,0.3,1.8-0.1,2.2-0.9c0.3-0.9-0.1-1.8-0.9-2.2
			l-3.8-3.2c-0.9-0.3-1.8,0.1-2.2,0.9c-0.3,0.9,0.1,1.8,0.9,2.2L-610.1,546.7z M-621.1,543.9h-4.4c0-0.1,0-0.1,0-0.3v-4.2h3.7
			c0.9,0,1.6-0.7,1.6-1.6c0-0.9-0.7-1.6-1.6-1.6h-3.7v-2.3c0-0.9-0.7-1.6-1.6-1.6s-1.6,0.7-1.6,1.6v2.3h-2.2l0.3-1.2
			c-0.1-0.9-1-1.5-1.9-1.3c-0.9,0.1-1.5,1-1.3,1.9l-1.3,5.4c0.1,0.9,1,1.5,1.9,1.3c0.9-0.1,1.5-1,1.3-1.9l0.3-1
			c0.1,0.1,0.4,0.1,0.6,0.1h2.3v4.2c0,0.1,0,0.3,0,0.3h-5.7c-0.4,0-0.7,0.1-1,0.3v-3.7c0-0.7-0.6-1.3-1.3-1.3h-2.6c0-0.7,0-1.5,0-2
			h2.3c0.9,0,1.6-0.7,1.6-1.6s-0.7-1.6-1.6-1.6h-9.9c-0.9,0-1.6,0.7-1.6,1.6s0.7,1.6,1.6,1.6h2.3c0,0.4,0,1.2,0,2h-2.6
			c-0.7,0-1.3,0.6-1.3,1.3v19.7c0,0.7,0.6,1.3,1.3,1.3h10.5c0.7,0,1.3-0.6,1.3-1.3v-13.6c0.3,0.1,0.6,0.3,1,0.3h13.2
			c0.9,0,1.6-0.7,1.6-1.6C-619.5,544.7-620.2,543.9-621.1,543.9z M-642.6,537.4h1.3v2h-1.3V537.4z M-645.8,542.6
			c0-0.3,0.3-0.7,0.7-0.7h0.7c0,3.1,0,6.4,0,7.3c0,0,0,0.9-1.3,0.7v-7.3H-645.8z M-637.9,559.1c0,0.3-0.3,0.7-0.7,0.7h-6.6
			c-0.3,0-0.7-0.3-0.7-0.7v-2.9c0.1,0.1,0.4,0.1,0.6,0.1h6.6c0.3,0,0.4-0.1,0.6-0.1v2.9H-637.9z M-637.9,554
			c-0.1-0.1-0.4-0.1-0.6-0.1h-6.6c-0.3,0-0.4,0.1-0.6,0.1v-2.2c0,0,3.1,0.6,3.4-2.6v-7.3h1.3v6.6c0.1,3.2,3.4,2.6,3.4,2.6v2.9
			H-637.9z M-637.9,549.2c-1.3,0.1-1.3-0.6-1.3-0.6c0-0.9,0-3.8,0-6.6h0.7c0.3,0,0.7,0.3,0.7,0.7v6.4H-637.9z M-623.9,549.2h-7
			c-1.8,0-3.1,1.5-3.1,3.1v5.6c0,1.8,1.5,3.1,3.1,3.1h7c1.8,0,3.1-1.5,3.1-3.1v-5.6C-620.8,550.7-622.1,549.2-623.9,549.2z
			 M-624,557.4c0,0.6-0.4,1-1,1h-5.1c-0.6,0-1-0.4-1-1v-3.8c0-0.6,0.4-1,1-1h5.1c0.6,0,1,0.4,1,1V557.4z M-699.3,540.7
			c-1.9-1.6-4.5-2.6-7.3-2.6c-6.1,0-11.3,5-11.3,11.3c0,6.3,5,11.3,11.3,11.3c2.8,0,5.3-1,7.3-2.6v2.6h4.7v-21.9h-4.7V540.7z
			 M-706.3,556.5c-3.8,0-6.9-3.1-6.9-6.9s3.1-6.9,6.9-6.9c3.8,0,6.9,3.1,6.9,6.9S-702.4,556.5-706.3,556.5z M-589.8,532.8l-9.9,2
			c-2.2,0-5.3,0-5.3,0c-1.8,0-1.3,2.6-1.3,2.6l0,0c0,2.5,0.1,11.6-0.7,14.5c0,0-0.9,7.5-2,8.6c0,0-0.4,1.6,0.7,2
			c0,0,1.9,0.9,2.6-1.3c0,0,1.9-6.1,2-9.2c0,0,0.6-10.2,0.7-14.5h0.7c11.1-0.4,13.9-2.6,13.9-2.6
			C-587.2,533.1-589.8,532.8-589.8,532.8z M-671.5,540.7c-1.9-1.6-4.5-2.6-7.3-2.6c-6.1,0-11.3,5-11.3,11.3c0,6.3,5,11.3,11.3,11.3
			c5.7,0,10.5-4.4,11.1-9.9h0.1v-17.8h-3.9L-671.5,540.7L-671.5,540.7z M-678.6,556.5c-3.8,0-6.9-3.1-6.9-6.9s3.1-6.9,6.9-6.9
			c3.8,0,6.9,3.1,6.9,6.9S-674.8,556.5-678.6,556.5z"/>
	</g>
</g>
</svg>
