<?xml version="1.0" encoding="utf-8"?>
<!-- Generator: Adobe Illustrator 19.0.0, SVG Export Plug-In . SVG Version: 6.00 Build 0)  -->
<svg version="1.1" id="图层_1" xmlns="http://www.w3.org/2000/svg" xmlns:xlink="http://www.w3.org/1999/xlink" x="0px" y="0px"
	 viewBox="-834 481 250 120" style="enable-background:new -834 481 250 120;" xml:space="preserve">
<style type="text/css">
	.st0{fill:url(#SVGID_1_);}
	.st1{fill:url(#SVGID_2_);}
	.st2{fill:url(#SVGID_3_);}
	.st3{fill:url(#SVGID_4_);}
	.st4{fill:url(#SVGID_5_);}
	.st5{fill:url(#SVGID_6_);}
	.st6{fill:url(#SVGID_7_);}
	.st7{fill:url(#SVGID_8_);}
</style>
<g id="椭圆_1">
	<g>
		<path d="M-729.2,589.9h-0.4c-1.1,0-2,1.1-2,2.2v1c0,1.1,0.9,1.8,2,1.8h0.4c0.8,0,1.6-0.4,2-1c0,0-0.7-0.4-1,0s-0.7,0.2-1.2,0.2
			c-0.7,0-1.2-0.3-1.2-1v-0.4h2.4l0,0h1v-0.6C-727.2,591-728.1,589.9-729.2,589.9z M-728.2,592.1h-2.4l0,0c0-0.7,0.5-1.4,1.2-1.4
			C-728.8,590.7-728.2,591.5-728.2,592.1L-728.2,592.1z M-658.3,589.9h-0.4c-1.1,0-2,1.1-2,2.2v1c0,1.1,0.9,1.8,2,1.8h0.4
			c0.8,0,1.6-0.4,2-1c0,0-0.5-0.3-1,0s-0.7,0.2-1.2,0.2c-0.7,0-1.2-0.3-1.2-1v-0.4h2.4l0,0h1v-0.6
			C-656.2,591-657.1,589.9-658.3,589.9z M-657.2,592.1h-2.4l0,0c0-0.7,0.5-1.4,1.2-1.4S-657.2,591.5-657.2,592.1L-657.2,592.1z
			 M-702.7,594.2h-1.3c-0.2,0-0.3-0.1-0.4-0.1V591h1.4c0.1,0,0.2-0.1,0.2-0.2v-0.4c0-0.1-0.1-0.2-0.2-0.2h-1.4v-1
			c0-0.1-0.1-0.3-0.3-0.3h-0.5c-0.1,0-0.3,0.1-0.3,0.3v4.8l0,0c0,0,0,0,0,0.1v0.1l0,0c0.1,0.9,1,0.8,1,0.8l0,0l0,0h1.6
			c0.1,0,0.2-0.1,0.2-0.2v-0.4C-702.5,594.3-702.6,594.2-702.7,594.2z M-656.1,566.8h-1.4c-0.4,0-0.7,0.3-0.7,0.7v15.6
			c0,0.4,0.3,0.7,0.7,0.7h1.4c0.4,0,0.7-0.3,0.7-0.7v-15.6C-655.4,567.1-655.7,566.8-656.1,566.8z M-667.8,583.8
			c0.8-0.4,1-0.8,0.3-1.7l-4.7-7l4.1-6.7c0.4-0.7,0.6-1.1,0-1.5s-2-0.1-2.1,0.1l-3.5,6l-4-6c-0.2-0.1-1.6-0.5-2.2-0.1
			c-0.6,0.4-0.4,0.8,0,1.5l4.1,6.2l-4.6,7.5c-0.7,0.9-0.5,1.2,0.3,1.7c0.6,0.4,1.6,0.2,2-0.5l3.8-6.3l4.2,6.3
			C-669.4,584-668.4,584.2-667.8,583.8z M-690.9,566.8h-1.2c-0.3,0-0.6,0.3-0.6,0.6v11.7l-5.5-11.4c-0.1-0.1-1-1.5-3.4-0.8
			c-0.2,0-0.2,0.1-0.3,0.2c-0.3,0.2-0.5,0.4-0.5,0.9v14.6c0,0.7,0.5,1.2,1.2,1.2s1.2-0.5,1.2-1.2v-11.9l6.5,12.6
			c0.3,0.6,1.8,0.8,2.5,0.6l0,0c0.2,0,0.4-0.1,0.5-0.3l0.1-0.1c0-0.1,0.1-0.2,0.1-0.3v-15.8C-690.3,567.1-690.6,566.8-690.9,566.8z
			 M-711.3,582.4l-5.2-14.6c-0.2-0.6-1.3-1-2-1c-0.5,0-0.7,0.1-0.9,0.2c-0.5,0-1,0.3-1.2,0.8l-5.2,14.6c-0.2,0.6,0.1,1.3,0.8,1.6
			c0.6,0.2,1.3-0.1,1.5-0.8l1.3-3.8h7.1l1.4,3.8c0.2,0.6,0.9,1,1.6,0.8C-711.4,583.7-711,583-711.3,582.4z M-721.4,577.4l2.9-8
			l2.9,8H-721.4z M-734.2,581.3l-5.6,0.1v-14.2c0-0.4-0.3-0.7-0.7-0.7h-1.4c-0.4,0-0.7,0.3-0.7,0.7v15.6c0,0.4,0.3,0.7,0.7,0.7h0.2
			c0.1,0.1,0.2,0.1,0.3,0.1l7.3-0.1c0.4,0,0.7-0.5,0.7-1.1C-733.5,581.8-733.8,581.3-734.2,581.3z M-737.6,588.5h-0.5
			c-0.1,0-0.3,0.1-0.3,0.3v2.4h-3.1v-2.4c0-0.1-0.1-0.3-0.3-0.3h-0.5c-0.1,0-0.3,0.1-0.3,0.3v6c0,0.1,0.1,0.3,0.3,0.3h0.5
			c0.1,0,0.3-0.1,0.3-0.3V592h3.1v2.8c0,0.1,0.1,0.3,0.3,0.3h0.5c0.1,0,0.3-0.1,0.3-0.3v-6C-737.4,588.6-737.5,588.5-737.6,588.5z
			 M-711.3,588.3h-0.5c-0.1,0-0.3,0.1-0.3,0.3v6c0,0.1,0.1,0.3,0.3,0.3h0.5c0.1,0,0.3-0.1,0.3-0.3v-6
			C-711,588.4-711.1,588.3-711.3,588.3z M-694.4,589.9c-0.1,0-0.2,0-0.3,0l0,0C-694.5,589.9-694.4,589.9-694.4,589.9z M-694.7,589.9
			L-694.7,589.9L-694.7,589.9C-694.8,589.9-694.8,589.9-694.7,589.9c-0.8,0-1.3,0.2-1.5,0.4v-2c0-0.1-0.1-0.3-0.3-0.3h-0.5
			c-0.1,0-0.3,0.1-0.3,0.3v6.4c0,0.1,0.1,0.3,0.3,0.3h0.5c0.1,0,0.3-0.1,0.3-0.3V591l0.6-0.3c1.7-0.3,1.6,0.8,1.6,0.8l0,0v3
			c0,0.1,0.1,0.3,0.3,0.3h0.5c0.1,0,0.3-0.1,0.3-0.3v-3.3l0,0l0,0C-693,590.1-694.3,589.9-694.7,589.9z M-666,590.1h-1.7l0,0
			c-0.1,0-0.1,0-0.2,0c-0.3,0-0.5,0.2-0.5,0.5v3.9c0,0.3,0.2,0.3,0.5,0.3s0.5,0,0.5-0.3V591h1.4c0.2,0,0.3-0.1,0.3-0.3v-0.2
			C-665.7,590.2-665.8,590.1-666,590.1z M-683.8,594l-0.8,0.2c-0.9,0-1.6,0-1.6-1.6s0.7-1.6,1.6-1.6h0.6c0.1,0,0.4,0,0.4-0.4
			s-0.2-0.4-0.2-0.4h-1.6c-1.1,0-2,0.9-2,2v0.8c0,1.1,0.9,2,2,2l1.8-0.2c0,0,0.2,0,0.2-0.4C-683.4,593.9-683.7,594-683.8,594z
			 M-676.1,589.9h-1.8c0,0-0.4,0-0.4,0.4s0.3,0.4,0.4,0.4h0.6c0.7,0,2.2-0.1,2.2,0.6c0,0.2,0,0.4,0,0.7c-0.3-0.1-0.6-0.1-0.9-0.1
			c-1.2,0-2.3,0.6-2.5,1.3c0,0,0,0,0,0.1s0,0.1,0,0.2l0,0l0,0c0,1.1,0.9,1.3,1.1,1.4h2.4c0.7,0,1-0.3,1-1c0-0.1,0-0.8,0-1.2v-0.8
			C-674.1,590.8-674.4,589.9-676.1,589.9z M-675.5,594.2c0,0-0.9,0-1.5,0c-0.3-0.2-0.6-0.4-0.6-0.7c0-0.5,0.7-0.9,1.5-0.9
			c0.3,0,0.6,0.1,0.9,0.2c0,0.3,0,0.7,0,0.8C-675.1,593.8-675.2,594.1-675.5,594.2z M-719.7,589.9h-1.8c0,0-0.4,0-0.4,0.4
			s0.3,0.4,0.4,0.4h0.6c0.7,0,2.2-0.1,2.2,0.6c0,0.2,0,0.4,0,0.7c-0.3-0.1-0.6-0.1-0.9-0.1c-1.2,0-2.3,0.6-2.5,1.3c0,0,0,0,0,0.1
			s0,0.1,0,0.2l0,0l0,0c0,1.1,0.9,1.3,1.1,1.4h2.4c0.7,0,1-0.3,1-1c0-0.1,0-0.8,0-1.2v-0.8C-717.7,590.8-718,589.9-719.7,589.9z
			 M-719.1,594.2c0,0-0.9,0-1.5,0c-0.3-0.2-0.6-0.4-0.6-0.7c0-0.5,0.7-0.9,1.5-0.9c0.3,0,0.6,0.1,0.9,0.2c0,0.3,0,0.7,0,0.8
			C-718.7,593.8-718.8,594.1-719.1,594.2z"/>
	</g>
</g>
<linearGradient id="SVGID_1_" gradientUnits="userSpaceOnUse" x1="-692.2698" y1="528.9265" x2="-751.7666" y2="528.9265" gradientTransform="matrix(0.9365 0.3506 -0.3506 0.9365 140.3528 288.4696)">
	<stop  offset="0" style="stop-color:#FFFFFF"/>
	<stop  offset="0.9997" style="stop-color:#000000;stop-opacity:0.9"/>
</linearGradient>
<path class="st0" d="M-744.1,507.3c-1.8,1.4-5.6,23.3,17.4,38.2c0,0,20.9,11.6,28.9,5.6c0,0,3.5-1.9-0.4-7.1
	C-698.2,544.1-735.2,498.4-744.1,507.3z"/>
<linearGradient id="SVGID_2_" gradientUnits="userSpaceOnUse" x1="-700.0845" y1="579.2792" x2="-759.5813" y2="579.2792" gradientTransform="matrix(0.9999 -1.201284e-02 1.201284e-02 0.9999 -6.114 -45.9587)">
	<stop  offset="0" style="stop-color:#FFFFFF"/>
	<stop  offset="0.9997" style="stop-color:#000000;stop-opacity:0.9"/>
</linearGradient>
<path class="st1" d="M-758.7,528.5c-1.2,1.9,3.2,23.8,30,29.3c0,0,23.7,3.2,28.9-5.2c0,0,2.6-3-2.9-6.5
	C-702.6,546.2-753.6,517-758.7,528.5z"/>
<linearGradient id="SVGID_3_" gradientUnits="userSpaceOnUse" x1="-871.3975" y1="576.5544" x2="-930.8943" y2="576.5544" gradientTransform="matrix(-0.9999 -1.201284e-02 -1.201284e-02 0.9999 -1565.8016 -45.9587)">
	<stop  offset="0" style="stop-color:#FFFFFF"/>
	<stop  offset="0.9997" style="stop-color:#000000;stop-opacity:0.9"/>
</linearGradient>
<path class="st2" d="M-641.9,527.9c1.2,1.9-3.2,23.8-30,29.3c0,0-23.7,3.2-28.9-5.2c0,0-2.6-3,2.9-6.5
	C-698,545.5-646.9,516.3-641.9,527.9z"/>
<linearGradient id="SVGID_4_" gradientUnits="userSpaceOnUse" x1="-686.4651" y1="519.3042" x2="-745.9619" y2="519.3042" gradientTransform="matrix(0.7638 0.6454 -0.6454 0.7638 167.6289 591.0084)">
	<stop  offset="0" style="stop-color:#FFFFFF"/>
	<stop  offset="0.9997" style="stop-color:#000000;stop-opacity:0.9"/>
</linearGradient>
<path class="st3" d="M-728.2,495.7c-2.2,0.7-13.1,20.1,3.5,41.8c0,0,15.8,17.9,25.3,15c0,0,4-0.6,2-6.8
	C-697.4,545.7-716.9,490.2-728.2,495.7z"/>
<linearGradient id="SVGID_5_" gradientUnits="userSpaceOnUse" x1="-680.3651" y1="510.1585" x2="-739.8619" y2="510.1585" gradientTransform="matrix(0.4761 0.8794 -0.8794 0.4761 82.1255 903.9323)">
	<stop  offset="0" style="stop-color:#FFFFFF"/>
	<stop  offset="0.9997" style="stop-color:#000000;stop-opacity:0.9"/>
</linearGradient>
<path class="st4" d="M-706.5,489.8c-2.3-0.1-19.6,13.9-12,40.2c0,0,8.2,22.5,18.1,23.2c0,0,3.9,0.9,4.4-5.6
	C-696,547.6-693.9,488.8-706.5,489.8z"/>
<linearGradient id="SVGID_6_" gradientUnits="userSpaceOnUse" x1="-701.7921" y1="533.9146" x2="-761.2889" y2="533.9146" gradientTransform="matrix(-0.9365 0.3506 0.3506 0.9365 -1549.0614 288.4696)">
	<stop  offset="0" style="stop-color:#FFFFFF"/>
	<stop  offset="0.9997" style="stop-color:#000000;stop-opacity:0.9"/>
</linearGradient>
<path class="st5" d="M-654,508.7c1.8,1.4,5.6,23.3-17.4,38.2c0,0-20.9,11.6-28.9,5.6c0,0-3.5-1.9,0.4-7.1
	C-699.8,545.4-662.8,499.7-654,508.7z"/>
<linearGradient id="SVGID_7_" gradientUnits="userSpaceOnUse" x1="-694.0064" y1="527.4225" x2="-753.5032" y2="527.4225" gradientTransform="matrix(-0.7638 0.6454 0.6454 0.7638 -1576.3374 591.0084)">
	<stop  offset="0" style="stop-color:#FFFFFF"/>
	<stop  offset="0.9997" style="stop-color:#000000;stop-opacity:0.9"/>
</linearGradient>
<path class="st6" d="M-669.5,497c2.2,0.7,13.1,20.1-3.5,41.8c0,0-15.8,17.9-25.3,15c0,0-4-0.6-2-6.8
	C-700.3,547.1-680.9,491.6-669.5,497z"/>
<linearGradient id="SVGID_8_" gradientUnits="userSpaceOnUse" x1="-685.4681" y1="520.2834" x2="-744.9649" y2="520.2834" gradientTransform="matrix(-0.4761 0.8794 0.8794 0.4761 -1490.834 903.9323)">
	<stop  offset="0" style="stop-color:#FFFFFF"/>
	<stop  offset="0.9997" style="stop-color:#000000;stop-opacity:0.9"/>
</linearGradient>
<path class="st7" d="M-690.9,490.1c2.3-0.1,19.6,13.9,12,40.2c0,0-8.2,22.5-18.1,23.2c0,0-3.9,0.9-4.4-5.6
	C-701.4,547.9-703.5,489.2-690.9,490.1z"/>
</svg>
