<?xml version="1.0" encoding="utf-8"?>
<!-- Generator: Adobe Illustrator 19.0.0, SVG Export Plug-In . SVG Version: 6.00 Build 0)  -->
<svg version="1.1" id="图层_1" xmlns="http://www.w3.org/2000/svg" xmlns:xlink="http://www.w3.org/1999/xlink" x="0px" y="0px"
	 viewBox="-834 481 250 120" style="enable-background:new -834 481 250 120;" xml:space="preserve">
<style type="text/css">
	.st0{fill-rule:evenodd;clip-rule:evenodd;}
</style>
<g id="矩形_1_拷贝">
	<g>
		<path class="st0" d="M-772.9,527.6c-11.1,0-20.1,4.6-20.1,10.2c0,5.6,9,10.2,20.1,10.2c11.1,0,20.1-4.6,20.1-10.2
			C-752.9,532.2-761.9,527.6-772.9,527.6z M-774.7,544.8c-7.1,0-12.9-3.1-12.9-7c0-3.9,5.8-7,12.9-7s12.9,3.1,12.9,7
			C-761.8,541.7-767.6,544.8-774.7,544.8z M-729.3,527.3c-3.3,0-6.5,0.4-9.2,1.1v3.3c2.1-0.8,4.7-1.3,7.5-1.3c7.1,0,12.9,3.1,12.9,7
			c0,3.9-5.8,7-12.9,7c-4.9,0-9.1-1.5-11.3-3.6v-12.6h-7.3V555h7.3v-9.8c3.5,1.5,8.1,2.5,13.1,2.5c11.1,0,20.1-4.6,20.1-10.2
			C-709.2,531.9-718.2,527.3-729.3,527.3z M-685.3,527.3c-3.3,0-6.5,0.4-9.2,1.1v3.3c2.1-0.8,4.7-1.3,7.5-1.3c7.1,0,12.9,3.1,12.9,7
			c0,3.9-5.8,7-12.9,7c-4.9,0-9.1-1.5-11.3-3.6v-12.6h-7.3V555h7.3v-9.8c3.5,1.5,8.1,2.5,13.1,2.5c11.1,0,20.1-4.6,20.1-10.2
			C-665.3,531.9-674.3,527.3-685.3,527.3z M-642.7,527.3c-11.1,0-20.1,4.6-20.1,10.2c0,5.6,9,10.2,20.1,10.2s20.1-4.6,20.1-10.2
			C-622.6,531.9-631.6,527.3-642.7,527.3z M-644.4,544.5c-7.1,0-12.9-3.1-12.9-7c0-3.9,5.8-7,12.9-7s12.9,3.1,12.9,7
			C-631.5,541.4-637.3,544.5-644.4,544.5z"/>
	</g>
</g>
</svg>
