<?xml version="1.0" encoding="utf-8"?>
<!-- Generator: Adobe Illustrator 19.0.0, SVG Export Plug-In . SVG Version: 6.00 Build 0)  -->
<svg version="1.1" id="图层_1" xmlns="http://www.w3.org/2000/svg" xmlns:xlink="http://www.w3.org/1999/xlink" x="0px" y="0px"
	 viewBox="-834 481 250 120" style="enable-background:new -834 481 250 120;" xml:space="preserve">
<style type="text/css">
	.st0{fill-rule:evenodd;clip-rule:evenodd;}
</style>
<g id="形状_2">
	<g>
		<path class="st0" d="M-743.8,569.2h-1.7V565h-2.5v11h2.5v-5.1h1.7v5.1h2.5v-11h-2.5V569.2z M-734.5,572.6v1c0,0.4-0.3,0.6-0.6,0.6
			c-0.4,0-0.6-0.3-0.6-0.6v-1V565h-2.5v9.3c0,0.9,1.4,1.7,3.2,1.7c1.8,0,3.2-0.8,3.2-1.7V565h-2.5V572.6z M-724.3,565l-1.1,2.5
			l-1.1-2.5h-2.5l2.3,5.5l-2.3,5.5h2.5l1.1-2.5l1.1,2.5h2.5l-2.3-5.5l2.3-5.5H-724.3z M-719.2,576h2.5v-11h-2.5V576z M-709.4,572.6
			v1c0,0.4-0.3,0.6-0.6,0.6s-0.6-0.3-0.6-0.6v-1V565h-2.5v9.3c0,0.9,1.4,1.7,3.2,1.7c1.8,0,3.2-0.8,3.2-1.7V565h-2.5V572.6z
			 M-703.9,575.6h2.1v-2.1h-2.1V575.6z M-686.3,565c-1.8,0-3.2,0.8-3.2,1.7c0,0.1,0,0.3,0.1,0.4h-0.1v7.2c0,0.9,1.4,1.7,3.2,1.7
			c1.8,0,3.2-0.8,3.2-1.7v-7.2h-0.1c0.1-0.1,0.1-0.3,0.1-0.4C-683.1,565.7-684.5,565-686.3,565z M-685.7,568.4v4.3v1
			c0,0.4-0.3,0.6-0.6,0.6s-0.6-0.3-0.6-0.6v-1v-4.3v-1c0-0.4,0.3-0.6,0.6-0.6s0.6,0.3,0.6,0.6V568.4z M-696.1,565
			c-1.8,0-3.2,0.8-3.2,1.7c0,0.1,0,0.3,0.1,0.4h-0.1v7.2c0,0.9,1.4,1.7,3.2,1.7s3.2-0.8,3.2-1.7c0-0.3,0-2.5,0-2.5s-1.2,0.1-2.1,0
			v1.9c0,0.4-0.5,0.6-0.8,0.6s-0.8-0.3-0.8-0.6v-1v-4.3v-1c0-0.4,0.5-0.7,0.8-0.7s0.8,0.3,0.8,0.7v2.3c0,0,2.1,0,2.1,0s0-2.6,0-3
			C-692.9,565.7-694.3,565-696.1,565z M-673.3,565h-1.3l-0.8,5.3l-0.8-5.3h-1.3h-0.4h-1.7v10.6h2.1v-8l1.3,8h1.7l1.3-8v8h2.1V565
			h-1.7H-673.3z M-741.7,522.5h7.6v5.1h-5.1v1.3h5.1v5.5c0.6,3.3,3.4,3,3.4,3h11.9l3-3l-1.3-0.8l-0.4-5.9l-3,5.5l-7.6,0.4
			c-0.9,0.1-1.3-0.8-1.3-0.8v-3.8h8.1v-1.3h-8.1v-5.1h10.9l-0.7,4.2l5.9-5.5l-4.2-4.2l-0.7,4.2h-11.1v-3.8h8.1v-1.3h-8.1V514
			l1.7-1.7l-6.4-3.8v12.7h-7.6l-4.7-2.5v15.7c-0.2,16.2-3.4,24.2-3.4,24.2c6.7-6.5,8.1-22.1,8.1-22.1V522.5z M-714.1,552.7l-0.8-6.4
			c-1.3,5.8-3.4,6.4-3.4,6.4h-3c-0.9,0-1.4-0.3-1.7-0.7v-12.4l-4.2,2.5h-5.7l-4.1-3.4c0.7,3.4-0.4,10.2-0.4,10.2
			c-1.6,6.1-6.4,9.3-6.4,9.3c4.3-0.3,7.6-3.4,7.6-3.4c3.2-1.9,4.1-9.6,4.2-11.5h4.7v11.5h0.1c0.5,2.3,2.9,2.1,2.9,2.1h8.1
			c1.6-0.5,3.4-3,3.4-3L-714.1,552.7z M-728.1,533.5c0.2,0,0.3,0,0.4,0C-727.8,533.5-728.1,533.5-728.1,533.5z M-698.4,543.7
			l3.8,2.1v-28.4l-3.8,1.7h-3l-3.8-1.7v29.7l3.8-2.1v-3.8h3V543.7z M-701.4,539.9v-19.5h3v19.5H-701.4z M-686.9,536.1h10.6l3.8,2.5
			v-23.3l-3.8,1.7h-7.3l4.3-5.1l-5.9-1.3l0.4,6.4h-2.1l-3.8-1.7v24.6l3.8-2.1V536.1z M-686.9,518.3h10.6v4.2h-10.6V518.3z
			 M-686.9,523.8h10.6v5.1h-10.6V523.8z M-686.9,530.2h10.6v4.7h-10.6V530.2z M-672.1,558.2c0.1,0,3.9-5.1,3.8-5.1
			c-6.3-1-10.8-6.1-12-7.6h9.4v-1.3h-5.8l3.7-3l-6.8-4.2c-0.1-0.1,1.9,5.6,2.4,7.2h-3.8l0.6-4.7l-4.7-0.8c0,0,0,2.8-0.3,5.5h-5.2
			v1.3h5c-0.2,1-0.4,1.9-0.8,2.5c0,0-5.9,9.9-8.9,10.2c0,0,12-1.1,14-11.9l0.1-0.8h0.8C-680.4,547.1-679.4,553.2-672.1,558.2z"/>
	</g>
</g>
</svg>
