<?xml version="1.0" encoding="utf-8"?>
<!-- Generator: Adobe Illustrator 19.0.0, SVG Export Plug-In . SVG Version: 6.00 Build 0)  -->
<svg version="1.1" id="图层_1" xmlns="http://www.w3.org/2000/svg" xmlns:xlink="http://www.w3.org/1999/xlink" x="0px" y="0px"
	 viewBox="-834 481 250 120" style="enable-background:new -834 481 250 120;" xml:space="preserve">
<style type="text/css">
	.st0{fill-rule:evenodd;clip-rule:evenodd;}
</style>
<g id="椭圆_1">
	<g>
		<path class="st0" d="M-737.7,513.2c-1.4-1-5.3,1.6-7.6,3.4l-0.6-0.3c-2.1-1,0.6-3.8,0.6-3.8c2.1-2.6,0-3.1,0-3.1
			c-2.1-0.4-5.7,4.4-5.7,4.4c-1.4,2.2-3.3,1.5-3.7,1.3c-0.9-1.7,1.2-5.1,1.2-5.1c1-3.6-3.2-1.3-3.2-1.3c-2.4,0.7-5,6.9-5,6.9
			c-2,1.2-1.9-1.3-1.9-1.3c1.1-3.4,0-3.1,0-3.1c-1.2-0.3-3.8,4.4-3.8,4.4c-0.4,0.8-0.8,1.7-1.1,2.5c0,0-0.1,0-0.1,0
			c-1.8,0.3-2-0.9-1.6-3.6c0.1-0.6-0.7-1.1-1.2-0.7c-0.5,0.4-1.5,1.3-2.3,3c-0.5,1.1-0.7,3.7-1,6.3c-0.4,0.8-0.7,1.7-0.8,2.6
			c-0.4,5.7,2.2,10.6,15,11.4c11.6,0.7,20.8-4,21.5-8.5c0,0,0,0,0,0c0.3-2.9,0.7-5.4,0-6.3c-3.2-4.1,0.6-7.5,0.6-7.5
			C-736.7,513.3-737.7,513.2-737.7,513.2z M-758.6,535.7c-7.3,0-13.2-3.4-13.2-7.5s5.9-7.5,13.2-7.5c7.3,0,13.2,3.4,13.2,7.5
			S-751.2,535.7-758.6,535.7z"/>
	</g>
</g>
<g id="椭圆_4">
	<g>
		<path class="st0" d="M-760.1,523.2c-3.3,0-6,2.4-6,5.3s2.7,5.3,6,5.3s6-2.4,6-5.3S-756.8,523.2-760.1,523.2z M-762,531.3
			c-1.2,0-2.2-1-2.2-2.2s1-2.2,2.2-2.2s2.2,1,2.2,2.2S-760.8,531.3-762,531.3z M-758.2,528.2c-0.5,0-0.9-0.4-0.9-0.9
			s0.4-0.9,0.9-0.9s0.9,0.4,0.9,0.9S-757.7,528.2-758.2,528.2z"/>
	</g>
</g>
<g id="形状_5">
	<g>
		<path class="st0" d="M-757.9,539.5c-0.1,0.1-0.1,0.1-0.2,0.2c-1.5,0.7-7.3-0.8-7.3-0.8l-3.2,16.3c-1.9,10.7-0.6,11.9-0.6,11.9
			C-766.3,566.1-757,538.5-757.9,539.5z M-782.5,537.6c0,0-7,3.4-5.7,7.5c0,0-0.6,3.4,8.2,3.8c0,0,3.3,0.8,1.9,2.5c0,0-6.1,4-12-1.9
			l-1.9,5c0,0,3.8,2.6,12.6,1.9c0,0,8.3-1.4,8.8-7.5c0,0,0.2-4.2-6.3-4.4c0,0-9-1.7-2.5-3.8c0,0,6.5-1.2,9.5,2.5l1.9-5.6
			C-768,537.6-775.7,535.7-782.5,537.6z M-737.1,537c-4.2-1.2-11.6,0.8-15.1,1.9h-1.3l-0.1,0.5c-0.3,0.1-0.5,0.2-0.5,0.2l0.4,0.2
			l-5.4,16.7h6.9l4.4-13.6l1.9-1.4c4.9-0.7,5,1.3,5,1.3l-3.8,13.8h6.9l3.6-13.2l0.2,0C-732.4,537.5-737.1,537-737.1,537z
			 M-710,541.7c0.1-0.2,0.1-0.3,0.1-0.3c1-3.8-5.7-5-5.7-5l-12,1.3l-1.3,4.4l11.4-1.1c1.1,1.3,1.2,2.3,1.2,2.3l-2.5,7.5
			c-0.8,1-4.4,1.3-4.4,1.3c-3.6,0.2-3.2-2.5-3.2-2.5c0.3-1.4,6.3-2.5,6.3-2.5l1.9-3.1c-13-0.8-15.1,5.6-15.1,5.6
			c-2.2,5.8,3.2,6.9,3.2,6.9h6.3c5.4-0.1,10.3-3.1,11.4-5.6c1.1-2.6,2.5-9.4,2.5-9.4C-710,541.5-710,541.6-710,541.7z M-721.8,551.9
			C-721.5,551.9-721.6,551.9-721.8,551.9L-721.8,551.9z M-710.4,543c0,0,0-0.1,0.1-0.3C-710.4,542.8-710.4,542.9-710.4,543z
			 M-674.6,542.6h-3.8c0.1,2,0.6,3.8,0.6,3.8c1,2.3,3.8,2.5,3.8,2.5l1.3-2.5C-675.6,545.8-674.6,542.6-674.6,542.6z M-672.1,542.6
			l1.3-2.5c-2.4-0.1-1.9-3.1-1.9-3.1h-3.8C-676.6,543.3-672.1,542.6-672.1,542.6z M-656.9,538.2h-2.5v-1.9h-3.2v1.9h-3.2h-0.6h-2.5
			l-4.2,15l-0.2,0c0,0-0.9,3.2,2.5,3.1h3.8l1.3-2.5h-4.4l1.6-5.6h9.1h3.2l2.5-8.1C-653.6,537.8-656.9,538.2-656.9,538.2z
			 M-658.9,546.3h-9.2l0.7-2.5h9.2l0.6-1.9h-9.3l0.5-1.9h9.4L-658.9,546.3z M-659.4,548.8l-2.7,2.7c-1.1-1.3-1.7-2.7-1.7-2.7h-3.8
			c1.6,6.8,8.2,7.5,8.2,7.5l1.9-2.5c-0.9,0-1.8-0.3-2.5-0.7l3.8-4.4H-659.4z M-642.7,548.1c3-3.5,4.1-7.4,4.1-7.4h-2.5l-1.3,3.1
			c-0.3,0.5-0.5,0.9-0.8,1.3c-0.1-2.3,0.1-4.5,0.1-4.5h-2.5v6.3c0,0.4,0.1,0.7,0.2,1.1c-1.9,1.8-3.3,2-3.3,2v3.1l3.2-2.5
			c0.3-0.2,0.6-0.4,0.9-0.7c0.7,1.6,1.7,2.5,1.7,2.5l1.9-2.5C-641.9,549.9-642.4,549.1-642.7,548.1z M-636.1,552.6l1.9-3.1
			c-0.5-0.2-0.9-0.6-1.1-1.1c0.7-0.8,1.3-1.7,1.7-2.6c0,0,0.7-1.1,1.9-5h-2.5c0,0-0.3,2.2-1.7,4.6c-0.1-2.3,0.5-4.6,0.5-4.6h-2.5
			c-0.2,3.2-0.1,5.5,0.1,7.3c-0.7,0.8-1.6,1.5-2.6,2.1l-0.6,2.5c0,0,1.8-0.8,3.8-2.3C-636.8,552.1-636.1,552.6-636.1,552.6z
			 M-628.5,537h-17c0,0-2.6-0.5-3.8,2.5l-5.7,16.9h3.8l5.5-17.5h15.5c0.4,0,1.3,0.1,1.1,1.3l-5,13.8h-4.4l-0.6,2.5h6.3
			c0,0,1.8-1.1,2.5-3.8l4.4-11.9C-626,540.7-624.8,537.1-628.5,537z M-680.9,552.6l-1.3,3.8c0,0,5.9,0.4,8.2-6.3h-3.2
			C-677.1,550.1-679.2,552.9-680.9,552.6z M-706.8,550.1l-3.8,5h3.2l3.8-5H-706.8z M-696.7,550.1h-2.5l1.9,5l1.9-1.3L-696.7,550.1z
			 M-691,538.2h-5.1v-1.9h-3.2v1.9h-5.7v1.8h13.9V538.2z M-694.2,547h-4.6l0.6-1.9h5.2v-1.8h-1.6l1-2.5h-3.2l-1,2.5h-2.9l-0.5-2.5
			h-3.2l0.5,2.5h-2.4v1.8h4.9l-0.6,1.9h-5.5v1.9h4.9l-2.4,7.5h3.2l2.4-7.5h5.2V547z M-680.3,543.2h-8l1.4-3.8h7.8l0.6-1.9h-9.5
			l-1.9,1.9l-1.9,4.4l-3.8,12.5h3.2l3.4-11.3h3.2l-3.4,11.3h3.2l3.4-11.3h1.6L-680.3,543.2z"/>
	</g>
</g>
</svg>
