<?xml version="1.0" encoding="utf-8"?>
<!-- Generator: Adobe Illustrator 19.0.0, SVG Export Plug-In . SVG Version: 6.00 Build 0)  -->
<svg version="1.1" id="图层_1" xmlns="http://www.w3.org/2000/svg" xmlns:xlink="http://www.w3.org/1999/xlink" x="0px" y="0px"
	 viewBox="-834 481 250 120" style="enable-background:new -834 481 250 120;" xml:space="preserve">
<style type="text/css">
	.st0{fill:#FFFFFF;}
</style>
<g id="XMLID_126_">
	<path id="XMLID_104_" d="M-680.8,504.4h-52.5c-6.4,0-11.6,5.3-11.6,11.6v52.5c0,6.4,5.3,11.6,11.6,11.6h52.5
		c6.4,0,11.6-5.3,11.6-11.6V516C-669.3,509.7-674.4,504.4-680.8,504.4z"/>
</g>
<g id="XMLID_106_">
	<path id="XMLID_123_" class="st0" d="M-690.8,550.8c0,0.2,0.2,0.2,0.3,0.3c0.6,0.5,1.1,1.1,1.6,1.8c0.3,0.3,0.4,0.4,0.7,0.2
		c0.8-0.5,1.8-1,2.6-1.5c0.3-0.2,0.6-0.3,0.8,0c1.2,0.8,2.5,1.5,3.6,2.2c0.3,0.2,0.4,0.1,0.5-0.2c0.3-0.8,0.7-1.4,1.1-2.1
		c0.2-0.3,0.2-0.5-0.2-0.7c-0.8-0.5-1.7-1.1-2.5-1.5c-0.3-0.2-0.3-0.3-0.1-0.5c0.3-0.3,0.5-0.5,0.7-0.8c0.8-0.8,1.5-1.8,1.9-2.8
		c0.1-0.3,0.2-0.4,0-0.6c-0.3-0.3-0.5-0.7-0.7-1c-0.1-0.2-0.3-0.3-0.4-0.3c-3,0-6.1,0.1-9.1-0.1c-0.3,0-0.3,0.1-0.3,0.3
		c0,0.8,0,1.5,0,2.2c0,0.3,0.1,0.3,0.4,0.3c0.4,0,0.8-0.1,1.1-0.1c0.2,0,0.3-0.1,0.4,0.1c0.1,0.2-0.1,0.3-0.2,0.4
		c-0.3,0.5-0.7,0.8-1.1,1.2c-0.4,0.3-0.4,0.3,0.1,0.5c0.6,0.4,1.2,0.8,1.9,1.1c-0.8,0.5-1.6,1-2.5,1.1
		C-690.7,550.6-690.8,550.6-690.8,550.8z M-684,546.2c-0.4,0.6-0.8,1-1.2,1.5c-0.1,0.1-0.2,0.1-0.3,0c-0.8-0.5-1.6-0.8-2.3-1.5
		C-686.6,546.2-685.4,546.2-684,546.2z"/>
	<path id="XMLID_114_" class="st0" d="M-678.6,555.9c-1,0-1.9-0.2-2.8-0.3c-3-0.5-5.8-1.5-8.4-3c-0.1-0.1-0.3-0.1-0.3-0.2
		c0-0.3-0.3-0.3-0.4-0.5c-0.8-0.4-1.7-0.8-2.3-1.3c-0.3-0.3-0.5-0.3-0.8,0.1c-1.1,1-2.2,1.8-3.3,2.5c-2.9,1.8-6,2.9-9.3,3.6
		c0,0.1,0,0.2,0.1,0.2c0.8,0.8,1.4,1.5,2,2.5c0.2,0.3,0.3,0.2,0.5,0.1c0.8-0.4,1.7-0.7,2.5-1c0.5-0.3,0.5-0.3,0.5,0.3
		c0.1,2.3,0,4.7,0.1,7.1c0,0.5-0.2,0.8-0.5,1c-0.3,0.3-0.3,0.4-0.3,0.8c0.3,0.8,0.6,1.5,0.8,2.2c0.1,0.3,0.3,0.4,0.5,0.3
		c1.5-0.4,3-0.7,4.6-1c1-0.3,1.9-0.4,2.9-0.6c0.2-0.1,0.5,0,0.5-0.3c0.1-0.8,0.3-1.4,0.6-2.1c0.2-0.3,0.1-0.4-0.3-0.3
		c-1.8,0.3-3.5,0.5-5.3,0.8c-0.3,0-0.4,0-0.4-0.3c0-0.3,0-0.6,0-0.8c0-0.3,0.1-0.5,0.5-0.5c2.1,0,4.1,0,6.2,0c0.4,0,0.8,0,1.2,0
		c-0.2,0.7-0.4,1.2-0.7,1.8c-0.2,0.3-0.2,0.4,0.2,0.5c1.2,0.4,2.5,0.8,3.6,1.1c1.8,0.6,3.6,1.1,5.4,1.8c0.3,0.1,0.4,0.1,0.5-0.3
		c0.2-0.7,0.4-1.2,0.7-1.9c0.3-0.5,0.3-0.5-0.4-0.7c-0.6-0.3-1.1-0.4-1.8-0.6c0.4-0.5,0.8-0.8,1.2-1c0.2-0.2,0.2-0.3,0-0.3
		c-0.6-0.4-1.1-0.8-1.5-1.1c-0.3-0.3-0.5-0.5-0.7,0c-0.2-2-0.1-3.8-0.1-5.7c0-0.3,0.1-0.3,0.3-0.3c1.1,0.3,2.1,0.5,3.2,0.8
		c0.3,0.1,0.5,0.1,0.6-0.3c0.3-0.8,0.6-1.8,1-2.5C-678.2,556-678.3,555.9-678.6,555.9z M-698.5,557.4c0.5-0.3,1-0.5,1.5-0.8
		c1.4-0.7,2.6-1.5,4-2.2c0.3-0.2,0.5-0.2,0.8,0c1.1,0.7,2.2,1.3,3.3,1.9c0.8,0.5,1.8,0.8,2.6,1.1c-1,0-2.1-0.1-3.1,0
		c-0.8,0.1-1.3-0.2-1.6-0.8c-0.3-0.5-0.7-1-1-1.5c-0.1-0.2-0.3-0.3-0.4-0.1c-0.7,0.4-1.4,0.7-2.1,0.8c-0.3,0.1-0.3,0.3-0.2,0.5
		c0.3,0.4,0.5,0.8,0.7,1.1C-695.5,557.5-697,557.5-698.5,557.4C-698.5,557.4-698.5,557.4-698.5,557.4z M-686.4,560.1
		c0,0.3,0,0.5-0.4,0.5c-1.8,0-3.5,0-5.3,0s-3.5,0-5.3,0c-0.4,0-0.4-0.2-0.4-0.5s0.1-0.4,0.4-0.4c3.5,0,6.9,0,10.4,0
		C-686.6,559.8-686.4,559.9-686.4,560.1z M-697.2,563c-0.3,0-0.4-0.2-0.4-0.4c0-0.3,0.1-0.4,0.4-0.4c1.8,0,3.5,0,5.3,0l0,0
		c1.8,0,3.5,0,5.1,0c0.3,0,0.5,0.1,0.5,0.4c0,0.4-0.2,0.4-0.5,0.4C-690.4,563-693.7,563-697.2,563z M-684.9,565.7
		c-0.3,0.3-0.6,0.3-1,0.1c-0.7-0.3-1.3-0.5-2-0.7c1.1,0,2.2,0,3.5,0C-684.5,565.4-684.8,565.6-684.9,565.7z"/>
	<path id="XMLID_108_" class="st0" d="M-705.4,549.8c0.8,0.4,1.4,0.8,2.1,1.2c0.2,0.2,0.3,0.2,0.5-0.1c0.5-0.7,0.8-1.2,1.2-1.9
		c0.1-0.2,0.2-0.3,0.3-0.3c0.4,0,0.7,0,1,0s0.3,0.2,0.1,0.3c-0.3,0.4-0.8,0.6-1.1,0.8c-0.8,0.5-0.8,0.5-0.2,1.1
		c0.5,0.5,0.5,0.5-0.3,0.8c0,0,0,0-0.1,0c-1.1,0.5-2.3,0.8-3.6,1.1c0.7,0.8,1.3,1.7,1.7,2.6c0.1,0.3,0.2,0.1,0.3,0.1
		c1.6-0.6,3.2-1.3,4.7-2.1c2.5-1.2,4.7-2.6,6.6-4.6c0.6-0.7,1-1.1,0.5-2.1v-0.1c-0.1-0.3-0.3-0.3-0.5-0.3c-1,0-2,0-3,0
		c-0.3,0-0.4-0.1-0.4-0.4s0.1-0.4,0.4-0.4c1.1,0,2.3,0,3.5,0.1c0.4,0,0.5-0.1,0.5-0.5c0-0.6,0-1.2,0-1.8c0-0.3-0.1-0.5-0.4-0.4
		c-1.1,0.1-2.2,0.1-3.4,0.1c-0.5,0-0.5,0-0.5-0.5c0.1-0.4-0.1-0.4-0.4-0.4c-0.8,0-1.8,0-2.6,0c-0.3,0-0.4,0.1-0.4,0.4
		c0.1,1,0.1,1.9,0.1,2.8c0,1,0,1-1,1c-0.4,0-0.5-0.1-0.3-0.4c0.3-0.3,0.1-0.4-0.3-0.5c-0.5-0.2-1-0.3-1.5-0.6
		c-0.3-0.2-0.5-0.3-0.8-0.5c-0.3-0.2-0.3-0.2-0.4,0.2c-0.1,0.4-0.2,0.5-0.3,0.8c-0.6,1.4-1.5,2.6-2.3,3.7
		C-705.6,549.5-705.7,549.7-705.4,549.8z M-696.5,548.8c-0.7,0.5-1.2,1-1.9,1.3c-0.2,0.1-0.3,0.1-0.3-0.1c-0.4-0.5-0.8-0.8-1.1-1.3
		C-698.7,548.8-697.7,548.8-696.5,548.8z"/>
	<path id="XMLID_91_" class="st0" d="M-701.2,537.2c-1.3,0.3-2.6,0.4-4,0.5c-0.5,0-0.5,0-0.3,0.4c0.5,0.8,1,1.7,1.3,2.6
		c0.1,0.3,0.3,0.2,0.4,0.2c1.5-0.2,2.9-0.5,4.3-0.8c1.8-0.5,3.4-1.2,4.8-2.3c0.8-0.7,1.7-1.5,2.3-2.3c0.3-0.5,0.3-0.5,0.7,0
		c0.3,0.3,0.5,0.7,0.8,1c1.1,1.2,2.3,2.3,3.9,3c2.1,1,4.3,1.5,6.6,1.9c0.3,0.1,0.3,0,0.4-0.3c0.3-1,0.8-1.8,1.4-2.6
		c0.2-0.3,0.2-0.3-0.2-0.4c-2.3-0.3-4.6-0.8-6.8-1.7c-0.8-0.4-1.8-0.8-2.3-1.5c-0.3-0.3-0.6-0.7-0.8-1c-0.2-0.2-0.4-0.3-0.3-0.5
		c0.1-0.2,0.4-0.1,0.5-0.1c3,0,6-0.1,9,0.1c0.4,0,0.5-0.1,0.5-0.5c0-0.8,0-1.5,0-2.2c0-0.5-0.2-0.5-0.5-0.5
		c-3.2,0.2-6.4,0.1-9.6,0.1c-0.3,0-0.6,0-1,0c-0.3,0-0.3-0.1-0.3-0.3c0.1-0.3,0.2-0.6,0.3-0.8c0.1-0.3,0-0.5-0.3-0.5
		c-0.3,0-0.5-0.1-0.8-0.3c0.8,0,1.6,0,2.3,0c3.3,0,6.5-0.1,9.7,0.1c0.3,0,0.5-0.1,0.5-0.4c0-0.8,0-1.6,0-2.3c0-0.3-0.1-0.4-0.4-0.4
		c-0.5,0-0.8,0.1-1.3,0.1c-3,0.1-6,0-9,0c-1,0-1,0-1-1c0-0.5,0.1-0.5,0.5-0.5c2.5,0,4.8,0,7.3,0.2c0.3,0,0.5-0.1,0.5-0.4
		c0-0.8,0-1.4,0-2.1c0-0.6,0-0.6-0.5-0.5c-2.2,0.2-4.4,0.1-6.6,0.1c-1,0-1,0-1-1c0-0.6,0-0.6,0.6-0.6c3.3,0,6.6,0,9.9,0.1
		c0.4,0,0.5-0.1,0.5-0.5c0-0.7,0-1.4,0-2.1c0-0.8,0.1-0.6-0.6-0.6c-2.1,0.1-4,0.1-6,0.1c-0.1,0-0.2,0.1-0.3-0.1c0-0.1,0-0.1,0.1-0.2
		c0.5-0.7,0.8-1.4,1.4-2.1c0.2-0.3,0.3-0.4-0.2-0.5c-0.8-0.4-1.8-0.8-2.6-1.1c-0.2-0.1-0.3-0.1-0.4,0.2c-0.5,1.1-1.1,2.1-1.9,2.9
		c-0.2,0.2-0.3,0.3,0.1,0.4c0.3,0.1,0.5,0.3,0.7,0.4c-2.2,0-4.4,0-6.5,0v-0.1c0.3-0.1,0.4-0.3,0.6-0.3c0.3-0.1,0.3-0.3,0.2-0.5
		c-0.7-1-1.3-1.9-1.9-2.8c-0.2-0.3-0.3-0.3-0.5-0.1c-0.8,0.5-1.5,0.8-2.3,1c-0.3,0.1-0.3,0.3-0.2,0.4c0.2,0.3,0.4,0.5,0.5,0.7
		c0.4,0.5,0.8,1,1,1.7c-0.3,0-0.4,0-0.6,0c-1.9,0-3.8,0-5.7-0.1c-0.3,0-0.4,0.1-0.4,0.4c0,0.8,0,1.5,0,2.2c0,0.4,0.1,0.5,0.5,0.5
		c2-0.1,4-0.2,5.9-0.1c1.4,0,2.8,0,4.1,0c0.4,0,0.5,0.1,0.5,0.5c0,0.3,0,0.5,0,0.8c0,0.4-0.1,0.5-0.5,0.5c-2.5,0-4.8,0.1-7.3-0.1
		c-0.4,0-0.5,0.1-0.5,0.5c0,0.8,0,1.4,0,2.1c0,0.4,0.2,0.4,0.5,0.4c2.2,0,4.5,0,6.6,0.1c1,0,1,0,1,1c0,0.5,0,0.5-0.5,0.5
		c-3.5,0-7,0.1-10.4-0.1c-0.3,0-0.5,0.1-0.5,0.5c0,0.8,0,1.5,0,2.2c0,0.4,0.1,0.5,0.5,0.5c2.2-0.1,4.4-0.2,6.6-0.1
		c1.4,0,2.8,0,4.1,0c0.3,0,0.5,0.1,0.4,0.4c-0.1,0.4-0.1,0.7-0.1,1c0,0.3-0.3,0.5-0.6,0.5c-3.3,0-6.6,0.1-10-0.1
		c-0.4,0-0.5,0.1-0.5,0.5c0,0.8,0,1.5,0,2.2c0,0.3,0.1,0.5,0.5,0.4c1.6-0.1,3.2-0.1,4.8-0.1c1.4,0,2.6,0,4,0c0.3,0,0.5-0.2,0.6,0.1
		c0.1,0.3-0.2,0.4-0.3,0.6C-697,535.6-699,536.6-701.2,537.2z"/>
</g>
</svg>
