<?xml version="1.0" encoding="utf-8"?>
<!-- Generator: Adobe Illustrator 19.0.0, SVG Export Plug-In . SVG Version: 6.00 Build 0)  -->
<svg version="1.1" id="组_15_1_" xmlns="http://www.w3.org/2000/svg" xmlns:xlink="http://www.w3.org/1999/xlink" x="0px" y="0px"
	 viewBox="-463 342.6 1208.6 493.1" style="enable-background:new -463 342.6 1208.6 493.1;" xml:space="preserve">
<style type="text/css">
	.st0{fill:#FFFFFF;}
</style>
<g id="形状_1">
	<g>
		<path class="st0" d="M-49.3,523.9H-70v-6.5V516h15.1c0.9,0,0.9-0.9,0.9-0.9v-3.4c0-0.9-0.9-0.9-0.9-0.9H-70v-9.1
			c0-0.9-0.9-0.9-0.9-0.9h-3.4c-0.9,0-0.9,0.9-0.9,0.9v9.1h-12.5c0,0,0,0,0-0.9l8.7-12.9h26.9c0.9,0,0.9-0.9,0.9-0.9v-3.4
			c0-0.9-0.9-0.9-0.9-0.9h-24.4l3.9-5.2l-3.9-2.2l-5.2,7.4h-1h-15.6c0,2.2,2.2,3.9,3.9,3.9h8.7h0.9l-7.7,12.5
			c-1.4,1.4-0.9,3.4,0.9,3.9c0.9,0.9,1.4,1.4,2.2,1.4h14.1v1.4v6.5h-23.3c0,2.2,2.2,3.9,3.9,3.9h19.4v8.6c0,0.9,0.9,0.9,0.9,0.9h3.4
			c0.9,0,0.9-0.9,0.9-0.9v-8.6h20.8c0.9,0,0.9-0.9,0.9-0.9v-3.4C-48.4,524.7-48.4,523.9-49.3,523.9z M-159.7,526v-6h18.2
			c1.4,0,2.2-1.4,2.2-2.2v-20.3c0-1.4-1.4-2.2-2.2-2.2H-171l2.2-2.2c0,0,0-0.9,0-1.4l-3.9-3.9c-0.5,0-0.5,0-1.4,0l-2.2,2.2
			c0,0,0,0.9,0,1.4l3.9,3.9h-9.1c-1.4,0-2.2,1.4-2.2,2.2v20.3c0,1.4,1.4,2.2,2.2,2.2h18.2v6h-23.3c0,2.2,2.2,3.9,3.9,3.9h19v6.5
			c0,0.9,0.9,0.9,0.9,0.9h3.4c0.9,0,0.9-0.9,0.9-0.9v-6.5h23c0.9,0,0.9-0.9,0.9-0.9v-3.4c-1.4,0.5-2.2,0.5-2.2,0.5h-22.8V526z
			 M-178.9,516c-0.9,0-0.9-0.9-0.9-0.9V510h15.6l0.5,6H-178.9z M-163.6,505.7h-15.6v-6c0-0.9,0.9-0.9,0.9-0.9h15.1L-163.6,505.7z
			 M-160.2,500.1h15.1c0.9,0,0.9,0.9,0.9,0.9v6h-16.5L-160.2,500.1z M-160.2,509.6h16.5v5.2c0,0.9-0.9,0.9-0.9,0.9h-15.1
			L-160.2,509.6z M-366,441.3l6.5,5.2c0.9,0.9,1.4,0,1.4-1.4v-53.4c0-15.6-11.7-28.5-26.9-29.8c-9.9-0.9-19,3.9-24.3,11.2
			c-5.2-6.5-12.5-11.2-21.6-11.2c-16.5-1.2-30,12.5-30,28.5v54.8c0,1.4,1.4,1.4,1.4,1.4l6.5-5.2c2.2-2.2,3.9-5.2,3.9-8.6v-41.9
			c0-8.6,6.5-16.8,15.6-17.7c9.9-0.9,17.8,7.4,17.8,16.8v42.4c0,3.4,1.4,6.5,3.9,7.7l6.5,5.2c0.9,0.9,1.4,0,1.4-1.4v-53.6
			c0-0.9,0-0.9,0-1.4c0-9.9,8.7-17.7,17.8-16.8c8.7,0.9,15.6,8.6,15.6,17.7v41.9C-369.5,436.7-368.5,439.3-366,441.3z M-47.9,364.1
			h-11.3c-4.8,0-7.4,2.2-9.1,3.4l-28.6,22.8v-25.4c0-3.4-1.2-6-3.8-7.7h-7.9v75.1c0,3.4,1.4,6,3.4,7.7l7.4,6.5
			c0.9,0.9,1.4,0,1.4-0.9V406l3.9-3.4L-63,441c2.2,2.6,6,3.9,11.3,3.9h3.9c1.4,0,1.4-1.4,1.4-1.4l-37.2-47.9l36.8-29.4
			C-46.2,365.3-46.2,364.1-47.9,364.1z M-317.9,491C-317.1,491.5-317.1,491-317.9,491L-317.9,491z M-133.8,358.4l-1.4-1.2h-6.9v75.1
			c0,3.4,1.4,6,3.4,7.7l7.4,6.5c0.9,0.9,1.4,0,1.4-0.9v-79.5C-129.9,362.7-131.2,360.1-133.8,358.4z M-150.3,494l3.9-3.9
			c0,0,0-0.9,0-1.4l-2.2-2.2c0,0-0.9,0-1.4,0l-3.9,3.9c0,0,0,0.9,0,1.4l2.2,2.2C-151.5,494-150.6,494-150.3,494z M44.3,401.7
			c0-11.7-5.2-22.8-13.9-30.7c-7.7-7.4-19-11.2-29.5-11.2c-13.9,0.9-26.9,7.7-34.6,19.4c-2.6,3.9-4.8,8.6-6,13.8
			c-3.9,23.3,9.9,43.6,29.5,50.1c3.9,1.4,8.7,2.2,13,1.4c17-0.9,32.1-11.2,38.6-25.9c0.9-0.9,0-1.4-1.4-1.4h-6.5
			c-3.4,0-6.5,1.4-7.7,3.9c-6,7.4-13.9,11.7-23.3,11.7c-8.7,0-15.6-3.4-21.6-8.6c-3.9-3.9-7.4-9.1-8.7-15.6l65.8-1.4
			C41.7,408.1,44.3,405.5,44.3,401.7z M29.6,396.5l-53.7,1.4c-1.4,0-2.6-1.4-2.2-2.6c3.9-12.5,15.1-21.6,28.6-22
			c3.4,0,6.5,0.9,9.1,1.4c9.1,3.4,17,10.3,20.4,20.3C32.2,394.3,30.9,396.5,29.6,396.5z M-259.5,404.2c0-23.3-19-42.4-42.5-42.4
			c-23.3,0-42.5,19-42.5,42.4s19.2,43.1,42.6,43.1C-278.5,446.5-259.5,427.6-259.5,404.2z M-302.3,434c-16.5,0-29.8-13.8-29.8-30.7
			c0-16.5,13.9-30.7,29.8-30.7c16.1,0,29.8,13.8,29.8,30.7C-271.5,421.1-285.9,434-302.3,434z M-317.1,498h-7.4v-2.2
			c-1.4,0.5-1.7-0.5-1.7-0.5h-3.4c-0.9,0-0.9,0.9-0.9,0.9v2.6h-6c0-0.9-0.9-0.9-0.9-0.9h-6.5v-2.2c-2.2,0.5-2.6-0.5-2.6-0.5h-3.4
			c-0.9,0-0.9,0.9-0.9,0.9v2.6h-6.5c-0.9,0-0.9,0.9-0.9,0.9v2.6c0,0.9,0.9,0.9,0.9,0.9h3.9l-3.9,4.8c0,0,0,0.9,0,1.4l2.2,2.2
			c0,0,0.9,0,1.4,0l3.9-3.9v5.2c0,0.1,0,0.4,0.1,0.5h-6.1c-0.9,0-0.9,0.9-0.9,0.9v3.4c0,0.9,0.9,0.9,0.9,0.9h15.1v2.6h-17.1
			c0,2.2,2.2,3.9,3.9,3.9h13v2.6h-18.3c0,2.2,2.2,3.9,3.9,3.9h13.9v2.2c0,0.9-0.9,0.9-0.9,0.9h-6.5c-0.9,0-0.9,0.9-0.9,0.9v3.4
			c0,0.9,0.9,0.9,0.9,0.9h8.7c1.4,0,2.6-1.4,2.6-2.6v-3.9h17.8c0.9,0,0.9-0.9,0.9-0.9v-3.4c1.7-1.7,1.7-1.7,0.9-1.7h-17.8v-2.6h16.5
			c0.9,0,0.9-0.9,0.9-0.9V520c0-0.9-0.9-0.9-0.9-0.9h-16.5v-2.2h11.7c1.4,0,2.2-0.9,3.4-1.4l1.4-1.4c0.9,0,0.9-0.9,0-1.4l-1-1.7
			c0.2,0,0.7,0,1,0l2.2-2.2c0,0,0-0.9,0-1.4l-3.9-4.8h3.9c0.9,0,0.9-0.9,0.9-0.9v-3.4C-316.2,498-317.1,498-317.1,498z
			 M-344.8,513.1c0.1-0.2,0.1-0.5,0.1-0.5v-5.2l3.9,3.9c0,0,0.9,0,1.4,0l2.2-2.2c0,0,0-0.9,0-1.4l-3.9-4.8h3.9c0.1,0,0.1,0,0.2,0
			s0.2,0,0.2,0h3.9l-3.9,4.8c0,0,0,0.9,0,1.4l2.2,2.2c0,0,0.9,0,1.4,0l3.9-3.9v5.2c0,0.1,0,0.4,0.1,0.5H-344.8z M-321.9,510.9
			l-0.9,0.9c-0.6,0.5-1.2,0.7-1.7,1c0-0.1,0-0.1,0-0.1v-5.2l2.9,2.9C-321.6,510.5-321.7,510.6-321.9,510.9z M-254.2,489.7l-1.4-2.6
			c0-0.9-0.9-0.9-1.4,0l-2.6,1.4c-1.4,0.9-1.4,0.9-2.6,0.9h-15.1c-0.9,0-0.9,0.9-0.9,0.9v3.4c0,0.9,0.9,0.9,0.9,0.9h8.7v8.6h-9.1
			c0,2.2,2.2,3.9,3.9,3.9h5.2v8.6c0,0.9,0,1.4,0,1.4h-9.1c0,2.2,2.2,3.9,3.9,3.9h3.9h1.4c-0.9,3.4-2.2,6.5-3.9,9.1l-2.6,4.8
			c0,0.9,0,0.9,0,1.4l2.6,1.4c0.9,0,0.9,0,1.4,0l2.6-4.8c2.2-3.9,3.9-7.7,4.8-11.7h9.1c0.9,0,0.9-0.9,0.9-0.9v-3.4
			c0-0.9-0.9-0.9-0.9-0.9h-8.8c0-0.9,0-1.4,0-1.4v-7.7h8.7c0.9,0,0.9-0.9,0.9-0.9v-3.4c0-0.9-0.9-0.9-0.9-0.9h-8.7v-8.6l2.6,1.4
			c1.4,0,2.2,0,2.6-0.9l3.9-2.2C-253.3,491-253.3,490.1-254.2,489.7z M-317.4,493.7l-0.5-2.6h-20.4v-3.4c0-0.9-0.9-0.9-0.9-0.9h-2.6
			c-0.9,0-0.9,0.9-0.9,0.9v3.4h-19c-1.4,0-3.4,1.4-3.4,3.4V523c0,3.9-1.4,7.4-2.6,10.3l-1.4,2.2c0,0.9,0,0.9,0,1.4l2.6,1.4
			c0.9,0,0.9,0,1.4-0.9l2.6-5.2c1.4-2.6,1.4-6,1.4-8.6v-28.1c0-0.9,0-0.9,0.9-0.9h42C-317.4,494.5-317.4,493.7-317.4,493.7z
			 M-162.8,404.2c0-23.3-19-42.4-42.5-42.4c-11.7,0-22.1,5.2-29.8,12.9v-8.6c0-3.4-1.4-6-3.9-7.7l-1.2-1.2h-6.5v46.6v1.4
			c1.4,22.8,19.5,41,42,41C-181.8,446.5-162.8,427.6-162.8,404.2z M-205.3,434c-16.5,0-29.8-13.8-29.8-30.7v-0.9
			c0-16.5,13.9-30.7,29.8-30.7s29.8,13.8,29.8,30.7C-174.5,421.1-188.3,434-205.3,434z M-250.7,491v3.9h11.3v6.5h-11.3v3.9h11.3v7.4
			h-11.3v3.9h11.3v6.5h-11.3v3.9h11.3v10.3c0,0.9,0.9,0.9,0.9,0.9h3.4c0.9,0,0.9-0.9,0.9-0.9v-10.3h10.4c0.9,0,0.9-0.9,0.9-0.9v-3.4
			c0-0.9-0.9-0.9-0.9-0.9h-10.4v-6.5h10.4c0.9,0,0.9-0.9,0.9-0.9v-3.4c0-0.9-0.9-0.9-0.9-0.9h-10.4v-6.5h10.4c0.9,0,0.9-0.9,0.9-0.9
			v-2.2c0-0.9-0.9-0.9-0.9-0.9h-10.4v-6.5h10.4c0.9,0,0.9-0.9,0.9-0.9v-2.6c-3.1,1.4-3.1,1.4-3.1,1.4h-24.7V491z"/>
	</g>
</g>
<g id="形状_2">
	<g>
		<path class="st0" d="M338.6,418.1h0.9c0-28.1-22-51.5-49.4-53.4c-1.4-0.4-2.7-0.6-4.2-0.6c-29.1,0-53.1,24.2-53.1,53.6v45.1
			c0,28.9,23.6,53.2,52.7,53.2c29.1,0,53.1-24.2,53.1-52.7V418.1z M310,462.3c0,12.2-9.3,23-21.5,24.4c-0.9-0.1-1.7-0.2-2.6-0.2
			c-13,0-24.4-11.1-24.4-24.7v-45.1c0-12.2,9.3-23,21.5-24.4c0.9,0.1,1.7,0.2,2.6,0.2c13,0,24.4,11.1,24.4,24.7V462.3z M339.1,505.2
			c-5.5,0-10.1,4.5-10.1,10.2c0,5.7,4.5,10.2,10.1,10.2c5.5,0,10.1-4.5,10.1-10.2C349.2,509.9,344.6,505.2,339.1,505.2z
			 M390.5,481.9c-5.5,0-10.6,4.7-11.4,12.3c0,7.6,5.5,11.4,11.4,11.4c2.6,0,3.8,0,5.9-1.2l2.6,2.6c0.9,0,0.9,0,0.9,0l2.1-2.1
			c0-0.9,0-0.9,0-0.9l-2.6-2.6c1.2-2.1,2.6-4.7,2.6-8.1C401.9,485.7,396.4,481.9,390.5,481.9z M396.8,497.2l-3.3-3.8
			c-0.9,0-0.9,0-0.9,0l-2.1,2.1c0,0.9,0,0.9,0,0.9l3.3,3.8c-0.9,0.9-2.1,0.9-3.3,0.9c-3.3,0-7.1-1.7-6.8-9.3c0-5.5,3.3-8.1,7.1-8.1
			c3.8,0,7.1,2.6,7.1,8.1C398.1,493.8,397.7,495.9,396.8,497.2z M409.9,504.4h3.3v-21.3h-3.3V504.4z M421.7,486.2h11.4L421.3,501
			v3.4h16.5V501H426l11.8-14.9v-3.4h-16v3.4H421.7z M459.6,492.1H449v-9h-3.3v21.3h3.3V495h10.6v9.3h0.4h2.9v-21.3h-3.3V492.1z
			 M473.1,504.4h3.3v-21.3h-3.3V504.4z M492.9,485.7h7.1V504h3.3v-18.3h6.8v-3.4h-17.3v3.4H492.9z M517.3,504.4l12.7-1.7v-2.5h-10.1
			v-5.9h8.8v-2.6h-8.8v-5.9H530v-2.6h-12.7V504.4z M548.9,482.2c-5.9,0-11.4,4.3-11.4,11.4c0,6.8,5,11.4,11.4,13.1
			c5.5,0,8.8-3.8,10.1-7.2c0-0.9,0-0.9,0-0.9l-2.6-0.9c-0.9,0-0.9,0-0.9,0c-1.2,2.6-3.3,4.7-6.8,4.7c-3.8,0-7.1-2.6-7.1-8.1
			c0-5.5,3.8-8.1,7.1-8.1c3.3,0,5,2.1,5.9,4.7h0.9l3.3-1.2v-0.6C557.8,485.7,554.4,482.2,548.9,482.2z M580.6,492.1H570v-9h-3.3
			v21.3h3.3V495h10.6v9.3h3.3v-21.3h-3.3V492.1z M608,498.5l-10.1-15.4h-3.8v21.3h3.3v-16.6l10.6,16.6h3.3v-21.3H608V498.5z
			 M630.7,481.9c-6.3,0-11.4,3.8-11.4,11.4c0,7.6,5.5,11.4,11.4,11.4c5.9,0,11.4-4.3,11.4-11.4C642,485.7,636.6,481.9,630.7,481.9z
			 M630.7,501c-4.2,0-7.6-1.7-7.1-8.1c0-5.5,3.3-8.1,7.1-8.1c3.8,0,7.1,2.6,7.1,8.1C637.8,498.5,634,501,630.7,501z M652.6,483.1
			h-3.3v21.3v0.4h13.5v-3.3h-10.1v-18.3H652.6z M679.1,481.9c-5.5,0-11.4,3.8-11.4,11.4c0,7.6,5.5,11.4,11.4,11.4
			c5.9,0,11.4-4.3,11.4-11.4C690.5,485.7,685,481.9,679.1,481.9z M679.1,501c-3.3,0-7.6-1.7-7.1-8.1c0-5.5,3.3-8.1,7.1-8.1
			s7.1,2.6,7.1,8.1C686.4,498.5,682.6,501,679.1,501z M709.1,482.2c-5.9,0-11.4,4.3-11.4,11.4c0,7.6,4.7,11.4,10.6,11.4
			c3.3,0,5.9-1.2,6.8-3.4v2.6v0.4h3.3v-10.7h-10.1v4.7h6.8c0,1.2-1.2,4.7-5.9,4.7c-3.8,0-7.1-2.6-7.1-8.1c0-5.5,3.8-8.1,7.1-8.1
			c2.6,0,5,1.2,5.9,3.8h0.9l3.3-1.2v-0.5C717.9,485.7,714.5,482.2,709.1,482.2z M738.2,482.2l-5.5,9.3l-5.5-9.3h-3.3v0.9l7.1,11.9
			v9.3h3.3V495l7.1-12.8C741.4,482.2,738.2,482.2,738.2,482.2z M677.9,458.5v-24.7l8.8-3.4c0.9-0.4,0.9-0.4,0.9-0.9v-6.8
			c0-0.9-0.9-1.2-1.2-0.9l-8,3.4v-20h9.2c0.9,0,0.9-0.9,0.9-0.9v-5.9c0-0.9-0.9-0.9-0.9-0.9h-9.2V385c0-0.9-0.9-0.9-0.9-0.9h-6.8
			c-0.9,0-0.9,0.9-0.9,0.9v11.9h-9.2c-0.9,0-0.9,0.9-0.9,0.9v5.9c0,0.9,0.9,0.9,0.9,0.9h9.2v23.3l-10.1,3.8c-0.9,0-0.9,0.9-0.9,0.9
			v6.8c0,0.9,0.9,1.2,1.2,0.9l9.2-3.4v17.4c0,0.9-0.9,1.2-1.2,1.2h-5.9c-0.9,0-1.2,0.9-0.9,1.2l2.6,6.8c0,0.9,0.9,0.9,0.9,0.9h7.1
			C675.3,464.4,677.9,461.9,677.9,458.5z M690.9,402.4h18.5v12.8h-15.1c-0.9,0-0.9,0-0.9,0.9l-2.1,6.8c0,0.9,0,1.2,0.9,1.2h32.4
			c-2.1,5.5-5.5,12.8-12.7,19.5c-3.8-3.8-7.1-9-9.2-11.9c0-0.9-0.9-0.9-1.2-0.9h-6.8c-0.9,0-1.2,0.9-0.9,1.2
			c0.9,1.2,1.2,3.4,2.6,4.7c2.1,3.4,5.5,8.1,9.2,11.9c-5.5,3.4-11.8,6.8-19.8,9c-0.9,0-0.9,0.9-0.9,1.2c0.9,1.2,2.6,3.8,3.3,5.5
			c0,0.9,0.9,0.9,1.2,0.9c9.2-2.6,17.3-6.8,22.7-10.7c5.9,3.8,13.5,8.1,22.7,10.7c0.9,0,0.9,0,1.2-0.9l3.3-5.5c0-0.9,0-1.2-0.9-1.2
			c-8-2.1-14.7-5.5-19.8-9c9.2-9.3,13.5-19.5,15.1-26.4c0.9-3.4-2.1-6.8-5.5-6.8h-11.4v-0.9h1.2v-12.7h17.3c0.9,0,0.9-0.9,0.9-0.9
			v-5.9c0-0.9-0.9-0.9-0.9-0.9h-17.3v-10.7c0-0.9-0.9-0.9-0.9-0.9h-6.8c-0.9,0-0.9,0.9-0.9,0.9v10.7h-17.3c-0.9,0-0.9,0-0.9,0.9
			l-2.1,5.9C690,401.9,690,402.4,690.9,402.4z M439,431.3h-6.8c-0.9,0-0.9,0.9-0.9,0.9v31.1c0,0.9,0.9,0.9,0.9,0.9h6.8
			c0.9,0,0.9-0.9,0.9-0.9v-31.1C439.8,431.3,439,431.3,439,431.3z M456.3,430.9l2.1-5.9c-2.1-0.9-2.1-1.7-2.6-1.7
			c-11.8-2.1-21.9-4.7-29.1-9c10.1-6.8,14.7-14,17.3-17.4h10.6c0.9,0,0.9-0.9,0.9-0.9v-5.9c0-0.9-0.9-0.9-0.9-0.9h-31.2V382
			c0-0.9-0.9-0.9-0.9-0.9h-6.8c-0.9,0-0.9,0.9-0.9,0.9v7.2h-30.7c-0.9,0-0.9,0-0.9,0.9l-1.2,5.9c0,0.9,0,1.2,0.9,1.2h10.6
			c2.1,3.4,7.1,10.7,17.3,17.4c-8,3.4-17.3,6.8-29.1,9c-0.9,0-0.9,0.9-0.9,1.2l2.1,5.9c0,0.9,0.9,0.9,1.2,0.9
			c14.7-2.6,26.5-6.8,35.4-11.4c8.8,4.7,20.6,9.3,35.4,11.4C455.8,431.6,455.8,431.6,456.3,430.9z M418.3,410
			c-3.3-1.2-5-2.9-7.1-4.7c-3.3-2.6-5.9-5.5-8-8.1h30C429.6,400.7,425.1,405.4,418.3,410z M405.7,431.3h-6.8c-0.9,0-0.9,0.9-0.9,0.9
			v3.8c0,0.9-0.9,11.9-13.9,19.5c-0.9,0-0.9,0.9-0.9,1.2l3.3,5.5c0,0.9,0.9,0.9,1.2,0c17.3-10.2,18.2-25.5,18.2-26.4V432
			C406.9,431.3,406.5,431.3,405.7,431.3z M595.3,440.6l5.9-3.4c0.9,0,0.9-0.9,0.9-1.2l-9.2-16.6c0-0.9-0.9-0.9-1.2-0.9l-3.3,2.1
			v-7.2h10.6c0.9,0,0.9-0.9,0.9-0.9v-5.9c0-0.9-0.9-0.9-0.9-0.9h-10.6v-14c3.8-0.9,7.1-0.9,9.2-1.2c0.9,0,0.9-0.9,0.9-0.9v-5.9
			c0-0.9-0.9-1.2-1.2-0.9c-3.8,0.9-18.2,2.1-26.2,2.6c-0.9,0-0.9,0.9-0.9,0.9v5.9c0,0.9,0.9,1.2,1.2,0.9c2.6,0,5.9-0.9,9.2-0.9v13.6
			h-11.8c-0.9,0-0.9,0.9-0.9,0.9v5.9c0,0.9,0.9,0.9,0.9,0.9h10.1c-0.9,4.7-3.8,21.3-11.8,39.1c0,0.9,0,0.9,0,1.2l5.5,4.7h0.9
			c3.3-6.8,5.5-14,7.1-20v25.5h8v-34.8l5.5,10.7C594,440.6,594.8,440.6,595.3,440.6z M606.3,392.2l11.8,14.9c0,0.9,0.9,0.9,1.2,0
			l4.7-3.8c0.9,0,0.9-0.9,0-1.2l-11.8-14.9c0-0.9-0.9-0.9-1.2,0l-4.7,3.8C605.4,390.9,605.4,391.7,606.3,392.2z M603.3,415.9
			l11.8,14.9c0,0.9,0.9,0.9,1.2,0l4.7-3.8c0.9,0,0.9-0.9,0-1.2l-11.8-14.9c0-0.9-0.9-0.9-1.2,0l-4.7,3.8
			C602.5,414.7,602.5,415.5,603.3,415.9z M637.5,435.1V382c0-0.9-0.9-0.9-0.9-0.9h-6.8c-0.9,0-0.9,0.9-0.9,0.9v53.6l-25.3,2.6
			c-0.9,0-0.9,0.9-0.9,0.9v5.9c0,0.9,0.9,1.2,1.2,0.9l24.4-2.6v18.7c0,0.9,0.9,0.9,0.9,0.9h6.8c0.9,0,0.9-0.9,0.9-0.9v-19.5l8-0.9
			c0.9,0,0.9-0.9,0.9-0.9v-5.9c-0.9,0-0.9-0.4-1.2-0.4L637.5,435.1z M491.2,395.2l-10.1-10.7c-0.9-0.9-0.9-0.9-1.2,0l-4.7,3.8
			c-0.9,0.9-0.9,0.9,0,1.2l10.1,10.7c0.9,0.9,0.9,0.9,1.2,0l4.7-3.8C492,395.5,492,395.5,491.2,395.2z M481.1,424.9
			c0.9,0.9,0.9,0.9,1.2,0l4.7-3.8c0.9-0.9,0.9-0.9,0-1.2l-10.1-10.7c-0.9-0.9-0.9-0.9-1.2,0L471,413c-0.9,0.9-0.9,0.9,0,1.2
			L481.1,424.9z M544.7,463.6c0.9,0,0.9-0.9,0.9-0.9v-34c0-2.6-2.1-4.7-4.7-4.7h-37.5c-2.6,0-4.7,2.1-4.7,4.7v34
			c0,0.9,0.9,0.9,0.9,0.9h6.8c0.9,0,0.9-0.9,0.9-0.9v-3.4h30v3.4c0,0.9,0.9,0.9,0.9,0.9H544.7z M536.7,451.7h-30v-19.5h30V451.7z
			 M502.1,418.5l40.4-3.8l2.6,3.8c0,0.9,0.9,0.9,1.2,0l5.5-3.4c0.9,0,0.9-0.9,0-1.2l-15.6-22.1c0-0.9-0.9-0.9-1.2,0l-5.5,3.4
			c-0.9,0-0.9,0.9,0,1.2l7.1,10.7l-31.2,3.4c0,0-0.9,0,0-0.9l16.5-23.3c0-0.9,0-1.2,0-1.2l-5.5-3.4c-0.9,0-0.9,0-1.2,0l-18.5,27.6
			c-1.2,2.1-1.2,4.7,0,6.8C497.9,418.1,500,418.5,502.1,418.5z M482.3,436.4c-0.9,0-1.2,0-1.2,0.9c-2.1,4.7-5.5,12.8-10.1,20.9
			c0,0.9,0,1.2,0.9,1.2l5.5,3.4c0.9,0,1.2,0,1.2-0.9c4.7-9,8.8-16.6,10.1-21.3c0.4-1.2-0.4-1.2-0.4-1.7L482.3,436.4z"/>
	</g>
</g>
<g id="形状_3">
	<g>
		<path class="st0" d="M-249.5,750.1c-0.9-0.4-1.2-1.2-2.1-1.2c0,0,0,0.9-0.9,0.9l-0.9,0.9c0,0,0,0-0.9,0.9c-0.9,0.9-0.9,1.2,0,2.1
			c1.2,3.1,2.1,5.8,3.1,8.7c-3.7,0.7-7.4,1.4-11.2,2v-18.1l7.2,0.1c6,0,8.6-2.9,8.6-7.7v-23.5c0-2.9-1.7-6.4-6.4-6.4
			c0,0-4.3,0-9.3,0v-14.5c0-1.2-0.9-2.6-2.1-2.6h-2.7c-1.7,0-2.6,1.7-2.6,2.6h0.9v14.5c-4.4,0-8.1,0-9,0c-4.3,0-7.7,2.6-7.7,7.2
			v22.2c0,5.2,2.6,7.7,7.7,7.7l9,0.1v19c-5.4,0.6-11.4,1-18.8,1.4c-1.2,0-2.1,1.2-2.1,2.1c0,0,0,1.2,0,2.1c0,1.2,1.2,2.1,2.1,2.1
			c17.2-1.1,26.8-2.3,37.8-4.9c0.5,2,1,4.2,1.5,6.6c0,1.2,1.2,2.1,2.1,2.1l2.6-1.7c2.1-0.9,2.1-2.6,1.2-3.4
			C-243.5,763.4-246.1,756.2-249.5,750.1z M-262.3,712.8l5.5-0.2c1.7,0,2.6,1.2,2.6,3.4v21c0,1.7-0.4,2.6-2.6,2.6h-5.5V712.8z
			 M-268.7,739.5h-7.7c-2.6,0-3.4-0.9-3.4-3.4s0-20.1,0-20.1c0-1.7,1.2-2.6,3.4-2.6l7.7-0.4V739.5z M-203,759.6v-1.2
			c0-1.2-0.4-2.6-2.6-2.6h-34.1c-1.7,0-2.6,0.9-2.6,2.1v2.1c0,1.2,1.7,2.1,2.6,2.1h34.1C-203.8,762.2-203,760.8-203,759.6z
			 M-202.1,737.5l2.1-31c0-3.8-0.9-7.2-3.4-9.8c-2.6-2.1-6-3.4-9.8-3.4h-26.9c-1.7,0-2.6,1.2-2.6,2.1v2.1c0,1.2,1.2,2.1,2.6,2.1
			h23.6c2.6,0,4.7,0.9,6,2.1c1.2,1.2,2.9,3.4,2.1,6c-1.1,13.8-1.8,25.7-2.1,29.5h-16.7c-1.2,0-2.6,0-3.4-0.9c-0.9-1.2-1.7-3.4-0.9-6
			c0-2.6,0-5.2,0.9-8.6c0-3.8,0-7.7,0.9-10.3c0-1.7,0-1.7-0.9-2.6c-0.9,0-1.2-0.9-2.1-0.9h-2.2c-1.7,0-2.6,1.2-2.6,2.6
			c0,1.4,0,4.7-0.9,7.2c0,4.7-0.4,10.3-0.9,13.3c-0.4,2.9,0,5.5,2.1,7.7c1.7,1.7,3.8,2.6,6.4,2.6h24.3c2.6,0,4.7,0.9,6,2.1
			c1.2,2.1,2.1,4.7,2.1,7.2l-0.9,16.2c-0.9,4.7-0.9,10.7-8.6,12c-2.9,0-6.9,0.9-9,0.9c-1.7,0-2.6,1.2-2.6,2.1v0.9
			c0,1.2,0,2.1,2.1,2.1c0.9,0,2.6,0,4.7,0s4.7,0,6.9,1.2c11.5-0.9,14.1-7.2,15-17.1l0.9-17.6c0-3.8-0.9-7.2-3.4-9.8
			C-195.9,739.9-198.5,738.1-202.1,737.5z M-131.2,748.9c-0.9-0.4-1.2-1.2-2.1-1.2c0,0,0,0.9-0.9,0.9l-0.9,0.9c0,0,0,0-0.9,0.9
			c-0.9,0.9-0.9,1.2,0,2.1c1.5,3.2,2.3,6,3.1,8.8c-3.7,0.7-7.2,1.5-11.2,2v-17.3l6,0.1c6,0,8.6-2.9,8.6-7.7v-23.6
			c0-2.9-1.7-6.4-6.4-6.4c0,0-3.7,0-8.1,0v-15c0-1.2-0.9-2.6-2.1-2.6h-2.1c-1.7,0-2.6,1.7-2.6,2.6v15c-3.6,0-6.5,0-7.2,0
			c-4.3,0-7.7,2.6-7.7,7.2c0,3.4,0,22.2,0,22.2c0,5.2,2.6,7.7,7.7,7.7l7.2,0.1v18.3c-5.2,0.5-11.1,1-18.3,1.2
			c-1.2,0-2.1,1.2-2.1,2.1c0,0,0,1.2,0,2.1c0,1.2,1.2,2.1,2.1,2.1c17.1-0.7,26.7-1.8,37.6-5c0.5,2.1,1,4.4,1.7,6.8
			c0,1.2,1.2,2.1,2.1,2.1l2.6-1.7c2.1-0.9,2.1-2.6,1.2-3.4C-126.5,762.2-128.6,754.9-131.2,748.9z M-144,712.8l5.5-0.2
			c1.7,0,2.6,1.2,2.6,3.4v21c0,1.7-0.4,2.6-2.6,2.6h-5.5V712.8z M-150.9,739.5h-5.2c-2.6,0-3.4-0.9-3.4-3.4c0-1.2,0-19.3,0-20.1
			c0-1.7,1.2-2.6,3.4-2.6l5.2-0.2V739.5z M-69.3,765.1h-22.6v-8.6l17.6-0.4c1.7,0,2.6-0.9,2.6-2.1v-1.2c0-0.9-0.4-2.1-2.6-2.1h-17.6
			V743l20.9-0.4c1.7,0,2.6-0.9,2.6-2.1v-1.2c0-0.9-0.4-2.1-2.6-2.1h-20.9v-5.2c0-1.2-1.7-2.1-2.6-2.1h-2.6c-1.2,0-2.1,1.2-2.1,2.6
			v4.7h-20c-1.2,0-2.1,1.2-2.1,2.1v2.1c0,1.2,1.2,2.1,2.1,2.1l20-0.4v7.6h-17.6c-1.2,0-2.1,1.2-2.1,2.1v2.1c0,1.2,1.2,2.1,2.1,2.1
			l17.6-0.4v8.5h-22.2c-1.2,0-2.1,1.2-2.1,2.1v2.1c0,1.2,1.2,2.1,2.1,2.1l22.2-0.4v11.5c0,1.7,1.2,2.6,2.6,2.6l2.1-0.4
			c1.2,0,2.6-0.4,2.6-2.6V771l22.6-0.4c1.7,0,2.6-0.9,2.6-2.1v-1.2C-66.7,766.5-67.1,765.1-69.3,765.1z M-64.1,727
			c-10.9-2-18.8-3.7-26-7.1c6.4-3.7,12.2-8.8,17.1-16.3c1.7-2.6,1.7-5.2,0.9-7.2c-0.9-2.6-3.4-3.4-6-3.4c-2.7,0-21.9,0-29.2,0
			c0.5-1.1,1-2.2,1.5-3.4c0-0.4,0-0.4-0.9-1.2c-0.4,0-0.4-0.9-1.2-0.9h-3.4c-1.2,0-1.2,1.2-2.1,2.1c-2.6,7.7-3.8,9.8-9.8,16.2
			c0,1.2,0,2.6,0.9,3.4c1.2,0,1.2,0.9,2.1,0.9c1.2,0,1.2,0,1.2-2.1c3.6-2,6.3-5,8.7-9h28.9c1.2,0,1.2,0,2.1,0.9c0,0.4,0,1.7-0.9,2.6
			c-4.4,6.1-9.7,10.6-16.1,14c-3.6-2.3-7-5.2-10.8-9c-0.9,0-1.2-0.9-2.1-0.9c-1.2,0-1.2,0-2.1,0.9c-1.7,1.2-1.7,2.6-0.9,3.4
			c2.9,3.3,6,6.1,9.2,8.6c-6.1,2.6-13.3,4.4-21.3,6.4c-1.2,0.9-2.9,1.2-2.1,3.4c0,1.2,1.7,2.1,2.6,2.1c0.9,0,0.9,0,1.7-0.9
			c9.1-2.1,17.4-4.1,24.9-7.1c7.9,4.5,17.2,7.5,30.1,9.7c0.9,0,1.2-1.7,3.8-1.2l0.9-2.6c0-0.4,0-0.4-0.9-1.2
			C-63.3,727.9-63.3,727-64.1,727z M-36.8,717.2c11.9-1.2,20.9-2.9,30.7-7.7c0.9-0.9,1.2-1.2,2.1-2.1c0-0.4,0-0.4-0.9-1.2l-1.2-2.1
			c-0.4,0-0.4-0.9-1.2-0.9s-1.2,0-2.1,0.9c-8.6,3.8-16.2,6-28.6,8.6c-1.2,0-1.2,0-2.1,0.9s-0.9,1.2-0.9,2.1c0.4,1.2,1.2,2.1,2.6,2.1
			C-37.6,717.6-37.6,717.6-36.8,717.2z M41.7,713.8c-10.2-1.2-19.7-3.8-28.6-8.6c-0.9,0-1.2-0.9-2.1-0.9c-0.4,0-0.4,0-1.2,0.9
			l-1.2,2.1c-0.9,0.4-0.9,0.4-0.9,1.2c0.9,1.2,1.2,1.2,2.1,2.1c9.8,4.3,19.2,6.4,31.2,7.7c0.4,0,2.6-0.9,2.9-2.1
			C43.9,714.6,42.6,714.6,41.7,713.8z M37.6,695H5.5c-0.4-1.5-0.9-3.2-1.2-4.3c0-1.2-1.2-2.1-2.6-2.1h-2.6c-1.2,0-1.2,0-2.1,0.9
			c-0.9,1.2-0.9,1.2-0.9,2.1c0.5,1.4,0.9,2.5,1.1,3.4h-28.9c-6,0-9.8,3.8-9.8,9v2.6c0,1.7,1.7,2.6,2.6,2.6h1.2
			c1.7,0,2.6-1.2,2.6-2.6v-0.9c0-2.9,1.7-5.2,5.2-5.2h64.1c3.8,0,6,2.6,6,6v0.9c0,1.7,1.2,2.6,2.6,2.6l2.6-0.4
			c1.7,0,2.6-1.2,2.6-2.6v-2.1C47.8,698.4,43.9,695,37.6,695z M31.9,745.8H4.1c0-0.6,0-1.1,0-1.7V739l21.7-0.4
			c5.2,0,7.7-2.6,7.7-7.7v-4.7c0-3.8-2.9-7.2-7.7-7.2c0,0-46.9,0-49.5,0c-3.8,0-7.2,3.4-7.2,7.2v6c0,3.8,2.6,7.2,7.7,7.2l20-0.4v5.5
			c0,0.5,0,0.9,0,1.2H-30c-11.1,0-13.3,8.6-13.3,13.3v23.6c0,1.7,1.2,2.6,2.6,2.6h2.1c1.7,0,2.6-1.7,2.6-2.6v-23.6
			c0-5.2,3.8-7.2,7.2-7.2c1.1,0,12.4,0,24.9,0c-2,8.5-8.6,12.8-23.6,17.6c-0.4,0-0.4,0-1.2,0.9c-0.9,0.9-0.9,1.2,0,2.1
			c0,1.2,1.2,2.1,2.1,2.1c0,0,0.9,0,1.2-0.4c18.2-3.6,26.5-10.2,28.9-22.2c14,0,27.1,0,27.1,0c3.8,0,7.2,2.6,7.2,7.2v9.8
			c0,3.8-0.9,7.7-6,9.8c-2.6,1.2-6.4,1.2-10.2,2.1c-1.2,0-2.1,1.2-2.1,2.1v1.2c0,1.2,1.2,2.1,2.1,2.1c6,0,9.8-0.9,12.4-1.7
			c7.2-1.7,9.8-7.2,9.8-15v-12C43.9,751.9,39.6,745.8,31.9,745.8z M-21.4,734.3c-1.7,0-2.6-0.4-2.6-2.6V727c0-1.2,0.4-2.1,2.6-2.1
			l45.3,0.9c1.7,0,2.6,1.7,2.6,2.6v3.4c0,1.2-0.4,2.6-2.6,2.6h-45.3V734.3z M28.6,775.4c0,0,1.2-0.9,2.1-2.1l2.1-2.6
			c1.2-0.4,0-1.7-0.9-2.6c-9.3-5.2-14.1-7.7-23.1-10.3c0,0,0,0-0.9,0c-0.4,0-1.7,0-2.6,1.2c-1.2,1.2,0,2.6,0.9,3.4
			c7.7,4.3,13.3,6,20.9,12C27.7,774.6,27.7,775.4,28.6,775.4z M-454.9,766.5c3.4,0,6-2.6,6-6V701c0-2.9,1.7-6.4,5.2-7.7
			c0.9,0,2.6-0.9,3.4-0.9c2.1,0,3.8,0.4,6,2.6l26,24.8c3.8,3.8,8.6,6,13.6,6c5.2,0,9.8-2.6,13.6-6l26-24.8c1.2-1.7,3.8-2.6,6-2.6
			c0.9,0,2.6,0,3.4,0.9c2.9,1.2,5.2,4.3,5.2,7.7v59.5c0,3.4,2.6,6,6,6c2.6,0,6-2.9,4.3-6V701c0-8.1-4.3-15-11.9-18.4
			c-1.7-1.2-5.2-2.1-7.7-2.1c-5.2,0-9.8,2.6-13.6,6l-26,24.8c-1.2,1.7-3.8,2.6-6,2.6s-3.8-1.2-6-2.6l-26-24.8c-3.8-3.8-8.6-6-13.6-6
			c-2.6,0-5.2,1.2-7.7,2.1c-7.2,3.4-11.9,10.7-11.9,18.4v59.5C-460.9,763.9-458.3,766.5-454.9,766.5z M-334.9,776.3
			c-1.2,0-1.7,0-2.6,0.9c0,0-18.8,7.7-56.7,7.7c-34.6,0-57.2-7.7-58.1-7.7c-0.9-0.9-1.2-0.9-2.1-0.9c-2.6,0-5.2,1.2-6,3.8
			c0,2.1,0,3.4,0.9,4.7s2.1,2.6,3.4,3.4c1.2,0.4,26,9,61.9,9c39.7,0,60.7-9.5,61.9-9.8c2.6-1.7,3.8-5.2,2.6-7.7
			C-330.2,777.5-332.3,776.3-334.9,776.3z"/>
	</g>
</g>
<g id="形状_4">
	<g>
		<path class="st0" d="M360.1,700.9l-3.8,0.4h-90.5c-7.1,0-12,5.2-12,11.8v66.6h15.4v-61.8c0-2.2,1.8-3.3,3.4-3.3h32.7V780h15.4
			v-65.5h32.7c2.2,0,3.4,1.8,3.4,3.3v61.8H372v-66.9C372.1,705.8,367,700.9,360.1,700.9z M387.3,715v50.7c0,7.7,6.4,13.3,13.5,13.3
			h72.8v-12.5h-63.9c-2.9,0-5.3-2.9-5.3-5.2v-13h67.9v-15.1h-67.9v-12.9c0-2.9,2.9-5.2,5.3-5.2h64.6v-13.5h-73.6
			C392.8,701.6,387.3,708,387.3,715z M489,779.4h17.7v-78H489V779.4z M544.6,765.6c0-0.7,0-1.1,0.7-1.1l59.7-49.3
			c2.9-2.9,2.9-6.3,1.1-9.2l-2.2-2.9c-2.2-1.5-3.4-1.8-5.3-1.8H524v12.9h62.3c0.7,0,1.1,0.7,1.1,1.1c0,0.7,0,0.7-0.7,1.1l-63.9,50.7
			c-2.9,2.2-2.9,5.2-1.8,8.1l0.7,1.1c1.1,2.9,3.4,3.3,7.1,3.3H608v-12.9h-62.3C545,766.7,544.6,766,544.6,765.6z M689.2,700.9v0.4
			v61.4c0,2.9-2.2,4.1-4.2,4.1h-42.9c-2.9,0-5.3-2.9-5.3-5.2v-59.9h-17.7v64.7c0,7.7,5.3,12.9,13.1,12.9h62.3
			c7.9,0,13.1-5.2,13.1-12.9v-65.5H689.2L689.2,700.9z"/>
	</g>
</g>
</svg>
