<?xml version="1.0" encoding="utf-8"?>
<!-- Generator: Adobe Illustrator 19.0.0, SVG Export Plug-In . SVG Version: 6.00 Build 0)  -->
<svg version="1.1" id="图层_1" xmlns="http://www.w3.org/2000/svg" xmlns:xlink="http://www.w3.org/1999/xlink" x="0px" y="0px"
	 viewBox="-834 481 250 120" style="enable-background:new -834 481 250 120;" xml:space="preserve">
<style type="text/css">
	.st0{fill-rule:evenodd;clip-rule:evenodd;}
</style>
<g id="矩形_9">
	<g>
		<path class="st0" d="M-758.4,548.8l2.1-3.6h-15.6V541h-5.7v4.2h-14.3v3.6h14.3v5.5h-14.3v3.6h33.5l2.1-3.6h-15.6v-5.5H-758.4z
			 M-780.5,540.5l5.9-3.8l8.2,4l9.9,0.3l-13.7-7.1l13.3-8.5h0.4V521h-35.4v4.4h26.5l-10.1,5.8l-5.2-2.7l-9.9,0.3l10.4,5.1l-11.9,6.8
			L-780.5,540.5z M-715.2,534.8l2.1-3.6h-14.3v-3.6h12l2.1-3.6h-3.5l1.4-2.1h-5.7l-1.4,2.1h-15.8l-1.6-2.3h-5.7l1.6,2.3h-4.2v3.6
			h15.3v3.6h-15.3v3.6h15.3v2.9h-15.3v3.6h15.3v4.2h-15.3v3.6h13.1l-11.6,8.8l7.8,0l8.3-7l8.1,7l7.8,0l-11.3-8.8h10.8l2.1-3.6h-14.3
			v-4.2h12.2l2.1-3.6h-14.3v-2.9H-715.2z M-658.2,528.5c2,0,3.6-1.6,3.6-3.6c0-2-1.6-3.6-3.6-3.6s-3.6,1.6-3.6,3.6
			C-661.9,526.9-660.2,528.5-658.2,528.5z M-628.6,536.6l2.1-3.4h-13.9l1.4-3.1h-2.9v-3.9h6v4.9l5.5-1.8v-3.1h2.1l1.8-2.6h-3.9v-1.8
			h-5.5v1.8h-6v-2.1h-5.5v2.1h-3.6v2.6h3.6v4.2h2.7l-1.3,2.9h-5.9v3.4h4.4l-4.1,9.4h2.6v12.2h15.9l5.7-4.9v-10.4h-4.9h-12.4l2.8-6.2
			H-628.6z M-643.9,545.4h11.7v10.1h-11.7V545.4z M-654.9,533.2h-8.1v4.7h2.6v20.3h5.5l2.9-4.7h-2.9V533.2z M-701.9,529.1
			c1.9,0,3.4-1.5,3.4-3.4s-1.5-3.4-3.4-3.4s-3.4,1.5-3.4,3.4S-703.8,529.1-701.9,529.1z M-674.6,551.2l4.2-3.7V528v-3.1v-0.3h-10.9
			v-2.9h-4.4v2.9h-5.5h-2.9h-1.6V548v3.1v0.3h21.1V551.2z M-685.8,548h-5.5v-8.6h5.5V548z M-685.8,536.1h-5.5V528h5.5V536.1z
			 M-674.9,548h-6.5v-8.6h6.5V548z M-674.9,536.1h-6.5V528h6.5V536.1z M-698.5,550.6V534h-0.8h-3.6h-3.4v3.9h3.4V559l4.4-3.4v-0.7
			l3.9,3.1v0.3h23.7l2.1-3.4h-24.2L-698.5,550.6z"/>
	</g>
</g>
</svg>
