<?xml version="1.0" encoding="utf-8"?>
<!-- Generator: Adobe Illustrator 19.0.0, SVG Export Plug-In . SVG Version: 6.00 Build 0)  -->
<svg version="1.1" id="图层_1" xmlns="http://www.w3.org/2000/svg" xmlns:xlink="http://www.w3.org/1999/xlink" x="0px" y="0px"
	 viewBox="-834 481 250 120" style="enable-background:new -834 481 250 120;" xml:space="preserve">
<g id="XMLID_1_">
	<path id="XMLID_24_" d="M-678,542.4l-1.7-6.7c-0.1-0.4-0.5-0.8-1-0.8h-2.3c-0.6,0-1.1,0.6-1,1.2l1.7,6.7c0.1,0.4,0.5,0.8,1,0.8h2.3
		C-678.3,543.6-677.8,543-678,542.4z"/>
	<path id="XMLID_23_" d="M-690,524h-2.4c-0.5,0-1,0.4-1,1v1.9c0,0.7-0.3,1.3-0.7,1.8l-3.9,4.4c-0.4,0.4-0.4,1,0,1.4l1.5,1.5
		c0.4,0.4,1,0.4,1.4,0l1-1.1c0.3-0.3,0.8-0.1,0.8,0.3v20.9c0,0.5,0.4,1,1,1h2.4c0.5,0,1-0.4,1-1V525C-689,524.5-689.5,524-690,524z"
		/>
	<path id="XMLID_22_" d="M-665.2,526.2h-0.6c-0.4,0-0.7-0.3-0.7-0.7V525c0-0.5-0.4-1-1-1h-2.4c-0.5,0-1,0.4-1,1v0.6
		c0,0.4-0.3,0.7-0.7,0.7H-685c-0.5,0-1,0.4-1,1v2.4c0,0.5,0.4,1,1,1h13.5c0.4,0,0.7,0.3,0.7,0.7v19.2c0,1.2-1,2.2-2.2,2.2h-4.4
		c-0.5,0-1,0.4-1,1v1.2c0,1.2,1,2.2,2.2,2.2h4.3c3,0,5.5-2.5,5.5-5.5v-20.3c0-0.4,0.3-0.7,0.7-0.7h0.6c0.5,0,1-0.4,1-1v-2.4
		C-664.2,526.7-664.6,526.2-665.2,526.2z"/>
	<path id="XMLID_21_" d="M-653.5,542.7l-2.1-0.2c-0.5,0-1,0.3-1.1,0.9c-0.4,4.1-1.4,7.7-2.9,11.5c-0.2,0.5,0,1.1,0.5,1.3l2,0.9
		c0.5,0.2,1.1,0,1.3-0.5c1.8-4.2,2.8-8.2,3.3-12.7C-652.5,543.3-652.9,542.8-653.5,542.7z"/>
	<path id="XMLID_20_" d="M-626.4,534h-10.4c-0.5,0-0.9,0.4-0.9,0.9v2.4c0,0.5,0.4,0.9,0.9,0.9h5c0.3,0,0.5,0.3,0.4,0.6l-1,2.5
		c-0.1,0.3-0.2,0.5-0.2,0.8v0.5c0,0.3-0.2,0.6-0.6,0.6h-3.6c-0.5,0-1,0.4-1,1v2.2c0,0.5,0.4,1,1,1h3.6c0.3,0,0.6,0.2,0.6,0.6v4.3
		c0,0.5-0.4,0.9-0.9,0.9h-3.4c-0.5,0-0.9,0.4-0.9,0.9v1c0,1.2,1,2.2,2.2,2.2h2.7c2.4,0,4.4-2,4.4-4.4v-4.9c0-0.3,0.2-0.6,0.6-0.6
		h1.4c0.5,0,1-0.4,1-1v-2.2c0-0.5-0.4-1-1-1h-1.4c-0.3,0-0.6-0.2-0.6-0.6V542c0-0.2,0-0.4,0.1-0.6l1.1-2.9c0.1-0.2,0.3-0.4,0.5-0.4
		h0.2c0.5,0,0.9-0.4,0.9-0.9v-2.4C-625.5,534.4-625.9,534-626.4,534z"/>
	<path id="XMLID_19_" d="M-640.3,526.2h-2.4c-0.3,0-0.6-0.3-0.6-0.6v-1c0-0.3-0.3-0.6-0.6-0.6h-3.2c-0.3,0-0.6,0.3-0.6,0.6v1
		c0,0.3-0.3,0.6-0.6,0.6h-2.4c-0.5,0-0.9,0.4-0.9,0.9v2.6c0,0.5,0.4,0.9,0.9,0.9h0c0.3,0,0.6,0.3,0.6,0.6c0,12.9,0,12.9,0,13.6
		c0,2.8-0.8,6.3-2.1,10.2c-0.2,0.6,0.1,1.2,0.7,1.4l1.9,0.6c0.6,0.2,1.2-0.1,1.4-0.7c1.5-4.6,2.3-9.6,2.3-11.5v-6.1
		c0-0.3,0.3-0.6,0.6-0.6h0.6c0.5,0,1,0.4,1,1v12.6c0,0.7-0.2,1.7-0.6,2.8c-0.2,0.5-0.1,1.1,0.4,1.4l1.7,1.1c0.6,0.4,1.3,0.1,1.6-0.5
		c0.7-1.4,1-2.8,1.1-3.9c0-0.5,0.1-1.2,0.1-1.2v-13.3V535c0-0.5-0.4-1-1-1h-4.8c-0.3,0-0.6-0.3-0.6-0.6v-2.1c0-0.3,0.3-0.6,0.6-0.6
		h4.9c0.5,0,0.9-0.4,0.9-0.9v-2.6C-639.4,526.6-639.8,526.2-640.3,526.2z"/>
	<path id="XMLID_18_" d="M-658.7,536.3l3.1,2.2c0.3,0.2,0.7,0.1,0.9-0.2l1.5-2.1c0.2-0.3,0.1-0.7-0.2-0.9l-3.1-2.2
		c-0.3-0.2-0.7-0.1-0.9,0.2l-1.5,2.1C-659.1,535.7-659,536.1-658.7,536.3z"/>
	<path id="XMLID_17_" d="M-658.7,528.3l3.1,2.2c0.3,0.2,0.7,0.1,0.9-0.2l1.5-2.1c0.2-0.3,0.1-0.7-0.2-0.9l-3.1-2.2
		c-0.3-0.2-0.7-0.1-0.9,0.2l-1.5,2.1C-659.1,527.7-659,528.1-658.7,528.3z"/>
	<path id="XMLID_16_" d="M-626.4,526.2h-3.8c-0.3,0-0.5-0.3-0.4-0.6l0.2-0.8c0.1-0.4-0.2-0.9-0.6-0.9h-2.6c-0.4,0-0.7,0.3-0.8,0.6
		l-0.3,1c-0.1,0.4-0.5,0.6-0.8,0.6h-1.2c-0.5,0-0.9,0.4-0.9,0.9v2.6c0,0.5,0.4,0.9,0.9,0.9h10.4c0.5,0,0.9-0.4,0.9-0.9v-2.6
		C-625.5,526.6-625.9,526.2-626.4,526.2z"/>
	<path id="XMLID_11_" d="M-703.8,526.2h-3.3c-0.4,0-0.6-0.3-0.5-0.7l0.2-0.7c0.1-0.4-0.2-0.9-0.6-0.9h-2.7c-0.5,0-0.9,0.3-1.1,0.8
		l-0.4,1.1c-0.1,0.2-0.2,0.3-0.4,0.3h-13.6c-0.2,0-0.4-0.1-0.4-0.3l-0.4-1.1c-0.1-0.5-0.6-0.8-1.1-0.8h-2.7c-0.4,0-0.8,0.4-0.6,0.9
		l0.2,0.7c0.1,0.3-0.1,0.7-0.5,0.7h-3.3c-0.5,0-1,0.4-1,1v2.4c0,0.5,0.4,1,1,1h12.8c0.3,0,0.6,0.2,0.6,0.6v2.2
		c0,0.3-0.2,0.6-0.6,0.6h-10.7c-0.6,0-1.1,0.5-1.1,1.1v21c0,0.6,0.5,1.1,1.1,1.1h26.9c0.6,0,1.1-0.5,1.1-1.1v-21
		c0-0.6-0.5-1.1-1.1-1.1h-10.7c-0.3,0-0.6-0.2-0.6-0.6v-2.2c0-0.3,0.2-0.6,0.6-0.6h12.8c0.5,0,1-0.4,1-1v-2.4
		C-702.8,526.7-703.2,526.2-703.8,526.2z M-709.6,537.9c0.5,0,0.9,0.4,0.9,0.9v13.5c0,0.5-0.4,0.9-0.9,0.9H-729
		c-0.5,0-0.9-0.4-0.9-0.9v-13.5c0-0.5,0.4-0.9,0.9-0.9H-709.6z"/>
	<path id="XMLID_10_" d="M-726.7,550.7h14.7c0.4,0,0.8-0.4,0.8-0.8v-1.9c0-0.4-0.4-0.8-0.8-0.8h-14.7c-0.4,0-0.8,0.4-0.8,0.8v1.9
		C-727.5,550.3-727.1,550.7-726.7,550.7z"/>
	<path id="XMLID_9_" d="M-726.7,544h14.7c0.4,0,0.8-0.4,0.8-0.8v-1.9c0-0.4-0.4-0.8-0.8-0.8h-14.7c-0.4,0-0.8,0.4-0.8,0.8v1.9
		C-727.5,543.6-727.1,544-726.7,544z"/>
	<path id="XMLID_5_" d="M-752.3,538.8c0.6-0.8,0.9-1.9,0.9-3.1c0-3.5-2.2-6.8-5.4-8c-3.4-1.3-6.9-0.2-9.9,3c0.3-1.4,0.5-2.8,0.5-4.1
		c0-6.8-4.4-9.3-7.1-9.3c-1.5,0-2.8,0.7-3.6,1.8c-0.9,1.2-1,2.9-0.4,4.7c0.5,1.4,0.8,3.2,0.8,5.3c-0.6-1.1-1.3-2.1-2.1-2.9
		c-1.6-1.7-3.3-2.5-5-2.5c-2.4,0-5,1.6-5,4.5c0,2,1.4,3.6,2.8,5.2c0.9,1,1.8,2,2.6,3.3c-1.4-1.2-2.9-2-4.4-2.2
		c-1.6-0.2-3.1,0.3-4.3,1.5c-0.9,0.9-1.4,2.1-1.4,3.4c0,1.9,1.1,3.7,3.1,4.8l0.1,0.1c4.1,2.4,6.3,3.7,8.7,7.8c0.4,0.6,0.7,1.3,1.1,2
		c1.8,3.5,3.9,7.4,9.1,7.4c3,0,5.8-1.1,7.9-3.2c1.4-1.4,2.4-3.2,2.9-5.1c0.9,0.3,2,0.5,3.1,0.5c1.9,0,3.8-0.5,5.2-1.6
		c1.9-1.5,3.1-4.2,3.1-7.2C-749.1,542.1-750.4,539.8-752.3,538.8z M-753.5,550.5c-1.6,1.2-4.7,1.4-6.5,0.5c0-0.2,0-0.4,0-0.5
		c0-0.6-0.5-1.1-1.1-1.1c-0.6,0-1.1,0.5-1.1,1.1c0,2.4-0.9,4.6-2.6,6.3c-1.7,1.7-3.9,2.6-6.3,2.6c-3.9,0-5.5-3-7.1-6.2
		c-0.4-0.7-0.7-1.4-1.1-2.1c-2.7-4.6-5.4-6.2-9.5-8.6l-0.1-0.1c-1.3-0.8-2-1.8-2-2.9c0-0.7,0.3-1.3,0.8-1.8c0.7-0.7,1.6-1,2.5-0.9
		c2.4,0.3,5,3,6.5,5.5c0.3,0.5,1,0.7,1.5,0.4c0.4-0.2,0.6-0.6,0.5-1c0,0,0,0,0,0c-0.4-4.7-2.8-7.4-4.7-9.6c-1.3-1.4-2.3-2.6-2.3-3.7
		c0-0.8,0.6-2.3,2.8-2.3c1.1,0,2.3,0.7,3.4,1.8c2,2.2,3.4,5.7,3.3,8.4c0,0.3-0.1,0.6-0.1,0.9c-0.1,0.6,0.2,1.2,0.8,1.3
		c0.6,0.1,1.2-0.3,1.3-0.8c0.1-0.4,0.1-0.8,0.2-1.2c0.7-5.8,0.5-10.2-0.5-13.2c-0.4-1.1-0.3-2,0.1-2.7c0.4-0.5,1.1-0.9,1.8-0.9
		c0.8,0,2,0.4,3.1,1.5c0.8,0.9,1.8,2.6,1.8,5.6c0,2.8-1,6-2.6,8.4c-0.2,0.3-0.3,0.8-0.1,1.1c0.2,0.4,0.6,0.6,1,0.6
		c0.7,0,1.5,0.4,1.7,0.6c0.2,0.2,0.5,0.3,0.8,0.3c0.3,0,0.5-0.1,0.7-0.3c0.4-0.4,0.5-1.1,0.1-1.6c-0.1-0.2-0.4-0.3-0.6-0.5
		c1.2-2,2.6-3.6,4.1-4.7c1.9-1.3,3.8-1.6,5.7-0.9c2.3,0.9,3.9,3.4,3.9,5.9c0,1.8-0.9,2.8-2.6,2.8c-1.3,0-2-0.5-2.8-2c0,0,0,0,0,0
		c-0.2-0.3-0.5-0.5-0.9-0.6c-1.7-0.1-3.3,0.6-4.3,2c-1.1,1.3-1.4,3.1-0.9,4.7c0.4,1.4,1.3,2.4,2.5,3c1.5,0.7,3.3,0.8,5.2,0.2
		c0.3-0.1,0.5-0.3,0.6-0.6c0.1-0.3,0.1-0.6,0-0.9c-0.4-1-0.3-2.1,0.2-2.8c0.5-0.7,1.3-1,2.3-1c1.5,0,2.9,1.5,2.9,4.5
		C-751.3,547.3-752.2,549.4-753.5,550.5z M-759.1,544c-0.9,0.2-1.8,0.1-2.5-0.3c-0.7-0.3-1.1-0.9-1.4-1.7c-0.3-0.9-0.1-1.9,0.5-2.7
		c0.5-0.6,1.2-1,1.9-1.1c0.5,0.8,1.2,1.6,2.2,2.1c0,0,0,0,0,0.1C-759.1,541.4-759.4,542.7-759.1,544z"/>
	<path id="XMLID_4_" d="M-765.7,547.7c-0.5-0.3-1.2-0.1-1.5,0.4c-1,1.7-2.7,1.9-3.5,1.9c-0.8-0.9-1.8-1.6-2.8-2
		c-0.6-0.2-1.2,0.1-1.4,0.7c-0.2,0.6,0.1,1.2,0.7,1.4c1.3,0.4,2.7,2.2,2.8,3.1c0.1,0.5,0.6,0.9,1.1,0.9c0.1,0,0.1,0,0.2,0
		c0.6-0.1,1-0.7,0.9-1.3c0-0.3-0.1-0.5-0.2-0.8c1.3-0.3,3-1,4.1-2.8C-764.9,548.6-765.1,548-765.7,547.7z"/>
	<ellipse id="XMLID_3_" cx="-768.9" cy="542.8" rx="0.9" ry="1.5"/>
	<ellipse id="XMLID_2_" cx="-774.2" cy="544.3" rx="0.9" ry="1.5"/>
</g>
</svg>
