<?xml version="1.0" encoding="utf-8"?>
<!-- Generator: Adobe Illustrator 19.0.0, SVG Export Plug-In . SVG Version: 6.00 Build 0)  -->
<svg version="1.1" id="图层_1" xmlns="http://www.w3.org/2000/svg" xmlns:xlink="http://www.w3.org/1999/xlink" x="0px" y="0px"
	 viewBox="0 0 250 120" style="enable-background:new 0 0 250 120;" xml:space="preserve">
<style type="text/css">
	.st0{display:none;fill:none;stroke:#29ABE2;stroke-width:0.5;stroke-miterlimit:10;}
	.st1{display:none;opacity:0.3;fill:none;stroke:#29ABE2;stroke-width:0.5;stroke-miterlimit:10;}
	.st2{display:none;}
	.st3{display:inline;fill:#333333;}
	.st4{display:inline;}
	.st5{fill:#333333;}
	.st6{fill-rule:evenodd;clip-rule:evenodd;fill:#333333;}
</style>
<rect y="0" class="st0" width="250" height="120"/>
<line class="st1" x1="0" y1="61.4" x2="250" y2="61.4"/>
<line class="st1" x1="125" y1="0" x2="125" y2="120"/>
<rect x="40" y="30" class="st0" width="170" height="60"/>
<rect x="25" y="35" class="st0" width="200" height="50"/>
<rect x="65" y="20" class="st0" width="120" height="80"/>
<circle class="st0" cx="125" cy="60" r="40"/>
<g class="st2">
	<path class="st3" d="M61.9,75.4C50,75.4,40,65.7,40,53.8c0-11.9,10-21.6,21.9-21.6c6.6,0,11.3,2.6,14.8,6l-4.2,4.2
		c-2.6-2.4-6-4.2-10.7-4.2c-8.8-0.1-15.5,6.9-15.5,15.6c0,8.7,6.8,15.7,15.5,15.7c5.6,0,8.9-2.3,10.9-4.3c1.7-1.7,2.8-4.1,3.2-7.4
		H62v-5.9h19.7c0.2,1,0.3,2.3,0.3,3.7c0,4.5-1.2,9.9-5.1,13.8C73.1,73.3,68.3,75.4,61.9,75.4"/>
	<rect x="175.4" y="33.7" class="st3" width="5.9" height="40.8"/>
	<g class="st4">
		<path class="st5" d="M98.1,47.6c-7.7,0-14,5.8-14,13.9c0,8,6.3,13.9,14,13.9c7.7,0,14-5.9,14-13.9
			C112.1,53.4,105.8,47.5,98.1,47.6z M98.1,69.9c-4.3,0-7.9-3.5-7.9-8.5c0-5,3.7-8.5,7.9-8.5c4.3,0,7.9,3.4,7.9,8.5
			C106,66.4,102.3,69.9,98.1,69.9z"/>
	</g>
	<g class="st4">
		<path class="st5" d="M128.4,47.6c-7.7,0-14,5.8-14,13.9c0,8,6.3,13.9,14,13.9c7.7,0,14-5.9,14-13.9
			C142.4,53.4,136.1,47.5,128.4,47.6z M128.3,69.9c-4.3,0-7.9-3.5-7.9-8.5c0-5,3.7-8.5,7.9-8.5c4.3,0,7.9,3.4,7.9,8.5
			C136.2,66.4,132.6,69.9,128.3,69.9z"/>
	</g>
	<g class="st4">
		<path class="st5" d="M165.6,50.6h-0.2c-1.3-1.6-4-3.1-7.3-3.1c-6.9,0-13.3,6.1-13.3,14c0,7.8,6.4,13.9,13.3,13.9
			c3.3,0,6-1.4,7.3-3.1h0.2v2c0,5.3-2.9,8.2-7.4,8.2c-3.8,0-6.1-2.7-7-4.9l-5.3,2.2c1.5,3.6,5.6,8.2,12.4,8.2
			c7.1,0,13.2-4.2,13.2-14.5v-25h-5.8V50.6z M158.6,69.9c-4.2,0-7.7-3.5-7.7-8.4c0-4.9,3.5-8.5,7.7-8.5c4.2,0,7.4,3.5,7.4,8.5
			C166,66.3,162.8,69.9,158.6,69.9z"/>
	</g>
	<g class="st4">
		<path class="st5" d="M198.1,69.9c-3.1,0-5.3-1.4-6.8-4.2L210,58l-0.7-1.6c-1.1-3.1-4.7-8.9-11.9-8.9c-7.1,0-13.1,5.6-13.1,13.9
			c0,7.8,5.9,13.9,13.8,13.9c6.4,0,10.1-3.9,11.6-6.2L205,66C203.3,68.3,201.2,69.9,198.1,69.9z M197.7,52.9c2.4,0,4.5,1.2,5.1,3
			L190.4,61C190.2,55.7,194.5,52.9,197.7,52.9z"/>
	</g>
</g>
<g id="XMLID_1_">
	<path id="XMLID_118_" class="st6" d="M169.4,54.8l-3.8,15.4h-5.9l3.8-15.4H169.4z"/>
	<path id="XMLID_116_" class="st6" d="M159.3,50.2h11.1v3.4h-11.1V50.2z"/>
	<path id="XMLID_114_" class="st6" d="M165.6,45.5l0.2,8.1h9.9L165.6,45.5z"/>
	<path id="XMLID_112_" class="st6" d="M137.9,51l-4.4,19h5.9l3.2-13.7c0,0,1-1.5,3-2.4c2.3-1,6.5-0.7,6.5,2.6L149,70.2h5.5l3.2-15
		c0,0,0.8-4.9-5.5-5.7c0,0-7.4-0.3-9.1,3.2C143,52.6,140.7,50.2,137.9,51z"/>
	<path id="XMLID_110_" class="st6" d="M109.9,57.6h22.7v3.4h-22.7V57.6z"/>
	<path id="XMLID_108_" class="st6" d="M115.6,59.9c0,0-2.3,6.6,6.5,6.5c0,0,2.8-0.3,4.7-1.6h3.6c0,0-2.8,5.4-13.2,5.1
		c0,0-12-0.6-7.3-12.4L115.6,59.9z"/>
	<path id="XMLID_106_" class="st6" d="M132.8,60.7c0,0,3.8-10.4-8.3-11.5c0,0-11.3-1.2-14.6,8.5h6.7c0,0,0.8-4.6,7.1-4.3
		c0,0,5.3,0.5,4.3,4.5L132.8,60.7z"/>
	<path id="XMLID_104_" class="st6" d="M19.9,43.3H44l-0.8,3.8H19.1L19.9,43.3z"/>
	<path id="XMLID_102_" class="st6" d="M33.9,45.7L28,70.2H22L28,45.7H33.9z"/>
	<path id="XMLID_100_" class="st6" d="M36.7,57.6h22.8v3.4H36.7V57.6z"/>
	<path id="XMLID_98_" class="st6" d="M42.4,59.9c0,0-2.3,6.6,6.5,6.5c0,0,2.8-0.3,4.8-1.6h3.6c0,0-2.8,5.5-13.3,5.1
		c0,0-12.1-0.6-7.3-12.5L42.4,59.9z"/>
	<path id="XMLID_96_" class="st6" d="M59.7,60.7c0,0,3.8-10.4-8.3-11.5c0,0-11.3-1.2-14.7,8.5h6.7c0,0,0.8-4.6,7.1-4.4
		c0,0,5.3,0.5,4.4,4.6L59.7,60.7z"/>
	<path id="XMLID_94_" class="st6" d="M65.2,51l-4.4,19h5.9L70,56.4c0,0,1-1.5,3-2.4c2.3-1,6.5-0.7,6.5,2.6l-3.2,13.7h5.5L85,55.2
		c0,0,0.8-4.9-5.5-5.7c0,0-8.3-0.3-9.3,3.2C70.2,52.6,68,50.2,65.2,51z"/>
	<path id="XMLID_92_" class="st6" d="M107.2,56.8l1.4-5.3c0,0-0.3-1.9-3-2c0,0-13.3-2.6-18.3,7.8C86.6,58,82,70,97.9,70
		c3.9,0,6.9-1.6,6.9-1.6l1-6.1c0,0-3.7,4.4-9.7,3.8c0,0-9.6-3.5-0.8-11.1C96.2,54.2,102.4,50.7,107.2,56.8z"/>
	<path id="XMLID_90_" class="st6" d="M212,45.8l4-1.3l1.7,5.1l-4,1.3L212,45.8z"/>
	<path id="XMLID_88_" class="st6" d="M208.6,53h6.5l-0.4,2.6h-6.1V53z"/>
	<path id="XMLID_86_" class="st6" d="M211.7,55.2h3l-2,10.9h-3L211.7,55.2z"/>
	<path id="XMLID_84_" class="st6" d="M206.9,67.7l9.8-8.6l0.7,3.5l-8.4,7.6L206.9,67.7z"/>
	<path id="XMLID_82_" class="st6" d="M222,47.5h3.2l-4.8,22.8h-3.2L222,47.5z"/>
	<path id="XMLID_80_" class="st6" d="M216.9,55h11.9l-0.4,2.6h-12.1L216.9,55z"/>
	<path id="XMLID_78_" class="st6" d="M219.5,46.1h12.1l-0.6,2.6h-12.1L219.5,46.1z"/>
	<path id="XMLID_76_" class="st6" d="M228,47.5c0,0-2.5,8.7-2.8,13.9c0,0-1.1,9,3.8,8.9c0.4-0.1,3.3-1.3,4-5.3l-2.6-1.4
		c0,0-0.3,1.3-0.8,1.8c-0.3,0.3-0.8,0.2-0.8,0.2s-2.6,0.2,2.4-17.8L228,47.5z"/>
	<path id="XMLID_74_" class="st6" d="M191.7,61.3h12.5l-0.6,2h-12.3L191.7,61.3z"/>
	<path id="XMLID_72_" class="st6" d="M188.6,64.5h9.7l-0.4,2.4H188L188.6,64.5z"/>
	<path id="XMLID_70_" class="st6" d="M193.1,45.1l3-1.8l1.6,3.4l-3,1.2L193.1,45.1z"/>
	<path id="XMLID_68_" class="st6" d="M207.8,45.7l-3-1.6l-3.4,4l2.8,1.2L207.8,45.7z"/>
	<path id="XMLID_66_" class="st6" d="M191.4,52.2h16l-0.4,2.4h-16.2L191.4,52.2z"/>
	<path id="XMLID_64_" class="st6" d="M192.3,48.8h14.9l-0.4,2.4h-15.1L192.3,48.8z"/>
	<path id="XMLID_62_" class="st6" d="M198.7,43.5c0,0-1.6,12.8-9.7,15.8l3,1.8c0,0,6.7-2.2,9.7-17.6H198.7z"/>
	<path id="XMLID_60_" class="st6" d="M201.1,54.2c0,0,3,3.4,6.1,3.6l-2.6,1.8c0,0-2.2,0.5-6.7-5.3H201.1z"/>
	<path id="XMLID_58_" class="st6" d="M193.9,56.2h9.1l-0.4,2.2h-9.3L193.9,56.2z"/>
	<path id="XMLID_56_" class="st6" d="M199.1,57.6l-1,4.4h2.6l1-4.4H199.1z"/>
	<path id="XMLID_54_" class="st6" d="M200.7,62.5l-1.4,4.8l-2,0.4l0.2,2.8l3.8-0.8c0,0,0.7-0.5,1.2-1.8l1.8-6.5l-3.4,0.2L200.7,62.5
		z"/>
	<path id="XMLID_52_" class="st6" d="M184.8,44.7h7.1l-0.6,2.6h-6.9L184.8,44.7z"/>
	<path id="XMLID_50_" class="st6" d="M183.4,51.8h5.7l-0.4,2.6H183L183.4,51.8z"/>
	<path id="XMLID_48_" class="st6" d="M182.6,57.8h5.5l-0.6,2.8l-5.3-0.2L182.6,57.8z"/>
	<path id="XMLID_46_" class="st6" d="M183.8,44.7c0,0-1.8,15.2-4.4,20.6c0,0-0.8,2-1.4,2.4l2.4,2.4c0,0,2.1-2.8,3.4-10.1l2.8-15.2
		H183.8z"/>
	<path id="XMLID_44_" class="st6" d="M189.4,44.7c0,0-3,19.2-4.4,20.6c-0.3,0.3-1,1.1-1.6,1c-0.2,0-0.1,3.6-0.2,3.6
		c0,0,2.3,0.5,3.6-1.6c0.6-0.9,0.9-0.4,2.2-7.7l3-15.6L189.4,44.7z"/>
	<path id="XMLID_42_" class="st6" d="M192.3,58.5l-1,4.4h3l1-4.4H192.3z"/>
</g>
</svg>
