<?xml version="1.0" encoding="utf-8"?>
<!-- Generator: Adobe Illustrator 19.0.0, SVG Export Plug-In . SVG Version: 6.00 Build 0)  -->
<svg version="1.1" id="图层_1" xmlns="http://www.w3.org/2000/svg" xmlns:xlink="http://www.w3.org/1999/xlink" x="0px" y="0px"
	 viewBox="-834 481 250 120" style="enable-background:new -834 481 250 120;" xml:space="preserve">
<style type="text/css">
	.st0{fill:#FFFFFF;}
	.st1{fill:none;stroke:#FFFFFF;stroke-linecap:round;stroke-linejoin:round;}
	.st2{fill:none;stroke:#000000;stroke-miterlimit:10;}
	.st3{fill:none;stroke:#000000;stroke-linecap:round;stroke-linejoin:round;}
</style>
<title>Logo_小鱼在家</title>
<path d="M-782.1,527.2c-1.4,0.5-4.1,1.9-4.1,1.9c-1.3-1.4-3-2.6-4.7-3.5c-2.3-1-4.9-1.7-7.5-1.8c-0.3,0,0,2.5,0,3.4
	c0,1,0.3,6.6,0.3,7.3c0,1,0.4,0.9,1.3,0.8c1.3-0.3,6.2-1,6.1-0.8c-0.4,0.4-0.1,3.6,0.3,5.8c0.3,1.9,0.9,5.1,0.9,5.1
	c-0.8,0.4-1.6,0.8-2.3,1c-0.8,0.4-1.7,0.6-2.5,0.9c-0.3,0-0.4,0.1-0.3,0.4c0.8,2.1,2.2,3.8,4,4.8c1.4,0.5,3,1,4.5,1.3
	c2.1,2.2,4.4,4.1,7,5.8c3.8,2.1,8,3.1,12.3,3.2c3.4,0,6.6-0.6,9.6-2.1c1.9-1.2,3.6-2.8,4.9-4.8c2.3-4.3,0.6-12-0.1-14.2
	c-1.6-3.6-4-6.7-7-9.3c-4.1-3.5-5.6-3.9-6.1-4.8c-1.2-2.6-2.8-4.9-4.9-6.9c-1.9-1.8-4.5-3-7.3-3.2c-0.1,0.1,0.4,6.1,0.1,8.2
	C-777.9,525.8-780.7,526.6-782.1,527.2z"/>
<path class="st0" d="M-755.8,537c-10.4-0.8-14.1,1.5-17.8,5.6c-4.6,5.2-4.7,12.8-4.2,17.5c-0.5-0.3-0.9-0.5-1.4-0.8
	c-1.7-1-3.2-2.3-4.6-3.6c-2.2-9.3,1.3-16.4,4.3-19.4c0,0,3.1-4,10.1-5.4c0.8-0.1,3.1,1.2,3.8,1.5c0.5,0.3,0.3-2.2,0.5-2.2
	c0.5,0,2,0,2.6,0c0.8,0.5,1.7,1.3,2.7,2.2C-758.4,534-757,535.4-755.8,537z"/>
<path d="M-777.2,518c2.3,0.5,4.5,1.6,6.2,3.1c1.8,1.7,3.2,3.8,4.3,6c0.1,0.3,0.3,0.5,0.4,0.8c0.5,0.6,1.2,1.2,1.8,1.6
	c1.6,1,3,2.2,4.4,3.4c2.8,2.5,5.2,5.6,6.7,9.1c0.8,2.3,2.3,9.8,0.3,13.7c-1.2,1.8-2.7,3.4-4.5,4.4c-2.8,1.4-6.1,2.1-9.2,1.9
	c-4.1-0.1-8.3-1.2-11.9-3.1c-2.5-1.7-4.8-3.6-6.9-5.7l-0.1-0.1h-0.3c-1.6-0.3-3-0.6-4.4-1.2c-1.6-0.9-2.8-2.3-3.5-3.9
	c0.3-0.1,0.8-0.3,1.3-0.5l0.9-0.3c0.8-0.4,1.6-0.6,2.3-1.2l0.4-0.3l-0.1-0.5c0,0-0.6-3.1-0.9-5.1c-0.4-1.7-0.5-3.5-0.4-5.3l0.3-0.3
	l-0.1-0.4c-0.1-0.3-0.4-0.4-0.6-0.4c-0.5,0-2.7,0.4-5.1,0.6l-1,0.1h-0.5c0-0.1,0-0.1,0-0.3c0-0.3,0-1.6-0.1-3
	c-0.1-1.8-0.1-3.8-0.1-4.4c0-0.5,0-0.9-0.1-1.4c-0.1-0.5,0-0.9-0.1-1.3c2.3,0.3,4.5,0.8,6.6,1.8c1.7,0.9,3.1,2.1,4.4,3.4l0.4,0.4
	l0.4-0.1c0,0,2.7-1.4,4.1-1.9c0.6-0.3,1.7-0.6,2.6-0.9c0.8-0.1,1.4-0.4,2.2-0.8l0.1-0.1v-0.3c0.1-2.1,0.1-4.1,0-6.1
	C-777.1,519-777.1,518.5-777.2,518 M-777.6,517.4h-0.1c-0.1,0.1,0.4,6.1,0.1,8.2c-0.1,0.1-3,1-4.5,1.6c-1.4,0.5-4.1,2.1-4.1,2.1
	c-1.3-1.4-3-2.6-4.7-3.5c-2.3-1-4.9-1.7-7.5-1.8c-0.3,0,0,2.5,0,3.4c0,1,0.3,6.6,0.3,7.3s0.3,0.9,0.6,0.9c0.3,0,0.4,0,0.6,0
	c1.2-0.1,5.3-0.9,6-0.9c0.1,0,0.1,0,0.1,0c-0.4,0.4-0.1,3.6,0.3,5.8c0.3,1.9,0.9,5.1,0.9,5.1c-0.8,0.4-1.6,0.8-2.3,1
	c-0.8,0.4-1.7,0.6-2.5,0.9c-0.3,0-0.4,0.1-0.3,0.4c0.8,2.1,2.2,3.8,4,4.8c1.4,0.5,3,1,4.5,1.3c2.1,2.2,4.4,4.1,7,5.8
	c3.8,2.1,8,3.1,12.3,3.2c3.4,0,6.6-0.6,9.6-2.1c1.9-1.2,3.6-2.8,4.9-4.8c2.3-4.3,0.6-12-0.1-14.2c-1.6-3.6-4-6.7-7-9.3
	c-4.1-3.5-5.6-3.9-6.1-4.8c-1.2-2.6-2.8-4.9-4.9-6.9C-772.5,518.9-775,517.7-777.6,517.4L-777.6,517.4z"/>
<path class="st0" d="M-766.8,553.2h0.3c0.6,0,1.2,0.5,1.2,1.2v4.1c0,0.6-0.5,1.2-1.2,1.2h-0.3c-0.6,0-1.2-0.5-1.2-1.2v-4.1
	C-768,553.8-767.5,553.2-766.8,553.2z"/>
<polyline class="st1" points="-755.1,550.5 -757.1,553.6 -755.1,555.4 "/>
<path class="st2" d="M-750.1,540.2c1.3,1.3,1.8,3.2,1.4,5.1"/>
<path class="st2" d="M-748.8,536c3.2,3.1,3.5,6.5,3.5,9.8"/>
<path class="st3" d="M-720.9,527.1v24.3c0.1,1.3-0.8,2.5-2.1,2.6c0,0,0,0-0.1,0h-5.3"/>
<path class="st3" d="M-627.1,536.9v14.2c0.1,1.4-0.9,2.6-2.2,2.7l0,0h-5.7"/>
<line class="st3" x1="-729.4" y1="534.6" x2="-735.2" y2="548.6"/>
<line class="st3" x1="-713.6" y1="534.6" x2="-707.8" y2="548.6"/>
<line class="st3" x1="-698.1" y1="527.1" x2="-701.6" y2="532.9"/>
<polyline class="st3" points="-700.1,530.4 -681.1,530.4 -685.9,535.8 "/>
<rect x="-701.6" y="535.8" class="st3" width="21.8" height="13"/>
<line class="st3" x1="-701.6" y1="542.1" x2="-679.8" y2="542.1"/>
<line class="st3" x1="-690.7" y1="535.8" x2="-690.7" y2="548.6"/>
<line class="st3" x1="-704.7" y1="554" x2="-676.7" y2="554"/>
<line class="st3" x1="-673.3" y1="532.5" x2="-646.4" y2="532.5"/>
<line class="st3" x1="-661.7" y1="527.1" x2="-673.3" y2="547.7"/>
<line class="st3" x1="-668.9" y1="540" x2="-668.9" y2="554"/>
<line class="st3" x1="-664.7" y1="542.1" x2="-647.7" y2="542.1"/>
<line class="st3" x1="-656.1" y1="535.8" x2="-656.1" y2="554"/>
<line class="st3" x1="-665.8" y1="554" x2="-646.4" y2="554"/>
<line class="st3" x1="-626.7" y1="526.9" x2="-629.3" y2="531.5"/>
<polyline class="st3" points="-642.1,535.8 -642.1,531.5 -615.3,531.5 -615.3,535.8 "/>
<line class="st3" x1="-638.6" y1="536.9" x2="-618.4" y2="536.9"/>
<line class="st3" x1="-641" y1="544.4" x2="-628" y2="536.9"/>
<line class="st3" x1="-641" y1="548.8" x2="-627.1" y2="540.8"/>
<line class="st3" x1="-641" y1="553.4" x2="-616.1" y2="539.1"/>
<line class="st3" x1="-627.1" y1="547.3" x2="-615.3" y2="554"/>
</svg>
