<?xml version="1.0" encoding="utf-8"?>
<!-- Generator: Adobe Illustrator 19.0.0, SVG Export Plug-In . SVG Version: 6.00 Build 0)  -->
<svg version="1.1" id="图层_1" xmlns="http://www.w3.org/2000/svg" xmlns:xlink="http://www.w3.org/1999/xlink" x="0px" y="0px"
	 viewBox="-834 481 250 120" style="enable-background:new -834 481 250 120;" xml:space="preserve">
<style type="text/css">
	.st0{fill-rule:evenodd;clip-rule:evenodd;fill:#333333;}
</style>
<g id="形状_8">
	<g>
		<path class="st0" d="M-616,536.9h-17.5v2.4h17.5V536.9z M-734.9,538.7c0,0-4.8-0.7-7.4,0.5v2.1c0,0,5.8-1.3,7.7-0.3
			c0,0,0.9,0.2,1.4,1h0v2.6c-1.1-0.5-2.6-0.5-4.2-0.5c-3.4,0-6.2,1.5-6.1,4.9c0.1,4,2.7,4.9,6.1,4.9c1.6,0,3.1-0.5,4.2-1.3v1.3h2.9
			v-11.8h-0.1C-730.6,541.3-731.6,539-734.9,538.7z M-733.3,550.5c0,0-2,1.6-5,1.3c0,0-2.6-0.1-2.7-2.9c0,0-0.2-2.2,3.7-2.4
			c1.7-0.1,4,0.3,4,0.3V550.5z M-727.7,553.9h2.9v-21.3h-2.9V553.9z M-714.2,538.4c-2.5,0-4.4,1.2-5.3,1.9v-1.9h-2.4v15.5h1.9h0.5
			h0.3v-11.4c1.5-1.4,4.2-2,4.2-2c3-0.1,3.7,2.1,3.7,2.1v11.3h2.7v-11.3C-708.7,538.5-714.2,538.4-714.2,538.4z M-748.6,535.3h2.9
			v-2.6h-2.9V535.3z M-623.5,532.9v-2.1h-2.4v2.1h-8.2v2.4h18.8v-2.4H-623.5z M-748.6,553.9h2.9v-15.5h-2.9V553.9z M-772.8,532.9
			h-2.7h-0.3l-9,21h2.9l2.8-6.6h9.7l2.8,6.6h2.9l-9-21H-772.8z M-778,545l3.9-9l3.9,9H-778z M-655.5,548.9l2.1,1
			c3.9-6.2,4.5-13.6,4.5-13.6l-2.7-0.2c0.1,2.5-0.8,4.6-0.9,5.2C-653.3,544.5-655.6,548.9-655.5,548.9z M-656.3,534.2h8.7v-2.4
			h-26.5v2.4h9v17.3h-9v2.4h26.8v-2.4h-9V534.2z M-658.7,551.6h-4v-17.3h4V551.6z M-670.7,535.9l-2.3,0.5l3,13.1l2.3-0.5
			L-670.7,535.9z M-640.7,537.4l2.7-1.7v18.7h2.4v-20.2l0,0v-3.9l-6.4,5.2L-640.7,537.4z M-702.8,536.1c0,0,0.3-3,6.4-1v-2.4
			c0,0-2.5-0.9-5.6-0.3c0,0-3.6,0.2-3.7,5.2v16.3l2.9-0.3v-13.1h4.5v-2.1h-4.5V536.1z M-633.5,543.2h17.5v-2.4h-17.5V543.2z
			 M-620.6,544.7h-8.1c-2.7,0-4.9,2.2-4.9,4.9c0,2.7,2.2,4.9,4.9,4.9h8.1c2.7,0,4.9-2.2,4.9-4.9
			C-615.8,546.9-617.9,544.7-620.6,544.7z M-620.9,552.3h-7.5c-1.5,0-2.8-1.2-2.8-2.8s1.2-2.8,2.8-2.8h7.5c1.5,0,2.8,1.2,2.8,2.8
			S-619.4,552.3-620.9,552.3z M-689.8,538.4c-4.1,0-7.4,3.3-7.4,7.4v0.6c0,4.1,3.3,7.4,7.4,7.4c4.1,0,7.4-3.3,7.4-7.4v-0.6
			C-682.3,541.8-685.7,538.4-689.8,538.4z M-685,547c0,2.6-2.1,4.8-4.8,4.8s-4.8-2.1-4.8-4.8v-1.5c0-2.6,2.1-4.8,4.8-4.8
			s4.8,2.1,4.8,4.8V547z M-754.2,545c-1.3-0.3-5-0.3-5-0.3c-1.2-0.1-1.3-1.6-1.3-1.6c-0.2-1.7,1.3-2.1,1.3-2.1c4.1-1.2,8,0.8,8,0.8
			V539c-2.6-0.8-8.8-0.3-8.8-0.3c-3.5,0.7-3.2,4.5-3.2,4.5c-0.1,3.8,3.2,4.2,3.2,4.2h4.8c1.9,0.2,1.9,1.8,1.9,1.8
			c0.2,1.6-1.6,2.4-1.6,2.4c-2.7,1-7.4-0.8-7.4-0.8v2.1c3.3,1.6,7.7,0.8,7.7,0.8c4-0.5,4.2-3.9,4.2-3.9
			C-750.4,545.6-754.2,545-754.2,545z"/>
	</g>
</g>
</svg>
