<?xml version="1.0" encoding="utf-8"?>
<!-- Generator: Adobe Illustrator 19.0.0, SVG Export Plug-In . SVG Version: 6.00 Build 0)  -->
<svg version="1.1" id="图层_1" xmlns="http://www.w3.org/2000/svg" xmlns:xlink="http://www.w3.org/1999/xlink" x="0px" y="0px"
	 viewBox="-834 481 250 120" style="enable-background:new -834 481 250 120;" xml:space="preserve">
<style type="text/css">
	.st0{fill-rule:evenodd;clip-rule:evenodd;fill:#0A0A0A;}
</style>
<g id="形状_10_拷贝_2">
	<g id="XMLID_93_">
		<path id="XMLID_94_" class="st0" d="M-767.8,529.6c0,0,0.1,0,0.1,0c4,0,7.3-3.3,7.3-7.3s-3.3-7.3-7.3-7.3c-2.1,0-4,0.9-5.3,2.3
			c-0.6,0.5-3.3,2.8-10.2,11.6C-783.2,528.8-773.6,530.4-767.8,529.6z M-781.7,545.8C-781.6,545.8-781.6,545.8-781.7,545.8
			c4.6-3.8,10.2-11.8,10.2-11.8c-11.1-1.2-14.6-0.9-15.4-0.8c-1.9,0-3.9,0.7-5.3,2.2c-2.8,2.9-2.7,7.6,0.2,10.5
			C-789.1,548.8-784.5,548.8-781.7,545.8z M-779.6,551.7c-1.9,0-3.9,0.7-5.3,2.2c-2.8,2.9-2.7,7.6,0.2,10.5
			c2.9,2.8,7.6,2.8,10.4-0.1c0,0,0-0.1,0.1-0.1c4.5-3.7,10.1-11.7,10.1-11.7C-775.3,551.3-778.8,551.6-779.6,551.7z M-746.9,532.6
			l2.5,4.4h10.3l-13.4,23.7h3.1h0.6h15.6l-1.9-4.4h-11.2l13.7-23.6l-0.1,0l0.1-0.2H-746.9z M-717.5,551.5l12.5-7.5l0,0l0,0v-0.7
			c0-5.5-4.5-10-10-10s-10,4.5-10,10v8.1c0,5.5,4.5,10,10,10c5.4,0,9.8-4.3,10-9.7l-4.4,1.1c-0.4,2.8-2.7,4.9-5.6,4.9
			c-3.1,0-5.6-2.5-5.6-5.6v-9.4c0-3.1,2.5-5.6,5.6-5.6c2.8,0,5.1,2,5.5,4.7l-8,4.8V551.5z M-651.3,561.4h4.4v-28.1l-4.4,2.5V561.4z
			 M-660.1,547.6c0,0-9.9-4.2-10-6.2c0,0-0.3-4.1,4.4-4.4c0,0,3.9-0.2,5.3,2.5l3.5-2.5c0,0-2.8-5.2-8.9-4.9c0,0-7.9,1-8.6,8
			c-0.3,2.6,0.5,6.3,7.5,8.7c0,0,6.7,2.3,6.2,5.6c0,0-0.7,2.8-4.4,2.5c0,0-4.1,0.4-5.6-3.7l-3.7,2.5c0,0,2.9,5.8,9.4,5.6
			c0,0,7.4,0.6,8.7-6.2C-656.3,555.1-655.5,550.3-660.1,547.6z M-627.2,547c0,0-9.9-4.2-10-6.2c0,0-0.3-4.1,4.4-4.4
			c0,0,3.9-0.2,5.3,2.5l3.5-2.5c0,0-2.8-5.2-8.9-4.9c0,0-7.9,1-8.6,8c-0.3,2.6,0.5,6.3,7.5,8.7c0,0,6.7,2.3,6.2,5.6
			c0,0-0.7,2.8-4.4,2.5c0,0-4.1,0.4-5.6-3.7l-3.7,2.5c0,0,2.9,5.8,9.4,5.6c0,0,7.4,0.6,8.7-6.2C-623.4,554.5-622.7,549.7-627.2,547z
			 M-684.4,535.8l-0.1,17c-0.4,2.7-2.7,4.8-5.6,4.8c-3.1,0-5.6-2.5-5.6-5.6v-0.6V532l-4.4,3.7v16.9h0.1c0.6,4.9,4.8,8.7,9.9,8.7
			c5.4,0,9.9-3.5,10-9.7l0,0l0.1-19.7L-684.4,535.8z M-760.6,533.2c-2.1,0-4,0.9-5.3,2.4c-0.6,0.5-3.2,2.8-10,11.8
			c0,0,9.6,1.4,15.4,0.6c0,0,0.1,0,0.1,0c4.1,0,7.3-3.4,7.2-7.5S-756.6,533.2-760.6,533.2z"/>
	</g>
</g>
</svg>
