<?xml version="1.0" encoding="utf-8"?>
<!-- Generator: Adobe Illustrator 19.0.0, SVG Export Plug-In . SVG Version: 6.00 Build 0)  -->
<svg version="1.1" id="Layer_1" xmlns="http://www.w3.org/2000/svg" xmlns:xlink="http://www.w3.org/1999/xlink" x="0px" y="0px"
	 viewBox="-799 381 320 320" style="enable-background:new -799 381 320 320;" xml:space="preserve">
<style type="text/css">
	.st0{fill:#754C24;}
	.st1{fill:#FDD133;}
	.st2{fill:#F7A108;}
	.st3{fill:none;stroke:#B3B3B3;stroke-linecap:round;stroke-linejoin:round;stroke-miterlimit:10;}
</style>
<g id="XMLID_261_">
	<rect id="XMLID_434_" x="-718.3" y="458.1" width="154.3" height="154.3"/>
	<g id="XMLID_419_">
		<g id="XMLID_430_">
			<path id="XMLID_433_" class="st0" d="M-639.1,495.3l-4.2-3.7c-0.1-0.1-0.6-0.4-0.7-0.4l-3.2-0.6l1.2,5.3L-639.1,495.3z"/>
			<path id="XMLID_432_" class="st1" d="M-610.6,532.5c0.7,1.9,1.1,6.5-2.7,9.1c-4.5,3.2-10.2-0.7-10.2-0.7s5.6,8.7,17.7,15
				c2.6,1.2-5.6,3.4-14.6-1.2c-12.9-6.6-16.1-13.4-16.1-13.4c-1.5,2.3-3.8,5.3-5.6,6.9c-6.5,6.5-17.6,11.8-31.5,10.7
				c-1.2-0.1-2.5-0.4-2.5-1.2c0-0.7,1.2-1.2,1.2-1.2c7.1-2.7,14.5-7.6,20.8-15c3.2-3.7,5.8-10.2,8.2-21.5
				c2.6-12.5,1.1-19.5,1.1-19.5l-1.2-4.6l6.8-0.6c0,0,3.4,1.4,6.9,11.3c3.7,10.3,3,14.8,4.6,19.2c0.4,1.2,2,6.9,7.6,9.9
				c4.2,2,7.2-1.1,8.4-3c0,0,0.1-0.4,0.5-0.4C-610.8,532-610.6,532.5-610.6,532.5z"/>
			<path id="XMLID_431_" class="st2" d="M-675.1,537.7c9.7,4.5,19.1-0.1,24.3-8.9c6.1-10,5.8-21.7,4.7-33c0,0,5,10,1.9,25.3
				c-1.2,6.2-4.2,12.9-9.7,19.6c-10,12-25,3-23-2c0,0,0.5-1.1,1.1-1.2"/>
		</g>
		<g id="XMLID_420_">
			<line id="XMLID_429_" class="st3" x1="-624.1" y1="568" x2="-624.1" y2="580"/>
			<path id="XMLID_428_" class="st3" d="M-654.2,578.3c-1.1,1.1-2.6,1.9-4.3,1.9s-3.2-0.6-4.3-1.9c-1.1-1.2-1.9-2.6-1.9-4.3
				c0-1.9,0.6-3.2,1.9-4.3c1.2-1.1,2.6-1.9,4.3-1.9s3.2,0.6,4.3,1.9"/>
			<path id="XMLID_427_" class="st3" d="M-626.9,578.8c-0.7,0.7-2,1.4-3.4,1.4c-1.4,0-2.5-0.6-3.4-1.4c-0.7-0.7-1.4-2-1.4-3.4
				c0-1.2,0.6-2.5,1.4-3.4c0.7-0.7,2-1.4,3.4-1.4c1.4,0,2.5,0.6,3.4,1.4"/>
			<path id="XMLID_426_" class="st3" d="M-624.1,572.6c2.3-2.3,6.5-1.9,6.5,1.9v5.6"/>
			<path id="XMLID_425_" class="st3" d="M-650.8,571.7c2.4-2.3,6.8-0.7,6.8,3v5.6"/>
			<line id="XMLID_424_" class="st3" x1="-642" y1="571.3" x2="-636.9" y2="571.3"/>
			<path id="XMLID_423_" class="st3" d="M-639.3,569.8v8.3c0,0-0.1,2.5,2.7,2"/>
			<path id="XMLID_422_" class="st3" d="M-644.4,574.9"/>
			<path id="XMLID_421_" class="st3" d="M-644.2,575.2c-1.2-0.9-2.7-1.4-4.2-1.1c-1.5,0.4-3,1.5-3,3.2c0,1.5,1.2,3,3,3
				c0.6,0,1.4-0.4,1.9-0.6"/>
		</g>
	</g>
</g>
</svg>
