<?xml version="1.0" encoding="utf-8"?>
<!-- Generator: Adobe Illustrator 19.0.0, SVG Export Plug-In . SVG Version: 6.00 Build 0)  -->
<svg version="1.1" id="图层_1" xmlns="http://www.w3.org/2000/svg" xmlns:xlink="http://www.w3.org/1999/xlink" x="0px" y="0px"
	 viewBox="0 0 907.1 907.1" style="enable-background:new 0 0 907.1 907.1;" xml:space="preserve">
<style type="text/css">
	.st0{fill:#323333;}
	.st1{fill:#F5AB16;}
</style>
<g id="XMLID_50_">
	<circle id="XMLID_48_" class="st0" cx="501.6" cy="520.2" r="3.9"/>
	<circle id="XMLID_47_" class="st0" cx="670.9" cy="520.2" r="3.9"/>
	<g id="XMLID_102_">
		<rect id="XMLID_46_" x="401.2" y="525" class="st0" width="29.4" height="2.9"/>
		<path id="XMLID_45_" class="st0" d="M411.1,506.8c0,0,1.1-4.6,1.3-5.5c0.2-0.9,0.8-1,1.4-1h0.7c0.3,0,0.8,0.1,1.1,0.4
			c0.1,0.2,0.2,0.4,0.1,0.9c-0.4,1.5-1.4,5.2-1.4,5.2l-0.1,0.2l-3.4,0.2L411.1,506.8z"/>
		<path id="XMLID_104_" class="st0" d="M406.1,538.2c-3.5,0-5.5-2-5.5-5.6v-21.7c0-3.1,2.4-5.5,5.6-5.5h19.9c3.6,0,6.1,2.4,6.1,5.8
			v21.4c0,2.6-1.4,5.6-5.2,5.6H406.1z M407,508.4c-1.7,0-2.9,1.2-2.9,3.1l0,21.5c0,1.2,0.9,2.1,2.1,2.1h20.3c1.6,0,2.4-1.3,2.4-2.5
			l0-21.3c0-1.7-1.1-2.8-2.8-2.8L407,508.4z"/>
		<rect id="XMLID_42_" x="401.2" y="515.4" class="st0" width="29.4" height="2.9"/>
	</g>
	<g id="XMLID_96_">
		<rect id="XMLID_41_" x="570.8" y="521" class="st0" width="30.4" height="3"/>
		<path id="XMLID_40_" class="st0" d="M584.4,501.3c0-0.6,0.4-1,1-1h1.4c0.6,0,1,0.4,1,1v34.9l-3.4,1.5V501.3z"/>
		<path id="XMLID_97_" class="st0" d="M574.3,538.1c-2.4,0-5.3-1.5-5.3-5.7v-19.8c0-2.5,2.3-5.2,5.3-5.2h22.3c3.6,0,6.1,2.2,6.1,5.3
			c0,2.3,0,19.9,0,19.9c0,2.7-1.5,5.5-4.9,5.5H574.3z M575,510.5c-1.5,0-2.4,1.4-2.4,2.8l0,19.6c0,1.2,1,2.3,2.1,2.3H597
			c0.7,0,2.2-0.2,2.2-2.4c0-3.6,0-19.9,0-19.9c0-1.5-1.4-2.4-2.7-2.4L575,510.5z"/>
	</g>
	<g id="XMLID_89_">
		<path id="XMLID_37_" class="st0" d="M742.3,538.6c-0.6,0-1-0.4-1-1v-16.3h2.4c0.7,0,1,0.4,1,1.2v15.2c0,0.6-0.4,1-1,1H742.3z"/>
		<path id="XMLID_36_" class="st0" d="M753.7,505.3c-0.5,0-1-0.5-1-1.1v-0.7c0-0.5,0.5-1.1,1-1.1H772c0.8,0,1.2,0.7,1.2,1.2v0.6
			c0,0.7-0.5,1.1-1.2,1.1H753.7z"/>
		<path id="XMLID_35_" class="st0" d="M751.1,517.3c-0.5,0-1-0.5-1-1.1v-0.8c0-0.5,0.5-1.1,1-1.1h22.9c0.8,0,1.2,0.7,1.2,1.2v0.6
			c0,0.7-0.5,1.1-1.2,1.1H751.1z"/>
		<path id="XMLID_34_" class="st0" d="M737.4,513.2c-0.5,0-0.9-0.2-1.1-0.6c-0.2-0.3-0.3-0.7-0.2-1c0.1-0.3,0.2-0.5,0.5-0.7
			c3.6-2.3,6.7-5.6,8.1-8.7c0.2-0.5,0.6-0.7,1.1-0.7l1.6,0c0.3,0,0.5,0.1,0.7,0.3c0.2,0.3,0.2,0.7,0,1c-1.9,4.1-5.8,8.1-9.9,10.1
			C738,513.2,737.7,513.2,737.4,513.2z"/>
		<path id="XMLID_33_" class="st0" d="M736.9,525.2c-0.5,0-0.9-0.2-1.1-0.6c-0.2-0.3-0.2-0.6-0.2-0.9c0.1-0.3,0.2-0.6,0.5-0.7
			c3.7-2.4,7.1-6.3,8.9-10.2c0.2-0.5,0.6-0.7,1.1-0.7l1.7,0c0.3,0,0.5,0.1,0.7,0.4c0.2,0.3,0.2,0.7,0,1c-2.6,5.2-6.3,9.2-10.7,11.5
			C737.5,525.1,737.1,525.2,736.9,525.2z"/>
		<path id="XMLID_32_" class="st0" d="M758.8,539.1c-0.4,0-1-0.4-1-1l0-0.6c0-0.6,0.4-0.9,0.9-1c1.3,0,2.8-0.3,4.2-0.7
			c1.8-0.5,2.1-2.2,2.1-3.9v-15.7l3.5-0.7v16.6c0,3.6-1.4,5.8-4,6.3c-1.5,0.3-2.9,0.5-5,0.5C759.3,539.1,759,539.1,758.8,539.1z"/>
	</g>
	<g id="XMLID_79_">
		<path id="XMLID_31_" class="st0" d="M399,460.8c-1.1,0-2.3-0.8-2.3-2.3c0-0.7,0-2.4,0-2.4c0-1.2,0.9-2.1,2.1-2.1
			c20-0.4,31.4-2.1,44.4-4.8l0.2,0l2.7,5.7l-0.3,0.1C431.5,458.1,420.3,459.9,399,460.8L399,460.8z"/>
		<path id="XMLID_85_" class="st0" d="M410,430.8c-5.9,0-9.3-3.3-9.3-9.1l0-25.4c0-5,3.4-8,9-8c2.2,0,27.6,0,27.6,0
			c4.8,0,7.5,3.9,7.5,7.5v26.6c0,5.5-3.3,8.4-9.6,8.4H410z M411.5,394.5c-2.4,0-3.6,1-3.6,3.1c0,0,0,19.9,0,23.1c0,3.1,0.9,4,4,4h22
			c2.3,0,3.2-0.9,3.2-3.1v-23.6c0-2.2-1-3.4-2.9-3.4H411.5z"/>
		<path id="XMLID_28_" class="st0" d="M418.9,372.9c0-1.3,0.9-2.6,2.6-2.6h2.6c1.6,0,2.5,1.6,2.5,2.7v80.5l-7.6,3.3V372.9z"/>
		<path id="XMLID_27_" class="st0" d="M445.4,465.2c-1.2,0-2-0.7-2.3-2.3c-2.2-10.6-3.7-16-6.8-23.9c-0.3-0.8-0.3-1.5-0.1-2.1
			c0.2-0.5,0.6-0.9,1.2-1.1l1.1-0.5c0.4-0.1,0.7-0.2,1-0.2c0.9,0,1.7,0.5,2.1,1.5c3.4,7.2,6.2,15.1,8.3,24.2
			c0.3,1.3,0.5,3.1-1.4,3.7l-2.1,0.5C446.2,465.2,445.8,465.2,445.4,465.2z"/>
		<path id="XMLID_26_" class="st0" d="M453.2,449.2c-1.3,0-2.6-1-2.6-2.5v-1.9c0-1.5,1.3-2.4,2.6-2.4h38.6c2.2,0,3.1,1.7,3.1,2.6
			v1.6c0,1.6-1.3,2.7-3.1,2.7H453.2z"/>
		<path id="XMLID_25_" class="st0" d="M485,422.8l0-0.3c0-0.2,1.2-15.6,2.3-34.5c0.2-3-0.5-5.4-2.1-7c-1.6-1.7-4-2.5-7.2-2.5h-26.9
			c-1.7,0-2.8-1.2-2.8-2.5v-1.7c0-0.7,0.6-2.3,2.6-2.3H481c4.4,0,8.1,1.4,10.7,4.1c2.6,2.8,3.9,6.8,3.7,11.4l-2.3,35.3H485z"/>
		<path id="XMLID_24_" class="st0" d="M483.7,474.6c-2.4,0-4.4-0.1-4.7-0.1c-1.8-0.1-2.4-1.3-2.4-2.4l0-1.3c0-0.8,0.3-2.2,2.6-2.2
			c2.2,0,6.1-0.3,10.2-1.1c8.8-1.7,9.3-7.7,9.8-13.5l0.4-18c0.1-3.2-0.8-6-2.5-7.7c-1.6-1.6-3.7-2.4-6.5-2.4l-27.3,0
			c-3.2,0-5.6-0.9-7.3-2.7c-1.9-2-2.7-5.2-2.4-9.4c0.3-3.7,0.6-9.8,0.9-15.2c0.2-3.1,0.3-6.1,0.5-8.3c0.1-1.8,1.2-2.9,2.7-2.9l2.5,0
			c0.7,0,1.4,0.3,1.9,0.8c0.4,0.4,0.8,1.2,0.7,2.6c-0.2,3.1-0.5,7.4-0.8,11.6c-0.2,3.5-0.4,6.9-0.6,9.6c-0.2,3.1,0.1,5.1,1,6.1
			c0.7,0.8,1.9,1.1,3.9,1.1l25.8,0c4.7,0,9.1,1.8,12.1,4.8c2.7,2.8,4.1,6.6,3.9,10.9l-0.5,19.8c-0.6,10.8-3.7,17.9-17.3,19.5
			C488.5,474.5,486.3,474.6,483.7,474.6z"/>
	</g>
	<g id="XMLID_65_">
		<path id="XMLID_76_" class="st0" d="M545,430.2c-5.9,0-9.2-3.3-9.2-9.1c0,0,0-21.5,0-25.4c0-5,3.4-8,9-8c2.2,0,25.1,0,25.1,0
			c4.8,0,7.5,3.9,7.5,7.5v26.7c0,5.5-3.3,8.4-9.6,8.4H545z M546.3,393.9c-2.4,0-3.6,1-3.6,3.1c0,1.2,0,21.5,0,23.2c0,3.1,0.9,4,4,4
			h20.1c2.3,0,3.2-0.9,3.2-3.1v-23.6c0-2.2-1-3.4-2.9-3.4H546.3z"/>
		<path id="XMLID_21_" class="st0" d="M552.7,455.6v-83.8c0-1.3,0.9-2.6,2.6-2.6h2.2c1.6,0,2.5,1.6,2.5,2.7v84.4L552.7,455.6z"/>
		<path id="XMLID_20_" class="st0" d="M578.1,464.2c-1.3,0-2-0.8-2.3-2.3c-1.8-9.5-3.1-15.2-6.3-24c-0.3-0.8-0.3-1.5,0-2.1
			c0.2-0.5,0.7-0.9,1.2-1.1l0.9-0.4c0.4-0.1,0.7-0.2,1-0.2c1,0,1.7,0.5,2.2,1.6c3.1,6.9,5.6,14.6,7.7,24.3c0.3,1.3,0.4,3.1-1.5,3.7
			l-1.8,0.4C578.9,464.1,578.5,464.2,578.1,464.2z"/>
		<path id="XMLID_19_" class="st0" d="M532.1,459.7c-1.1,0-2.3-0.8-2.3-2.3c0-0.7,0-2.4,0-2.4c0-1.2,0.9-2.1,2.1-2.1
			c20.2-0.4,31.6-2.1,44.4-4.8l0.2,0l2.8,5.6l-0.3,0.1C564.5,457,553.3,458.8,532.1,459.7L532.1,459.7z"/>
		<path id="XMLID_18_" class="st0" d="M588,427.5c-1.3,0-2.4-1-2.4-2.3v-1.9c0-1.1,1.1-2.1,2.4-2.1h54.1c2.2,0,3,1.5,3,2.4v1.5
			c0,1.5-1.1,2.4-3,2.4H588z"/>
		<path id="XMLID_17_" class="st0" d="M613.6,475.2c-1.7,0-2.8-1.2-2.8-3.1v-56.7c0-1.4,1.1-2.6,2.4-2.6h2.8c1.2,0,2.6,1.1,2.6,2.5
			V472c0,2.3-1.6,3.1-2.6,3.1H613.6z"/>
		<path id="XMLID_16_" class="st0" d="M585.7,459.2c-1.3,0-2.4-1-2.4-2.3v-2.1c0-1.1,1.1-2.1,2.4-2.1h59c2.2,0,3,1.5,3,2.4v1.6
			c0,1.5-1.1,2.4-3,2.4H585.7z"/>
		<path id="XMLID_15_" class="st0" d="M591.3,443.1c-1.3,0-2.4-1-2.4-2.2v-2c0-1.1,1.1-2,2.3-2h48c2.1,0,2.9,1.4,2.9,2.3v1.6
			c0,1.5-1,2.3-2.9,2.3H591.3z"/>
		<path id="XMLID_14_" class="st0" d="M583.2,414.9c-1.2,0-2.6-0.5-2.9-2.1c-0.4-2.1,0.8-3.2,2-3.4c22.4-4.9,38.5-11,49.1-26.5
			c0.8-1.1,1-2,0.7-2.6c-0.3-0.5-1-0.8-2-0.8l-36.6,0l3.4-6.1h0.2c0,0,32.3,0.1,36.1,0.1c3.3,0,5.8,1.2,7,3.4c1.2,2.3,0.9,5.3-0.9,8
			c-13.2,20.2-32,25.4-55.3,30C583.6,414.9,583.4,414.9,583.2,414.9z"/>
		<path id="XMLID_13_" class="st0" d="M586.8,390.7c-0.7,0-1.3-0.2-1.9-0.7c-0.9-0.8-1.1-2.5-0.3-3.4c6.2-7.3,8-9.8,10.5-18
			c0.2-0.6,1.1-1.8,2.3-1.8l3.9,0c0.6,0,1.1,0.3,1.5,0.7c0.3,0.5,0.4,1.1,0.2,1.7c-3.5,9.8-8.3,16.8-14.4,20.9
			C588.4,390.2,587.7,390.7,586.8,390.7z"/>
		<path id="XMLID_12_" class="st0" d="M647,415.5c-0.2,0-0.4,0-0.7-0.1c-24.7-4.3-37.9-10.9-50.3-24.9c-0.8-0.9-0.8-2.5,0.3-3.7
			c0.5-0.5,1.2-0.8,1.9-0.8c0.7,0,1.4,0.3,1.9,0.7c15.6,14.8,26.1,17.9,48.2,21.9c0.3,0.1,0.9,0.2,1.2,0.8c0.3,0.4,0.3,1,0.2,1.6
			l-0.8,3.1C648.8,415,648.1,415.5,647,415.5z"/>
	</g>
	<g id="XMLID_54_">
		<path id="XMLID_62_" class="st0" d="M696.6,423.6c-6,0-8.7-4-8.7-7.8l0-7.2c0-4.4,3.6-7.9,8.2-7.9c2.8,0,55.9,0,55.9,0
			c5.3,0,8.5,4,8.5,7.8v5.5c0,6-3.3,9.5-8.9,9.5H696.6z M698.3,407.1c-1.8,0-2.6,1.1-2.6,2.2v5.2c0,1.9,0.8,2.7,2.8,2.7h51.2
			c1.9,0,2.6-1.7,2.6-3.3v-4.1c0-1.1-1-2.7-2.7-2.7L698.3,407.1z"/>
		<path id="XMLID_9_" class="st0" d="M679.6,399.4c-1.6,0-2.5-0.6-2.7-1.9c-0.1-0.8,0-1.4,0.3-2c0.4-0.6,1.1-1,2-1.2
			c14-2.7,22.4-4.8,32.4-9.7c0.6-0.3,1.4-0.7,2.2-0.7c0.6,0,1,0.2,1.4,0.6l1.6,2.5c0.3,0.5,0.4,1,0.3,1.4c-0.3,1-1.4,1.6-1.9,1.8
			c-11.4,5-21.5,7.6-34.8,9C680.1,399.4,679.9,399.4,679.6,399.4z"/>
		<path id="XMLID_8_" class="st0" d="M768.6,399.5c-0.1,0-0.2,0-0.3,0c-13.3-1.7-23.8-3.9-35-9.2c-0.8-0.4-1.7-1-1.9-1.8
			c-0.1-0.5,0-0.9,0.3-1.4l1.6-2.5c0.3-0.4,0.8-0.7,1.4-0.7c0.8,0,1.6,0.4,2.1,0.7c10.2,5,20.3,8,32.7,9.8c1.1,0.2,2.4,1.3,2.2,3
			C771.4,399.1,769.6,399.5,768.6,399.5C768.6,399.5,768.6,399.5,768.6,399.5z"/>
		<path id="XMLID_7_" class="st0" d="M770.6,390.8c-1.5,0-3.2-1-3.2-3v-0.5c0-4-2.5-6.1-7-6.1h-72.4c-3.8,0-5.9,2.1-5.9,5.9v0.6
			c0,1.7-1.3,2.9-3.2,2.9l-1.4,0c-1.2,0-3.1-0.9-3.1-3V385c0-5.9,4.4-10,10.7-10h78.6c7.3,0,11.6,3.9,11.6,10.4v2.3
			c0,1.5-1.1,3-3.3,3L770.6,390.8z"/>
		<path id="XMLID_6_" class="st0" d="M747.4,476.4c-1,0-2.5-0.7-2.5-2.2v-1.4c0-1.2,0.8-2,2.2-2.1c4.3-0.4,8.8-0.8,11.9-1.9
			c5.7-1.9,6.4-6.5,6.4-11.2v-11.3c0-4.6-3.4-8.1-7.9-8.1c0,0-64.2,0-66.7,0c-4,0-8,2.4-8,7.7v26.2c0,1.2-1,3-3,3h-2.1
			c-1.4,0-2.9-1.1-2.9-3.1v-26c0-5.4,1.9-14.5,14.7-14.5h70.8c8.7,0,13.3,6.9,13.3,13.4v13.2c0,9.5-3.2,14.5-10.8,16.5
			c-4.1,1.1-8.7,1.6-15.1,1.6L747.4,476.4z"/>
		<path id="XMLID_5_" class="st0" d="M693.2,463.1c-1.2,0-2.1-0.6-2.5-1.9c-0.3-0.8-0.2-1.6,0.1-2.2c0.4-0.7,1-1.1,1.5-1.3
			c21.6-6.8,27.2-12.6,27.2-28.2v-8.7h8l-0.1,8.2c0,19.2-9,28.4-33.3,34C693.8,463.1,693.5,463.1,693.2,463.1z"/>
		<path id="XMLID_4_" class="st0" d="M754.5,464.2c-0.5,0-1.2-0.2-1.7-0.5c-9.5-6.4-14.8-9.2-24-13.3c-1.1-0.5-1.9-1.8-1.3-3.4
			c0.6-1.4,2.1-1.6,2.7-1.6c0.3,0,0.6,0,0.9,0.1c10.2,3.3,15.7,5.8,25.8,11.6c1,0.6,1.9,1.8,1,3.3l-1.8,2.8
			C755.8,463.8,755.2,464.2,754.5,464.2z"/>
		<path id="XMLID_3_" class="st0" d="M721.2,377.9l-0.1-0.2c0,0-0.8-3.2-1.7-8c-0.1-0.7,0-1.3,0.4-1.8c0.4-0.5,1.2-0.8,2.2-0.8h2.7
			c1.5,0,2.6,0.4,2.9,2.2c0.6,3.1,1.6,8.6,1.6,8.7l0.1,0.3L721.2,377.9z"/>
	</g>
	<g id="XMLID_51_">
		<path id="XMLID_2_" class="st1" d="M327.7,495.5c-4.9,0-8.9-4-8.9-8.9v-91.2c0-5.5-3-10-8-12.2c-1.8-0.8-3.6-1.1-5.4-1.1
			c-3.3,0-6.4,1.3-9,3.7l-40.1,37.7c-5.8,5.4-13.3,8.4-21.2,8.4c-7.9,0-15.5-3-21.2-8.4l-40.1-37.7c-2.6-2.4-5.7-3.7-9-3.7
			c-1.8,0-3.6,0.4-5.4,1.1c-5,2.2-8,6.7-8,12.2v91.2c0,4.9-4,8.9-8.9,8.9s-8.9-4-8.9-8.9v-91.2c0-12.6,7.2-23.5,18.7-28.5
			c4-1.7,8.2-2.6,12.5-2.6c7.8,0,15.3,3,21.1,8.5l40.1,37.7c2.5,2.3,5.7,3.6,9.1,3.6c3.4,0,6.6-1.3,9.1-3.6l40.1-37.7
			c5.8-5.5,13.3-8.5,21.1-8.5c4.3,0,8.4,0.9,12.5,2.6c11.5,5,18.7,15.9,18.7,28.5v91.2C336.6,491.6,332.6,495.5,327.7,495.5z"/>
		<path id="XMLID_1_" class="st0" d="M235.6,542c-55.6,0-93.1-13.3-94.7-13.9c-2.2-0.8-4-2.4-5-4.6c-1-2.1-1.1-4.5-0.3-6.8
			c1.3-3.5,4.6-5.8,8.3-5.8c1,0,2,0.2,3,0.5c0.4,0.1,36.6,12.8,88.6,12.8c57.1,0,86.8-12.5,87.1-12.6c1.1-0.5,2.3-0.7,3.5-0.7
			c3.5,0,6.7,2.1,8.1,5.3c1.9,4.5-0.1,9.7-4.5,11.6C328.5,528.5,297,542,235.6,542z"/>
	</g>
</g>
</svg>
