<?xml version="1.0" encoding="utf-8"?>
<!-- Generator: Adobe Illustrator 19.0.0, SVG Export Plug-In . SVG Version: 6.00 Build 0)  -->
<svg version="1.1" id="Layer_1" xmlns="http://www.w3.org/2000/svg" xmlns:xlink="http://www.w3.org/1999/xlink" x="0px" y="0px"
	 viewBox="-799 381 320 320" style="enable-background:new -799 381 320 320;" xml:space="preserve">
<style type="text/css">
	.st0{fill:#66B839;}
	.st1{fill:#FFFFFF;}
</style>
<g id="XMLID_259_">
	<g id="XMLID_126_">
		<path id="XMLID_104_" class="st0" d="M-587.1,467.1h-104.8c-12.8,0-23.1,10.5-23.1,23.1V595c0,12.8,10.5,23.1,23.1,23.1h104.8
			c12.8,0,23.1-10.5,23.1-23.1V490.2C-564,477.6-574.2,467.1-587.1,467.1z"/>
	</g>
	<g id="XMLID_106_">
		<path id="XMLID_123_" class="st1" d="M-607.1,559.7c0,0.3,0.3,0.3,0.5,0.5c1.2,1,2.2,2.1,3.1,3.5c0.5,0.6,0.7,0.7,1.4,0.3
			c1.6-1,3.6-2,5.2-3c0.6-0.3,1.2-0.5,1.6,0c2.4,1.5,4.9,3,7.2,4.4c0.5,0.3,0.7,0.1,0.9-0.3c0.6-1.5,1.4-2.7,2.1-4.1
			c0.3-0.6,0.3-0.9-0.3-1.4c-1.6-0.9-3.4-2.1-5-3c-0.6-0.3-0.6-0.6-0.1-1c0.5-0.5,0.9-0.9,1.4-1.5c1.5-1.6,2.9-3.5,3.7-5.5
			c0.1-0.5,0.3-0.7,0-1.2c-0.5-0.6-0.9-1.4-1.4-2c-0.1-0.3-0.5-0.5-0.7-0.5c-6,0-12.2,0.1-18.2-0.1c-0.5,0-0.6,0.1-0.6,0.6
			c0,1.5,0,2.9,0,4.4c0,0.5,0.1,0.6,0.7,0.6c0.7,0,1.5-0.1,2.1-0.1c0.3,0,0.6-0.1,0.7,0.1c0.1,0.3-0.1,0.6-0.3,0.7
			c-0.6,0.9-1.4,1.6-2.1,2.4c-0.7,0.6-0.7,0.6,0.1,1c1.2,0.7,2.4,1.5,3.7,2.1c-1.5,1-3.1,1.9-4.9,2.2
			C-606.9,559.3-607.1,559.3-607.1,559.7z M-593.5,550.5c-0.7,1.2-1.5,2-2.4,2.9c-0.1,0.1-0.3,0.1-0.5,0c-1.5-0.9-3.1-1.6-4.6-2.9
			C-598.6,550.5-596.2,550.5-593.5,550.5z"/>
		<path id="XMLID_114_" class="st1" d="M-582.6,569.9c-1.9,0-3.7-0.3-5.6-0.5c-6-0.9-11.5-2.9-16.7-5.9c-0.1-0.1-0.5-0.1-0.5-0.3
			c0-0.6-0.5-0.6-0.7-0.9c-1.6-0.7-3.4-1.5-4.5-2.6c-0.6-0.6-1-0.5-1.5,0.1c-2.1,1.9-4.4,3.5-6.6,4.9c-5.7,3.6-12,5.7-18.6,7.2
			c0,0.1,0,0.3,0.1,0.3c1.5,1.5,2.7,3,3.9,4.9c0.3,0.5,0.6,0.3,1,0.1c1.5-0.7,3.4-1.4,4.9-2c0.9-0.5,0.9-0.5,0.9,0.6
			c0.1,4.6,0,9.4,0.1,14.1c0,0.9-0.3,1.5-1,1.9c-0.6,0.5-0.6,0.7-0.5,1.5c0.6,1.5,1.2,2.9,1.5,4.4c0.1,0.6,0.5,0.7,1,0.6
			c3-0.7,6-1.4,9.1-2c1.9-0.5,3.7-0.7,5.7-1.2c0.3-0.1,0.9,0,0.9-0.6c0.1-1.5,0.6-2.7,1.2-4.1c0.3-0.6,0.1-0.7-0.6-0.6
			c-3.5,0.6-7,1-10.5,1.5c-0.5,0-0.7,0-0.7-0.6c0-0.6,0-1.2,0-1.6c0-0.5,0.1-0.9,0.9-0.9c4.2,0,8.1,0,12.4,0c0.7,0,1.5,0,2.4,0
			c-0.3,1.4-0.7,2.4-1.4,3.6c-0.3,0.6-0.3,0.7,0.3,0.9c2.4,0.7,4.9,1.5,7.2,2.1c3.6,1.2,7.2,2.2,10.7,3.5c0.5,0.1,0.7,0.1,0.9-0.5
			c0.3-1.4,0.7-2.4,1.4-3.7c0.5-1,0.5-1-0.7-1.4c-1.2-0.5-2.2-0.7-3.6-1.2c0.7-0.9,1.6-1.5,2.4-2c0.3-0.3,0.3-0.5,0-0.6
			c-1.2-0.7-2.1-1.5-3-2.2c-0.5-0.5-0.9-0.9-1.4,0c-0.3-3.9-0.1-7.5-0.1-11.3c0-0.6,0.1-0.6,0.6-0.5c2.1,0.6,4.2,1,6.4,1.5
			c0.6,0.1,1,0.1,1.2-0.6c0.5-1.6,1.2-3.5,2-5C-581.8,570.1-582,569.9-582.6,569.9z M-622.4,572.9c1-0.5,1.9-1,2.9-1.5
			c2.7-1.4,5.2-2.9,7.9-4.4c0.6-0.3,1-0.3,1.5,0c2.1,1.4,4.4,2.6,6.6,3.7c1.6,0.9,3.5,1.5,5.1,2.2c-2,0-4.2-0.1-6.2,0
			c-1.5,0.1-2.6-0.3-3.1-1.6c-0.5-1-1.4-2-1.9-3c-0.1-0.3-0.5-0.5-0.7-0.1c-1.4,0.7-2.7,1.4-4.2,1.6c-0.5,0.1-0.6,0.5-0.3,0.9
			c0.5,0.7,0.9,1.5,1.4,2.2C-616.4,573.1-619.4,573.1-622.4,572.9C-622.3,572.9-622.3,572.9-622.4,572.9z M-598.3,578.3
			c0,0.6,0,0.9-0.7,0.9c-3.5,0-7,0-10.5,0s-7,0-10.5,0c-0.7,0-0.7-0.3-0.7-0.9c0-0.6,0.1-0.7,0.7-0.7c7,0,13.7,0,20.7,0
			C-598.6,577.7-598.3,577.8-598.3,578.3z M-619.8,584.1c-0.6,0-0.7-0.3-0.7-0.7c0-0.6,0.1-0.7,0.7-0.7c3.5,0,7,0,10.5,0l0,0
			c3.5,0,7,0,10.2,0c0.6,0,0.9,0.1,0.9,0.7c0,0.7-0.3,0.7-0.9,0.7C-606.2,584.1-612.8,584.1-619.8,584.1z M-595.2,589.5
			c-0.6,0.5-1.2,0.5-1.9,0.1c-1.4-0.5-2.6-0.9-3.9-1.4c2.2,0,4.4,0,7,0C-594.5,588.8-595,589.3-595.2,589.5z"/>
		<path id="XMLID_108_" class="st1" d="M-636.1,557.7c1.5,0.7,2.7,1.5,4.1,2.4c0.3,0.3,0.6,0.3,0.9-0.1c0.9-1.4,1.5-2.4,2.4-3.7
			c0.1-0.3,0.3-0.5,0.6-0.5c0.7,0,1.4,0,2,0c0.6,0,0.5,0.3,0.1,0.6c-0.6,0.7-1.5,1.2-2.1,1.5c-1.5,1-1.5,1-0.3,2.2
			c0.9,1,0.9,1-0.5,1.5c0,0,0,0-0.1,0c-2.2,1-4.5,1.5-7.2,2.1c1.4,1.6,2.6,3.4,3.4,5.1c0.1,0.5,0.3,0.1,0.6,0.1
			c3.1-1.2,6.4-2.6,9.4-4.1c4.9-2.4,9.4-5.1,13.1-9.2c1.2-1.4,2-2.2,1-4.1v-0.1c-0.1-0.6-0.5-0.6-0.9-0.6c-2,0-3.9,0-5.9,0
			c-0.6,0-0.7-0.1-0.7-0.7c0-0.6,0.1-0.7,0.7-0.7c2.2,0,4.5,0,7,0.1c0.7,0,0.9-0.1,0.9-0.9c0-1.2,0-2.4,0-3.6c0-0.6-0.1-0.9-0.7-0.7
			c-2.2,0.1-4.4,0.1-6.7,0.1c-1,0-1,0-0.9-1c0.1-0.7-0.1-0.7-0.7-0.7c-1.6,0-3.5,0-5.1,0c-0.6,0-0.7,0.1-0.7,0.7
			c0.1,1.9,0.1,3.7,0.1,5.5c0,1.9,0,1.9-1.9,1.9c-0.7,0-0.9-0.1-0.5-0.7c0.5-0.6,0.1-0.7-0.5-0.9c-1-0.3-2-0.6-3-1.2
			c-0.5-0.3-1-0.6-1.5-0.9s-0.6-0.3-0.7,0.3c-0.1,0.7-0.3,1-0.6,1.5c-1.2,2.7-2.9,5.1-4.6,7.4C-636.6,557.2-636.8,557.6-636.1,557.7
			z M-618.4,555.8c-1.4,1-2.4,1.9-3.7,2.6c-0.3,0.1-0.5,0.1-0.6-0.1c-0.7-0.9-1.5-1.5-2.1-2.6C-622.8,555.8-620.7,555.8-618.4,555.8
			z"/>
		<path id="XMLID_91_" class="st1" d="M-627.8,532.5c-2.6,0.6-5.2,0.7-8,0.9c-0.9,0-0.9,0-0.5,0.7c0.9,1.6,2,3.4,2.6,5.2
			c0.1,0.5,0.5,0.3,0.7,0.3c2.9-0.3,5.7-0.9,8.6-1.6c3.5-1,6.7-2.4,9.6-4.5c1.6-1.4,3.4-2.9,4.5-4.6c0.6-0.9,0.6-0.9,1.4,0
			c0.6,0.6,1,1.4,1.5,1.9c2.2,2.4,4.6,4.5,7.7,6c4.2,1.9,8.6,2.9,13.1,3.7c0.5,0.1,0.6,0,0.7-0.5c0.5-2,1.5-3.6,2.7-5.1
			c0.3-0.5,0.3-0.6-0.3-0.7c-4.6-0.6-9.2-1.5-13.6-3.4c-1.6-0.7-3.5-1.5-4.6-3c-0.6-0.6-1.2-1.4-1.6-1.9c-0.3-0.3-0.7-0.6-0.6-0.9
			c0.1-0.3,0.7-0.1,1-0.1c6,0,12-0.1,18,0.1c0.7,0,0.9-0.1,0.9-0.9c0-1.5,0-2.9,0-4.4c0-0.9-0.3-1-1-0.9c-6.4,0.3-12.7,0.1-19.2,0.1
			c-0.6,0-1.2,0-1.9,0c-0.5,0-0.6-0.1-0.6-0.6c0.1-0.6,0.3-1.2,0.5-1.5c0.1-0.6,0-0.9-0.6-0.9c-0.5,0-0.9-0.1-1.5-0.5
			c1.5,0,3.1,0,4.5,0c6.5,0,13-0.1,19.3,0.1c0.6,0,0.9-0.1,0.9-0.7c0-1.5,0-3.1,0-4.6c0-0.5-0.1-0.7-0.7-0.7c-0.9,0-1.6,0.1-2.6,0.1
			c-6,0.1-12,0-18,0c-2,0-2,0-2-2c0-0.9,0.1-1,1-1c4.9,0,9.6,0,14.5,0.3c0.6,0,0.9-0.1,0.9-0.7c0-1.5,0-2.7,0-4.2c0-1.2,0-1.2-1-1
			c-4.4,0.3-8.7,0.1-13.2,0.1c-2,0-2,0-2-2c0-1.2,0-1.2,1.2-1.2c6.6,0,13.2,0,19.7,0.1c0.7,0,0.9-0.1,0.9-0.9c0-1.4,0-2.7,0-4.1
			c0-1.5,0.1-1.2-1.2-1.2c-4.1,0.1-7.9,0.1-12,0.1c-0.1,0-0.3,0.1-0.5-0.1c0-0.1,0-0.1,0.1-0.3c0.9-1.4,1.6-2.7,2.7-4.1
			c0.3-0.5,0.5-0.7-0.3-0.9c-1.6-0.7-3.6-1.5-5.2-2.2c-0.3-0.1-0.6-0.1-0.7,0.3c-0.9,2.1-2.1,4.1-3.7,5.7c-0.3,0.3-0.5,0.6,0.1,0.7
			c0.5,0.1,0.9,0.5,1.4,0.7c-4.4,0-8.7,0-13,0v-0.1c0.5-0.1,0.7-0.5,1.2-0.6c0.6-0.1,0.6-0.5,0.3-0.9c-1.4-1.9-2.6-3.7-3.7-5.6
			c-0.3-0.5-0.6-0.5-0.9-0.1c-1.5,1-3,1.5-4.6,2c-0.6,0.1-0.6,0.5-0.3,0.7c0.3,0.5,0.7,0.9,1,1.4c0.7,1,1.5,2,1.9,3.4
			c-0.5,0-0.7,0-1.2,0c-3.7,0-7.6,0-11.3-0.1c-0.6,0-0.7,0.1-0.7,0.7c0,1.5,0,3,0,4.4c0,0.8,0.1,0.9,0.9,0.9
			c3.9-0.1,7.9-0.3,11.7-0.1c2.7,0,5.5,0,8.2,0c0.7,0,1,0.1,0.9,0.9c0,0.5,0,1,0,1.5c0,0.7-0.1,0.9-0.9,0.9c-4.9,0-9.6,0.1-14.5-0.1
			c-0.7,0-0.9,0.1-0.9,0.9c0,1.5,0,2.7,0,4.2c0,0.7,0.3,0.7,0.9,0.7c4.4,0,8.9,0,13.2,0.1c2,0,2,0,2,2c0,1,0,1-1,1
			c-7,0-13.9,0.1-20.8-0.1c-0.6,0-0.9,0.1-0.9,0.9c0,1.5,0,3,0,4.4c0,0.7,0.1,0.9,0.9,0.9c4.4-0.1,8.7-0.3,13.1-0.1
			c2.7,0,5.5,0,8.2,0c0.6,0,0.9,0.1,0.7,0.7c-0.1,0.7-0.1,1.4-0.1,2s-0.5,0.9-1.2,0.9c-6.6,0-13.2,0.1-20-0.1c-0.7,0-1,0.1-1,1
			c0,1.5,0,2.9,0,4.4c0,0.6,0.1,0.9,0.9,0.7c3.1-0.1,6.4-0.1,9.5-0.1c2.7,0,5.2,0,8,0c0.5,0,1-0.3,1.2,0.1c0.1,0.5-0.3,0.7-0.6,1.2
			C-619.4,529.4-623.4,531.4-627.8,532.5z"/>
	</g>
</g>
</svg>
