<?xml version="1.0" encoding="utf-8"?>
<!-- Generator: Adobe Illustrator 19.0.0, SVG Export Plug-In . SVG Version: 6.00 Build 0)  -->
<svg version="1.1" id="Layer_1" xmlns="http://www.w3.org/2000/svg" xmlns:xlink="http://www.w3.org/1999/xlink" x="0px" y="0px"
	 viewBox="-799 381 320 320" style="enable-background:new -799 381 320 320;" xml:space="preserve">
<style type="text/css">
	.st0{fill:#E25947;}
	.st1{fill:#FFFFFF;}
	.st2{fill:#ED998D;}
	.st3{fill:#262830;}
	.st4{fill:none;}
	.st5{fill:#F8F7F8;}
	.st6{fill:#E9DEDE;}
	.st7{fill:#E2DDDE;}
	.st8{fill:#D6CED1;}
</style>
<g>
	<rect id="XMLID_87_" x="-721.7" y="465" class="st0" width="155.4" height="155.4"/>
	<g id="XMLID_117_">
		<g id="XMLID_118_">
			<path id="XMLID_119_" class="st1" d="M-690.7,581.3h-0.9c-0.1,0-0.1,0.1-0.1,0.1v0.8h-2.1c-0.1,0-0.1,0.1-0.1,0.1v0.9
				c0,0.1,0.1,0.1,0.1,0.1h1.4l-1.4,1.4c-0.1,0.1-0.1,0.1,0,0.1l0.6,0.6c0.1,0.1,0.1,0.1,0.1,0l1.3-1.4v1.7c0,0.1,0.1,0.1,0.1,0.1
				h0.9c0.1,0,0.1-0.1,0.1-0.1v-1.3l1.3,1.4c0.1,0.1,0.1,0.1,0.1,0l0.6-0.6c0.1-0.1,0.1-0.1,0-0.1l-1.4-1.4h1.4
				c0.1,0,0.1-0.1,0.1-0.1v-0.9c0-0.1-0.1-0.1-0.1-0.1h-2.1v-1C-690.6,581.4-690.7,581.3-690.7,581.3z M-684.3,581.3h-0.9
				c-0.1,0-0.1,0.1-0.1,0.1v0.8h-2.2c-0.1,0-0.1,0.1-0.1,0.1v0.9c0,0.1,0.1,0.1,0.1,0.1h1.4l-1.4,1.4c-0.1,0.1-0.1,0.1,0,0.1
				l0.6,0.6c0.1,0.1,0.1,0.1,0.1,0l1.3-1.4v1.7c0,0.1,0.1,0.1,0.1,0.1h0.9c0.1,0,0.1-0.1,0.1-0.1v-1.3l1.3,1.4
				c0.1,0.1,0.1,0.1,0.1,0l0.6-0.6c0.1-0.1,0.1-0.1,0-0.1l-1.4-1.4h1.4c0.1,0,0.1-0.1,0.1-0.1v-0.9c0-0.1-0.1-0.1-0.1-0.1h-2.1v-1
				C-684.1,581.4-684.1,581.3-684.3,581.3z M-681.4,591.4h-5.7v-0.9h5.3c0.1,0,0.1-0.1,0.1-0.1v-0.9c0-0.1-0.1-0.1-0.1-0.1h-5.3
				v-0.9h3.9c0.3,0,0.8-0.1,1-0.3l0.6-0.3c0.1,0,0.1-0.1,0.1-0.1l-0.5-0.8c-0.1-0.1-0.1-0.1-0.1-0.1l-0.1,0.1
				c-0.3,0.1-0.6,0.3-1,0.3h-9.6c-0.1,0-0.1,0.1-0.1,0.1v0.9c0,0.1,0.1,0.1,0.1,0.1h4.8v0.9h-5.6c0,0.8,0.6,1.4,1.4,1.4h4.1v0.9h-6
				c0,0.8,0.6,1.4,1.4,1.4h4.7v0.6c0,0.1-0.1,0.1-0.1,0.1h-2.1c-0.1,0-0.1,0.1-0.1,0.1v0.9c0,0.1,0.1,0.1,0.1,0.1h2.6
				c0.5,0,0.9-0.5,0.9-0.9v-1.4h5.7c0.1,0,0.1-0.1,0.1-0.1v-0.9C-681.3,591.4-681.3,591.4-681.4,591.4z M-681.4,579.9h-6.5V579
				c0-0.1-0.1-0.1-0.1-0.1h-0.9c-0.1,0-0.1,0.1-0.1,0.1v0.9h-6.2c-0.6,0-0.9,0.5-0.9,0.9v9.3c0,1-0.3,2.3-0.9,3.2l-0.3,0.6
				c0,0.1,0,0.1,0.1,0.1l0.8,0.5c0.1,0,0.1,0,0.1-0.1l0.8-1.7c0.3-0.9,0.5-1.8,0.5-2.8v-8.8c0-0.1,0.1-0.1,0.1-0.1h13.5
				c0.1,0,0.1-0.1,0.1-0.1v-1C-681.3,579.9-681.3,579.9-681.4,579.9z M-628.1,581c0.1,0.1,0.1,0.1,0.1,0l1-1c0.1-0.1,0.1-0.1,0-0.1
				l-0.6-0.6c-0.1-0.1-0.1-0.1-0.1,0l-1,1c-0.1,0.1-0.1,0.1,0,0.1L-628.1,581z M-634.5,581c0.1,0.1,0.1,0.1,0.1,0l0.6-0.6
				c0.1-0.1,0.1-0.1,0-0.1l-1-1c-0.1-0.1-0.1-0.1-0.1,0l-0.6,0.6c-0.1,0.1-0.1,0.1,0,0.1L-634.5,581z M-623.2,591.1h-7.5v-1.8h6
				c0.3,0,0.6-0.3,0.6-0.6v-6.5c0-0.3-0.3-0.6-0.6-0.6h-13c-0.3,0-0.6,0.3-0.6,0.6v6.5c0,0.3,0.3,0.6,0.6,0.6h5.7v1.8h-7.6
				c0,0.8,0.6,1.4,1.4,1.4h6.2v2.2c0,0.1,0.1,0.1,0.1,0.1h0.9c0.1,0,0.1-0.1,0.1-0.1v-2.2h7.5c0.1,0,0.1-0.1,0.1-0.1v-1
				C-622.9,591.3-623,591.1-623.2,591.1z M-630.5,582.7h4.9c0.1,0,0.1,0.1,0.1,0.1v1.7h-5.2v-1.8H-630.5z M-630.5,586h5.2v1.7
				c0,0.1-0.1,0.1-0.1,0.1h-4.9V586H-630.5z M-632,588h-4.8c-0.1,0-0.1-0.1-0.1-0.1v-1.7h5.2L-632,588L-632,588z M-632,584.7h-5.2
				V583c0-0.1,0.1-0.1,0.1-0.1h4.8v1.8C-632.2,584.7-632,584.7-632,584.7z M-663.2,581c0.3,0,0.6-0.1,0.9-0.1l1.3-0.6
				c0.1,0,0.1-0.1,0.1-0.1l-0.5-0.8c0-0.1-0.1-0.1-0.1-0.1l-0.9,0.5c-0.1,0.1-0.6,0.1-0.9,0.1h-4.8c-0.1,0-0.1,0.1-0.1,0.1v0.9
				c0,0.1,0.1,0.1,0.1,0.1h2.8h0.1v2.8h-0.1h-3.2c0,0.8,0.6,1.4,1.4,1.4h1.7h0.1v2.5c0,0.1,0,0.3,0,0.5l0,0h-3.2
				c0,0.8,0.6,1.4,1.4,1.4h1.4h0.1c-0.1,1-0.6,2.1-1.3,3.1l-0.9,1.4c-0.1,0.1,0,0.1,0.1,0.1l0.8,0.6c0.1,0.1,0.1,0,0.1-0.1l0.9-1.4
				c0.8-1,1.3-2.5,1.4-3.8h3c0.1,0,0.1-0.1,0.1-0.1v-0.9c0-0.1-0.1-0.1-0.1-0.1h-2.8c0-0.1,0-0.3,0-0.5v-2.5h2.8
				c0.1,0,0.1-0.1,0.1-0.1v-0.9c0-0.1-0.1-0.1-0.1-0.1h-2.8v-2.8L-663.2,581L-663.2,581z M-652.2,579.7h-8.3c0,0-0.1,0-0.1,0.1v1.3
				c0,0,0,0.1,0.1,0.1h3.4v2.1h-3.4c0,0-0.1,0-0.1,0.1v1.3c0,0,0,0.1,0.1,0.1h3.4v2.1h-3.4c0,0-0.1,0-0.1,0.1v1.3c0,0,0,0.1,0.1,0.1
				h3.4v2.1h-3.4c0,0-0.1,0-0.1,0.1v1.3c0,0,0,0.1,0.1,0.1h3.4v3.4c0,0.1,0.1,0.1,0.1,0.1h0.9c0.1,0,0.1-0.1,0.1-0.1v-3.4h3.2
				c0.1,0,0.1-0.1,0.1-0.1v-0.9c0-0.1-0.1-0.1-0.1-0.1h-3.2v-2.2h3.2c0.1,0,0.1-0.1,0.1-0.1v-0.9c0-0.1-0.1-0.1-0.1-0.1h-3.2v-2.1
				h3.2c0.1,0,0.1-0.1,0.1-0.1v-0.9c0-0.1-0.1-0.1-0.1-0.1h-3.2v-2.1h3.2c0.1,0,0.1-0.1,0.1-0.1v-0.9
				C-651.9,579.7-651.9,579.7-652.2,579.7z M-594.8,590.6h-6.7v-2.1v-0.6h4.8c0.1,0,0.1-0.1,0.1-0.1v-0.9c0-0.1-0.1-0.1-0.1-0.1
				h-4.8v-3c0-0.1-0.1-0.1-0.1-0.1h-0.9c-0.1,0-0.1,0.1-0.1,0.1v3h-4c0,0-0.1,0,0-0.1l2.8-4.1h8.7c0.1,0,0.1-0.1,0.1-0.1v-0.9
				c0-0.1-0.1-0.1-0.1-0.1h-7.8l1-1.7l-1-0.8l-1.7,2.5h-0.1h-4.9c0,0.8,0.6,1.4,1.4,1.4h2.8h0.1l-2.6,4c-0.1,0.5-0.1,0.9,0.1,1.4
				c0.1,0.1,0.5,0.1,0.6,0.1h4.7v0.5v2.1h-7.8c0,0.8,0.6,1.4,1.4,1.4h6.3v2.6c0,0.1,0.1,0.1,0.1,0.1h0.9c0.1,0,0.1-0.1,0.1-0.1v-2.6
				h6.7c0.1,0,0.1-0.1,0.1-0.1v-0.9C-594.7,590.7-594.7,590.6-594.8,590.6z"/>
		</g>
	</g>
	<g id="XMLID_89_">
		<path id="XMLID_72_" class="st2" d="M-644.8,540.9c0.6,0,0.9,0.5,0.9,1v7.6c0,0.6-0.5,1-0.9,1c-0.6,0-0.9-0.5-0.9-1v-7.6
			C-645.9,541.5-645.4,540.9-644.8,540.9z"/>
		<g id="XMLID_111_">
			<g id="XMLID_112_">
				<path id="XMLID_113_" class="st3" d="M-629,482.4c-1.8,0-3.8,0.3-5.4,0.9l0.5,0.9c0.6,0.8,1.6,1.8,2.5,2.1
					c0.9-0.1,1.7-0.3,2.6-0.3c6.9,0,12.3,5.6,12.3,12.4c0,0.9-0.1,1.7-0.1,2.5c0.1,0.5,0.9,1.7,2.1,2.5l0.9,0.5
					c0.6-1.7,0.9-3.4,0.9-5.3C-612.9,489.6-620,482.4-629,482.4z M-629,489.3c-0.9,0-2.1,0.1-2.8,0.5l0.1,0.6c0.6,0.9,1.7,2.3,3,2.8
					l0,0c2.6,0.1,4.8,2.3,4.9,5.2l0,0c0,0,1.3,2.3,3.2,3c0.1-0.9,0.5-1.7,0.5-2.6C-619.9,493.4-623.8,489.3-629,489.3z"/>
			</g>
		</g>
		<path id="XMLID_69_" class="st1" d="M-648.7,548.8c0,0,3.8,0,6.2,0c2.1,0,1.8,2.6,1.8,2.6s-3.6,0-6,0
			C-649.1,551.5-648.7,548.8-648.7,548.8z"/>
		<path id="XMLID_68_" class="st4" d="M-644.8,540.9c0.6,0,0.9,0.5,0.9,1v7.6c0,0.6-0.5,1-0.9,1c-0.6,0-0.9-0.5-0.9-1v-7.6
			C-645.7,541.5-645.3,540.9-644.8,540.9z"/>
		<path id="XMLID_67_" class="st5" d="M-611.4,536.9c-3-6.2-9.3-18.6-13.1-25.9l0,0l0,0c-1.7-3.4-2.8-5.6-2.8-5.6s-2.6-7.6-7.1-7.8
			l0,0h-9.6c0,0-0.1,5.4,4,5.4c1.6,0,4.8,0,5.4,0l0,0c0,0,0.9,0.3,2.8,4.4h0.1l0,0l1.7,3.6l-11.1,24.6c-0.8,1.3-2.1,2.8-3.6,3
			c-0.1,0-2.5,0-3,0l-17.4-33.8l-4.4,2.2l16.2,31.3c-7.9,0-19.4,0-25.1,0c-4.5,0-4.4,4.8-4.4,4.8h38.2c0,0,5.6,0.3,7.9-4.4l0,0
			l9.6-22.3L-614,543C-613.7,543.1-609.4,540.9-611.4,536.9z"/>
		<path id="XMLID_66_" class="st6" d="M-614.5,530.3c-0.9-1.7-1.8-3.8-2.8-5.6l-4.4,2.3l2.8,5.6L-614.5,530.3z"/>
		<path id="XMLID_65_" class="st7" d="M-669.4,507.3l2.6,4.9c0.6,0.1,1,0.1,1.7,0.1c1.4,0,2.6-0.1,3.6-0.6l-2.8-5.3
			c-0.3,0-0.6,0-0.9,0C-666.9,506.4-668.2,506.7-669.4,507.3z"/>
		<polygon id="XMLID_64_" class="st7" points="-626.9,516.7 -629.8,511.1 -632.2,516.3 -629.2,522.2 		"/>
		<path id="XMLID_63_" class="st7" d="M-651.9,540.9l-2.1-3.2l0.5,0.9c-7.9,0-19.4,0-25.1,0c-4.5,0-4.4,4.8-4.4,4.8h34.7
			C-650.1,542.7-651.4,541.5-651.9,540.9z"/>
		<path id="XMLID_62_" class="st8" d="M-663,540.9c0-0.9-0.1-1.7-0.1-2.5c-1.8,0-3.6,0-5.4,0c-0.1,0.8-0.1,1.6-0.1,2.5
			c0,0.8,0.1,1.6,0.1,2.2h5.4C-663,542.4-663,541.7-663,540.9z"/>
		<path id="XMLID_61_" class="st1" d="M-676,502.7c0,0,8.3,0,13.7,0c4.7,0,4.4,5.4,4.4,5.4s-8.5,0-14,0
			C-676.4,508.1-676,502.7-676,502.7z"/>
		<path id="XMLID_99_" class="st3" d="M-679.7,521.7c-11,0-19.9,8.8-19.9,19.9s8.9,19.9,19.9,19.9s19.8-8.9,19.8-19.9
			S-668.7,521.7-679.7,521.7z M-679.7,555.5c-7.6,0-13.9-6.2-13.9-13.9s6.2-13.9,13.9-13.9c7.6,0,13.9,6.2,13.9,13.9
			S-672.1,555.5-679.7,555.5z"/>
		<path id="XMLID_96_" class="st1" d="M-679.7,525.6c-8.8,0-16.1,7.1-16.1,16.1s7.1,16.1,16.1,16.1c8.9,0,15.9-7.3,15.9-16.1
			C-663.8,532.9-670.9,525.6-679.7,525.6z M-679.7,555.5c-7.6,0-13.9-6.2-13.9-13.9s6.2-13.9,13.9-13.9c7.6,0,13.9,6.2,13.9,13.9
			S-672.1,555.5-679.7,555.5z"/>
		<path id="XMLID_93_" class="st3" d="M-612.5,521.7c-11,0-19.9,8.8-19.9,19.9s8.9,19.9,19.9,19.9s19.9-8.8,19.9-19.9
			S-601.4,521.7-612.5,521.7z M-612.5,555.5c-7.6,0-13.9-6.2-13.9-13.9s6.2-13.9,13.9-13.9s13.9,6.2,13.9,13.9
			S-604.9,555.5-612.5,555.5z"/>
		<path id="XMLID_90_" class="st1" d="M-612.5,525.6c-8.8,0-16.1,7.1-16.1,16.1s7.3,16.1,16.1,16.1c8.8,0,16.1-7.1,16.1-16.1
			S-603.7,525.6-612.5,525.6z M-612.5,555.5c-7.6,0-13.9-6.2-13.9-13.9s6.2-13.9,13.9-13.9s13.9,6.2,13.9,13.9
			S-604.9,555.5-612.5,555.5z"/>
	</g>
</g>
</svg>
