<?xml version="1.0" encoding="utf-8"?>
<!-- Generator: Adobe Illustrator 19.0.0, SVG Export Plug-In . SVG Version: 6.00 Build 0)  -->
<svg version="1.1" id="图层_1" xmlns="http://www.w3.org/2000/svg" xmlns:xlink="http://www.w3.org/1999/xlink" x="0px" y="0px"
	 viewBox="-317 256 165 90" style="enable-background:new -317 256 165 90;" xml:space="preserve">
<style type="text/css">
	.st0{fill:#FFFFFF;}
	.st1{fill:#21BBEF;}
</style>
<title>黄太吉</title>
<rect id="_路径_" x="-317" y="256" class="st0" width="165" height="90"/>
<path class="st1" d="M-265.3,291.2h-22.3c-1.7,0-3,1.3-3,3v16.6h3.8v-15.5c0-0.5,0.4-0.9,0.9-0.9c0,0,0,0,0,0h8v16.4h3.8v-16.4h8
	c0.5,0,0.9,0.4,0.9,0.9l0,0v15.5h3.8v-16.7c0-1.7-1.3-3-3-3L-265.3,291.2L-265.3,291.2z"/>
<path class="st1" d="M-236.2,294.7v-3.5h-18c-1.9,0-3.5,1.6-3.5,3.5l0,0v12.6c0,1.9,1.6,3.5,3.5,3.5l0,0h18v-3.2h-15.9
	c-0.7,0-1.3-0.6-1.3-1.3l0,0V303h16.7v-3.8h-16.7V296c0-0.7,0.6-1.3,1.3-1.3l0,0L-236.2,294.7L-236.2,294.7z"/>
<rect x="-232.4" y="291.2" class="st1" width="4.3" height="19.6"/>
<path class="st1" d="M-205.4,291.2h-18.4v3.2h15.4c0.1,0,0.3,0.1,0.3,0.3c0,0.1,0,0.1-0.1,0.2l-15.8,12.6c-0.6,0.5-0.8,1.4-0.4,2.1
	l0.1,0.3c0.3,0.6,1,1,1.7,1h19.6v-3.2h-15.5c-0.1,0-0.3-0.1-0.3-0.3c0-0.1,0-0.2,0.1-0.2l14.7-12.3c0.7-0.6,0.8-1.6,0.3-2.3
	l-0.5-0.8C-204.6,291.4-205,291.2-205.4,291.2z"/>
<path class="st1" d="M-183,291.2v15.3c0,0.6-0.5,1.1-1.1,1.1l0,0h-10.5c-0.7,0-1.3-0.6-1.3-1.3v-15.1h-4.3v16.4
	c0,1.8,1.4,3.2,3.2,3.2h15.3c1.8,0,3.2-1.4,3.2-3.2v-16.4H-183z"/>
</svg>
