<?xml version="1.0" encoding="utf-8"?>
<!-- Generator: Adobe Illustrator 19.0.0, SVG Export Plug-In . SVG Version: 6.00 Build 0)  -->
<svg version="1.1" id="图层_1" xmlns="http://www.w3.org/2000/svg" xmlns:xlink="http://www.w3.org/1999/xlink" x="0px" y="0px"
	 viewBox="0 0 320 320" style="enable-background:new 0 0 320 320;" xml:space="preserve">
<style type="text/css">
	.st0{fill:url(#XMLID_219_);}
	.st1{fill:url(#XMLID_220_);}
	.st2{fill:url(#XMLID_221_);}
	.st3{fill:#0CB7E6;}
	.st4{fill:#A8A8A8;}
	.st5{fill:#111820;}
	.st6{fill:url(#XMLID_222_);}
	.st7{fill:url(#XMLID_223_);}
	.st8{fill:url(#XMLID_224_);}
	.st9{opacity:0.6;}
	.st10{fill:#FFFFFF;}
</style>
<g id="XMLID_117_">
	<g id="XMLID_172_">
		<g id="XMLID_178_">
			<linearGradient id="XMLID_219_" gradientUnits="userSpaceOnUse" x1="73.6802" y1="121.5401" x2="73.6802" y2="190.8897">
				<stop  offset="0" style="stop-color:#00FAE8"/>
				<stop  offset="1" style="stop-color:#0CB7E6"/>
			</linearGradient>
			<path id="XMLID_179_" class="st0" d="M64.6,190.7v-13.2c6.3,0,11.5-5.2,11.5-11.5v-20.8c0-6.3-5.2-11.5-11.5-11.5
				c-3.6,0-6.6-2.9-6.6-6.6c0-3.6,2.9-6.6,6.6-6.6c13.6,0,24.7,11.1,24.7,24.7v20.8C89.3,179.7,78.2,190.7,64.6,190.7z"/>
		</g>
		<g id="XMLID_176_">
			<linearGradient id="XMLID_220_" gradientUnits="userSpaceOnUse" x1="55.59" y1="190.2022" x2="55.59" y2="120.6095">
				<stop  offset="0" style="stop-color:#00FAE8"/>
				<stop  offset="1" style="stop-color:#0CB7E6"/>
			</linearGradient>
			<path id="XMLID_177_" class="st1" d="M64.6,190.7C51,190.7,40,179.7,40,166.1v-20.8c0-13.6,11.1-24.7,24.7-24.7
				c3.6,0,6.6,2.9,6.6,6.6c0,3.6-2.9,6.6-6.6,6.6c-6.3,0-11.5,5.2-11.5,11.5v20.8c0,6.3,5.2,11.5,11.5,11.5c3.6,0,6.6,2.9,6.6,6.6
				C71.2,187.8,68.3,190.7,64.6,190.7z"/>
		</g>
		<g id="XMLID_174_">
			<linearGradient id="XMLID_221_" gradientUnits="userSpaceOnUse" x1="73.6802" y1="120.9215" x2="73.6802" y2="190.6104">
				<stop  offset="0" style="stop-color:#00FAE8"/>
				<stop  offset="1" style="stop-color:#0CB7E6"/>
			</linearGradient>
			<path id="XMLID_175_" class="st2" d="M76.1,145.2c0-6.3-5.2-11.5-11.5-11.5c-3.6,0-6.6-2.9-6.6-6.6c0-3.6,2.9-6.6,6.6-6.6
				c13.6,0,24.7,11.1,24.7,24.7H76.1z"/>
		</g>
		<circle id="XMLID_173_" class="st3" cx="89.6" cy="190.6" r="4.5"/>
	</g>
	<g id="XMLID_118_">
		<g id="XMLID_138_">
			<path id="XMLID_169_" class="st4" d="M113.5,175.1c2.7,0,5.2,2,5.2,5.3c0,1.5-0.5,2.8-1.3,3.7l1.1,1.3c0,0.1,0,0.1,0,0.2l-1,0.8
				c-0.1,0-0.1,0-0.2,0l-1.2-1.3c-0.8,0.5-1.7,0.7-2.7,0.7c-2.7,0-5.2-2-5.2-5.3C108.3,177.1,110.8,175.1,113.5,175.1z M113.5,184.1
				c0.5,0,1.1-0.1,1.5-0.3l-1.6-1.8c0-0.1,0-0.1,0-0.2l1-0.8c0.1,0,0.1,0,0.2,0l1.6,1.8c0.4-0.6,0.7-1.4,0.7-2.4
				c0-2.5-1.7-3.7-3.4-3.7c-1.7,0-3.4,1.2-3.4,3.7C110.1,182.9,111.8,184.1,113.5,184.1z"/>
			<path id="XMLID_167_" class="st4" d="M122.3,185.4v-10c0-0.1,0.1-0.1,0.1-0.1h1.5c0.1,0,0.1,0.1,0.1,0.1v10
				c0,0.1-0.1,0.1-0.1,0.1h-1.5C122.4,185.6,122.3,185.5,122.3,185.4z"/>
			<path id="XMLID_165_" class="st4" d="M127.6,185.4v-1.5c0,0,0,0,0,0l5.7-6.9h-5.4c-0.1,0-0.1-0.1-0.1-0.1v-1.4
				c0-0.1,0.1-0.1,0.1-0.1h7.5c0.1,0,0.1,0.1,0.1,0.1v1.5c0,0,0,0,0,0l-5.7,6.9h5.7c0.1,0,0.1,0.1,0.1,0.1v1.4
				c0,0.1-0.1,0.1-0.1,0.1h-7.7C127.7,185.6,127.6,185.5,127.6,185.4z"/>
			<path id="XMLID_163_" class="st4" d="M145.7,185.4v-4.2h-4.8v4.2c0,0.1-0.1,0.1-0.1,0.1h-1.5c-0.1,0-0.1-0.1-0.1-0.1v-10
				c0-0.1,0.1-0.1,0.1-0.1h1.5c0.1,0,0.1,0.1,0.1,0.1v4.1h4.8v-4.1c0-0.1,0.1-0.1,0.1-0.1h1.5c0.1,0,0.1,0.1,0.1,0.1v10
				c0,0.1-0.1,0.1-0.1,0.1h-1.5C145.8,185.6,145.7,185.5,145.7,185.4z"/>
			<path id="XMLID_161_" class="st4" d="M151.7,185.4v-10c0-0.1,0.1-0.1,0.1-0.1h1.5c0.1,0,0.1,0.1,0.1,0.1v10
				c0,0.1-0.1,0.1-0.1,0.1h-1.5C151.7,185.6,151.7,185.5,151.7,185.4z"/>
			<path id="XMLID_159_" class="st4" d="M166,176.9v8.5c0,0.1-0.1,0.1-0.1,0.1h-1.5c-0.1,0-0.1-0.1-0.1-0.1v-8.5H161
				c-0.1,0-0.1-0.1-0.1-0.1v-1.4c0-0.1,0.1-0.1,0.1-0.1h8.1c0.1,0,0.1,0.1,0.1,0.1v1.4c0,0.1-0.1,0.1-0.1,0.1H166z"/>
			<path id="XMLID_157_" class="st4" d="M172.4,185.4v-10c0-0.1,0.1-0.1,0.1-0.1h6c0.1,0,0.1,0.1,0.1,0.1v1.3c0,0.1-0.1,0.1-0.1,0.1
				h-4.5v2.7h4c0.1,0,0.1,0.1,0.1,0.1v1.3c0,0.1-0.1,0.1-0.1,0.1h-4v2.7h4.5c0.1,0,0.1,0.1,0.1,0.1v1.3c0,0.1-0.1,0.1-0.1,0.1h-6
				C172.5,185.6,172.4,185.5,172.4,185.4z"/>
			<path id="XMLID_155_" class="st4" d="M181.9,180.4c0-3.3,2.5-5.3,5.2-5.3c2.5,0,4.1,1.5,4.6,3.2c0,0.1,0,0.2-0.1,0.2l-1.4,0.5
				c-0.1,0-0.2,0-0.2-0.1c-0.3-1.2-1.3-2.1-2.9-2.1c-1.7,0-3.4,1.2-3.4,3.7c0,2.4,1.6,3.7,3.4,3.7c1.7,0,2.6-1,3-2.1
				c0-0.1,0.1-0.1,0.2-0.1l1.3,0.4c0.1,0,0.1,0.1,0.1,0.2c-0.5,1.7-2.1,3.3-4.6,3.3C184.3,185.8,181.9,183.8,181.9,180.4z"/>
			<path id="XMLID_153_" class="st4" d="M201.8,185.4v-4.2H197v4.2c0,0.1-0.1,0.1-0.1,0.1h-1.5c-0.1,0-0.1-0.1-0.1-0.1v-10
				c0-0.1,0.1-0.1,0.1-0.1h1.5c0.1,0,0.1,0.1,0.1,0.1v4.1h4.8v-4.1c0-0.1,0.1-0.1,0.1-0.1h1.5c0.1,0,0.1,0.1,0.1,0.1v10
				c0,0.1-0.1,0.1-0.1,0.1h-1.5C201.8,185.6,201.8,185.5,201.8,185.4z"/>
			<path id="XMLID_151_" class="st4" d="M214.5,185.5l-5-7.7v7.6c0,0.1-0.1,0.1-0.1,0.1h-1.5c-0.1,0-0.1-0.1-0.1-0.1v-10
				c0-0.1,0.1-0.1,0.1-0.1h2c0,0,0.1,0,0.1,0l4.6,7.2v-7.1c0-0.1,0.1-0.1,0.1-0.1h1.5c0.1,0,0.1,0.1,0.1,0.1v10
				c0,0.1-0.1,0.1-0.1,0.1L214.5,185.5C214.5,185.6,214.5,185.5,214.5,185.5z"/>
			<path id="XMLID_148_" class="st4" d="M225.1,175.1c2.7,0,5.2,2,5.2,5.3c0,3.4-2.5,5.3-5.2,5.3s-5.2-2-5.2-5.3
				C219.9,177.1,222.4,175.1,225.1,175.1z M225.1,184.1c1.7,0,3.4-1.2,3.4-3.7c0-2.5-1.7-3.7-3.4-3.7c-1.7,0-3.4,1.2-3.4,3.7
				C221.7,182.9,223.4,184.1,225.1,184.1z"/>
			<path id="XMLID_146_" class="st4" d="M233.9,185.4v-10c0-0.1,0.1-0.1,0.1-0.1h1.5c0.1,0,0.1,0.1,0.1,0.1v8.5h4.6
				c0.1,0,0.1,0.1,0.1,0.1v1.4c0,0.1-0.1,0.1-0.1,0.1H234C233.9,185.6,233.9,185.5,233.9,185.4z"/>
			<path id="XMLID_143_" class="st4" d="M247.8,175.1c2.7,0,5.2,2,5.2,5.3c0,3.4-2.5,5.3-5.2,5.3c-2.7,0-5.2-2-5.2-5.3
				C242.6,177.1,245.1,175.1,247.8,175.1z M247.8,184.1c1.7,0,3.4-1.2,3.4-3.7c0-2.5-1.7-3.7-3.4-3.7c-1.7,0-3.4,1.2-3.4,3.7
				C244.4,182.9,246.1,184.1,247.8,184.1z"/>
			<path id="XMLID_141_" class="st4" d="M264.3,185.6l-0.1-1.3c-0.4,0.8-1.5,1.5-3.1,1.5c-2.7,0-5-2-5-5.3c0-3.4,2.5-5.3,5.2-5.3
				c2.4,0,4,1.4,4.6,3c0,0.1,0,0.2-0.1,0.2l-1.4,0.5c-0.1,0-0.2,0-0.2-0.1c-0.4-1.1-1.4-2-2.9-2c-1.7,0-3.4,1.2-3.4,3.7
				c0,2.5,1.6,3.8,3.4,3.8c2.1,0,2.8-1.4,2.9-2.3h-3.2c-0.1,0-0.1-0.1-0.1-0.1v-1.2c0-0.1,0.1-0.1,0.1-0.1h4.7
				c0.1,0,0.1,0.1,0.1,0.1v4.9c0,0.1-0.1,0.1-0.1,0.1H264.3z"/>
			<path id="XMLID_139_" class="st4" d="M276.8,175.3c0.1,0,0,0.1,0,0.1l-3.5,5.8v4.2c0,0.1-0.1,0.1-0.1,0.1h-1.5
				c-0.1,0-0.1-0.1-0.1-0.1v-4.2l-3.5-5.7c-0.1-0.1,0-0.2,0.1-0.2h1.7c0.1,0,0.1,0,0.1,0.1l2.4,4.2l2.4-4.2c0,0,0.1-0.1,0.1-0.1
				H276.8L276.8,175.3z"/>
		</g>
		<g id="XMLID_119_">
			<path id="XMLID_137_" class="st5" d="M251.8,150.8v-3.2c0-0.3-0.3-0.5-0.6-0.4l-3.8,1.5v-9.2h4.2c0.2,0,0.4-0.2,0.4-0.4v-2.9
				c0-0.2-0.2-0.4-0.4-0.4h-4.2V130c0-0.2-0.2-0.4-0.4-0.4h-3c-0.2,0-0.4,0.2-0.4,0.4v5.7h-4.4c-0.2,0-0.4,0.2-0.4,0.4v2.9
				c0,0.2,0.2,0.4,0.4,0.4h4.4v10.7l-4.5,1.8c-0.2,0.1-0.3,0.2-0.3,0.4l0,3.2c0,0.3,0.3,0.5,0.6,0.4l4.2-1.7v8
				c0,0.3-0.2,0.5-0.5,0.5h-2.8c-0.3,0-0.5,0.3-0.4,0.6l1.1,3c0.1,0.2,0.2,0.3,0.4,0.3h3.3c1.5,0,2.7-1.2,2.7-2.7v-11.1l4.1-1.6
				C251.7,151.2,251.8,151,251.8,150.8z"/>
			<path id="XMLID_136_" class="st5" d="M266.4,144.1v-6h8.2c0.2,0,0.4-0.2,0.4-0.4v-2.8c0-0.2-0.2-0.4-0.4-0.4h-8.2v-5
				c0-0.2-0.2-0.4-0.4-0.4h-3c-0.2,0-0.4,0.2-0.4,0.4v5h-7.9c-0.2,0-0.4,0.1-0.4,0.3l-0.8,2.8c-0.1,0.3,0.1,0.5,0.4,0.5h8.6v6h-7
				c-0.2,0-0.4,0.1-0.4,0.3l-0.8,3c-0.1,0.3,0.1,0.5,0.4,0.5h15.2c-0.9,2.5-2.5,5.9-5.8,8.9c-2-1.9-3.4-3.9-4.4-5.7
				c-0.1-0.2-0.3-0.4-0.6-0.4l-3.1,0c-0.3,0-0.5,0.3-0.4,0.6c0.3,0.7,0.7,1.5,1.2,2.3c1,1.7,2.4,3.7,4.3,5.5
				c-2.4,1.6-5.5,3.1-9.3,4.1c-0.3,0.1-0.4,0.3-0.3,0.6c0.4,0.7,1.1,2,1.4,2.6c0.1,0.2,0.3,0.3,0.5,0.2c4.4-1.2,7.9-3,10.6-5
				c2.7,2,6.2,3.8,10.6,5c0.2,0.1,0.4,0,0.5-0.2l1.4-2.6c0.1-0.2,0-0.5-0.3-0.6c-3.8-1-6.9-2.4-9.3-4c4.3-4.2,6.2-9,7-12
				c0.4-1.6-0.8-3.1-2.4-3.1H266.4z"/>
			<path id="XMLID_135_" class="st5" d="M135.9,151.7h-3c-0.2,0-0.4,0.2-0.4,0.4v14.1c0,0.2,0.2,0.4,0.4,0.4h3
				c0.2,0,0.4-0.2,0.4-0.4v-14.1C136.3,151.9,136.1,151.7,135.9,151.7z"/>
			<path id="XMLID_132_" class="st5" d="M143.7,148.2c-5.6-0.8-10.2-2.3-13.7-4c4.5-3.2,6.9-6.4,7.9-8h4.8c0.2,0,0.4-0.2,0.4-0.4
				v-2.8c0-0.2-0.2-0.4-0.4-0.4h-14.5v-3.3c0-0.2-0.2-0.4-0.4-0.4h-3c-0.2,0-0.4,0.2-0.4,0.4v3.3h-14.1c-0.2,0-0.4,0.1-0.4,0.3
				l-0.7,2.8c-0.1,0.3,0.1,0.5,0.4,0.5h4.9c1,1.6,3.4,4.8,7.9,8c-3.6,1.7-8.1,3.2-13.7,4c-0.3,0-0.4,0.3-0.3,0.6l1,2.9
				c0.1,0.2,0.3,0.3,0.5,0.3c6.9-1.1,12.3-3.1,16.4-5.3c4.1,2.3,9.5,4.3,16.4,5.3c0.2,0,0.4-0.1,0.5-0.3l1-2.9
				C144.1,148.5,144,148.2,143.7,148.2z M123,139.8c-1.6-1.3-2.8-2.6-3.7-3.6h13.9c-1.4,1.6-3.6,3.8-6.9,5.9
				C124.9,141.3,123.9,140.5,123,139.8z"/>
			<path id="XMLID_131_" class="st5" d="M120.6,151.7h-3c-0.2,0-0.4,0.2-0.4,0.4v2c0,0.2-0.2,5.5-6.6,9c-0.2,0.1-0.3,0.4-0.2,0.6
				l1.7,2.4c0.1,0.2,0.4,0.2,0.6,0.1c8.2-4.6,8.3-11.8,8.3-12.1v-2C121.1,151.9,120.9,151.7,120.6,151.7z"/>
			<path id="XMLID_130_" class="st5" d="M207.4,146.3c-0.1-0.2-0.4-0.3-0.6-0.2l-1.7,0.9v-3.4h4.9c0.2,0,0.4-0.2,0.4-0.4v-2.8
				c0-0.2-0.2-0.4-0.4-0.4h-4.9v-6.5c1.9-0.2,3.5-0.4,4.3-0.5c0.2,0,0.4-0.2,0.4-0.4v-2.8c0-0.3-0.2-0.5-0.5-0.4
				c-1.8,0.2-8.5,0.9-12.2,1.3c-0.2,0-0.4,0.2-0.4,0.4v2.8c0,0.3,0.2,0.5,0.5,0.4c1.2-0.1,2.7-0.3,4.2-0.4v6.1h-5.5
				c-0.2,0-0.4,0.2-0.4,0.4v2.8c0,0.2,0.2,0.4,0.4,0.4h4.5c-0.4,2.1-2,9.8-5.6,17.9c-0.1,0.2,0,0.4,0.1,0.5l2.5,2.2
				c0.1,0.1,0.4,0.1,0.4-0.1c1.4-3.2,2.6-6.4,3.5-9.2v11.7h3.8v-16.2l2.6,5.1c0.1,0.2,0.4,0.3,0.6,0.2l2.7-1.4
				c0.2-0.1,0.3-0.4,0.2-0.6L207.4,146.3z"/>
			<path id="XMLID_129_" class="st5" d="M219.1,140.7c0.1,0.2,0.4,0.2,0.6,0.1l2.3-1.9c0.2-0.1,0.2-0.4,0.1-0.6l-5.5-6.8
				c-0.1-0.2-0.4-0.2-0.6-0.1l-2.3,1.9c-0.2,0.1-0.2,0.4-0.1,0.6L219.1,140.7z"/>
			<path id="XMLID_128_" class="st5" d="M217.9,151.3c0.1,0.2,0.4,0.2,0.6,0.1l2.3-1.9c0.2-0.1,0.2-0.4,0.1-0.6l-5.6-6.8
				c-0.1-0.2-0.4-0.2-0.6-0.1l-2.3,1.9c-0.2,0.1-0.2,0.4-0.1,0.6L217.9,151.3z"/>
			<path id="XMLID_127_" class="st5" d="M231.5,153.1l-3.5,0.4v-24.3c0-0.2-0.2-0.4-0.4-0.4h-3c-0.2,0-0.4,0.2-0.4,0.4v24.7
				l-11.7,1.3c-0.2,0-0.4,0.2-0.4,0.4v2.8c0,0.3,0.2,0.5,0.5,0.4l11.6-1.3v8.6c0,0.2,0.2,0.4,0.4,0.4h3c0.2,0,0.4-0.2,0.4-0.4v-9
				l3.6-0.4c0.2,0,0.4-0.2,0.4-0.4v-2.8C232,153.3,231.8,153.1,231.5,153.1z"/>
			<path id="XMLID_126_" class="st5" d="M155.6,130c-0.2-0.2-0.4-0.2-0.6,0l-2.2,2c-0.2,0.2-0.2,0.4,0,0.6l4.5,5
				c0.2,0.2,0.4,0.2,0.6,0l2.2-2c0.2-0.2,0.2-0.4,0-0.6L155.6,130z"/>
			<path id="XMLID_125_" class="st5" d="M155.5,148.8c0.2,0.2,0.4,0.2,0.6,0l2.2-2c0.2-0.2,0.2-0.4,0-0.6l-4.5-5
				c-0.2-0.2-0.4-0.2-0.6,0l-2.2,2c-0.2,0.2-0.2,0.4,0,0.6L155.5,148.8z"/>
			<path id="XMLID_122_" class="st5" d="M166,148.3c-1.2,0-2.1,0.9-2.1,2.1v15.8c0,0.2,0.2,0.4,0.4,0.4h3c0.2,0,0.4-0.2,0.4-0.4
				v-1.6h14v1.6c0,0.2,0.2,0.4,0.4,0.4h3c0.2,0,0.4-0.2,0.4-0.4v-15.8c0-1.2-0.9-2.1-2.1-2.1H166z M167.7,161v-9h14v9H167.7z"/>
			<path id="XMLID_121_" class="st5" d="M181.2,133.6c-0.1-0.2-0.4-0.2-0.6-0.1l-2.5,1.6c-0.2,0.1-0.3,0.4-0.1,0.6l3.3,4.8
				l-14.5,1.4c-0.1,0-0.2-0.1-0.1-0.2l7.6-10.7c0.1-0.2,0.1-0.5-0.1-0.6l-2.5-1.6c-0.2-0.1-0.4-0.1-0.6,0.1l-8.8,12.7
				c-0.6,0.9-0.6,2.1,0,3c0.5,0.8,1.4,1.2,2.4,1.1l19-1.8l1.3,2c0.1,0.2,0.4,0.2,0.6,0.1l2.5-1.6c0.2-0.1,0.3-0.4,0.1-0.6
				L181.2,133.6z"/>
			<path id="XMLID_120_" class="st5" d="M158.8,155.3l-2.7-1.2c-0.2-0.1-0.5,0-0.6,0.2c-0.9,2.3-2.5,6-4.6,9.7
				c-0.1,0.2,0,0.5,0.2,0.6l2.6,1.5c0.2,0.1,0.5,0,0.6-0.2c2.3-4.1,3.9-7.8,4.7-10C159.2,155.6,159,155.4,158.8,155.3z"/>
		</g>
	</g>
</g>
<rect id="XMLID_1_" x="473" y="613.2" class="st5" width="800" height="393.8"/>
<g id="XMLID_3_">
	<g id="XMLID_58_">
		<g id="XMLID_64_">
			<linearGradient id="XMLID_222_" gradientUnits="userSpaceOnUse" x1="724.1786" y1="776.6929" x2="724.1786" y2="898.4979">
				<stop  offset="0" style="stop-color:#00FAE8"/>
				<stop  offset="1" style="stop-color:#0CB7E6"/>
			</linearGradient>
			<path id="XMLID_65_" class="st6" d="M708.3,898.2v-23.1c11.2,0,20.2-9.1,20.2-20.2v-36.6c0-11.2-9.1-20.2-20.2-20.2
				c-6.4,0-11.5-5.2-11.5-11.5c0-6.4,5.2-11.5,11.5-11.5c23.9,0,43.3,19.4,43.3,43.3v36.6C751.6,878.8,732.2,898.2,708.3,898.2z"/>
		</g>
		<g id="XMLID_62_">
			<linearGradient id="XMLID_223_" gradientUnits="userSpaceOnUse" x1="692.4052" y1="897.2904" x2="692.4052" y2="775.0585">
				<stop  offset="0" style="stop-color:#00FAE8"/>
				<stop  offset="1" style="stop-color:#0CB7E6"/>
			</linearGradient>
			<path id="XMLID_63_" class="st7" d="M708.3,898.2c-23.9,0-43.3-19.4-43.3-43.3v-36.6c0-23.9,19.4-43.3,43.3-43.3
				c6.4,0,11.5,5.2,11.5,11.5c0,6.4-5.2,11.5-11.5,11.5c-11.2,0-20.2,9.1-20.2,20.2v36.6c0,11.2,9.1,20.2,20.2,20.2
				c6.4,0,11.5,5.2,11.5,11.5S714.7,898.2,708.3,898.2z"/>
		</g>
		<g id="XMLID_60_">
			<linearGradient id="XMLID_224_" gradientUnits="userSpaceOnUse" x1="724.1786" y1="775.6065" x2="724.1786" y2="898.0074">
				<stop  offset="0" style="stop-color:#00FAE8"/>
				<stop  offset="1" style="stop-color:#0CB7E6"/>
			</linearGradient>
			<path id="XMLID_61_" class="st8" d="M728.5,818.3c0-11.2-9.1-20.2-20.2-20.2c-6.4,0-11.5-5.2-11.5-11.5c0-6.4,5.2-11.5,11.5-11.5
				c23.9,0,43.3,19.4,43.3,43.3H728.5z"/>
		</g>
		<circle id="XMLID_59_" class="st3" cx="752.1" cy="898" r="7.9"/>
	</g>
	<g id="XMLID_4_">
		<g id="XMLID_24_" class="st9">
			<path id="XMLID_55_" class="st10" d="M794.1,870.7c4.7,0,9.2,3.5,9.2,9.4c0,2.7-0.9,4.8-2.3,6.4l2,2.2c0.1,0.1,0.1,0.2,0,0.3
				l-1.7,1.4c-0.1,0.1-0.2,0.1-0.3,0l-2.1-2.2c-1.4,0.8-3,1.2-4.7,1.2c-4.7,0-9.1-3.5-9.1-9.4C785,874.2,789.4,870.7,794.1,870.7z
				 M794.1,886.6c0.9,0,1.9-0.2,2.7-0.6l-2.8-3.1c-0.1-0.1-0.1-0.2,0-0.3l1.7-1.5c0.1-0.1,0.2-0.1,0.3,0l2.8,3.2
				c0.8-1,1.2-2.4,1.2-4.2c0-4.3-3-6.5-6-6.5c-3,0-6,2.2-6,6.5C788.1,884.5,791.1,886.6,794.1,886.6z"/>
			<path id="XMLID_53_" class="st10" d="M809.6,888.9v-17.5c0-0.1,0.1-0.2,0.2-0.2h2.6c0.1,0,0.2,0.1,0.2,0.2v17.5
				c0,0.1-0.1,0.2-0.2,0.2h-2.6C809.7,889.1,809.6,889,809.6,888.9z"/>
			<path id="XMLID_51_" class="st10" d="M818.9,888.9v-2.7c0,0,0,0,0-0.1l10-12.1h-9.4c-0.1,0-0.2-0.1-0.2-0.2v-2.4
				c0-0.1,0.1-0.2,0.2-0.2h13.1c0.1,0,0.2,0.1,0.2,0.2v2.6c0,0,0,0,0,0.1l-10.1,12.2h10c0.1,0,0.2,0.1,0.2,0.2v2.4
				c0,0.1-0.1,0.2-0.2,0.2h-13.5C819.1,889.1,818.9,889,818.9,888.9z"/>
			<path id="XMLID_49_" class="st10" d="M850.7,888.9v-7.4h-8.5v7.4c0,0.1-0.1,0.2-0.2,0.2h-2.6c-0.1,0-0.2-0.1-0.2-0.2v-17.5
				c0-0.1,0.1-0.2,0.2-0.2h2.6c0.1,0,0.2,0.1,0.2,0.2v7.2h8.5v-7.2c0-0.1,0.1-0.2,0.2-0.2h2.6c0.1,0,0.2,0.1,0.2,0.2v17.5
				c0,0.1-0.1,0.2-0.2,0.2H851C850.8,889.1,850.7,889,850.7,888.9z"/>
			<path id="XMLID_47_" class="st10" d="M861.1,888.9v-17.5c0-0.1,0.1-0.2,0.2-0.2h2.6c0.1,0,0.2,0.1,0.2,0.2v17.5
				c0,0.1-0.1,0.2-0.2,0.2h-2.6C861.3,889.1,861.1,889,861.1,888.9z"/>
			<path id="XMLID_45_" class="st10" d="M886.3,874v14.9c0,0.1-0.1,0.2-0.2,0.2h-2.6c-0.1,0-0.2-0.1-0.2-0.2V874h-5.6
				c-0.1,0-0.2-0.1-0.2-0.2v-2.4c0-0.1,0.1-0.2,0.2-0.2h14.3c0.1,0,0.2,0.1,0.2,0.2v2.4c0,0.1-0.1,0.2-0.2,0.2H886.3z"/>
			<path id="XMLID_43_" class="st10" d="M897.7,888.9v-17.5c0-0.1,0.1-0.2,0.2-0.2h10.6c0.1,0,0.2,0.1,0.2,0.2v2.4
				c0,0.1-0.1,0.2-0.2,0.2h-7.8v4.8h7.1c0.1,0,0.2,0.1,0.2,0.2v2.3c0,0.1-0.1,0.2-0.2,0.2h-7.1v4.8h7.8c0.1,0,0.2,0.1,0.2,0.2v2.3
				c0,0.1-0.1,0.2-0.2,0.2h-10.6C897.8,889.1,897.7,889,897.7,888.9z"/>
			<path id="XMLID_41_" class="st10" d="M914.3,880.1c0-5.9,4.4-9.4,9.1-9.4c4.5,0,7.1,2.6,8,5.6c0,0.1,0,0.3-0.2,0.3l-2.4,0.8
				c-0.1,0-0.3,0-0.3-0.2c-0.6-2.1-2.3-3.7-5.2-3.7c-3,0-5.9,2.2-5.9,6.5c0,4.2,2.9,6.4,6,6.4c2.9,0,4.6-1.8,5.3-3.7
				c0-0.1,0.2-0.2,0.3-0.2l2.3,0.8c0.1,0,0.2,0.2,0.2,0.3c-0.9,3-3.6,5.7-8.1,5.7C918.5,889.5,914.3,886,914.3,880.1z"/>
			<path id="XMLID_39_" class="st10" d="M949.2,888.9v-7.4h-8.5v7.4c0,0.1-0.1,0.2-0.2,0.2h-2.6c-0.1,0-0.2-0.1-0.2-0.2v-17.5
				c0-0.1,0.1-0.2,0.2-0.2h2.6c0.1,0,0.2,0.1,0.2,0.2v7.2h8.5v-7.2c0-0.1,0.1-0.2,0.2-0.2h2.6c0.1,0,0.2,0.1,0.2,0.2v17.5
				c0,0.1-0.1,0.2-0.2,0.2h-2.6C949.3,889.1,949.2,889,949.2,888.9z"/>
			<path id="XMLID_37_" class="st10" d="M971.5,889.1l-8.8-13.6v13.4c0,0.1-0.1,0.2-0.2,0.2h-2.6c-0.1,0-0.2-0.1-0.2-0.2v-17.5
				c0-0.1,0.1-0.2,0.2-0.2h3.6c0,0,0.1,0,0.1,0.1l8.1,12.7v-12.5c0-0.1,0.1-0.2,0.2-0.2h2.6c0.1,0,0.2,0.1,0.2,0.2v17.5
				c0,0.1-0.1,0.2-0.2,0.2h-2.8C971.6,889.1,971.5,889.1,971.5,889.1z"/>
			<path id="XMLID_34_" class="st10" d="M990.1,870.7c4.7,0,9.2,3.5,9.2,9.4c0,5.9-4.4,9.4-9.2,9.4c-4.7,0-9.1-3.5-9.1-9.4
				C981,874.2,985.4,870.7,990.1,870.7z M990.1,886.6c3,0,6-2.2,6-6.5c0-4.3-3-6.5-6-6.5c-3,0-6,2.2-6,6.5
				C984.1,884.5,987.1,886.6,990.1,886.6z"/>
			<path id="XMLID_32_" class="st10" d="M1005.5,888.9v-17.5c0-0.1,0.1-0.2,0.2-0.2h2.6c0.1,0,0.2,0.1,0.2,0.2v14.9h8
				c0.1,0,0.2,0.1,0.2,0.2v2.4c0,0.1-0.1,0.2-0.2,0.2h-10.8C1005.6,889.1,1005.5,889,1005.5,888.9z"/>
			<path id="XMLID_29_" class="st10" d="M1030,870.7c4.7,0,9.2,3.5,9.2,9.4c0,5.9-4.4,9.4-9.2,9.4c-4.7,0-9.1-3.5-9.1-9.4
				C1020.9,874.2,1025.3,870.7,1030,870.7z M1030,886.6c3,0,6-2.2,6-6.5c0-4.3-3-6.5-6-6.5c-3,0-6,2.2-6,6.5
				C1024,884.5,1027,886.6,1030,886.6z"/>
			<path id="XMLID_27_" class="st10" d="M1058.9,889.1l-0.2-2.3c-0.8,1.3-2.6,2.7-5.5,2.7c-4.7,0-8.9-3.5-8.9-9.4
				c0-5.9,4.4-9.4,9.1-9.4c4.3,0,7,2.4,8,5.2c0,0.1,0,0.3-0.2,0.3l-2.4,0.9c-0.1,0-0.3,0-0.3-0.1c-0.7-1.9-2.4-3.5-5.2-3.5
				c-2.9,0-6,2.1-6,6.5c0,4.4,2.8,6.6,5.9,6.6c3.6,0,5-2.5,5.2-4h-5.7c-0.1,0-0.2-0.1-0.2-0.2v-2.2c0-0.1,0.1-0.2,0.2-0.2h8.3
				c0.1,0,0.2,0.1,0.2,0.2v8.6c0,0.1-0.1,0.2-0.2,0.2H1058.9z"/>
			<path id="XMLID_25_" class="st10" d="M1080.9,871.1c0.2,0,0,0.2,0,0.2l-6.2,10.2v7.4c0,0.1-0.1,0.2-0.2,0.2h-2.6
				c-0.1,0-0.2-0.1-0.2-0.2v-7.4l-6.1-10c-0.1-0.2,0-0.4,0.2-0.4h3c0.1,0,0.2,0,0.2,0.1l4.2,7.4l4.3-7.4c0-0.1,0.1-0.1,0.2-0.1h3
				H1080.9z"/>
		</g>
		<g id="XMLID_5_">
			<path id="XMLID_23_" class="st10" d="M1037.1,828.1v-5.7c0-0.5-0.5-0.9-1-0.7l-6.6,2.6v-16.1h7.4c0.4,0,0.8-0.3,0.8-0.8v-5.1
				c0-0.4-0.3-0.8-0.8-0.8h-7.4v-10c0-0.4-0.3-0.8-0.8-0.8h-5.2c-0.4,0-0.8,0.3-0.8,0.8v10h-7.7c-0.4,0-0.8,0.3-0.8,0.8v5.1
				c0,0.4,0.3,0.8,0.8,0.8h7.7V827l-7.9,3.1c-0.3,0.1-0.5,0.4-0.5,0.7l-0.1,5.6c0,0.5,0.5,0.9,1,0.7l7.5-2.9v14
				c0,0.5-0.4,0.9-0.9,0.9h-4.9c-0.5,0-0.9,0.5-0.7,1l2,5.2c0.1,0.3,0.4,0.5,0.7,0.5h5.7c2.7,0,4.8-2.2,4.8-4.8v-19.5l7.2-2.8
				C1036.9,828.7,1037.1,828.4,1037.1,828.1z"/>
			<path id="XMLID_22_" class="st10" d="M1062.7,816.2v-10.6h14.3c0.4,0,0.8-0.3,0.8-0.8V800c0-0.4-0.3-0.8-0.8-0.8h-14.3v-8.8
				c0-0.4-0.3-0.8-0.8-0.8h-5.2c-0.4,0-0.8,0.3-0.8,0.8v8.8h-13.8c-0.3,0-0.6,0.2-0.7,0.6l-1.4,4.9c-0.1,0.5,0.2,1,0.7,1h15.2v10.6
				h-12.3c-0.3,0-0.6,0.2-0.7,0.6l-1.4,5.2c-0.1,0.5,0.2,0.9,0.7,0.9h26.6c-1.5,4.4-4.5,10.3-10.2,15.7c-3.5-3.3-6-6.8-7.7-10
				c-0.2-0.4-0.6-0.6-1-0.6l-5.5,0c-0.5,0-0.9,0.6-0.7,1.1c0.6,1.3,1.3,2.6,2.1,4c1.8,3,4.2,6.4,7.6,9.7c-4.3,2.9-9.6,5.4-16.3,7.1
				c-0.4,0.1-0.7,0.6-0.5,1c0.6,1.2,1.9,3.6,2.4,4.6c0.2,0.3,0.5,0.5,0.9,0.4c7.7-2.1,13.8-5.2,18.7-8.7c4.8,3.5,10.9,6.6,18.7,8.7
				c0.3,0.1,0.7-0.1,0.9-0.4l2.4-4.6c0.2-0.4,0-0.9-0.5-1.1c-6.7-1.7-12-4.2-16.3-7.1c7.6-7.4,10.9-15.7,12.3-21.1
				c0.7-2.8-1.4-5.5-4.3-5.5H1062.7z"/>
			<path id="XMLID_21_" class="st10" d="M833.5,829.6h-5.2c-0.4,0-0.8,0.3-0.8,0.8v24.7c0,0.4,0.3,0.8,0.8,0.8h5.2
				c0.4,0,0.8-0.3,0.8-0.8v-24.7C834.2,830,833.9,829.6,833.5,829.6z"/>
			<path id="XMLID_18_" class="st10" d="M847.2,823.5c-9.9-1.4-17.8-4.1-24-7c7.9-5.6,12.1-11.3,13.9-14.1h8.4
				c0.4,0,0.7-0.3,0.7-0.7v-4.9c0-0.4-0.3-0.7-0.7-0.7H820v-5.8c0-0.4-0.3-0.7-0.7-0.7H814c-0.4,0-0.8,0.3-0.8,0.8v5.8h-24.7
				c-0.3,0-0.6,0.2-0.7,0.6l-1.2,4.9c-0.1,0.5,0.2,0.9,0.7,0.9h8.6c1.7,2.8,6,8.5,13.9,14.1c-6.3,3-14.2,5.6-24.1,7
				c-0.5,0.1-0.8,0.5-0.6,1l1.7,5c0.1,0.3,0.5,0.6,0.8,0.5c12.1-1.9,21.5-5.4,28.8-9.4c7.3,4,16.7,7.5,28.8,9.4
				c0.4,0.1,0.7-0.2,0.8-0.5l1.7-5C847.9,824,847.6,823.5,847.2,823.5z M810.8,808.8c-2.9-2.3-5-4.5-6.5-6.4h24.4
				c-2.4,2.9-6.3,6.7-12.2,10.4C814.2,811.4,812.3,810,810.8,808.8z"/>
			<path id="XMLID_17_" class="st10" d="M806.7,829.6h-5.2c-0.4,0-0.8,0.3-0.8,0.8v3.6c0,0.4-0.3,9.6-11.6,15.7
				c-0.4,0.2-0.5,0.7-0.3,1.1l3,4.3c0.2,0.3,0.7,0.4,1,0.2c14.4-8.1,14.6-20.8,14.6-21.3v-3.6C807.4,830,807.1,829.6,806.7,829.6z"
				/>
			<path id="XMLID_16_" class="st10" d="M959.1,820.3c-0.2-0.4-0.6-0.5-1-0.3l-2.9,1.5v-5.9h8.7c0.4,0,0.8-0.3,0.8-0.8v-4.9
				c0-0.4-0.3-0.8-0.8-0.8h-8.7v-11.4c3.4-0.4,6.2-0.7,7.5-0.8c0.4,0,0.7-0.4,0.7-0.7v-4.9c0-0.4-0.4-0.8-0.8-0.7
				c-3.2,0.3-15,1.6-21.5,2.2c-0.4,0-0.7,0.4-0.7,0.7v4.9c0,0.4,0.4,0.8,0.8,0.8c2.1-0.2,4.7-0.5,7.3-0.7v10.7h-9.7
				c-0.4,0-0.8,0.3-0.8,0.8v4.9c0,0.4,0.3,0.8,0.8,0.8h8c-0.7,3.6-3.6,17.1-9.8,31.5c-0.1,0.3-0.1,0.7,0.2,0.9l4.4,3.8
				c0.2,0.2,0.6,0.1,0.7-0.2c2.5-5.7,4.6-11.2,6.2-16.2v20.5h6.7v-28.5l4.5,8.9c0.2,0.4,0.6,0.5,1,0.3l4.7-2.4
				c0.4-0.2,0.5-0.6,0.3-1L959.1,820.3z"/>
			<path id="XMLID_15_" class="st10" d="M979.5,810.3c0.3,0.3,0.7,0.4,1.1,0.1l4.1-3.3c0.3-0.3,0.4-0.7,0.1-1.1l-9.6-11.9
				c-0.3-0.3-0.7-0.4-1.1-0.1l-4.1,3.3c-0.3,0.3-0.4,0.7-0.1,1.1L979.5,810.3z"/>
			<path id="XMLID_14_" class="st10" d="M977.5,829c0.3,0.3,0.7,0.4,1.1,0.1l4.1-3.3c0.3-0.3,0.4-0.7,0.1-1.1l-9.8-11.9
				c-0.3-0.3-0.7-0.4-1.1-0.1l-4.1,3.3c-0.3,0.3-0.4,0.7-0.1,1.1L977.5,829z"/>
			<path id="XMLID_13_" class="st10" d="M1001.4,832.1l-6.2,0.7v-42.6c0-0.4-0.3-0.8-0.8-0.8h-5.2c-0.4,0-0.8,0.3-0.8,0.8v43.4
				l-20.5,2.3c-0.4,0-0.7,0.4-0.7,0.7v4.9c0,0.4,0.4,0.8,0.8,0.7l20.3-2.2v15.1c0,0.4,0.3,0.8,0.8,0.8h5.2c0.4,0,0.8-0.3,0.8-0.8
				v-15.8l6.4-0.7c0.4,0,0.7-0.4,0.7-0.7v-4.9C1002.2,832.4,1001.8,832.1,1001.4,832.1z"/>
			<path id="XMLID_12_" class="st10" d="M868,791.6c-0.3-0.3-0.8-0.3-1.1-0.1L863,795c-0.3,0.3-0.3,0.8-0.1,1.1l7.8,8.8
				c0.3,0.3,0.8,0.3,1.1,0.1l3.9-3.5c0.3-0.3,0.3-0.8,0.1-1.1L868,791.6z"/>
			<path id="XMLID_11_" class="st10" d="M867.9,824.6c0.3,0.3,0.8,0.3,1.1,0.1l3.9-3.5c0.3-0.3,0.3-0.8,0.1-1.1l-7.8-8.8
				c-0.3-0.3-0.8-0.3-1.1-0.1l-3.9,3.5c-0.3,0.3-0.3,0.8-0.1,1.1L867.9,824.6z"/>
			<path id="XMLID_8_" class="st10" d="M886.3,823.7c-2.1,0-3.7,1.7-3.7,3.7v27.7c0,0.4,0.3,0.8,0.8,0.8h5.2c0.4,0,0.8-0.3,0.8-0.8
				v-2.7h24.6v2.7c0,0.4,0.3,0.8,0.8,0.8h5.2c0.4,0,0.8-0.3,0.8-0.8v-27.7c0-2.1-1.7-3.7-3.7-3.7H886.3z M889.3,846v-15.9h24.6V846
				H889.3z"/>
			<path id="XMLID_7_" class="st10" d="M912.9,797.9c-0.2-0.3-0.7-0.4-1-0.2l-4.4,2.8c-0.4,0.2-0.5,0.7-0.2,1.1l5.7,8.5l-25.5,2.4
				c-0.2,0-0.3-0.2-0.2-0.3l13.3-18.8c0.3-0.4,0.2-0.8-0.2-1.1l-4.4-2.8c-0.3-0.2-0.8-0.1-1,0.2L879.6,812c-1.1,1.6-1.1,3.7-0.1,5.3
				c0.9,1.4,2.5,2.2,4.2,2l33.4-3.1l2.4,3.5c0.2,0.3,0.7,0.4,1,0.2l4.4-2.8c0.4-0.2,0.5-0.7,0.2-1.1L912.9,797.9z"/>
			<path id="XMLID_6_" class="st10" d="M873.8,835.9l-4.7-2.1c-0.4-0.2-0.8,0-1,0.4c-1.6,4.1-4.3,10.5-8,17c-0.2,0.4-0.1,0.8,0.3,1
				l4.5,2.6c0.4,0.2,0.8,0.1,1-0.3c4.1-7.2,6.8-13.6,8.3-17.6C874.3,836.5,874.1,836.1,873.8,835.9z"/>
		</g>
	</g>
</g>
</svg>
