<?xml version="1.0" encoding="utf-8"?>
<!-- Generator: Adobe Illustrator 19.0.0, SVG Export Plug-In . SVG Version: 6.00 Build 0)  -->
<svg version="1.1" id="图层_1" xmlns="http://www.w3.org/2000/svg" xmlns:xlink="http://www.w3.org/1999/xlink" x="0px" y="0px"
	 viewBox="0 0 165 90" style="enable-background:new 0 0 165 90;" xml:space="preserve">
<style type="text/css">
	.st0{fill:#FFFFFF;}
	.st1{fill:#333333;}
</style>
<rect id="XMLID_4_" x="0.2" y="0" class="st0" width="165" height="90"/>
<rect id="XMLID_7_" x="0.2" y="0" class="st0" width="165" height="90"/>
<g id="XMLID_17_">
	<rect id="XMLID_6_" x="54.9" y="69" class="st1" width="47.6" height="4.3"/>
	<g id="XMLID_16_">
		<rect id="XMLID_1_" x="54.4" y="24.7" class="st1" width="4.3" height="48.6"/>
		<rect id="XMLID_5_" x="99" y="43.6" class="st1" width="4" height="29.7"/>
		<rect id="XMLID_10_" x="54.4" y="24.7" class="st1" width="29.7" height="4"/>
		<rect id="XMLID_11_" x="90.9" y="24.7" class="st1" width="20.1" height="4"/>
		<rect id="XMLID_12_" x="99" y="16.7" class="st1" width="4" height="20.2"/>
		
			<rect id="XMLID_13_" x="74" y="33.4" transform="matrix(1.503781e-03 -1 1 1.503781e-03 36.9927 114.9051)" class="st1" width="4" height="11.1"/>
		
			<rect id="XMLID_14_" x="77.3" y="36.9" transform="matrix(1 1.503786e-03 -1.503786e-03 1 7.178702e-02 -0.1194)" class="st1" width="4.3" height="21.5"/>
		
			<rect id="XMLID_15_" x="77.3" y="50.4" transform="matrix(-1.503679e-03 1 -1 -1.503679e-03 138.5716 -19.9758)" class="st1" width="4" height="17.5"/>
	</g>
</g>
</svg>
