<?xml version="1.0" encoding="utf-8"?>
<!-- Generator: Adobe Illustrator 19.0.0, SVG Export Plug-In . SVG Version: 6.00 Build 0)  -->
<svg version="1.1" id="图层_1" xmlns="http://www.w3.org/2000/svg" xmlns:xlink="http://www.w3.org/1999/xlink" x="0px" y="0px"
	 viewBox="0 0 165 90" style="enable-background:new 0 0 165 90;" xml:space="preserve">
<style type="text/css">
	.st0{fill:#FFFFFF;}
	.st1{fill:#333333;}
</style>
<rect id="XMLID_4_" x="0.2" y="0" class="st0" width="165" height="90"/>
<rect id="XMLID_7_" x="0.2" y="0" class="st0" width="165" height="90"/>
<g id="XMLID_2_">
	<path id="XMLID_16_" class="st1" d="M140.8,59.4c0,0-4.1-1.2-11.8-2.4c0.8-1.2,1.4-3.2,1.8-4.4l5.7-19.9h-5.2l-3,13.5L125,32.6
		h-5.6v0h-4.9v2.6c-0.9-1.9-2.5-3.1-4.5-3.1c-3.4,0-7.9,2.9-7.9,10.9c0,6.3,3.2,10.2,7.5,10.2c2.9,0,4.1-1.7,4.7-2.6v2.2h5v-20
		l5.6,17.4c0.2,0.5,0.4,1.3,0.4,1.7c0,0.8-0.3,1.7-0.8,2c-0.5,0.5-1.7,0.5-2.2,0.5h-1.4v1.6c-19.3-2.2-52.2-3.1-95.7,6.3l-0.8,2.6
		c0,0,50.8-12.5,96.5-8v2c0.5,0,0.8,0.1,1.4,0.1c3.7,0,5-0.4,5.9-1.2c4.2,0.6,8.3,1.3,12.3,2.3L140.8,59.4z M112.8,47.3
		c-0.9,1-1.9,1.1-2.2,1.1c-1,0-2.2-0.6-2.9-2.4c-0.4-1-0.6-2.2-0.6-3.5c0-1.6,0.2-3.1,1.1-4.4c0.6-0.9,1.6-1.5,2.5-1.5
		c0.8,0,1.5,0.4,2.1,1c0.7,0.7,1.3,2.1,1.3,4.7C114.2,44.3,113.9,46,112.8,47.3z"/>
	<polygon id="XMLID_17_" class="st1" points="87.3,52.7 90.3,39.1 93.4,52.7 98.2,52.7 103.4,32.6 98.2,32.6 95.4,45.2 92.6,32.6 
		88.1,32.6 85.2,45.2 82.5,32.6 77.2,32.6 82.5,52.7 	"/>
	<path id="XMLID_20_" class="st1" d="M35.9,46.9H44l1.6,5.8h5.7v0h5.1v-8.9c0-3.8,0-5.3,1.5-6.1c0.4-0.2,0.9-0.4,1.3-0.4
		c0.9,0,1.7,0.5,2.1,1.2c0.5,0.9,0.5,1.9,0.5,4v10.1h5.1v-9.9c0-1.6,0-3.3,0.6-4.3c0.1-0.2,0.8-1.2,2.2-1.2c0.8,0,1.6,0.2,2.1,1.1
		c0.5,0.9,0.6,1.5,0.6,4.7v9.5h5.1V42c0-4.7-0.1-6.5-1.8-8.2c-1-1-2.4-1.6-4.1-1.6c-1.4,0-3.9,0.4-5.5,3.4c-0.2-0.7-0.8-2.3-2.9-3.1
		c-0.7-0.2-1.3-0.4-2-0.4c-1.3,0-2.6,0.4-3.5,1.2c-0.8,0.7-1.2,1.4-1.4,2v-2.7h-5.1v18.2l-8.3-25.5h-6.4L28,52.7h6.3L35.9,46.9z
		 M39.9,31.3l2.8,10.6h-5.4L39.9,31.3z"/>
</g>
</svg>
