<?xml version="1.0" encoding="utf-8"?>
<!-- Generator: Adobe Illustrator 19.0.0, SVG Export Plug-In . SVG Version: 6.00 Build 0)  -->
<svg version="1.1" id="图层_1" xmlns="http://www.w3.org/2000/svg" xmlns:xlink="http://www.w3.org/1999/xlink" x="0px" y="0px"
	 viewBox="0 0 165 90" style="enable-background:new 0 0 165 90;" xml:space="preserve">
<style type="text/css">
	.st0{fill:#FFFFFF;}
	.st1{fill:#333333;}
</style>
<rect id="XMLID_4_" x="0.2" y="0" class="st0" width="165" height="90"/>
<rect id="XMLID_7_" x="0.2" y="0" class="st0" width="165" height="90"/>
<g id="XMLID_1_">
	<polygon id="XMLID_14_" class="st1" points="35.7,35.1 29.3,35.1 28.8,40.9 35.2,40.9 	"/>
	<polygon id="XMLID_15_" class="st1" points="51.5,35.2 51.2,39.2 56.9,39.2 57.2,35.2 	"/>
	<polygon id="XMLID_16_" class="st1" points="49.9,54.7 55.5,54.7 56.7,40.5 51.1,40.5 	"/>
	<polygon id="XMLID_17_" class="st1" points="42.4,41.6 28.8,41.6 27.6,54.7 34,54.7 34.7,47.1 41.9,47.1 41.2,54.7 47.7,54.7 
		49.3,35.1 42.9,35.1 	"/>
	<path id="XMLID_18_" class="st1" d="M116.3,45.7l-2.6-0.6c-0.7-0.2-1.1-0.3-1.2-0.5c-0.2-0.2-0.2-0.4-0.2-0.6
		c0-0.3,0.2-0.5,0.4-0.7c0.3-0.2,0.7-0.3,1.3-0.3c0.5,0,0.9,0.1,1.2,0.4c0.3,0.2,0.4,0.6,0.4,1h5.1c0-1.2-0.4-2.3-1.4-3.1
		c-1-0.8-2.7-1.3-5.1-1.3c-1.6,0-2.9,0.2-4,0.6c-1,0.4-1.8,0.9-2.4,1.6c-0.6,0.7-0.9,1.5-1,2.4c-0.1,1,0.2,1.8,0.8,2.5
		c0.6,0.7,1.7,1.2,3.3,1.6l3.1,0.8c0.4,0.1,0.7,0.2,0.8,0.4c0.2,0.2,0.2,0.4,0.2,0.7c0,0.3-0.2,0.6-0.5,0.9
		c-0.3,0.2-0.7,0.4-1.3,0.4c-0.6,0-1.1-0.2-1.4-0.5c-0.3-0.3-0.5-0.7-0.4-1.3h-5.4c0,0.7,0.1,1.3,0.3,1.7c0.2,0.6,0.7,1.2,1.2,1.7
		c0.6,0.5,1.3,0.8,2.3,1.1c0.9,0.2,2,0.3,3.2,0.3c1,0,2-0.1,2.9-0.3c0.9-0.2,1.7-0.5,2.4-0.9c0.7-0.4,1.3-0.9,1.7-1.6
		c0.4-0.6,0.7-1.4,0.8-2.2c0.1-1-0.2-1.9-0.8-2.6C119.2,46.6,118,46.1,116.3,45.7z"/>
	<path id="XMLID_21_" class="st1" d="M137.6,45.8c-0.2-1.2-0.7-2.3-1.4-3.2c-0.7-0.9-1.6-1.6-2.7-2c-1.1-0.4-2.2-0.6-3.5-0.6
		c-2.4,0-4.4,0.7-6,2.1c-1.6,1.4-2.5,3.2-2.7,5.5c-0.2,2.1,0.4,3.8,1.7,5.2c1.4,1.3,3.3,2,5.9,2c1.6,0,3-0.3,4.2-0.8
		c1.2-0.5,2.2-1.2,2.9-2.1c0.4-0.5,0.8-1.1,1-1.8h-5.4c-0.5,0.8-1.2,1.1-2.1,1.1c-0.9,0-1.6-0.2-2-0.7c-0.4-0.5-0.7-1.1-0.6-2h10.8
		C137.8,47.6,137.8,46.6,137.6,45.8z M127.2,45.9c0.1-0.8,0.4-1.4,0.9-1.8c0.5-0.4,1.1-0.6,1.8-0.6c0.8,0,1.4,0.2,1.8,0.7
		c0.4,0.4,0.6,1,0.6,1.8H127.2z"/>
	<path id="XMLID_22_" class="st1" d="M100.4,40.1c-1,0-1.9,0.2-2.7,0.6c-0.8,0.4-1.6,1.1-2.3,2l0.2-2.1h-5.2l-1.2,14.1h5.7l0.6-7.4
		c0.1-1,0.3-1.7,0.8-2.1c0.4-0.4,1-0.7,1.6-0.7c0.6,0,1.1,0.2,1.4,0.6c0.3,0.4,0.5,1,0.4,1.8L99,54.7h5.7l0.7-8.9
		c0.2-1.9-0.2-3.3-1.1-4.3C103.4,40.6,102.1,40.1,100.4,40.1z"/>
	<path id="XMLID_23_" class="st1" d="M67.5,45.7l-2.6-0.6c-0.7-0.2-1.1-0.3-1.2-0.5c-0.2-0.2-0.2-0.4-0.2-0.6c0-0.3,0.2-0.5,0.4-0.7
		c0.3-0.2,0.7-0.3,1.3-0.3c0.5,0,0.9,0.1,1.2,0.4c0.3,0.2,0.4,0.6,0.4,1h5.1c0-1.2-0.4-2.3-1.4-3.1c-1-0.8-2.7-1.3-5.1-1.3
		c-1.6,0-2.9,0.2-4,0.6c-1,0.4-1.8,0.9-2.4,1.6c-0.6,0.7-0.9,1.5-1,2.4c-0.1,1,0.2,1.8,0.8,2.5c0.6,0.7,1.7,1.2,3.3,1.6l3.1,0.8
		c0.4,0.1,0.7,0.2,0.8,0.4c0.2,0.2,0.2,0.4,0.2,0.7c0,0.3-0.2,0.6-0.5,0.9c-0.3,0.2-0.7,0.4-1.3,0.4c-0.6,0-1.1-0.2-1.4-0.5
		c-0.3-0.3-0.5-0.7-0.4-1.3H57c0,0.7,0.1,1.3,0.3,1.7c0.2,0.6,0.7,1.2,1.2,1.7c0.6,0.5,1.3,0.8,2.3,1.1c0.9,0.2,2,0.3,3.2,0.3
		c1,0,2-0.1,2.9-0.3c0.9-0.2,1.7-0.5,2.4-0.9c0.7-0.4,1.3-0.9,1.7-1.6c0.4-0.6,0.7-1.4,0.8-2.2c0.1-1-0.2-1.9-0.8-2.6
		C70.4,46.6,69.2,46.1,67.5,45.7z"/>
	<path id="XMLID_28_" class="st1" d="M87.5,42.7c-0.7-0.9-1.6-1.6-2.7-2c-1.1-0.4-2.2-0.6-3.5-0.6c-2.4,0-4.4,0.7-6,2.1
		c-1.6,1.4-2.5,3.2-2.7,5.5c-0.2,2.1,0.4,3.8,1.7,5.2c1.4,1.3,3.3,2,5.9,2c1.6,0,3-0.3,4.2-0.8c1.2-0.5,2.2-1.2,2.9-2.1
		c0.4-0.5,0.8-1.1,1-1.8h-5.4c-0.5,0.8-1.2,1.1-2.1,1.1c-0.9,0-1.6-0.2-2-0.7c-0.4-0.5-0.7-1.1-0.6-2h10.8c0.1-1.1,0.1-2.1-0.1-2.9
		C88.6,44.6,88.2,43.6,87.5,42.7z M78.4,45.9c0.1-0.8,0.4-1.4,0.9-1.8c0.5-0.4,1.1-0.6,1.8-0.6c0.8,0,1.4,0.2,1.8,0.7
		c0.4,0.4,0.6,1,0.6,1.8H78.4z"/>
</g>
</svg>
