<?xml version="1.0" encoding="utf-8"?>
<!-- Generator: Adobe Illustrator 19.0.0, SVG Export Plug-In . SVG Version: 6.00 Build 0)  -->
<svg version="1.1" id="图层_1" xmlns="http://www.w3.org/2000/svg" xmlns:xlink="http://www.w3.org/1999/xlink" x="0px" y="0px"
	 viewBox="-842 481 258 128" style="enable-background:new -842 481 258 128;" xml:space="preserve">
<style type="text/css">
	.st0{fill:#323333;}
</style>
<g>
	<path class="st0" d="M-757.6,556.5L-757.6,556.5c-1.1-1.4-1.4-3.3-0.7-5.5c1.9-6.2,9.1-9.7,19.7-9.7c6.3,0,10.7,1.3,12.6,3.6
		c1.1,1.4,1.4,3.3,0.7,5.5c-1.9,6.2-9.1,9.7-19.7,9.7C-751.4,560.1-755.8,558.9-757.6,556.5 M-746.1,550.5L-746.1,550.5
		c-0.8,2.7-0.8,4.3-0.1,5.3c0.5,0.7,1.4,1.1,2.8,1.1c3,0,4.6-1.6,5.9-5.9c0.8-2.7,0.8-4.3,0.1-5.3c-0.5-0.7-1.4-1.1-2.8-1.1
		C-743.2,544.6-744.8,546.2-746.1,550.5"/>
	<path class="st0" d="M-694.4,556.5L-694.4,556.5c-1.1-1.4-1.4-3.3-0.7-5.5c1.9-6.2,9.1-9.7,19.7-9.7c6.3,0,10.7,1.3,12.6,3.6
		c1.1,1.4,1.4,3.3,0.7,5.5c-1.9,6.2-9.1,9.7-19.7,9.7C-688.1,560.1-692.5,558.9-694.4,556.5 M-682.9,550.5L-682.9,550.5
		c-0.8,2.7-0.8,4.3,0,5.3c0.5,0.7,1.4,1.1,2.8,1.1c3,0,4.6-1.6,5.9-5.9c0.8-2.7,0.8-4.3,0.1-5.3c-0.6-0.7-1.5-1.1-2.8-1.1
		C-679.9,544.6-681.6,546.2-682.9,550.5"/>
	<path class="st0" d="M-820.3,533.3c-0.2,0.7-8,25.9-8.2,26.3H-840c0.2-0.8,8-25.9,8.2-26.3H-820.3z"/>
	<path class="st0" d="M-691.2,541.9c-0.7,0.9-13,17.5-13.2,17.7h-17.3c-0.1-0.5-2.1-17-2.2-17.7h10.6c0.1,0.5,1.5,12.4,1.5,12.4
		s9.1-12.1,9.3-12.4H-691.2z"/>
	<path class="st0" d="M-792.4,549.6c0.2-0.3,0.4-1,0.4-1.9c0-1.3-0.4-2.4-1-3.3c-1.7-2.1-5.4-3.1-11.2-3.1
		c-10.3,0-17.3,3.5-19.1,9.6c-0.8,2.5-0.6,4.5,0.6,6c2.3,2.9,7.9,3.3,11,3.3c8.3-0.1,12.4-1.4,13.2-1.7c0.1-0.2,1.8-4,2.1-4.9
		c-1.8,0.7-7.8,3.4-12.3,3.2c-1.8-0.1-2.9-0.2-3.9-1c-0.7-0.5-0.5-1.5-0.5-1.5S-792.8,549.7-792.4,549.6 M-805.8,544.1
		c1.9,0,2.9,0.7,3.4,1.3c0.4,0.5,0.7,1.3,0.5,2.4l-10.9,5.1l1.4-5.2C-810.7,545.5-808.6,544.1-805.8,544.1"/>
	<path class="st0" d="M-758.7,546c0.1-0.8-0.1-1.4-0.6-1.9c-1.5-1.8-6.1-2.7-13.6-2.7c-5.6,0-10.9,0.7-15,1.4
		c-0.1,0.2-5.4,16.6-5.6,16.9h11.7c0.1-0.2,4.9-14.9,4.9-14.9c4.1-0.3,5.3,0.1,5.9,0.8c0.3,0.4,0.5,0.8,0.4,1.4l-4.1,12.7h11.7
		L-758.7,546z"/>
	<path class="st0" d="M-637.5,537.7c0,0,3.1-0.7,3.9-1.1c0,0,1.6,4.4,1.8,4.6c0,0,1.9-0.6,4.6-4.5c0,0,2.2,1.1,3.4,1.1
		c0,0-2.1,2.2-3.3,3.4c0,0,2.4,0.1,4-0.1l-0.8,2.7c0,0-2.7-0.2-6.6-0.1c0,0-1,2.4-1.3,3.7c0,0,3.2,0.1,7.7-0.1l-0.8,2.8
		c0,0-3.9-0.2-7-0.1c0,0,1,6,5.7,6.8c0,0-2.8,1.9-3.4,2.7c0,0-4.4-2.2-5.2-6.5c0,0-3.3,4.5-9.7,6.3c0,0-0.7-1.6-1.6-2.6
		c0,0,3.7-0.8,5.5-2.2c1.8-1.4,3.3-3.3,3.7-4.5c0,0-3.1-0.1-6.4,0.1l0.9-2.8c0,0,0.8,0.1,6.8,0.1c0,0,1.2-3.3,1.3-3.8
		c0,0-3.6-0.1-6.6,0.1l0.8-2.7c0,0,3.4,0.1,4.2,0.1C-636.1,541.2-636.6,539.2-637.5,537.7"/>
	<path class="st0" d="M-652.9,537.4c0,0,7.2,0.3,13.8,0l-0.8,2.6c0,0-1-0.1-1.2,0c0,0-4.4,12.7-5.9,19.4h-4c0,0,1-2.2,1.5-4.5
		c0,0-5.9,0.9-8.3,1.5c0,0,0.3-1.4-0.2-2.9l1.8-0.2c0,0,2.8-8.9,4.1-13.2c0,0-1.3,0-1.7,0.1L-652.9,537.4z M-647.8,549.6h-3.5
		l-1,3.2c1.4-0.1,2.6-0.4,3.7-0.5L-647.8,549.6z M-646.4,544.9h-3.5l-0.7,2.3h3.5L-646.4,544.9z M-644.8,540h-3.5l-0.8,2.7h3.5
		L-644.8,540z"/>
	<path class="st0" d="M-587.1,537.7c-2.9,0.2-15.1,0-15.2,0h-0.1v0.1c-1.1,4.3-4,12.9-4,12.9v0.1h0.1c3.2-0.2,15.1,0,15.2,0h0.1
		v-0.1c0.5-3.3,3.9-12.9,4-12.9v-0.1H-587.1z M-592.3,541.8h-7.4l0.5-1.6h7.4L-592.3,541.8z M-594.3,548.3h-7.4l0.5-1.7h7.4
		L-594.3,548.3z M-593.3,545h-7.4l0.4-1.5h7.4L-593.3,545z"/>
	<path class="st0" d="M-617.9,539.7c0,0,3.1,0.1,5.9,0.1c0,0,0.5-1.5,0.8-3c0,0,2.8,0,4.1,0c0,0-0.7,2.1-1,3c0,0,2.2,0,3.5-0.1
		l-0.8,2.8c0,0-2.6-0.1-3.3-0.1c0,0,1.9,1.6,2.8,3.9c0,0-1.4,0.4-3.3,1.6c0,0-0.1-1.6-0.8-2.2c0,0-1,3-1.5,5.3h-4.1
		c0,0,0.9-1.9,1.6-4.7c0,0-2.2,1.8-5.4,3.3c0,0-0.4-1.6-1.8-2.7c0,0,4.6-1.4,8-4.7c0,0-3.2-0.1-5.5,0.1L-617.9,539.7z"/>
	<path class="st0" d="M-614.2,552c0,0,1.9,0.1,4.1,0c0,0-0.8,2.3-1,3c-0.2,0.7-0.5,1.3,0.9,1.4c1.4,0.1,5.1,0.2,6.9-0.1
		c1.8-0.2,2.2-2.1,2.4-2.4c0,0,1.6,0.8,3.7,1.1c0,0-1.1,1.6-1.3,1.8c-0.2,0.3-1.3,1.9-3.7,2.2c-2.4,0.4-8,0.2-10.6,0.1
		c-2.7-0.1-3.3-0.5-3-2C-615.4,555.7-614.7,554.2-614.2,552"/>
	<path class="st0" d="M-598.1,552.8c0,0,1.5-0.2,4-1.4c0,0,2.3,3.4,3.3,5.6c0,0-2.8,1.1-3.9,1.8
		C-594.7,558.7-595.7,555.6-598.1,552.8"/>
	<path class="st0" d="M-619.2,551.3c0,0,1.4,0.6,3.6,1c0,0-2.7,4.3-5.1,6.1c0,0-1.9-1.2-3-1.3C-623.8,557-620.8,554.3-619.2,551.3"
		/>
	<path class="st0" d="M-609.7,554.3c0,0,3.1-3,10.7-1.9l0.1,0.1c0,0-4.3-0.1-6.9,3C-605.8,555.5-607.5,554.5-609.7,554.3"/>
</g>
</svg>
