<?xml version="1.0" encoding="utf-8"?>
<!-- Generator: Adobe Illustrator 19.0.0, SVG Export Plug-In . SVG Version: 6.00 Build 0)  -->
<svg version="1.1" id="图层_1" xmlns="http://www.w3.org/2000/svg" xmlns:xlink="http://www.w3.org/1999/xlink" x="0px" y="0px"
	 viewBox="0 0 165 90" style="enable-background:new 0 0 165 90;" xml:space="preserve">
<style type="text/css">
	.st0{fill:#FFFFFF;}
	.st1{fill-rule:evenodd;clip-rule:evenodd;fill:#333333;}
</style>
<rect id="XMLID_4_" class="st0" width="165" height="90"/>
<g id="XMLID_11_">
	<path id="XMLID_12_" class="st1" d="M136.7,37.6c-1.2,0.5-2.1,1.7-2.3,2.7c0,0-1.8,9.1-1.9,9.7c-0.9,4.7-5.1,8.5-11.4,8.5
		c-6.2,0-8.9-3.8-8-8.5l2.1-10.7c0.2-0.9,1.1-1.6,2-1.6l3.6,0c0,0-2,10.1-2.5,12.7c-0.6,3.1,0.9,4.5,3.6,4.5c3.2,0,4.9-2,5.4-4.4
		c0,0,2.1-10.4,2.2-11.2c0.2-0.9,1.1-1.6,2-1.6C131.4,37.6,136.2,37.6,136.7,37.6z M112.6,38.7c-0.2,0.9-1.1,1.6-2,1.6
		c-0.8,0-2.5,0-2.5,0l-2.7,13.5c-0.1,0.9,0.5,1.5,1.3,1.5l0,0h1.9l-0.2,1.1h0c-0.2,0.9-1.1,1.6-2,1.6c-1.4,0-3.4,0-3.4,0s0,0,0,0
		c-2,0-3.4-1.7-3-3.7c0.3-1.6,2.8-14.1,2.8-14.1h-3.6l0.5-2.7h3.6l0.9-4.4c0.2-0.9,1.1-1.6,2-1.6c0.4,0,3.5,0,3.5,0l-1.2,6h4.1
		C112.8,37.6,112.6,38.5,112.6,38.7z M93.5,56.4c-0.2,0.9-1.1,1.6-2,1.6c-0.7,0-3.6,0-3.6,0s3.5-17.6,3.7-18.9
		c0.2-0.9,1.1-1.6,2-1.6c1.3,0,3.6,0,3.6,0S93.7,55.4,93.5,56.4z M87.1,48.5l-14.3,0l0.2-1.1c0.2-0.8,1.1-1.6,1.9-1.6
		c0,0,2.8,0,7.4,0c0.3-1.2,0.5-5.5-4.3-5.5c-3.3,0-6.2,3.3-6.9,7.3c-0.8,4,0.4,7.3,4,7.3c3.2,0,5-1,6.8-3c0.2-0.3,0.7-0.8,1.6-0.8
		c0.9,0,1.9,0,2.6,0c-2.2,4.2-6.5,7.3-11.5,7.3c-6.4,0-9.7-4.8-8.5-10.8c1.2-5.9,6.3-10.8,12.8-10.8c6.5,0,9.7,4.8,8.5,10.8
		C87.2,47.9,87.1,48.5,87.1,48.5z M61.9,54.4c-0.2,1.2,0,3,1.6,3.6c-1,0-3.4,0-3.8,0c-2,0-3.3-1.6-3-3.6c0.2-1,1.8-9.2,1.8-9.2
		c0.4-2.9-0.9-4.7-3.4-4.7c-2.6,0-4.7,1.9-5.4,5.1c-0.7,3.7-2,10.3-2.1,10.9c-0.2,0.9-1.1,1.6-2,1.6c-0.6,0-2.6,0-2.6,0
		c-0.5,0-0.8-0.4-0.7-1c0,0,1.6-8.1,2.3-11.6c0.6-3-0.7-5.1-3.4-5.1c-2.5,0-4.6,1.8-5.3,4.7c0,0-2.1,10.4-2.2,11.2
		c-0.2,0.9-1.1,1.6-2,1.6l-2.6,0c-0.5,0-0.9-0.4-0.7-1c0.1-0.4,1.7-8.8,2.2-11c1-5.2,6-9.3,11.2-9.3c2.9,0,5.2,1.3,6.5,3.4
		c2.1-2.1,5-3.4,7.9-3.4c5.2,0,8.5,4.2,7.5,9.3C63.3,47.4,61.9,54.4,61.9,54.4z"/>
</g>
</svg>
