<?xml version="1.0" encoding="utf-8"?>
<!-- Generator: Adobe Illustrator 19.0.0, SVG Export Plug-In . SVG Version: 6.00 Build 0)  -->
<svg version="1.1" id="图层_1" xmlns="http://www.w3.org/2000/svg" xmlns:xlink="http://www.w3.org/1999/xlink" x="0px" y="0px"
	 viewBox="0 0 165 90" style="enable-background:new 0 0 165 90;" xml:space="preserve">
<style type="text/css">
	.st0{fill:#FFFFFF;}
	.st1{fill:#333333;}
</style>
<rect id="XMLID_4_" x="0.2" y="0" class="st0" width="165" height="90"/>
<rect id="XMLID_7_" x="0.2" y="0" class="st0" width="165" height="90"/>
<g id="XMLID_2_">
	<rect id="XMLID_8_" x="17.3" y="31.1" class="st1" width="13.2" height="13.2"/>
	<rect id="XMLID_9_" x="31.9" y="31.1" class="st1" width="13.2" height="13.2"/>
	<rect id="XMLID_10_" x="17.3" y="45.7" class="st1" width="13.2" height="13.2"/>
	<rect id="XMLID_11_" x="31.9" y="45.7" class="st1" width="13.2" height="13.2"/>
	<path id="XMLID_14_" class="st1" d="M104.7,41.1c-1.9,0-3.5,0.6-4.6,1.7c-1.1,1.1-1.7,2.7-1.7,4.6c0,1.8,0.5,3.3,1.6,4.4
		c1.1,1.1,2.6,1.7,4.4,1.7c1.9,0,3.4-0.6,4.5-1.7s1.7-2.6,1.7-4.5c0-1.9-0.5-3.4-1.6-4.5C108,41.7,106.5,41.1,104.7,41.1z M107,50.3
		c-0.6,0.7-1.4,1-2.4,1c-1,0-1.9-0.4-2.5-1.1c-0.6-0.7-0.9-1.7-0.9-2.9c0-1.3,0.3-2.3,0.9-3c0.6-0.7,1.4-1.1,2.5-1.1
		c1.1,0,1.9,0.4,2.4,1.1c0.6,0.7,0.9,1.7,0.9,3C107.8,48.6,107.5,49.6,107,50.3z"/>
	<path id="XMLID_15_" class="st1" d="M148.1,43.6v-2.2h-2.7V38l-2.6,0.6v2.8h-4.5v-1.8c0-1.3,0.4-2,1.8-2c0.5,0,1,0.1,1.4,0.3v-2.2
		c-0.3-0.1-0.9-0.2-1.5-0.2c-1.1,0-2.2,0.4-2.9,1.1c-0.7,0.7-1.3,1.7-1.3,2.9v1.9h-2v2.2h2v9.7h2.6v-9.7h4.5v6.6
		c0,2.2,1.5,3.3,3.5,3.3c0.7,0,1.5-0.1,1.9-0.4V51c-0.3,0.3-0.8,0.4-1.3,0.4c-0.6,0-0.8-0.2-1.1-0.5c-0.3-0.3-0.4-0.9-0.4-1.6v-5.7
		H148.1z"/>
	<path id="XMLID_30_" class="st1" d="M95.2,41.8c-0.6,0.5-1,1.1-1.2,2h0v-2.4h-2.7v11.9h2.7v-5.5c0-1.3,0.3-2.4,0.8-3.1
		c0.5-0.8,1.2-1.1,2-1.1c0.6,0,1.1,0.1,1.4,0.4v-2.5c-0.3-0.1-0.6-0.2-1.1-0.2C96.4,41.1,95.7,41.4,95.2,41.8z"/>
	<path id="XMLID_33_" class="st1" d="M127.5,41.1c-1.9,0-3.5,0.6-4.6,1.7c-1.1,1.1-1.7,2.7-1.7,4.6c0,1.8,0.5,3.3,1.6,4.4
		c1.1,1.1,2.6,1.7,4.4,1.7c1.9,0,3.4-0.6,4.5-1.7s1.7-2.6,1.7-4.5c0-1.9-0.5-3.4-1.6-4.5C130.8,41.7,129.3,41.1,127.5,41.1z
		 M129.7,50.3c-0.6,0.7-1.4,1-2.4,1c-1,0-1.9-0.4-2.5-1.1c-0.6-0.7-0.9-1.7-0.9-2.9c0-1.3,0.3-2.3,0.9-3c0.6-0.7,1.4-1.1,2.5-1.1
		c1.1,0,1.9,0.4,2.4,1.1c0.6,0.7,0.9,1.7,0.9,3C130.6,48.6,130.3,49.6,129.7,50.3z"/>
	<path id="XMLID_34_" class="st1" d="M119.4,48.5c-0.2-0.3-0.4-0.6-0.7-0.9c-0.3-0.3-0.6-0.5-1.1-0.7c-0.4-0.2-0.9-0.4-1.4-0.6
		c-1.4-0.6-1.8-1.4-1.8-1.9s0.5-1.3,1.6-1.3c1.1,0,2.1,0.3,3,0.8v-2.4c-0.8-0.3-1.7-0.5-2.7-0.5c-0.6,0-1.1,0.1-1.7,0.2
		c-0.5,0.1-1,0.3-1.4,0.6c-0.4,0.3-0.8,0.6-1,1c-0.3,0.4-0.4,0.9-0.4,1.4c0,0,0,0.1,0,0.1c0,0,0,0,0,0.1c0,0.1,0,0.1,0,0.2
		c0,0,0,0.1,0,0.1c0,0.4,0.1,0.8,0.2,1.1c0.1,0.3,0.3,0.6,0.6,0.9c0.3,0.3,0.6,0.5,1,0.7c0.8,0.5,3,1.5,3.3,2
		c0.3,0.4,0.3,1.5-0.6,1.8c-0.3,0.1-0.7,0.1-1.1,0.1c-1.2,0-2.4-0.4-3.4-1.1v2.5c0.9,0.5,1.9,0.7,3.2,0.7c0.6,0,1.2-0.1,1.8-0.2
		c0.6-0.1,1.1-0.3,1.5-0.6c0.4-0.3,0.8-0.6,1-1c0.3-0.4,0.4-0.9,0.4-1.5c0,0,0,0,0-0.1c0,0,0,0,0-0.1c0-0.1,0-0.2,0-0.2
		c0-0.1,0-0.1,0-0.2C119.7,49.2,119.6,48.8,119.4,48.5z"/>
	<rect id="XMLID_35_" x="75.1" y="41.3" class="st1" width="2.7" height="11.9"/>
	<path id="XMLID_36_" class="st1" d="M81.6,42.9c-1.1,1.2-1.7,2.7-1.7,4.7c0,1.7,0.5,3.1,1.6,4.2c1,1.1,2.4,1.6,4.1,1.6
		c1.3,0,2.4-0.3,3.3-0.8v-0.5c0,0,0,0,0,0v-1.6c-0.8,0.6-1.7,0.9-2.7,0.9c-1.1,0-2-0.4-2.7-1.1c-0.7-0.7-1-1.7-1-3
		c0-1.3,0.4-2.3,1.1-3.1c0.7-0.8,1.6-1.2,2.7-1.2c0.9,0,1.8,0.3,2.6,0.8v-2.2c-0.8-0.4-1.7-0.6-2.8-0.6
		C84.2,41.2,82.7,41.8,81.6,42.9z"/>
	<path id="XMLID_37_" class="st1" d="M63.3,49L63.3,49c-0.2-0.4-4.9-12.2-4.9-12.2h-3.9v16.4H57V42.6c0-1.4,0-2-0.1-2.6h0
		c0.2,0.7,5.4,13.3,5.4,13.3h1.9c0,0,5.2-12.5,5.4-13.3h0c-0.1,1.2-0.2,1.8-0.2,2.6v10.7h2.6V36.8h-3.8C68.3,36.8,63.6,48.2,63.3,49
		z"/>
	<path id="XMLID_38_" class="st1" d="M76.5,36.3c-0.4,0-0.8,0.1-1.1,0.4c-0.3,0.3-0.4,0.7-0.4,1.1c0,0.4,0.1,0.8,0.4,1.1
		c0.3,0.3,0.7,0.4,1.1,0.4c0.4,0,0.8-0.1,1.1-0.4c0.3-0.3,0.5-0.7,0.5-1.1c0-0.4-0.1-0.8-0.5-1.1C77.3,36.4,76.9,36.3,76.5,36.3z"/>
</g>
</svg>
