<?xml version="1.0" encoding="utf-8"?>
<!-- Generator: Adobe Illustrator 19.0.0, SVG Export Plug-In . SVG Version: 6.00 Build 0)  -->
<svg version="1.1" id="图层_1" xmlns="http://www.w3.org/2000/svg" xmlns:xlink="http://www.w3.org/1999/xlink" x="0px" y="0px"
	 viewBox="0 0 165 90" style="enable-background:new 0 0 165 90;" xml:space="preserve">
<style type="text/css">
	.st0{fill:#FFFFFF;}
	.st1{fill:#333333;}
</style>
<rect id="XMLID_4_" x="0.2" y="0" class="st0" width="165" height="90"/>
<g id="XMLID_2_">
	<path id="XMLID_45_" class="st1" d="M31.3,34.2l2.1-1.8c0,0-2.8-3.4-7.9-3.4c-2.5,0-7.1,1.8-7.4,6.4c-0.2,9,14.4,4.5,12.6,11.7
		c-2.3,6-11.6,0.6-11.6,0.6l-1.6,2.4c0,0,3.1,3.2,9.2,3c3-0.1,6.6-1.8,7.3-5.9c0.5-3-1.2-5.9-4.3-7c-2.7-1-8.1-0.8-8.1-5.1
		S27.8,31.2,31.3,34.2z"/>
	<path id="XMLID_44_" class="st1" d="M40.8,31.5l-3,1.8L38,50.2c0,0,0.2,3,4.8,3.1h1.7l0.1-3c0,0-3.4,0.9-3.5-1.4
		c-0.4,0-0.3-9.6-0.3-9.6l3.8-0.2l0.1-2.3l-3.8,0.1V31.5z"/>
	<path id="XMLID_43_" class="st1" d="M92.8,61"/>
	<path id="XMLID_40_" class="st1" d="M60.7,42c0.2-5.9-5.3-5.9-5.3-5.9c-5.6-0.2-7,2.5-7,2.5l1.9,1.9c1.5-2.2,4.4-1.8,4.4-1.8
		c4.4-0.1,3.2,4.6,3.2,4.6L53,43.1c-6.2,0.2-5.6,5.3-5.6,5.3c0.5,4.3,3.9,4.8,3.9,4.8c2.8,0.8,9.4-1.1,9.4-1.1S60.5,48,60.7,42z
		 M57.8,49.7c0,0.5-0.4,0.4-0.9,0.6c-1.9,0.5-6.4,1.2-6.5-2c0-3.2,4.3-3,6.2-2.6c0.5,0.1,1.1,0,1.1,0.5V49.7z"/>
	<path id="XMLID_39_" class="st1" d="M72.8,36.1c0,0-7.4-0.4-8.2,1.6v15.6h4.1V41.1c0,0-0.3-2.1,2.5-2.1h1.6L72.8,36.1z"/>
	<polygon id="XMLID_38_" class="st1" points="67.9,29 67.9,33.2 75.5,33.1 75.5,53.2 79.8,53.2 79.8,33 87.7,33 87.7,29 	"/>
	<polygon id="XMLID_13_" class="st1" points="83.5,36.1 87.7,36.1 87.7,53.2 83.5,53.2 	"/>
	<path id="XMLID_12_" class="st1" d="M91.3,39.1v14.2h3.2v-11c0,0-0.5-3.5,3.8-3.3c0,0,3.4-0.2,3.5,3.9v10.4h3.3V42.9
		c0,0-0.6-4.2,3.9-4.2c0,0,3.5-0.1,3.4,3.1c-0.1,3.3,0.2,11.4,0.2,11.4h3.2l-0.2-12.4c0,0-0.3-5-6.2-5c0,0-3.9-0.4-5.9,2.3
		c0,0-1.6-2.4-5.2-2.4C98.4,35.8,92,35.5,91.3,39.1z"/>
	<path id="XMLID_11_" class="st1" d="M145.8,39.7l1.5-1.3c0,0-2-2.4-5.6-2.4c-1.8,0-5.1,1.3-5.3,4.6c-0.2,6.5,10.3,3.2,9.1,8.4
		c-1.7,4.3-8.3,0.4-8.3,0.4l-1.2,1.7c0,0,2.3,2.3,6.6,2.2c2.2-0.1,4.8-1.3,5.3-4.2c0.4-2.2-0.8-4.2-3.1-5c-1.9-0.7-5.8-0.6-5.8-3.6
		C138.9,37.4,143.3,37.5,145.8,39.7z"/>
	<path id="XMLID_6_" class="st1" d="M128.5,46.2c0,0,4.2-0.2,4.2-6.1c0,0,0.5-4.1-6.1-4.1s-7.5,4.9-7.5,4.9l0.2,7.9
		c0,0,1.2,4.4,6,4.4c4.8,0,6.3-1.9,6.3-2.3c0.1-1-1.3-2.1-1.3-2.1s0,1.9-3.8,1.9c-3.8,0-4.4-2.7-3.9-4.5H128.5z M122.4,40.9
		c0,0,0.2-2.4,3.8-2.4c4.3,0,4.2,1.3,4.2,2.5c0,3.4-2.9,3.3-3.9,3.3c-1,0-3.2,0-3.7-0.6C122,42.8,122.4,40.9,122.4,40.9z M133.7,44"
		/>
	<path id="XMLID_5_" class="st1" d="M128,47.4"/>
</g>
</svg>
