<?xml version="1.0" encoding="utf-8"?>
<!-- Generator: Adobe Illustrator 19.0.0, SVG Export Plug-In . SVG Version: 6.00 Build 0)  -->
<svg version="1.1" id="Layer_2" xmlns="http://www.w3.org/2000/svg" xmlns:xlink="http://www.w3.org/1999/xlink" x="0px" y="0px"
	 viewBox="0 0 354.3 240.9" style="enable-background:new 0 0 354.3 240.9;" xml:space="preserve">
<style type="text/css">
	.st0{fill:#323232;}
</style>
<ellipse class="st0" cx="51.4" cy="72" rx="8.1" ry="7.3"/>
<path class="st0" d="M39.6,90.3l5-7.8c0,0,7,5.5,9.2,7.3c2.1,1.8,5.9,5,5.8,10.1c-0.1,5.1-1.6,9.5-2.8,12.6
	c-1.2,3.1-9.1,19.1-9.1,19.1l-12-7.5c0,0,11.6-10.7,16-17.2c1.4-2,3.1-7.4-1.7-10.2C45.3,94,39.6,90.3,39.6,90.3z"/>
<g>
	<path class="st0" d="M55,85.7c0,0,6.6-4.3,13-22c1.8,0.6,11.2,3.1,11.2,3.1l-3.1,5.6c0,0,14-4.3,26-4.3c0,0,6.6-0.3,11.6,1.4
		c5.1,1.7,10.3,5.1,11.6,10.6c1.3,5.5,2.7,24,0.1,40.8c0,0-0.6,3.9-4.2,7.3c-3.6,3.4-8,5.1-15.6,5.1c-7.7,0-11.7-1.5-11.7-1.5
		l1.6-6.5c0,0,4.7,1.8,8.4,1.8c3.7,0,6.8-1.6,8.5-3.5c0,0,1.5-2.2,1.6-4.1c0.1-1.8,0.2-37.3-0.2-38.5c-0.4-1.2-0.8-5.7-6.6-6.8
		c-5.7-1.1-10.3-0.4-11.6-0.1c-1.4,0.3-10.1,2.4-14.4,4.2c1.7,0.6,4.9,1.4,4.9,1.4s-1.5,3.1-4.2,6c3.7-0.1,28.3,0,28.3,0v5.5H94.4
		v7.4H110v5.5H94.4v11.7c0,0,2.6,0,6.4-3c-0.3-2-0.2-2.3-1.1-5.3c2.4-0.6,7.2-2.2,7.2-2.2l6,14.9l-9,3.5l-1.7-6c0,0-2.7,3.1-9.2,5
		c-9.1,2.7-15,2.6-16.5,2.5c0,0-4.4,0.2-7.1-1c-2.7-1.2-6.6-4-6.6-11.9c0-2.7,0.6-4.9,0.6-4.9l11.3,0.1c0,0-0.6,4-0.6,5
		s-0.8,5.4,7.3,5.3c0-5.8-0.1-13.8-0.1-13.8L65.3,104v-5.5h16v-7h-4.1c0,0-4.4,4.2-6.9,6.7L65.7,94c0,0,5.3-5.5,9-13.6
		c-2.1,0.8-5.8,2.5-5.8,2.5s-2.6,3.3-5.8,6.7C60.7,88.4,55,85.7,55,85.7z"/>
	<path class="st0" d="M139.6,93.6V71h12.7v2.9c0,0,18.1-2.5,20.1-2.5v-6.5h14.3v4.9c0,0,9.2-0.8,15.2-0.8c6,0,13,1,15.7,1.9
		c2.7,0.9,5.9,3.2,5.9,8c0,4.8-3.6,9.8-10.8,14.6c-2.2-2.2-3.9-3.8-3.9-3.8l0.1,2.1h-22v7.5h25.2v5.9h-25.2v17.7h34.3v7.3h-81.6
		v-7.3h32.5v-17.5h-22.5v-6.1h22.6V92h-19.7v1.7H139.6z M152.5,80.9l-0.1,5.3h51.9c0,0,5.6-3.4,5.6-6.7c0-3.3-4.3-4.3-7.3-4.4
		c-3-0.2-11.3-0.3-18.1,0.6C177.6,76.3,161.9,78.2,152.5,80.9z"/>
	<ellipse class="st0" cx="203" cy="114.2" rx="8" ry="7.2"/>
	<path class="st0" d="M249.3,108v22.1H235V68.6h14.1v5.4c0,0,13.8-5.3,23.1-7.2c9.3-1.9,14.7-1.9,16.9-1.9c2.2,0,11.4,1,16.5,3
		c5.2,1.9,8.9,5.8,10.4,10c1.5,4.2,1.6,15.5,1.6,20.8s-0.4,21.4-0.9,24.6c-0.6,3.1-1.9,6.7-4.6,8.8c-2.8,2-6.7,1.6-10.4,0.8
		c-3.6-0.7-7.9-2.3-11.5-4.3c0-2.3,0-6.1,0-6.1s3.5,2.5,7,2.5c3.5,0,6.3-2.1,6.3-6.8c0-4.7,0.5-25,0.1-33.3
		c-2.3,3.7-7.1,10.3-9.2,12.7c2.9,2,6.3,5.2,8.3,7.6c-2.7,2.4-9.9,8.3-9.9,8.3s-4.3-6.5-5.3-7.7c-1.1,1.3-8,8.9-18.7,15.2
		c-1.8-2.7-4.4-6-4.4-6s8-2.8,17.8-15.8c-2.1-2.2-5.3-6.3-8-8.1c-1.1,1.6-4.3,5-4.3,5s3,2.2,5.1,6.1c-1.8,1.8-7.6,7.8-7.6,7.8
		l-4.6-7.1c0,0-5.1,5.4-9.8,8.8C250.7,109.2,249.3,108,249.3,108z M258.6,96.7c-3.3-5-8-8.1-8-8.1s2.5-2.8,3.8-4.9
		c2.7,1.8,5.5,3.9,8.6,6.1c2.7-4.5,6.2-12.5,6.2-12.5s8.7,4.3,10.4,5.2c-0.8,2.7-1.6,3.6-1.6,3.6s5.5,3.6,8.8,5.7
		c3.8-7.2,5.5-15.6,5.5-15.6l11.4,6.9c0,0,0-4.3-0.2-6c-0.2-6.2-6.9-6.9-10.5-6.8c-3.6,0.1-11.6,1.6-20.5,3.5
		c-9,1.9-23.1,8.2-23.1,8.2v23.6C254.2,102.5,256.1,100.1,258.6,96.7z"/>
</g>
<g>
	<path class="st0" d="M41.8,151.1c0,0,1.4-5,6.8-4.8c5.4,0.2,9.4,0.5,12.5,0.5c3.1,0,10.2-0.7,11-1c-0.4,1.5-2.1,4.4-4.6,4.4
		c-2.5,0-5.7,0-5.7,0s-1.3,0-1.3,1.6c0,1.7,0,19.8,0,19.8s0.4,2.7,3,2.1c-0.9,2.3-3,3.6-5.6,3.6c-2.6,0-5.1-1.6-5.1-3.9s0-20.9,0-22
		c0-1.1-0.2-1.4-2.2-1.5c-1.2,0-3.6-0.2-5.6,0.1C43.7,150.2,42.6,150.7,41.8,151.1z"/>
	<path class="st0" d="M70.5,156.4c0.2-0.8,0.7-2.3,2.5-3.3c2-1.1,4.9-1.2,6-1.2c1.1,0,4.4,0.2,5.4,0.5c1,0.3,6.8,1.2,6.8,7.5
		s0,12,0,12s0.2,2.5,2.8,1.7c-0.4,2.5-2.8,3.7-4.5,3.7c-1.7,0-4.6-1.1-4.6-3.2c0,0-1.1,3.6-7.2,3.6c-6.1,0-9.4-3.7-9.4-9.1
		c0-5.4,3.9-9.2,9.7-9.2c1.9,0,5.4,0.8,6.8,3.1c0-2.8-0.5-6.7-4.9-7.1C77.7,155.2,73.2,155.3,70.5,156.4z M80.1,163
		c-2.6,0-4.6,2.4-4.6,5.4c0,3,2.1,5.4,4.6,5.4c2.6,0,4.6-2.4,4.6-5.4C84.7,165.4,82.7,163,80.1,163z"/>
	<path class="st0" d="M158.5,156.4c0.2-0.8,0.7-2.3,2.5-3.3c2-1.1,4.9-1.2,6-1.2c1.1,0,4.4,0.2,5.4,0.5s6.8,1.2,6.8,7.5s0,12,0,12
		s0.2,2.5,2.8,1.7c-0.4,2.5-2.8,3.7-4.5,3.7s-4.6-1.1-4.6-3.2c0,0-1.1,3.6-7.2,3.6c-6.1,0-9.4-3.7-9.4-9.1c0-5.4,3.9-9.2,9.7-9.2
		c1.9,0,5.4,0.8,6.8,3.1c0-2.8-0.5-6.7-4.9-7.1C165.7,155.2,161.2,155.3,158.5,156.4z M168.1,163c-2.6,0-4.6,2.4-4.6,5.4
		c0,3,2.1,5.4,4.6,5.4c2.6,0,4.6-2.4,4.6-5.4C172.7,165.4,170.7,163,168.1,163z"/>
	<path class="st0" d="M121.8,164.9c0,7.2-5.7,13.1-12.6,13.1c-7,0-12.6-5.9-12.6-13.1c0-7.2,5.7-13.1,12.6-13.1
		C116.1,151.8,121.8,157.6,121.8,164.9z M109.1,155.8c-2.8,0-5,4.1-5,9.1c0,5,2.2,9.1,5,9.1c2.8,0,5-4.1,5-9.1
		C114.1,159.8,111.9,155.8,109.1,155.8z"/>
	<path class="st0" d="M209.5,164.9c0,7.2-5.7,13.1-12.6,13.1s-12.6-5.9-12.6-13.1c0-7.2,5.7-13.1,12.6-13.1S209.5,157.6,209.5,164.9
		z M196.9,155.8c-2.8,0-5,4.1-5,9.1c0,5,2.2,9.1,5,9.1c2.8,0,5-4.1,5-9.1C201.9,159.8,199.6,155.8,196.9,155.8z"/>
	<path class="st0" d="M274.5,164.9c0,7.2-5.7,13.1-12.6,13.1c-7,0-12.6-5.9-12.6-13.1c0-7.2,5.7-13.1,12.6-13.1
		C268.9,151.8,274.5,157.6,274.5,164.9z M261.9,155.8c-2.8,0-5,4.1-5,9.1c0,5,2.2,9.1,5,9.1c2.8,0,5-4.1,5-9.1
		C266.9,159.8,264.6,155.8,261.9,155.8z"/>
	<path class="st0" d="M123.9,146.9c0,0,0.5-3.7,4.8-3.7c4.3,0,5.2,2.7,5.2,3.4c0,0.7,0,8.4,0,8.4s1.8-2.7,7.4-2.7
		c5.6,0,10.7,3.9,10.7,11.4c0,0,1.2,13.9-11,13.9c-3.9,0-6.2-1.3-7.4-3.2c-0.8,2-2.5,3.1-4.6,3.1s-4.6-1.3-4.6-3.7
		c0.9,0.1,2.6,0,2.6-2.2c0-2.2,0-22.8,0-22.8S126.6,146.9,123.9,146.9z M134,159.7c-0.8,2.3-0.4,8.7,0,9.9s1.7,4.2,5.1,4.2
		c3.4,0,4.5-3.3,4.8-4.4c0.3-1.1,0.8-4-0.2-9.1c-0.9-5.1-4.7-4.6-4.7-4.6C136.2,155.7,134.8,157.4,134,159.7z"/>
	<ellipse class="st0" cx="216.3" cy="174.1" rx="3.5" ry="3.5"/>
	<path class="st0" d="M245.7,173.8c0,0-1.3-1.4-2.4-1.3s-1.8,0.5-2.4,0.7c-0.7,0.3-2.1,0.8-3.3,0.8c-1.3,0-3.6-0.5-5.3-3.1
		c-1.7-2.7-1.7-7.8-1.2-10c0.6-2.2,1.9-3.8,3.4-4.8c1.5-1,4.4-0.6,5.4,0.2c1,0.8,1.5,2.3,3.3,2.3c1.9,0,2.9-2.2,2.6-3.7
		c0,0-3-2.5-9.3-2.5c-5.9,0-9.2,3.1-10.3,4.4c-1.1,1.3-3.1,4.3-3.1,8.3c0,4,2,8.1,4.4,10c2.4,1.9,6,2.8,8.6,2.8
		C238.8,177.8,242.8,176.9,245.7,173.8z"/>
	<path class="st0" d="M276.9,156.1c0,0,0.6-3.8,4.9-3.8c3.6,0,4.5,2.7,4.5,2.7s2.2-2.9,6.9-2.9c4.6,0,6.8,2.2,7.6,3.4
		c1.5-1.5,3.1-3.3,7.3-3.3c4.2,0,7.8,1.5,8.2,5.7c0.4,4.2,0.3,14.7,0.3,14.7s0.4,2,2.6,1.2c0.2,2.3-2.2,3.7-4.5,3.7
		s-4.7-1.4-4.7-4.4c0-3,0-14.2,0-14.2s0.1-3.3-3.8-3.3c-3.9,0-4.3,3.6-4.3,4.7c0,1.1,0,17,0,17h-6.9v-18.4c0,0-0.1-3.4-3.6-3.4
		c-3.6,0-4.5,3-4.5,4.4c0,1.5,0,17.2,0,17.2h-6.9v-18.8C279.8,158.2,280,156.1,276.9,156.1z"/>
</g>
</svg>
