<?xml version="1.0" encoding="utf-8"?>
<!-- Generator: Adobe Illustrator 19.2.0, SVG Export Plug-In . SVG Version: 6.00 Build 0)  -->
<svg version="1.1" id="图层_1" xmlns="http://www.w3.org/2000/svg" xmlns:xlink="http://www.w3.org/1999/xlink" x="0px" y="0px"
	 viewBox="0 0 165 90" style="enable-background:new 0 0 165 90;" xml:space="preserve">
<style type="text/css">
	.st0{fill:#FFFFFF;}
	.st1{fill:#333333;}
</style>
<title>丁香园</title>
<rect id="_路径_" class="st0" width="165" height="90"/>
<g>
	<path class="st1" d="M69.7,39.1h20.9l-0.2,1.4h-7.7l-2.4,13.8c-0.4,1.6-1.9,2.7-3.5,2.7h-4.6l0.2-1.4H77c0.8,0,1.4-0.4,1.6-1.2
		l2.4-13.8H69.5L69.7,39.1z"/>
	<path class="st1" d="M95.9,38.2h16.7l-0.2,1.4h-7.5l-0.4,2.5h9.5l-0.2,1.4h-7.2l6.8,4.4l-1.1,1.2l-8.1-5.3l-0.7,3.6h-1.6l0.7-3.6
		c-3.2,2.3-6.7,4.1-10.4,5.3l-0.3-1.3c3.2-1.1,6.1-2.5,9-4.4h-7.8l0.2-1.4h9.5l0.4-2.5h-7.6L95.9,38.2z M95.3,57.6
		c-1.1,0.1-2.1-0.7-2.2-1.8c0-0.2,0-0.3,0-0.5l0.9-4.9c0.3-1.3,1.5-2.3,3-2.3h11c1.1-0.1,2.1,0.7,2.2,1.8c0,0.2,0,0.3,0,0.5
		l-0.9,4.9c-0.3,1.3-1.5,2.3-3,2.3H95.3L95.3,57.6z M106.5,56.2c0.5,0,1-0.3,1.1-0.9l0.3-1.8H95.1l-0.3,1.8
		c-0.1,0.4,0.2,0.8,0.7,0.9c0.1,0,0.1,0,0.2,0H106.5L106.5,56.2z M95.3,52.1h12.9l0.3-1.6c0.1-0.4-0.2-0.8-0.5-0.9h-0.1H97
		c-0.5,0-1,0.3-1.1,0.9L95.3,52.1z"/>
	<path class="st1" d="M117.4,57.6c-1.3,0.1-2.4-0.9-2.5-2.2c0-0.2,0-0.3,0-0.5l2.4-14c0.3-1.6,1.9-2.7,3.4-2.7h14.3
		c1.3-0.1,2.4,0.9,2.5,2.1c0,0.2,0,0.4,0,0.5l-2.2,14.1c-0.4,1.6-1.9,2.7-3.5,2.7H117.4z M132,56.2c0.8,0,1.4-0.5,1.6-1.2l2.4-14
		c0.1-0.5-0.3-1.1-0.9-1.2c-0.1,0-0.2,0-0.3,0h-14.3c-0.8,0-1.4,0.5-1.5,1.2l-2.5,13.9c-0.1,0.5,0.3,1.1,0.9,1.2c0.1,0,0.2,0,0.2,0
		H132V56.2z M132.3,54.6h-2.1c-1.3,0.1-2.4-0.9-2.5-2.1c0-0.2,0-0.4,0-0.5l0.8-4.6h-4.3c-0.8,3.1-2.5,5.7-5.2,7.6l-0.9-1.1
		c2.2-1.5,3.7-3.8,4.4-6.5h-3.2l0.2-1.4h13.9l-0.2,1.4H130l-0.8,4.6c-0.1,0.5,0.3,1.1,0.9,1.2c0.1,0,0.2,0,0.3,0h2.1L132.3,54.6z
		 M133.5,43.4h-12.8l0.2-1.4h12.8L133.5,43.4z"/>
	<path class="st1" d="M45.6,48.5c0,0,2.5-23.5,22.1-24.6c0,0-0.9,14.8-5.7,18.2c-4.8,3.4-10.2,4.1-13.5,6.1c0,0-1-2.9,12.1-16.9
		C60.6,31.4,52,35,45.6,48.5z"/>
	<path class="st1" d="M27.4,35.7c0,0-0.3,9.9,9,11.8c0,0,5.8,0.5,6.4,1.8C42.7,49.3,39.9,34.8,27.4,35.7"/>
	<path class="st1" d="M35.4,56.6c-1.9,2.7-2.5,6.1-2.1,9.4c6.7-1.9,10.9-8.3,10-15.1l0,0C40,51.8,37.1,53.9,35.4,56.6z"/>
	<path class="st1" d="M46,51c0,0,3.3,12.1,14.4,10.4c0,0-0.2-8.4-8.7-9.4C51.8,52,46.5,51.9,46,51z"/>
</g>
</svg>
