<?xml version="1.0" encoding="utf-8"?>
<!-- Generator: Adobe Illustrator 19.0.0, SVG Export Plug-In . SVG Version: 6.00 Build 0)  -->
<svg version="1.1" xmlns="http://www.w3.org/2000/svg" xmlns:xlink="http://www.w3.org/1999/xlink" x="0px" y="0px"
	 viewBox="0 0 165 90" style="enable-background:new 0 0 165 90;" xml:space="preserve">
<style type="text/css">
	.st0{fill:#FFFFFF;}
	.st1{fill:#333333;}
</style>
<g id="图层_2">
</g>
<g id="图层_1">
	<rect id="XMLID_4_" class="st0" width="165" height="90"/>
	<g id="XMLID_2_">
		<path id="XMLID_13_" class="st1" d="M131.3,36.7c0-8-21.9-10.8-48.8-6.3c-27,4.6-48.8,14.8-48.8,22.8s21.9,10.8,48.8,6.3
			c13-2.2,24.8-5.7,33.5-9.7c-0.2,0-0.4,0.1-0.7,0.1c-0.7,0-1.4-0.1-1.9-0.4c-0.5-0.3-0.8-0.7-0.8-1.3v-6.6c0-1.3,1.1-2,3.4-2
			c2.2,0,3.3,0.6,3.3,1.8v1.9h-2.8v-2.1c0-0.2-0.2-0.2-0.5-0.2c-0.3,0-0.5,0.1-0.5,0.2v7c0,0.2,0.2,0.2,0.5,0.2
			c0.3,0,0.5-0.1,0.5-0.2v-1.9H116v-1.6h3.4v3.5C126.8,44.5,131.3,40.4,131.3,36.7z M55.1,47.9c0,1.4-1.2,2-3.5,2
			c-2.3,0-3.4-0.6-3.4-1.8v-2.3h2.8v2.3c0,0.2,0.2,0.3,0.6,0.3c0.4,0,0.6-0.1,0.6-0.3v-1.2c0-0.4-0.3-0.8-1-1.3
			c-1.3-0.9-2.1-1.5-2.4-1.9c-0.3-0.3-0.5-0.7-0.5-1v-1.1c0-1.3,1.2-2,3.5-2c2.1,0,3.2,0.6,3.2,1.8v1.8H52v-1.9
			c0-0.2-0.2-0.3-0.5-0.3c-0.4,0-0.5,0.2-0.5,0.6l0.1,0.7c0,0.4,0.3,0.8,1,1.3c1.3,0.9,2.1,1.5,2.4,1.9c0.3,0.4,0.5,0.8,0.5,1.2
			V47.9z M63.2,49.8L62,42.5l-1.6,7.3h-2.7L60,39.7h3.9l2.3,10.2L63.2,49.8z M79.5,49.9h-2.7v-5.7l-1.6,5.7h-2.1l-1.8-5.7v5.7h-2.4
			V39.7h3.9l1.4,5.3l1.2-5.3h4.1V49.9z M89.2,47.9c0,1.4-1.2,2-3.5,2c-2.3,0-3.4-0.6-3.4-1.8v-2.3h2.8v2.3c0,0.2,0.2,0.3,0.6,0.3
			c0.4,0,0.6-0.1,0.6-0.3v-1.2c0-0.4-0.3-0.8-1-1.3c-1.3-0.9-2.1-1.5-2.4-1.9c-0.3-0.3-0.5-0.7-0.5-1v-1.1c0-1.3,1.2-2,3.5-2
			c2.1,0,3.2,0.6,3.2,1.8v1.8h-2.8v-1.9c0-0.2-0.2-0.3-0.5-0.3c-0.4,0-0.5,0.2-0.5,0.6l0.1,0.7c0,0.4,0.3,0.8,1,1.3
			c1.3,0.9,2.1,1.5,2.4,1.9c0.3,0.4,0.5,0.8,0.5,1.2V47.9z M99.2,48.1c0,0.6-0.3,1-1,1.4c-0.7,0.3-1.5,0.5-2.6,0.5
			c-1,0-1.8-0.1-2.5-0.4c-0.7-0.3-1.1-0.8-1.1-1.4v-8.4h3v8.5c0,0.2,0.2,0.3,0.5,0.3c0.3,0,0.5-0.1,0.5-0.3v-8.5h3V48.1z
			 M109.8,49.9h-3.1l-2.1-5.4v5.4H102V39.7h3.5l1.7,4.6v-4.6h2.5V49.9z"/>
		<path id="XMLID_19_" class="st0" d="M96.1,48.2c0,0.2-0.2,0.3-0.5,0.3c-0.3,0-0.5-0.1-0.5-0.3v-8.5h-3v8.4c0,0.6,0.4,1.1,1.1,1.4
			c0.7,0.3,1.5,0.4,2.5,0.4c1,0,1.9-0.2,2.6-0.5c0.7-0.3,1-0.8,1-1.4v-8.4h-3V48.2z"/>
		<polygon id="XMLID_20_" class="st0" points="107.2,44.3 105.5,39.7 102,39.7 102,49.9 104.6,49.9 104.6,44.5 106.7,49.9 
			109.8,49.9 109.8,39.7 107.2,39.7 		"/>
		<path id="XMLID_21_" class="st0" d="M86.3,43.6c-0.7-0.5-1-0.9-1-1.3l-0.1-0.7c0-0.4,0.2-0.6,0.5-0.6c0.3,0,0.5,0.1,0.5,0.3v1.9
			H89v-1.8c0-1.2-1-1.8-3.2-1.8c-2.3,0-3.5,0.7-3.5,2v1.1c0,0.4,0.2,0.7,0.5,1c0.3,0.3,1.1,0.9,2.4,1.9c0.7,0.5,1,0.9,1,1.3v1.2
			c0,0.2-0.2,0.3-0.6,0.3c-0.4,0-0.6-0.1-0.6-0.3v-2.3h-2.8v2.3c0,1.2,1.1,1.8,3.4,1.8c2.4,0,3.5-0.7,3.5-2v-1.3
			c0-0.4-0.2-0.9-0.5-1.2C88.4,45.1,87.6,44.5,86.3,43.6z"/>
		<polygon id="XMLID_22_" class="st0" points="74.2,45 72.8,39.7 68.9,39.7 68.9,49.9 71.2,49.9 71.2,44.2 73.1,49.9 75.1,49.9 
			76.7,44.2 76.7,49.9 79.5,49.9 79.5,39.7 75.4,39.7 		"/>
		<path id="XMLID_23_" class="st0" d="M116,44.8v1.6h0.6v1.9c0,0.2-0.2,0.2-0.5,0.2c-0.3,0-0.5-0.1-0.5-0.2v-7
			c0-0.2,0.2-0.2,0.5-0.2c0.3,0,0.5,0.1,0.5,0.2v2.1h2.8v-1.9c0-1.2-1.1-1.8-3.3-1.8c-2.3,0-3.4,0.7-3.4,2v6.6c0,0.6,0.3,1,0.8,1.3
			c0.5,0.3,1.2,0.4,1.9,0.4c0.2,0,0.4,0,0.7-0.1c0,0,0,0,0,0c1.1-0.5,2.2-1,3.3-1.5v-0.1v-3.5H116z"/>
		<path id="XMLID_24_" class="st0" d="M52.1,43.6c-0.7-0.5-1-0.9-1-1.3l-0.1-0.7c0-0.4,0.2-0.6,0.5-0.6c0.3,0,0.5,0.1,0.5,0.3v1.9
			h2.8v-1.8c0-1.2-1-1.8-3.2-1.8c-2.3,0-3.5,0.7-3.5,2v1.1c0,0.4,0.2,0.7,0.5,1c0.3,0.3,1.1,0.9,2.4,1.9c0.7,0.5,1,0.9,1,1.3v1.2
			c0,0.2-0.2,0.3-0.6,0.3c-0.4,0-0.6-0.1-0.6-0.3v-2.3h-2.8v2.3c0,1.2,1.1,1.8,3.4,1.8c2.4,0,3.5-0.7,3.5-2v-1.3
			c0-0.4-0.2-0.9-0.5-1.2C54.2,45.1,53.4,44.5,52.1,43.6z"/>
		<polygon id="XMLID_25_" class="st0" points="60,39.7 57.7,49.9 60.4,49.9 62,42.5 63.2,49.8 66.2,49.9 63.9,39.7 		"/>
	</g>
</g>
</svg>
