<?xml version="1.0" encoding="utf-8"?>
<!-- Generator: Adobe Illustrator 19.0.0, SVG Export Plug-In . SVG Version: 6.00 Build 0)  -->
<svg version="1.1" id="图层_1" xmlns="http://www.w3.org/2000/svg" xmlns:xlink="http://www.w3.org/1999/xlink" x="0px" y="0px"
	 viewBox="0 0 165 90" style="enable-background:new 0 0 165 90;" xml:space="preserve">
<style type="text/css">
	.st0{fill:#FFFFFF;}
	.st1{fill:#333333;}
</style>
<rect id="XMLID_4_" x="0.2" y="0" class="st0" width="165" height="90"/>
<rect id="XMLID_7_" x="0.2" y="0" class="st0" width="165" height="90"/>
<g id="XMLID_118_">
	<g id="XMLID_110_">
		<path id="XMLID_117_" class="st1" d="M94.7,34.2c3.4,1.3,6.2,2.8,8.2,5.7c2.1,3.1,1.6,6.2-1.1,8.8c-2.4,2.2-5.2,3.6-8.2,4.6
			c-6,2-12.2,2.4-18.5,1.6c-7.1-0.9-13.8-2.8-20-6.5c-2.7-1.6-5.1-3.6-7-6.2c-3.8-5.1-3.7-11.4,0.2-16.3c2.9-3.7,6.9-6.1,11.1-8
			c7.6-3.4,14.9-4.2,14.9-4.2l-0.9,0.6c0,0-8.9,2.4-16.2,7.4c-3,2.3-5.3,5.2-6.1,9c-1,4.6,0.2,8.6,3.4,12c3.6,3.9,8.3,6,13.2,7.6
			c7.1,2.4,14.4,2.9,21.8,1.3c1.7-0.4,3.4-1.1,4.8-2.1c3.2-2.2,3.1-6.1,1-8.3c-0.2-0.2-0.7-0.6-0.7-0.6S94.7,36.3,94.7,34.2z"/>
		<path id="XMLID_116_" class="st1" d="M110.3,46.5c3.9-3.3,6.1-7.3,5.7-12.6c-0.3-3.8-2.3-6.8-5.1-9.2c-4-3.5-8.7-5.5-13.7-6.9
			C90.7,16,84,15.7,77.4,17.2c-1.6,0.4-3.3,1.1-4.7,2.1c-2,1.3-3.2,3.5-2.7,5.9c0.4,1.8,2.1,3.2,2.1,3.2s0,4.3,0,6.3
			c-3.8-1.6-7.3-3.2-8.9-7.2c-1-2.6-0.4-4.9,1.4-6.9c2.2-2.3,4.9-3.7,7.9-4.8c6.1-2.1,12.4-2.6,18.8-1.9c6,0.7,11.8,2.1,17.3,4.8
			c3.6,1.7,6.8,3.9,9.5,7c4.8,5.6,4.7,12.7-0.2,18.2c-2.2,2.4-4.8,4.2-7.6,5.7c-5.5,2.9-11.9,4.9-18,5.9c0-0.1,0.8-0.7,0.8-0.7
			S105.9,50.2,110.3,46.5z"/>
		<path id="XMLID_111_" class="st1" d="M73.3,24.3c0,6.8,0,13.5,0,20.3c6.7,0,13.4,0,20.1,0c0-6.8,0-13.6,0-20.3
			C86.7,24.3,80,24.3,73.3,24.3z M77.9,30.5c0,0,0.2-1.7,2-1.7c1.8,0,2.1,1.2,2.1,1.2v1.5h-1.2c0.1-0.8-0.1-1.6-0.9-1.6
			c-0.6,0-0.8,0.8-0.8,0.8v3.6c0,0-0.2,1.5,0.8,1.5c1,0,0.8-1.1,0.8-1.1v-1.2H80v-1.1l2.1,0V37h-1.2l0-0.5c0,0.2-0.3,0.5-1.3,0.5
			c-1.5,0-1.6-1.3-1.6-1.3V30.5z M88.9,40.3H77.9V38h10.9V40.3z M88.9,37h-1.3v-5l-0.9,5h-1.1l-1-5v5h-1.2h-0.2v-7.9h2l0.9,4.8
			l0.8-4.8h1.9V37z"/>
	</g>
	<rect id="XMLID_108_" x="34.4" y="62.9" class="st1" width="2.5" height="9.8"/>
	<rect id="XMLID_107_" x="28" y="71.7" class="st1" width="16.5" height="1.4"/>
	<rect id="XMLID_106_" x="36.9" y="65.8" class="st1" width="6.3" height="1.2"/>
	<rect id="XMLID_105_" x="51.6" y="65.5" class="st1" width="10.2" height="0.9"/>
	<rect id="XMLID_104_" x="51.6" y="65.5" class="st1" width="1.9" height="6.6"/>
	<rect id="XMLID_103_" x="50.7" y="68.2" class="st1" width="12" height="1"/>
	<rect id="XMLID_102_" x="59.7" y="65.8" class="st1" width="2.1" height="5.9"/>
	<rect id="XMLID_101_" x="52.5" y="70.7" class="st1" width="10.3" height="0.9"/>
	<rect id="XMLID_100_" x="53.1" y="63.5" class="st1" width="9.1" height="1"/>
	<rect id="XMLID_99_" x="70.2" y="62.9" class="st1" width="10.3" height="1.3"/>
	<rect id="XMLID_98_" x="69.9" y="65.5" class="st1" width="1.8" height="5.6"/>
	<rect id="XMLID_97_" x="69.9" y="65.3" class="st1" width="10.9" height="0.9"/>
	<polygon id="XMLID_96_" class="st1" points="80.4,70.1 78.9,70.1 78.9,65.5 80.7,65.5 80.7,69.9 80.7,70.1 	"/>
	<rect id="XMLID_95_" x="84.8" y="62.9" class="st1" width="14.2" height="1.3"/>
	<rect id="XMLID_94_" x="86.5" y="65.8" class="st1" width="10.9" height="1.2"/>
	<rect id="XMLID_93_" x="86.2" y="68.6" class="st1" width="12" height="0.9"/>
	<rect id="XMLID_92_" x="90.9" y="64" class="st1" width="2.2" height="9"/>
	<rect id="XMLID_91_" x="97.1" y="63.5" class="st1" width="2" height="7.7"/>
	<rect id="XMLID_90_" x="121.3" y="64" class="st1" width="15.6" height="1.3"/>
	<rect id="XMLID_89_" x="128.5" y="65.9" class="st1" width="2.6" height="7.1"/>
	<rect id="XMLID_86_" x="120.8" y="70.1" class="st1" width="16.6" height="1.3"/>
	<polygon id="XMLID_85_" class="st1" points="135.6,68.6 122.7,68.6 122.7,67.8 122.7,67.6 135.6,67.6 	"/>
	<path id="XMLID_82_" class="st1" d="M126.1,62.9c0,0-2.4,4.2-3.4,4.7h3l3.1-4.7h-3H126.1z"/>
	<path id="XMLID_81_" class="st1" d="M116.1,76.5"/>
	<g id="XMLID_46_">
		<path id="XMLID_79_" class="st1" d="M109.4,64.9h8.3v-1.3h-7.1c0.3-0.4,0.5-0.7,0.5-0.7h-2c-1.2,1.7-2.8,1.4-2.8,1.4l0,1.4
			C107.5,66,108.6,65.5,109.4,64.9z"/>
		<rect id="XMLID_78_" x="108.3" y="65.6" class="st1" width="8.8" height="1.4"/>
		<polygon id="XMLID_50_" class="st1" points="105.7,65 104.3,63.3 102.4,63.3 103.6,65 		"/>
		<polygon id="XMLID_49_" class="st1" points="105.7,67.8 104.5,66.2 102.4,66.2 103.6,67.8 		"/>
		<polygon id="XMLID_48_" class="st1" points="102.4,73 104.4,73 105.8,68.6 103.8,68.6 		"/>
		<path id="XMLID_47_" class="st1" d="M117.7,71.6c0,0-1.5,0.1-1.5-1.6c0-0.4,0-0.7,0-0.9h0v-1.5h-10.1v1.5h7.4v1.1
			c0,0-0.1,2.4,2.8,2.9h2.4v-1.5L117.7,71.6z"/>
	</g>
	<polygon id="XMLID_45_" class="st1" points="50.3,65 48.9,63.3 47,63.3 48.2,65 	"/>
	<polygon id="XMLID_44_" class="st1" points="50.3,67.8 49.1,66.2 47,66.2 48.2,67.8 	"/>
	<polygon id="XMLID_43_" class="st1" points="47,73 49,73 50.4,68.6 48.4,68.6 	"/>
	<polygon id="XMLID_42_" class="st1" points="56.3,66.2 55.4,67.2 56.8,68.3 57.1,68.3 57.3,68.5 58,67.6 	"/>
	<polygon id="XMLID_41_" class="st1" points="56.4,69 55.2,69.8 57,71.1 58,70.1 	"/>
	<path id="XMLID_40_" class="st1" d="M52.8,62.9h2.1c0,0-1.1,2.6-4.4,2.6v-1.3C50.5,64.2,52,64.3,52.8,62.9z"/>
	<path id="XMLID_39_" class="st1" d="M61.8,71.4c0,0,0.3,1.8-2.2,1.7l-2.3,0v-1h2c0,0,0.3,0,0.4-0.3c0-0.1,0.1-0.3,0.1-0.4
		C60,70.7,61.8,71.4,61.8,71.4z"/>
	<polygon id="XMLID_38_" class="st1" points="65.5,62.9 67.6,62.9 68.7,65 66.7,65 	"/>
	<path id="XMLID_37_" class="st1" d="M65.5,65.5v1.2h1.3v4.6c0,0,0.2,0.5-1.3,0.4V73h1.7c0,0,0.9,0,1.1-0.5c0,0,0.2,0.5,0.9,0.5
		l12,0v-1.3h-8h-2.9c0,0-1.6,0.1-1.5-1.3v-4.9L65.5,65.5z"/>
	<polygon id="XMLID_36_" class="st1" points="71.3,64.7 73.9,64.7 74.7,65.5 71.7,65.5 	"/>
	<polygon id="XMLID_35_" class="st1" points="77.3,64 75,65.5 78.4,65.5 80.5,64.3 79,63.8 	"/>
	<path id="XMLID_34_" class="st1" d="M78.9,70c0,0,0.2,0.6-1.3,0.4v0.7l1.8,0c0,0,1.2-0.1,1.4-1.1L78.9,70z"/>
	<rect id="XMLID_33_" x="71.3" y="67" class="st1" width="8.2" height="0.8"/>
	<rect id="XMLID_32_" x="71.1" y="68.6" class="st1" width="8.7" height="0.8"/>
	<rect id="XMLID_30_" x="74.3" y="65.9" class="st1" width="1.9" height="5.3"/>
	<path id="XMLID_29_" class="st1" d="M97.1,70.7c0,0,0.2,0.9-0.4,0.9h-1.6v1.5h2.8c0,0,1.2,0.2,1.2-1v-1L97.1,70.7z"/>
	<path id="XMLID_2_" class="st1" d="M84.8,63.5v7.6c0,0,0,1.6-0.5,1.9l2,0c0,0,0.5-0.1,0.5-1.8v-7.5L84.8,63.5z"/>
</g>
</svg>
