<?xml version="1.0" encoding="utf-8"?>
<!-- Generator: Adobe Illustrator 19.0.0, SVG Export Plug-In . SVG Version: 6.00 Build 0)  -->
<svg version="1.1" id="图层_1" xmlns="http://www.w3.org/2000/svg" xmlns:xlink="http://www.w3.org/1999/xlink" x="0px" y="0px"
	 viewBox="0 0 165 90" style="enable-background:new 0 0 165 90;" xml:space="preserve">
<style type="text/css">
	.st0{fill:#FFFFFF;}
	.st1{fill:none;}
	.st2{fill:#333333;}
</style>
<rect id="XMLID_4_" x="0.2" y="0" class="st0" width="165" height="90"/>
<rect id="XMLID_7_" x="0.2" y="0" class="st0" width="165" height="90"/>
<g id="XMLID_2_">
	<path id="XMLID_3_" class="st1" d="M47.2,49.6c0,0-3.1,0-3.2-3c0,0-0.1-3,3.1-2.9c1.1,0.1,2,0.6,2.8,1.6h2.8c0,0-1.3-3.3-6.2-3.3
		c0,0-4.8,0.1-5.1,4.6c0,0-0.1,4.1,5.7,4.7c0,0,4.7,0.2,5.6-3.2h-2.4C50.2,48.1,48.7,49.7,47.2,49.6z"/>
	<rect id="XMLID_40_" x="93" y="48.7" class="st1" width="3" height="3.3"/>
	<rect id="XMLID_41_" x="97.6" y="43.6" class="st1" width="2.8" height="2.5"/>
	<rect id="XMLID_42_" x="97.6" y="48.7" class="st1" width="2.8" height="3.3"/>
	<rect id="XMLID_43_" x="37.6" y="41.8" class="st1" width="3" height="8.9"/>
	<path id="XMLID_44_" class="st1" d="M23,45.6c-0.7-0.3-1.9-0.5-3.5-0.8c-0.7-0.1-1.1-0.2-1.3-0.3c-0.2-0.1-0.3-0.2-0.3-0.4
		c0-0.2,0.1-0.4,0.3-0.5c0.2-0.1,0.5-0.2,1-0.2c0.5,0,0.9,0.1,1.2,0.3c0.3,0.2,0.5,0.5,0.6,0.9l3.5-0.2c-0.2-0.9-0.6-1.6-1.5-2
		c-0.8-0.4-2-0.6-3.6-0.6c-1.3,0-2.3,0.1-3,0.4c-0.7,0.2-1.3,0.6-1.6,1c-0.4,0.4-0.5,0.8-0.5,1.3c0,0.7,0.4,1.3,1.1,1.7
		c0.7,0.5,1.9,0.8,3.5,1.1c1,0.2,1.6,0.3,1.9,0.5c0.3,0.2,0.4,0.4,0.4,0.6c0,0.2-0.1,0.5-0.4,0.6c-0.3,0.2-0.7,0.3-1.2,0.3
		c-0.7,0-1.3-0.2-1.7-0.5c-0.2-0.2-0.4-0.5-0.5-1L14,47.8c0.1,0.9,0.6,1.6,1.4,2.2c0.8,0.6,2.2,0.9,4.3,0.9c1.2,0,2.2-0.1,2.9-0.4
		c0.8-0.2,1.4-0.6,1.8-1.1c0.4-0.5,0.6-1,0.6-1.6c0-0.5-0.2-0.9-0.5-1.3C24.2,46.1,23.7,45.8,23,45.6z"/>
	<path id="XMLID_47_" class="st1" d="M28.8,41.8l-3.6,8.9h3l0.5-1.5h3.4l0.5,1.5h3.1l-3.6-8.9H28.8z M29.4,47.4l1-3.2l1.1,3.2H29.4z
		"/>
	<rect id="XMLID_48_" x="93" y="43.6" class="st1" width="3" height="2.5"/>
	<polygon id="XMLID_55_" class="st2" points="29.4,47.4 31.5,47.4 30.4,44.2 	"/>
	<polygon id="XMLID_56_" class="st2" points="70.2,44.6 79,44.6 79,40.4 70.2,40.4 70.2,35.3 66,35.3 66,52.4 57.5,52.4 57.5,56.6 
		80,56.6 80,52.4 70.2,52.4 	"/>
	<polygon id="XMLID_57_" class="st2" points="154.5,41.5 154.5,37.8 144.2,37.8 145.4,36.2 142.5,34.1 139.7,37.8 133.7,37.8 
		133.7,41.5 137.1,41.5 134.7,44.8 134.6,44.8 134.6,48.5 142.7,48.5 142.7,50.6 133.2,50.6 133.2,54.2 142.7,54.2 142.7,56.6 
		146.4,56.6 146.4,54.2 154.5,54.2 154.5,50.6 146.4,50.6 146.4,48.5 153.4,48.5 153.4,44.8 146.4,44.8 146.4,42.5 142.7,42.5 
		142.7,44.8 139.1,44.8 141.6,41.5 	"/>
	
		<rect id="XMLID_58_" x="83.9" y="35.5" transform="matrix(0.7071 0.7071 -0.7071 0.7071 51.6911 -49.921)" class="st2" width="4.5" height="3.9"/>
	
		<rect id="XMLID_59_" x="83.5" y="41.8" transform="matrix(0.7071 0.7071 -0.7071 0.7071 56.0432 -47.7731)" class="st2" width="4.5" height="3.9"/>
	<path id="XMLID_60_" class="st2" d="M84.8,47.5c0,0-0.2,3.1-2.6,5.9c2.2,1.4,3.5,3.4,3.5,3.4c1.9-2.4,2-6.9,2-6.9
		C87.4,48.8,84.8,47.5,84.8,47.5z"/>
	
		<rect id="XMLID_67_" x="109.9" y="35.5" transform="matrix(0.7071 0.7071 -0.7071 0.7071 59.3063 -68.3058)" class="st2" width="4.5" height="3.9"/>
	
		<rect id="XMLID_68_" x="109.5" y="41.8" transform="matrix(-0.7071 -0.7071 0.7071 -0.7071 159.7192 153.6852)" class="st2" width="4.5" height="3.9"/>
	<path id="XMLID_69_" class="st2" d="M109.6,50.8c-0.3,0.5-2.1,3.4-2.1,3.4l3.4,1.8c0,0,1-1.1,2-2.8c0.8-1.3,1.6-3.8,1.6-3.8
		l-3.4-1.8C111,47.7,109.9,50.3,109.6,50.8z"/>
	<rect id="XMLID_70_" x="118" y="41.8" class="st2" width="10.3" height="2"/>
	<path id="XMLID_71_" class="st2" d="M116.9,43.5c0,0,1.7-2,2.6-3.8h9.8V37h-8.7c0.4-1.2,0.7-2.1,0.7-2.1H117c0,0-0.3,1.6-1,3
		c-0.7,1.4-2.5,3.5-2.5,3.5L116.9,43.5z"/>
	<path id="XMLID_72_" class="st2" d="M127,53.4c-0.2,0.2-0.4,0.2-0.6,0.1l-0.1-1.3l0-4.6V45H115v3.4h8.3c0,1.6,0,4.9,0,6.3
		c0.4,1.9,2.1,2.1,2.7,2.1s4.1-2.8,4.1-2.8l-1.4-2L127,53.4z"/>
	<path id="XMLID_63_" class="st2" d="M96.3,34.9l-4.2-0.1c-0.2,1.2-4.4,6.6-4.4,6.6h2.7v2.2v2.5h-2.1v2.6h2.1V52h-2.3v2.6h10.6
		L98,55.3l2.3,2.3l3-3h0.7V52h-1v-3.3h1.3v-2.6H103V41h-0.7h-1.9H93v-0.7c0.2-0.2,0.4-0.4,0.6-0.7h10.7V37h-9
		C95.9,35.9,96.3,34.9,96.3,34.9z M96,52h-3v-3.3h3V52z M97.6,43.6h2.8v2.5h-2.8V43.6z M97.6,48.7h2.8V52h-2.8V48.7z M96,43.6v2.5
		h-3v-2.5H96z"/>
	<path id="XMLID_51_" class="st2" d="M53.4,41.6c0,0-13.5-4.1-19.4-3.8c0,0-7.7-0.3-18.7,2.9c0,0,1.7-12.1,17.4-14
		c13.5-0.1,18.1,11.1,19.1,13.6h3.3c0,0-3-17.1-23.2-17.1c0,0-17.8,0.5-20.9,19.2c0,0-1.4,7.8,3.5,9.6h36.3c0,0-3.7,11.8-16.7,11.8
		c0,0-12.1,0.9-17.7-10.1h-3.4c0,0,5.3,13.7,22.1,12.9c0,0,14.4-1,19.6-15.4C54.8,51.3,57.4,43.4,53.4,41.6z M24.4,49.5
		c-0.4,0.5-1,0.9-1.8,1.1c-0.8,0.2-1.8,0.4-2.9,0.4c-2.1,0-3.5-0.3-4.3-0.9c-0.8-0.6-1.3-1.3-1.4-2.2l3.6-0.2c0.1,0.4,0.2,0.8,0.5,1
		c0.4,0.4,0.9,0.5,1.7,0.5c0.5,0,0.9-0.1,1.2-0.3c0.3-0.2,0.4-0.4,0.4-0.6c0-0.2-0.1-0.4-0.4-0.6c-0.3-0.2-0.9-0.4-1.9-0.5
		c-1.6-0.3-2.8-0.6-3.5-1.1c-0.7-0.5-1.1-1-1.1-1.7c0-0.5,0.2-0.9,0.5-1.3c0.4-0.4,0.9-0.7,1.6-1c0.7-0.2,1.7-0.4,3-0.4
		c1.6,0,2.7,0.2,3.6,0.6c0.8,0.4,1.3,1.1,1.5,2l-3.5,0.2c-0.1-0.4-0.3-0.7-0.6-0.9c-0.3-0.2-0.7-0.3-1.2-0.3c-0.4,0-0.8,0.1-1,0.2
		c-0.2,0.1-0.3,0.3-0.3,0.5c0,0.1,0.1,0.3,0.3,0.4c0.2,0.1,0.6,0.2,1.3,0.3c1.6,0.3,2.8,0.5,3.5,0.8c0.7,0.3,1.2,0.6,1.6,1
		c0.3,0.4,0.5,0.8,0.5,1.3C25,48.4,24.8,49,24.4,49.5z M32.6,50.8l-0.5-1.5h-3.4l-0.5,1.5h-3l3.6-8.9h3.2l3.6,8.9H32.6z M40.6,50.8
		h-3v-8.9h3V50.8z M47,51.3c-5.8-0.5-5.7-4.7-5.7-4.7c0.3-4.5,5.1-4.6,5.1-4.6c4.9,0,6.2,3.3,6.2,3.3h-2.8c-0.8-1-1.7-1.5-2.8-1.6
		c-3.3-0.1-3.1,2.9-3.1,2.9c0.1,3.1,3.2,3,3.2,3c1.6,0,3-1.5,3-1.5h2.4C51.7,51.5,47,51.3,47,51.3z"/>
</g>
</svg>
