<svg id="图层_1" data-name="图层 1" xmlns="http://www.w3.org/2000/svg" viewBox="0 0 165 90"><defs><style>.cls-1{fill:#fff;}.cls-2{fill:#333;}</style></defs><title>上汽</title><rect id="_路径_" data-name="&lt;路径&gt;" class="cls-1" width="165" height="90"/><polygon class="cls-2" points="81.97 50.01 83.34 50.01 83.34 47.81 81.95 47.87 76.91 47.87 76.91 42.31 80.46 42.31 81.95 42.31 81.95 40.06 80.46 40.12 76.91 40.12 76.91 36.87 76.91 35.41 74.58 35.41 74.58 36.87 74.58 47.87 69.85 47.87 68.67 47.81 68.67 50.01 69.87 50.01 81.97 50.01"/><path class="cls-2" d="M139.43,35.45H128.19l-1.44-.06V50h2.31V49.62h9.19V50h2.4V35.39Zm-1.17,12h-9.19V44.26L130.68,46c1.53-1.2,3-2.48,3.61-4.06v2.66a0.55,0.55,0,0,1-.67.49,4,4,0,0,1-1-.14l0.22,2.2a5.34,5.34,0,0,0,2.7-.57,2.22,2.22,0,0,0,.72-1.78V41.18h1.6v-2l-0.79,0h-0.81V38.15h-2v1.12h-3.51l-1.09,0v2h2.91a13.62,13.62,0,0,1-3.54,3v-6.5h9.19v9.75Z"/><path class="cls-2" d="M103.18,46.66l-1.84-.84s-0.07,1.69-.49,1.7c-0.16,0-.53-0.37-0.53-1.45V41.83l-0.53,0H93.23l-0.81,0v2h5.81v1.89c0,1.78.77,4.28,2.92,4.24C102.39,50,102.92,48.08,103.18,46.66Z"/><path class="cls-2" d="M90.52,38.86a6.52,6.52,0,0,1,1.65-1.56,9,9,0,0,0-1.14-1,7.5,7.5,0,0,0-1.15-.8l-1.61,1.41a8.46,8.46,0,0,1,1.24,1A8.66,8.66,0,0,1,90.52,38.86Z"/><path class="cls-2" d="M90.26,42.26a5.45,5.45,0,0,1,1.39-1.68,9.48,9.48,0,0,0-1.24-.9A7.84,7.84,0,0,0,89.19,39l-1.37,1.52a8.06,8.06,0,0,1,1.33.82A8.36,8.36,0,0,1,90.26,42.26Z"/><path class="cls-2" d="M91.86,44A9.11,9.11,0,0,1,90,42.94a14,14,0,0,1-2.71,4.92l1.85,1.77A31.46,31.46,0,0,0,91.86,44Z"/><path class="cls-2" d="M91.7,40a5.06,5.06,0,0,1,.66.92,6.41,6.41,0,0,0,1.23-1v1.22h6.84V39.36l-1.11,0H94.14c0.18-.22.36-0.44,0.53-0.67v0h6.84V36.9l-1.11,0H95.64a9.85,9.85,0,0,0,.44-1.32L93.87,35a5.13,5.13,0,0,1-3,4.19S91.26,39.55,91.7,40Z"/><path class="cls-2" d="M113.49,50h2.28V46.92a11,11,0,0,0,5.2,2.62c0.15-.38.81-1.38,1.14-2a8.49,8.49,0,0,1-4.4-1.5h4.07V44l-1,0h-5V43.63h5.5V42l-0.89,0h-3.88V41.61h3.86V40.23l-0.7,0h-3.16V39.84h3.86V38.45l-0.77,0h-3.09V38h4.43V36.33l-1.18,0h-3.25a7.24,7.24,0,0,0-.25-1.34l-2.31.39a4.71,4.71,0,0,1,.26.94h-2.29c0.15-.44.23-0.74,0.23-0.74L109.91,35a7.16,7.16,0,0,1-3.08,4s0.41,0.39.85,0.89a5,5,0,0,1,.66.92,8.63,8.63,0,0,0,1-.63V42.6l-0.06,1h4.24V44.1h-4.88l-1.13,0v2h3.85a12.39,12.39,0,0,1-4.17,1.64,20.52,20.52,0,0,1,1.17,2.06,42.33,42.33,0,0,0,5.16-2.8v3Zm0.83-9.73h-3V39.82h3v0.45Zm0-2.25v0.47h-3V38h3Zm-3,4V41.61h3V42h-3Z"/><rect class="cls-2" x="85.27" y="53.32" width="1.31" height="7.12"/><polygon class="cls-2" points="103.87 58.91 101.64 53.33 99.87 53.33 99.87 60.45 101.08 60.45 101.08 54.87 103.31 60.45 104.43 60.45 106.66 54.87 106.66 60.45 107.87 60.45 107.87 53.33 106.1 53.33 103.87 58.91"/><path class="cls-2" d="M113.81,53.34a5.08,5.08,0,0,0-3.28.36,3.4,3.4,0,0,0-1.88,2.67,3.65,3.65,0,0,0,.8,2.85,4.36,4.36,0,0,0,3.94,1.28,3.62,3.62,0,0,0,3.05-5.21A3.66,3.66,0,0,0,113.81,53.34Zm-0.58,6.25a2.68,2.68,0,0,1-3.3-2.5,3,3,0,0,1,.38-1.76,2.75,2.75,0,0,1,2.45-1.15,2.6,2.6,0,0,1,2.42,1.34C115.48,56,116.21,59.06,113.22,59.59Z"/><path class="cls-2" d="M129.12,53.34a5.07,5.07,0,0,0-3.27.36A3.4,3.4,0,0,0,124,56.38a3.66,3.66,0,0,0,.8,2.85,4.35,4.35,0,0,0,3.94,1.28,3.62,3.62,0,0,0,3.05-5.21A3.67,3.67,0,0,0,129.12,53.34Zm-0.58,6.25a2.68,2.68,0,0,1-3.3-2.5,3,3,0,0,1,.38-1.76,2.74,2.74,0,0,1,2.44-1.15,2.6,2.6,0,0,1,2.43,1.34C130.79,56,131.53,59.06,128.54,59.59Z"/><path class="cls-2" d="M137.46,57.27c1.53-.08,2.34-0.92,2.37-1.83a1.85,1.85,0,0,0-1.1-1.77,5,5,0,0,0-1.71-.29h-4.1v7.07h1.27V57.39h1.43a1.48,1.48,0,0,1,.94.24A18.23,18.23,0,0,1,139,60.45h1.61l-1.79-2.26A2.72,2.72,0,0,0,137.46,57.27Zm-0.9-.82h-2.37V54.3h2.63a1.73,1.73,0,0,1,1.59.63,0.92,0.92,0,0,1-.36,1.23A3.33,3.33,0,0,1,136.56,56.44Z"/><path class="cls-2" d="M79.38,53.32l-3.51,7.12h1.44l0.95-2.1H81.8l0.95,2.1h1.44l-3.51-7.12H79.38Zm-0.71,4.11,1.35-3,1.36,3H78.68Z"/><path class="cls-2" d="M93.12,59.3a2.78,2.78,0,0,1-1.8.27,2.3,2.3,0,0,1-1.9-1.35,3.7,3.7,0,0,1-.25-1.5,2.48,2.48,0,0,1,2.62-2.57A2.12,2.12,0,0,1,94,55.38h1.33a2.85,2.85,0,0,0-.73-1.2,3.39,3.39,0,0,0-1.81-.88,5.33,5.33,0,0,0-2.87.32,3.3,3.3,0,0,0-1.77,1.72,4,4,0,0,0-.28,1.7,4.14,4.14,0,0,0,.35,1.48,3.17,3.17,0,0,0,1.73,1.7,5.6,5.6,0,0,0,3.1.19,3.28,3.28,0,0,0,1.85-1.16,4.3,4.3,0,0,0,.57-1.15H94.12A2,2,0,0,1,93.12,59.3Z"/><path class="cls-2" d="M75,57.24a3.71,3.71,0,0,0-1.66-.79c-0.12,0-1.22-.25-1.22-0.25s-0.29,0-.83-0.18a1.24,1.24,0,0,1-1.08-.67,0.72,0.72,0,0,1,.15-0.63,2.11,2.11,0,0,1,1.55-.51,3.17,3.17,0,0,1,1.28.18,1.25,1.25,0,0,1,.82,1.05h1.21a2.12,2.12,0,0,0-.4-1.17,3.31,3.31,0,0,0-2.49-1,4.31,4.31,0,0,0-2.63.6A1.65,1.65,0,0,0,69.23,56c0.53,0.85,2,1.08,2.36,1.15L73,57.48c1,0.24,1.25.56,1.25,1a1.14,1.14,0,0,1-1,1,3.93,3.93,0,0,1-2.49-.2,1.47,1.47,0,0,1-.87-1.2H68.67a2.43,2.43,0,0,0,.5,1.38c0.85,1.05,2.43,1.12,3.34,1.11A3.62,3.62,0,0,0,75,59.6a1.71,1.71,0,0,0,.47-1.49A1.61,1.61,0,0,0,75,57.24Z"/><polygon class="cls-2" points="116.9 54.31 119.68 54.31 119.68 60.45 120.99 60.45 120.99 54.31 123.76 54.31 123.76 53.32 116.9 53.32 116.9 54.31"/><circle class="cls-2" cx="44.14" cy="47.83" r="21.58"/><polygon class="cls-1" points="40.51 49.63 42.79 49.63 41.65 46.85 40.51 49.63"/><path class="cls-1" d="M60.1,44.6c-1.83-.54-11.07-3.19-16-3.19S30,44.05,28.17,44.6l-0.22.07,0-.12a16.5,16.5,0,0,1,31.89-1.75h2.84a19.22,19.22,0,0,0-37.78,5c0,0.2,0,.4,0,0.6,0.27,4.85,3,5.11,3.55,5.11H59.62l0,0.07A16.5,16.5,0,0,1,29.47,55.4h-3a19.22,19.22,0,0,0,36.89-7.57C63.36,45.52,60.1,44.6,60.1,44.6ZM32.6,52.38c-1.29,0-3.89-.1-4.19-2.54h2.33a1.41,1.41,0,0,0,1.45,1.24,3,3,0,0,0,1.43-.22,0.69,0.69,0,0,0,.51-0.63c0-.74-1.74-0.92-2.6-1.08C30.41,49,28.71,48.46,28.71,47s2-2.07,3.61-2.07c2.66,0,3.58.77,4,2.23H33.83c0-.84-1.08-1-1.87-1a0.84,0.84,0,0,0-1,.65c0,0.36,1,.5,1.53.64,1.56,0.39,4.48.49,4.12,2.73C36.27,52.24,33.94,52.38,32.6,52.38Zm11.28-.06-0.5-1.22H39.88l-0.51,1.22H36.5l3.57-7.22h3.13l3.57,7.22H43.87Zm6.13,0H47.19V45.11H50v7.23Zm9.93-2.61c-0.56,2.38-3.24,2.7-4.35,2.7a5.41,5.41,0,0,1-3.38-.85,3.23,3.23,0,0,1-1.32-2.73c0-1.46.52-3.93,4.82-3.93a4.37,4.37,0,0,1,4.23,2.73H57.5a1.6,1.6,0,0,0-1.77-1,2,2,0,0,0-2.3,2.11,2.1,2.1,0,0,0,2.26,2.19,1.75,1.75,0,0,0,1.9-1.51H60Z"/></svg>