<?xml version="1.0" encoding="utf-8"?>
<!-- Generator: Adobe Illustrator 19.0.0, SVG Export Plug-In . SVG Version: 6.00 Build 0)  -->
<svg version="1.1" id="图层_1" xmlns="http://www.w3.org/2000/svg" xmlns:xlink="http://www.w3.org/1999/xlink" x="0px" y="0px"
	 viewBox="0 0 165 90" style="enable-background:new 0 0 165 90;" xml:space="preserve">
<style type="text/css">
	.st0{fill:#FFFFFF;}
	.st1{fill:none;}
	.st2{fill:#333333;}
</style>
<rect id="XMLID_4_" x="0.2" y="0" class="st0" width="165" height="90"/>
<rect id="XMLID_7_" x="0.2" y="0" class="st0" width="165" height="90"/>
<g id="XMLID_1_">
	<polygon id="XMLID_17_" class="st1" points="119.7,39.4 119.7,39.4 119.3,39.4 118.9,39.5 118.1,39.7 117.4,40.1 116.8,40.6 
		116.8,40.7 116.7,41.1 116.8,41.5 116.9,41.9 117,42.2 117.2,42.1 117.5,42 117.6,41.9 117.8,41.9 118.5,41.7 119,41.4 119.2,41.2 
		119.4,41.1 119.5,41 119.5,40.9 119.7,40.5 119.8,40.2 119.8,39.8 119.7,39.6 	"/>
	<polygon id="XMLID_18_" class="st1" points="112.3,41.9 112,41.9 111.7,41.9 111.4,42 111.4,42.1 111,42.4 110.8,42.8 110.6,43.3 
		110.5,43.8 110.4,44.1 110.5,44.2 110.6,44.5 111,44.5 111.4,44.4 111.8,44.2 112.3,44 112.3,43.9 112.5,43.4 112.5,43.2 112.6,43 
		112.6,42.6 112.6,42.3 112.6,42.2 112.6,42.1 	"/>
	<polygon id="XMLID_19_" class="st1" points="116.5,37.2 116.6,37.3 116.8,37.5 117.1,37.6 117.3,37.7 117.6,37.7 117.9,37.7 
		118.4,37.6 118.4,37.6 118.7,37.4 119.1,37.3 119.4,37.1 119.7,36.9 119.9,36.7 120.2,36.5 120.5,36.3 120.6,36.1 120.7,36.1 
		120.7,36 120.7,36 120.8,36 120.7,35.9 120.5,35.8 120.4,35.6 120.2,35.5 120,35.4 119.4,35.3 118.8,35.4 118.8,35.4 116.9,36.2 
		116.9,36.3 116.5,36.8 116.5,36.9 	"/>
	<polygon id="XMLID_20_" class="st1" points="136.7,59.5 136.7,59.4 136.6,59.3 136.6,59.3 136.6,59.2 136.6,59.1 136.5,59 
		136.5,59 136.4,58.9 136.4,58.8 136.4,58.8 136.3,58.7 136.3,58.7 136.1,58.6 136,58.5 135.9,58.4 135.7,58.4 135.6,58.3 
		135.4,58.3 135.3,58.3 135.1,58.3 134.9,58.3 134.8,58.3 134.6,58.3 134.5,58.4 134.3,58.4 134.2,58.5 134.1,58.6 134,58.7 
		133.9,58.7 133.9,58.8 133.8,58.9 133.8,58.9 133.7,59 133.7,59.1 133.7,59.1 133.6,59.2 133.6,59.3 133.6,59.4 133.6,59.5 
		133.6,59.6 133.5,59.7 133.5,60 133.5,60.2 133.6,60.4 133.6,60.4 133.6,60.5 133.6,60.6 133.6,60.7 133.7,60.8 133.7,60.9 
		133.7,60.9 133.8,61 133.8,61.1 133.9,61.1 133.9,61.2 134,61.2 134,61.3 134.1,61.3 134.1,61.4 134.2,61.4 134.3,61.5 134.5,61.5 
		134.6,61.6 134.8,61.6 134.9,61.6 135.1,61.6 135.3,61.6 135.5,61.6 135.6,61.6 135.8,61.5 135.8,61.5 135.9,61.5 136,61.4 
		136,61.4 136.1,61.4 136.2,61.3 136.2,61.3 136.3,61.2 136.3,61.2 136.4,61.1 136.4,61.1 136.5,61 136.5,60.9 136.5,60.9 
		136.6,60.8 136.6,60.7 136.6,60.5 136.7,60.3 136.7,60.1 136.7,59.9 136.7,59.7 	"/>
	<polygon id="XMLID_21_" class="st1" points="91.3,58.6 91.1,58.6 90.3,60.6 90.3,60.7 92.1,60.7 92.1,60.6 	"/>
	<polygon id="XMLID_22_" class="st1" points="79.3,32.6 79.1,32.6 78.9,32.7 78.8,32.9 78.7,32.9 78.4,33.1 78.2,33.1 78.1,33.2 
		77.8,33.4 77.4,33.4 77,33.5 76.7,33.6 76.4,33.8 76.2,34 75.9,34.2 75.8,34.5 75.6,34.8 75.5,35.2 75.8,37.3 77,37.2 77.3,36.9 
		77.5,36.7 77.7,36.4 78,36.2 78.4,35.7 78.9,35.2 78.9,35.2 79,35 79,34.8 79,34.6 79,34.5 79.1,34.5 79.1,34.4 79.2,34.2 
		79.3,34.1 79.4,33.9 79.6,33.7 79.6,33.6 79.6,33.5 79.6,33.5 79.6,33.5 79.7,33.3 79.7,33 79.7,32.8 79.7,32.7 79.6,32.7 	"/>
	<polygon id="XMLID_23_" class="st1" points="69.9,37.7 69.8,37.2 69.7,36.6 69.2,36.9 68.9,37.1 68.6,37.3 68.5,37.4 68.3,37.6 
		68.1,37.7 68,37.8 67.3,38.1 66.7,38.5 66.2,39 65.8,39.5 65.3,40.1 65,40.7 64.7,41.4 64.5,42.2 64.4,42.2 64.5,42.3 64.5,42.3 
		64.6,42.3 65.3,41.8 66.1,41.4 67,41.1 67.5,41 68.1,41 68.1,40.9 68.4,40.8 68.7,40.6 69,40.4 69.3,40.2 69.5,40 69.8,39.7 
		69.9,39.5 70.1,39.2 70.1,39.1 70,38.4 	"/>
	<polygon id="XMLID_24_" class="st2" points="53,32.7 52.9,32.4 52.8,32 52.7,31.7 52.5,31.4 52.3,31.1 52.1,30.8 51.8,30.5 
		51.6,30.2 51.3,30 51,29.7 50.6,29.5 50.3,29.2 49.9,29 49.5,28.8 49.1,28.6 48.7,28.4 48.2,28.2 47.8,28.1 47.3,27.9 46.8,27.8 
		46.3,27.7 45.8,27.6 45.3,27.5 44.8,27.4 44.3,27.4 43.7,27.4 43.2,27.3 42.6,27.4 42.7,27.6 42.7,27.9 42.8,28.1 42.8,28.4 
		42.9,28.6 42.9,28.9 43,29.1 43,29.4 43.2,29.4 43.4,29.4 43.5,29.5 43.7,29.5 43.9,29.6 44,29.6 44.2,29.7 44.4,29.7 44.5,29.8 
		44.7,29.8 44.8,29.9 45,29.9 45.1,30 45.3,30.1 45.4,30.2 45.5,30.3 45.6,30.3 45.8,30.4 45.9,30.5 46,30.6 46.1,30.8 46.2,30.9 
		46.2,31 46.3,31.1 46.4,31.3 46.5,31.4 46.5,31.6 46.6,31.8 46.6,31.9 46.6,32.1 46.6,32.3 46.6,32.5 46.6,32.8 46.6,33.1 
		46.5,33.5 46.3,33.8 46.1,34.1 45.9,34.4 45.7,34.7 45.4,35 45.2,35.3 44.8,35.6 44.5,35.9 44.1,36.2 43.7,36.5 43.3,36.8 42.9,37 
		42.5,37.3 42,37.6 41.5,37.8 41.1,38 40.6,38.3 40.1,38.5 39.6,38.7 39.1,38.9 38.6,39.1 38,39.3 37.5,39.4 37,39.6 36.5,39.7 
		36,39.8 35.5,39.9 35,40 34.5,40.1 34.5,39.8 34.6,39.6 34.6,39.3 34.7,39 34.7,38.7 34.8,38.5 34.8,38.2 34.9,37.9 34.9,37.7 
		35,37.4 35.1,37.2 35.2,36.9 35.2,36.6 35.3,36.4 35.4,36.2 35.5,35.9 35.6,35.7 35.7,35.5 35.8,35.2 35.9,35 36.1,34.8 36.2,34.6 
		36.3,34.4 36.5,34.2 36.6,34 36.8,33.8 36.9,33.6 37.1,33.4 37.3,33.3 37.4,33.1 37.6,32.9 37.8,32.8 37.9,32.7 38,32.7 38,32.7 
		38.1,32.6 38.2,32.6 38.3,32.6 38.3,32.6 38.4,32.6 38.5,32.6 38.5,32.6 38.6,32.6 38.7,32.6 38.7,32.6 38.8,32.6 38.9,32.6 
		38.9,32.6 39,32.7 39.1,32.7 39.1,32.7 39.2,32.7 39.2,32.8 39.3,32.8 39.4,32.8 39.4,32.9 39.5,32.9 39.7,33 39.8,33.1 39.9,33.2 
		40.1,33.1 40.3,33.1 40.5,33 40.7,33 40.9,32.9 41,32.9 41.2,32.8 41.4,32.8 41.3,32.5 41.2,32.2 41,32 40.9,31.7 40.7,31.4 
		40.6,31.2 40.4,30.9 40.2,30.7 40.1,30.4 39.9,30.2 39.7,29.9 39.5,29.7 39.3,29.5 39.1,29.3 38.9,29.1 38.7,28.9 38.5,28.7 
		38.3,28.6 38.1,28.4 37.9,28.3 37.6,28.1 37.4,28 37.2,27.9 36.9,27.8 36.7,27.7 36.4,27.7 36.1,27.6 35.9,27.6 35.6,27.6 
		35.3,27.6 35,27.7 34.8,27.7 34.4,27.8 34,28 33.6,28.1 33.2,28.3 32.9,28.6 32.6,28.8 32.2,29.1 31.9,29.4 31.6,29.7 31.4,30 
		31.1,30.4 30.8,30.8 30.6,31.2 30.4,31.6 30.1,32 29.9,32.5 29.7,32.9 29.5,33.4 29.3,33.9 29.2,34.4 29,34.9 28.8,35.4 28.7,35.9 
		28.6,36.4 28.4,36.9 28.3,37.5 28.2,38 28.1,38.6 28,39.1 27.9,39.7 27.8,40.2 27.7,40.8 27.4,40.7 27.2,40.7 26.9,40.7 26.7,40.6 
		26.4,40.6 26.2,40.5 25.9,40.5 25.7,40.4 25.5,40.4 25.2,40.3 25,40.2 24.8,40.2 24.6,40.1 24.4,40 24.2,39.9 24,39.8 23.9,39.7 
		23.7,39.6 23.5,39.5 23.4,39.4 23.2,39.3 23.1,39.2 23,39 22.9,38.9 22.7,38.7 22.7,38.6 22.6,38.4 22.5,38.2 22.4,38.1 22.4,37.9 
		22.3,37.7 22.3,37.5 22.3,37.3 22.4,37 22.5,36.8 22.5,36.6 22.6,36.3 22.7,36.1 22.8,35.9 23,35.7 23.1,35.5 23.3,35.3 23.4,35 
		23.6,34.8 23.8,34.6 23.9,34.4 24.1,34.2 24.4,34 24.6,33.8 24.8,33.6 25.1,33.4 25.3,33.3 25.6,33.1 25.8,32.9 26.1,32.7 
		26.4,32.5 26.7,32.3 27,32.1 27.3,32 27.6,31.8 27.9,31.6 28.3,31.4 28.6,31.3 29,31.1 28.9,30.9 28.9,30.8 28.9,30.6 28.8,30.4 
		28.8,30.2 28.7,30.1 28.7,29.9 28.6,29.7 28,29.9 27.4,30.1 26.9,30.4 26.3,30.6 25.7,30.9 25.2,31.1 24.6,31.4 24.1,31.7 23.6,32 
		23.1,32.3 22.6,32.7 22.1,33 21.6,33.3 21.2,33.7 20.8,34 20.4,34.4 20,34.8 19.6,35.1 19.3,35.5 19,35.9 18.7,36.3 18.4,36.7 
		18.1,37.1 17.9,37.5 17.7,37.9 17.5,38.3 17.4,38.7 17.2,39.1 17.2,39.5 17.1,39.9 17.1,40.3 17.1,40.7 17.1,41.1 17.1,41.5 
		17.2,41.9 17.3,42.2 17.5,42.5 17.6,42.9 17.8,43.2 18,43.4 18.2,43.7 18.5,44 18.7,44.2 19,44.4 19.3,44.7 19.6,44.9 20,45.1 
		20.3,45.2 20.7,45.4 21.1,45.6 21.5,45.7 21.9,45.9 22.3,46 22.7,46.1 23.2,46.3 23.6,46.4 24.1,46.5 24.5,46.5 25,46.6 25.5,46.7 
		26,46.8 26.5,46.8 27,46.9 27.5,47 27.5,47.2 27.5,47.5 27.6,47.8 27.6,48.1 27.6,48.3 27.6,48.6 27.6,48.9 27.7,49.1 27.7,49.4 
		27.7,49.6 27.8,49.9 27.8,50.1 27.8,50.4 27.9,50.6 27.9,50.9 27.9,51.1 28,51.4 28,51.6 28.1,51.8 28.1,52.1 28.2,52.3 28.2,52.5 
		28.3,52.8 28.3,53 28.4,53.2 28.4,53.4 28.5,53.6 28.6,53.9 28.6,54.1 28.7,54.3 28.8,54.5 28.8,54.7 29,55.1 29.1,55.5 29.3,55.9 
		29.5,56.3 29.6,56.7 29.8,57.1 30,57.5 30.2,57.8 30.3,58.2 30.5,58.5 30.7,58.8 30.9,59.1 31.1,59.4 31.4,59.7 31.6,59.9 
		31.8,60.2 32,60.4 32.2,60.6 32.5,60.8 32.7,61 33,61.2 33.2,61.3 33.5,61.5 33.7,61.6 34,61.7 34.3,61.8 34.5,61.9 34.8,61.9 
		35.1,62 35.4,62 35.6,62 35.9,62 36.2,62 36.5,61.9 36.8,61.8 37.1,61.7 37.4,61.6 37.7,61.4 38,61.2 38.3,61 38.6,60.8 38.9,60.5 
		39.2,60.2 39.4,59.9 39.7,59.6 40,59.2 40.2,58.8 40.5,58.4 40.8,58 41,57.6 41.2,57.1 41.5,56.6 41.7,56.1 41.9,55.5 42.1,55 
		42.3,54.4 42.5,53.8 42.6,53.2 42.8,52.5 42.9,51.8 43.1,51.2 43.2,50.5 43.3,49.7 43.4,49 43.2,49 43,49.1 42.9,49.1 42.7,49.2 
		42.5,49.2 42.4,49.2 42.2,49.3 42,49.3 41.9,49.4 41.7,49.4 41.5,49.5 41.3,49.5 41.2,49.5 41,49.6 40.8,49.6 40.7,49.7 40.6,50.2 
		40.5,50.6 40.4,51 40.3,51.5 40.2,51.9 40.1,52.2 40,52.6 39.9,52.9 39.9,53.2 39.8,53.5 39.7,53.8 39.6,54.1 39.5,54.3 39.4,54.6 
		39.3,54.8 39.2,55 39.1,55.2 39,55.3 38.9,55.5 38.8,55.6 38.7,55.8 38.6,55.9 38.5,56 38.4,56.1 38.3,56.1 38.2,56.2 38.1,56.3 
		38,56.3 37.9,56.3 37.8,56.4 37.7,56.4 37.6,56.4 37.4,56.3 37.2,56.2 37,56.1 36.9,56 36.7,55.9 36.5,55.8 36.4,55.6 36.2,55.4 
		36,55.2 35.9,55 35.8,54.8 35.6,54.5 35.5,54.3 35.4,54 35.3,53.7 35.2,53.4 35.1,53.1 35,52.7 34.9,52.4 34.8,52 34.8,51.6 
		34.7,51.2 34.7,50.8 34.6,50.3 34.6,49.9 34.5,49.4 34.5,48.9 34.5,48.5 34.4,47.9 34.4,47.4 34.4,46.9 34.4,46.3 35,46.2 
		35.7,46.1 36.4,45.9 37,45.7 37.7,45.5 38.4,45.4 39.2,45.1 39.9,44.9 40.6,44.7 41.3,44.4 42.1,44.2 42.8,43.9 43.5,43.6 
		44.2,43.3 44.9,43 45.6,42.6 46.3,42.2 46.9,41.9 47.6,41.5 48.2,41 48.8,40.6 49.3,40.1 49.9,39.6 50.4,39.1 50.9,38.6 51.3,38 
		51.7,37.4 52.1,36.8 52.4,36.2 52.6,35.5 52.9,34.8 53.1,34.1 53.1,33.7 53.1,33.4 53.1,33 	"/>
	<polygon id="XMLID_25_" class="st2" points="98,46.4 91.2,48.6 91,48.6 90.3,48.7 89.6,48.7 89.2,48.7 88.8,48.8 88.4,48.8 
		88,48.8 88,48.9 88.2,49.4 88.4,49.8 88.7,50.3 89,50.7 89.7,50.6 90.4,50.4 91,50.3 91.3,50.2 91.7,50.1 92.3,49.8 92.6,49.7 
		92.9,49.6 93.1,49.5 93.4,49.3 94,49.1 95,48.4 96,47.8 98,46.4 	"/>
	<polygon id="XMLID_26_" class="st2" points="147.3,49 147.2,48.8 147,48.7 146.9,48.7 146.9,48.3 147,47.9 147.1,46.9 147.2,46.4 
		147.2,45.9 147.2,45.6 147.3,45.4 147.3,44.8 147.3,44.7 146.9,44.2 146.5,43.8 146.1,43.4 145.6,43 145.5,43 144.7,43 144.4,43 
		144.2,43 144.1,43.1 143.2,43.5 143.1,43.6 143,43.6 142.8,43.8 142.4,44 142,44.2 141.9,44.2 141.8,44.3 141.6,44.4 140.8,44.8 
		140.6,44.9 140.4,44.9 140.2,44.8 140,44.7 140,44.6 139.7,44.2 139.3,43.8 138.8,43.5 138.6,43.3 138.4,43.2 138.3,43.2 
		138.1,43.2 138,43.3 137.9,43.5 137.9,43.7 137.8,44.1 137.8,44.5 137.8,44.9 137.9,45.3 138.1,45.7 138.1,45.8 138,45.8 138,47.2 
		138.1,47.2 138.1,48.3 138.2,49.4 138.3,50.4 138.6,51.3 138.6,51.3 139,51.5 139.4,51.7 139.7,51.9 140.1,52.2 140.2,52.2 
		140.5,51.6 140.7,50.9 140.7,50.6 140.8,50.3 141,49.6 141,49.2 141,49 141,48.9 141,48.9 141,48.2 141,47.4 140.9,46.7 141,46.7 
		141.3,46.6 141.7,46.5 142,46.4 142.3,46.3 142.5,46.2 142.8,46 143,45.8 143.2,45.6 143.3,45.5 143.4,45.6 143.4,45.7 143.5,45.9 
		143.5,46.8 143.5,46.9 142.9,47.3 142.4,47.8 142,48.3 141.7,48.9 141.7,49.1 141.6,49.4 141.7,49.8 141.7,50.1 141.8,50.4 
		141.8,50.5 142.9,51.1 143,51.1 144.2,51 144.7,51 145.3,50.9 146.3,50.8 147.3,50.6 147.4,50.5 147.5,50.2 147.5,49.9 147.5,49.7 
		147.5,49.4 147.5,49.2 	"/>
	<polygon id="XMLID_27_" class="st2" points="87.9,38.8 87.9,38.1 87.9,37.8 87.9,37.7 87.9,37.5 87.9,36.3 87.9,36.2 87.9,35.9 
		87.9,35.7 87.8,35.5 87.8,35.4 87.7,35.3 86.8,33.3 86.6,33.8 86.4,34.1 86.4,34.5 86.2,35.2 86.2,36 86.2,38 86,40 85.9,41 
		85.8,42 85.4,44.3 85.4,44.7 85.4,45.1 85.4,45.6 85.4,46.1 85.4,46.6 85.4,47.1 85.4,47.5 85.4,48 85.4,48.3 85.6,48.6 85.7,48.9 
		85.9,49.1 86.2,49.3 86.5,49.4 86.5,49.4 86.6,49 86.8,48.6 86.8,48.3 86.9,47.9 86.9,47.4 86.9,47.2 87,47 86.9,46.8 86.9,46.6 
		86.9,46.1 86.8,44.8 86.9,43.5 87.1,42.3 87.4,41.1 87.5,40.5 87.7,40 	"/>
	<polygon id="XMLID_28_" class="st2" points="98.5,50.3 99.1,51.6 99.7,52.8 99.7,52.9 100.1,53.2 100.6,53.4 101,53.6 101.5,53.9 
		101.7,53.9 101.9,53.7 102.2,53.4 102.4,53.1 102.6,52.8 102.6,52.7 102.6,52.3 102.7,51.8 102.7,51.4 102.7,51 102.7,50.7 
		102.7,50 102.7,49.7 102.7,49.4 102.7,48.7 102.6,48.3 102.6,48 102.6,47.5 102.7,47.1 102.7,46.5 102.7,46 102.7,45.9 102.7,45.9 
		102.8,45.5 102.8,45.2 102.7,44.9 102.7,44.7 102.7,42.2 102.7,41.9 102.7,41.7 102.6,41.4 102.6,41.2 102.6,39 102.6,38.7 
		102.6,38.5 102.5,38.3 102.5,38.2 102.5,38.1 102.5,37.5 102.5,36.9 102.4,36.4 102.3,35.9 102.3,34.8 102.4,34.6 102.5,34.5 
		102.5,34.2 102.5,34 102.5,33.8 102.4,33.5 102.4,33.4 102.3,33.3 102.3,32.3 102.4,32.2 102.4,31.9 102.5,31.6 102.5,31.2 
		102.5,30.8 102.4,30.8 102,30.2 101.7,29.7 100.9,28.8 100.7,28.8 99.6,28.8 99,28.9 98.6,28.9 98.1,29 97.6,29.1 96.8,29.5 
		96.7,29.5 95.8,29.5 94.9,29.7 94.1,29.8 93.3,30.1 92.6,30.3 91.9,30.6 91.3,31 90.7,31.4 90.6,31.4 89.2,31.8 87.9,32.2 89,32.9 
		89,33 89.6,32.9 90.3,32.8 90.6,32.8 90.9,32.7 91.2,32.7 91.5,32.7 91.8,32.6 92,32.5 92.6,32.3 93.1,32.1 93.6,32 94.3,31.6 
		95,31.2 96.3,31 97.5,30.8 97.6,30.8 97.8,30.9 98.1,31 98.4,31 98.8,31 98.9,30.9 99.2,31.2 99.5,31.5 99.7,31.9 99.8,32.4 
		99.9,32.9 99.9,33.4 99.8,34 99.7,34.7 99.7,34.8 99.6,34.8 99.6,36.3 99.6,36.7 99.6,36.9 99.6,37.1 99.5,37.5 99.4,37.7 
		99.4,37.8 99.4,39 99.4,39.4 99.4,39.7 99.4,40 99.3,40.4 99.3,40.2 99,40 98.8,39.8 98.6,39.6 98.4,39.5 98.2,39.4 97.9,39.3 
		97.6,39.3 97.4,39.3 97.4,39.3 97.4,39.7 97.3,40 97.2,40.4 97.1,40.7 96.9,40.9 96.9,41 96.8,41.2 96.6,41.5 96.4,41.7 97.1,41.7 
		97.7,41.5 98.4,41.4 99.2,41.2 99.2,41.1 99.3,41.1 99.3,41.2 99.3,42.4 99.4,43.5 99.5,44.6 99.7,45.8 99.7,45.9 99.2,46.9 
		99.2,47 99.2,47.4 99.2,47.6 99.2,47.7 99.3,47.8 99.2,48.2 99.2,48.6 99.1,48.5 98.8,48.2 98.5,48 98.1,47.8 97.6,47.7 98,49 	"/>
	<polygon id="XMLID_29_" class="st2" points="132.6,41.3 132.7,41.2 132.9,41.5 133,41.8 133.1,42.2 133.2,42.6 133.2,42.7 
		133.2,44.1 133.3,44.1 133.3,44.2 133.1,45.3 133,45.5 133,45.6 133,45.8 133,46.4 132.8,46.9 132.8,47.1 132.7,47.3 132.7,47.4 
		132.5,48.5 132.5,49.1 132.4,49.1 132.4,50.5 132.5,50.9 132.6,51.1 132.7,51.3 132.9,51.4 133,51.4 133.2,51.3 133.4,51.1 
		133.6,50.8 133.8,50.6 134,50.5 134.3,50.3 134.5,50 134.7,49.7 134.9,49.4 134.9,49.2 134.9,49.2 134.9,49.2 134.9,49.2 135,49 
		135,48.7 135.1,48.5 135.1,48 135.1,47.4 135.1,47 135.1,46.6 135.1,46.1 135.2,45.7 135.2,45.4 135.3,45.3 135.3,45 135.3,44.8 
		135.3,44.4 135.3,44 135.4,43.7 135.5,43.5 135.5,43.1 135.5,42.8 135.5,42.2 135.5,42.2 135.5,41.9 135.5,41.7 135.5,41.4 
		135.5,41.2 135.5,40.6 135.5,40.5 135.6,40.4 135.6,40.4 135.6,40.4 135.6,40.4 135.7,40.2 135.7,40.1 135.7,40.1 135.8,39.8 
		135.8,39.6 135.7,39.4 135.7,39.2 135.6,39.2 135.4,38.9 135.1,38.7 134.8,38.5 134.4,38.4 134.4,38.4 134.2,38.4 134,38.3 
		133.9,38.2 133.9,38.1 133.9,38 134,37.6 134,37.4 134,37.4 134,37.3 134.1,37.3 134.1,37.2 134.2,36.7 134.2,36.2 134.2,36.1 
		133.8,35.3 133.5,34.6 133.1,33.9 132.7,33.2 132.7,33.3 132.4,33.6 132.3,34.1 132.2,34.6 132.2,35.2 132.1,35.2 131.8,35.8 
		131.5,36.4 131.2,37 130.9,37.6 130.2,38.8 129.8,39.3 129.5,39.9 129.5,40 129.4,40.2 129.4,40.4 129.3,40.5 129.2,40.7 
		129.2,41.3 129.2,41.5 129.2,41.8 129.2,42.1 129.3,42.3 129.5,42.4 129.7,42.6 129.7,42.7 129.6,43.1 129.6,43.4 129.6,43.6 
		129.7,43.8 129.7,43.9 129.8,44 129.9,44 130.1,43.9 130.1,43.8 130.3,43.4 130.6,43 131.2,42.3 131.8,41.7 	"/>
	<polygon id="XMLID_30_" class="st2" points="95.6,36.6 96,36.1 96.4,35.5 96.9,35 96.9,34.9 96.9,34.3 97,33.8 96.9,33.8 
		96.5,33.2 96.3,32.9 96.1,32.7 96,32.7 94.9,32.9 93.8,33.2 92.7,33.5 91.7,33.9 90.7,34.3 89.8,34.7 88.9,35.2 88.1,35.7 
		88.5,36.3 88.8,36.6 89.1,36.9 89.2,37.1 89.2,37.2 89.4,37.4 89.7,37.5 90.1,37.5 90.5,37.5 91,37.5 91.2,37.5 91.2,37.5 
		91.3,37.9 91.3,38.1 91.3,38.2 91.3,38.3 91.3,38.7 91.3,39.1 90.7,39.3 90.2,39.6 89.7,39.7 89.4,39.9 89,40.1 88.8,40.3 
		88.5,40.6 88.4,40.9 88.2,41.2 88.2,41.6 88.3,41.6 88.9,42.1 89.4,42.6 89.6,42.6 89.8,42.6 90,42.7 90.1,42.9 90.1,43.2 
		90.1,43.3 90,43.4 90,43.5 90,43.6 89.9,43.7 89.5,44 89.2,44.3 89,44.7 88.9,45.1 88.8,45.5 88.8,46 88.8,46.4 89,46.9 89.1,47 
		89.4,47.1 89.6,47.1 89.9,47.1 90,47 90.1,47 90.3,46.9 90.8,46.8 91.8,46.5 92.2,46.3 92.3,46.3 92.5,46.2 92.7,46.2 93.1,46 
		93.2,45.9 93.4,45.9 93.6,45.8 94.5,45.4 95.3,45 96,44.5 96.8,44 96.8,43.9 96.8,43.9 96.9,43.9 96.9,43.7 96.9,43.5 96.8,43.3 
		96.7,43.2 96.7,43 96.4,42.8 96.3,42.7 96.1,42.6 95.8,42.6 95.6,42.6 95.1,42.6 95.1,42.5 95.2,42.2 95.2,41.9 95.2,41.6 
		95.2,41.4 95.3,41.3 95.4,41.2 95.5,41.1 95.5,41.1 95.5,41.1 95.6,41.1 95.7,41 95.8,40.9 95.8,40.9 95.8,40.9 95.9,40.9 
		96.1,40.6 96.1,40.5 96.1,40.5 96.2,40.5 96.2,40.4 96.3,40.3 96.4,40.1 96.4,40.1 96.4,40 96.4,40 96.5,40 96.6,39.8 96.6,39.7 
		96.6,39.7 96.6,39.7 96.7,39.6 96.8,39.2 96.9,38.9 96.9,38.8 96.1,38.1 95.2,37.4 95.2,37.3 	"/>
	<polygon id="XMLID_31_" class="st2" points="71.1,53.3 71,53.2 70.9,53.2 70.9,53.5 71,53.8 71,54 71.2,54.2 71.2,54.1 71.4,54.1 
		71.4,54.3 71.4,54.4 71.5,54.4 71.5,54.5 71.5,54.4 71.5,54.3 71.6,54.2 71.6,54 71.6,53.9 71.6,53.8 71.6,53.8 71.6,53.8 
		71.6,53.7 71.6,53.6 71.2,53.6 71.2,53.5 	"/>
	<path id="XMLID_34_" class="st2" d="M124.8,49.9l0.3-0.1l0,0l0,0l0-0.1l0.1-0.1l0.1-0.2l0.2-0.2l0.2-0.2l0.2-0.2l0.1-0.2l0.1-0.1
		l-0.2-0.1l-0.1-0.1l-0.1-0.3l-0.2-0.3l-0.2-0.3l-0.3-0.3l-0.3-0.2l-0.1,0l-1,0.4l-1.1,0.4l-0.6,0.2l-0.5,0.2l-0.6,0.2l-0.5,0.2
		h-0.1l-0.9,0.1l-0.8,0.1l-0.8-0.1l-0.7-0.1l-0.1,0l-0.2-0.4l-0.2-0.3l-0.2-0.8v-0.1v0h0l0.1-0.1l0.1-0.1l0.2-0.2l0.5-0.5l0-0.1
		l4.5-0.9l0.1,0l0.3-0.3l0.3-0.3l0.3-0.3l0.1-0.2l0.1-0.1l0.1-0.1h0.1v-1.3l-0.6-1l-0.1,0l0.3-0.7l0.2-0.6l0.2-0.6l0.2-0.6l0.1-0.7
		l0.1-0.6l0.1-0.7l0-0.6v-0.1l-1.1-2l-0.1,0l-0.5-0.3l-0.6-0.2l0-0.1l-1.5-0.1l-1.2,0.6l-1.2,0.7l-0.1,0h-0.1l-0.2,0l-0.1-0.1l0-0.2
		l0.1-0.2V34l0.1-0.5l0-0.3v-0.1v-0.1v0h0l0-0.5l0-0.4l-0.1,0l-0.2-0.3l-0.2-0.2l-0.4-0.3l-0.2-0.1l-0.3-0.1l-0.3-0.1h-0.3h-0.1
		l-0.1,0.1l0,0.1l-0.1,0.3L115,32l-0.2,0.4l-0.2,0.4l0,0.1l-0.1,0.8l-0.1,0.3l0,0.4l-0.1,0.3l-0.1,0.4l-0.2,0.7l-0.1,0l-0.7,0.3
		l-0.6,0.4l-0.6,0.4l-0.5,0.5l0.1,0l0.4,0.2l0.4,0.1h0.4l0.5-0.1h0.1l-0.1,0.5l-0.1,0.1l0,0.1l-0.1,0.3l-0.2,0.4l-0.1,0.2l-0.1,0.1
		l0,0.1l-0.3,0.3l-0.3,0.3l-0.4,0.2l-0.1,0l-0.1,0.1l-0.2,0.1h-0.1v-1.2l0.2-1.1l0-0.1l-0.7-0.9l-0.6-0.9l-0.1,0l-0.2,0.6l-0.2,0.6
		l-0.1,0l0,0.1l-0.1,0.1l-0.1,0.3l-0.2,0.2l-0.2,0.2l-0.1,0.3v0.5l0.1,0.6l0,0.2v0.2v0.1v0.1l0,0.1l0,0v0.6l-0.1,0.5l-0.1,0.5
		l-0.1,0.5l-0.1,0.2l0,0.3l-0.1,0.2l-0.1,0.2l-0.1,0.2l-0.1,0.2v0.3l0.1,0.3l0.1,0.2l0.2,0.3l0.2,0.2l0.2,0.2l0.3,0.1l0.3,0.1h0.1
		l0.3,0.5l0.2,0.2l0.3,0.2l0.3,0.1l0.3,0.2l0.7,0.2h0.1l0.3,0.9l0.2,0.4l0.2,0.4l0.5,0.8l0.3,0.4l0.3,0.4l0.3,0.3l0.4,0.2l0.4,0.2
		l0.5,0.2l1.1,0.2l1.2,0.2l0.2,0.1l0.3,0l0.3,0l0.3,0l0,0l0.1,0l0.8-0.2l0.8-0.2l0.8-0.2l0.8-0.2l0.8-0.2l0.3-0.1l0.3-0.1l0.3-0.1
		l0.3-0.1l0.3-0.1l0.3-0.1L124.8,49.9z M119.8,40.2l-0.1,0.4l-0.2,0.4V41l-0.2,0.1l-0.1,0.1l-0.2,0.2l-0.5,0.3l-0.6,0.2l-0.2,0
		l-0.2,0.1l-0.3,0.1l-0.1,0l-0.2-0.3l-0.1-0.4l0-0.4l0.1-0.4v-0.1l0.6-0.5l0.7-0.3l0.8-0.3l0.4-0.1l0.5,0v0.1v0.2l0,0.2V40.2z
		 M116.9,36.3L116.9,36.3l1.9-0.8v-0.1l0.6,0l0.5,0.1l0.2,0.1l0.2,0.1l0.2,0.1l0.2,0.2l0,0.1h-0.1h0v0l-0.1,0.1l-0.1,0.1l-0.3,0.2
		l-0.3,0.2l-0.3,0.2l-0.3,0.2l-0.3,0.2l-0.3,0.1l-0.3,0.2l0,0.1l-0.4,0.1l-0.3,0l-0.3,0l-0.2-0.1l-0.3-0.1l-0.2-0.2l-0.1-0.2l0-0.2
		l0-0.1L116.9,36.3z M112.6,42.3v0.2l0,0.4l-0.1,0.2l-0.1,0.2l-0.2,0.4l0,0.1l-0.5,0.2l-0.4,0.2l-0.4,0.1l-0.3,0l-0.2-0.3l0-0.2
		l0-0.3l0.1-0.5l0.2-0.5l0.3-0.4l0.3-0.3l0-0.1l0.3-0.1l0.3,0l0.3,0l0.3,0.2l0,0.1V42.3z"/>
	<polygon id="XMLID_61_" class="st2" points="73.2,53.6 73.2,53.6 73.1,53.5 73.1,53.3 73.1,53.6 73.1,53.7 73.2,53.9 73.2,53.9 
		73.3,53.9 73.3,53.9 73.3,53.9 73.3,53.9 73.3,53.8 73.3,53.8 	"/>
	<polygon id="XMLID_62_" class="st2" points="77.4,32 77.5,32 77.6,32 77.9,32 78.1,32 78.2,32 78.3,32 78.4,32 78.4,31.9 
		78.4,31.9 78.3,31.8 78.2,31.8 78.2,31.8 78.1,31.8 77.9,31.7 77.5,31.7 77.4,31.8 77.3,31.9 77.2,31.9 77.3,32 	"/>
	<polygon id="XMLID_65_" class="st2" points="140.9,36.5 141.1,36.8 141.2,36.9 141.4,37.1 141.7,37.2 141.9,37.3 142.2,37.5 
		142.5,37.7 143,37.8 143.4,37.9 143.9,38.1 144.1,38.1 144.3,38.2 144.5,38.2 144.8,38.2 145,38.2 145.1,38.1 145.3,38.1 145.5,38 
		145.6,37.9 145.8,37.8 145.9,37.6 146,37.4 146,37.3 146,37.2 146,37.2 146,37.2 146.1,37 146.1,36.8 145.9,36.5 145.8,36.3 
		145.5,35.9 145.3,35.7 145.1,35.6 144.6,35.4 141.9,35.3 141.9,35.3 141.1,35.5 140.8,35.7 140.5,35.9 140.6,36.1 140.7,36.4 	"/>
	<polygon id="XMLID_66_" class="st2" points="148.3,32.2 148.2,32.2 148.1,32.2 148.1,32.1 146.3,32.1 146.2,32.1 145.9,32.1 
		145.6,32.1 145.5,32.1 145.3,32 145.2,31.9 145.1,31.7 145.1,31.5 145.2,31.3 145.2,31.2 145.2,30.9 145.2,30.7 145.1,30.4 
		145,30.3 145,30.2 144.3,29.8 143.9,29.6 143.6,29.5 142.7,29.2 142.6,29.2 142.4,29.2 142.3,29.2 142.2,29.1 142,29.1 141.9,29.2 
		141.8,29.2 141.7,29.2 141.6,29.2 141.5,29.3 141.4,29.3 141.3,29.3 141.2,29.4 141.1,29.4 141,29.5 140.9,29.6 140.8,29.6 
		140.7,29.7 140.6,29.8 140.5,29.9 140.4,30.1 140.2,30.3 139.8,30.7 139.4,31.2 139.5,31.3 139.6,31.4 139.8,31.4 140,31.3 
		140.1,31.2 140.2,31.3 140.3,31.3 140.3,31.4 140.7,31.4 141,31.4 141.3,31.5 141.6,31.6 141.8,31.7 142,31.9 142.2,32.1 
		142.4,32.4 142.1,32.5 141.1,32.7 140.1,33 139.1,33.2 138.1,33.4 137.2,33.4 137.2,33.6 137,33.6 136.6,33.7 136.2,33.8 
		135.9,33.9 135.6,34 135.5,34.3 135.6,34.6 135.7,34.7 135.8,34.9 136,35 136.2,35.1 136.5,35.2 136.8,35.2 136.9,35.2 137.7,34.8 
		138.7,34.6 139.6,34.4 140.6,34.2 144,34.2 145.4,34.2 145.4,34.1 146,34 146.6,34 147.8,33.8 147.8,33.8 147.8,33.4 148,33 
		148.1,32.7 148.3,32.4 148.3,32.3 	"/>
	<polygon id="XMLID_67_" class="st2" points="139.6,39.2 139.7,39.5 139.8,39.8 140,40.1 140.1,40.4 140.3,40.6 140.5,40.8 
		141,41.2 141.1,41.2 141.7,41.3 142.3,41.4 142.8,41.5 143.3,41.7 143.4,41.8 143.9,41.7 144.3,41.7 144.8,41.5 145,41.5 
		145.2,41.4 145.3,41.4 146.2,39.5 146.2,39.4 145.8,39.2 145.4,39.1 144.9,39 144.4,38.9 143.6,38.9 143.6,38.8 141.9,38.8 
		141.9,38.9 141.8,38.9 141.2,38.9 140.6,39 140.1,39.1 	"/>
	<path id="XMLID_70_" class="st2" d="M80.2,32.8v-0.1L80,32.4l-0.3-0.2l-0.2-0.1l-0.2,0l-0.4,0l0,0.1l0.1,0h0v0v0l-0.2,0.1v0.1
		l-0.1,0l-0.2-0.1l-0.2-0.1l-0.3,0l-0.3,0v0.1l-0.4,0L77,32.3l-0.2,0.1h-0.1l0-0.1l0.1-0.1l0.1-0.2l0-0.1l0-0.1l0-0.1l-0.2-0.1
		l-0.2,0l-0.2,0l-0.3,0h-0.8l0,0.2l0.1,0v0.2l-0.6-0.2L74.2,32l-0.3-0.3l-0.2-0.3l-0.2-0.3l-0.1-0.4L73,30.1l-0.3-0.5l-0.3-0.5
		L72,28.8l-0.5-0.3L71,28.2l-0.6-0.2l-0.6-0.1l0.1,0.6L70,29l0.1,0.7l0.1,0.8v1.2l0,0.1L70,32.1l0,0.4l0,0.8h0v0v0.1l-0.3,0.4
		l-0.1,0.5h-0.1l-1.1,0.4l-1.1,0.5l-1,0.5l-0.9,0.6h-0.1l-0.1-0.8l-0.1-0.4l-0.1-0.3l-0.2-0.6l-0.2-0.3l-0.1-0.2l-0.1,0l-0.2,0.4
		l-0.2,0.4l-0.2,0.4l-0.2,0.4l-0.2,0.4l-0.2,0.4l-0.2,0.4L63,36.8l-0.2,0.4l-0.2,0.4l-0.2,0.4l-0.2,0.4l-0.2,0.4L62.1,39l-0.2,0.3
		l-0.1,0.3v0.9h-0.1l0.1,1h0.1l0.1,0.4l0.2,0.4l0.2,0.3l0.3,0.3l0.2,0.2l0.4,0.2l0.4,0.1l0.4,0h0.1l0.2,0.1l0.1,0.1l0.1,0.2l0.1,0.2
		l0.1,0.2l0.1,0.5h0l0.2,0.2l0.4,0.1l0.3,0.1l0.4,0h0.1l1.7-0.6l1.9-0.4v0l0.2,0.9l0.1,1l0.1,1l0.1,1.1v0.1V49l0.1,0.9l0.1,0
		l0.1,0.3v0.2l0,0.2v0.1h-0.1l0.1,0.9h0l0.2,1l0,0.1v0.2l0.1,0.1l0,0l0.1,0v-0.1l0.1-0.1v-0.2l0.1-0.2h0v-0.1v-0.3L71,51.7l0-0.1
		v-0.1v-0.2H71l0.1,0.1l0.2,0.3l0.1,0.1l0.1,0.2l0.1,0.5v0.2l0.1,0.1l0.1,0.1l0.2,0.1l-0.1,0l0,0.1l-0.2,0.3l0,0.4l0.1,0.4l0.2,0.4
		l0.3,0.1l0,0l0.1,0.1l0.1,0.1l0.1-0.2l0.1-0.2l0.1-0.2l0.1-0.2h0.1l0.1-0.2l0.1-0.2v-0.1v-0.1v0h0v-0.1v-0.1v0h0h0.1l0.1-0.2
		l0.1-0.2l0.1-0.2l0.1-0.3l0-0.3l0-0.3v-0.4V51v-0.1l0.1-0.2l0.1-0.2v-0.2v-0.2l0-0.2l0.1-0.2l0.1-0.1l0-0.1l0.1,0l0.2-0.5l0.2-0.6
		l0.1-0.6v-0.1l0.1-0.2l0.1-0.2v-0.2v-0.3v-1.4l0.4-0.8l0.4-0.8l0.2-0.4l0-0.1l0.1-0.1l0.1-0.2l0.4-0.8l0-0.1l0.1-0.1l0.1,0l0.3-0.1
		l0.5-0.1l0.4-0.2l0.5-0.1h0.1l0-0.1l0.1-0.1l0.1-0.2l0-0.1l0.1-0.1l0.1-0.2l0.2-0.5l0.2-0.5v-0.2l0-0.1l0.1-0.2l0.1-0.6l0.1-0.6
		v-0.3v-0.2l0-0.1v-0.1l0.4-0.7l0-0.1l0.1-0.2l0-0.2v-0.2v-0.2V35l0.1-0.6l0-0.3l0.1-0.3v-0.1h0.1l0-0.3v-0.2l0-0.2L80.2,32.8z
		 M70.1,39.2l-0.2,0.3l-0.2,0.3L69.5,40l-0.2,0.2L69,40.4l-0.3,0.2l-0.3,0.2l-0.3,0.2V41l-0.6,0L67,41.1l-0.9,0.3l-0.8,0.3l-0.7,0.5
		l-0.1,0h0l0-0.1l0-0.1l0.2-0.8l0.3-0.7l0.3-0.7l0.4-0.5l0.4-0.5l0.5-0.4l0.5-0.4l0.7-0.3l0.2-0.1l0.2-0.1l0.2-0.1l0.2-0.1l0.3-0.3
		l0.3-0.2l0.4-0.2l0.2,0.5l0.1,0.6l0.1,0.6l0.1,0.7V39.2z M79.7,32.8l0,0.3l0,0.3l-0.1,0.2h0v0v0.1v0.1l-0.1,0.2l-0.1,0.2l-0.2,0.1
		l-0.1,0.2v0.1l0,0.1v0.1v0.2L79,35l0,0.2h-0.1l-0.4,0.5L78,36.2l-0.2,0.2l-0.2,0.3l-0.2,0.2L77,37.2l-1.3,0.1l-0.2-2.1l0.1-0.4
		l0.2-0.3l0.2-0.3l0.3-0.2l0.2-0.2l0.3-0.1l0.3-0.1l0.4-0.1l0.3-0.1l0.3-0.1l0.1-0.1l0.2-0.1l0.3-0.2l0.1,0l0.1-0.2l0.2-0.1l0.2,0
		l0.3,0.1h0.1V32.8z"/>
	<path id="XMLID_74_" class="st2" d="M90.1,57.3l-2.5,5.3h1.9l0.3-0.8l0-0.1h2.6l0,0.1l0.3,0.8h2l-2.5-5.3H90.1z M90.3,60.7l0.1-0.1
		l0.8-2h0.2l0.8,2l0.1,0.1H90.3z"/>
	<polygon id="XMLID_75_" class="st2" points="66.3,60.7 66.3,60.8 66.3,60.9 66.2,61 66.2,61.1 66.1,61.2 66,61.2 65.9,61.3 
		65.8,61.4 65.7,61.5 65.6,61.5 65.5,61.6 65.4,61.6 65.2,61.6 65.1,61.6 64.9,61.6 64.7,61.6 64.6,61.6 64.4,61.6 64.3,61.5 
		64.2,61.5 64.1,61.4 63.9,61.3 63.8,61.3 63.8,61.2 63.7,61.1 63.7,61.1 63.7,61 63.6,61 63.6,60.9 63.6,60.8 63.5,60.7 63.5,60.6 
		63.5,60.4 63.5,60.2 63.5,59.9 63.5,59.7 63.5,59.6 63.5,59.4 63.5,59.3 63.6,59.1 63.6,59 63.7,58.9 63.7,58.9 63.7,58.8 
		63.8,58.8 63.8,58.7 63.9,58.7 63.9,58.6 64,58.6 64.1,58.5 64.1,58.5 64.2,58.4 64.3,58.4 64.4,58.4 64.4,58.3 64.5,58.3 
		64.6,58.3 64.7,58.3 64.8,58.3 64.9,58.3 65,58.3 65.1,58.3 65.2,58.3 65.2,58.3 65.3,58.3 65.4,58.3 65.5,58.3 65.5,58.4 
		65.6,58.4 65.7,58.4 65.8,58.4 65.8,58.5 65.9,58.5 65.9,58.6 66,58.6 66.1,58.7 66.1,58.7 66.2,58.8 66.2,58.9 66.3,59 66.3,59 
		68,58.7 67.9,58.6 67.8,58.4 67.7,58.3 67.6,58.1 67.5,58.1 67.4,58 67.3,57.9 67.3,57.9 67.2,57.8 67.1,57.7 67,57.7 66.9,57.6 
		66.8,57.6 66.7,57.5 66.6,57.5 66.5,57.5 66.4,57.4 66.3,57.4 66.2,57.4 66.1,57.3 65.8,57.3 65.5,57.2 65.2,57.2 64.9,57.2 
		64.7,57.2 64.5,57.2 64.3,57.2 64.2,57.3 64,57.3 63.8,57.3 63.6,57.4 63.5,57.4 63.3,57.5 63.2,57.5 63,57.6 62.9,57.6 62.8,57.7 
		62.6,57.8 62.5,57.8 62.4,57.9 62.3,58 62.2,58.1 62.1,58.2 62,58.3 62,58.4 61.9,58.5 61.8,58.7 61.8,58.8 61.7,58.9 61.7,59 
		61.6,59.2 61.6,59.3 61.6,59.5 61.6,59.6 61.5,59.8 61.5,59.9 61.5,60.1 61.6,60.2 61.6,60.3 61.6,60.4 61.6,60.5 61.6,60.6 
		61.6,60.7 61.7,60.8 61.7,60.9 61.7,61 61.8,61.1 61.8,61.2 61.9,61.3 61.9,61.4 62,61.5 62,61.5 62.2,61.7 62.3,61.8 62.4,62 
		62.6,62.1 62.7,62.2 62.9,62.3 63.1,62.4 63.2,62.4 63.4,62.5 63.6,62.5 63.8,62.6 64,62.6 64.3,62.6 64.5,62.7 64.8,62.7 65,62.7 
		65.3,62.7 65.5,62.7 65.7,62.6 65.9,62.6 66,62.6 66.2,62.6 66.4,62.5 66.5,62.5 66.7,62.4 66.8,62.4 66.9,62.3 67.1,62.2 
		67.2,62.1 67.3,62.1 67.4,62 67.5,61.9 67.6,61.8 67.7,61.7 67.8,61.5 67.8,61.4 67.9,61.3 67.9,61.2 68,61.1 68,61 66.4,60.6 	"/>
	<polygon id="XMLID_76_" class="st2" points="73.6,59.2 71,59.2 71,57.3 69.1,57.3 69.1,62.6 71,62.6 71,60.4 73.6,60.4 73.6,62.6 
		75.5,62.6 75.5,57.3 73.6,57.3 	"/>
	<rect id="XMLID_77_" x="77" y="57.3" class="st2" width="1.9" height="5.3"/>
	<polygon id="XMLID_78_" class="st2" points="85.1,60.2 84.9,60.3 82.3,57.3 80.4,57.3 80.4,62.6 82.2,62.6 82.2,59.7 82.4,59.6 
		85,62.6 86.8,62.6 86.8,57.3 85.1,57.3 	"/>
	<polygon id="XMLID_79_" class="st2" points="113.5,57.3 111.6,57.3 111.6,62.6 116.9,62.6 116.9,61.4 113.5,61.4 	"/>
	<polygon id="XMLID_80_" class="st2" points="143.6,60.6 143.4,60.6 142.3,57.3 139.7,57.3 139.7,62.6 141.2,62.6 141.2,58.5 
		141.5,58.5 142.8,62.6 144.2,62.6 145.5,58.5 145.8,58.5 145.8,62.6 147.3,62.6 147.3,57.3 144.7,57.3 	"/>
	<polygon id="XMLID_81_" class="st2" points="106.8,60.3 110.1,60.3 110.1,59.4 106.8,59.4 106.8,58.3 110.4,58.3 110.4,57.3 
		104.9,57.3 104.9,62.6 110.5,62.6 110.5,61.6 106.8,61.6 	"/>
	<polygon id="XMLID_82_" class="st2" points="119.8,60.3 123.1,60.3 123.1,59.4 119.8,59.4 119.8,58.3 123.4,58.3 123.4,57.3 
		117.9,57.3 117.9,62.6 123.5,62.6 123.5,61.6 119.8,61.6 	"/>
	<polygon id="XMLID_83_" class="st2" points="129.2,60.7 129.1,60.8 129.1,60.9 129,61 129,61.1 128.9,61.2 128.8,61.2 128.7,61.3 
		128.6,61.4 128.5,61.5 128.4,61.5 128.3,61.6 128.2,61.6 128,61.6 127.9,61.6 127.7,61.6 127.6,61.6 127.4,61.6 127.3,61.6 
		127.1,61.5 127,61.5 126.9,61.4 126.8,61.3 126.7,61.3 126.6,61.2 126.6,61.1 126.5,61.1 126.5,61 126.4,61 126.4,60.9 126.4,60.8 
		126.4,60.7 126.3,60.6 126.3,60.4 126.3,60.2 126.3,59.9 126.3,59.7 126.3,59.6 126.3,59.4 126.3,59.3 126.4,59.1 126.4,59 
		126.5,58.9 126.5,58.9 126.5,58.8 126.6,58.8 126.6,58.7 126.7,58.7 126.8,58.6 126.8,58.6 126.9,58.5 127,58.5 127,58.4 
		127.1,58.4 127.2,58.4 127.3,58.3 127.3,58.3 127.4,58.3 127.5,58.3 127.6,58.3 127.7,58.3 127.8,58.3 127.9,58.3 128,58.3 
		128.1,58.3 128.1,58.3 128.2,58.3 128.3,58.3 128.4,58.4 128.4,58.4 128.5,58.4 128.6,58.4 128.6,58.5 128.7,58.5 128.8,58.6 
		128.8,58.6 128.9,58.7 128.9,58.7 129,58.8 129,58.9 129.1,59 129.1,59 130.8,58.7 130.7,58.6 130.6,58.4 130.5,58.3 130.4,58.1 
		130.3,58.1 130.2,58 130.2,57.9 130.1,57.9 130,57.8 129.9,57.7 129.8,57.7 129.8,57.6 129.7,57.6 129.6,57.5 129.5,57.5 
		129.4,57.5 129.2,57.4 129.1,57.4 129,57.4 128.9,57.3 128.6,57.3 128.4,57.2 128.1,57.2 127.8,57.2 127.6,57.2 127.4,57.2 
		127.2,57.2 127,57.3 126.8,57.3 126.6,57.3 126.5,57.4 126.3,57.4 126.1,57.5 126,57.5 125.9,57.6 125.7,57.6 125.6,57.7 
		125.5,57.8 125.3,57.8 125.2,57.9 125.1,58 125,58.1 124.9,58.2 124.9,58.3 124.8,58.4 124.7,58.5 124.6,58.7 124.6,58.8 
		124.5,58.9 124.5,59 124.4,59.2 124.4,59.3 124.4,59.5 124.4,59.6 124.4,59.8 124.4,59.9 124.4,60.1 124.4,60.2 124.4,60.3 
		124.4,60.4 124.4,60.5 124.4,60.6 124.5,60.7 124.5,60.8 124.5,60.9 124.6,61 124.6,61.1 124.6,61.2 124.7,61.3 124.7,61.4 
		124.8,61.5 124.9,61.5 125,61.7 125.1,61.8 125.3,62 125.4,62.1 125.6,62.2 125.7,62.3 125.9,62.4 126,62.4 126.2,62.5 126.4,62.5 
		126.6,62.6 126.8,62.6 127.1,62.6 127.3,62.7 127.6,62.7 127.9,62.7 128.1,62.7 128.3,62.7 128.5,62.6 128.7,62.6 128.9,62.6 
		129,62.6 129.2,62.5 129.3,62.5 129.5,62.4 129.6,62.4 129.8,62.3 129.9,62.2 130,62.1 130.1,62.1 130.2,62 130.3,61.9 130.4,61.8 
		130.5,61.7 130.6,61.5 130.6,61.4 130.7,61.3 130.8,61.2 130.8,61.1 130.8,61 129.2,60.6 	"/>
	<path id="XMLID_86_" class="st2" d="M138.6,59.4l0-0.1l0-0.1l0-0.1l0-0.1l-0.1-0.1l-0.1-0.1l-0.1-0.1l-0.1-0.1l-0.1-0.1l-0.1-0.1
		l-0.1-0.1l-0.1-0.1l-0.1-0.1l-0.1-0.1l-0.1-0.1l-0.1-0.1l-0.1-0.1l-0.1-0.1l-0.1-0.1l-0.2-0.1l-0.2,0l-0.2,0l-0.2,0l-0.2,0l-0.2,0
		l-0.2,0l-0.2,0l-0.2,0h-0.2h-0.2l-0.2,0l-0.2,0l-0.2,0l-0.2,0l-0.2,0l-0.2,0l-0.2,0l-0.2,0l-0.1,0.1l-0.1,0.1l-0.1,0.1l-0.1,0.1
		l-0.1,0.1l-0.1,0.1l-0.1,0.1l-0.1,0.1l-0.1,0.1l-0.1,0.1l-0.1,0.1l-0.1,0.1l-0.1,0.1l-0.1,0.1l-0.1,0.1l-0.1,0.1l0,0.1l0,0.1l0,0.2
		l0,0.1l0,0.2l0,0.2V60l0,0.2l0,0.2l0,0.1l0,0.1l0,0.1l0,0.1l0,0.1l0,0.1l0,0.1l0,0.1l0,0.1l0,0.1l0,0.1l0.1,0.1l0.1,0.1l0.1,0.1
		l0.1,0.1l0.1,0.1l0.1,0.1l0.2,0.1l0.2,0.1l0.2,0.1l0.2,0.1l0.2,0.1l0.2,0l0.2,0l0.2,0l0.3,0l0.3,0l0.3,0l0.3,0l0.3,0l0.2,0l0.2,0
		l0.2,0l0.2-0.1l0.2-0.1l0.2-0.1l0.2-0.1l0.2-0.1l0.2-0.1l0.1-0.1l0.1-0.1l0.1-0.1l0.1-0.1l0.1-0.1l0-0.1l0-0.1l0-0.1l0-0.1l0.1-0.2
		l0.1-0.2l0-0.2l0-0.2l0-0.2v-0.2v-0.2l0-0.1L138.6,59.4z M136.7,60.1l0,0.2l0,0.2l0,0.2l0,0.1l0,0.1l0,0.1l0,0.1l0,0.1l0,0.1l0,0.1
		l0,0.1l-0.1,0l-0.1,0l-0.1,0l-0.1,0l-0.1,0l-0.1,0l-0.1,0l-0.1,0l-0.1,0l-0.2,0l-0.2,0l-0.2,0l-0.2,0l-0.2,0l-0.2,0l-0.1,0
		l-0.1-0.1l-0.1-0.1l-0.1,0l-0.1,0l-0.1,0l-0.1,0l-0.1-0.1l0-0.1l0-0.1l0-0.1l0-0.1l0-0.1l0-0.1l0-0.1l0-0.1l0-0.1l0-0.1l0-0.1
		l0-0.2l0-0.2l0-0.2l0-0.2l0-0.1l0-0.1l0-0.1l0-0.1l0-0.1l0-0.1l0-0.1l0-0.1l0-0.1l0-0.1l0.1-0.1l0-0.1l0.1-0.1l0.1-0.1l0.1-0.1
		l0.1-0.1l0.1,0l0.2,0l0.2,0h0.2h0.2l0.2,0l0.2,0l0.1,0l0.1,0.1l0.1,0.1l0.1,0.1l0.1,0.1l0.1,0.1l0.1,0.1l0,0.1l0,0.1l0,0.1l0,0.1
		l0,0.1l0,0.1l0,0.1l0,0.1l0,0.1l0,0.1l0,0.2l0,0.2L136.7,60.1z"/>
	<polygon id="XMLID_87_" class="st2" points="97.7,58.5 99.8,58.5 99.8,62.6 101.7,62.6 101.7,58.5 103.9,58.5 103.9,57.3 
		97.7,57.3 	"/>
</g>
</svg>
