<?xml version="1.0" encoding="utf-8"?>
<!-- Generator: Adobe Illustrator 19.0.0, SVG Export Plug-In . SVG Version: 6.00 Build 0)  -->
<svg version="1.1" id="图层_1" xmlns="http://www.w3.org/2000/svg" xmlns:xlink="http://www.w3.org/1999/xlink" x="0px" y="0px"
	 viewBox="0 0 165 90" style="enable-background:new 0 0 165 90;" xml:space="preserve">
<style type="text/css">
	.st0{fill:#FFFFFF;}
	.st1{fill:#333333;}
</style>
<rect id="XMLID_4_" x="0.2" y="0" class="st0" width="165" height="90"/>
<rect id="XMLID_7_" x="0.2" y="0" class="st0" width="165" height="90"/>
<g id="XMLID_3_">
	<path id="XMLID_75_" class="st1" d="M27.5,42.2l4.3-2l-8.1-3.6l-8.1,3.6l8,3.6l0.1,0c6,0,11,2.7,11,6.1c0,3.3-4.9,6.1-11,6.1
		c-6,0-11-2.7-11-6.1v-0.1H7.2v0.1c0,4.5,7.4,8.2,16.6,8.2c9.1,0,16.6-3.7,16.6-8.2C40.3,46.1,34.8,43.1,27.5,42.2z M23.7,41.7
		l-3.3-1.5l3.3-1.5l3.3,1.5L23.7,41.7z"/>
	<path id="XMLID_78_" class="st1" d="M23.7,32c-9.1,0-16.6,3.7-16.6,8.2c0,3.8,5.5,6.8,12.8,7.7l-4.3,2l8.1,3.6l8.1-3.6l-8-3.6
		l-0.1,0c-6,0-11-2.7-11-6.1c0-3.3,4.9-6.1,11-6.1c6,0,11,2.7,11,6.1v0.1h5.6v-0.1C40.3,35.7,32.8,32,23.7,32z M23.7,48.4l3.3,1.5
		l-3.3,1.5l-3.3-1.5L23.7,48.4z"/>
	<path id="XMLID_81_" class="st1" d="M59.7,35.4h-5.1c0-0.3,0-0.5,0-0.7v-0.4c0-0.6-0.4-0.7-0.7-0.7c-0.2,0-1.4,0-1.4,0v1.8h-4.9
		h-1.8h-0.2c0,0,0,7.1,0,7.4c0,0.4,0.2,1.5,1.5,1.5c0.9,0,3.7,0,5.4,0v3.3c0,0,1.1,0,1.4,0c0.3,0,0.7-0.2,0.7-0.7v-0.4
		c0,0,0-0.9,0-2.2c1.6,0,4.6,0,5.6,0c1.3,0,1.5-1.1,1.5-1.5c0-0.2,0-7.4,0-7.4h-1.4H59.7z M52.6,42.4h-4.9v-5.2h4.9V42.4z
		 M59.7,42.4h-5.1c0-1.7,0-3.6,0-5.2h5.1V42.4z"/>
	<path id="XMLID_85_" class="st1" d="M90.2,44.4L86,45.5v-2.9c1.4,0,4.1,0,6.7,0c0.4,0.8,0.9,1.6,1.3,2.4c0.9,1.6,2.5,2.2,3.7,2.5
		c1.2,0.2,1.7-0.3,1.9-0.6c0.2-0.3,1-1.4,1-1.4s-4,0-5.1-1.8c-0.2-0.3-0.4-0.7-0.7-1.1c2.2,0,3.9,0,4.1,0c0.6,0,0.8-0.4,0.8-0.8
		c0-0.3,0-1.1,0-1.1h-6c-0.4-0.6-0.7-1.2-0.9-1.5c1.9,0,3.6,0,4,0c1.3,0,1.5-1.1,1.5-1.5c0-0.2,0-3.7,0-3.7h-1.3h-0.5H84.2v1.4v0.4
		v11h0c0,0.5,0.4,0.9,1,0.9c0.1,0,0.3,0,0.4-0.1v0l3.9-1.1c0,0,0.7-0.3,0.7-1.4V44.4z M86,35.9h10.5v1.6H86V35.9z M86,39.3
		c0.8,0,2.8,0,4.8,0c0.2,0.3,0.5,0.9,0.8,1.5H86V39.3z"/>
	<path id="XMLID_87_" class="st1" d="M123.3,46.5L123.3,46.5c0,0.5,0.4,1,1,1c0.1,0,0.3,0,0.4-0.1v0l2.1-0.7c0,0,0.7-0.3,0.7-1.4
		v-0.8l-2.4,0.8v-2.9c1.3,0,2.5,0,2.5,0v-1.6h-2.5v-1.4c1.3,0,2.5,0,2.5,0v-1.6h-5c0.1,0,0.1-0.1,0.2-0.2c0.3-0.3,0.5-0.6,0.8-1h4
		v-1.6h-3.1c0.1-0.4,0.3-0.8,0.4-1.3h-1.8c0,0-1,2.1-3.1,3.1c0,0,0.8,0.7,1.1,1c0.3,0.2,0.7,0.3,1.1,0.2v0.9c0,0,0,0.5,0.5,0.5
		c0.1,0,0.3,0,0.6,0v1.4h-1.9c0,0,0,0.8,0,1c0,0.2,0.1,0.6,0.7,0.6c0.2,0,0.6,0,1.3,0V46.5z"/>
	<path id="XMLID_90_" class="st1" d="M139.9,46c-1.4-0.1-2.6-0.7-3.5-1.5l1.6-0.6c0,0,0.5-0.2,0.5-1v-1.2l-3.7,1.4
		c-0.7-0.8-1.2-1.5-1.4-1.8c1.4,0,2.8,0,3.4,0c1.3,0,1.5-1.1,1.5-1.5c0-0.2,0-5.9,0-5.9h-1.2c0,0-0.3,0-0.7,0c-1.7,0-5.9,0-6.8,0
		c-1.1,0-1.2,0.7-1.2,1.3h0v0.1c0,0.2,0,0.3,0,0.3c0,0,0,0,0,0v10.9h0c0,0,0,0.1,0,0.1c0,0.5,0.4,1,1,1c0.1,0,0.3,0,0.4-0.1v0l2-0.6
		c0,0,0.7-0.2,0.7-1.4v-0.8l-2.2,0.7v-3.9c0.1,0,0.7,0,1.4,0c0.3,0.7,2.2,4.5,5.2,6.1c0.5,0.2,1.1,0.5,1.9-0.2
		C139.3,46.6,139.9,46,139.9,46z M130.4,35.5h6.1v1.4h-6.1V35.5z M130.4,39.7v-1.2h6.1v1.2H130.4z"/>
	<path id="XMLID_92_" class="st1" d="M117.1,47.3c0.5,0,0.8,0,1,0c0.9,0,1.1-0.5,1.1-0.9c0.1-0.5,0.2-1.1,0.2-1.1
		c-0.2,0.1-0.8,0.2-1.3,0.2c0,0-0.4,0-1,0v0h-5.3c0-0.8,0-1.9,0-3.2c1.4,0,4.8,0,5.2,0c0.6,0,0.8-0.4,0.8-0.8c0-0.3,0-1.1,0-1.1h-6
		c0-1,0-2,0-2.8c2.7,0,5.1,0,5.4,0c0.6,0,0.8-0.4,0.8-0.8c0-0.3,0-1.1,0-1.1h-6.2c0-0.8,0-1.3,0-1.4c0-0.6-0.4-0.7-0.7-0.7
		c-0.2,0-1.2,0-1.2,0v2.1h-3.7c0.2-0.4,0.3-0.9,0.4-1.4h-1.8c0,0-1.1,2.1-3.2,3.2c0,0,0.4,0.4,0.7,0.6c0.5,0.5,1.6,0.7,2.2,0.2
		c0.2-0.2,0.4-0.5,0.7-0.7c0.8,0,2.7,0,4.7,0v2.8h-5.9c0,0,0,0.7,0,1.1c0,0.3,0.2,0.8,0.8,0.8c0.5,0,3.7,0,5.1,0v3.2h-1.2h-4.4h-2.1
		c0,0,0,0.7,0,1.1c0,0.3,0.2,0.8,0.8,0.8c0.2,0,0.7,0,1.3,0c1.7,0,4.4,0,4.4,0h7.6H117.1z"/>
	<path id="XMLID_93_" class="st1" d="M149.2,36.2c0.2,0,0.8,0,1.6,0c0,0,2.3,0,4,0c0.8,0,1.5,0,1.6,0c0.6,0,0.8-0.4,0.8-0.8
		c0-0.3,0-1.1,0-1.1h-2.4h-4h-2.4c0,0,0,0.7,0,1.1C148.4,35.8,148.6,36.2,149.2,36.2z"/>
	<path id="XMLID_94_" class="st1" d="M143.4,37.5c1-0.6,2.5-1.7,3.5-3.9h-1.9c0,0-1.4,2-4.4,2.9c0,0,1,0.9,1.1,1
		C142,37.6,142.5,38,143.4,37.5z"/>
	<path id="XMLID_96_" class="st1" d="M145.7,46.8c0-0.4,0-6.3,0-7.3c0.5-0.5,0.9-1.2,1.3-2h-1.9c0,0-1.5,2-4.4,2.9
		c0,0,0.9,0.7,1.1,0.9c0.2,0.2,0.8,0.6,1.6,0.2c0.2-0.1,0.3-0.2,0.5-0.3v6.4c0,0,1,0,1.2,0C145.3,47.5,145.7,47.4,145.7,46.8z"/>
	<path id="XMLID_97_" class="st1" d="M154,47.6c1.3,0,1.5-1.1,1.5-1.5c0-0.2,0-4.3,0-6.1c0,0,0,0,0,0c0.7,0,1.2,0,1.4,0
		c0.9,0,1.1-0.5,1.1-0.9c0.1-0.5,0.2-1.1,0.2-1.1c-0.2,0.1-0.8,0.2-1.3,0.2c0,0-0.5,0-1.4,0v0h-8.2c0,0,0,0.7,0,1.1
		c0,0.3,0.2,0.8,0.8,0.8c0.4,0,3.5,0,5.5,0v5.7h-0.4v0c-1,0-1.7,0-1.8,0c-0.6,0-1.1-0.1-1.3-0.2c0,0,0.1,0.6,0.2,1.1
		c0.1,0.4,0.2,0.9,1.1,0.9c0.2,0,0.5,0,1,0c0,0,0.1,0,0.7,0C153.4,47.6,153.7,47.6,154,47.6z"/>
	<path id="XMLID_100_" class="st1" d="M66.5,47.5h5.9h1.7c1.7,0,4.2,0,5,0c1.3,0,1.5-1.1,1.5-1.5c0-0.2,0-11.9,0-11.9h-0.7h-1.1
		H66.5h-1.1h-0.7v13.4h0.7H66.5z M66.5,35.9h12.3v9.7h-4.7h-1.7h-5.9V35.9z"/>
	<path id="XMLID_101_" class="st1" d="M77.9,43.9c0.1-0.4,0.1-0.8,0.1-0.8c-0.2,0.1-0.6,0.1-1,0.1c0,0-0.1,0-0.2,0
		c-0.1-0.2-0.1-0.4-0.2-0.6c-0.1-0.4-0.5-0.4-0.5-0.4H75l0.3,1c-0.5,0-1,0-1.5,0v-1.8c1,0,2.4,0,2.7,0c0.6,0,0.6-0.4,0.6-0.5
		c0-0.1,0-0.9,0-0.9h-3.3v-1.5c1.2,0,2.8,0,3.1,0c0.6,0,0.6-0.4,0.6-0.5c0-0.1,0-0.9,0-0.9h-4.8h-0.3h-4.5c0,0,0,0.8,0,0.9
		c0,0.1,0,0.5,0.6,0.5c0.4,0,2.4,0,3.5,0v1.5h-3.7c0,0,0,0.8,0,0.9c0,0.1,0,0.5,0.6,0.5c0.4,0,2,0,3.1,0v1.8c-2.3,0-4.6,0-4.6,0
		s0,0.5,0,0.8c0,0.3,0.1,0.6,0.6,0.6c1.8,0,8.4,0,9.1,0C77.8,44.6,77.9,44.2,77.9,43.9z"/>
	<polygon id="XMLID_102_" class="st1" points="56.3,52.8 53.4,52.8 53.4,50.5 52,50.5 52,56.3 53.4,56.3 53.4,53.9 56.3,53.9 
		56.3,56.3 57.8,56.3 57.8,50.5 56.3,50.5 	"/>
	<rect id="XMLID_103_" x="59.3" y="50.5" class="st1" width="1.4" height="5.8"/>
	<polygon id="XMLID_104_" class="st1" points="66.7,54 63.6,50.5 62.3,50.5 62.3,56.3 63.8,56.3 63.8,52.6 67,56.3 68.2,56.3 
		68.2,50.5 66.7,50.5 	"/>
	<path id="XMLID_107_" class="st1" d="M71.3,50.5l-2.3,5.8h1.5l0.4-1.1h2.6l0.5,1.1h1.6l-2.6-5.8H71.3z M71.3,54.1l0.9-2.3l0.9,2.3
		H71.3z"/>
	<polygon id="XMLID_108_" class="st1" points="82.2,52.6 80.3,50.5 79.1,50.5 79.1,56.3 80.5,56.3 80.5,52.7 82.1,54.5 82.3,54.5 
		83.9,52.7 83.9,56.3 85.3,56.3 85.3,50.5 84,50.5 	"/>
	<rect id="XMLID_109_" x="86.8" y="50.5" class="st1" width="1.4" height="5.8"/>
	<polygon id="XMLID_110_" class="st1" points="94.3,54 91.2,50.5 89.8,50.5 89.8,56.3 91.3,56.3 91.3,52.6 94.5,56.3 95.7,56.3 
		95.7,50.5 94.3,50.5 	"/>
	<polygon id="XMLID_111_" class="st1" points="107.1,52.8 104.2,52.8 104.2,50.5 102.8,50.5 102.8,56.3 104.2,56.3 104.2,53.9 
		107.1,53.9 107.1,56.3 108.6,56.3 108.6,50.5 107.1,50.5 	"/>
	<polygon id="XMLID_112_" class="st1" points="111.3,53.8 114,53.8 114,52.8 111.3,52.8 111.3,51.5 114.1,51.5 114.1,50.5 
		109.9,50.5 109.9,56.3 114.1,56.3 114.1,55.2 111.3,55.2 	"/>
	<polygon id="XMLID_113_" class="st1" points="119.9,54 116.8,50.5 115.5,50.5 115.5,56.3 116.9,56.3 116.9,52.6 120.1,56.3 
		121.3,56.3 121.3,50.5 119.9,50.5 	"/>
	<path id="XMLID_114_" class="st1" d="M125.9,54.3h0.8v0.7c-0.4,0.2-0.6,0.2-1,0.2c-1.2,0-2-0.7-2-1.7c0-0.9,0.6-1.8,2.1-1.8
		c0.7,0,1.4,0.2,2.2,0.5v-1.3c-0.6-0.3-1.4-0.5-2.3-0.5c-2.1,0-3.5,1.2-3.5,3c0,1.7,1.4,3,3.5,3c0.9,0,2-0.3,2.4-0.8v-2.4h-2.3V54.3
		z"/>
	<path id="XMLID_117_" class="st1" d="M136.2,53.1c0.5-0.2,0.8-0.7,0.8-1.2c0-0.6-0.6-1.5-1.9-1.5h-2.6v5.8h2.9c1.7,0,2-1,2-1.7
		C137.4,53.9,137,53.3,136.2,53.1z M133.9,51.6h0.8c0.5,0,0.7,0.3,0.7,0.6c0,0.3-0.2,0.6-0.7,0.6h-0.8V51.6z M134.8,55.2h-0.9v-1.4
		h1.1c0.5,0,0.9,0.2,0.9,0.7C135.9,55,135.6,55.2,134.8,55.2z"/>
	<path id="XMLID_121_" class="st1" d="M140.3,50.5l-2.3,5.8h1.5l0.4-1.1h2.6l0.5,1.1h1.6l-2.6-5.8H140.3z M140.3,54.2l0.9-2.3
		l0.9,2.3H140.3z"/>
	<polygon id="XMLID_122_" class="st1" points="149.7,54.1 146.6,50.5 145.2,50.5 145.2,56.3 146.7,56.3 146.7,52.6 149.9,56.3 
		151.1,56.3 151.1,50.5 149.7,50.5 	"/>
	<polygon id="XMLID_123_" class="st1" points="157.5,50.5 155.9,50.5 154,53.1 154,53.1 154,50.5 152.6,50.5 152.6,56.3 154,56.3 
		154,53.6 156.3,56.3 158.1,56.3 155.6,53.2 	"/>
	<path id="XMLID_124_" class="st1" d="M98.5,51.9c0-0.3,0.3-0.5,0.9-0.5c0.5,0,1.1,0.1,1.9,0.4v-1.1c-0.6-0.2-1.5-0.3-2-0.3
		c-1.4,0-2.2,0.7-2.2,1.7c0,2,3,1.7,3,2.7c0,0.3-0.3,0.5-0.9,0.5c-0.4,0-1.3-0.1-2.2-0.6V56c0.6,0.2,1.5,0.4,2.3,0.4
		c1.3,0,2.3-0.6,2.3-1.8C101.5,52.6,98.5,52.8,98.5,51.9z"/>
	<path id="XMLID_125_" class="st1" d="M45.5,53.4c0,1.8,1.4,3,3.8,3c0.5,0,1.1-0.1,1.6-0.2v-1.2c-0.4,0.1-0.9,0.1-1.4,0.1
		c-1.3,0-2.4-0.6-2.4-1.9c0-1.3,1-1.8,2.2-1.8c0.6,0,1,0.1,1.6,0.2v-1.2c-0.4-0.1-1-0.2-1.6-0.2C47,50.4,45.5,51.5,45.5,53.4z"/>
</g>
</svg>
