<?xml version="1.0" encoding="utf-8"?>
<!-- Generator: Adobe Illustrator 19.0.0, SVG Export Plug-In . SVG Version: 6.00 Build 0)  -->
<svg version="1.1" id="图层_1" xmlns="http://www.w3.org/2000/svg" xmlns:xlink="http://www.w3.org/1999/xlink" x="0px" y="0px"
	 viewBox="0 0 165 90" style="enable-background:new 0 0 165 90;" xml:space="preserve">
<style type="text/css">
	.st0{fill:#FFFFFF;}
	.st1{fill:none;}
	.st2{fill:#333333;}
</style>
<rect id="XMLID_4_" x="0.2" y="0" class="st0" width="165" height="90"/>
<rect id="XMLID_7_" x="0.2" y="0" class="st0" width="165" height="90"/>
<g id="XMLID_2_">
	<path id="XMLID_62_" class="st1" d="M35.9,69.1h93.8V21.7H35.9V69.1z M49.1,52.6h-3.9v12.9h-3V52.6h-3.6v-3.6h10.5V52.6z M56.2,56
		c0,0-1.8-0.5-2.2,3.7v5.5l-3.7,0.2V52.4h3.1v1.2c0,0,1.1-1.4,2.8-1.2V56z M60.3,65.3c0,0-1.6,0.1-1.7-1.3v-4c0,0-0.2-0.5,1.1-0.7
		c0,0,2.4-0.4,3.8-1.9v-1.9c0,0-0.1-0.9-0.8-0.7C61.9,54.8,61.9,56,62,57L58.6,57l0-2.7c0,0,1-2,4.6-2c3.6,0,3.7,2.8,3.7,2.8
		l0.1,10.2H60.3z M75.8,65.1h-1.1h-1.2h-1.7v0l-1.4,0l-1.7-12.7h3.2l1.1,8.3h0.8l0.4-8.3h3.3L75.8,65.1z M83.4,65.5
		c-3.4,0-4.3-2.7-4.3-2.7v-7.6c0,0,0.8-2.8,4.2-2.8c4.1,0,4.4,4.1,4.4,4.1v2.3h-5.1l0,4.3h1.8l0.2-2.6h3.4
		C87.3,65.3,83.4,65.5,83.4,65.5z M93.9,65.3h-3.6V49.1h3.6V65.3z M105.5,60v3.7c-2.6,2.5-4.4,2.1-4.4,2.1c-4.1,0-4.8-2.2-4.8-2.2
		V60h3.6l0,2.7h2v-1.6c0.2-1.4-0.9-1.9-0.9-1.9c-1.2-0.7-2.7-1.6-2.7-1.6c-1.2-0.7-1.9-1.7-1.9-1.7v-3.8c0.6-2.5,4.9-2.2,4.9-2.2
		c4.9,0.8,4.3,2.5,4.3,2.5v2.5h-3.7v-2.2H100l0.1,2.2l4,2.9C105.8,59.2,105.5,60,105.5,60z M116.1,66.1h-3.4l-1.2-5.8l-0.1,5.8h-3.8
		V49.1h3.8l0.1,6.6l1.6-3.3h3l-2,6.4L116.1,66.1z M124.2,65.5c0,0-0.3,2-3.1,2h-2.9v-2h1.3l-2.8-13.1h3.2l1.7,8.8l1-8.8h2.8
		L124.2,65.5z M37.1,22.8h91.6v22.9H37.1V22.8z"/>
	<path id="XMLID_61_" class="st1" d="M62.3,60v3.1h1.3V60C63.6,60,62.9,59.6,62.3,60z"/>
	<rect id="XMLID_60_" x="82.4" y="54.5" class="st1" width="1.9" height="2.8"/>
	<path id="XMLID_48_" class="st2" d="M128.7,22.8H37.1v22.9h91.6V22.8z M94.2,27.7h2.2v-1.2H99v1.2h2.3v1.9h-7.2V27.7z M57.6,40.9
		h-6.5v1.4h-2.6v-1.4h-6.3V28.4h6.3v-1.5h2.6v1.5h6.5V40.9z M64.1,42.3V26.8h15.3v15.5H64.1z M92.9,29.3v12.6c0,0,0,0.2-0.1,0.3
		c-0.1,0.1-0.4,0.1-0.4,0.1h-1.7H90l0-2.1c0.5,0,0.6-0.3,0.6-0.5v-4.1h-2.3v1.6h1.3v1.5h-1.3v1.2v2.4v0.1h-2.9v-2.5h0.7v-4.2h-1
		v-2.2h1v-2.6h-0.6v-2.4c1.3,0,1-1.8,1-1.8h2.6v1.2h1.5h2.2V29.3z M101.8,42.3h-0.7h-2v-9h-2.7v9h-2.2v-9v-1.9h2.2H99h2v1.9v6.6
		c0.1,0.1,0.3,0.2,0.7,0V42.3z M110.9,42.3h-2.1v-9c-0.6,0.3-1,0.3-1,0.3s0-1.3-0.5-2.2c0,0,0.5-0.3,1.3-1.8
		c0.8-1.5,0.9-2.8,0.9-2.8h2.8c0,0-0.7,2.3-1.3,3.8V42.3z M123.2,42.4h-2.6V42h-5.4v0.4h-2.6v-4v-1.5v-0.5h10.5v0.5h0.1V42.4z
		 M123.2,35.5h-10.6v-1.9h10.6V35.5z M123.2,32.7h-10.6v-1.8h10.6V32.7z M123.6,29.8h-11.5v-2.2h3.9v-1.1h3.3v1.1h4.3V29.8z"/>
	<polygon id="XMLID_47_" class="st2" points="88.4,29.3 88.4,31.1 89.7,31.1 89.7,32.6 88.4,32.6 88.4,33.3 90.6,33.3 90.6,29.3 	
		"/>
	<path id="XMLID_44_" class="st2" d="M77,40V29H66.7v11H77z M67.7,37.4h3v-1.9h-2.6v-1.8h2.6v-1.8h-3v-1.8h7.7v1.8h-2.7v1.8H75v1.8
		h-2.3v1.9h2.7v1.9h-7.7V37.4z"/>
	<rect id="XMLID_43_" x="44.7" y="30.6" class="st2" width="3.9" height="8.1"/>
	<rect id="XMLID_42_" x="51.1" y="30.6" class="st2" width="4" height="8.1"/>
	<rect id="XMLID_41_" x="115.2" y="38.4" class="st2" width="5.4" height="1.6"/>
	<path id="XMLID_37_" class="st0" d="M51.1,26.8h-2.6v1.5h-6.3v12.5h6.3v1.4h2.6v-1.4h6.5V28.4h-6.5V26.8z M48.6,38.6h-3.9v-8.1h3.9
		V38.6z M55.1,30.6v8.1h-4v-8.1H55.1z"/>
	<path id="XMLID_34_" class="st0" d="M79.4,26.8H64.1v15.5h15.3V26.8z M66.7,29H77v11H66.7V29z"/>
	<polygon id="XMLID_33_" class="st0" points="75.4,39.3 75.4,37.4 72.8,37.4 72.8,35.5 75,35.5 75,33.7 72.8,33.7 72.8,31.9 
		75.4,31.9 75.4,30.2 67.7,30.2 67.7,31.9 70.7,31.9 70.7,33.7 68.1,33.7 68.1,35.5 70.7,35.5 70.7,37.4 67.7,37.4 67.7,39.3 	"/>
	<polygon id="XMLID_32_" class="st0" points="101.4,27.7 99,27.7 99,26.5 96.4,26.5 96.4,27.7 94.2,27.7 94.2,29.7 101.4,29.7 	"/>
	<path id="XMLID_31_" class="st0" d="M101.1,39.9v-6.6v-1.9h-2h-2.7h-2.2v1.9v9h2.2v-9H99v9h2h0.7V40
		C101.4,40.1,101.2,40,101.1,39.9z"/>
	<path id="XMLID_28_" class="st0" d="M89.2,27.7v-1.2h-2.6c0,0,0.3,1.8-1,1.8v2.4h0.6v2.6h-1v2.2h1v4.2h-0.7v2.5h2.9v-0.1v-2.4v-1.2
		h1.3v-1.5h-1.3v-1.6h2.3v4.1c0,0.2-0.1,0.5-0.6,0.5l0,2.1h0.7h1.7c0,0,0.2,0,0.4-0.1c0.1-0.1,0.1-0.3,0.1-0.3V29.3v-1.6h-2.2H89.2z
		 M90.6,33.3h-2.3v-0.7h1.3v-1.6h-1.3v-1.8h2.3V33.3z"/>
	<polygon id="XMLID_27_" class="st0" points="119.3,26.5 116,26.5 116,27.6 112.2,27.6 112.2,29.8 123.6,29.8 123.6,27.6 
		119.3,27.6 	"/>
	<rect id="XMLID_26_" x="112.6" y="30.9" class="st0" width="10.6" height="1.8"/>
	<rect id="XMLID_25_" x="112.6" y="33.6" class="st0" width="10.6" height="1.9"/>
	<path id="XMLID_22_" class="st0" d="M123.2,36.3h-10.5v0.5v1.5v4h2.6V42h5.4v0.4h2.6V36.3z M120.6,40h-5.4v-1.6h5.4V40z"/>
	<path id="XMLID_21_" class="st0" d="M109.4,26.8c0,0-0.1,1.4-0.9,2.8c-0.8,1.5-1.3,1.8-1.3,1.8c0.5,0.9,0.5,2.2,0.5,2.2
		s0.4,0,1-0.3v9h2.1V30.6c0.6-1.5,1.3-3.8,1.3-3.8H109.4z"/>
	<polygon id="XMLID_20_" class="st2" points="73.8,60.7 73,60.7 71.9,52.4 68.7,52.4 70.4,65.1 71.8,65.1 71.8,65.1 73.5,65.1 
		74.8,65.1 75.8,65.1 77.6,52.4 74.2,52.4 	"/>
	<rect id="XMLID_19_" x="90.3" y="49.1" class="st2" width="3.6" height="16.2"/>
	<polygon id="XMLID_18_" class="st2" points="113.1,52.4 111.5,55.7 111.4,49.1 107.6,49.1 107.6,66.1 111.4,66.1 111.4,60.3 
		112.6,66.1 116.1,66.1 114,58.8 116.1,52.4 	"/>
	<path id="XMLID_17_" class="st2" d="M121.7,61.2l-1.7-8.8h-3.2l2.8,13.1h-1.3v2h2.9c2.8,0,3.1-2,3.1-2l1.3-13.1h-2.8L121.7,61.2z"
		/>
	<polygon id="XMLID_16_" class="st2" points="38.6,52.6 42.2,52.6 42.2,65.5 45.3,65.5 45.3,52.6 49.1,52.6 49.1,49.1 38.6,49.1 	
		"/>
	<path id="XMLID_15_" class="st2" d="M53.4,53.6v-1.2h-3.1v12.9l3.7-0.2v-5.5c0.3-4.2,2.2-3.7,2.2-3.7v-3.6
		C54.5,52.2,53.4,53.6,53.4,53.6z"/>
	<path id="XMLID_12_" class="st2" d="M63.1,52.3c-3.6,0-4.6,2-4.6,2l0,2.7L62,57c-0.2-0.9-0.1-2.1,0.6-2.3c0.8-0.2,0.8,0.7,0.8,0.7
		v1.9c-1.4,1.6-3.8,1.9-3.8,1.9c-1.3,0.2-1.1,0.7-1.1,0.7v4c0.1,1.4,1.7,1.3,1.7,1.3h6.7l-0.1-10.2C66.8,55.1,66.7,52.3,63.1,52.3z
		 M63.6,63.2h-1.3V60c0.6-0.5,1.3,0,1.3,0V63.2z"/>
	<path id="XMLID_9_" class="st2" d="M84.3,63.2h-1.8l0-4.3h5.1v-2.3c0,0-0.2-4.2-4.4-4.1c-3.4,0-4.2,2.8-4.2,2.8v7.6
		c0,0,0.9,2.7,4.3,2.7c0,0,3.9-0.2,4.4-4.9h-3.4L84.3,63.2z M82.4,54.5h1.9v2.8h-1.9V54.5z"/>
	<path id="XMLID_8_" class="st2" d="M104.1,57.8l-4-2.9l-0.1-2.2h1.9v2.2h3.7v-2.5c0,0,0.6-1.6-4.3-2.5c0,0-4.2-0.3-4.9,2.2v3.8
		c0,0,0.7,1,1.9,1.7c0,0,1.5,0.9,2.7,1.6c0,0,1.1,0.5,0.9,1.9v1.6h-2l0-2.7h-3.6v3.5c0,0,0.7,2.2,4.8,2.2c0,0,1.8,0.3,4.4-2l0.1-3.7
		C105.5,60,105.7,59,104.1,57.8z"/>
	<path id="XMLID_3_" class="st2" d="M34.8,19.5v51h95.8v-51H34.8z M129.7,69.1H35.9V21.7h93.8V69.1z"/>
</g>
</svg>
