<?xml version="1.0" encoding="utf-8"?>
<!-- Generator: Adobe Illustrator 19.0.0, SVG Export Plug-In . SVG Version: 6.00 Build 0)  -->
<svg version="1.1" id="图层_1" xmlns="http://www.w3.org/2000/svg" xmlns:xlink="http://www.w3.org/1999/xlink" x="0px" y="0px"
	 viewBox="0 0 165 90" style="enable-background:new 0 0 165 90;" xml:space="preserve">
<style type="text/css">
	.st0{fill:#FFFFFF;}
	.st1{fill:#333333;}
</style>
<rect id="XMLID_4_" x="0.2" y="0" class="st0" width="165" height="90"/>
<rect id="XMLID_7_" x="0.2" y="0" class="st0" width="165" height="90"/>
<g id="XMLID_1_">
	<path id="XMLID_8_" class="st1" d="M49.6,34.9v-6.1H34.7v5.9h7.8l-8.4,22.5L34,57.4v0.2v0.2c0,0.2,0,0.4,0,0.6c0,0.2,0,0.2,0,0.2
		c0,1.5,1.3,2.7,2.9,2.7H50v-5.9h-8.4L49.6,34.9z"/>
	<polygon id="XMLID_9_" class="st1" points="51.5,34.7 56.3,34.7 56.5,61.2 62.2,61.2 62.2,34.7 67.2,34.7 67.2,28.8 51.5,28.8 	"/>
	<path id="XMLID_10_" class="st1" d="M83,34.7l-0.2-5.9H69.1v29.9c0,1.5,1.1,2.5,2.5,2.5c0.2,0,0.2,0,0.2,0H83v-5.7h-8v-8h7.4v-5.7
		H75v-7.1H83z"/>
	<path id="XMLID_11_" class="st1" d="M122.6,40.2c-0.8-5.7-3.6-11.6-3.6-11.6s-2.1,1.5-2.9,2.1c1.7,3.4,3.1,11.4,3.1,11.4
		C119.6,41.8,122.6,40.2,122.6,40.2z"/>
	<path id="XMLID_13_" class="st1" d="M124.9,48.4h6.1v-5h-4.8c1.9-3.2,3.6-12.2,3.6-12.2c-0.6-0.8-3.4-2.3-3.4-2.3
		c-2.5,12.8-4.2,14.5-4.2,14.5h-7.6c1-1.9,2.5-3.1,2.5-3.1c-2.1-7.1-4.8-9.7-4.8-9.7s-2.3,2.5-2.5,2.7c1.9,2.3,4.2,10.1,4.2,10.1
		h-4.8v5h5.7c-1.5,4.4-6.3,8.2-6.3,8.2c0.8,0.6,2.1,4.8,2.1,4.8c5.5-4.2,7.1-9.7,7.1-9.7c-0.4-0.2-2.3-3.2-2.3-3.2h8.8
		c0,0.4-2.1,3.2-2.1,3.2c2.9,7.2,7.2,9.5,7.2,9.5c0-0.6,1.9-4.6,1.9-4.6C126.6,53.4,124.9,48.4,124.9,48.4z"/>
	<path id="XMLID_22_" class="st1" d="M99,34.9V29h-3.8v5.9h-2.3h-6.1v4.6v9.2v2.3c0,1.3,1.1,2.5,2.5,2.5h3.6h2.3v7.8H99v-7.8h2.3
		h6.1V34.9h-6.1H99z M95.2,48.6h-2.3h-2.1v-9h2.1h2.3V48.6z M103.4,48.6h-2.1H99v-9h2.3h2.1V48.6z"/>
</g>
</svg>
