<?xml version="1.0" encoding="utf-8"?>
<!-- Generator: Adobe Illustrator 19.0.0, SVG Export Plug-In . SVG Version: 6.00 Build 0)  -->
<svg version="1.1" id="图层_1" xmlns="http://www.w3.org/2000/svg" xmlns:xlink="http://www.w3.org/1999/xlink" x="0px" y="0px"
	 viewBox="0 0 165 90" style="enable-background:new 0 0 165 90;" xml:space="preserve">
<style type="text/css">
	.st0{fill:#FFFFFF;}
	.st1{fill:none;}
	.st2{fill:#333333;}
</style>
<rect id="XMLID_4_" x="0.2" y="0" class="st0" width="165" height="90"/>
<rect id="XMLID_7_" x="0.2" y="0" class="st0" width="165" height="90"/>
<g id="XMLID_1_">
	<path id="XMLID_27_" class="st1" d="M140.8,38.2c0-0.1,0-0.3,0-0.4c0-0.3-0.1-0.5-0.2-0.6c-0.2-0.1-0.4-0.1-0.6-0.1h-1.4v12.4h0
		c0,0,0.9,0,1.3,0c0,0,0,0,0,0c0.4,0,0.7-0.1,0.9-0.4c0.2-0.3,0.2-0.7,0.2-1.2c0-1.6-0.6-3.9-0.9-4.6
		C140.3,42.4,140.6,40.5,140.8,38.2z"/>
	<path id="XMLID_28_" class="st1" d="M101.2,39.7c-1.9,0-3.4,1.4-3.4,3.2c0,1.8,1.5,3.2,3.4,3.2c1.9,0,3.4-1.5,3.4-3.2
		C104.6,41.2,103,39.7,101.2,39.7z"/>
	<path id="XMLID_29_" class="st1" d="M56.1,40.1c-2,0-3.6,1.6-3.6,3.7c0,2,1.6,3.7,3.6,3.7c2,0,3.6-1.6,3.6-3.7
		C59.7,41.7,58.1,40.1,56.1,40.1z"/>
	<path id="XMLID_30_" class="st1" d="M27.8,40.1c-2,0-3.6,1.6-3.6,3.7c0,2,1.6,3.7,3.6,3.7c2,0,3.6-1.6,3.6-3.7
		C31.3,41.7,29.7,40.1,27.8,40.1z"/>
	<path id="XMLID_31_" class="st1" d="M147.8,49.4c0,0.4,0,0.7,0.2,0.9c0.2,0.2,0.5,0.3,1,0.3h3.8c0.4,0,0.7-0.1,0.9-0.3
		c0.2-0.2,0.3-0.5,0.3-0.9v-4.1h-6.2V49.4z"/>
	<path id="XMLID_32_" class="st1" d="M152.7,37.2h-3.6c-0.4,0-0.7,0.1-1,0.3c-0.2,0.2-0.3,0.5-0.3,1v4.2h6.2v-4.2
		c0-0.4-0.1-0.8-0.3-1C153.4,37.3,153.1,37.2,152.7,37.2z"/>
	<path id="XMLID_33_" class="st2" d="M86.2,36.3c-3.7,0-6.8,3-6.8,6.8v7.6h3.8v-7.6c0-1.7,1.3-3,3-3c1.7,0,3,1.3,3,3v0.5h0l0,7.2
		h3.8v-7.6C92.9,39.4,89.9,36.3,86.2,36.3z"/>
	<path id="XMLID_34_" class="st2" d="M74.4,44.6c0,1.7-1.3,3-3,3c-1.6,0-3-1.3-3-3v-0.5h0l0-7.1h-3.8v7.5c0,3.7,3,6.8,6.8,6.8
		c3.7,0,6.8-3,6.8-6.8v-7.5h-3.8V44.6z"/>
	<path id="XMLID_35_" class="st2" d="M46,37.1l-3.8,9.3l-3.9-9.3h-3.9L40,50.4c-1,2.8-3.9,1.1-3.9,1.1s-1.7,3.2-1.7,3.2
		c4.4,1.9,7.8,0.5,9.5-3.3c1.6-3.6,5.9-14.3,5.9-14.3H46z"/>
	<path id="XMLID_36_" class="st2" d="M15.7,44.4c0,4.2-4.2,3.6-5.5,2.1l-1.7,3.2c5.1,3.6,10.9,0.6,10.9-4.5V34.5h-3.7V44.4z"/>
	<path id="XMLID_39_" class="st2" d="M101.2,36.3c-3.9,0-7,3-7,6.6c0,2.4,1.4,4.5,3.4,5.7l0.1,0.1c1,0.5,2.2,0.9,3.5,0.9
		c1.2,0,2.8-0.3,3.5-0.8c-0.3,3.2-4.7,4.2-8.2,1.8l-1.7,3.3c5.8,3.8,13.5,1,13.5-4.7V43C108.2,38.8,105.1,36.3,101.2,36.3z
		 M101.2,46.2c-1.9,0-3.4-1.5-3.4-3.2c0-1.8,1.5-3.2,3.4-3.2c1.9,0,3.4,1.4,3.4,3.2C104.6,44.8,103,46.2,101.2,46.2z"/>
	<path id="XMLID_42_" class="st2" d="M56.1,36.3c-4,0-7.3,3.3-7.3,7.4c0,4.1,3.2,7.4,7.3,7.4c4,0,7.3-3.4,7.3-7.4
		C63.4,39.7,60.2,36.3,56.1,36.3z M56.1,47.4c-2,0-3.6-1.6-3.6-3.7c0-2,1.6-3.7,3.6-3.7c2,0,3.6,1.6,3.6,3.7
		C59.7,45.8,58.1,47.4,56.1,47.4z"/>
	<path id="XMLID_45_" class="st2" d="M27.8,36.3c-4,0-7.3,3.3-7.3,7.4c0,4.1,3.2,7.4,7.3,7.4c4,0,7.3-3.4,7.3-7.4
		C35,39.7,31.8,36.3,27.8,36.3z M27.8,47.4c-2,0-3.6-1.6-3.6-3.7c0-2,1.6-3.7,3.6-3.7c2,0,3.6,1.6,3.6,3.7
		C31.3,45.8,29.7,47.4,27.8,47.4z"/>
	<path id="XMLID_46_" class="st2" d="M130.8,44.3c0-1.8,0-3.9,0-4.8c0-2.6-1.1-3.4-3.4-3.4h-5.3v-1.7h-3.4c0,0,0,1.5,0,1.7h-4.9
		c0,0,0.3,3.1,1.2,3.1c0.9,0,3.7,0,3.7,0c0,5.7-0.9,8.7-4.9,11.1c0,0.7,0,2.1,0,3.1c4.6-1.5,8.3-4.5,8.3-14.2c0,0,2.6,0,3.2,0
		c1.8,0,2,0.3,2,1.8c0,0.7,0,4.8,0,7.1c0,5.4,4.1,5.2,7.1,5.2c0-0.5,0-2.5,0-3C130.5,50.3,130.8,50.4,130.8,44.3z"/>
	<path id="XMLID_49_" class="st2" d="M142,34.5h-6.3v18.9h2.9v-1.2h2.4c1.6,0,2.4-0.9,2.6-1.9c0.2-0.6,0.2-1.2,0.2-1.9
		c0-1.8-0.4-3.8-0.8-5l0,0l0,0c0.1-0.8,0.5-3.8,0.9-6.4c0-0.3,0.1-0.5,0.1-0.7C144,34.9,143.4,34.5,142,34.5z M140.9,49.1
		c-0.2,0.4-0.5,0.4-0.9,0.4c0,0,0,0,0,0c-0.4,0-1.3,0-1.3,0h0V37.1h1.4c0.3,0,0.5,0,0.6,0.1c0.2,0.1,0.2,0.3,0.2,0.6
		c0,0.1,0,0.2,0,0.4c-0.3,2.3-0.5,4.2-0.6,5.1c0.3,0.8,0.9,3.1,0.9,4.6C141.1,48.4,141.1,48.8,140.9,49.1z"/>
	<path id="XMLID_52_" class="st2" d="M154.2,34.5h-6.6c-1.9,0-2.8,0.9-2.8,2.7v13.5c0,1.8,0.8,2.6,2.8,2.6h6.6
		c2.3,0,2.8-0.9,2.8-2.6V37.2C156.9,35.4,156,34.5,154.2,34.5z M153.9,49.4c0,0.4-0.1,0.7-0.3,0.9c-0.2,0.2-0.5,0.3-0.9,0.3H149
		c-0.5,0-0.8-0.1-1-0.3c-0.2-0.2-0.2-0.5-0.2-0.9v-4.1h6.2V49.4z M153.9,42.7h-6.2v-4.2c0-0.5,0.1-0.8,0.3-1c0.2-0.2,0.6-0.3,1-0.3
		h3.6c0.4,0,0.7,0.1,0.9,0.3c0.2,0.2,0.3,0.5,0.3,1V42.7z"/>
</g>
</svg>
