<?xml version="1.0" encoding="utf-8"?>
<!-- Generator: Adobe Illustrator 19.0.0, SVG Export Plug-In . SVG Version: 6.00 Build 0)  -->
<svg version="1.1" id="图层_1" xmlns="http://www.w3.org/2000/svg" xmlns:xlink="http://www.w3.org/1999/xlink" x="0px" y="0px"
	 viewBox="0 0 165 90" style="enable-background:new 0 0 165 90;" xml:space="preserve">
<style type="text/css">
	.st0{fill:#FFFFFF;}
	.st1{fill:none;}
	.st2{fill:#333333;}
</style>
<rect id="XMLID_4_" x="0.2" y="0" class="st0" width="165" height="90"/>
<rect id="XMLID_7_" x="0.2" y="0" class="st0" width="165" height="90"/>
<g id="XMLID_2_">
	<path id="XMLID_20_" class="st1" d="M94.9,34.1c-1,0-1.8,0.5-2.5,1.3c-0.7,0.8-1,2.1-1,3.6c0,1.7,0.3,2.9,1,3.7
		c0.6,0.8,1.5,1.2,2.5,1.2v0c1,0,1.8-0.5,2.5-1.3c0.7-0.9,1-2.1,1-3.7c0-1.6-0.3-2.8-1-3.6C96.8,34.6,95.9,34.1,94.9,34.1z"/>
	<path id="XMLID_21_" class="st1" d="M63.1,40.2c-0.9,0.2-1.5,0.4-1.8,0.6c-0.5,0.4-0.7,1-0.7,1.6c0,0.6,0.2,1.1,0.5,1.6
		c0.4,0.5,0.9,0.6,1.6,0.6c0.1,0,0.3,0,0.4,0c0.5-0.1,1-0.3,1.6-0.7c0.4-0.4,0.7-0.9,0.9-1.4c0-0.4,0.1-1,0.1-2.1v-0.8
		c-0.5,0.2-1.2,0.4-2.3,0.6C63.2,40.1,63.2,40.1,63.1,40.2z"/>
	<path id="XMLID_22_" class="st1" d="M22.2,40.2c-0.9,0.2-1.5,0.4-1.8,0.6c-0.5,0.4-0.7,1-0.7,1.6c0,0.6,0.2,1.1,0.6,1.6
		c0.3,0.5,0.9,0.6,1.5,0.6c0.2,0,0.3,0,0.5,0c0.5-0.1,1-0.3,1.5-0.7c0.5-0.4,0.7-0.9,0.9-1.4c0.1-0.4,0.1-1,0.1-2.1v-0.8
		c-0.5,0.2-1.2,0.4-2.3,0.6C22.4,40.1,22.3,40.1,22.2,40.2z"/>
	<path id="XMLID_25_" class="st2" d="M28.5,41.8v-5c0-1.9-0.1-3.1-0.5-3.8c-0.3-0.7-0.9-1.2-1.7-1.7c-0.8-0.5-2.1-0.7-3.8-0.7
		c-0.1,0-0.1,0-0.2,0c-1.7,0-3.1,0.4-3.9,1.1c-1,0.8-1.6,2-2,3.5l3.4,0.7c0.2-0.8,0.5-1.3,0.9-1.6c0.4-0.3,0.9-0.4,1.6-0.4h0
		c1,0,1.6,0.2,2,0.5c0.4,0.4,0.5,0.9,0.5,1.7v0.5c-0.5,0.2-1.3,0.5-2.5,0.8c-0.4,0.1-0.7,0.1-1.1,0.2c-1.3,0.3-2.3,0.7-3.1,1
		c-0.7,0.4-1.2,1-1.6,1.7c-0.4,0.7-0.5,1.5-0.5,2.4c0,1.4,0.4,2.6,1.3,3.5c0.8,0.9,2,1.3,3.4,1.3c0.5,0,1.1-0.1,1.6-0.2
		c0.3-0.1,0.5-0.2,0.8-0.3c0.7-0.3,1.4-0.9,2.1-1.6c0,0.1,0,0.3,0.1,0.5c0.1,0.5,0.3,1,0.3,1.2h3.7c-0.3-0.8-0.5-1.5-0.6-2.1
		C28.5,44.3,28.5,43.3,28.5,41.8z M24.8,40.2c0,1.1,0,1.7-0.1,2.1c-0.1,0.5-0.4,1-0.9,1.4c-0.5,0.4-1,0.6-1.5,0.7
		c-0.1,0-0.3,0-0.5,0c-0.6,0-1.1-0.2-1.5-0.6c-0.4-0.4-0.6-1-0.6-1.6c0-0.6,0.2-1.1,0.7-1.6c0.3-0.2,0.9-0.5,1.8-0.6
		c0.1,0,0.1,0,0.2-0.1c1.1-0.2,1.8-0.5,2.3-0.6V40.2z"/>
	<path id="XMLID_26_" class="st2" d="M36.7,39.3c0-1.6,0.1-2.7,0.4-3.3c0.2-0.6,0.5-1.2,1-1.6s1-0.5,1.6-0.5c0.5,0,0.9,0.1,1.1,0.3
		c0.3,0.2,0.5,0.6,0.6,1c0.1,0.4,0.2,1.5,0.2,3.1v8.8h3.7v-7.8c0-1.6,0.1-2.6,0.4-3.4c0.2-0.7,0.5-1.2,1-1.6c0.5-0.4,1-0.5,1.5-0.5
		c0.8,0,1.3,0.3,1.6,0.9c0.3,0.5,0.4,1.6,0.4,3.1v9.2H54V36.8c0-1.6-0.1-2.6-0.4-3.3c-0.4-0.9-0.9-1.6-1.6-2.1
		c-0.7-0.5-1.6-0.8-2.7-0.8c-0.8,0-1.6,0.2-2.3,0.6c-0.7,0.4-1.4,1-2,2c-0.5-0.9-1-1.6-1.7-2c-0.7-0.4-1.4-0.6-2.4-0.6
		c-1.7,0-3.1,0.9-4.5,2.6V31H33v16.1h3.7V39.3z"/>
	<path id="XMLID_29_" class="st2" d="M63.1,37.4c-0.3,0.1-0.7,0.1-1.1,0.2c-1.4,0.3-2.4,0.7-3.1,1c-0.6,0.4-1.2,1-1.6,1.7
		c-0.3,0.7-0.5,1.5-0.5,2.4c0,1.4,0.4,2.6,1.2,3.5c0.9,0.9,2,1.3,3.5,1.3c0.5,0,1-0.1,1.6-0.2c0.3-0.1,0.5-0.2,0.8-0.3
		c0.8-0.3,1.4-0.9,2.1-1.6c0,0.1,0.1,0.3,0.1,0.5c0.2,0.5,0.2,1,0.4,1.2h3.7c-0.4-0.8-0.5-1.5-0.7-2.1c-0.1-0.7-0.2-1.8-0.2-3.2
		l0.1-5c0-1.9-0.1-3.1-0.5-3.8c-0.4-0.7-1-1.2-1.7-1.7c-0.8-0.5-2.1-0.7-3.8-0.7c0,0-0.1,0-0.2,0c-1.7,0-3,0.4-3.9,1.1
		c-1,0.8-1.6,2-2,3.5l3.4,0.7c0.3-0.8,0.5-1.3,1-1.6c0.3-0.3,0.9-0.4,1.6-0.4c1,0,1.7,0.2,2,0.5c0.3,0.4,0.5,0.9,0.5,1.7v0.5
		C65.1,36.9,64.3,37.1,63.1,37.4z M65.6,40.2c0,1.1-0.1,1.7-0.1,2.1c-0.1,0.5-0.5,1-0.9,1.4c-0.5,0.4-1,0.6-1.6,0.7
		c-0.1,0-0.3,0-0.4,0c-0.6,0-1.1-0.2-1.6-0.6c-0.4-0.4-0.5-1-0.5-1.6c0-0.6,0.2-1.1,0.7-1.6c0.3-0.2,0.9-0.5,1.8-0.6
		c0.1,0,0.2,0,0.2-0.1c1.1-0.2,1.8-0.5,2.3-0.6V40.2z"/>
	<path id="XMLID_32_" class="st2" d="M94.9,30.6c-1.4,0-2.7,0.4-3.8,1c-1.1,0.7-2,1.7-2.6,3.1c-0.6,1.3-0.9,2.6-0.9,4.1
		c0,1.9,0.3,3.5,0.9,4.7c0.7,1.3,1.6,2.3,2.8,2.9c1.1,0.7,2.4,1,3.7,1c2.1,0,3.9-0.8,5.3-2.4c1.4-1.6,2.1-3.6,2.1-6.1
		c0-2.4-0.6-4.4-2.1-6C98.9,31.4,97.1,30.6,94.9,30.6z M97.5,42.8c-0.7,0.8-1.6,1.3-2.5,1.3v0c-1,0-1.8-0.4-2.5-1.2
		c-0.7-0.9-1-2.1-1-3.7c0-1.6,0.3-2.8,1-3.6c0.6-0.8,1.5-1.3,2.5-1.3c1,0,1.8,0.5,2.5,1.3c0.7,0.8,1,2.1,1,3.6
		C98.4,40.7,98.1,41.9,97.5,42.8z"/>
	<path id="XMLID_33_" class="st2" d="M116.9,32.4c-0.3-0.5-0.9-1-1.6-1.3c-0.6-0.3-1.4-0.5-2.3-0.5c-1.9,0-3.4,0.9-4.7,2.8V31h-3.5
		v16.1h3.7v-7.3c0-1.8,0.1-3,0.3-3.7c0.2-0.6,0.5-1.1,1.1-1.6c0.5-0.4,1-0.6,1.7-0.6c0.5,0,1,0.1,1.3,0.4c0.4,0.3,0.6,0.7,0.8,1.2
		c0.1,0.5,0.2,1.7,0.2,3.5v8.2h3.8v-10c0-1.3,0-2.2-0.2-2.9C117.5,33.6,117.3,33,116.9,32.4z"/>
	<rect id="XMLID_34_" x="120.4" y="44" class="st2" width="2.8" height="3.1"/>
	<path id="XMLID_35_" class="st2" d="M76.6,47.8L76.6,47.8c-1.3,0.3-3.2,0.8-2.9,2.1c0.2,1,1.9,0.5,2.9,0.4h0
		c2.5-0.2,3.4-0.3,4.2,0.3c0.5,0.5-0.3,2.2-0.4,2.5c-0.5,1.6-2.4,4.8-0.8,4.8c2,0,6.3-8.3,4.8-10.2C83,45.8,78.8,47.2,76.6,47.8z"/>
	<path id="XMLID_36_" class="st2" d="M77.2,51.4c-0.2,0-0.4,0.1-0.6,0.1c-7.4,1.4-13.1,3.5-20.3,3.4c-8.4-0.1-15.8-3.6-24.8-6.2
		c-1.8-0.5-3.2,0.2-1,1.7c8.7,5.9,15.3,8.9,25.3,9c7.8,0.1,13.9-1.2,20.8-4.7c0.5-0.3,1-0.5,1.5-0.8C80.1,52.7,80.1,50.9,77.2,51.4z
		"/>
	<path id="XMLID_37_" class="st2" d="M78.9,43.5l2-2.4l5.4-7.1v-3H74.6v3.6l5.1-0.1c0.6,0,1.3,0,1.6,0c-0.4,0.5-1,1.3-1.9,2.4
		l-5.3,7v2.8c0.5-0.1,1.1-0.3,1.6-0.4c3-0.7,8.7-2.3,10.7-0.2c0.2,0.3,0.4,0.6,0.4,1.1h0.1v-3.7h-5.8C80.7,43.5,80,43.5,78.9,43.5z"
		/>
	<path id="XMLID_38_" class="st2" d="M133.4,44.6c-0.6,0.7-1.3,1-2.1,1c-1,0-1.9-0.5-2.6-1.5c-0.6-1-1-2.6-1-4.8
		c0-2.1,0.3-3.7,1-4.7c0.7-1,1.6-1.5,2.6-1.5c0.7,0,1.3,0.3,1.8,0.8c0.5,0.5,0.9,1.4,1.1,2.5l2.1-0.4c-0.3-1.7-0.8-3-1.7-3.8
		c-0.9-0.9-2.1-1.4-3.4-1.4c-1.1,0-2.1,0.3-3,1c-1,0.6-1.6,1.6-2.1,3c-0.5,1.3-0.7,2.9-0.7,4.7c0,2.7,0.5,4.8,1.6,6.3
		c1,1.5,2.5,2.2,4.2,2.2c1.4,0,2.6-0.5,3.5-1.6c1-1,1.6-2.5,1.8-4.4l-2.1-0.3C134.4,42.9,134,44,133.4,44.6z"/>
	<path id="XMLID_39_" class="st2" d="M149.3,34.8c-0.1-0.8-0.4-1.5-0.7-2.1c-0.3-0.5-0.8-1-1.4-1.4c-0.6-0.4-1.4-0.5-2.1-0.5
		c-1.7,0-3.1,0.9-4.1,2.7v-2.3h-1.9v16.4h2.1v-8.9c0-2.1,0.4-3.5,1-4.3c0.7-0.7,1.5-1.1,2.4-1.1c0.6,0,1.1,0.1,1.5,0.5
		c0.5,0.3,0.7,0.8,0.9,1.3c0.1,0.5,0.2,1.4,0.2,2.6v9.9h2.2V37.5C149.4,36.2,149.4,35.3,149.3,34.8z"/>
</g>
</svg>
