<?xml version="1.0" encoding="utf-8"?>
<!-- Generator: Adobe Illustrator 18.0.0, SVG Export Plug-In . SVG Version: 6.00 Build 0)  -->
<!DOCTYPE svg PUBLIC "-//W3C//DTD SVG 1.1//EN" "http://www.w3.org/Graphics/SVG/1.1/DTD/svg11.dtd">
<svg version="1.1" id="图层_1" xmlns="http://www.w3.org/2000/svg" xmlns:xlink="http://www.w3.org/1999/xlink" x="0px" y="0px"
	 viewBox="0 0 165 90" enable-background="new 0 0 165 90" xml:space="preserve">
<rect y="0" fill="#FFFFFF" width="164.8" height="90"/>
<g>
	<g>
		<path fill-rule="evenodd" clip-rule="evenodd" fill="#333333" d="M41.2,41.6l8.6-12.3c0,0-3.8,0-5.8,0c-1.5,0-2.1-0.3-3.4,1
			c-7.2,9.8-21.7,30.5-21.7,30.5h8.7l12.4-17.4l-1.7-1.7L41.2,41.6z M92.3,29.3H82.2c-0.1,0-1.6,0.5-2.9,2.3L60.9,57.4l-9.7-14.3
			c-0.9-1-1.9-1-1.9-1h-9.2c0.4-0.1,1.9,1.4,1.9,1.4l11.1,15.7c0,0,0.5,0.6,1,1c0.5,0.4,1,0.5,1,0.5h11.1c1.5-0.1,2.9-1.4,2.9-1.4
			l19.3-27.2C90.3,29.7,92.3,29.3,92.3,29.3z M106.3,42.2l6.3,0.1v-8.7l3.9-4.3h-7.2l-6.3,7.7h3.4V42.2z M88.9,42.2h-7.2l13,18.6
			c0,0,9,0,8.7,0L91.3,43.6C90.3,42.4,88.9,42.2,88.9,42.2z M114.5,33.6v3.8H129l5.3,4.8h9.2l-5.3-4.8h7.2v-3.8h-12.1l-3.9-4.3h-9.2
			l4.3,4.3H114.5z M141.6,29.3h-5.8v2.9h5.8V29.3z M132.4,51.7h-6.3l5.3-3.8h-8.7l-17.9,12.9h8.7l11.6-8.1l11.6,8.1h9.2L132.4,51.7z
			 M144,57.9V44.5c0,0-0.5-1.4-1.9-1.4h-33.3c-1.4,0-1.9,1.4-1.9,1.4v13.3l6.3-4.8v-6.2h24.6v6.7L144,57.9z"/>
	</g>
</g>
</svg>
