<?xml version="1.0" encoding="utf-8"?>
<!-- Generator: Adobe Illustrator 19.0.0, SVG Export Plug-In . SVG Version: 6.00 Build 0)  -->
<svg version="1.1" xmlns="http://www.w3.org/2000/svg" xmlns:xlink="http://www.w3.org/1999/xlink" x="0px" y="0px"
	 viewBox="0 0 165 90" style="enable-background:new 0 0 165 90;" xml:space="preserve">
<style type="text/css">
	.st0{fill:#FFFFFF;}
	.st1{fill:#333333;}
</style>
<g id="图层_1">
	<rect id="XMLID_4_" x="0" y="-0.1" class="st0" width="165" height="90"/>
</g>
<g id="图层_2">
	<g id="XMLID_52_">
		<path id="XMLID_200_" class="st1" d="M25.7,38.1c0.9-3.4,3.1-5.4,6.3-6.3c2.5-0.8,5.6-0.6,8.5,1.2c0,0,0.1-0.1,0.2-0.1
			c2.9-3.1,6.5-4.4,10.7-4.2c3.8,0.2,7,1.7,9.4,4.7c3.6,4.5,2.7,10.7-2,14.3c-1.2,1-2.6,1.7-4.1,2.1c-0.2,0.1-0.3,0.1-0.7,0.2
			c0.4,0.1,0.6,0.2,0.9,0.3c3.6,1.2,6.2,3.4,7.5,7c0.3,0.8,0.4,1.6,0.5,2.5c0.1,1.1-0.1,1.7-1.2,1.6c-1.2-0.2-0.8-1.1-1.1-2.3
			c-0.6-2-1.5-2.8-3.2-4c-2.5-1.6-5.3-2.1-8.3-1.8c-2.2,0.2-4.3,0.9-6.1,2.2c-1.5,1.1-2.6,2.7-2.8,4.7c-0.1,0.7-0.1,1-0.8,1.3
			c-0.1,0-1.2,0.3-1.5-0.9c0-0.2,0.2-1.7,0.2-2.1c0.3-1.3,0.9-2.6,1.7-3.6c0.5-0.7,1.1-1.3,1.7-2c-0.4-0.4-0.7-0.8-1.1-1.1
			c-3-2.3-8-2.4-11-0.2c-1.3,1-2.2,2.2-2.3,3.9c0,0.5-0.5,0.8-0.9,0.7c-0.3-0.1-0.7-0.1-0.6-1.6c0.5-3.1,2.4-5.1,5.2-6.4
			c0.5-0.2,0.9-0.3,1.5-0.6c-0.3-0.1-0.5-0.2-0.8-0.3c-3-1.1-5.1-3-5.8-6.2C25.5,39.8,25.5,38.7,25.7,38.1z M50.5,46.8
			c0.5,0,1.4-0.1,2.3-0.2c2.4-0.4,4.6-1.3,6.3-3.1c2.1-2.3,2.3-5.3,0.2-7.7c-0.6-0.7-1.4-1.3-2.2-1.8c-2.7-1.7-5.7-2.1-8.8-1.6
			c-2.8,0.4-5.3,1.6-7,4c-0.8,1.1-1.1,2.4-1,3.7c0.2,1.6,1,3,2.3,4C44.7,45.9,47.3,46.6,50.5,46.8z M39.1,34.9
			c-0.2-0.1-0.3-0.2-0.5-0.2c-1.7-0.7-3.4-0.8-5.2-0.6c-1.9,0.3-3.6,0.9-4.9,2.3c-1.8,1.8-1.8,4.3,0,6.1c0.4,0.4,0.9,0.8,1.3,1.1
			c2,1.2,4.1,1.5,6.3,1.3c1-0.1,2-0.4,2.9-0.9C37.6,41,37.7,38,39.1,34.9z M40.4,46.1c-0.9,0.4-1.9,0.8-2.9,1.3
			c2.4,0.7,4.4,2,5.6,4.1c1.2-0.5,2.4-1,3.5-1.5c-1-0.5-2.2-0.9-3.3-1.5C42.4,47.7,41.4,46.9,40.4,46.1z"/>
		<path id="XMLID_6_" class="st1" d="M76.5,31.3h3c0,0,1.9,3.3,9.1,5.9v1.6c0,0-6.8-1.7-10.7-5.5c0,0-3.2,3.4-10.5,5.5v-1.7
			c0,0,2.8-0.8,5.3-2.4C75.1,33.1,76.5,31.3,76.5,31.3z"/>
		<path id="XMLID_13_" class="st1" d="M71.8,37.2h1.7c0,0-0.6,8.6,4.5,13.3l0,1.9c0,0-3.3-2-5.4-7.2c0,0-1.1,4.2-5.2,7.2v-1.9
			C67.4,50.5,72.1,46.7,71.8,37.2z"/>
		<path id="XMLID_3_" class="st1" d="M82.3,37.2h1.8c0,0-0.6,8.6,4.4,13.3l0.2,1.9c0,0-3.3-2-5.4-7.2c0,0-1.1,4.2-5.3,7.2l0-1.9
			C78,50.5,82.6,46.7,82.3,37.2z"/>
		<path id="XMLID_14_" class="st1" d="M94.1,31.4c0,0,0.2,2.1-3.2,3.9l0,1.1c0,0,3.1-1.2,3.9-2.6h1.2c0,0,0.4,0.9,0.6,1.3
			c0.1,0.4,0.4,1.3,0.4,1.3h2.4c0,0-0.3-1.3-1.2-2.6l3.4,0l0.5-1.5h-6.5l0.4-0.9H94.1z"/>
		<path id="XMLID_15_" class="st1" d="M103.6,31.4h2.8l-0.3,0.9h5.8v1.4h-3.2c0,0,1.5,2.4,1.3,2.7h-2.3c0,0-0.7-2.3-1.2-2.7l-1.1,0
			l-1.9-2.2V31.4z"/>
		<rect id="XMLID_16_" x="90.9" y="37.2" class="st1" width="21.1" height="1.5"/>
		<rect id="XMLID_17_" x="92" y="40.3" class="st1" width="18.9" height="1.5"/>
		<rect id="XMLID_18_" x="90.7" y="43.4" class="st1" width="21.3" height="1.4"/>
		<rect id="XMLID_21_" x="96.6" y="46.5" class="st1" width="15.5" height="1.5"/>
		<rect id="XMLID_22_" x="99.1" y="49" class="st1" width="3.7" height="1.1"/>
		<path id="XMLID_24_" class="st1" d="M103.6,31.3h3c0,0-2.5,7.1-5.5,11.3c-4.9,7-10.2,9.8-10.2,9.8v-1.8c0,0,4.1-2.3,8.3-8.8
			C101.4,38.4,103.6,31.3,103.6,31.3z"/>
		<path id="XMLID_23_" class="st1" d="M108,44.6v4.6c0,0,0.3,1.9-2.4,1.8l-1.7,0v1.5l2.8,0c0,0,3.3,0.3,3.2-3l0-4.9L108,44.6z"/>
		<path id="XMLID_26_" class="st1" d="M114.3,52.4h2l0-17.6c0,0,0-1.5,2.2-1.4l13.1,0c0,0,1.7,0,1.8,1.8c0,0,0,13.5,0,13.6
			c0,0.2,0.3,2.2-1.8,2.1l-1.5,0l0,1.5h2.3c0,0,3.1,0,3-3l0-15.1c0,0,0.2-2.6-2.7-2.9h-15.3c0,0-2.6-0.2-3,2.8L114.3,52.4z"/>
		<path id="XMLID_31_" class="st1" d="M128.7,43.7c1.3-1.2,3-8.4,3-8.4h-1.8c-0.1,1.8-2,6.6-2,6.6c-1.3-2.7-2-6.6-2-6.6h-1.8
			c-1,4.6-2.2,6.6-2.2,6.6c-0.9-1.6-2-6.6-2-6.6H118c0.6,3.6,3.1,8.5,3.1,8.5l-2.9,4.6l0.1,1.5c0.6-0.5,3.7-4.7,3.7-4.7
			c0.1,0.6,2.9,3.9,2.9,3.9c0.2-0.1,3.1-3.9,3.1-3.9c0.9,1.8,3.8,4.9,3.8,4.9v-1.9C131,47.6,128.7,43.7,128.7,43.7z M125,46.9
			l-2-3.2c1.4-2.1,2-5.2,2-5.2c0,1.2,2,5.2,2,5.2L125,46.9z"/>
		<rect id="XMLID_25_" x="67.4" y="54.7" class="st1" width="5.1" height="0.6"/>
		<rect id="XMLID_27_" x="73.2" y="53.6" class="st1" width="1.1" height="6.2"/>
		<rect id="XMLID_28_" x="67.4" y="59.2" class="st1" width="5.1" height="0.5"/>
		<polygon id="XMLID_33_" class="st1" points="71.5,55 67.4,59.2 67.8,59.5 68.6,59.2 72.5,55.4 		"/>
		<path id="XMLID_32_" class="st1" d="M74.2,55.4l1.3,0c0,0,1.6-0.1,1.5,1.3c0,1.5,0,3.1,0,3.1h1v-3.1c0,0,0.1-1.9-2.3-1.9h-1.8
			L74.2,55.4z"/>
		<path id="XMLID_39_" class="st1" d="M81.3,54.7c-1.4,0-2.5,1.1-2.5,2.5c0,1.4,1.1,2.5,2.5,2.5s2.5-1.1,2.5-2.5
			C83.9,55.9,82.7,54.7,81.3,54.7z M81.3,59.2c-0.9,0-1.6-0.9-1.6-1.9c0-1.1,0.7-1.9,1.6-1.9c0.9,0,1.6,0.9,1.6,1.9
			C82.9,58.3,82.2,59.2,81.3,59.2z"/>
		<path id="XMLID_35_" class="st1" d="M84.6,59.7h1.1v-3.3c0,0,0.1-1.1,1.4-1.1s1.5,1.1,1.5,1.1v3.3h1v-3.5c0,0,0-1.4-1.5-1.5
			l-2.1,0c0,0-1.2,0.1-1.3,1.4V59.7z"/>
		<path id="XMLID_43_" class="st1" d="M92.6,54.7c0,0-2.3,0-2.3,2.2c0,0-0.1,2.3,2.5,2.2l1.6,0c0,0,0.1,0.8-0.3,1.1
			c-0.7,0.6-2.3,0.7-3.7-0.3l0,0.6c0,0,0.8,0.8,2.4,0.8c0,0,2.4,0,2.4-1.8v-4.7H92.6z M94.3,58.6h-1.6c0,0-1.4,0-1.4-1.6
			c0-1.6,1.6-1.7,1.6-1.7l1.5,0V58.6z"/>
		<path id="XMLID_36_" class="st1" d="M100.1,56.3h0.8c0,0-0.3-1.6-2.4-1.6c0,0-2.4-0.2-2.5,2.7c0,0,0.1,2.4,2.8,2.3
			c0,0,1.3,0,2.2-0.9V58c0,0-0.7,1-2.3,1c0,0-1.7,0.2-1.8-1.8c0,0-0.1-1.8,1.6-2C98.5,55.2,99.6,55.1,100.1,56.3z"/>
		<path id="XMLID_5_" class="st1" d="M128.9,56.4h0.8c0,0-0.3-1.6-2.4-1.6c0,0-2.4-0.2-2.5,2.7c0,0,0.1,2.4,2.8,2.3
			c0,0,1.3,0,2.2-0.9V58c0,0-0.7,1-2.3,1c0,0-1.7,0.2-1.8-1.8c0,0-0.1-1.8,1.6-2C127.3,55.3,128.3,55.1,128.9,56.4z"/>
		<rect id="XMLID_40_" x="101.8" y="53.6" class="st1" width="1.1" height="6.2"/>
		<path id="XMLID_34_" class="st1" d="M102.9,55.4l1.3,0c0,0,1.6-0.1,1.5,1.3c0,1.5,0,3.1,0,3.1h1v-3.1c0,0,0.1-1.9-2.3-1.9h-1.8
			L102.9,55.4z"/>
		<path id="XMLID_44_" class="st1" d="M110,54.7c-1.4,0-2.5,1.1-2.5,2.5c0,1.4,1.1,2.5,2.5,2.5s2.5-1.1,2.5-2.5
			C112.5,55.9,111.4,54.7,110,54.7z M110,59.2c-0.9,0-1.6-0.9-1.6-1.9c0-1.1,0.7-1.9,1.6-1.9c0.9,0,1.6,0.9,1.6,1.9
			C111.6,58.3,110.9,59.2,110,59.2z"/>
		<path id="XMLID_49_" class="st1" d="M113.2,54.7h1.1V58c0,0-0.1,1.2,1.1,1.2h1.8v-4.5h1.1v5l-3,0c0,0-2,0.1-2-1.5
			C113.2,56.6,113.2,54.7,113.2,54.7z"/>
		<rect id="XMLID_48_" x="120.9" y="58.7" class="st1" width="1.1" height="1.2"/>
		<path id="XMLID_50_" class="st1" d="M130.5,59.7h1.1v-3.3c0,0,0.1-1.1,1.4-1.1s1.5,1.1,1.5,1.1v3.3h1v-3.5c0,0,0-1.4-1.5-1.5
			l-2.1,0c0,0-1.2,0.1-1.3,1.4V59.7z"/>
	</g>
</g>
</svg>
