<?xml version="1.0" encoding="utf-8"?>
<!-- Generator: Adobe Illustrator 19.0.0, SVG Export Plug-In . SVG Version: 6.00 Build 0)  -->
<svg version="1.1" id="图层_1" xmlns="http://www.w3.org/2000/svg" xmlns:xlink="http://www.w3.org/1999/xlink" x="0px" y="0px"
	 viewBox="0 0 165 90" style="enable-background:new 0 0 165 90;" xml:space="preserve">
<style type="text/css">
	.st0{fill:#FFFFFF;}
	.st1{fill:#333333;}
	.st2{filter:url(#Adobe_OpacityMaskFilter);}
	.st3{opacity:0.8;fill:url(#XMLID_10_);}
	.st4{mask:url(#XMLID_9_);}
	.st5{filter:url(#Adobe_OpacityMaskFilter_1_);}
	.st6{opacity:0.8;fill:url(#XMLID_12_);}
	.st7{mask:url(#XMLID_11_);}
</style>
<rect id="XMLID_4_" x="0.2" y="0" class="st0" width="165" height="90"/>
<rect id="XMLID_7_" x="0.2" y="0" class="st0" width="165" height="90"/>
<g id="XMLID_1_">
	<g id="XMLID_298_">
		<g id="XMLID_341_">
			<g id="XMLID_39_">
				<path id="XMLID_40_" class="st1" d="M103.1,30c-1.7,0.1-2.7,1.1-2.7,2.9v9.2c-0.1,1.9-1.6,3.2-3.6,3.2c-2.1,0-3.5-1.3-3.6-3.2
					l0-9.2C93,31,92.1,30,90.4,30c-1.9,0-2.7,1.1-2.8,2.9v9.2c0.2,4.6,3.2,7.1,9.1,7.2c5.9-0.1,8.9-2.5,9.2-7.2v-9.2
					C105.8,31,104.8,30,103.1,30z"/>
			</g>
		</g>
		<g id="XMLID_333_">
			<g id="XMLID_36_">
				<path id="XMLID_37_" class="st1" d="M103,30.5c-1.6,0.1-2.1,1-2.1,2.6v9.2c0,1.7-1.3,3.5-4.2,3.5c-2.4,0-4-1.8-4.1-3.5l0-9.2
					c-0.1-1.7-0.7-2.6-2-2.7c-1.7,0-2.4,1-2.5,2.7v9.2c0.2,4.2,3.3,6.4,8.6,6.5c5.3-0.1,8.5-2.3,8.8-6.5V33
					C105.3,31.3,104.5,30.5,103,30.5z"/>
			</g>
		</g>
		<g id="XMLID_325_">
			<g id="XMLID_33_">
				<path id="XMLID_34_" class="st1" d="M103,31c-1.4,0-1.7,0.8-1.7,2.3v9c0,2.1-1.9,4-4.5,4c-2.2,0-4.8-1.5-4.8-3.9l0-9.1
					c-0.1-1.5-0.5-2.3-1.6-2.4c-1.3,0-1.9,0.9-2,2.4v8.9c0,3.9,3.4,6.1,8.2,6.2c4.8-0.1,8.1-2.2,8.3-5.9v-9.2
					C104.8,31.8,104.4,31,103,31z"/>
			</g>
		</g>
		<defs>
			<filter id="Adobe_OpacityMaskFilter" filterUnits="userSpaceOnUse" x="88" y="37" width="8.6" height="11.7">
				<feColorMatrix  type="matrix" values="1 0 0 0 0  0 1 0 0 0  0 0 1 0 0  0 0 0 1 0"/>
			</filter>
		</defs>
		<mask maskUnits="userSpaceOnUse" x="88" y="37" width="8.6" height="11.7" id="XMLID_9_">
			<g id="XMLID_105_" class="st2">
				
					<radialGradient id="XMLID_10_" cx="3913.3149" cy="2148.3665" r="20.3474" gradientTransform="matrix(0.2577 0 0 0.249 -919.7926 -488.1295)" gradientUnits="userSpaceOnUse">
					<stop  offset="0" style="stop-color:#FFFFFF"/>
					<stop  offset="1" style="stop-color:#000000"/>
				</radialGradient>
				<rect id="XMLID_106_" x="87" y="35.8" class="st3" width="10.2" height="15"/>
			</g>
		</mask>
		<g id="XMLID_317_" class="st4">
			<g id="XMLID_30_">
				<path id="XMLID_31_" class="st1" d="M90,42.3V37l-2,0v5.2c0.2,4.2,3.3,6.4,8.6,6.5C94.1,48.8,90,46.4,90,42.3z"/>
			</g>
		</g>
		<defs>
			<filter id="Adobe_OpacityMaskFilter_1_" filterUnits="userSpaceOnUse" x="92.1" y="36.6" width="11.2" height="10.4">
				<feColorMatrix  type="matrix" values="1 0 0 0 0  0 1 0 0 0  0 0 1 0 0  0 0 0 1 0"/>
			</filter>
		</defs>
		<mask maskUnits="userSpaceOnUse" x="92.1" y="36.6" width="11.2" height="10.4" id="XMLID_11_">
			<g id="XMLID_93_" class="st5">
				
					<radialGradient id="XMLID_12_" cx="3784.0061" cy="2142.9163" r="28.7666" gradientTransform="matrix(0.2701 0 0 0.249 -921.1658 -488.1295)" gradientUnits="userSpaceOnUse">
					<stop  offset="0" style="stop-color:#FFFFFF"/>
					<stop  offset="0.1146" style="stop-color:#FBFBFB"/>
					<stop  offset="0.2389" style="stop-color:#EEEEEE"/>
					<stop  offset="0.3678" style="stop-color:#D8D8D8"/>
					<stop  offset="0.4998" style="stop-color:#B9B9B9"/>
					<stop  offset="0.6343" style="stop-color:#929292"/>
					<stop  offset="0.7708" style="stop-color:#626262"/>
					<stop  offset="0.9064" style="stop-color:#2B2B2B"/>
					<stop  offset="1" style="stop-color:#000000"/>
				</radialGradient>
				<rect id="XMLID_94_" x="91.6" y="35.9" class="st6" width="12.5" height="12"/>
			</g>
		</mask>
		<g id="XMLID_307_" class="st7">
			<g id="XMLID_27_">
				<path id="XMLID_28_" class="st1" d="M100.8,36.6v5.7c0,1.9-1.6,3.6-3.8,3.6c-2.8,0-4.4-1.8-4.9-3c0,0,0.1,4.2,5,4.2
					c3.2,0,6.1-2.5,6.2-4.7v-5.7L100.8,36.6z"/>
			</g>
		</g>
	</g>
	<g id="XMLID_2_">
		<path id="XMLID_59_" class="st1" d="M128.4,46.7c-1.9,0.3-2.9-0.7-2.8-2.8c0-2.3,0.2-4.5,0.6-6.4c-0.1-0.6-0.3-0.9-0.8-1.1
			c2-0.3,4.1-0.5,6.4-0.8l-0.4-0.7c-1.2-0.1-3.9,0.1-8,0.4c0.1-0.2,0.1-0.5,0.2-0.9c0.4-1.4,0.7-2.4,0.8-3.1
			c0.1-0.6-0.3-1.1-1.1-1.3c-0.9-0.2-1.5,0.2-1.7,1c-0.1,0.4-0.3,1-0.5,1.8c-0.4,1.3-0.7,2.2-0.8,2.8c-1.2,0.2-2.1,0.4-2.5,0.5
			c-0.9,0.3-1.2,0.9-0.9,1.5c0.4,0.7,1.1,0.8,2,0.4c0.1-0.1,0.3-0.1,0.5-0.3c0.2-0.1,0.4-0.1,0.5-0.2c-1.2,4-2.4,7-3.7,9.1
			c0.2-3.6,0.4-6.7,0.4-9.4c0.2-0.6-0.3-1.1-1.4-1.4c0.8-1.3,1.6-2.6,2.3-4c0.5-0.9,0.3-1.5-0.6-1.8c-0.9-0.3-1.7,0-2.2,1
			c-1.2,2.5-2.8,5.3-4.8,8.2c0.6-0.2,1.7-0.3,3.3-0.3c0.1-0.1,0.2-0.2,0.3-0.4c0.1-0.1,0.1-0.2,0.2-0.3c-0.1,2.8-0.2,5.8-0.4,9.1
			c1.2-0.1,2.2-0.2,2.9-0.2c0-0.2,0-0.3,0-0.4c1-0.2,2-0.2,3.2-0.2c1.4-3.2,2.6-6.6,3.7-10.2l0.4-0.1c-0.2,0.2-0.3,0.6-0.3,1.2
			c-0.2,2.9-0.3,5-0.3,6.1c0,3.5,1.6,4.9,4.9,4.1c1.3-0.3,2.9-1.1,4.9-2.3l-0.5-0.6C131,45.9,129.7,46.4,128.4,46.7z"/>
		<path id="XMLID_60_" class="st1" d="M126.9,34.4c1.1-0.3,2-0.5,2.9-0.5c-0.1-0.1-0.4-0.5-0.7-1.1c-0.3-0.5-0.4-0.7-0.6-0.9
			c-0.7-0.9-1.5-1.1-2.4-0.6c-0.6,0.3-0.7,0.7-0.4,1.3C126.3,33.5,126.7,34.1,126.9,34.4z"/>
		<path id="XMLID_65_" class="st1" d="M153.9,37.7l-0.2-0.7c-0.9-0.1-1.9-0.1-3.2-0.1c0-0.1,0-0.3,0.1-0.7c0.1-0.7,0.2-1.2,0.3-1.6
			c0.9-0.1,1.7-0.2,2.5-0.3l-0.3-0.8c-0.7,0.1-1.4,0.1-2.1,0.1c0.1-0.3,0.1-0.7,0.1-1.2c0.1-0.5,0.1-0.9,0.1-1.1
			c0-1-0.5-1.5-1.4-1.5c-0.8,0-1.2,0.5-1.2,1.5c-0.1,0.9-0.2,1.8-0.3,2.6c-0.2,0-0.4,0-0.7,0.1c-0.2,0-0.4,0-0.6,0
			c0.1-0.1,0.1-0.3,0.2-0.6c0.2-0.6,0.3-1.1,0.5-1.5c0.3-0.9,0-1.3-0.8-1.5c-0.9-0.1-1.6,0.4-1.9,1.5c-0.4,0.9-0.7,1.8-0.9,2.8
			c-0.1,0.1-0.1,0.2-0.1,0.3c-0.1,0.9,0.5,1.1,1.7,0.7c0.2-0.1,0.4-0.1,0.7-0.2c0.7-0.2,1.4-0.4,1.9-0.4c-0.1,0.6-0.2,1.3-0.3,2.1
			c-0.8,0.1-1.6,0.1-2.3,0.3c-0.4,0.1-0.8,0.3-1.1,0.4c-0.3-1.9-1.4-3-3.4-3c0.1-0.5,0.2-1.3,0.5-2.2c0.1-0.3,0.1-0.5,0.2-0.6
			c0.2-0.1,0.7-0.1,1.2-0.1c0.6-0.1,1-0.1,1.2-0.1l-0.2-0.9c-3.3-0.3-6.6-0.1-9.9,0.6c-1.6,0.5-2.3,1-2,1.6c0.2,0.8,0.9,1,2,0.7
			c0.2-0.1,0.5-0.1,0.8-0.3c0.9-0.3,1.6-0.6,2-0.7c-0.2,0.9-0.3,1.7-0.4,2.4c-0.5,0.2-1,0.3-1.5,0.4c-0.1-0.3-0.4-0.4-0.8-0.4
			c-0.9-0.1-1.3,0.5-1.2,1.7c-0.2,3.6-0.3,7.5-0.4,11.6c3.2-1.1,6-1.7,8.4-1.8c0,0.3,0,0.6-0.1,0.8c-0.1,0.1-0.1,0.1-0.1,0.2
			c0.8-0.3,1.7-0.3,2.7-0.2c0.3-1.6,0.6-4.1,0.8-7.5c0-0.3,0-0.5,0.1-0.8c0.2,0.2,0.4,0.2,0.7,0.1C147.4,38.7,150.3,38.1,153.9,37.7
			z M138.5,34c0.1-0.7,0.2-1.2,0.2-1.5c0.4,0,0.7-0.1,0.9-0.2c-0.1,0.3-0.1,0.7-0.2,1.1c-0.1,0.7-0.2,1.2-0.3,1.5
			c-0.2,0.1-0.5,0.1-0.7,0.1C138.4,34.8,138.4,34.5,138.5,34z M135.2,40.9c0.1-1.3,0.1-2.3,0.1-2.9c0.4-0.3,0.7-0.5,1.1-0.7
			c-0.4,3-0.7,5.1-1,6.4h-0.1c-0.1,0.1-0.1,0.1-0.2,0.1C135.2,43.2,135.2,42.2,135.2,40.9z M141.5,45.9c-2.1,0.1-4.2,0.3-6.3,0.6v-1
			c1.7-0.4,3.9-0.7,6.5-0.9C141.6,45,141.6,45.4,141.5,45.9z M141.8,43.4c-0.3,0-0.8,0-1.5,0.1c-1.3,0.1-2.3,0.1-3.1,0.2
			c0.1-0.7,0.2-1.7,0.4-3.1c0.2-1.8,0.4-3.2,0.6-4c0.2,0,0.4,0,0.6-0.1c0.1-0.1,0.1-0.1,0.2-0.1c-0.1,0.3-0.1,0.9-0.2,1.5
			c-0.1,1-0.2,1.7-0.3,2.1c-0.1,2.1,0.4,3.1,1.6,2.9c0.9-0.2,1.6-0.4,1.9-0.6C141.9,42.7,141.9,43,141.8,43.4z M142,41.2
			c-0.2,0-0.5,0.1-0.7,0.2c-0.7,0.2-0.9-0.3-0.7-1.6c0.1-1.1,0.2-2.2,0.3-3.2c0.1-0.2,0.1-0.4,0.1-0.5c0.6-0.1,1,0.5,1,1.5
			C142.1,38.8,142.1,40,142,41.2z"/>
		<path id="XMLID_74_" class="st1" d="M152.2,45.9c0.3-1.2,0.5-2.5,0.7-4c-0.1-1.5-1.1-2.3-3-2.3c-0.9,0.1-1.8,0.2-2.6,0.5
			c-0.3-0.2-0.7-0.3-1-0.3c-0.7-0.1-1,0.4-1,1.5c0,0.3,0,0.7,0.1,1.4c0.1,3,0.2,4.9,0.3,5.8c0.6-0.3,1.4-0.5,2.4-0.4
			c0-0.1,0-0.3,0-0.5c0.9-0.3,2.1-0.5,3.8-0.7c0.6-0.1,1-0.1,1.3-0.2l-0.3-0.8C152.6,45.9,152.4,45.9,152.2,45.9z M149.7,46
			c-0.2,0.1-0.5,0.1-0.9,0.1c-0.4,0.1-0.7,0.1-0.8,0.1c0-0.3,0-0.9-0.1-1.7c-0.1-1.1-0.1-2-0.2-2.5c0.7-0.6,1.3-0.9,1.6-0.9
			c0.4-0.2,0.7-0.2,0.8,0c0.1,0.1,0.2,0.4,0.2,0.9C150.2,43.4,150,44.7,149.7,46z"/>
		<ellipse id="XMLID_75_" class="st1" cx="90" cy="32" rx="2.1" ry="2"/>
		<ellipse id="XMLID_76_" class="st1" cx="102.9" cy="32" rx="2.1" ry="2"/>
		<path id="XMLID_79_" class="st1" d="M81.1,39.5l4.9-4.3c0,0,2.4-2.3,0.3-4.3c-1.6-1.5-3.5-0.6-4.3,0l-7.1,6.8l0-4.9
			c0-1.6-1-2.7-2.9-2.7c-2,0-2.8,1-2.9,2.7v1.4c-0.1-1.1-0.8-1.8-2.1-2.1c-1.7-0.3-2.8,0.5-3.4,2.3l-2.2,8.9
			c-0.6,1.9-2.2,2.9-4.3,2.4c-3.2-0.7-3-3.1-2.8-3.9l2.3-9c0.4-1.8-0.2-2.9-1.8-3.4c-1.8-0.3-2.9,0.5-3.5,2.3l-0.9,3.5
			c-1.5-3.6-5.1-6.1-9.3-6.1c-2.9,0-5.5,1.2-7.3,3.1c0-0.9-0.3-2-1.9-2.5c-2.9-1-3.8,0.5-4.4,1.9l-4.8,11.5l-4.6-11.5
			c-0.8-1.6-2-2.6-4.4-1.9c-2.6,0.9-1.7,3.5-1.6,4L19,50.3l-2.8,6.2c-0.4,0.8-1.1,3.2,1.5,4.1c2.5,1,3.7-0.5,4.5-2.2l8.6-19.3
			c0.1,5.4,3.9,9.8,10.1,9.8c3.9,0,6.6-1.5,8.3-3.8c0.8,1.7,2.7,3.4,6.9,4.4c5.1,1.2,9.3-0.6,10.7-5.1l1.7-6.8V49h2.1
			c0.4,0.1,0.9,0.2,1.4,0.2c1.9,0,2.8-0.9,2.9-2.4l0-5.2c0,0,7.5,6.4,8,6.7c1.2,1,3.2,0.9,4.2-0.1c1-1,0.8-3.1-0.5-4.1L81.1,39.5z
			 M40.9,44.1c-2.4,0-4.3-2.2-4.3-5c0-2.8,1.9-5,4.3-5c2.4,0,4.3,2.2,4.3,5C45.1,41.9,43.2,44.1,40.9,44.1z"/>
	</g>
</g>
</svg>
