<?xml version="1.0" encoding="utf-8"?>
<!-- Generator: Adobe Illustrator 19.0.0, SVG Export Plug-In . SVG Version: 6.00 Build 0)  -->
<svg version="1.1" id="图层_1" xmlns="http://www.w3.org/2000/svg" xmlns:xlink="http://www.w3.org/1999/xlink" x="0px" y="0px"
	 viewBox="0 0 165 90" style="enable-background:new 0 0 165 90;" xml:space="preserve">
<style type="text/css">
	.st0{fill:#FFFFFF;}
	.st1{fill:#333333;}
</style>
<rect id="XMLID_4_" x="0.2" y="0" class="st0" width="165" height="90"/>
<rect id="XMLID_7_" x="0.2" y="0" class="st0" width="165" height="90"/>
<g id="XMLID_1_">
	<path id="XMLID_6_" class="st1" d="M92.5,48.4l4.4-7h-6.5l5.5-8.8h-6.8L85,39.3c-1.8,2.8,0.7,4.2,4.3,3.4l-2.8,4.4
		c-1.2,1.9-2.4,4.1,1.6,4.3h2.6h7.4h0.3v-3h-0.3H92.5z"/>
	<polygon id="XMLID_2_" class="st1" points="85.1,55.2 85.1,58.1 98.1,58.1 98.4,58.1 98.4,55.2 98.1,55.2 	"/>
	<path id="XMLID_8_" class="st1" d="M127.1,39.2v-3h-7.4v-4.3h-5.5v4.3h-4.1h-4.1v-0.3l2.3-4h-6.9l-3.3,5.9l-0.4,0.6h0.4h2.4v3.9v3
		v4.1v3v2c-0.2,2.2,0.5,3.9,4.2,3.9h5.4h17v-2.9h-7.4v-3h7.4v-3h-7.4v-4.1h7.4v-3h-7.4v-3.1H127.1z M114.2,55.2h-4.1h-0.6
		c-2.6-0.1-3.5-1.3-3.6-2.8v-0.2h4.1h4.1V55.2z M114.2,49.3h-4.1h-4.1v-4.1h4.1h4.1V49.3z M114.2,42.2h-4.1h-4.1v-3.1h4.1h4.1V42.2z
		"/>
	<polygon id="XMLID_13_" class="st1" points="71.4,51.6 71.4,32.7 68.7,32.7 66,32.7 66,51.6 68.7,51.6 	"/>
	<path id="XMLID_14_" class="st1" d="M74.9,52.3c0.3,1.9-0.6,2.8-2.8,2.9h-3.4H66v2.9h2.7h6h0.6c3.1,0,5.1-0.2,5.1-3.7V31.9h-5.5
		V52.3z"/>
	<path id="XMLID_15_" class="st1" d="M49.3,55c-1.7,0-2.6-0.8-2.4-2.3v-1.2h4.5h7.4c1.7,0,3.1-1.2,3.1-2.6v-7.6H51.4H40.7v9v1.1V54
		c0.2,2.3,1.6,3.9,5,3.9h5.7h10.2l2-2.9H51.4H49.3z M46.8,43.9h4.6h4.7v3.8c0,0.7-0.7,1.3-1.5,1.3h-3.2h-4.6V43.9z"/>
	<path id="XMLID_18_" class="st1" d="M55.5,31.9h-2.8h-1.2h-1.8h-5.2h-0.9l-5.2,7.6h6.1l3.6-5.2h3.5h3l3.5,5.2H64l-4.1-6
		C59,32.3,57.5,31.8,55.5,31.9z"/>
</g>
</svg>
