<?xml version="1.0" encoding="utf-8"?>
<!-- Generator: Adobe Illustrator 19.0.0, SVG Export Plug-In . SVG Version: 6.00 Build 0)  -->
<svg version="1.1" id="图层_1" xmlns="http://www.w3.org/2000/svg" xmlns:xlink="http://www.w3.org/1999/xlink" x="0px" y="0px"
	 viewBox="0 0 165 90" style="enable-background:new 0 0 165 90;" xml:space="preserve">
<style type="text/css">
	.st0{fill:#FFFFFF;}
	.st1{fill:#333333;}
</style>
<rect id="XMLID_4_" x="0.2" y="0" class="st0" width="165" height="90"/>
<rect id="XMLID_7_" x="0.2" y="0" class="st0" width="165" height="90"/>
<g id="XMLID_3_">
	<path id="XMLID_24_" class="st1" d="M101.5,42.7L95.1,56h3.5l1.4-3h6.5l1.4,3h3.6L105,42.7H101.5z M101,50.7l2.2-4.9l2.3,4.9H101z"
		/>
	<polygon id="XMLID_25_" class="st1" points="74.8,47.9 68.3,47.9 68.3,42.7 65,42.7 65,56 68.3,56 68.3,50.2 74.8,50.2 74.8,56 
		78.1,56 78.1,42.7 74.8,42.7 	"/>
	<rect id="XMLID_26_" x="148.7" y="42.7" class="st1" width="3.3" height="13.3"/>
	<polygon id="XMLID_27_" class="st1" points="125.4,52 122.5,42.7 118.5,42.7 115.6,51.8 113.1,42.7 109.7,42.7 113.6,56 117.2,56 
		120.4,46 123.7,56 127.2,56 131.2,42.7 127.9,42.7 	"/>
	<path id="XMLID_28_" class="st1" d="M136.4,43.8c-1.8,1.2-2.9,3.2-2.9,5.5c0,2.8,1.7,5.2,4,6.1c0.8,0.3,1.5,0.4,2.3,0.4
		c0.2,0,0.5,0,0.7,0h5.6v-2.3h-6.3c-1.8,0-2.6-1.7-2.8-3.3h9.1v-2.3h-9c0.4-1.5,1-2.7,2.7-2.7h6.3v-2.3h-5.3
		C139.2,42.8,137.7,42.9,136.4,43.8z"/>
	<path id="XMLID_29_" class="st1" d="M91,49.9c0,1.1,0,1.9-0.1,2.2c-0.1,0.5-0.5,1-1,1.3c-0.4,0.2-0.9,0.4-1.6,0.5
		c-0.1,0-0.2,0-0.3,0c-0.8,0-1.4-0.2-1.9-0.5c-0.5-0.3-0.9-0.8-1-1.3C85,51.8,85,51,85,49.9v-7.2h-3.3v7.1c0,1.5,0.1,2.6,0.3,3.4
		c0.1,0.5,0.5,1,0.9,1.5c0.5,0.5,1.1,0.8,1.9,1.1c0.7,0.2,1.6,0.4,2.8,0.4v0c0.1,0,0.2,0,0.3,0c0.1,0,0.2,0,0.3,0v0
		c1.2,0,2.2-0.2,2.8-0.4c0.8-0.3,1.4-0.7,1.9-1.1c0.5-0.5,0.8-1,0.9-1.5c0.2-0.8,0.3-1.9,0.3-3.4v-7.1H91V49.9z"/>
	<path id="XMLID_30_" class="st1" d="M52.4,40.6c-0.2-2.8-3-5.7-3.4-5.7c-0.4,0-3.7,4.4-6.2,8.6c-2.5,4.2-5.6,10-5.5,10.3
		c0.1,0.4,7.8-4,11-6.4C51.5,45.3,52.6,43.4,52.4,40.6z"/>
	<path id="XMLID_31_" class="st1" d="M41.1,58.7c1,0.7,4.6,3.1,6.9,2.1c2.3-1.1,3.6-3.8,3.6-3.8l-13.1-0.4
		C38.4,56.6,40.1,57.9,41.1,58.7z"/>
	<path id="XMLID_32_" class="st1" d="M47.6,49.7c-2.3,1.2-9.4,5.7-9.4,5.8c-0.1,0.2,8.9,0.3,10.4,0.1c1.4-0.2,4.3-1,5.8-3.7
		c1.5-2.6,0.8-6.2,0.6-6.2C54.8,45.6,50,48.4,47.6,49.7z"/>
	<path id="XMLID_33_" class="st1" d="M20.8,60.7c2.3,1.1,5.9-1.3,6.9-2.1c0.9-0.7,2.6-2.1,2.6-2.1l-13.1,0.4
		C17.3,56.9,18.5,59.7,20.8,60.7z"/>
	<path id="XMLID_34_" class="st1" d="M42.9,31.7c-2.1-2.9-5.5-2.7-5.5-2.7c-0.2,0.3-1.6,4.3-2.1,7.5c-0.5,3.1,0.1,15.9,0.1,16.1
		c0,0.2,0.2,0.3,0.4,0.1c0.2-0.2,5.5-9.1,6.5-11.4C43.5,39,45.1,34.6,42.9,31.7z"/>
	<path id="XMLID_35_" class="st1" d="M13.8,45.7c-0.2,0.1-0.9,3.6,0.6,6.2s4.5,3.5,5.8,3.7c1.5,0.2,10.4,0.1,10.4-0.1
		c-0.1-0.2-7.1-4.6-9.4-5.8C18.8,48.4,14,45.6,13.8,45.7z"/>
	<path id="XMLID_36_" class="st1" d="M19.8,34.9c-0.4,0-3.1,2.9-3.4,5.7c-0.2,2.8,0.9,4.7,4.1,6.9c3.2,2.4,10.9,6.8,11,6.4
		c0.1-0.4-3-6.1-5.5-10.3C23.5,39.4,20.2,34.9,19.8,34.9z"/>
	<path id="XMLID_37_" class="st1" d="M31.4,29c0,0-3.3-0.2-5.5,2.7c-2.1,2.9-0.5,7.3,0.5,9.6c1,2.3,6.4,11.2,6.5,11.4
		c0.2,0.2,0.4,0.1,0.4-0.1c0-0.2,0.6-12.9,0.1-16.1C33,33.4,31.6,29.4,31.4,29z"/>
</g>
</svg>
