<?xml version="1.0" encoding="utf-8"?>
<!-- Generator: Adobe Illustrator 19.0.0, SVG Export Plug-In . SVG Version: 6.00 Build 0)  -->
<svg version="1.1" id="图层_1" xmlns="http://www.w3.org/2000/svg" xmlns:xlink="http://www.w3.org/1999/xlink" x="0px" y="0px"
	 viewBox="0 0 165 90" style="enable-background:new 0 0 165 90;" xml:space="preserve">
<style type="text/css">
	.st0{fill:#FFFFFF;}
	.st1{fill-rule:evenodd;clip-rule:evenodd;fill:#333333;}
	.st2{fill:#333333;}
</style>
<rect id="XMLID_4_" x="0.2" y="0" class="st0" width="165" height="90"/>
<rect id="XMLID_7_" x="0.2" y="0" class="st0" width="165" height="90"/>
<g id="XMLID_21_">
	<path id="XMLID_38_" class="st1" d="M27.3,48.6c0-0.3,0.2-0.6,0.6-0.6c0.3,0,0.6,0.2,0.6,0.6c0,0.3-0.2,0.6-0.6,0.6
		C27.6,49.1,27.3,48.9,27.3,48.6L27.3,48.6z M29.2,42.2L29.2,42.2c-1.6,0-3.1,0.3-4.5,1c0.2-2.5,2.3-4.4,4.9-4.4
		c2.7,0,4.9,2.2,4.9,4.9l0,0c-1.3-0.8-2.8-1.3-4.5-1.4c-1,1.2-1.7,2.6-2,4.2c0.2-0.4,0.7-0.6,1.1-0.6c0.7,0,1.4,0.6,1.4,1.4
		c0,0.7-0.6,1.4-1.4,1.4h0l0,0c0.7,0,1.4,0.6,1.4,1.4c0,0.7-0.6,1.4-1.4,1.4c-0.7,0-1.4-0.6-1.4-1.4c0,0.7-0.6,1.4-1.4,1.4
		c-0.7,0-1.4-0.6-1.4-1.4c0-0.7,0.6-1.3,1.3-1.4c-0.8,0-1.3-0.6-1.3-1.4c0-0.7,0.6-1.4,1.4-1.4c0.5,0,1,0.3,1.2,0.8
		C27.9,45,28.4,43.5,29.2,42.2L29.2,42.2z"/>
	<path id="XMLID_17_" class="st2" d="M39.1,43.7c1.6-0.9,3.4-1.5,5.4-1.5c1.6,0,3.1,0.4,4.4,1c-0.2-2.5-2.3-4.4-4.9-4.4
		C41.3,38.8,39.1,41,39.1,43.7L39.1,43.7L39.1,43.7z"/>
	<path id="XMLID_34_" class="st1" d="M21.2,45c0-8.6,7-15.6,15.6-15.6c8.6,0,15.6,7,15.6,15.6c0,8.6-7,15.6-15.6,15.6
		C28.2,60.6,21.2,53.6,21.2,45L21.2,45z M17.6,45c0-10.6,8.6-19.2,19.2-19.2C47.4,25.8,56,34.4,56,45c0,10.6-8.6,19.2-19.2,19.2
		C26.2,64.2,17.6,55.6,17.6,45L17.6,45z"/>
	<g id="XMLID_22_">
		<path id="XMLID_32_" class="st2" d="M70.9,32h1.9c1.7,0,2.6,0.1,2.6,0.4c0,0.1,0,0.2-0.1,0.4c-0.1,0.4-0.1,1-0.1,1.7v6.7h9.4v3.5
			h-9.4v10.5h11.3v3.7H59.6v-3.7h11.3V44.7h-9.6v-3.5h9.6V32z"/>
		<path id="XMLID_27_" class="st2" d="M101.2,55.3h4.5c0.8-1.3,1.5-2.8,2.2-4.5c0.2-0.6,0.4-1,0.5-1c1.2,0.2,2.6,0.6,4.3,1.2
			c0,0.1-0.1,0.3-0.4,0.7c-0.8,1-1.6,2.2-2.4,3.5h8v3.3H91.1v-3.3h8.4c-0.7-1.2-1.5-2.4-2.4-3.4l3.7-2.1c1.1,1.4,2,2.8,2.8,4.3
			L101.2,55.3z M116.7,37H92.3v-3.4h24.4V37z M95.3,39.1h18.4v10.4H95.3V39.1z M109.4,46v-3.5H99.2V46H109.4z"/>
		<path id="XMLID_23_" class="st2" d="M123.5,32.4h24.2v23.4c0.1,1.6-0.3,2.7-1.2,3.2c-0.8,0.6-2.7,0.9-5.6,0.9
			c0-1.6-0.4-2.9-1.1-3.8c1.8,0,2.9-0.1,3.3-0.2c0.5-0.1,0.7-0.4,0.6-1.1v-19h-16.5v3.8c0.7-0.5,1.4-1,1.9-1.5
			c0.2,0.2,0.4,0.5,0.7,1.1c1.1,1.6,1.6,2.4,1.6,2.3c0.3-1.1,0.6-2.6,0.9-4.4l3.7,1l-0.7,2.2l1.5-1c0.1,0.2,0.3,0.6,0.7,1.2
			c0.7,1.1,1.2,1.7,1.3,1.9c0.5-1.7,0.9-3.5,1.1-5.4l3.5,1.1c-0.3,1.6-1.2,4.4-2.6,8.3c1.4,2.8,2.2,4.8,2.6,5.8
			c-1.1,0.3-2.2,0.9-3.3,1.6c-0.2-0.4-0.3-1-0.5-1.8c-0.2-0.7-0.4-1.3-0.6-1.7l-0.7,1.2c-1.3,2.2-2.2,3.6-2.8,4.3
			c-0.9-0.7-1.9-1.3-3-1.6c0.8-1,1.7-2.1,2.7-3.4c-0.7,0.2-1.3,0.6-2.1,1.1c0-0.1-0.1-0.4-0.4-1c-0.4-0.9-0.7-1.5-0.7-1.8
			c-1,1.9-2.2,3.7-3.5,5.5c-0.2-0.6-0.7-1.2-1.3-1.8v6.7h-3.7V32.4z M127.2,51.3c1.1-1.4,2.1-3.3,3.2-5.7c-1.1-2.2-2.2-3.9-3.2-5.2
			V51.3z M133.8,45.2c1.2,2.4,1.9,3.9,2.2,4.3c0.6-0.6,1.1-1.7,1.5-3c-1.1-2.1-1.9-3.6-2.6-4.5L133.8,45.2z"/>
	</g>
</g>
</svg>
