<?xml version="1.0" encoding="utf-8"?>
<!-- Generator: Adobe Illustrator 19.0.0, SVG Export Plug-In . SVG Version: 6.00 Build 0)  -->
<svg version="1.1" xmlns="http://www.w3.org/2000/svg" xmlns:xlink="http://www.w3.org/1999/xlink" x="0px" y="0px"
	 viewBox="0 0 165 90" style="enable-background:new 0 0 165 90;" xml:space="preserve">
<style type="text/css">
	.st0{display:none;}
	.st1{display:inline;fill:#FFFFFF;}
	.st2{fill:#FFFFFF;}
	.st3{fill:#333333;}
	.st4{font-family:'MicrosoftYaHei';}
	.st5{font-size:3.0643px;}
</style>
<g id="图层_1" class="st0">
	<rect id="XMLID_4_" class="st1" width="165" height="90"/>
</g>
<g id="图层_2" class="st0">
</g>
<g id="图层_3">
	<rect id="XMLID_2_" class="st2" width="165" height="90"/>
	<g id="XMLID_1_">
		<rect id="XMLID_5_" x="94.5" y="32.3" class="st3" width="29.7" height="2.7"/>
		<rect id="XMLID_10_" x="94.5" y="36.2" class="st3" width="29.7" height="2.5"/>
		<rect id="XMLID_11_" x="105.9" y="30.5" class="st3" width="6.7" height="6.8"/>
		<rect id="XMLID_13_" x="97.7" y="44.4" class="st3" width="23.1" height="2.3"/>
		<rect id="XMLID_15_" x="94.5" y="56.2" class="st3" width="29.3" height="2.9"/>
		<path id="XMLID_20_" class="st3" d="M94.5,39.7v5.2h29.7v-5.2H94.5z M117.5,44.1h-16.8v-1.5h16.8V44.1z"/>
		<path id="XMLID_22_" class="st3" d="M96,48v6.6h26.3V48H96z M116.1,51.9h-13.9v-1.3h13.9V51.9z"/>
		<polygon id="XMLID_12_" class="st3" points="115.1,54 112.6,57.1 118,57.1 120.6,54 		"/>
		<polygon id="XMLID_16_" class="st3" points="127.5,30.5 131.9,30.5 134.2,34.1 129.5,34.1 		"/>
		<rect id="XMLID_23_" x="126.4" y="36.2" class="st3" width="7.5" height="3.1"/>
		<rect id="XMLID_24_" x="129.5" y="37.1" class="st3" width="4.3" height="22"/>
		<rect id="XMLID_25_" x="135.7" y="32" class="st3" width="20.5" height="2.7"/>
		<rect id="XMLID_26_" x="135.7" y="36.1" class="st3" width="20.5" height="2.5"/>
		<rect id="XMLID_27_" x="142.2" y="30.5" class="st3" width="7.1" height="6.8"/>
		<rect id="XMLID_28_" x="135.7" y="49.5" class="st3" width="20.5" height="2.8"/>
		<polygon id="XMLID_31_" class="st3" points="138.4,39.7 143.1,39.7 145,43.3 140.5,43.3 		"/>
		<polygon id="XMLID_51_" class="st3" points="135.7,44.1 140.3,44.1 142.6,48 138.4,48 		"/>
		<polygon id="XMLID_52_" class="st3" points="148.5,39.7 153.7,39.7 142.1,59.1 136.3,59.1 		"/>
		<polygon id="XMLID_53_" class="st3" points="146.1,51.9 150.6,59.5 156,59.5 151.2,51.3 		"/>
		<circle id="XMLID_8_" class="st3" cx="13.9" cy="32.9" r="2.3"/>
		<rect id="XMLID_9_" x="8.7" y="37" class="st3" width="7.4" height="2.9"/>
		<rect id="XMLID_54_" x="10.9" y="38.3" class="st3" width="5.2" height="20.5"/>
		<path id="XMLID_60_" class="st3" d="M29.3,48.9c0,0,6.9,0.6,7.1-6.1c0,0,0.2-6-7.5-6s-7.7,0.1-7.7,0.1v22h1.8v-10l4.2,0l8.5,9.9
			h2.7L29.3,48.9z M28.9,47.5h-6.1v-9.3h5.9c6.5,0,5.9,4.7,5.9,4.7C34.7,47.7,28.9,47.5,28.9,47.5z"/>
		<path id="XMLID_63_" class="st3" d="M52.4,53.8c0,0-0.2,3.7-5.8,3.7c0,0-6,0.4-5.9-6.4h13.7c0,0,1-9.1-7.8-9.1S38.8,51,38.8,51
			s-0.4,7.9,8.2,7.9c0,0,6.2,0.2,7-5L52.4,53.8z M46.5,43.3c6.3,0,5.9,6.5,5.9,6.5H40.5C40.5,49.8,40.1,43.3,46.5,43.3z"/>
		<path id="XMLID_66_" class="st3" d="M64.6,41.9c-6.5,0-7.3,4.6-7.3,4.6l1.5,0.8c0,0,0.6-4.1,5.7-4c0,0,5.3-0.4,4.9,4.8
			c0,0-12.8-1.9-12.7,5.5c0,0-0.2,5.5,6.7,5.3c0,0,3.6,0.5,6-2.7v2.6h1.8V46.2C71.1,46.2,71.1,41.9,64.6,41.9z M63.8,57.4
			c-5.9,0.2-5.6-3.5-5.6-3.5c-0.3-6.3,11.3-4.6,11.3-4.6C70.5,57.7,63.8,57.4,63.8,57.4z"/>
		<path id="XMLID_69_" class="st3" d="M81.6,41.9c-4,0-7.3,3.8-7.3,8.5c0,4.7,3.3,8.5,7.3,8.5c4,0,7.3-3.8,7.3-8.5
			C88.9,45.7,85.7,41.9,81.6,41.9z M81.6,57.7c-3.3,0-5.9-3.3-5.9-7.3s2.6-7.3,5.9-7.3c3.3,0,5.9,3.3,5.9,7.3S84.9,57.7,81.6,57.7z"
			/>
		<polygon id="XMLID_55_" class="st3" points="89.2,59.2 87.6,59.2 87.6,54 88.1,50.2 87.6,46.8 87.6,37 89.2,37 		"/>
		<polygon id="XMLID_14_" class="st3" points="103.3,54 105.8,57.1 100.5,57.1 97.9,54 		"/>
		<text id="XMLID_56_" transform="matrix(1 0 0 1 21.0655 34.1622)" class="st3 st4 st5">轻</text>
		<text id="XMLID_73_" transform="matrix(1 0 0 1 64.9368 34.1325)" class="st3 st4 st5">有</text>
		<text id="XMLID_42_" transform="matrix(1 0 0 1 41.7967 34.1173)" class="st3 st4 st5">默</text>
		<text id="XMLID_39_" transform="matrix(1 0 0 1 31.437 34.0724)" class="st3 st4 st5">幽</text>
		<rect id="XMLID_72_" x="54.9" y="31.9" class="st3" width="0.3" height="2.3"/>
		<text id="XMLID_40_" transform="matrix(1 0 0 1 75.2657 34.1328)" class="st3 st4 st5">情</text>
		<text id="XMLID_41_" transform="matrix(1 0 0 1 85.5309 34.1326)" class="st3 st4 st5">趣</text>
	</g>
</g>
</svg>
