<?xml version="1.0" encoding="utf-8"?>
<!-- Generator: Adobe Illustrator 19.0.0, SVG Export Plug-In . SVG Version: 6.00 Build 0)  -->
<svg version="1.1" id="图层_1" xmlns="http://www.w3.org/2000/svg" xmlns:xlink="http://www.w3.org/1999/xlink" x="0px" y="0px"
	 viewBox="0 0 165 90" style="enable-background:new 0 0 165 90;" xml:space="preserve">
<style type="text/css">
	.st0{fill:#FFFFFF;}
	.st1{fill:#333333;}
</style>
<rect id="XMLID_4_" x="0.2" y="0" class="st0" width="165" height="90"/>
<rect id="XMLID_7_" x="0.2" y="0" class="st0" width="165" height="90"/>
<g id="XMLID_1_">
	<path id="XMLID_15_" class="st1" d="M103.7,24c-5.6-5.6-13.1-8.7-21-8.7C66.3,15.3,53,28.6,53,45c0,7.9,3.1,15.4,8.7,21
		c5.6,5.6,13.1,8.7,21,8.7s15.4-3.1,21-8.7c5.6-5.6,8.7-13.1,8.7-21S109.3,29.6,103.7,24z M82.7,73.7c-7.7,0-14.9-3-20.3-8.4
		C57,59.9,54,52.7,54,45s3-14.9,8.4-20.3c5.4-5.4,12.6-8.4,20.3-8.4s14.9,3,20.3,8.4c5.4,5.4,8.4,12.6,8.4,20.3
		C111.4,60.8,98.5,73.7,82.7,73.7z"/>
	<path id="XMLID_18_" class="st0" d="M103,24.7c-5.4-5.4-12.6-8.4-20.3-8.4s-14.9,3-20.3,8.4C57,30.1,54,37.3,54,45s3,14.9,8.4,20.3
		c5.4,5.4,12.6,8.4,20.3,8.4c15.8,0,28.7-12.9,28.7-28.7C111.4,37.3,108.4,30.1,103,24.7z M82.7,72.5c-15.2,0-27.5-12.3-27.5-27.5
		s12.3-27.5,27.5-27.5s27.5,12.3,27.5,27.5S97.9,72.5,82.7,72.5z"/>
	<path id="XMLID_21_" class="st1" d="M82.7,17.5c-15.2,0-27.5,12.3-27.5,27.5s12.3,27.5,27.5,27.5s27.5-12.3,27.5-27.5
		S97.9,17.5,82.7,17.5z M78.7,19h2.2l2,5.2l2-5.2H87v7.2h-1.5v-5.1l-1.9,5.1H82l-1.9-5.1v5.1h-1.5V19z M60.4,30.9l3.5-4.2
		c0.7-0.9,1.8-1.6,2.7-0.8c0.3,0.3,0.4,0.3,0.8,1c0.1,0.2,0.2,0.7,0,1.1c0.8-0.5,1.7-0.4,2.3,0.2c0.9,0.9,0.8,1.9-0.1,2.9L66,35.6
		L60.4,30.9z M82.7,62.6c-9.7,0-17.6-7.9-17.6-17.6c0-9.7,7.9-17.6,17.6-17.6s17.6,7.9,17.6,17.6C100.3,54.7,92.4,62.6,82.7,62.6z
		 M99.1,35.7l-1.3-1.6l2.6-3.8l0,0L96.1,32l-1.3-1.6l4.5-5.8l1.1,1.4l-2.8,3.7l4.3-1.9l1.2,1.5l-2.7,3.9l4.2-2l1.1,1.4L99.1,35.7z"
		/>
	<path id="XMLID_27_" class="st0" d="M82.7,27.4c-9.7,0-17.6,7.9-17.6,17.6c0,9.7,7.9,17.6,17.6,17.6s17.6-7.9,17.6-17.6
		C100.3,35.3,92.4,27.4,82.7,27.4z M82.7,61.5V45H66.2c0-9.1,7.4-16.5,16.5-16.5V45h16.5C99.2,54.1,91.8,61.5,82.7,61.5z"/>
	<path id="XMLID_28_" class="st1" d="M66.2,45h16.5V28.6C73.6,28.6,66.2,35.9,66.2,45z"/>
	<path id="XMLID_29_" class="st1" d="M82.7,61.5c9.1,0,16.5-7.4,16.5-16.5H82.7V61.5z"/>
	<path id="XMLID_32_" class="st0" d="M69.7,31.1c0.9-1,1-2,0.1-2.9c-0.6-0.6-1.5-0.7-2.3-0.2c0.2-0.4,0.1-0.8,0-1.1
		c-0.4-0.7-0.5-0.7-0.8-1c-1-0.8-2-0.1-2.7,0.8l-3.5,4.2l5.6,4.7L69.7,31.1z M62.6,30.3l2.1-2.5c0.2-0.3,0.8-0.3,1.2,0
		c0.4,0.3,0.4,0.8,0.1,1.1l-2.1,2.5L62.6,30.3z M67.1,29.5c0.3-0.3,0.8-0.4,1.2-0.1c0.4,0.4,0.5,0.9,0.2,1.3l-2.2,2.6l-1.4-1.2
		L67.1,29.5z"/>
	<polygon id="XMLID_34_" class="st0" points="80.1,21.2 82,26.2 83.6,26.2 85.5,21.2 85.5,26.2 87,26.2 87,19 84.8,19 82.8,24.2 
		80.9,19 78.7,19 78.7,26.2 80.1,26.2 	"/>
	<polygon id="XMLID_35_" class="st0" points="104.6,31.1 100.4,33.1 103.1,29.2 101.9,27.8 97.6,29.6 100.4,25.9 99.3,24.5 
		94.8,30.4 96.1,32 100.4,30.2 100.4,30.2 97.8,34.1 99.1,35.7 105.7,32.5 	"/>
	<path id="XMLID_36_" class="st1" d="M65.9,27.8c-0.4-0.3-0.9-0.3-1.2,0l-2.1,2.5l1.3,1.1l2.1-2.5C66.3,28.6,66.3,28.1,65.9,27.8z"
		/>
	<path id="XMLID_37_" class="st1" d="M68.4,30.7c0.3-0.4,0.3-0.9-0.2-1.3c-0.4-0.3-0.9-0.2-1.2,0.1l-2.2,2.7l1.4,1.2L68.4,30.7z"/>
</g>
</svg>
