<svg id="图层_1" data-name="图层 1" xmlns="http://www.w3.org/2000/svg" viewBox="0 0 165 90"><defs><style>.cls-1{fill:#fff;}.cls-2{fill:#333;}</style></defs><title>平安好房</title><rect id="_路径_" data-name="&lt;路径&gt;" class="cls-1" width="165" height="90"/><path class="cls-2" d="M69.31,40.18a0.61,0.61,0,0,0-.61-0.61h-3V41H57.39A2.43,2.43,0,0,0,55,43.47V46a0.61,0.61,0,0,0,.61.61h2.19A0.61,0.61,0,0,0,58.36,46V44H76.61V46a0.61,0.61,0,0,0,.61.61h2.19A0.61,0.61,0,0,0,80,46V43.47A2.43,2.43,0,0,0,77.59,41H69.31V40.18Z"/><path class="cls-2" d="M53.13,54.18H42.29V44h9.61a0.61,0.61,0,0,0,.61-0.61v-1.7A0.61,0.61,0,0,0,51.91,41H28.79a0.61,0.61,0,0,0-.61.61v1.7a0.61,0.61,0,0,0,.61.61H38.4V54.18H27.57a0.61,0.61,0,0,0-.61.61v1.7a0.61,0.61,0,0,0,.61.61H38.4v4.5a0.61,0.61,0,0,0,.61.61h2.68a0.61,0.61,0,0,0,.61-0.61V57.1H53.13a0.61,0.61,0,0,0,.61-0.61v-1.7A0.61,0.61,0,0,0,53.13,54.18Z"/><path class="cls-2" d="M33.55,52.47h2.68c0.34,0,.46-0.27.27-0.61l-3.13-5.6a1.23,1.23,0,0,0-.95-0.61H29.74c-0.34,0-.46.27-0.27,0.61l3.13,5.6A1.23,1.23,0,0,0,33.55,52.47Z"/><path class="cls-2" d="M48.28,45.66a1.23,1.23,0,0,0-.95.61l-3.13,5.6c-0.19.34-.07,0.61,0.27,0.61h2.68a1.23,1.23,0,0,0,.95-0.61l3.13-5.6c0.19-.34.07-0.61-0.27-0.61H48.28Z"/><path class="cls-2" d="M79.9,48.34H75.4V46.27a0.61,0.61,0,0,0-.61-0.61H72.6a0.61,0.61,0,0,0-.61.61v2.07H63V46.27a0.61,0.61,0,0,0-.61-0.61H60.18a0.61,0.61,0,0,0-.61.61v2.07h-4.5a0.61,0.61,0,0,0-.61.61v1.7a0.61,0.61,0,0,0,.61.61h4.5v2.48a2.92,2.92,0,0,0,1.69,2.65L64,57.68,61.14,59a2.9,2.9,0,0,1-1.23.26H55.56a0.61,0.61,0,0,0-.61.61v1.7a0.61,0.61,0,0,0,.61.61h4.37a5.82,5.82,0,0,0,2.47-.55l5.09-2.37,5.09,2.37a5.82,5.82,0,0,0,2.47.55h4.37A0.61,0.61,0,0,0,80,61.6V59.9a0.61,0.61,0,0,0-.61-0.61H75.07A2.9,2.9,0,0,1,73.83,59l-2.89-1.35,2.77-1.29a2.92,2.92,0,0,0,1.69-2.65V51.26h4.5a0.61,0.61,0,0,0,.61-0.61v-1.7A0.61,0.61,0,0,0,79.9,48.34ZM72,53a1.46,1.46,0,0,1-.84,1.32l-3.66,1.71-3.66-1.71A1.46,1.46,0,0,1,63,53V51.26h9V53Z"/><path class="cls-2" d="M107.89,50.53h-4.38V48.46L108,44V41H96.45a0.61,0.61,0,0,0-.61.61v1.7a0.61,0.61,0,0,0,.61.61h7.43l-2.43,2.43h-0.74a0.61,0.61,0,0,0-.61.61v3.53H95.72a0.61,0.61,0,0,0-.61.61v1.7a0.61,0.61,0,0,0,.61.61h4.38v5.84H97.79a0.61,0.61,0,0,0-.61.61v1.7a0.61,0.61,0,0,0,.61.61h3.29a2.43,2.43,0,0,0,2.43-2.43V53.45h4.38a0.61,0.61,0,0,0,.61-0.61v-1.7A0.61,0.61,0,0,0,107.89,50.53Z"/><path class="cls-2" d="M93.53,53.55V45.17h1a0.61,0.61,0,0,0,.61-0.61v-1.7a0.61,0.61,0,0,0-.61-0.61h-1V40.91a0.61,0.61,0,0,0-.61-0.61h-1.7a0.61,0.61,0,0,0-.61.61v1.34H86.23V40.91a0.61,0.61,0,0,0-.61-0.61h-1.7a0.61,0.61,0,0,0-.61.61v1.34h-1a0.61,0.61,0,0,0-.61.61v1.7a0.61,0.61,0,0,0,.61.61h1v8.38a2.91,2.91,0,0,0,.86,2.07l2.19,2.19L85.3,58.86a1.46,1.46,0,0,1-1,.43H82.82a0.61,0.61,0,0,0-.61.61v1.7a0.61,0.61,0,0,0,.61.61h2a2.91,2.91,0,0,0,2.07-.86l1.49-1.49,1.49,1.49a2.91,2.91,0,0,0,2.07.86h2a0.61,0.61,0,0,0,.61-0.61V59.9A0.61,0.61,0,0,0,94,59.29H92.57a1.46,1.46,0,0,1-1-.43l-1.06-1.06,2.19-2.19A2.91,2.91,0,0,0,93.53,53.55ZM90.18,54l-1.76,1.76L86.66,54a1.46,1.46,0,0,1-.43-1V45.17h4.38v7.77A1.46,1.46,0,0,1,90.18,54Z"/><rect class="cls-2" x="120.18" y="34.22" width="3.89" height="3.89" rx="0.61" ry="0.61"/><path class="cls-2" d="M28.72,38.12a0.54,0.54,0,0,0,.55-0.54V35.88a2,2,0,0,0,1.63.84,2.29,2.29,0,0,0,2.22-2.48v0a2.29,2.29,0,0,0-2.22-2.48,1.92,1.92,0,0,0-1.63.9v-0.3a0.55,0.55,0,0,0-.55-0.55,0.54,0.54,0,0,0-.54.55v5.24A0.54,0.54,0,0,0,28.72,38.12Zm0.53-3.9a1.44,1.44,0,0,1,1.4-1.53A1.42,1.42,0,0,1,32,34.22v0a1.4,1.4,0,0,1-1.37,1.53,1.44,1.44,0,0,1-1.4-1.53v0Z"/><path class="cls-2" d="M34.74,31.78a0.54,0.54,0,0,0-.54.55v3.79a0.55,0.55,0,0,0,1.1,0V32.33A0.55,0.55,0,0,0,34.74,31.78Z"/><path class="cls-2" d="M34.74,31.22a0.57,0.57,0,0,0,.63-0.54V30.62a0.63,0.63,0,0,0-1.25,0v0.05A0.57,0.57,0,0,0,34.74,31.22Z"/><path class="cls-2" d="M37.14,36.67a0.54,0.54,0,0,0,.55-0.54v-2.2a1.06,1.06,0,0,1,1.08-1.19,1,1,0,0,1,1,1.17v2.22a0.54,0.54,0,0,0,.55.54,0.53,0.53,0,0,0,.54-0.54V33.57a1.64,1.64,0,0,0-1.7-1.83,1.73,1.73,0,0,0-1.49.83V32.33a0.55,0.55,0,0,0-.55-0.55,0.54,0.54,0,0,0-.54.55v3.79A0.54,0.54,0,0,0,37.14,36.67Z"/><path class="cls-2" d="M44,36.24a2,2,0,0,0,1.69-.88v0.37a1.36,1.36,0,0,1-1.51,1.49,2.93,2.93,0,0,1-1.47-.38,0.43,0.43,0,0,0-.2,0,0.46,0.46,0,0,0-.46.45,0.45,0.45,0,0,0,.31.43,4.13,4.13,0,0,0,1.85.43,2.69,2.69,0,0,0,2-.64,2.52,2.52,0,0,0,.61-1.83V32.33a0.55,0.55,0,1,0-1.1,0v0.23A2.06,2.06,0,0,0,44,31.74,2.16,2.16,0,0,0,41.84,34v0A2.15,2.15,0,0,0,44,36.24ZM42.95,34a1.29,1.29,0,0,1,1.36-1.31A1.34,1.34,0,0,1,45.71,34v0a1.34,1.34,0,0,1-1.4,1.31A1.3,1.3,0,0,1,42.95,34v0Z"/><path class="cls-2" d="M49.41,36.72A1.94,1.94,0,0,0,51,36V36.2a0.5,0.5,0,0,0,.53.46A0.52,0.52,0,0,0,52,36.14V33.78a2,2,0,0,0-.52-1.48,2.14,2.14,0,0,0-1.59-.53,4.1,4.1,0,0,0-1.54.28,0.48,0.48,0,0,0-.3.43,0.46,0.46,0,0,0,.46.45l0.17,0a2.84,2.84,0,0,1,1.06-.19,1,1,0,0,1,1.19,1v0.12a4,4,0,0,0-1.29-.2c-1.17,0-2,.51-2,1.54v0A1.53,1.53,0,0,0,49.41,36.72Zm-0.63-1.54a0.92,0.92,0,0,1,1.12-.8,3,3,0,0,1,1.09.19V34.9a1.13,1.13,0,0,1-1.28,1,0.8,0.8,0,0,1-.93-0.72v0Z"/><path class="cls-2" d="M55.4,32.73a1,1,0,0,1,1,1.17v2.22a0.54,0.54,0,0,0,.55.54,0.53,0.53,0,0,0,.54-0.54V33.57a1.64,1.64,0,0,0-1.7-1.83,1.73,1.73,0,0,0-1.49.83V32.33a0.55,0.55,0,0,0-.55-0.55,0.54,0.54,0,0,0-.54.55v3.79a0.55,0.55,0,0,0,1.1,0v-2.2A1.06,1.06,0,0,1,55.4,32.73Z"/><path class="cls-2" d="M58.77,32.78H59v3.34a0.55,0.55,0,0,0,1.1,0V32.78h0.83a0.46,0.46,0,0,0,.46-0.45,0.45,0.45,0,0,0-.46-0.45H60V31.61A0.51,0.51,0,0,1,60.68,31l0.23,0A0.46,0.46,0,0,0,61,30.13a3.16,3.16,0,0,0-.55,0,1.45,1.45,0,0,0-1.08.38,1.3,1.3,0,0,0-.39,1v0.35H58.77a0.46,0.46,0,0,0-.46.46A0.46,0.46,0,0,0,58.77,32.78Z"/><path class="cls-2" d="M63.24,36.72A1.94,1.94,0,0,0,64.8,36V36.2a0.5,0.5,0,0,0,.53.46,0.52,0.52,0,0,0,.53-0.53V33.78a2,2,0,0,0-.52-1.48,2.14,2.14,0,0,0-1.59-.53,4.1,4.1,0,0,0-1.54.28,0.48,0.48,0,0,0-.3.43,0.46,0.46,0,0,0,.46.45l0.17,0a2.84,2.84,0,0,1,1.06-.19,1,1,0,0,1,1.19,1v0.12a4,4,0,0,0-1.29-.2c-1.17,0-2,.51-2,1.54v0A1.53,1.53,0,0,0,63.24,36.72Zm-0.63-1.54a0.92,0.92,0,0,1,1.12-.8,3,3,0,0,1,1.09.19V34.9a1.13,1.13,0,0,1-1.28,1,0.8,0.8,0,0,1-.93-0.72v0Z"/><path class="cls-2" d="M67.6,36.67a0.54,0.54,0,0,0,.55-0.54v-2.2a1.06,1.06,0,0,1,1.08-1.19,1,1,0,0,1,1,1.17v2.22a0.54,0.54,0,0,0,.55.54,0.53,0.53,0,0,0,.54-0.54V33.57a1.64,1.64,0,0,0-1.7-1.83,1.73,1.73,0,0,0-1.49.83V32.33a0.55,0.55,0,0,0-.55-0.55,0.54,0.54,0,0,0-.54.55v3.79A0.54,0.54,0,0,0,67.6,36.67Z"/><path class="cls-2" d="M74.48,36.24a2,2,0,0,0,1.69-.88v0.37a1.36,1.36,0,0,1-1.52,1.49,2.93,2.93,0,0,1-1.47-.38,0.43,0.43,0,0,0-.2,0,0.46,0.46,0,0,0-.46.45,0.45,0.45,0,0,0,.31.43,4.13,4.13,0,0,0,1.85.43,2.69,2.69,0,0,0,2-.64,2.52,2.52,0,0,0,.62-1.83V32.33a0.55,0.55,0,1,0-1.1,0v0.23a2.06,2.06,0,0,0-1.68-.82A2.16,2.16,0,0,0,72.3,34v0A2.15,2.15,0,0,0,74.48,36.24ZM73.41,34a1.29,1.29,0,0,1,1.36-1.31A1.34,1.34,0,0,1,76.17,34v0a1.34,1.34,0,0,1-1.4,1.31A1.3,1.3,0,0,1,73.41,34v0Z"/><path class="cls-2" d="M79.7,36.65A0.62,0.62,0,0,0,80.34,36V35.94a0.64,0.64,0,0,0-1.28,0V36A0.62,0.62,0,0,0,79.7,36.65Z"/><path class="cls-2" d="M84.18,36.73A2.34,2.34,0,0,0,85.92,36a0.43,0.43,0,0,0,.15-0.34,0.46,0.46,0,0,0-.77-0.36,1.6,1.6,0,0,1-1.07.43,1.45,1.45,0,0,1-1.43-1.53v0a1.44,1.44,0,0,1,1.39-1.52,1.52,1.52,0,0,1,1,.41,0.56,0.56,0,0,0,.33.11,0.5,0.5,0,0,0,.51-0.5,0.52,0.52,0,0,0-.17-0.38,2.42,2.42,0,0,0-1.68-.6,2.47,2.47,0,0,0-2.49,2.5v0A2.44,2.44,0,0,0,84.18,36.73Z"/><path class="cls-2" d="M89.15,36.73a2.5,2.5,0,0,0,2.56-2.49v0a2.55,2.55,0,0,0-5.1,0v0A2.47,2.47,0,0,0,89.15,36.73Zm-1.44-2.51a1.44,1.44,0,0,1,1.44-1.52,1.48,1.48,0,0,1,1.47,1.54v0a1.44,1.44,0,0,1-1.45,1.51,1.47,1.47,0,0,1-1.46-1.53v0Z"/><path class="cls-2" d="M93.25,36.67a0.54,0.54,0,0,0,.55-0.54v-2.2a1,1,0,0,1,1-1.19,1,1,0,0,1,1,1.16v2.23a0.55,0.55,0,0,0,1.1,0v-2.2a1,1,0,0,1,1-1.19,1,1,0,0,1,1,1.17v2.22a0.54,0.54,0,0,0,.55.54,0.53,0.53,0,0,0,.54-0.54V33.57a1.61,1.61,0,0,0-1.68-1.83,1.92,1.92,0,0,0-1.61.84,1.52,1.52,0,0,0-1.43-.84,1.71,1.71,0,0,0-1.46.82V32.33a0.55,0.55,0,0,0-.55-0.55,0.54,0.54,0,0,0-.54.55v3.79A0.54,0.54,0,0,0,93.25,36.67Z"/><path class="cls-2" d="M134.18,50.53h-7.7l-0.23-.65a0.93,0.93,0,0,0-.82-0.57H123a0.4,0.4,0,0,0-.4.57l0.23,0.65h-7.87a0.61,0.61,0,0,0-.61.61v1.7a0.61,0.61,0,0,0,.61.61h1.55l-1.44,8.16h0l-0.11.6h2.8a0.75,0.75,0,0,0,.71-0.6l0.67-3.78h11.51v1.46h-2.31a0.61,0.61,0,0,0-.61.61v1.7a0.61,0.61,0,0,0,.61.61h3.29a2.44,2.44,0,0,0,2.43-2.43V57.34a2.44,2.44,0,0,0-2.43-2.43h-12l0.26-1.46h14.27a0.61,0.61,0,0,0,.61-0.61v-1.7A0.61,0.61,0,0,0,134.18,50.53Z"/><path class="cls-2" d="M131.62,48.58a2.44,2.44,0,0,0,2.43-2.43V43.47A2.44,2.44,0,0,0,131.62,41h-19a2.44,2.44,0,0,0-2.43,2.43V59.29h-1.1a0.61,0.61,0,0,0-.61.61v1.7a0.61,0.61,0,0,0,.61.61h2.07a2.43,2.43,0,0,0,2.43-2.43V48.58h18Zm-18-4.62h17v1.7h-17V44Z"/><path class="cls-2" d="M128.37,22.08a1.46,1.46,0,0,0-1.88,0l-10.34,8.67a1.46,1.46,0,0,1-1.88,0l-9.38-7.88a1.46,1.46,0,0,0-1.88,0l-7.53,6.31,0.86,0.72a0.73,0.73,0,0,0,.94,0L99,28.44a1.46,1.46,0,0,1,1.88,0l9.38,7.87a1.46,1.46,0,0,0,1.88,0l9-7.56a1.46,1.46,0,0,1,1.88,0L137.71,41l5.48-6.53Z"/></svg>