<?xml version="1.0" encoding="utf-8"?>
<!-- Generator: Adobe Illustrator 19.0.0, SVG Export Plug-In . SVG Version: 6.00 Build 0)  -->
<svg version="1.1" id="图层_1" xmlns="http://www.w3.org/2000/svg" xmlns:xlink="http://www.w3.org/1999/xlink" x="0px" y="0px"
	 viewBox="0 0 165 90" style="enable-background:new 0 0 165 90;" xml:space="preserve">
<style type="text/css">
	.st0{fill:#FFFFFF;}
	.st1{fill:#333333;}
</style>
<rect id="XMLID_4_" x="0.2" y="0" class="st0" width="165" height="90"/>
<rect id="XMLID_7_" x="0.2" y="0" class="st0" width="165" height="90"/>
<g id="XMLID_37_">
	<g id="XMLID_281_">
		<path id="XMLID_282_" class="st1" d="M28.4,23.5h-2.5V48h2.5V23.5z M52.7,48.6v-2.7c-1.6-0.4-2.8-1.2-3.8-2.4
			c-0.9-1.1-1.5-2.7-1.9-4.8h5.8v-2.8h-1v-6.5c0-2-0.7-3.3-2.2-4c-0.4-0.2-1.1-0.3-1.9-0.3h-2.8V23h-2.7v2.1H36v2.8h6.1v7.9h-6.5
			v2.8h6.1c-0.3,1.8-1,3.3-2,4.5c-1.2,1.3-2.6,2.2-4.4,2.7v2.7c1.1-0.2,2-0.4,2.6-0.6c1.6-0.6,3-1.7,4.1-3.1c0.9-1.2,1.7-3,2.3-5.3
			c0.3,1.1,0.5,2,0.7,2.5c0.5,1.5,1.2,2.7,2.1,3.7C48.6,47.3,50.4,48.3,52.7,48.6z M44.9,35.8v-7.9h2.4c1.2,0,1.8,0.6,1.8,1.8v6.2
			H44.9z M32.9,34.2h2.3v-2.8h-2.3V23h-2.7v25.6h2.7V34.2z M55.5,47.9c0.5,0.5,1.1,0.7,2,0.7H65c0.6,0,1.2-0.2,1.7-0.7
			c0.5-0.5,0.7-1.2,0.7-2.3V28c0-0.9-0.2-1.6-0.7-2.1c-0.5-0.5-1.2-0.8-2.1-0.8h-4.7v-2h-2.7v2c-0.7,0.1-1.1,0.3-1.5,0.6
			c-0.6,0.5-0.8,1.3-0.8,2.6v17.2c0,0.5,0,0.8,0.1,1.1C55,47.1,55.2,47.5,55.5,47.9z M57.5,29.1c0-0.8,0.3-1.1,1-1.1l5.2,0
			c0.6,0,1,0.3,1,0.9v6.3h-7.1V29.1z M57.5,38h7.1V45c0,0.6-0.3,0.9-0.8,0.9h-5.5c-0.5,0-0.8-0.3-0.8-1V38z M72.3,27.5l5,0
			c0.6,0,1,0.2,1.3,0.6c0.2,0.3,0.3,0.8,0.3,1.5v14.3c0,1.3-0.5,2-1.6,2h-6.5v2.8h7.2c1,0,1.9-0.4,2.5-1.1c0.7-0.7,1-1.8,1-3.1V28.6
			c0-1.1-0.3-2-1-2.8c-0.7-0.7-1.6-1.1-2.8-1.1h-4.2c0.2-0.6,0.3-1.1,0.5-1.7h-2.8c-0.2,1-0.5,1.8-0.7,2.3c-0.4,0.8-1.1,1.4-2,1.9
			v2.9C70,29.7,71.3,28.8,72.3,27.5z M77.3,35h-7.7v2.8h7.7V35z M87.7,45.2c-0.3,0.3-0.9,0.5-1.7,0.5h-0.8v2.8h1.5
			c1.6,0,2.8-0.6,3.5-1.7c0.4-0.6,0.6-1.5,0.6-2.6V37c1.2-0.7,2.3-1.3,3.5-1.7v-2.7c-1,0.2-2.1,0.6-3.5,1.2v-5.5h3.7v-2.9h-3.7V23
			h-2.7v2.6h-4.4v2.9h4.4v7c-1.7,0.8-3.2,1.3-4.5,1.4v2.9c1.1-0.1,1.9-0.3,2.4-0.4c0.3-0.1,1-0.3,2.2-0.8v5.2
			C88.2,44.4,88,44.9,87.7,45.2z M105.3,43.2c0,0.9-0.2,1.6-0.6,2c-0.3,0.3-0.9,0.4-2,0.4h-3.9v2.8h4.4c2,0,3.4-0.7,4.3-2
			c0.4-0.6,0.6-1.6,0.6-3.1v-17h2.7v-2.8H95.6v2.8h9.7V43.2z M118.2,28.2h21.3v-2.7h-20.2l1-2.5h-2.8l-1,2.5h-3.7v2.7h2.6l-1.7,4.3
			c-0.2,0.5-0.3,1.1-0.3,1.6c0,0.8,0.3,1.5,1,2c0.5,0.4,1.4,0.6,2.6,0.6h8v4.3h-12.3v2.8h12.3v4.7h2.7v-4.7h11.8v-2.8h-11.8v-4.3
			h11.2v-2.8h-11.2v-4.4h-2.7v4.4h-7.9c-0.6,0-0.9-0.2-0.9-0.5c0-0.1,0.1-0.5,0.4-1.3L118.2,28.2z M35.8,54h-2.3l-5.1,6.5V54h-1.9
			v13h1.9v-3.8l2.1-2.6l3.5,6.4h2.2l-4.5-7.9L35.8,54z M44.4,62.5c0,1.7-1,2.8-2.6,2.8c-1.6,0-2.6-1.1-2.6-2.8V54h-1.9v8.6
			c0,2.7,1.9,4.5,4.5,4.5s4.5-1.8,4.5-4.5V54h-1.9V62.5z M52,54l-4.6,13h2l0.9-2.6h4.9l0.9,2.6h2l-4.6-13H52z M50.9,62.7l1.9-5.8
			l1.9,5.8H50.9z M59.5,66.9h1.9V54h-1.9V66.9z M71.8,55.2C71,54.4,69.8,54,68.5,54h-4.4v13h4.4c1.3,0,2.4-0.4,3.2-1.2
			c1.3-1.4,1.3-3.5,1.3-5.4S73.1,56.6,71.8,55.2z M70.5,64.3c-0.5,0.6-1.2,0.9-2.1,0.9h-2.3v-9.4h2.3c0.9,0,1.6,0.3,2.1,0.9
			c0.6,0.7,0.7,2,0.7,3.8C71.1,62.2,71.1,63.6,70.5,64.3z M78.5,54l-4.6,13h2l0.9-2.6h4.9l0.9,2.6h2L80,54H78.5z M77.3,62.7l1.9-5.8
			l1.9,5.8H77.3z M93.5,55.2c-0.8-0.8-1.9-1.2-3.2-1.2h-4.4v13h4.4c1.3,0,2.4-0.4,3.2-1.2c1.3-1.4,1.3-3.5,1.3-5.4
			S94.8,56.6,93.5,55.2z M92.2,64.3c-0.5,0.6-1.2,0.9-2.1,0.9h-2.3v-9.4h2.3c0.9,0,1.6,0.3,2.1,0.9c0.6,0.7,0.7,2,0.7,3.8
			C92.9,62.2,92.8,63.6,92.2,64.3z M97.1,66.9H99V54h-1.9V66.9z M101.6,66.9h2.1v-2.2h-2.1V66.9z M110.3,55.6c1.4,0,2.2,0.9,2.5,2.2
			h1.9c-0.4-2.6-2.2-4-4.4-4c-1.3,0-2.4,0.5-3.3,1.4c-1.2,1.3-1.2,2.7-1.2,5.2s0,3.9,1.2,5.2c0.9,0.9,2,1.4,3.3,1.4
			c2.3,0,4-1.4,4.4-4h-1.9c-0.3,1.3-1.2,2.2-2.5,2.2c-0.7,0-1.4-0.3-1.8-0.8c-0.6-0.7-0.8-1.4-0.8-4c0-2.6,0.1-3.4,0.8-4
			C108.9,55.9,109.5,55.6,110.3,55.6z M120.8,53.9c-1.3,0-2.4,0.5-3.3,1.4c-1.2,1.3-1.2,2.7-1.2,5.2s0,3.9,1.2,5.2
			c0.9,0.9,1.9,1.4,3.3,1.4c1.3,0,2.4-0.5,3.3-1.4c1.2-1.3,1.2-2.7,1.2-5.2s0-3.9-1.2-5.2C123.3,54.4,122.2,53.9,120.8,53.9z
			 M122.7,64.5c-0.4,0.5-1.1,0.8-1.9,0.8c-0.7,0-1.4-0.3-1.9-0.8c-0.6-0.7-0.7-1.4-0.7-4c0-2.6,0.1-3.3,0.7-4
			c0.4-0.5,1.1-0.8,1.9-0.8c0.7,0,1.4,0.3,1.9,0.8c0.6,0.7,0.7,1.4,0.7,4C123.4,63.1,123.3,63.8,122.7,64.5z M133.2,62l-3.6-8.1
			h-1.9v13h1.9v-8.7l2.9,6.3h1.4l2.9-6.3v8.7h1.9V54h-1.9L133.2,62z"/>
	</g>
</g>
</svg>
