<?xml version="1.0" encoding="utf-8"?>
<!-- Generator: Adobe Illustrator 19.0.0, SVG Export Plug-In . SVG Version: 6.00 Build 0)  -->
<svg version="1.1" id="图层_1" xmlns="http://www.w3.org/2000/svg" xmlns:xlink="http://www.w3.org/1999/xlink" x="0px" y="0px"
	 viewBox="0 0 165 90" style="enable-background:new 0 0 165 90;" xml:space="preserve">
<style type="text/css">
	.st0{fill:#FFFFFF;}
	.st1{fill:none;}
	.st2{fill:#333333;}
</style>
<rect id="XMLID_4_" x="0.2" y="0" class="st0" width="165" height="90"/>
<rect id="XMLID_7_" x="0.2" y="0" class="st0" width="165" height="90"/>
<g id="XMLID_1_">
	<path id="XMLID_3_" class="st1" d="M104.9,42.9c-2.3,0-4.3,1.4-5,3.6h10C109.2,44.3,107.2,42.9,104.9,42.9z"/>
	<path id="XMLID_15_" class="st1" d="M72.9,43.3c-1.3,0-2.5,0.5-3.4,1.4c-0.9,0.9-1.5,2.2-1.5,3.5c0,1.3,0.5,2.6,1.5,3.5
		c0.9,0.9,2.1,1.4,3.4,1.4c2.7,0,4.9-2.2,4.9-4.9c0-1.3-0.5-2.6-1.4-3.5C75.4,43.8,74.2,43.3,72.9,43.3z"/>
	<polygon id="XMLID_16_" class="st2" points="87.1,39.5 86.9,39.5 86.9,39.7 86.9,56.8 86.9,56.9 87.1,56.9 92.1,56.9 92.3,56.9 
		92.3,56.8 92.3,39.7 92.3,39.5 92.1,39.5 	"/>
	<polygon id="XMLID_17_" class="st2" points="54.7,32.7 54.6,32.7 54.6,32.9 54.6,42.4 43.2,42.4 43.2,32.9 43.2,32.7 43,32.7 
		37.6,32.7 37.5,32.7 37.5,32.9 37.5,56.8 37.5,56.9 37.6,56.9 43,56.9 43.2,56.9 43.2,56.8 43.2,46.7 54.6,46.7 54.6,56.8 
		54.6,56.9 54.7,56.9 60.2,56.9 60.3,56.9 60.3,56.8 60.3,32.9 60.3,32.7 60.2,32.7 	"/>
	<path id="XMLID_20_" class="st2" d="M77.8,39.5h-0.2v0.2V41h-0.4c0,0-0.1,0-0.1-0.1c-1.1-1.2-2.7-1.7-3.7-1.8c-0.2,0-0.4,0-0.5,0
		c0,0,0,0-0.1,0h0h0c-5.2,0-9.4,4.1-9.4,9.1c0,2.4,0.9,4.6,2.6,6.3c1.8,1.8,4.2,2.8,6.8,2.8c0.3,0,0.5,0,0.9,0
		c0.5-0.1,2.2-0.4,3.5-1.8h0.4v1.3v0.1h0.2h4.5h0.1v-0.1V39.7v-0.2h-0.1H77.8z M72.9,53.2c-1.3,0-2.5-0.5-3.4-1.4
		c-0.9-0.9-1.5-2.2-1.5-3.5c0-1.3,0.5-2.6,1.5-3.5c0.9-0.9,2.1-1.4,3.4-1.4c1.3,0,2.5,0.5,3.5,1.4c0.9,0.9,1.4,2.2,1.4,3.5
		C77.8,51,75.6,53.2,72.9,53.2z"/>
	<path id="XMLID_21_" class="st2" d="M127.9,40.8l-2.3-3.8l-0.1-0.1l-0.1,0.1c-5.3,3.2-7.9,5.7-8.2,9.7v10.2v0.1h0.2h4.9h0.1v-0.1
		v-9.8c0-2.9,2-3.9,5.4-6.1l0.1-0.1L127.9,40.8z"/>
	<path id="XMLID_24_" class="st2" d="M104.7,39.1c-5.3,0-9.6,4.1-9.6,9.2c0,2.4,0.9,4.6,2.7,6.4c1.8,1.8,4.2,2.8,6.9,2.8
		c3.5,0,6.7-1.8,8.5-4.6c0.1-0.2,0.2-0.3,0.2-0.4l-3.9-1.4c-0.1,0.1-0.1,0.2-0.2,0.3c-1,1.3-2.4,2.3-4.3,2.3c-2.7,0-4.8-1.7-5.3-4.1
		h14.4l0-0.2c0.1-0.4,0.1-0.6,0.1-1c0-2.4-0.9-4.6-2.7-6.4C109.8,40.1,107.3,39.1,104.7,39.1z M99.9,46.4c0.7-2.2,2.7-3.6,5-3.6
		c2.3,0,4.3,1.5,5,3.6H99.9z"/>
	<circle id="XMLID_25_" class="st2" cx="89.6" cy="35.5" r="2.9"/>
</g>
</svg>
