<?xml version="1.0" encoding="utf-8"?>
<!-- Generator: Adobe Illustrator 19.0.0, SVG Export Plug-In . SVG Version: 6.00 Build 0)  -->
<svg version="1.1" id="图层_1" xmlns="http://www.w3.org/2000/svg" xmlns:xlink="http://www.w3.org/1999/xlink" x="0px" y="0px"
	 viewBox="0 0 165 90" style="enable-background:new 0 0 165 90;" xml:space="preserve">
<style type="text/css">
	.st0{fill:#FFFFFF;}
	.st1{fill:#333333;}
</style>
<rect id="XMLID_4_" x="0.2" y="0" class="st0" width="165" height="90"/>
<rect id="XMLID_7_" x="0.2" y="0" class="st0" width="165" height="90"/>
<g id="XMLID_2_">
	<path id="XMLID_56_" class="st1" d="M29.9,38.2c0,0,0.7,0.7,1,0.7c1.5,0,4.5-1.3,5.1-2.1c0.6-0.8,0.1-1.5-0.1-1.7
		c-0.2-0.2-5.6-0.3-5.6-0.3s-1,0.5-0.4,1.5C29.7,37.4,29.9,38.2,29.9,38.2z"/>
	<path id="XMLID_57_" class="st1" d="M35.6,39.8c0.2,0.3,1.2,0.9,1.2,1.1c0,0,2.5,0.3,2.9-0.4c0,0,1.7-1.6,2-3l13.8,0.2
		c0,0,1.6,0.3,2.1-0.3c-0.4-0.3-0.4-1-0.4-1s0.2-0.5,0.2-0.9s-0.6-0.7-1.8-0.7c-0.8,0-12.3,0-12.4,0c-0.1-0.5,0.9-1.1,0.8-2
		c-0.1-0.5-0.5-0.7-0.5-0.7s-1,0.4-1.6-0.2c-0.3-0.3-0.7-0.4-0.9,0c-0.2,0.4-0.5,0.6-0.5,0.6s-1.1,6.1-4.9,6.9
		C35.5,39.5,35.5,39.6,35.6,39.8z"/>
	<path id="XMLID_60_" class="st1" d="M58.9,45.9l-3.8,0c0,0,0-2.4,0-2.6c0-0.4,0-0.5,0.2-1.2c0.2-0.7,0.6-1.6,0.5-1.8
		c0,0-0.4-0.8-0.9-0.8s-1.1,0-1.4,0.1S52.9,40,52.9,40l-9.5-0.1c0,0-0.2-0.4-0.7-0.3l-1.5,0c0,0-1.3,0.7-1,1.3l-0.1,5H37
		c0,0-0.5-0.1-0.8,0.2c-0.3,0.3-0.3,1.8-0.1,2.3c0.2,0.5,0.7,1.1,1.5,0.5l0.3-0.3l2.1,0c0,0-0.1,3-1.3,4.4c-1.2,0.8,0.6,2.6,2.5,2
		c0.5-0.2,0.5-0.4,0.5-0.4l10,0.1c0,0,0.2,1.4-1.8,1.4c0,0-0.9,0.2-1.8-0.3l-0.2-0.1c0,0-0.4,0-0.4,0.2c0,0.4,0,1,0,1
		s1.6,3.3,5.8,1.4c0.6-0.5,1.8-1.2,1.9-3.5l2,0.1c0,0,0.5-0.8,0-1.2c0,0-0.2-0.4,0.1-0.7c0,0,0.2-1.1-0.6-0.9
		c-1.3,0.4-1.4-0.3-1.4-0.3s-0.3-2.4,0-2.7c0.3-0.3,1.6,0.1,2.2,0.1c2-0.3,2-2.5,2.2-2.8C59.4,45.8,58.9,45.9,58.9,45.9z M51.8,51.9
		c-0.3,0.2-8.8,0.3-9.1,0c-0.1-0.1,0.2-1.4,0.3-1.7c0.1-0.3,0-1.7,0.3-1.9c0.4-0.2,8.4-0.1,8.6,0.1C52,48.6,52.1,51.7,51.8,51.9z
		 M52,45.3c-0.2,0.7-0.3,0.5-0.3,0.5H44c0,0-0.5,0-0.6-0.2s0.3-3.2,0.3-3.2h8c0.6,0,0.4,0.2,0.4,0.2S52.2,44.5,52,45.3z"/>
	<path id="XMLID_62_" class="st1" d="M49.1,43.8c0,0-1.9-1.6-2.3-1.1c0,0-1.4,1.6-1.2,1.9c0.2,0.2,0.6,0.8,1,0.7
		c0.4-0.1,0.4-0.4,0.8-0.3c0,0,1.3,0.8,1.6,0.6C49.3,45.5,50.3,44.7,49.1,43.8z"/>
	<path id="XMLID_63_" class="st1" d="M46.5,48.7c-0.5,0.2-1.3,1.5-1.3,1.8c0,0.3-0.3,0.7,0.6,1c1,0.2,0.8-0.3,1-0.3s1.1,0.2,1.5,0.4
		c0.4,0.1,1-0.3,1-0.7C49.3,50.4,47,48.4,46.5,48.7z"/>
	<path id="XMLID_64_" class="st1" d="M35.9,44.1l-0.5-0.4c0,0-2.1-0.3-2.6,0.1c0,0-0.6,0.4-1.6,0l-1.6,0c0,0-1.3,0.2-0.7,1.5
		c0,0,0.1,2,0.7,2.5C30.7,48.7,35.5,46.6,35.9,44.1z"/>
	<path id="XMLID_65_" class="st1" d="M35.3,52.8l-2,0.7c0,0-1.6,0.1-2.4,0.6c0,0-1,0.3-1.4,0.4c-0.4,0.1,0.2,1.3,0.2,1.3l0.8,1.4
		c0,0,0.4,0.8,1.9,0.1c1.5-0.7,3.3-2.7,3.3-2.7S36.4,52.8,35.3,52.8z"/>
	<path id="XMLID_66_" class="st1" d="M76.3,37.5h6.8l13.5,0.3c0,0-0.3-0.8,0.1-1.4c0.5-0.6-0.4-1.6-0.4-1.6L84,34.7
		c0,0-0.3-0.7,0.3-1.3c0.6-0.6,0-1.7,0-1.7L82,31.2c-1.8-0.2-1.3,1.8-1.3,1.8l0.4,1.6l-8.2,0.1c0,0-0.4,0.3-1-0.1
		c-0.6-0.4-1.9-0.4-2.8,0S69,36.4,69,36.4l0.2,1.1c0,0,0.4,7.9-0.1,10.8c-0.5,3-0.5,5.5-4.4,7.8c3,3.3,6.4,1.1,7.3-3.3
		c0.8-5.7,0.6-14.9,0.6-14.9L76.3,37.5z"/>
	<path id="XMLID_67_" class="st1" d="M82.4,55.5c0,0-1.3,0.4-0.9,1.1c0.4,0.8,0.7,0.3,1.5,0.7c1.2,1.2,1.6,1.2,2.2,0.7
		c0.3-0.3,0.6-0.4,0.6-0.7c0-0.4-1.4-2.4-1.4-2.4S84,53.9,82.4,55.5z"/>
	<path id="XMLID_70_" class="st1" d="M91.2,53.3c-2.1-2.4-2.5-4.7-2.5-4.7h6.4l0.1-2.8h-7.3v-2.3c0,0,0.2-1.1-2.2-1
		c-0.3-0.4,1.8-0.4,3.6-0.5c2-0.1,3.8-0.4,3.9-0.4c1.1,0,1.2-1,1.2-1s-1.2-2.7-1.7-2.5c-0.5,0.3-1.3,0.6-1.3,0.6s-7,1.4-16.4,1.2
		c0,0-2,0-0.8,1.7c0,0,0.1,10.2,0.1,11.3c0,1-0.3,0.5-1.1,2.4c0,0,0.6,1.6,1.3,2.2c0.5,0.4,3.2-1,3.7-1.3l5.7-2.5c0,0,0.3-2.7,0-3.1
		c-0.3-0.3-1.5,0.7-1.5,0.7l-4.6,2l0.1-4.9h7.7c0,0,1.9,8.8,7.1,9.6c3,0.7,4.3-2.1,4.3-2.1S93.3,55.8,91.2,53.3z M84.5,45.8l-6.6,0
		l-0.2-2.2c0,0-0.2-1.1,0.5-1.1h6.3c0,0-0.4,0.5-0.3,1c0.1,0.5,0.7,0.2,0.7,1c0,0.7,0,0.7,0,0.7S85.2,45.8,84.5,45.8z"/>
	<path id="XMLID_71_" class="st1" d="M116.1,44.7l-3.1,1c0,0,0.1-4.1,0.1-4.6c0-0.5,2.5-0.2,2.5-0.2s0.4-0.6,0.3-1.9l-0.1-0.8h-1
		h-1.9l0.1-2.9c0,0,0.2-1,0.4-1.5l-0.1-1c0,0,0.1-0.9-0.9-0.7c0,0-0.4,0.2-1.4,0c0,0-1.6-0.6-1.6,0.6v1.3l0.4,0.4l-0.1,3.7h-1.8
		c0,0-0.4-0.5-1.2-0.3c-0.8,0.1-0.9-0.1-1.1,0.8c-0.2,0.9,0.1,2.3,0.1,2.3s0.9,0,1.8-0.1c0.9,0,1.9,0,1.9,0c0.5,0.5,0.2,5.4,0.2,5.4
		l-1.9,0.8c0,0-2.7-0.2-2.5,1.7c0.3,1.3,0.6,1.6,0.6,1.6s0.5,0.5,2-0.4c0,0,1.2-0.8,1.4-0.7c0.2,0.1,0.4-0.5,0.4,3.5
		c0,0,0.5,2.7-0.9,2.9l-1.7-0.2c0,0-1.4-0.1-1.1,0.9c0,0,0.3,2.7,3.8,2.3c0,0,3.4,0.1,3.5-3.6l-0.3-6.3c0,0-0.2-0.7,1.3-0.7
		c0,0,1.6,0.2,1.9-2.4V44.7z"/>
	<path id="XMLID_72_" class="st1" d="M136.4,35.1l-1.8,0.1c0,0-3.5,0.7-3.7-0.3c0.1-1.1,0.1-1.5,0.1-2.6c-0.3-0.3-0.8-0.1-1.4-0.1
		c-0.8-0.1-1.6-0.3-1.6-0.3c-0.7,0-0.3,2.1-0.3,2.1v1.2l-3.9,0.1l-0.1-1c0.4-2.5-0.2-2.3-0.2-2.3s-0.3,0.3-1.3,0.3
		c-0.9,0-0.9-0.3-1.9,0.3c0.3,0.9,0.4,2,0.4,2l0,0.8l-3.5-0.1c-0.9-0.1-1,2.6-0.6,3c1.2,0.2,2.4,0,2.4,0c2.7-0.8,1.5,1.4,1.5,1.4
		s0.1,0.7,0.7,0.5c0.6-0.2,0.8-0.2,1.6-0.2c1,0.4,0.7-0.9,0.7-0.9c0-1.3,0-1.3,0-1.3c0.8-0.2,4.2,0.1,4.2,0.1s-0.1,1.7,0.2,2.1
		c0.4,0.4,1.8,0.1,1.8,0.1c1,0,0.9-1,0.9-1l-0.1-0.9c3.1,0.3,3.7,0.2,3.8,0.1c0.4,0.2,1.8-0.4,2-2.3
		C136.7,35.1,136.4,35.1,136.4,35.1z"/>
	<path id="XMLID_73_" class="st1" d="M134.9,41.5c-0.4-0.3-0.6-0.5-2-0.5c-0.6,0.6-1.7,0.2-3.2,0.2c-4.3,0-11.2-0.2-11.2-0.2
		s-1.9,0.2-1.8,1.3c0,0,0.3,0.2,0.3,0.9l0,3.4c0,0-0.4,0.6,0.5,0.7c0.9,0.1,2.6,0.4,2.7-0.6c0.1-1-0.7-3,0.7-2.9l10.5,0
		c0.7-0.1,0.3,2.5,0.3,3.4c0.2,0.6,0.7,0.6,1.1,0.5l1.4-0.2c0,0,0.7,0.5,0.8-1l-0.1-2.9l0.5-0.9C135.4,42.6,135.3,41.8,134.9,41.5z"
		/>
	<path id="XMLID_74_" class="st1" d="M133.3,48.4c0,0-1.3-0.3-2-0.2c-0.7,0.1-0.3,0.2-0.9,0.2c-1.8,0-5-0.1-5-0.1s0.1-1.7,0.5-2.5
		c0.6-1-1.8-1.5-2.9-1.4c-0.7,0-0.5,1.5-0.5,1.5l-0.1,2.4c0,0-0.2,0.5-4,0.1c-1.3-0.1-1,2.5-1,2.5l0.2,0.3c0,0,0.6,0.2,1.8-0.1
		c1.1-0.3,2.4-0.3,2.4-0.3s-1.1,2.7-2.5,4.1c-1.4,1.4-3.1,1.5-3.1,1.5s-0.3,0.4,0.7,1.4c0.5,0.5,3,1.5,4.8-0.3
		c2-1.9,3.2-6.7,3.2-6.7l4.1-0.1c0,0,0.9-0.2,0.5,0.5c-0.1,0.3-0.4,2.6-0.5,4.6c-0.1,1.7-0.2,2.4-0.2,2.4s0.1,0.3,0.5,0.3
		c0.2,0,0.4-0.2,1-0.3c0.3,0,0.3,0.1,0.6,0.1c0.1,0,1.1,0.2,1.2-0.3c0.2-0.8,0-2.3,0.2-3.7c0.2-2,0.6-3.8,1.2-4.4
		C134.3,49.1,133.3,48.4,133.3,48.4z"/>
</g>
</svg>
