<?xml version="1.0" encoding="utf-8"?>
<!-- Generator: Adobe Illustrator 19.0.0, SVG Export Plug-In . SVG Version: 6.00 Build 0)  -->
<svg version="1.1" xmlns="http://www.w3.org/2000/svg" xmlns:xlink="http://www.w3.org/1999/xlink" x="0px" y="0px"
	 viewBox="0 0 165 90" style="enable-background:new 0 0 165 90;" xml:space="preserve">
<style type="text/css">
	.st0{fill:#FFFFFF;}
	.st1{fill:#333333;}
	.st2{font-family:'DINCondensed-Bold';}
	.st3{font-size:13.4784px;}
	.st4{fill:#F5F5F5;}
</style>
<g id="图层_2">
</g>
<g id="图层_1">
	<rect id="XMLID_4_" class="st0" width="165" height="90"/>
	<g id="XMLID_1_">
		<g id="XMLID_114_">
			<text id="XMLID_17_" transform="matrix(0.919 0 0 1 57.2885 61.0443)" class="st1 st2 st3">SOURCE CODE CAPITAL</text>
		</g>
		<g id="XMLID_67_">
			<g id="XMLID_209_">
				<path id="XMLID_223_" class="st1" d="M58.3,31.6c1.6,1.2,2.9,2.2,3.7,2.8c-0.5,0.6-0.9,1.1-1.2,1.4c-0.8-0.8-2-1.8-3.5-3
					L58.3,31.6z M59.8,37.6c0.5,0.3,1.1,0.5,1.6,0.7c-0.1,0.5-0.4,1.8-0.9,3.7c-0.5,2.1-0.9,3.6-1.1,4.4l-1.6-0.5
					c0.1-0.3,0.2-0.7,0.4-1.3C58.9,41.5,59.5,39.2,59.8,37.6z M59.2,26.1c1.4,1.1,2.6,2.1,3.4,2.9c-0.4,0.5-0.8,0.9-1.1,1.2
					c-1.2-1.2-2.3-2.2-3.4-3L59.2,26.1z M65.2,28.6v5.9c0.1,5.5-1,9.6-3.3,12.2c-0.4-0.4-0.8-0.8-1.1-1.1c2-2.1,2.9-5.7,2.8-11v-7.2
					h14.8v1.3h-6c-0.1,0.3-0.3,0.7-0.6,1.3c-0.2,0.6-0.4,1-0.5,1.2h5.6v8.3h-4.3v4.7c0.2,1.6-0.6,2.4-2.2,2.4c-0.4,0.1-1,0.1-1.9,0
					c-0.1-0.4-0.1-0.9-0.3-1.4c0.2,0,0.8,0,1.8,0c0.8,0.1,1.1-0.3,1.1-1v-4.7H67v-8.3h2.7c0.2-0.4,0.4-1.1,0.8-2.4
					c-0.3,1.1-0.3,1,0.1-0.2H65.2z M64.7,44.8c1.1-1,2.2-2.4,3.5-4.2l1.3,0.8c-0.8,1.1-2,2.5-3.6,4.4L64.7,44.8z M68.4,32.5v2.2h7.1
					v-2.2H68.4z M68.4,36v2.1h7.1V36H68.4z M78.7,44.7l-1.3,1c-0.5-0.7-1.4-1.8-2.7-3.3c-0.4-0.5-0.7-0.8-0.9-1.1l1.1-0.8
					c0.3,0.3,0.7,0.8,1.3,1.5C77.6,43.4,78.4,44.3,78.7,44.7z"/>
				<path id="XMLID_218_" class="st1" d="M81.5,27.8h7.9v1.6h-3.2c-0.4,1.8-1,3.5-1.7,5h4.2v11.4h-1.5v-1.4h-2.7v1.7H83v-8.7
					c-0.4,0.6-0.7,1.2-1.1,1.8c-0.2-0.4-0.6-0.9-1-1.4c1.8-2.5,3-5.2,3.8-8.3h-3.2V27.8z M84.5,35.8v7.2h2.7v-7.2H84.5z M89.6,40.1
					h9.1v1.5h-9.1V40.1z M93,29.4l-0.5,6.3h5l0.7-7.1h-7.9v-1.5h9.7l-1,8.6h2.3c-0.1,2.7-0.2,5.2-0.4,7.4c0,2.1-1.1,3.1-3.4,3.1
					c-0.8,0.1-1.7,0.1-2.9,0.1c-0.1-0.9-0.1-1.5-0.3-1.8c0.2,0,0.6,0,1.2,0c0.8,0.1,1.5,0.1,1.9,0.1c1.1,0.1,1.7-0.5,1.9-1.7
					c0.1-1.8,0.2-3.7,0.2-5.7h-8.8l0.6-7.8H93z"/>
				<path id="XMLID_212_" class="st1" d="M110.3,30.4c0.1,0.1,0.4,0.6,0.9,1.6c-1.6,1.2-3.4,2.5-5.3,4.1l-1.1-1.4
					C106.9,33.2,108.8,31.8,110.3,30.4z M116.3,38.9c-0.1,0.9-0.2,1.8-0.4,2.5c1.2,0.5,3,1.1,5.2,2c1.8,0.7,3.1,1.2,3.9,1.5
					l-0.8,1.6c-0.8-0.4-1.9-0.8-3.4-1.4c-2.4-1-4.2-1.8-5.7-2.3c-1,1.6-4.1,2.9-9.2,3.9c-0.1-0.1-0.2-0.4-0.4-0.8
					c-0.2-0.4-0.3-0.6-0.4-0.8c5.6-0.8,8.6-2,9-3.8c0.2-0.6,0.4-1.4,0.4-2.4H116.3z M106.7,26c0.1,0.1,0.3,0.2,0.5,0.4
					c1.5,0.9,2.5,1.7,3.2,2.2l-1.1,1.3c-0.5-0.5-1.4-1.2-2.7-2.1c-0.4-0.3-0.6-0.5-0.8-0.6L106.7,26z M108,36.1h14.8v6.4h-1.6v-4.9
					h-11.6v5.2H108V36.1z M111,31c1.4-1.5,2.5-3.3,3.3-5.4l1.7,0.4c-0.2,0.6-0.5,1.1-0.8,1.7h9.8v1.3l-1.5,2.9
					c-0.1-0.1-0.3-0.1-0.5-0.2c-0.4-0.2-0.7-0.4-1-0.4l1.2-2.2h-4c0,0.1,0,0.2,0,0.4c-0.1,0.1-0.1,0.2-0.1,0.4
					c0.7,2.3,3,3.8,6.8,4.6c-0.2,0.2-0.5,0.6-1,1.3c-0.1,0.1-0.1,0.2-0.2,0.3c-3.3-1-5.4-2.4-6.4-4.2c-0.9,1.8-3.1,3.2-6.6,4.1
					c-0.1-0.2-0.4-0.5-0.7-1.1c-0.1-0.2-0.2-0.3-0.3-0.4c4.5-0.9,6.7-2.7,6.7-5.3h-3c-0.6,1-1.3,1.9-2,2.8
					C111.9,31.5,111.5,31.2,111,31z"/>
				<path id="XMLID_210_" class="st1" d="M128.5,41.7c3.6-2.5,6.4-6,8.6-10.5h-7.7v-1.6h8.9v-3.9h1.6v3.9h9v1.6h-7.8
					c2.1,4.2,5,7.6,8.6,10c-0.4,0.4-0.9,0.9-1.4,1.5c-3.9-3.2-6.7-6.9-8.4-11v9.4h4.9v1.5h-4.9v4.2h-1.6v-4.2h-5.1v-1.5h5.1v-9.4
					c-1.8,4.3-4.6,8.1-8.4,11.5C129.5,42.6,129.1,42.1,128.5,41.7z"/>
			</g>
		</g>
		<g id="XMLID_49_">
			<rect id="XMLID_66_" x="14.4" y="25.7" class="st1" width="36.5" height="35.5"/>
			<path id="XMLID_65_" class="st4" d="M27.9,44.3c-0.3,0-0.6-0.2-0.6-0.5c0-0.2,0.2-0.4,0.5-0.4c0.1,0,0.2,0,0.2,0h12.2
				c0.1,0,0.2,0,0.3,0.1c0.2,0.1,0.4,0.2,0.4,0.4c0,0.3-0.3,0.5-0.6,0.5H27.9z"/>
			<path id="XMLID_64_" class="st4" d="M36.9,40.6c0.4,0,0.6,0.2,0.6,0.5c0,0.3-0.3,0.5-0.6,0.5H26.6c-0.3,0-0.6-0.2-0.6-0.5
				c0-0.2,0.3-0.5,0.6-0.5H36.9z"/>
			<path id="XMLID_63_" class="st4" d="M24.9,38.6c0-0.3,0.3-0.5,0.6-0.5h9.6c0.3,0,0.6,0.2,0.6,0.5c0,0.3-0.3,0.5-0.6,0.5h-9.6
				C25.2,39.1,24.9,38.9,24.9,38.6z"/>
			<path id="XMLID_62_" class="st4" d="M29.5,46.3h16.3c0.4,0,0.8,0.2,0.8,0.5c0,0.3-0.3,0.5-0.8,0.5H29.5c-0.4,0-0.8-0.2-0.8-0.5
				C28.7,46.6,29.1,46.3,29.5,46.3z"/>
			<path id="XMLID_60_" class="st4" d="M40.9,29.1h2.3c0.3,0,0.6,0.2,0.6,0.5c0,0.3-0.3,0.5-0.6,0.5h-2.3c-0.4,0-0.6-0.2-0.6-0.5
				C40.2,29.3,40.5,29.1,40.9,29.1z"/>
			<path id="XMLID_59_" class="st4" d="M36.3,31.3h5.1c0.3,0,0.6,0.2,0.6,0.5c0,0.3-0.3,0.5-0.6,0.5h-5.1c-0.3,0-0.6-0.2-0.6-0.5
				C35.7,31.5,35.9,31.3,36.3,31.3z"/>
			<path id="XMLID_57_" class="st4" d="M32,33.5h7.2c0.3,0,0.6,0.2,0.6,0.5s-0.3,0.5-0.6,0.5H32c-0.4,0-0.6-0.2-0.6-0.5
				S31.6,33.5,32,33.5z"/>
			<path id="XMLID_56_" class="st4" d="M28.2,35.7h8.3c0.3,0,0.6,0.2,0.6,0.5s-0.3,0.5-0.6,0.5h-8.3c-0.3,0-0.6-0.2-0.6-0.5
				S27.8,35.7,28.2,35.7z"/>
			<path id="XMLID_55_" class="st4" d="M22.8,54.1c-0.4,0-0.8-0.2-0.8-0.5c0-0.3,0.3-0.5,0.8-0.5h22.5c0.4,0,0.8,0.2,0.8,0.5
				c0,0.3-0.3,0.5-0.8,0.5H22.8z"/>
			<path id="XMLID_54_" class="st4" d="M17,57.4c-0.4,0-0.8-0.2-0.8-0.5c0-0.3,0.3-0.5,0.8-0.5h8.7c0.4,0,0.8,0.2,0.8,0.5
				c0,0.3-0.3,0.5-0.8,0.5H17z"/>
			<path id="XMLID_53_" class="st4" d="M28.3,57.4c-0.4,0-0.8-0.2-0.8-0.5c0-0.3,0.3-0.5,0.8-0.5h0.3c0.4,0,0.8,0.2,0.8,0.5
				c0,0.3-0.3,0.5-0.8,0.5H28.3z"/>
			<path id="XMLID_52_" class="st4" d="M31.5,57.4c-0.4,0-0.8-0.2-0.8-0.5c0-0.3,0.3-0.5,0.8-0.5h8.7c0.4,0,0.8,0.2,0.8,0.5
				c0,0.3-0.3,0.5-0.8,0.5H31.5z"/>
			<path id="XMLID_51_" class="st4" d="M42.7,57.4c-0.4,0-0.8-0.2-0.8-0.5c0-0.3,0.3-0.5,0.8-0.5h0.3c0.4,0,0.8,0.2,0.8,0.5
				c0,0.3-0.3,0.5-0.8,0.5H42.7z"/>
			<path id="XMLID_50_" class="st4" d="M47,50.6H28.1c-0.4,0-0.8-0.2-0.8-0.5c0-0.3,0.3-0.5,0.8-0.5H47c0.4,0,0.8,0.2,0.8,0.5
				C47.8,50.3,47.4,50.6,47,50.6z"/>
		</g>
	</g>
</g>
</svg>
