<?xml version="1.0" encoding="utf-8"?>
<!-- Generator: Adobe Illustrator 19.0.0, SVG Export Plug-In . SVG Version: 6.00 Build 0)  -->
<svg version="1.1" id="图层_1" xmlns="http://www.w3.org/2000/svg" xmlns:xlink="http://www.w3.org/1999/xlink" x="0px" y="0px"
	 viewBox="0 0 165 90" style="enable-background:new 0 0 165 90;" xml:space="preserve">
<style type="text/css">
	.st0{fill:#FFFFFF;}
	.st1{fill:#333333;}
</style>
<rect id="XMLID_4_" x="0.2" y="-0.1" class="st0" width="165" height="90"/>
<rect id="XMLID_7_" x="0.2" y="-0.1" class="st0" width="165" height="90"/>
<g id="XMLID_1_">
	<g id="XMLID_23_">
		<path id="XMLID_276_" class="st1" d="M13.9,55.5c0.1-2,0.3-3.8,0.4-5.7c0.3-3.4,0.5-6.8,0.8-10.2c0.1-0.6,0.2-1.2,0.4-1.8
			c0.3-0.9,0.9-1.4,2-1.4c10.2,0,20.4,0,30.7,0c0.2,0,0.3,0,0.5,0c1.1,0,1.1,0,1,1.1c-0.2,3.6-0.5,7.1-0.7,10.7
			c-0.1,1.5-0.2,3-0.3,4.5c-0.2,1.8-1.5,2.9-3.4,2.9c-10.2,0-20.4-0.1-30.7-0.1C14.4,55.6,14.2,55.6,13.9,55.5z M42.5,46.7
			c0.8-0.4,1.5-0.7,2.1-1.2c1.2-0.8,1.5-2.5,1-4.1c-0.4-1.2-1.5-1.9-3-1.9c-1.8,0-3.6,0.1-5.4,0.1c-0.5,0-0.7,0.2-0.7,0.7
			c-0.1,1.9-0.3,3.8-0.4,5.7c-0.1,1.1-0.2,2.2-0.3,3.2c-0.3-0.4-0.5-0.9-0.6-1.3c-0.7-2.4-1.5-4.8-2.2-7.2c-0.2-0.7-0.7-1.3-1.5-1.4
			c-0.8-0.1-1.1,0.6-1.5,1.1c-0.1,0.1-0.1,0.3-0.2,0.5c-1.3,3-2.6,6.1-3.9,9.1c-0.1,0.3-0.2,0.7-0.8,0.7c-1.7,0-3.4,0-5,0
			c-0.3,0-0.6-0.3-0.8-0.6c-0.2-0.3-0.1-0.7-0.1-1.1c0.1-1.9,0.3-3.7,0.4-5.6c0.1-1.3,0.4-1.6,1.8-1.6c1.1,0,2.2,0,3.3,0
			c0.3,0,0.6-0.1,0.9-0.2c0.5-0.2,0.9-1,0.8-1.5c-0.2-0.6-0.7-0.3-1-0.3c-1.6,0-3.2,0-4.8,0c-1,0-1.7,0.4-2.2,1.1
			c-0.4,0.7-0.7,1.4-0.8,2.2c-0.2,2.5-0.3,5-0.3,7.5c0,0.9,0.4,1.6,1.3,1.9c0.5,0.2,1,0.2,1.5,0.2c2,0,4,0,6,0.1
			c0.5,0,0.8-0.2,1-0.7c1.2-2.9,2.5-5.8,3.8-8.6c0.1-0.3,0.2-0.5,0.4-0.9c0.2,0.4,0.4,0.6,0.4,0.9c0.7,2.4,1.3,4.8,1.9,7.2
			c0.5,2,0.5,2,2.7,2.1c0.9,0,1.2-0.3,1.3-1.2c0.1-0.8,0.1-1.6,0.2-2.4c0.2-2.2,0.4-4.5,0.6-6.7c0.1-0.6,0.3-1,1-1
			c0.9,0,1.8,0.1,2.7,0.2c0.5,0,1,0.2,1.1,0.8c0.1,0.6-0.1,1.2-0.6,1.5c-0.4,0.3-0.9,0.5-1.4,0.6c-0.9,0.3-1.5,1.8-1,2.6
			c1.3,1.8,2.7,3.6,4.1,5.4c0.1,0.1,0.4,0.2,0.5,0.2c0.6-0.3,1.2-0.7,1.9-1.1C45.3,50,43.9,48.3,42.5,46.7z"/>
	</g>
	<path id="XMLID_17_" class="st1" d="M59.3,37.2l0-2.5c0,0,1.5-0.4,2.5,0.5s0.4,2,0.4,2h2.4c0,0,1.2,1,0.3,2.7s-3.6,5-4.7,5.3
		c-0.7,0.5,0.2,0.7,0.2,0.7l0.7-0.1c0,0,0.3,0,0.2,0.7c-0.1,0.7-0.6,7.6-0.6,7.6s-0.5,1.8-2,1.7c-1.4,0-1.1-0.4-1.1-0.4l0.7-8.3
		c0,0,0.3-1-2.9,1.3v-2.9c0,0,5-3.3,6.3-5.6c0.1-0.2-0.7-0.2-1.8-0.2c-1.7,0-4.1,0-4.1,0l0.1-2.4H59.3z"/>
	<path id="XMLID_18_" class="st1" d="M61.9,44.6l0.6,5.2c0,0,0.8,0.3,1.4,0.1s0.9-1,0.9-1.4C65,45.9,64.3,43.7,61.9,44.6z"/>
	<path id="XMLID_38_" class="st1" d="M77.9,36.6c-2.3,0-3.2,0-3.2,0l0-1.9h-3.2l0,1.9l-2.8,0c0,0-0.9,0-1.6,0.7
		c-0.7,0.7-0.7,1.9-0.7,1.9l-1.1,14.4h3.8c0,0,1-0.1,1,0.8v1.1h3l0.1-1.8l2.8,0c0,0,1.9-0.2,2.1-1.9l1.2-12.5
		C79.3,39.2,79.9,36.5,77.9,36.6z M70.9,47.6l-0.3,3.6l-2.2-0.1l0.4-5.2C71.2,45.6,70.9,47.6,70.9,47.6z M71.4,40L71,43.9l-2.2-0.2
		l0.5-4.6C71.4,38.5,71.4,40,71.4,40z M75.9,47.6l-0.1,3.6l-2.2-0.1l0.4-5.1C76,45.6,75.9,47.6,75.9,47.6z M76.6,40l-0.4,3.9
		l-2.2-0.2l0.5-4.6C76.6,38.5,76.6,40,76.6,40z"/>
	<path id="XMLID_19_" class="st1" d="M82.4,38.7l2.4,0.2L83,49.4c0,0-0.3,2.2-2.3,1.1L82.4,38.7z"/>
	<path id="XMLID_13_" class="st1" d="M85.8,34.8L85,49.5c0,0-0.1,2.5-2.5,3.1v2.5c0,0,4.9,0,5.1-5.6L88.4,36
		C88.4,36,88.5,34.6,85.8,34.8z"/>
	<path id="XMLID_20_" class="st1" d="M91.8,38.9h-2.5v10c0,0,0.6,2.6,2.5,1.5V38.9z"/>
	<path id="XMLID_24_" class="st1" d="M93.6,34.8L92,54.9c0,0,2.6,0.5,3.1-2.5l1.2-16.1C96.4,36.3,96.5,34.4,93.6,34.8z"/>
	<path id="XMLID_25_" class="st1" d="M99.4,38.7v11.8c0,0-1.9,1.6-2.5-1.9v-9.8L99.4,38.7z"/>
	<path id="XMLID_76_" class="st1" d="M101.3,34.8l-1.4,20.1c0,0,2.5,0.4,3-2.8L104,36C104,36,104.2,34.6,101.3,34.8z"/>
	<path id="XMLID_77_" class="st1" d="M106.6,34.6l-0.3,2.5c0,0,4.7-0.8,3.2,2.5l-3.2-0.1l-0.3,2.3l2.1,0c0,0,1.4,0.1,1.2,1.8
		c-0.1,1.7-1,11.2-1,11.2s2.5,0.1,3-2.5l0.9-10.5l3,0v-2.3h-2.8l0.3-2.4h2.4c0,0,1.6-1.1,0-2.4L106.6,34.6z"/>
	<path id="XMLID_78_" class="st1" d="M106,43.4l-0.9,10.9c0,0,1.8,0.3,2.1-0.9l0.8-9.1C107.9,44.3,107.7,42.8,106,43.4z"/>
	<path id="XMLID_79_" class="st1" d="M113,43.3l-0.2,8.1c0,0,2,0.4,2-0.9l0.2-6.2C115,44.3,114.7,42.7,113,43.3z"/>
	<path id="XMLID_84_" class="st1" d="M150.4,36.3h-13.1l1.1-2.1h-3c0,0-0.9,0.1-1.6,2.2h-4.1c0,0-1.3,3.3,2.4,2.8l-1.9,4
		c0,0-1,2.7,2.1,2.6l5.4-0.1c0,0,1.8-0.2,1.7,1.6c-0.1,1.7-0.2,2.1-0.2,2.1l-7.8,0c0,0-2.4,0.3-1.5,2.5l-2.7,0l1-14.8
		c0,0,0.2-1.7-1-2.3l-8.2-0.2c0,0-1.8-0.1-2.2,2.5l-1.1,14.9h-2.4l-0.6,2.8l14.4,0.1c0,0,3.6,0.5,3.1-2.8l7.6-0.1c0,0,0.7,0,1,0.6
		c0.3,0.6,0.2,2.9,0.2,2.9h3.3v-3.5l8.3-0.1v-2.7l-8-0.1l-0.1-3c0,0,0-0.6,1.3-0.4l6.6-0.1l0.3-2.8l-7.5,0l0-1.8
		c0,0,0.4-1.4-3.1-0.8l-0.1,2.6l-4.5,0.2c0,0-1.7,0.2-0.6-1.5l1.4-2.8l14.5,0.1c0,0,0.8,0,0.8-1L150.4,36.3z M125.1,46.4l-0.6,5.7
		h-6.3l0.3-1.2c0,0,1.4,0.6,4.5-3.8l2.7-3.5l-1.2-3.8c0,0-0.9-1.8-3.2-1.3l0.9,5l-3.7,5l0.9-11.2l5.9,0.1v1.9c0,0,0,0.8,0.4,1.2
		l1.1,2.7L125.1,46.4z"/>
</g>
</svg>
