<?xml version="1.0" encoding="utf-8"?>
<!-- Generator: Adobe Illustrator 19.0.0, SVG Export Plug-In . SVG Version: 6.00 Build 0)  -->
<svg version="1.1" id="图层_1" xmlns="http://www.w3.org/2000/svg" xmlns:xlink="http://www.w3.org/1999/xlink" x="0px" y="0px"
	 viewBox="0 0 165 90" style="enable-background:new 0 0 165 90;" xml:space="preserve">
<style type="text/css">
	.st0{fill:#FFFFFF;}
	.st1{fill:#333333;}
</style>
<rect id="XMLID_4_" x="0.2" y="0" class="st0" width="165" height="90"/>
<rect id="XMLID_7_" x="0.2" y="0" class="st0" width="165" height="90"/>
<g id="XMLID_2_">
	<path id="XMLID_26_" class="st1" d="M53.2,46.8c0-0.5-0.3-1.8-1.6-2.6c-1.2-0.7-2.9-0.6-4.4-0.4c0.6-0.7,1-2.6,1-2.6l0-0.1h-0.1
		h-2.5l0,0.1c0,0-0.2,1.9-0.9,3c-0.7,1-1.6,1.7-1.6,1.7l0,1.6c0,0,0.4-0.5,1.1-1c0.6-0.5,2-1.3,3.6-1.4c0.8,0,1.5,0.2,2,0.7
		c0.6,0.5,0.8,1.2,0.8,1.7c0,1-0.2,5.5-0.3,6.7c-0.1,1.2-0.8,2.6-2,2.9c-1.2,0.3-2.1,0.1-2.1,0.1l-0.1,0c0,0-0.1,0.9-0.1,0.9
		c0,0,0,0,0,0.1c0,0,0,0,0,0c0,0.1,0,0.2,2.4,0.2c2.8,0,4.2-2.7,4.6-4.1c0.3-1.1,0.2-5.3,0.2-6.9L53.2,46.8z"/>
	<path id="XMLID_29_" class="st1" d="M38.8,43.6c0.7-0.8,1-2.4,1-2.5l0-0.1h-2.4l0,0.1c0,0-0.1,2-1.4,3.1c0-0.1,0-0.4,0-0.4h-2.3
		v13.6h2.3c0,0,0-1.2,0-1.3h4.4c0,0.1,0,1.3,0,1.3l2.3-0.2V46.3C42.6,44.5,41.4,43.7,38.8,43.6z M40.4,54.4h-4.4v-3.7h4.4V54.4z
		 M40.4,49h-4.4v-3.2c0.5-0.4,1.3-0.9,2.3-0.9c1,0,2.1,0.8,2.1,1.7C40.4,46.7,40.4,48.9,40.4,49z"/>
	<polygon id="XMLID_31_" class="st1" points="49.2,51.8 45.6,47.9 45.6,47.9 44.4,48.9 47,53 	"/>
	<path id="XMLID_32_" class="st1" d="M20.7,50.1c0.1,0,7.2,0,7.2,0v-1.5c0,0-7,0-7.2,0c0-0.1,0-1.3,0-1.4c0.1,0,7.2,0,7.2,0v-1.5
		c0,0-7,0-7.2,0c0-0.1,0-1.1,0-1.2c0.1,0,8,0,8,0v-1.5c0,0-4.7,0-5,0c0.7-0.7,1.3-1.7,1.4-1.7l0.1-0.1H25h-2.4l0,0
		c0,0-0.8,1.2-1.5,1.8c0,0-3.4,0-3.4,0c0,0-1.5-1.8-1.5-1.8h-2.5c0,0,1.4,1.6,1.5,1.8c-0.3,0-4.8,0-4.8,0v1.5c0,0,7.6,0,7.7,0
		c0,0.1,0,1.1,0,1.2c-0.1,0-6.8,0-6.8,0v1.5c0,0,6.6,0,6.8,0c0,0.1,0,1.3,0,1.4c-0.1,0-6.8,0-6.8,0v1.5c0,0,6.6,0,6.8,0
		c0,0.1,0,0.5,0,0.5c0,0.2,0,0.5-0.1,0.8c-0.1,0-8.2,0-8.2,0v1.5c0,0,7.4,0,7.6,0c-0.5,0.9-1.6,2.4-3.3,3.1C11.3,57.2,10,57,10,57
		l-0.1,0v1.3l0.1,0c0,0,3.1-0.1,5-0.9c2-0.8,3.3-1.7,4.8-4c0.1-0.1,0.2-0.2,0.2-0.4c0.1,0,9.2,0,9.2,0v-1.5c0,0-8.6,0-8.7,0
		C20.6,51,20.7,50.6,20.7,50.1z"/>
	<path id="XMLID_33_" class="st1" d="M25.3,55.6c-1.4-0.4-4.2-2.2-4.2-2.2l0,0l0,0L19.8,54l0.1,0.1c0,0,2.6,2.9,5.3,3.6
		c2.8,0.7,3.2,0.5,3.3,0.5l0,0l0.8-2l-0.1,0C29.1,56.2,27.2,56.2,25.3,55.6z"/>
	<path id="XMLID_34_" class="st1" d="M109.1,39.5h-2.7c-0.4,0-0.3,0.4-0.3,0.4c0,0.4,0,2.4,0,2.9h3.3c0-0.4,0-2.5,0-2.9
		C109.4,39.8,109.5,39.5,109.1,39.5z"/>
	<path id="XMLID_37_" class="st1" d="M140.1,46.6c-1.2-1.4-2.8-2-4.8-2c-2,0-3.7,0.6-5,1.9c-1.3,1.3-2,2.9-2,5
		c0,2.1,0.7,3.7,1.9,4.9c1.3,1.2,3.1,1.8,5.5,1.8c4.5,0,5.5-3.1,5.9-4.1l-1.2-0.4c-1,1.9-3.4,2-4.7,1.9c-1-0.1-1.9-0.4-2.6-0.9
		c-0.7-0.5-1.2-1.3-1.4-2.4l-0.1-0.4c0,0,9.7,0,10.2,0C141.8,49.7,141.3,47.9,140.1,46.6z M138.6,50.1l-6.7,0
		c-0.2,0-0.2-0.2-0.2-0.2c0.1-0.8,0.4-1.4,1-2c0.6-0.6,1.6-1,2.6-1c0.9,0,1.7,0.3,2.3,0.8c0.5,0.4,0.9,1.1,1.1,2
		C138.8,49.8,138.8,50.1,138.6,50.1z"/>
	<polygon id="XMLID_38_" class="st1" points="106.2,44.6 106.2,58.3 109.4,58.3 109.4,44.6 	"/>
	<path id="XMLID_41_" class="st1" d="M125.5,39.5h-2.7c-0.3,0-0.3,0.3-0.3,0.3c0,0.5,0,5.6,0,5.6l-0.4-0.2c-0.4-0.2-0.9-0.4-1.3-0.5
		c-0.5-0.1-1-0.1-1.6-0.1c-2.1,0-3.9,0.6-5.2,1.9c-1.3,1.2-1.9,3-1.9,5.2c0,1.9,0.6,3.6,1.6,4.8c1.1,1.3,2.6,1.9,4.7,1.9
		c3,0,4.1-1.8,4.1-1.8l0,1.7h3.3c0,0,0-1,0-3.2c0-3.6,0-15.3,0-15.3S125.8,39.5,125.5,39.5z M122.3,54.6c-0.3,0.3-0.7,0.5-1.2,0.7
		c-0.5,0.2-1.1,0.3-1.8,0.3c-1.1,0-2-0.4-2.6-1.1c-0.6-0.7-1-1.8-1-3.2c0-1.4,0.3-2.4,0.9-3.1c0.6-0.7,1.5-1,2.8-1
		c0.6,0,1.3,0.1,1.8,0.3c0.5,0.2,0.9,0.4,1.1,0.6c0.1,0.1,0.2,0.2,0.2,0.5l0,5.6C122.5,54.3,122.4,54.5,122.3,54.6z"/>
	<path id="XMLID_42_" class="st1" d="M63.4,47.3c0-9.8,8.3-17.8,18.4-17.8c6.3,0,12.1,3.2,15.5,8.3c-2.5-7-9.4-11.8-17.2-11.8
		C70.1,26,62,33.8,62,43.4c0,2.6,0.7,5.2,1.8,7.6C63.5,49.7,63.4,48.5,63.4,47.3z"/>
	<path id="XMLID_45_" class="st1" d="M150.3,44.5c-3.9,0-5.2,2.3-5.7,3.5c0,0-0.2,0.4-0.2,0.4l1.3,0.4c0,0,0.8-2.4,4.1-2.2
		c3.3,0.1,2.9,2.8,2.9,3.3c-1.8-0.6-4.4-0.5-6.1,0.3c-2.1,1-2.5,2.9-2.4,4.4c0.1,2.1,2,3.6,4.4,3.8c2.2,0.1,3.2-0.4,4.1-1.3l0,1.2
		l2.9,0c0,0,0-0.8,0-3.6v-4.4c0,0,0-0.3,0-0.8v-0.6C155.7,47.3,154.6,44.5,150.3,44.5z M152.8,55.1c0,0.2-0.1,0.4-0.2,0.5
		c-0.6,0.3-1.7,0.6-3.2,0.5c-1.5-0.1-2.1-1.2-2.2-1.6c0-0.2-0.4-2.2,1.6-2.8c1.3-0.4,2.9-0.1,3.7,0.1c0.2,0.1,0.3,0.2,0.3,0.5V55.1z
		"/>
	<path id="XMLID_46_" class="st1" d="M100.4,39.5h-3.3c-0.4,0-0.3,0.3-0.3,0.3c0.1,0.4,0.2,1.1,0.2,2.6c0,3.2-0.4,7.9-4,12.3
		L92.7,55c0,0-2.1-14.9-2.2-15.2c0,0,0-0.3-0.3-0.3h-3.3c-0.3,0-0.3,0.3-0.3,0.3c-0.1,1.7-1,16.1-11.5,18.4c2.2,0.2,4.9-0.4,7.3-1.9
		c2.9-1.8,4.9-4.5,5.5-7.5c0,0,1.3,8,1.4,9.9l0,0.1l-0.1,0.1c-2.9,1.6-6.3,2.4-9.6,2.4c-8.3,0-15.6-4.9-18.8-12.4
		C62.7,57.6,70.5,64,79.7,64c10.7,0,17.1-9,18.2-15.3c0,0,1.4,9.3,1.5,9.6h4.4c-0.1-0.4-3-18.2-3-18.5
		C100.7,39.8,100.7,39.5,100.4,39.5z"/>
</g>
</svg>
