<?xml version="1.0" encoding="utf-8"?>
<!-- Generator: Adobe Illustrator 19.0.0, SVG Export Plug-In . SVG Version: 6.00 Build 0)  -->
<svg version="1.1" id="图层_1" xmlns="http://www.w3.org/2000/svg" xmlns:xlink="http://www.w3.org/1999/xlink" x="0px" y="0px"
	 viewBox="0 0 165 90" style="enable-background:new 0 0 165 90;" xml:space="preserve">
<style type="text/css">
	.st0{fill:#FFFFFF;}
	.st1{fill:#333333;}
</style>
<rect id="XMLID_4_" x="0.2" y="0" class="st0" width="165" height="90"/>
<rect id="XMLID_7_" x="0.2" y="0" class="st0" width="165" height="90"/>
<g id="XMLID_10_">
	<path id="XMLID_41_" class="st1" d="M48.8,39.5c2.5,0,5-0.6,5-3.6v-6.4h-3.2v6.3c0,1.3-0.6,1.9-1.8,1.9c-1.2,0-1.8-0.7-1.8-1.9
		v-6.3h-3.2v6.4C43.8,39,46.6,39.4,48.8,39.5z"/>
	<path id="XMLID_42_" class="st1" d="M36.1,37.2c-1.3,0-2.8-0.4-4.1-0.8l-1,2c1.4,0.7,3.7,1.1,5.4,1.1c2.6,0,5.1-1,5.3-3.4
		c0.3-2.7-2-3.7-4.3-4.4c-1.3-0.4-2.7-0.8-2.7-1.8c0-0.9,1.2-1.5,2.4-1.5c1,0,1.9,0.2,3.3,0.7l0.8-2.1C39.7,26.2,38.2,26,37,26
		c-2.8,0-5.5,1.2-5.5,3.9c0.1,2.5,2.3,3.2,4.2,3.8c0.9,0.3,3,0.8,2.8,2.1C38.4,36.8,37.2,37.1,36.1,37.2z"/>
	<path id="XMLID_43_" class="st1" d="M62.5,32.5v6.7h3.2v-6.8c0-3.1-2.8-3.6-5-3.6c-2.5,0-5,0.6-5,3.6v6.8h3.2v-6.7
		c0-1.2,0.6-1.9,1.8-1.9C61.9,30.6,62.5,31.3,62.5,32.5z"/>
	<path id="XMLID_44_" class="st1" d="M77.5,28.8c-2.5,0-5,0.6-5,3.6v6.8h3.2v-6.7c0-1.2,0.6-1.9,1.8-1.9c1.2,0,1.8,0.7,1.8,1.9v6.7
		h3.2v-6.8C82.6,29.3,79.8,28.8,77.5,28.8z"/>
	<rect id="XMLID_45_" x="67.6" y="29.4" class="st1" width="3.2" height="9.8"/>
	<path id="XMLID_48_" class="st1" d="M91.1,41.7c-0.3,0.2-0.5,0.3-1.1,0.4c-0.1,0-0.2,0-0.3,0c-1.1,0.1-2.3-0.1-3.6-0.7l-0.9,1.7
		c1.5,0.8,3,1.2,4.3,1.2c0.2,0,0.3,0,0.5,0c1.9,0,3.2-0.6,4-1.6c0.7-0.9,1.1-2.1,1.1-3.7v-9.7c-1.5-0.6-3.3-0.8-5.1-0.7h0
		c-3.4,0.2-5.2,2.4-5.2,5.5c0,3,1.5,4.9,4.9,5.1c0.1,0,0.2,0,0.3,0h0c0.7,0,1.5,0,2.1-0.2C92.1,40.2,92,41.2,91.1,41.7z M92.1,37.3
		c-0.7,0.2-1.5,0.2-2.1,0.1h0l0,0c-1.4-0.3-2.2-1.4-2.1-3.1c0-1.7,0.8-3,2.1-3.3h0c0,0,0,0,0.1,0c0.6-0.1,1.5-0.1,2,0.1V37.3z"/>
	<path id="XMLID_49_" class="st1" d="M69.2,28.3c1.1,0,2-0.9,2-2c0-1.1-0.9-2-2-2c-1.1,0-2,0.9-2,2C67.2,27.4,68.1,28.3,69.2,28.3z"
		/>
	<path id="XMLID_50_" class="st1" d="M98.4,39.6c0.9,0,1.6-0.7,1.6-1.6c0-0.9-0.7-1.6-1.6-1.6c-0.9,0-1.6,0.7-1.6,1.6
		C96.8,38.8,97.5,39.6,98.4,39.6z"/>
	<polygon id="XMLID_51_" class="st1" points="50.7,56.4 51.2,64 54.6,64 54.1,56.4 	"/>
	<polygon id="XMLID_52_" class="st1" points="37.1,47.9 37.1,49.4 36.9,49.4 33.9,49.4 33.9,51.5 36.9,51.5 53.8,51.5 53.8,49.4 
		50.2,49.4 50.2,47.9 46.3,47.9 46.3,49.4 41,49.4 41,47.9 	"/>
	<polygon id="XMLID_53_" class="st1" points="36.9,61.2 38.6,57.2 36.9,57.2 35.2,57.2 32.3,63.9 35.7,63.9 36.6,61.8 	"/>
	<path id="XMLID_54_" class="st1" d="M48,53.7h-2.7l0.5-1.2h-4l-0.5,1.2h-4.4h-1.7v2.2h1.7h3.4l-3.4,7.9l-0.2,0.4l-0.5,1.3h0.7h3.2
		l4.2-9.6h2.2v5.3c0,1.2-1,2.5-2.1,2.5h-1.9l-0.8,1.9H45c3.8,0,5.2-3.3,5.2-4.9v-4.8C50.2,54.4,49.2,53.7,48,53.7z"/>
	<path id="XMLID_55_" class="st1" d="M77,49.4h-4.2v-1.4h-4.1v1.4h-3.3h-4.1v3.8h4.1v-1.6H76v1.6h4.2v-1.6
		C80.2,49.4,78.9,49.4,77,49.4z"/>
	<path id="XMLID_56_" class="st1" d="M61.2,56.4h9V61c0,1.2-1.1,2.4-2.1,2.4h-3.7l-0.8,2.1h6c3,0,5-2.6,5-4.9v-4.2h5.6v-2.2H61.2
		V56.4z"/>
	<path id="XMLID_57_" class="st1" d="M130.2,28.8c-1,0-2.1,0.2-2.8,0.7c-0.8-0.5-1.9-0.7-2.9-0.7c-2.2,0-4.3,0.6-4.3,3.6v6.8h2.7
		v-6.7c0-1.2,0.5-1.9,1.6-1.9c1,0,1.6,0.7,1.6,1.9v6.7h0h2.6h0.1v-7.4c0.2-0.8,0.6-1.2,1.5-1.2c1,0,1.5,0.7,1.5,1.9v6.7h2.6v-6.8
		C134.3,29.3,132,28.8,130.2,28.8z"/>
	<path id="XMLID_58_" class="st1" d="M99,34.2c0,0.6,0.1,1.1,0.2,1.6c0.9,0,1.6,0.7,1.6,1.6c0,0.3-0.1,0.5-0.2,0.8
		c1,1,2.3,1.6,3.8,1.6c1.1,0,2.1-0.3,2.9-0.9v-1.6c-0.6,0.3-1.4,0.5-2.2,0.5c-2.4,0-4.3-1.6-4.3-3.6c0-2,1.9-3.6,4.3-3.6
		c0.8,0,1.5,0.2,2.2,0.5v-1.6c-0.8-0.5-1.8-0.9-2.9-0.9C101.4,28.6,99,31.1,99,34.2z"/>
	<path id="XMLID_61_" class="st1" d="M119.3,34.3c0-3.1-2.3-5.7-5.2-5.7c-2.9,0-5.2,2.5-5.2,5.7c0,3.1,2.3,5.7,5.2,5.7
		C116.9,40,119.3,37.4,119.3,34.3z M114.1,37.6c-1.5,0-2.8-1.5-2.8-3.3c0-1.8,1.2-3.3,2.8-3.3c1.5,0,2.8,1.5,2.8,3.3
		C116.8,36.1,115.6,37.6,114.1,37.6z"/>
	<path id="XMLID_64_" class="st1" d="M103.5,57.7l-11.4-0.1l0.4-0.8l9.1,0c0,0,3.7,0,3.9-3.6c0,0,0-2.7,0-3.1c0-0.4-0.5-1.4-2.4-1.4
		c-1.2,0-15,0-15,0l0.1,8.1h1.1l-2.8,5.7h3.3l1.2-2.7l1.2,0l-2.5,5.8h3.1l2.5-5.8h1.5l-2.5,5.8l3.2,0l2.5-5.8l2.3,0l-0.1,3
		c0,0-0.1,1.1-2.8,0.8l-0.8,2c0,0,2.4,0,3.2,0c1.2,0,4-0.8,4-3.6v-2.5C105.9,59.6,106,57.7,103.5,57.7z M91.7,53.8h8.9v-1.9h-8.9
		v-1.2H102c0,0,0,2.2,0,3.2c0,1.1-1.3,1-1.3,1h-9.1V53.8z"/>
	<path id="XMLID_65_" class="st1" d="M120.6,61.4l0.8-1.4l0-8l-2.7,0l0,7l-0.8,1.4l-0.1-9.6l4.5,0L122.2,61h2.7l0.1-9.9
		c0-2.4-1.9-2.3-1.9-2.3l-8,0v12.1l2.5,0l-2.7,4.8l3.4,0.1l1.9-3.6h0.1l1.6,3.6l3.4-0.1l-2-4.2L120.6,61.4z"/>
	<path id="XMLID_66_" class="st1" d="M131.7,49.4H129v-1h-3.4v3h5.4l0.1,10.3c0,0-0.5,1.9-1.9,2h-2.4l-0.8,1.9h4.2c0,0,4-0.6,4-4.4
		V51C134.3,51,134.5,49.2,131.7,49.4z"/>
	<path id="XMLID_67_" class="st1" d="M126.9,52.5l-1.6,9.2h4.1c1.4,0,1.4-1.5,1.4-1.5v-2.4h-1.5l0.1,1.3c0,0,0,0.6-0.1,0.6
		c-0.2,0.2-0.4,0.2-0.4,0.2h-0.7l1.3-7.4H126.9z"/>
</g>
</svg>
