<?xml version="1.0" encoding="utf-8"?>
<!-- Generator: Adobe Illustrator 19.0.0, SVG Export Plug-In . SVG Version: 6.00 Build 0)  -->
<svg version="1.1" xmlns="http://www.w3.org/2000/svg" xmlns:xlink="http://www.w3.org/1999/xlink" x="0px" y="0px"
	 viewBox="0 0 165 90" style="enable-background:new 0 0 165 90;" xml:space="preserve">
<style type="text/css">
	.st0{fill:#FFFFFF;}
	.st1{fill:#333333;}
</style>
<g id="图层_2">
</g>
<g id="图层_1">
	<rect id="XMLID_4_" class="st0" width="165" height="90"/>
	<g id="XMLID_1_">
		<rect id="XMLID_2_" x="30.5" y="30.3" class="st1" width="33.5" height="3.8"/>
		<rect id="XMLID_3_" x="36.7" y="28.5" class="st1" width="4.8" height="7.2"/>
		<rect id="XMLID_5_" x="51.8" y="28.5" class="st1" width="4.8" height="7.2"/>
		<rect id="XMLID_6_" x="31.7" y="37" class="st1" width="31.4" height="2.7"/>
		<rect id="XMLID_7_" x="36.8" y="41.2" class="st1" width="13" height="2.5"/>
		<rect id="XMLID_8_" x="41.5" y="38.2" class="st1" width="2.6" height="10.9"/>
		<polygon id="XMLID_9_" class="st1" points="34.5,53.2 31.7,53.2 31.7,39.2 35.1,39.2 35.1,51.7 		"/>
		<rect id="XMLID_10_" x="37.9" y="50.2" class="st1" width="25.2" height="2.2"/>
		<rect id="XMLID_11_" x="43.1" y="54.3" class="st1" width="20" height="2.2"/>
		<rect id="XMLID_12_" x="40.6" y="58.2" class="st1" width="22.5" height="2.9"/>
		<rect id="XMLID_13_" x="58.5" y="55.4" class="st1" width="4.6" height="5.7"/>
		<rect id="XMLID_14_" x="40.4" y="55.4" class="st1" width="3.9" height="5.7"/>
		<path id="XMLID_16_" class="st1" d="M35.1,51.3c0-0.5,0,8.4-5,9.8v-4.9c0,0,1.6-1.1,1.6-4.9H35.1z"/>
		<polygon id="XMLID_15_" class="st1" points="40.5,43 37.3,45.5 37.3,48.5 43.3,43.7 		"/>
		<polygon id="XMLID_17_" class="st1" points="45.9,43 49.1,45.3 49.1,48.5 43.1,43.7 		"/>
		<path id="XMLID_18_" class="st1" d="M41.4,51.9c0,0-1.4,2.8-5.1,4.6V60c0,0,6.2-1.4,9.5-8.1H41.4z"/>
		<rect id="XMLID_22_" x="51.1" y="41.2" class="st1" width="11.5" height="2.5"/>
		<rect id="XMLID_21_" x="55.3" y="38.4" class="st1" width="2.6" height="10.9"/>
		<rect id="XMLID_23_" x="45.8" y="35.7" class="st1" width="4.9" height="2"/>
		<rect id="XMLID_26_" x="66.3" y="30.3" class="st1" width="33.5" height="3.8"/>
		<rect id="XMLID_25_" x="72.5" y="28.5" class="st1" width="4.8" height="7.2"/>
		<rect id="XMLID_24_" x="87.6" y="28.5" class="st1" width="4.8" height="7.2"/>
		<rect id="XMLID_27_" x="80.8" y="39.8" class="st1" width="17.9" height="3.9"/>
		<rect id="XMLID_28_" x="87.6" y="37" class="st1" width="4.8" height="11.5"/>
		<rect id="XMLID_29_" x="81.5" y="47.9" class="st1" width="17.1" height="3.9"/>
		<rect id="XMLID_30_" x="81.5" y="48.5" class="st1" width="5" height="12.5"/>
		<rect id="XMLID_31_" x="82.2" y="57.1" class="st1" width="16.5" height="3.9"/>
		<rect id="XMLID_32_" x="93.8" y="50.2" class="st1" width="4.9" height="9"/>
		<rect id="XMLID_33_" x="65.7" y="38.8" class="st1" width="13.3" height="4"/>
		<path id="XMLID_35_" class="st1" d="M68,36.7h4.3c0,0,1,10.3-1,13.5l7.7,5.8v5.2l-12.9-9.2C66.1,51.9,68.9,43.1,68,36.7z"/>
		<path id="XMLID_34_" class="st1" d="M74.8,41.5c0,0,2.8,13.3-8.8,15v4.6c0,0,15.5-0.8,12.9-19.4L74.8,41.5z"/>
		<path id="XMLID_36_" class="st1" d="M105.2,28.5c0,0,0.4,4.6-4.6,7.2v5.1c0,0,6.8-1.8,10-12.3H105.2z"/>
		<path id="XMLID_37_" class="st1" d="M105.6,38.8h4.3c0,0,0.4,6.3-2.2,8.1l0,14.2h-3.6v-9.8c0,0-2,1.9-3.6,1.1v-5.5
			C100.6,46.9,104.4,46.2,105.6,38.8z"/>
		<rect id="XMLID_38_" x="111.1" y="30.6" class="st1" width="12.4" height="4.1"/>
		<rect id="XMLID_39_" x="111.1" y="38.8" class="st1" width="13.3" height="3.8"/>
		<rect id="XMLID_40_" x="115.2" y="28.5" class="st1" width="4.2" height="11.3"/>
		<rect id="XMLID_41_" x="126.3" y="30.6" class="st1" width="7.5" height="4.1"/>
		<rect id="XMLID_42_" x="125.5" y="38.8" class="st1" width="9.3" height="3.8"/>
		<rect id="XMLID_43_" x="128.5" y="40.6" class="st1" width="4.1" height="14.7"/>
		<rect id="XMLID_44_" x="110.6" y="48" class="st1" width="13.8" height="5.2"/>
		<rect id="XMLID_45_" x="115.2" y="44.9" class="st1" width="4.2" height="12.2"/>
		<path id="XMLID_47_" class="st1" d="M111.1,56.6v4.9c0,0,8.6,0.3,13.2-1.3v-5.2C124.3,54.9,118.4,58.1,111.1,56.6z"/>
		<path id="XMLID_48_" class="st1" d="M128.6,54.2c0,0,0,0.6-0.1,1.2c-0.2,0.9-0.8,1.8-3,1.7v3.9h3.7c0,0,3.5,0.2,3.4-5.7
			L128.6,54.2z"/>
		<polygon id="XMLID_20_" class="st1" points="53.9,43 50.7,45.5 50.7,48.5 56.7,43.7 		"/>
		<polygon id="XMLID_19_" class="st1" points="59.3,43 62.5,45.3 62.5,48.5 56.5,43.7 		"/>
	</g>
</g>
</svg>
