<?xml version="1.0" encoding="utf-8"?>
<!-- Generator: Adobe Illustrator 19.0.0, SVG Export Plug-In . SVG Version: 6.00 Build 0)  -->
<svg version="1.1" id="图层_1" xmlns="http://www.w3.org/2000/svg" xmlns:xlink="http://www.w3.org/1999/xlink" x="0px" y="0px"
	 viewBox="0 0 165 90" style="enable-background:new 0 0 165 90;" xml:space="preserve">
<style type="text/css">
	.st0{fill:#FFFFFF;}
	.st1{fill:#333333;}
</style>
<rect id="XMLID_4_" class="st0" width="165" height="90"/>
<g id="XMLID_2_">
	<g id="XMLID_19_">
		<g id="XMLID_58_">
			<circle id="XMLID_80_" class="st1" cx="93.2" cy="56.7" r="0.7"/>
			<circle id="XMLID_79_" class="st1" cx="122.9" cy="56.7" r="0.7"/>
			<g id="XMLID_72_">
				<rect id="XMLID_78_" x="75.6" y="57.7" class="st1" width="5.1" height="0.4"/>
				<path id="XMLID_77_" class="st1" d="M77.6,53.5c0-0.1,0.1-0.1,0.2-0.1h0.1c0.1,0,0.2,0,0.2,0.2c-0.1,0.3-0.2,0.9-0.2,0.9l-0.5,0
					C77.4,54.4,77.5,53.6,77.6,53.5z"/>
				<path id="XMLID_74_" class="st1" d="M76.5,54.2c-0.5,0-0.9,0.4-0.9,0.9c0,1.2,0,3.4,0,3.8c0,0.7,0.4,0.9,0.9,0.9h3.7
					c0.6,0,0.9-0.5,0.9-0.9c0,0,0-3.3,0-3.8c0-0.6-0.4-1-1-1C78.7,54.2,76.8,54.2,76.5,54.2z M80,59.4h-3.6c-0.2,0-0.4-0.2-0.4-0.4
					c0,0,0-3.5,0-3.8c0-0.4,0.2-0.6,0.6-0.6c0.2,0,3.1,0,3.3,0c0.4,0,0.5,0.2,0.5,0.5c0,0.2,0,2.8,0,3.7
					C80.5,59.2,80.3,59.4,80,59.4z"/>
				<rect id="XMLID_73_" x="75.6" y="56" class="st1" width="5.1" height="0.4"/>
			</g>
			<g id="XMLID_66_">
				<rect id="XMLID_71_" x="105.4" y="57" class="st1" width="5.2" height="0.4"/>
				<path id="XMLID_70_" class="st1" d="M107.8,53.4c0-0.1,0.1-0.1,0.1-0.1c0.1,0,0.1,0,0.2,0c0.1,0,0.1,0.1,0.1,0.1
					c0,0.1,0,6.1,0,6.1l-0.5,0.2C107.8,59.8,107.8,53.5,107.8,53.4z"/>
				<path id="XMLID_67_" class="st1" d="M106,54.6c-0.5,0-0.9,0.4-0.9,0.9c0,1.2,0,3.1,0,3.5c0,0.7,0.4,0.9,0.9,0.9h4.1
					c0.6,0,0.8-0.5,0.8-0.9c0,0,0-3.1,0-3.5c0-0.5-0.4-0.9-1-0.9C108.7,54.6,106.3,54.6,106,54.6z M109.9,59.4H106
					c-0.2,0-0.4-0.2-0.4-0.4c0,0,0-3.2,0-3.4c0-0.3,0.2-0.5,0.5-0.5c0.2,0,3.5,0,3.8,0c0.3,0,0.5,0.2,0.5,0.5c0,0.2,0,2.6,0,3.5
					C110.4,59.3,110.2,59.4,109.9,59.4z"/>
			</g>
			<g id="XMLID_59_">
				<path id="XMLID_65_" class="st1" d="M135.8,59.8c0,0.1-0.1,0.1-0.1,0.1c-0.1,0-0.1,0-0.2,0c-0.1,0-0.1-0.1-0.1-0.1
					c0-0.1,0-2.8,0-2.8s0.2,0,0.4,0c0.1,0,0.1,0,0.1,0.2C135.8,57.8,135.8,59.7,135.8,59.8z"/>
				<path id="XMLID_64_" class="st1" d="M137.3,53.9c0-0.1,0-0.1,0-0.1c0-0.1,0.1-0.1,0.1-0.1c0,0,3.1,0,3.2,0s0.2,0.1,0.2,0.2
					c0,0,0,0,0,0.1c0,0.1-0.1,0.2-0.2,0.2s-3.2,0-3.2,0C137.4,54.1,137.3,54,137.3,53.9z"/>
				<path id="XMLID_63_" class="st1" d="M136.9,56.1c0-0.1,0-0.1,0-0.1c0-0.1,0.1-0.1,0.1-0.1c0,0,3.9,0,4,0s0.2,0.1,0.2,0.2
					c0,0,0,0,0,0.1c0,0.1-0.1,0.2-0.2,0.2c-0.1,0-3.9,0-4,0S136.9,56.1,136.9,56.1z"/>
				<path id="XMLID_62_" class="st1" d="M134.4,55.4c0-0.1-0.1-0.2,0-0.2c0.6-0.4,1.2-1,1.4-1.6c0-0.1,0.1-0.1,0.1-0.1l0.3,0
					c0.1,0,0.1,0.1,0.1,0.2c-0.3,0.7-1,1.4-1.7,1.8C134.6,55.5,134.5,55.5,134.4,55.4z"/>
				<path id="XMLID_61_" class="st1" d="M134.3,57.5c-0.1-0.1,0-0.2,0-0.2c0.6-0.4,1.2-1.1,1.6-1.8c0-0.1,0.1-0.1,0.1-0.1l0.3,0
					c0.1,0,0.1,0.1,0.1,0.2c-0.4,0.9-1.1,1.6-1.8,2C134.5,57.6,134.4,57.6,134.3,57.5z"/>
				<path id="XMLID_60_" class="st1" d="M140,56c0,0.3,0,2.9,0,2.9c0,0.5-0.2,1-0.7,1.1c-0.3,0.1-0.6,0.1-1,0.1c0,0-0.1,0-0.1-0.1
					l0-0.1c0-0.1,0.1-0.1,0.1-0.1c0.3,0,0.5-0.1,0.7-0.1c0.4-0.1,0.4-0.4,0.4-0.7c0,0,0-2.6,0-2.7L140,56z"/>
			</g>
		</g>
		<g id="XMLID_20_">
			<g id="XMLID_48_">
				<path id="XMLID_57_" class="st1" d="M83,44.3l0.4,0.9c-2.6,0.6-4.5,0.9-8.2,1c-0.2,0-0.4-0.1-0.4-0.4c0-0.2,0-0.2,0-0.4
					c0-0.2,0.1-0.3,0.3-0.3C78.5,45.1,80.6,44.8,83,44.3z"/>
				<path id="XMLID_54_" class="st1" d="M81.9,33.7c0,0-4.5,0-4.8,0c-0.9,0-1.5,0.4-1.5,1.4l0,4.5c0,1.1,0.7,1.5,1.6,1.5
					c0.6,0,4.4,0,4.4,0c1.2,0,1.6-0.6,1.6-1.4c0,0,0-4.3,0-4.7C83.2,34.3,82.7,33.7,81.9,33.7z M81.3,40c-0.5,0-3.6,0-3.9,0
					c-0.6,0-0.8-0.2-0.8-0.7c0-0.6,0-4.1,0-4.1c0-0.4,0.3-0.6,0.7-0.6c0.2,0,3.6,0,4,0c0.4,0,0.6,0.2,0.6,0.6c0,1.6,0,4,0,4.1
					C81.9,39.8,81.8,40,81.3,40z"/>
				<path id="XMLID_53_" class="st1" d="M78.7,30.9c0-0.2,0.2-0.4,0.4-0.4h0.5c0.3,0,0.4,0.2,0.4,0.4c0,0.2,0,14.1,0,14.1l-1.2,0.5
					C78.7,45.6,78.7,31.1,78.7,30.9z"/>
				<path id="XMLID_52_" class="st1" d="M84.1,46.4c0.1,0.3,0,0.5-0.2,0.6L83.5,47c-0.2,0-0.5,0.1-0.5-0.3c-0.4-1.8-0.6-2.7-1.2-4.2
					c-0.1-0.3,0-0.4,0.2-0.5l0.2-0.1c0.2-0.1,0.4,0,0.5,0.2C83.3,43.5,83.7,44.9,84.1,46.4z"/>
				<path id="XMLID_51_" class="st1" d="M84.3,43.9v-0.3c0-0.2,0.2-0.4,0.4-0.4c0.1,0,6.4,0,6.8,0c0.3,0,0.5,0.3,0.5,0.4v0.3
					c0,0.3-0.2,0.4-0.5,0.4c-0.3,0-6.6,0-6.8,0C84.5,44.3,84.3,44.1,84.3,43.9z"/>
				<path id="XMLID_50_" class="st1" d="M89.1,31.8c-0.7,0-4.4,0-4.7,0s-0.4-0.2-0.4-0.4c0-0.1,0-0.2,0-0.3c0-0.1,0.1-0.4,0.4-0.4
					c0.3,0,3.6,0,5.3,0c1.7,0,2.6,1.2,2.5,2.7l-0.4,6.2h-1.3c0,0,0.2-2.7,0.4-6.1C90.8,32.4,90.2,31.8,89.1,31.8z"/>
				<path id="XMLID_49_" class="st1" d="M92.8,45.2l0.1-3.2c0-1-0.5-1.8-1.6-1.8c-0.4,0-4.2,0-4.8,0c-1,0-1.8-0.5-1.6-2.1
					c0.1-1,0.2-3.1,0.2-4.1c0-0.3,0.2-0.5,0.4-0.5l0.4,0c0.2,0,0.4,0.2,0.4,0.5c-0.1,1-0.2,2.7-0.3,3.7c-0.1,1.1,0.2,1.3,0.9,1.3
					c0.4,0,4.5,0,4.5,0c1.5,0,2.8,1,2.8,2.7l-0.1,3.5c-0.1,1.7-0.5,3.1-3,3.4c-0.7,0.1-1.7,0-2,0c-0.3,0-0.4-0.2-0.4-0.4l0-0.2
					c0-0.2,0.1-0.3,0.4-0.3c0.4,0,1.1,0,1.8-0.2C92.6,47.3,92.7,46.2,92.8,45.2z"/>
			</g>
			<g id="XMLID_34_">
				<path id="XMLID_45_" class="st1" d="M105.2,33.6c0,0-4,0-4.4,0c-0.9,0-1.5,0.4-1.5,1.4c0,0.7,0,4.5,0,4.5c0,1.1,0.7,1.5,1.6,1.5
					c0.6,0,4,0,4,0c1.2,0,1.6-0.6,1.6-1.4c0,0,0-4.3,0-4.7C106.4,34.2,105.9,33.6,105.2,33.6z M104.6,39.9c-0.5,0-3.2,0-3.5,0
					c-0.6,0-0.7-0.2-0.7-0.7c0-0.6,0-3.6,0-4.1c0-0.4,0.3-0.6,0.7-0.6c0.2,0,3.3,0,3.7,0c0.4,0,0.6,0.2,0.6,0.6c0,1.6,0,4,0,4.1
					C105.3,39.7,105.1,39.9,104.6,39.9z"/>
				<path id="XMLID_44_" class="st1" d="M102.2,30.7c0-0.2,0.2-0.4,0.4-0.4h0.4c0.3,0,0.4,0.2,0.4,0.4c0,0.2,0,14.8,0,14.8l-1.2-0.1
					C102.2,45.4,102.2,30.9,102.2,30.7z"/>
				<path id="XMLID_43_" class="st1" d="M107.3,46.2c0.1,0.3,0,0.5-0.2,0.6l-0.3,0.1c-0.2,0-0.5,0.1-0.5-0.3
					c-0.3-1.8-0.6-2.7-1.1-4.2c-0.1-0.3,0-0.4,0.2-0.5l0.2-0.1c0.2-0.1,0.4,0,0.5,0.2C106.6,43.3,107,44.7,107.3,46.2z"/>
				<path id="XMLID_42_" class="st1" d="M106.3,44.1l0.4,0.9c-2.6,0.6-4.5,0.9-8.2,1c-0.2,0-0.4-0.1-0.4-0.4c0-0.2,0-0.2,0-0.4
					c0-0.2,0.1-0.3,0.3-0.3C101.9,44.9,103.9,44.7,106.3,44.1z"/>
				<path id="XMLID_41_" class="st1" d="M108,40.1c0-0.2,0-0.2,0-0.3c0-0.2,0.2-0.3,0.4-0.3c0.1,0,9.2,0,9.5,0
					c0.3,0,0.5,0.2,0.5,0.4c0,0.1,0,0,0,0.3c0,0.3-0.2,0.4-0.5,0.4c-0.3,0-9.3,0-9.5,0S108,40.3,108,40.1z"/>
				<path id="XMLID_40_" class="st1" d="M112.8,37.9c0.2,0,0.3,0,0.5,0c0.2,0,0.4,0.2,0.4,0.4c0,0.1,0,9.6,0,10
					c0,0.4-0.2,0.5-0.4,0.5c-0.2,0-0.2,0-0.4,0s-0.4-0.2-0.4-0.5c0-0.3,0-9.7,0-10S112.6,37.9,112.8,37.9z"/>
				<path id="XMLID_39_" class="st1" d="M107.6,45.6c0-0.2,0-0.2,0-0.4c0-0.2,0.2-0.3,0.4-0.3c0.1,0,10,0,10.4,0
					c0.3,0,0.5,0.2,0.5,0.4c0,0.1,0,0,0,0.3s-0.2,0.4-0.5,0.4c-0.3,0-10.2,0-10.4,0C107.7,46,107.6,45.8,107.6,45.6z"/>
				<path id="XMLID_38_" class="st1" d="M108.6,42.8c0-0.2,0-0.2,0-0.4c0-0.2,0.2-0.3,0.4-0.3c0.1,0,8.1,0,8.4,0
					c0.3,0,0.5,0.2,0.5,0.4c0,0.1,0,0,0,0.3c0,0.2-0.2,0.4-0.5,0.4c-0.3,0-8.2,0-8.4,0C108.7,43.2,108.6,43,108.6,42.8z"/>
				<path id="XMLID_37_" class="st1" d="M116.3,31c1.3,0,1.6,1,1,1.9c-2.2,3.4-5.4,4.4-9.7,5.2c-0.2,0-0.5,0-0.6-0.3
					c-0.1-0.3,0.1-0.5,0.3-0.5c3.6-0.8,6.7-1.8,8.6-4.7c0.3-0.5,0.1-0.7-0.3-0.7l-6.3,0l0.5-1C109.9,31,115.6,31,116.3,31z"/>
				<path id="XMLID_36_" class="st1" d="M107.8,33.9c-0.1-0.1-0.2-0.4,0-0.5c1.1-1.3,1.4-1.7,1.9-3.2c0-0.1,0.2-0.3,0.4-0.3l0.7,0
					c0.2,0,0.3,0.2,0.2,0.4c-0.6,1.6-1.4,2.9-2.5,3.6C108.3,34,108.1,34,107.8,33.9z"/>
				<path id="XMLID_35_" class="st1" d="M109.8,34c-0.1-0.1-0.1-0.4,0.1-0.6c0.2-0.2,0.4-0.2,0.6,0c2.8,2.7,4.7,3.2,8.5,3.9
					c0.1,0,0.3,0.1,0.2,0.4l-0.1,0.5c0,0.2-0.2,0.2-0.4,0.2C114.1,37.5,111.9,36.3,109.8,34z"/>
			</g>
			<g id="XMLID_21_">
				<path id="XMLID_31_" class="st1" d="M125.9,37.2l0,1.3c0,0.7,0.5,1.3,1.5,1.3c0.8,0,9.7,0,9.7,0c1.1,0,1.5-0.7,1.5-1.6
					c0,0,0-0.5,0-1c0-0.7-0.5-1.3-1.4-1.3c0,0-9.3,0-9.8,0C126.6,35.8,125.9,36.4,125.9,37.2z M136.8,38.7c-0.3,0-8.6,0-9,0
					c-0.4,0-0.5-0.1-0.5-0.5v-0.9c0-0.2,0.2-0.4,0.5-0.4c0.3,0,8.7,0,9,0c0.3,0,0.5,0.3,0.5,0.5c0,0.1,0,0.2,0,0.7
					C137.3,38.4,137.1,38.7,136.8,38.7z"/>
				<path id="XMLID_30_" class="st1" d="M124,35.2c-0.1-0.3,0.2-0.5,0.4-0.5c2.4-0.5,3.9-0.8,5.7-1.7c0.1-0.1,0.4-0.2,0.6,0l0.3,0.4
					c0.2,0.3-0.1,0.4-0.3,0.5c-1.9,0.8-3.7,1.3-6.1,1.6C124.4,35.5,124.1,35.5,124,35.2z"/>
				<path id="XMLID_29_" class="st1" d="M140.5,35.2c0-0.3-0.2-0.4-0.3-0.5c-2.2-0.3-4-0.8-5.7-1.7c-0.1-0.1-0.4-0.2-0.6,0l-0.3,0.4
					c-0.2,0.3,0.1,0.4,0.3,0.5c2,0.9,3.8,1.3,6.1,1.6C140.2,35.5,140.5,35.5,140.5,35.2z"/>
				<path id="XMLID_28_" class="st1" d="M123.6,33c0-0.9,0.7-1.7,1.8-1.7c0.4,0,13.3,0,13.8,0c1.2,0,2,0.6,2,1.8c0,0,0,0.3,0,0.4
					c0,0.3-0.2,0.5-0.5,0.5l-0.3,0c-0.2,0-0.5-0.2-0.5-0.5c0-0.2,0-0.1,0-0.1c0-0.7-0.5-1.1-1.3-1.1c0,0-12.4,0-12.7,0
					c-0.6,0-1.1,0.3-1.1,1.1c0,0,0-0.1,0,0.1c0,0.3-0.2,0.5-0.5,0.5l-0.3,0c-0.2,0-0.5-0.1-0.5-0.5C123.6,33.3,123.6,33,123.6,33z"
					/>
				<path id="XMLID_25_" class="st1" d="M123.7,43.8c0-1.4,0.6-2.5,2.5-2.5c1.2,0,11.6,0,12.4,0c1.4,0,2.3,1.1,2.3,2.3v2.3
					c0,1.5-0.4,2.5-1.9,2.9c-0.8,0.2-1.7,0.3-2.7,0.3c-0.2,0-0.4-0.1-0.4-0.3v-0.2c0-0.2,0.1-0.3,0.3-0.3c0.7-0.1,1.5-0.1,2.1-0.3
					c1-0.3,1.2-1.1,1.2-2c0,0,0-1.6,0-2c0-0.8-0.6-1.5-1.4-1.5c0,0-11.3,0-11.7,0c-0.8,0-1.4,0.5-1.4,1.4c0,0.3,0,4.4,0,4.6
					c0,0.2-0.2,0.5-0.5,0.5c-0.2,0-0.2,0-0.4,0c-0.2,0-0.5-0.2-0.5-0.5V43.8z"/>
				<path id="XMLID_24_" class="st1" d="M132.8,40.8c0,3.2-1.4,4.9-5.8,5.9c-0.1,0-0.4,0.1-0.5-0.3c-0.1-0.3,0.1-0.5,0.3-0.6
					c3.9-1.2,4.8-2.3,4.8-5v-1.5h1.3L132.8,40.8z"/>
				<path id="XMLID_23_" class="st1" d="M132.9,43.9c0.1-0.3,0.5-0.3,0.6-0.2c1.9,0.6,2.8,1.1,4.5,2c0.2,0.1,0.3,0.3,0.2,0.5
					l-0.3,0.5c-0.1,0.2-0.4,0.1-0.5,0.1c-1.6-1.1-2.5-1.6-4.2-2.3C132.9,44.4,132.8,44.2,132.9,43.9z"/>
				<path id="XMLID_22_" class="st1" d="M132.8,30.3c-0.1-0.3-0.2-0.3-0.5-0.3h-0.5c-0.2,0-0.4,0.1-0.4,0.4c0.2,0.8,0.3,1.4,0.3,1.4
					l1.3,0.1C133.1,31.8,132.9,30.8,132.8,30.3z"/>
			</g>
		</g>
	</g>
	<g id="XMLID_17_">
		<path id="XMLID_18_" class="st1" d="M57.8,52.4c-0.8,0-1.5-0.7-1.5-1.5v-16c0-1-0.5-1.8-1.4-2.2c-0.9-0.4-1.9-0.2-2.6,0.5l-7,6.6
			c-2.1,2-5.3,2-7.4,0l-7-6.6c-0.7-0.7-1.7-0.8-2.6-0.5c-0.9,0.4-1.4,1.2-1.4,2.2v16c0,0.8-0.7,1.5-1.5,1.5c-0.8,0-1.5-0.7-1.5-1.5
			v-16c0-2.2,1.2-4.1,3.3-5c2-0.9,4.2-0.5,5.8,1l7,6.6c0.9,0.9,2.3,0.9,3.3,0l7-6.6c1.6-1.5,3.8-1.9,5.8-1c2,0.9,3.3,2.8,3.3,5v16
			C59.3,51.7,58.6,52.4,57.8,52.4z"/>
	</g>
	<g id="XMLID_15_">
		<path id="XMLID_16_" class="st1" d="M41.6,60.5c-9.8,0-16.3-2.3-16.6-2.4c-0.8-0.3-1.2-1.1-0.9-1.9c0.3-0.8,1.1-1.2,1.9-0.9
			c0.1,0,6.4,2.3,15.6,2.3c10.1,0,15.3-2.2,15.3-2.2c0.8-0.3,1.6,0,2,0.8c0.3,0.8,0,1.6-0.8,2C57.9,58.2,52.4,60.5,41.6,60.5z"/>
	</g>
</g>
</svg>
