<?xml version="1.0" encoding="utf-8"?>
<!-- Generator: Adobe Illustrator 19.0.0, SVG Export Plug-In . SVG Version: 6.00 Build 0)  -->
<svg version="1.1" id="图层_1" xmlns="http://www.w3.org/2000/svg" xmlns:xlink="http://www.w3.org/1999/xlink" x="0px" y="0px"
	 viewBox="0 0 165 90" style="enable-background:new 0 0 165 90;" xml:space="preserve">
<style type="text/css">
	.st0{fill:#FFFFFF;}
	.st1{fill:#333333;}
	.st2{fill:#333333;stroke:#FFFFFF;stroke-width:2.3625;}
	.st3{fill:none;stroke:#FFFFFF;stroke-width:2.3625;}
</style>
<rect id="XMLID_4_" x="0.2" y="0" class="st0" width="165" height="90"/>
<rect id="XMLID_7_" x="0.2" y="0" class="st0" width="165" height="90"/>
<g id="XMLID_1_">
	<ellipse id="XMLID_1135_" class="st1" cx="82.7" cy="45" rx="44.9" ry="21.5"/>
	<path id="XMLID_1134_" d="M82.7,45"/>
	<ellipse id="XMLID_1133_" class="st2" cx="82.7" cy="45" rx="42.5" ry="19.2"/>
	<path id="XMLID_1132_" class="st3" d="M83.3,45.1"/>
	<polygon id="XMLID_1131_" class="st0" points="60.9,40.6 64.1,40.6 63.3,42.8 57.1,42.8 60.6,32.6 63.6,32.6 	"/>
	<polygon id="XMLID_1130_" class="st0" points="68.4,41 67.1,42.8 64.3,42.8 71.7,32.6 74.6,32.6 75,42.8 72.2,42.8 72.1,41 	"/>
	<polygon id="XMLID_1129_" class="st0" points="79.8,32.6 82.7,32.6 83.9,38.3 83.9,38.3 85.9,32.6 88.7,32.6 85.3,42.8 82.2,42.8 
		80.9,37.6 80.9,37.6 79.2,42.8 76.4,42.8 	"/>
	<path id="XMLID_1128_" class="st0" d="M91.2,32.6h4c2.9,0,4.5,2.2,3.5,5.1c-1.1,3.4-3.1,5.1-5.9,5.1h-5L91.2,32.6z"/>
	<path id="XMLID_1127_" class="st0" d="M70.6,56h-3.3l-1.4-3.9h-0.2L64.3,56h-2.9l3.4-10.3h4.6c2,0,3.2,1,2.5,3.2
		c-0.5,1.4-1.7,2.6-3.2,2.9L70.6,56z"/>
	<path id="XMLID_1126_" class="st0" d="M82.9,51.2c-0.7,3.3-2.8,5.1-6,5.1c-3,0-4.7-2.6-3.9-5.8c0.7-3.1,3.1-5.1,5.9-5.1
		S83.8,47.6,82.9,51.2z"/>
	<polygon id="XMLID_1125_" class="st0" points="87.7,51.6 92,45.8 95.2,45.8 87.7,56 84.9,56 84.8,45.8 87.7,45.8 	"/>
	<polygon id="XMLID_1124_" class="st0" points="98.8,48 98.2,49.7 101.2,49.7 100.5,52 97.5,52 96.9,53.8 100.1,53.8 99.3,56 
		93.2,56 96.6,45.8 102.7,45.8 102,48 	"/>
	<polygon id="XMLID_1123_" class="st0" points="52.6,49.5 60.3,46.8 59.9,47.9 55.2,49.6 59.4,49.6 58.6,52 51.7,52 	"/>
	<polygon id="XMLID_1122_" class="st0" points="108.4,38.8 100.7,41.6 101.1,40.5 105.8,38.8 101.6,38.8 102.4,36.3 109.3,36.3 	"/>
	<path id="XMLID_1121_" class="st0" d="M111.1,56h-3.3l-1.4-3.9h-0.2l-1.3,3.9h-2.9l3.4-10.3h4.6c2,0,3.2,1,2.5,3.2
		c-0.5,1.4-1.7,2.6-3.2,2.9L111.1,56z"/>
	<polygon id="XMLID_1120_" points="72.1,35.7 72,35.7 69.9,39 72.1,39 	"/>
	<path id="XMLID_1119_" class="st1" d="M91.7,40.6h0.2c1.6,0,2.9-0.9,3.6-2.9c0.6-1.8,0.3-2.9-1.4-2.9h-0.4L91.7,40.6z"/>
	<path id="XMLID_1118_" class="st1" d="M66.2,50.4h0.3c0.9,0,1.9-0.2,2.3-1.3c0.4-1.1-0.2-1.3-1-1.3h-0.7L66.2,50.4z"/>
	<path id="XMLID_1117_" class="st1" d="M76.4,50.7c-0.4,1.8-0.2,3.1,0.9,3.1c1.2,0,2-1.2,2.4-3c0.3-1.4,0.1-2.8-1.1-2.8
		C77.4,48,76.7,49.1,76.4,50.7z"/>
	<path id="XMLID_1116_" class="st1" d="M106.7,50.4h0.3c0.9,0,1.9-0.2,2.3-1.3c0.4-1.1-0.2-1.3-1-1.3h-0.7L106.7,50.4z"/>
</g>
</svg>
