<?xml version="1.0" encoding="utf-8"?>
<!-- Generator: Adobe Illustrator 19.0.0, SVG Export Plug-In . SVG Version: 6.00 Build 0)  -->
<svg version="1.1" id="图层_1" xmlns="http://www.w3.org/2000/svg" xmlns:xlink="http://www.w3.org/1999/xlink" x="0px" y="0px"
	 viewBox="0 0 165 90" style="enable-background:new 0 0 165 90;" xml:space="preserve">
<style type="text/css">
	.st0{fill:#FFFFFF;}
	.st1{fill:#333333;}
</style>
<rect id="XMLID_4_" x="0.2" y="0" class="st0" width="165" height="90"/>
<rect id="XMLID_7_" x="0.2" y="0" class="st0" width="165" height="90"/>
<g id="XMLID_932_">
	<g id="XMLID_965_">
		<g id="XMLID_981_">
			<g id="XMLID_983_">
				<g id="XMLID_18_">
					<path id="XMLID_19_" class="st1" d="M52.5,36.3c0.1-0.1,0.2-0.2,0.2-0.3v-1.1c0-0.1-0.1-0.2-0.2-0.3c-0.1-0.1-0.2-0.1-0.4-0.1
						l-17.7,0l0-8c0-0.1-0.1-0.3-0.2-0.3c-0.1-0.1-0.2-0.1-0.4-0.1h-3.1c-0.1,0-0.3,0-0.4,0.1c-0.1,0.1-0.2,0.2-0.2,0.3l0,8h-1.7
						c-0.1,0-0.3,0-0.4,0.1c-0.1,0.1-0.2,0.2-0.2,0.3V36c0,0.1,0.1,0.2,0.2,0.3c0.1,0.1,0.2,0.1,0.4,0.1h1.7v9
						c0,0.1,0.1,0.3,0.2,0.3c0.1,0.1,0.2,0.1,0.4,0.1h9.1c0.2,0,0.4-0.1,0.6-0.2c0.2-0.1,0.4-0.3,0.4-0.6v-1.1
						c0-0.3-0.2-0.5-0.4-0.6c-0.2-0.1-0.4-0.2-0.6-0.2h-5.4v-6.7h5.1l6.7,8.9c0.1,0.2,0.4,0.4,0.7,0.4h5.2c0.1,0,0.2,0,0.3-0.1
						c0.1,0,0.1-0.1,0.1-0.2c0-0.1,0-0.1-0.1-0.2l0,0l-8.3-8.7l-0.1-0.1h8C52.3,36.4,52.4,36.4,52.5,36.3z"/>
				</g>
			</g>
			<path id="XMLID_946_" class="st1" d="M49.3,26.5c-0.1,0-0.2-0.1-0.3-0.1h-4.9c-0.3,0-0.5,0.1-0.7,0.3c-0.1,0-0.3,0.3-0.7,0.7
				c-1.4,1.3-4.6,4-7,6.1c0,0-0.1,0.1,0,0.1c0,0.1,0.1,0.1,0.1,0.1h3.6c0,0,0,0,0.1,0l9.9-6.8l0,0c0,0,0.1-0.1,0.1-0.2
				C49.4,26.6,49.3,26.5,49.3,26.5z"/>
		</g>
		<g id="XMLID_974_">
			<path id="XMLID_945_" class="st1" d="M110.3,28.3L110.3,28.3c0-0.1-0.1-0.2-0.2-0.3c-0.1-0.1-0.2-0.1-0.4-0.1H99.3
				c-0.1,0-0.1,0-0.1,0l0,0c0,0,0,0,0,0l1.1-1.3l0,0c0-0.1,0.1-0.1,0.1-0.2c0-0.1-0.1-0.2-0.1-0.2c-0.1,0-0.2-0.1-0.3-0.1h-3.4
				c-0.3,0-0.6,0.1-0.7,0.4l-3.3,3.9c0,0.1-0.1,0.1-0.1,0.2c0,0.1,0.1,0.2,0.1,0.2c0.1,0,0.2,0,0.2,0h3.3c0.2,0,0.6-0.1,0.8-0.1
				c0,0,0,0,0,0l0.6-0.6c0.1-0.1,0.4-0.2,0.6-0.2h11.5c0.1,0,0.3,0,0.4-0.1c0.1-0.1,0.2-0.2,0.2-0.3V28.3z"/>
			<path id="XMLID_944_" class="st1" d="M110.1,31.7c-0.1-0.1-0.2-0.1-0.4-0.1H93.3c-0.1,0-0.3,0-0.4,0.1c-0.1,0.1-0.2,0.2-0.2,0.3
				v1.1c0,0.1,0.1,0.2,0.2,0.3c0.1,0.1,0.2,0.1,0.4,0.1h16.4c0.1,0,0.3,0,0.4-0.1c0.1-0.1,0.2-0.2,0.2-0.3V32
				C110.3,31.9,110.2,31.8,110.1,31.7z"/>
			<path id="XMLID_943_" class="st1" d="M110.2,43.9c-0.1-0.1-0.2-0.1-0.4-0.1H98.5l11.4-6.6c0.2-0.1,0.4-0.3,0.4-0.6v-1.1
				c0-0.1-0.1-0.2-0.2-0.3c-0.1-0.1-0.2-0.1-0.4-0.1H93.3c-0.1,0-0.3,0-0.4,0.1c-0.1,0.1-0.2,0.2-0.2,0.3v1.1c0,0.1,0.1,0.2,0.2,0.3
				c0.1,0.1,0.2,0.1,0.4,0.1h11.1l-12.4,6.5l0,0c-0.1,0.1-0.1,0.1-0.2,0.2c0,0,0,0-0.1,0c0,0,0,0,0,0l0,0c0,0-0.1,0.1-0.1,0.1v0
				c0,0,0,0,0,0.1v1.3c0,0.1,0.1,0.2,0.2,0.3c0.1,0.1,0.2,0.1,0.4,0.1h17.5c0.1,0,0.3,0,0.4-0.1c0.1-0.1,0.2-0.2,0.2-0.3v-1.1
				C110.4,44.1,110.3,43.9,110.2,43.9z"/>
			<path id="XMLID_942_" class="st1" d="M91.2,36.3l-3.2-4.1c-0.1-0.2-0.4-0.3-0.7-0.3h-3.6c-0.1,0-0.2,0-0.3,0.1
				c-0.1,0-0.1,0.1-0.1,0.2c0,0.1,0,0.1,0.1,0.2l0,0l4.1,4.2l0,0c0.2,0.1,0.5,0.3,0.8,0.3h2.6c0.1,0,0.2,0,0.3-0.1
				c0.1,0,0.1-0.1,0.1-0.2C91.2,36.4,91.2,36.3,91.2,36.3z"/>
			<path id="XMLID_940_" class="st1" d="M92.2,31.5L92.2,31.5l-3-4.1l0,0C89,27.1,88.7,27,88.4,27h-3.6c-0.1,0-0.2,0-0.3,0.1
				c-0.1,0-0.1,0.1-0.1,0.2c0,0.1,0,0.1,0.1,0.2l0,0l4.1,4.2l0,0c0.2,0.2,0.5,0.3,0.8,0.3h2.4c0.1,0,0.2,0,0.3-0.1
				c0.1,0,0.1-0.1,0.1-0.2C92.2,31.6,92.2,31.5,92.2,31.5z"/>
			<path id="XMLID_939_" class="st1" d="M90.6,37.7c-0.1,0-0.2-0.1-0.3-0.1l0,0h-2.6c-0.1,0-0.3,0-0.4,0.1c-0.1,0.1-0.2,0.1-0.2,0.3
				l-3.5,7.1c0,0,0,0.1,0,0.1c0,0.1,0.1,0.2,0.2,0.3c0.1,0.1,0.2,0.1,0.3,0.1H88c0.3,0,0.6-0.1,0.8-0.3c0,0,0,0,0-0.1l2-7.2
				c0,0,0-0.1,0-0.1C90.8,37.9,90.7,37.8,90.6,37.7z"/>
		</g>
		<g id="XMLID_972_">
			<path id="XMLID_936_" class="st1" d="M118.2,35.4l5.7-5.4c0.1-0.1,0.4-0.2,0.6-0.2H137c0.1,0,0.3,0,0.4-0.1
				c0.1-0.1,0.2-0.2,0.2-0.3v-1.1c0-0.1-0.1-0.2-0.2-0.3c-0.1-0.1-0.2-0.1-0.4-0.1h-10.2c-0.1,0-0.1,0-0.1,0c0,0,0,0,0,0
				c0,0,0,0,0,0l1.2-1.2l0,0c0-0.1,0.1-0.1,0.1-0.2c0-0.1-0.1-0.2-0.1-0.2c-0.1,0-0.2-0.1-0.3-0.1h-4.9c-0.3,0-0.6,0.1-0.7,0.3
				l-1.1,1.2l0,0c-0.1,0.1-0.3,0.2-0.5,0.2h-6.8c-0.2,0-0.3,0-0.4,0.1c-0.1,0.1-0.2,0.2-0.2,0.3v1.1c0,0.1,0.1,0.2,0.2,0.3
				c0.1,0.1,0.2,0.1,0.4,0.1h5.7c0,0,0.1,0,0.1,0c0,0,0,0,0,0c0,0-1.4,1.4-2.8,2.8c-0.7,0.7-1.4,1.5-1.9,2c-0.3,0.3-0.5,0.5-0.6,0.7
				c-0.1,0.1-0.1,0.2-0.2,0.2c0,0,0,0-0.1,0.1c0,0,0,0,0,0.1v0V37c0,0.1,0.1,0.3,0.2,0.3c0.1,0.1,0.2,0.1,0.4,0.1h9.3
				c0.1,0,0.2,0,0.2,0.1c0.1,0,0.1,0.1,0.1,0.1v3c0,0,0,0.1-0.1,0.1c-0.1,0-0.1,0.1-0.2,0.1h-10c-0.1,0-0.3,0-0.4,0.1
				c-0.1,0.1-0.2,0.2-0.2,0.3v1.1c0,0.1,0.1,0.2,0.2,0.3c0.1,0.1,0.2,0.1,0.4,0.1h10c0.1,0,0.2,0,0.2,0.1c0.1,0,0.1,0.1,0.1,0.1v2.6
				c0,0.1,0.1,0.3,0.2,0.3c0.1,0.1,0.2,0.1,0.4,0.1h3.1c0.1,0,0.3,0,0.4-0.1c0.1-0.1,0.2-0.2,0.2-0.3v-2.6c0,0,0-0.1,0.1-0.1
				c0.1,0,0.1-0.1,0.2-0.1h8.7c0.1,0,0.3,0,0.4-0.1c0.1-0.1,0.2-0.2,0.2-0.3v-1.1c0-0.1-0.1-0.2-0.2-0.3c-0.1-0.1-0.2-0.1-0.4-0.1
				h-8.7c-0.1,0-0.2,0-0.2-0.1c-0.1,0-0.1-0.1-0.1-0.1l0-3c0,0,0-0.1,0.1-0.1c0.1,0,0.1-0.1,0.2-0.1h8.6c0.1,0,0.3,0,0.4-0.1
				c0.1-0.1,0.2-0.2,0.2-0.3v-1.2c0-0.1-0.1-0.2-0.2-0.3c-0.1-0.1-0.2-0.1-0.4-0.1h-8.6c-0.1,0-0.2,0-0.2-0.1
				c-0.1,0-0.1-0.1-0.1-0.1V32c0-0.1-0.1-0.3-0.2-0.3c-0.1-0.1-0.2-0.1-0.4-0.1h-3.1c-0.1,0-0.3,0-0.4,0.1c-0.1,0.1-0.2,0.2-0.2,0.3
				v3.2c0,0,0,0.1-0.1,0.1c-0.1,0-0.1,0.1-0.2,0.1L118.2,35.4C118.2,35.4,118.2,35.4,118.2,35.4L118.2,35.4L118.2,35.4L118.2,35.4z"
				/>
		</g>
		<g id="XMLID_966_">
			<path id="XMLID_935_" class="st1" d="M80.6,27.9c-0.1-0.1-0.2-0.1-0.4-0.1h-9.9c-0.1,0-0.2,0-0.2-0.1c-0.1,0-0.1-0.1-0.1-0.1
				v-1.1c0-0.1-0.1-0.2-0.2-0.3c-0.1-0.1-0.2-0.1-0.4-0.1h-3.1c-0.1,0-0.3,0-0.4,0.1c-0.1,0.1-0.2,0.2-0.2,0.3v1.1
				c0,0,0,0.1-0.1,0.1c-0.1,0-0.1,0.1-0.2,0.1h-9.7c-0.1,0-0.3,0-0.4,0.1c-0.1,0.1-0.2,0.2-0.2,0.3v2.9c0,0,0,0.1,0,0.1
				c0,0,0.1,0,0.1,0H59c0,0,0.1,0,0.1,0c0,0,0-0.1,0-0.1v-1.4h17.7v1.4c0,0,0,0.1,0,0.1c0,0,0.1,0,0.1,0h3.7c0,0,0.1,0,0.1,0
				c0,0,0-0.1,0-0.1v-2.9C80.7,28.1,80.7,27.9,80.6,27.9z"/>
			<g id="XMLID_967_">
				<path id="XMLID_968_" class="st1" d="M80.6,45c-0.1-0.1-0.2-0.2-0.2-0.2l0,0l-8.6-3.4l4.2-1.9c0,0,0.3-0.1,0.6-0.4
					c0.3-0.3,0.6-0.9,0.6-1.6v-2h0.5h2.5c0.1,0,0.3,0,0.4-0.1c0.1-0.1,0.2-0.2,0.2-0.3V34c0-0.1-0.1-0.2-0.2-0.3
					c-0.1-0.1-0.2-0.1-0.4-0.1h-3v-1.2c0-0.1-0.1-0.2-0.2-0.3c-0.1-0.1-0.2-0.1-0.4-0.1h-2.8c-0.1,0-0.3,0-0.4,0.1
					c-0.1,0.1-0.2,0.2-0.2,0.3v1.2H62.6v-1.2c0-0.1-0.1-0.2-0.2-0.3c-0.1-0.1-0.2-0.1-0.4-0.1h-2.8c-0.1,0-0.3,0-0.4,0.1
					c-0.1,0.1-0.2,0.2-0.2,0.3v1.2h-3c-0.1,0-0.3,0-0.4,0.1c-0.1,0.1-0.2,0.2-0.2,0.3v1.1c0,0.1,0.1,0.3,0.2,0.3
					c0.1,0.1,0.2,0.1,0.4,0.1h3v2c0,0.8,0.3,1.3,0.6,1.6c0.3,0.3,0.6,0.4,0.7,0.4l4.1,1.9l-8.5,3.4l0,0c0,0-0.1,0.1-0.2,0.2
					c-0.1,0.1-0.2,0.2-0.2,0.4c0,0.1,0.1,0.2,0.2,0.3c0.1,0.1,0.3,0.1,0.5,0.1c0.6,0,3.5,0,5.5,0c0.9,0,1.6-0.3,1.6-0.3l5-2.2
					l4.9,2.2c0,0,0.7,0.3,1.6,0.3c1.9,0,5.1,0,5.6,0c0.2,0,0.4,0,0.5-0.1c0.1,0,0.2-0.2,0.2-0.3C80.8,45.2,80.7,45.1,80.6,45z
					 M63,37.9c-0.3-0.1-0.4-0.3-0.4-0.3v-2h10.8v2c0,0.1-0.1,0.2-0.4,0.3l-5,2L63,37.9z"/>
			</g>
		</g>
	</g>
	<path id="XMLID_963_" class="st1" d="M42.8,63.9h-7.4c-1.9,0-3.4-0.6-4.7-1.9c-1.2-1.3-1.9-2.9-1.9-4.8c0-1.9,0.6-3.5,1.8-4.7
		c1.2-1.2,2.8-1.8,4.7-1.8h7.4l-1.9,3.4h-4.4c-0.9,0-1.7,0.3-2.3,0.9c-0.6,0.6-0.9,1.4-0.9,2.3c0,0.9,0.3,1.7,0.9,2.3
		c0.6,0.6,1.4,0.9,2.3,0.9h4.4L42.8,63.9z"/>
	<path id="XMLID_961_" class="st1" d="M53.3,63.9V59H48v4.9h-3.9V50.8H48v4.8h5.3v-4.8h3.9v13.2H53.3z"/>
	<path id="XMLID_957_" class="st1" d="M66.2,60.5h3.4l-2.8-6.7l-4.6,10.1h-3.8l6.3-13.2h4.3l6.7,13.2h-7.4L66.2,60.5z"/>
	<path id="XMLID_955_" class="st1" d="M112.6,60.5h3.4l-2.8-6.7l-4.6,10.1h-3.8l6.2-13.2h4.3l6.8,13.2h-7.4L112.6,60.5z"/>
	<path id="XMLID_926_" class="st1" d="M97.8,56.1l2.2,3.3h2l-0.6,1.2h-3.3c-0.9,0-1.7-0.3-2.3-0.9c-0.6-0.6-0.9-1.3-0.9-2.3
		c0-0.9,0.3-1.7,0.9-2.3c0.6-0.6,1.4-0.9,2.3-0.9h8.2l1.6-3.4h-9.8c-1.9,0-3.5,0.6-4.7,1.8c-1.2,1.2-1.8,2.8-1.8,4.7
		c0,1.9,0.6,3.5,1.9,4.8c1.2,1.3,2.8,1.9,4.7,1.9h3.6l3.7-7.9H97.8z"/>
	<path id="XMLID_950_" class="st1" d="M133.3,64l-6.6-7.3v7.2h-3.3V50.7h3.3l6.6,7.3v-7.2h3.3V64H133.3z"/>
	<path id="XMLID_938_" class="st1" d="M87,64l-6.6-7.3v7.2h-3.3V50.7h3.3L87,58v-7.2h3.3V64H87z"/>
	<line id="XMLID_922_" class="st1" x1="101.7" y1="63.9" x2="107.8" y2="50.8"/>
</g>
</svg>
