<?xml version="1.0" encoding="utf-8"?>
<!-- Generator: Adobe Illustrator 19.0.0, SVG Export Plug-In . SVG Version: 6.00 Build 0)  -->
<svg version="1.1" id="图层_1" xmlns="http://www.w3.org/2000/svg" xmlns:xlink="http://www.w3.org/1999/xlink" x="0px" y="0px"
	 viewBox="0 0 165 90" style="enable-background:new 0 0 165 90;" xml:space="preserve">
<style type="text/css">
	.st0{fill:#FFFFFF;}
	.st1{fill:none;}
	.st2{fill:#333333;}
</style>
<rect id="XMLID_4_" x="0.2" y="0" class="st0" width="165" height="90"/>
<rect id="XMLID_7_" x="0.2" y="0" class="st0" width="165" height="90"/>
<g id="XMLID_2_">
	<rect id="XMLID_3_" x="98.9" y="36.4" class="st1" width="3.2" height="2.1"/>
	<rect id="XMLID_25_" x="98.9" y="32.8" class="st1" width="3.2" height="2"/>
	<polygon id="XMLID_39_" class="st1" points="90.3,51.1 89.1,53.6 90.3,53.6 91.5,53.6 90.4,50.9 	"/>
	<rect id="XMLID_40_" x="135.4" y="33.1" class="st1" width="3.5" height="5.4"/>
	<path id="XMLID_60_" class="st1" d="M104.5,52.3C104.5,52.3,104.5,52.3,104.5,52.3c-0.4,0-0.8,0.1-1,0.4c-0.2,0.2-0.3,0.6-0.3,1.1
		c0,0.5,0.1,0.8,0.3,1.1c0.2,0.3,0.6,0.4,1,0.4c0.4,0,0.8-0.1,1-0.4c0.2-0.3,0.3-0.7,0.3-1.1c0-0.4-0.1-0.8-0.3-1
		C105.2,52.5,104.9,52.3,104.5,52.3z"/>
	<rect id="XMLID_61_" x="86.4" y="36.3" class="st1" width="1.2" height="7"/>
	<polygon id="XMLID_62_" class="st1" points="108.4,32.8 104.9,32.8 104.9,34.8 108.2,34.8 107.4,36.4 104.9,36.4 104.9,38.5 
		108.4,38.5 	"/>
	<path id="XMLID_63_" class="st1" d="M62.2,35.9c0-0.1,0-0.2,0-0.3C62.2,35.6,62.2,35.7,62.2,35.9z"/>
	<path id="XMLID_64_" class="st1" d="M62.1,36.6c0-0.1,0-0.3,0-0.4C62.2,36.4,62.2,36.5,62.1,36.6z"/>
	<path id="XMLID_65_" class="st1" d="M77.7,56.1c-0.4,0-0.7,0.1-0.9,0.4c-0.3,0.3-0.4,0.6-0.4,0.9c0,0.3,0.2,0.7,0.4,0.9
		c0.2,0.3,0.5,0.4,0.9,0.4c0.3,0,0.7-0.1,0.9-0.4h-0.3L78,57.7l-0.2-0.1l-0.1-0.1h-0.4v0.8H77v-1.8h0.8h0.4c0.1,0.1,0.1,0.1,0.2,0.2
		l0.1,0.3l-0.1,0.3c-0.1,0.1-0.2,0.2-0.4,0.2l0.3,0.3l0.3,0.5c0.2-0.3,0.3-0.6,0.3-0.9c0-0.4-0.1-0.7-0.4-0.9
		C78.4,56.3,78.1,56.1,77.7,56.1z"/>
	<polygon id="XMLID_66_" class="st1" points="145.2,33.1 141.6,33.1 141.6,38.5 145.2,38.6 	"/>
	<path id="XMLID_67_" class="st1" d="M27.4,43.9C27.4,43.9,27.4,43.9,27.4,43.9L27.4,43.9C27.4,43.9,27.4,43.9,27.4,43.9z"/>
	<rect id="XMLID_68_" x="80.1" y="32.8" class="st1" width="0.9" height="4"/>
	<polygon id="XMLID_69_" class="st1" points="78.2,57 78.2,56.8 77.8,56.7 77.2,56.7 77.2,57.3 77.8,57.3 78.1,57.3 78.2,57.2 	"/>
	<rect id="XMLID_70_" x="80.1" y="38.7" class="st1" width="0.9" height="4.3"/>
	<polygon id="XMLID_71_" class="st1" points="126.9,33.1 123.3,33.1 123.3,38.5 126.9,38.6 	"/>
	<path id="XMLID_72_" class="st1" d="M23.4,57.6c-0.3-0.1-0.7-0.3-1-0.5C22.7,57.3,23.1,57.5,23.4,57.6z"/>
	<path id="XMLID_73_" class="st1" d="M125.4,54.2c-0.3,0-0.5,0.1-0.7,0.1c-0.3,0.1-0.4,0.3-0.4,0.5c0,0.2,0.1,0.3,0.2,0.4
		c0.2,0.1,0.4,0.1,0.7,0.1c0.1,0,0.1,0,0.2,0c0.3,0,0.6-0.1,0.8-0.3c0.2-0.2,0.3-0.4,0.3-0.8v-0.1h-0.2
		C125.9,54.2,125.6,54.2,125.4,54.2z"/>
	<path id="XMLID_74_" class="st1" d="M139.3,52.1c-1,0-1.8,0.8-1.8,1.8c0,1,0.8,1.8,1.8,1.8c1,0,1.8-0.8,1.8-1.8
		C141,52.9,140.3,52.1,139.3,52.1z"/>
	<path id="XMLID_75_" class="st1" d="M111.3,54.2c-0.3,0-0.5,0.1-0.6,0.1c-0.3,0.1-0.4,0.3-0.4,0.5c0,0.2,0.1,0.3,0.2,0.4
		c0.2,0.1,0.4,0.1,0.7,0.1c0.1,0,0.1,0,0.2,0c0.3,0,0.6-0.1,0.8-0.3c0.2-0.2,0.3-0.4,0.3-0.8v-0.1h-0.1
		C111.9,54.2,111.6,54.2,111.3,54.2z"/>
	<rect id="XMLID_76_" x="117.1" y="33.1" class="st1" width="3.5" height="5.4"/>
	<path id="XMLID_77_" class="st1" d="M118.6,52.3L118.6,52.3c-0.4,0-0.8,0.1-1,0.4c-0.2,0.2-0.3,0.6-0.3,1.1c0,0.5,0.1,0.8,0.3,1.1
		c0.2,0.3,0.6,0.4,1,0.4c0,0,0,0,0,0c0.4,0,0.7-0.1,1-0.4c0.2-0.3,0.4-0.7,0.4-1.1c0-0.4-0.1-0.8-0.4-1
		C119.3,52.5,119,52.3,118.6,52.3z"/>
	<path id="XMLID_80_" class="st2" d="M148,44.4h-12.6v-3.9h10.2l2.3-2.1v-7.3h-15.3v15.3h14.5L148,44.4z M141.6,33.1h3.6v5.5
		l-3.6-0.1V33.1z M135.4,33.1h3.5v5.4h-3.5V33.1z"/>
	<path id="XMLID_84_" class="st2" d="M114.3,46.3h14.5l0.8-2H117l0.1-3.9h10.1l2.4-2.1v-7.3h-15.3V46.3z M123.3,33.1h3.6v5.5
		l-3.6-0.1V33.1z M117.1,33.1h3.5v5.4h-3.5V33.1z"/>
	<path id="XMLID_88_" class="st2" d="M111.5,44.7h-6.6v-1.4h5.4l0.8-1.8h-6.2v-1.2h3.5l2.6-2V31H96.2v9.2h5.9v1.2h-5.9v1.8h5.9v1.4
		H96v1.7h14.7L111.5,44.7z M104.9,36.4h2.5l0.8-1.7h-3.3v-2h3.5v5.7h-3.5V36.4z M102.1,38.5h-3.2v-2.1h3.2V38.5z M102.1,34.8h-3.2
		v-2h3.2V34.8z"/>
	<polygon id="XMLID_91_" class="st2" points="90.3,44.6 88.7,44.6 88.7,46.5 90.5,46.5 92.6,44.5 92.6,33 92.8,33 93.5,31 83.6,31 
		83.6,33 90.3,33 	"/>
	<path id="XMLID_94_" class="st2" d="M89.7,43.2v-8.8h-5.6V45h3.6L89.7,43.2z M87.6,43.2h-1.2v-7h1.2V43.2z"/>
	<path id="XMLID_97_" class="st2" d="M77.8,47l2.3-1.1v-1h1.3l1.9-1.9v-4.3l-1.1-0.9l1.1-0.9V31h-5.5V47z M80.1,32.8H81v4h-0.9V32.8
		z M80.1,38.7H81V43h-0.9V38.7z"/>
	<path id="XMLID_101_" class="st2" d="M77.7,55.9c-0.4,0-0.8,0.1-1.1,0.4c-0.3,0.3-0.4,0.7-0.4,1.1c-0.1,0.4,0.1,0.8,0.4,1.1
		l1.1,0.5c0.4-0.1,0.8-0.2,1.1-0.5c0.3-0.3,0.5-0.6,0.5-1.1c0-0.4-0.2-0.8-0.5-1.1C78.5,56,78.1,55.9,77.7,55.9z M78.7,58.4
		l-0.3-0.5L78,57.5c0.2-0.1,0.3-0.1,0.4-0.2l0.1-0.3l-0.1-0.3c-0.1-0.1-0.1-0.1-0.2-0.2h-0.4H77v1.8h0.2v-0.8h0.4l0.1,0.1l0.2,0.1
		l0.4,0.7H78.7c-0.3,0.3-0.6,0.4-0.9,0.4c-0.4,0-0.7-0.1-0.9-0.4c-0.3-0.2-0.4-0.6-0.4-0.9c0-0.4,0.2-0.7,0.4-0.9
		c0.2-0.3,0.5-0.4,0.9-0.4c0.3,0,0.7,0.1,0.9,0.4c0.3,0.3,0.4,0.6,0.4,0.9C79,57.8,78.9,58.1,78.7,58.4z M77.8,57.3h-0.6v-0.6h0.6
		l0.3,0.1l0.1,0.2v0.2l-0.2,0.1H77.8z"/>
	<path id="XMLID_103_" class="st2" d="M149.1,51.8c-0.2-0.3-0.6-0.4-1.1-0.4c-0.6,0-1.1,0.3-1.5,0.8c-0.1-0.3-0.3-0.5-0.5-0.6
		c-0.2-0.1-0.5-0.2-0.9-0.2c-0.3,0-0.6,0.1-0.9,0.2c-0.2,0.1-0.4,0.3-0.6,0.6v-0.7H143v4.8h0.8v-2.5c0-0.4,0.1-0.8,0.1-1
		c0.1-0.2,0.2-0.4,0.4-0.5c0.2-0.1,0.4-0.2,0.6-0.2c0.3,0,0.5,0.1,0.7,0.3c0.1,0.2,0.2,0.4,0.2,0.8v3.1h0.8v-2.8
		c0-0.5,0.1-0.8,0.3-1.1c0.2-0.2,0.5-0.3,0.8-0.3c0.2,0,0.4,0.1,0.5,0.1c0.1,0.1,0.2,0.2,0.3,0.3c0.1,0.1,0.1,0.4,0.1,0.7v3h0.8V53
		C149.5,52.5,149.3,52.1,149.1,51.8z"/>
	<path id="XMLID_106_" class="st2" d="M119.3,51.4c-0.3,0-0.5,0-0.7,0.1c-0.1,0-0.3,0.1-0.4,0.1c-0.3,0.1-0.7,0.3-0.9,0.6v-2.8h-1.8
		v5.8c0,0.2,0,0.3,0,0.5c0,0.2,0,0.4-0.1,0.6h1.8c0-0.1,0-0.3,0-0.4c0-0.1,0-0.2,0-0.4v-0.1c0.3,0.3,0.6,0.6,0.9,0.7
		c0.1,0.1,0.3,0.1,0.4,0.2c0.2,0.1,0.5,0.1,0.8,0.1c0.8,0,1.4-0.2,1.8-0.7c0.4-0.4,0.6-1.1,0.6-1.9c0-0.8-0.2-1.4-0.7-1.8
		C120.7,51.6,120.1,51.4,119.3,51.4z M119.5,54.9c-0.2,0.3-0.6,0.4-1,0.4c0,0,0,0,0,0c-0.4,0-0.7-0.1-1-0.4
		c-0.2-0.3-0.3-0.6-0.3-1.1c0-0.5,0.1-0.9,0.3-1.1c0.2-0.3,0.6-0.4,1-0.4h0c0.4,0,0.7,0.1,0.9,0.4c0.2,0.3,0.4,0.6,0.4,1
		C119.9,54.2,119.8,54.6,119.5,54.9z"/>
	<path id="XMLID_109_" class="st2" d="M90.3,49.4h-1l-3.6,6.9h2.1l0.6-1.4h1.9h1.9l0.6,1.4H95l-3.4-6.9H90.3z M90.3,53.6h-1.2
		l1.2-2.5l0.1-0.1l1.2,2.6H90.3z"/>
	<rect id="XMLID_110_" x="129.9" y="55.5" class="st2" width="0.8" height="0.7"/>
	<path id="XMLID_113_" class="st2" d="M128.2,55.6v-2.4c0-0.6-0.2-1.1-0.7-1.4c-0.4-0.3-1.1-0.4-2-0.4c-0.1,0-0.2,0-0.2,0
		c-0.8,0-1.5,0.1-1.9,0.4c-0.5,0.3-0.7,0.6-0.8,1.2h1.8c0-0.2,0.1-0.3,0.3-0.4c0.1-0.1,0.3-0.1,0.6-0.1c0.1,0,0.1,0,0.2,0
		c0.3,0,0.5,0.1,0.7,0.2c0.2,0.1,0.2,0.3,0.2,0.6c0,0,0,0,0,0.1c0,0,0,0.1,0,0.1h-0.9c-0.1,0-0.1,0-0.2,0c-0.7,0-1.1,0-1.4,0.1
		c-0.3,0.1-0.6,0.1-0.8,0.3c-0.2,0.2-0.4,0.3-0.6,0.6c-0.1,0.2-0.2,0.5-0.2,0.8c0,0.5,0.2,0.8,0.5,1.1c0.3,0.3,0.8,0.4,1.4,0.4
		c0.4,0,0.8,0,1.1-0.1c0.1,0,0.2-0.1,0.3-0.1c0.4-0.1,0.7-0.3,0.9-0.6v0.1c0,0.1,0,0.2,0,0.3c0,0.1,0.1,0.2,0.1,0.3h1.7
		c0-0.1-0.1-0.2-0.1-0.3C128.2,55.9,128.2,55.8,128.2,55.6z M126.5,54.3c0,0.4-0.1,0.6-0.3,0.8c-0.2,0.2-0.4,0.3-0.8,0.3
		c-0.1,0-0.1,0-0.2,0c-0.3,0-0.5-0.1-0.7-0.1c-0.2-0.1-0.2-0.2-0.2-0.4c0-0.2,0.1-0.4,0.4-0.5c0.2-0.1,0.4-0.1,0.7-0.1
		c0.3,0,0.6,0,0.9,0h0.2V54.3z"/>
	<rect id="XMLID_114_" x="98.3" y="51.5" class="st2" width="1.8" height="4.8"/>
	<path id="XMLID_117_" class="st2" d="M139.3,51.3c-1.4,0-2.6,1.2-2.6,2.6c0,1.4,1.2,2.6,2.6,2.6c1.4,0,2.6-1.2,2.6-2.6
		C141.9,52.4,140.7,51.3,139.3,51.3z M139.3,55.6c-1,0-1.8-0.8-1.8-1.8c0-1,0.8-1.8,1.8-1.8c1,0,1.8,0.8,1.8,1.8
		C141,54.8,140.3,55.6,139.3,55.6z"/>
	<rect id="XMLID_118_" x="95.3" y="49.4" class="st2" width="1.8" height="6.9"/>
	<rect id="XMLID_119_" x="98.2" y="49.4" class="st2" width="2" height="1.3"/>
	<path id="XMLID_122_" class="st2" d="M105.2,51.4c-0.3,0-0.5,0-0.8,0.1c-0.1,0-0.3,0.1-0.4,0.1c-0.3,0.1-0.6,0.3-0.9,0.6v-2.8h-1.8
		v5.8c0,0.2,0,0.3,0,0.5c0,0.2,0,0.4-0.1,0.6h1.8c0-0.1,0-0.3,0.1-0.4c0-0.1,0-0.2,0-0.4v-0.1c0.2,0.3,0.6,0.6,0.9,0.7
		c0.1,0.1,0.3,0.1,0.4,0.2c0.3,0.1,0.5,0.1,0.8,0.1c0.8,0,1.3-0.2,1.8-0.7c0.4-0.4,0.6-1.1,0.6-1.9c0-0.8-0.2-1.4-0.7-1.8
		C106.6,51.6,106,51.4,105.2,51.4z M105.5,54.9c-0.2,0.3-0.6,0.4-1,0.4c-0.4,0-0.7-0.1-1-0.4c-0.2-0.3-0.3-0.6-0.3-1.1
		c0-0.5,0.1-0.9,0.3-1.1c0.2-0.3,0.6-0.4,1-0.4c0,0,0,0,0,0c0.4,0,0.7,0.1,0.9,0.4c0.2,0.3,0.3,0.6,0.3,1
		C105.8,54.2,105.7,54.6,105.5,54.9z"/>
	<path id="XMLID_123_" class="st2" d="M134.3,52.1c0.4,0,0.9,0.1,1.4,0.8c0.1-0.2,0.2-0.6,0.4-0.8c-0.3-0.2-0.8-0.7-1.8-0.7
		c-1.3,0-2.6,1-2.6,2.6c0,1.5,1.3,2.6,2.6,2.6c1,0,1.5-0.5,1.8-0.7c-0.1-0.2-0.2-0.4-0.3-0.8c-0.4,0.5-0.9,0.8-1.4,0.8
		c-1,0-1.8-0.8-1.8-1.8C132.5,52.9,133.3,52.1,134.3,52.1z"/>
	<path id="XMLID_126_" class="st2" d="M114.2,55.6v-2.4c0-0.6-0.2-1.1-0.6-1.4c-0.4-0.3-1.1-0.4-2-0.4c-0.1,0-0.1,0-0.2,0
		c-0.8,0-1.4,0.1-1.9,0.4c-0.5,0.3-0.7,0.6-0.8,1.2h1.9c0-0.2,0.1-0.3,0.3-0.4c0.1-0.1,0.3-0.1,0.5-0.1c0.1,0,0.1,0,0.2,0
		c0.3,0,0.5,0.1,0.7,0.2c0.1,0.1,0.2,0.3,0.2,0.6c0,0,0,0,0,0.1c0,0,0,0.1,0,0.1h-0.9c-0.1,0-0.1,0-0.2,0c-0.6,0-1.1,0-1.4,0.1
		c-0.3,0.1-0.6,0.1-0.8,0.3c-0.2,0.2-0.4,0.3-0.6,0.6c-0.1,0.2-0.2,0.5-0.2,0.8c0,0.5,0.2,0.8,0.5,1.1c0.3,0.3,0.8,0.4,1.4,0.4
		c0.4,0,0.8,0,1.1-0.1c0.1,0,0.2-0.1,0.3-0.1c0.4-0.1,0.7-0.3,0.9-0.6v0.1c0,0.1,0,0.2,0,0.3c0,0.1,0,0.2,0.1,0.3h1.7
		c0-0.1-0.1-0.2-0.1-0.3C114.2,55.9,114.2,55.8,114.2,55.6z M112.4,54.3c0,0.4-0.1,0.6-0.3,0.8c-0.2,0.2-0.4,0.3-0.8,0.3
		c-0.1,0-0.1,0-0.2,0c-0.3,0-0.5-0.1-0.7-0.1c-0.1-0.1-0.2-0.2-0.2-0.4c0-0.2,0.2-0.4,0.4-0.5c0.2-0.1,0.4-0.1,0.6-0.1
		c0.3,0,0.6,0,0.9,0h0.1V54.3z"/>
	<path id="XMLID_129_" class="st2" d="M54.9,53.2c3.6-4.9,10.5-11.6,10.8-16.4c0.4-6.2-5.9-8.3-12.5-8.2c-4.5,0-9.3,1.4-12.4,2.5
		c-11.1,3.9-18,10.1-22.4,16.9c-4.6,6.8-3.1,13.3,6.6,13.5c7.6-0.3,12.4-2.3,17.5-5c0,0-14,4-19.2,1.1c0,0,0,0,0,0
		c-0.3-0.1-0.7-0.3-1-0.5c0.3,0.2,0.7,0.5,1,0.5c-0.6-0.3-1.2-0.7-1.3-1.9c0-2.4,4-5,6.3-5.7v-4.1c4.7,1.6,10.2,1.1,14.9-2.3
		c0.2,0.4,0.3,1,0.3,1.5h0.8c0.2-1.6-0.9-3.2-2.7-3.3c0.5,0.5,0.9,0.8,1.1,1.1c0,0.1-0.1,0.1-0.1,0.1c-6.2,4.3-12,2.3-12.6,2.1
		l3.3-3.3l-0.9-2.4c6.7-2.3,12.4-4.1,21.6-5.7l-2.1-1.7l1-0.7c5.6,1.6,9.2,2.7,9,5.5c-0.1,0.5-0.3,1.1-0.6,1.8
		c-1.6,3.2-6.4,8.5-8.3,10.7c-1.3,1.5-2.6,2.9-3.5,4.3c-0.9,1.4-1.5,2.6-1.5,3.8c0.2,9.6,28.6-4.5,34-8.2
		c-8.1,3.5-16.9,6.8-26.5,7.4C53.1,56.7,53.3,55.3,54.9,53.2z M62.2,35.9c0-0.1,0-0.2,0-0.3C62.2,35.6,62.2,35.7,62.2,35.9z
		 M27.4,43.9C27.4,43.9,27.4,43.9,27.4,43.9L27.4,43.9C27.4,43.9,27.4,43.9,27.4,43.9z M62.2,36.3c0,0.1,0,0.3,0,0.4
		C62.2,36.5,62.2,36.4,62.2,36.3z"/>
</g>
</svg>
