<?xml version="1.0" encoding="utf-8"?>
<!-- Generator: Adobe Illustrator 19.0.0, SVG Export Plug-In . SVG Version: 6.00 Build 0)  -->
<svg version="1.1" id="图层_1" xmlns="http://www.w3.org/2000/svg" xmlns:xlink="http://www.w3.org/1999/xlink" x="0px" y="0px"
	 viewBox="0 0 165 90" style="enable-background:new 0 0 165 90;" xml:space="preserve">
<style type="text/css">
	.st0{fill:#FFFFFF;}
	.st1{fill:#333333;}
	.st2{font-family:'hzgb';}
	.st3{font-size:17.5121px;}
	.st4{font-family:'HYb2gj';}
	.st5{font-size:15.2266px;}
	.st6{letter-spacing:3;}
	.st7{fill-rule:evenodd;clip-rule:evenodd;fill:#333333;}
</style>
<rect id="XMLID_4_" class="st0" width="165" height="90"/>
<g id="XMLID_1_">
	<g id="XMLID_26_">
		<text id="XMLID_11_" transform="matrix(1 0 0 1 67.5654 42.666)" class="st1 st2 st3">EXPRESS</text>
		<text id="XMLID_10_" transform="matrix(1 0 0 1 67.5654 57.8115)" class="st1 st4 st5 st6">顺</text>
		<g id="XMLID_27_">
			<path id="XMLID_9_" class="st7" d="M52.3,47.6c-1.2,0-2.2-1-2.2-2.2c0-1.2,1-2.2,2.2-2.2c1.2,0,2.2,1,2.2,2.2
				C54.5,46.6,53.5,47.6,52.3,47.6z"/>
			<path id="XMLID_8_" class="st7" d="M43.6,28.6c4.1,0,7.9,1.1,11.2,3l3.9-3c-4.3-2.9-9.5-4.6-15.1-4.6c-5.6,0-10.8,1.7-15.1,4.6
				l3.9,3C35.7,29.7,39.5,28.6,43.6,28.6z"/>
			<path id="XMLID_7_" class="st7" d="M32.4,58.4l-3.9,3c4.3,2.9,9.5,4.6,15.1,4.6c5.6,0,10.8-1.7,15.1-4.6l-3.9-3
				c-3.3,1.9-7.1,3-11.2,3C39.5,61.4,35.7,60.3,32.4,58.4z"/>
			<path id="XMLID_6_" class="st7" d="M27.2,45c0-4.1,1.1-7.9,3-11.2l-3-3.9c-2.9,4.3-4.6,9.5-4.6,15.1c0,5.6,1.7,10.8,4.6,15.1
				l3-3.9C28.3,52.9,27.2,49.1,27.2,45z"/>
			<path id="XMLID_5_" class="st7" d="M57,56.2l3,3.9c2.9-4.3,4.6-9.5,4.6-15.1c0-5.6-1.7-10.8-4.6-15.1l-3,3.9
				c1.9,3.3,3,7.1,3,11.2C60,49.1,58.9,52.9,57,56.2z"/>
			<path id="XMLID_12_" class="st7" d="M36.8,55.1c-2.2,0-4-0.6-5.7-1.8l-0.1,0v-0.1v-3.7v-0.4l0.3,0.3c0.5,0.6,2.3,2.4,5.2,2.4
				c2.3,0,2.5-1.7,2.5-2.4c0-1.4-1.5-2.3-3.2-3.1l-0.1-0.1c-2.2-1-4.7-2.2-4.7-5.4c0-2.9,2.4-5,5.7-5.2c0.2,0,0.3,0,0.4,0
				c2.9,0,4.3,1.1,4.6,1.3l0.1,0l0,0.1v3.1v0.3l-0.2-0.2c-1-0.9-2.7-1.5-4.2-1.5c-0.7,0-1.3,0.1-1.8,0.3c-0.7,0.3-1,0.9-1,1.6
				c0,1,1.2,1.6,2.6,2.3l0.2,0.1c1.9,1,5.1,2.6,5.1,6.3c0,1.5-0.7,3.1-1.7,4C39.9,54.6,38.4,55.1,36.8,55.1z"/>
			<path id="XMLID_13_" class="st7" d="M48.2,55.2H48h-3.3h-0.1v-0.1V37v-0.1l0.1,0c0.1-0.1,3.1-1.2,6.3-1.2c3.4,0,5.1,1.3,5.2,1.3
				l0.1,0v0.1v3.2v0.3l-0.2-0.2c-0.3-0.2-1.8-1.3-4.6-1.3c-0.1,0-0.1,0-0.2,0c-1.4,0-2.4,0.3-2.9,0.5l-0.1,0v0.1l0,15.4L48.2,55.2z"
				/>
		</g>
		<text id="XMLID_18_" transform="matrix(1 0 0 1 123.8363 57.8115)" class="st1 st4 st5 st6">运</text>
		<text id="XMLID_19_" transform="matrix(1 0 0 1 86.3571 57.8115)" class="st1 st4 st5 st6">丰</text>
		<text id="XMLID_20_" transform="matrix(1 0 0 1 105.2217 58.001)" class="st1 st4 st5 st6">速</text>
	</g>
</g>
</svg>
