<svg id="图层_1" data-name="图层 1" xmlns="http://www.w3.org/2000/svg" viewBox="0 0 165 90"><defs><style>.cls-1{fill:#fff;}.cls-2{fill:#333;}</style></defs><title>黄太吉</title><rect id="_路径_" data-name="&lt;路径&gt;" class="cls-1" width="165" height="90"/><path class="cls-2" d="M51.72,35.19H29.41a3,3,0,0,0-3,3V54.81h3.76V39.31a0.9,0.9,0,0,1,.9-0.9h8v16.4h3.76V38.41h8a0.9,0.9,0,0,1,.9.9v15.5h3.76V38.14a3,3,0,0,0-3-3H51.72Z"/><path class="cls-2" d="M80.75,38.68V35.19h-18a3.49,3.49,0,0,0-3.49,3.49V51.32a3.49,3.49,0,0,0,3.49,3.49h18V51.59H64.89a1.34,1.34,0,0,1-1.34-1.34V47H80.21V43.25H63.55V40a1.34,1.34,0,0,1,1.34-1.34H80.75Z"/><rect class="cls-2" x="84.65" y="35.19" width="4.26" height="19.62"/><path class="cls-2" d="M111.55,35.19H93.12v3.23h15.35a0.26,0.26,0,0,1,.16.46L92.84,51.51a1.63,1.63,0,0,0-.41,2.06l0.14,0.26a1.89,1.89,0,0,0,1.66,1h19.58V51.59H98.35a0.26,0.26,0,0,1-.17-0.46l14.7-12.27a1.72,1.72,0,0,0,.32-2.29l-0.52-.77A1.37,1.37,0,0,0,111.55,35.19Z"/><path class="cls-2" d="M134,35.19V50.51a1.08,1.08,0,0,1-1.08,1.08H122.42a1.34,1.34,0,0,1-1.34-1.34V35.19h-4.3v16.4A3.23,3.23,0,0,0,120,54.81h15.32a3.23,3.23,0,0,0,3.23-3.23V35.19H134Z"/></svg>