<?xml version="1.0" encoding="utf-8"?>
<!-- Generator: Adobe Illustrator 19.0.0, SVG Export Plug-In . SVG Version: 6.00 Build 0)  -->
<svg version="1.1" id="图层_1" xmlns="http://www.w3.org/2000/svg" xmlns:xlink="http://www.w3.org/1999/xlink" x="0px" y="0px"
	 viewBox="0 0 165 90" style="enable-background:new 0 0 165 90;" xml:space="preserve">
<style type="text/css">
	.st0{fill:#FFFFFF;}
	.st1{fill-rule:evenodd;clip-rule:evenodd;fill:#333333;}
</style>
<rect id="XMLID_4_" class="st0" width="165" height="90"/>
<g id="XMLID_38_">
	<g id="XMLID_153_">
		<path id="XMLID_154_" class="st1" d="M138,34.4V31h-15.1v-3.4h-5V31h-14v3.4h14V40h-13.5v3.4h32.5V40h-14v-5.6H138z M104.4,61.8
			h32.5V48.4h-32.5V61.8z M108.8,52.3h23.5v5.6h-23.5V52.3z M60.1,59V42.8H45.5v-3.4h-3.9v3.4h-14V59h2.4L27,61.8h6.5l2.9-2.8h14.7
			l3.5,3.4h6.5L57.7,59H60.1z M41.6,55.6H31.5v-3.4h10.1V55.6z M41.6,48.9H31.5v-2.8h10.1V48.9z M56.2,55.6H45.5v-3.4h10.6V55.6z
			 M56.2,48.9H45.5v-2.8h10.6V48.9z M53.4,32.7h6.7v-3.4h-6.7v-2.2h-3.9v2.2H39.3v-2.2h-3.9v2.2h-7.8v3.4h7.8v3.4H27v3.3h34.2v-3.3
			h-7.9V32.7z M49.4,36.1H39.3v-3.4h10.1V36.1z M85.1,39.4h14.2v-3.9H85.1v-8.4h-4.9c0,0,0.1,3.9-0.2,8.4H65.1v3.9h14.5
			c-0.5,3.6-1.3,7-2.8,8.8c-3.9,4.9-12.3,8.9-12.3,8.9v5.7c0,0,15.1-6.3,18.1-15.4c0,0,8.1,13.5,17.2,15.4v-5.7
			C99.9,57.2,85.2,51.3,85.1,39.4z M79.1,53.4l1.6,8.9h5.7L84,53.4H79.1z"/>
	</g>
</g>
</svg>
