<?xml version="1.0" encoding="utf-8"?>
<!-- Generator: Adobe Illustrator 19.0.0, SVG Export Plug-In . SVG Version: 6.00 Build 0)  -->
<svg version="1.1" id="图层_1" xmlns="http://www.w3.org/2000/svg" xmlns:xlink="http://www.w3.org/1999/xlink" x="0px" y="0px"
	 viewBox="0 0 320 320" style="enable-background:new 0 0 320 320;" xml:space="preserve">
<style type="text/css">
	.st0{fill:#EC122B;}
</style>
<path class="st0" d="M135.3,105.9c-30.2,11.1-46.3,31.9-42.1,64.4c3.2,25.1,19.4,40.3,43.6,47.1c-19.4,1.8-35.7-4.8-47.7-20
	c-14.9-18.9-17.2-39.9-6.4-61.3C93.5,114.9,111.6,105.3,135.3,105.9z"/>
<path class="st0" d="M106.9,192.6c-17.6-20.2-14.1-52.7,7.4-69.3c20.5-15.9,51.6-12.2,65.4,7.7c-1.1,1.3-2,0.4-2.9-0.2
	c-18.9-11.4-40.9-7.9-54.9,4.1c-15.9,13.6-21,33.7-14,54.8c0.2,0.5,0.2,1,0.3,1.5C108.6,192.5,108,192.8,106.9,192.6z"/>
<path class="st0" d="M186.1,184.4c0.5-19-6.3-33.3-22.8-40.9c-20.8-9.6-38-2.6-52.1,14.6c3.1-13.6,11.5-22.8,24.2-27.3
	c15.9-5.6,30.6-2.5,42.7,9.6C189.4,151.7,192.2,169.8,186.1,184.4z"/>
<path class="st0" d="M106.9,192.6c0.4-0.4,0.8-0.9,1.3-1.3c0.7,1.2,1.3,2.4,2.4,4.4C108.2,194.8,107.5,193.8,106.9,192.6z"/>
<path class="st0" d="M229.9,253.2L229.9,253.2C229.9,253.2,229.9,253.2,229.9,253.2C229.9,253.2,230,253.2,229.9,253.2L229.9,253.2
	L229.9,253.2z"/>
<path class="st0" d="M230,253.2C230,253.2,230,253.1,230,253.2C230,253.1,229.9,253.1,230,253.2L230,253.2z"/>
<polygon class="st0" points="229.9,253.2 230,253.2 229.9,253.2 "/>
<path class="st0" d="M179.3,181.7c-4.3-1.9-5-2.1-7.1-1.9c-2.1,0.2-7.7-0.4-8.3-0.4c-0.6,0-0.9-0.3,0.4-0.7c1.3-0.5,1.9-1.7,2.3-2.4
	c0.4-0.7,1.1-2.1,3.2-2.1c2.1,0,3.9,0.4,3.9-1.2c0-1.6-0.1-2.1-1.3-2.8c-1.2-0.7-2.2-0.1-1.6-1.6c0.6-1.4,1.6-4.1,1.6-6.4
	s0.2-3.6-4.7-4c-4.8-0.4-5.1,0-5.1,0s0.1,1.2,0.1,1.9c0,0.7-1.9,1.8-3.2,2.5c-1.3,0.7-3.2,0.8-1.6,1.9c1.6,1.1,3.5,2,4,2.5
	c0.5,0.5-0.1,1.6-0.3,2.1c-0.2,0.5-0.9,1.1-2.8,1.1c-1.9,0-2.4-0.2-2.4-0.2l-0.4-0.5c0,0-2.5-0.1-3.5-0.1c-1,0,0.3,1.2,0.6,1.5
	c0.3,0.3-0.1,0.7-0.5,0.3s-1.1-0.6-1.6-0.6c-0.4,0-0.6-0.8-0.3-1.7c0.3-0.9,0.3-2,1.6-2.3c1.2-0.3,3.1-0.9,3.5-1.3
	c0.5-0.5,0.7-1.3,0.7-2.7c0-1.4-1.2-1.4-2.4-1.4s-2.8,0.6-3.9,0.6c-1.1,0-1.7-0.6-2.7-1c-1.1-0.4-3.4-1-3.8-1c-1.2,0-1.6,0-1.6,0
	s0.2,1.4,0.8,2.8c0.6,1.4,0.8,4.5,0,6.4c-0.8,1.9-4.3,5.5-5,6.2c-0.7,0.7-0.6,0.7,0.4,1.7c1,1,2.5,2,3.2,2s0.4,0.6,0.4,1.3
	c0,0.7-0.2,3.9-0.2,4.5c0,0.6,0.3,1.7,1.6,0.9c1.4-0.8,1.9-1.3,2.5-1.6c0.6-0.3,0.8-0.2,1-0.2c0.2,0-0.1,0.6-0.9,1.7
	c-0.8,1-12.7,16.1-16.9,18.8c-4.2,2.8-0.6,5.3,1.1,4.3c1.8-1,4.7-2.4,7.3-5.6c2.7-3.2,5.8-6.7,7-8.4s1.9-3.2,1.9-3.2
	s0.8,0.7,0.8,1.6c0,0.9-0.1,17.5-0.5,18.9c-0.5,1.4-1.4,1.2-2.2,1.5s1.2,3.1,1.6,3.9c0.3,0.8,1.9,1.5,2.9,1.5s5.4-1.5,9.2-2.7
	c3.7-1.2,6.5-4.1,7-4.1c0.5,0,4.5,2.1,5.7,2.8c1.2,0.6,1.9,1,3.5,1c1.7,0,2.6-0.5,2.6-0.5s0.5-1.8-0.6-3.4c-1.2-1.6-1.2-1.4-3.5-2.6
	c-0.6-0.3-5.4-2-5.4-2l-0.1-4.6c0,0,2.5-1.2,3.6-2c1.2-0.8,1.4-1.7,1.4-2.9s0.2-2.2-2.1-3.3c-2.3-1.1-2.4-0.5-3,0.4
	c-0.6,0.9-2.5,3.2-3.4,4c-0.8,0.8-1.5,1.3-1,0c0.5-1.3,1.2-5.1,1.8-5.7c0.7-0.7,1.1-1.3,1.1-2.9c0-1.7-1.4-4-2.8-4.8
	c-1.3-0.9-1.6,0.3-2,0.3c-0.4,0-0.1-1.1-0.1-1.8s-1-1.2-1.6-1.2c-0.5,0,1.1-0.6,2.4-0.3c1.3,0.3,7.7,1.6,10.8,2.7
	c3.1,1.1,5.7,2.7,7.1,2.7s2.9-1,2.9-2C182.7,185.1,183.7,183.6,179.3,181.7z M146.6,178.5c-0.4,0-0.6,0.2-1.3-0.5
	c-0.7-0.7-0.1-1.3,0.6-1.5c0.7-0.2,1.8-1.8,2.2-2.2c0,0,0.3-0.1,0.3,0.3c0,0.4-0.6,1.7-0.9,2.4C147.4,177.8,147.1,178.5,146.6,178.5
	z M148.5,189.1c0.4,0,0.7-1.3,1.3-2.4c0.6-1.1,1.6-3.4,2.3-4.1c0.2-0.2,2,1.7,1.9,2.2c-0.1,0.9-0.4,0.8-1.3,1.8
	c-0.9,0.9-1.7,1.9-1.7,2.2c0,0.4-1,0.8-1.8,0.8S148.1,189.1,148.5,189.1z M153.9,197.9c0,0.5-0.4,0.8-0.7,1.4
	c-0.3,0.6-0.4,1.5,0,1.1c0.4-0.4,1.2-0.9,1.5-1.3c0.4-0.4,0.7-1,1.3-1.3c0.6-0.3,0.9-0.4,0.4,0.6c-0.6,1-0.9,1.2-2,1.8
	c-1.1,0.6-1.9,1.6-2.5,2.2c-0.6,0.6-0.9,0.1-0.7-0.8c0.2-0.9,0-2.7,0.4-3.1c0.4-0.4,0.7-1.7,1-2.4c0,0,0,0,0.6-0.2
	c0.6-0.2,0.4,0.2,0.4,0.7C153.6,197.3,153.9,197.4,153.9,197.9z M156.6,210.2c-1.3,0.4-2.4,1.4-4,1.6c-1.6,0.2-1.9,0.3-1.9,0
	s-0.3-4.6,0-4.9c0.3-0.3,2.2,0.4,3.7,1.4c1.4,1,2.4,1.3,2.8,1.3C157.7,209.7,157.9,209.8,156.6,210.2z M157.3,193.2
	c-0.2,0.2-0.5,1-0.7,1.2c-0.2,0.2-0.4-1.2-0.7-1.4s-1-0.5-0.7-0.5c0.3,0,0.7-0.7,1.3-1.3c0,0,1-0.2,1,0.3S157.6,193,157.3,193.2z
	 M157.6,175.7c-0.5,0-0.7,0.7-1.3,1.3c-0.6,0.6-1.8,0.5-2.2,0c-0.5-0.5-1.3-1.4-0.7-1.4c0.5,0,1.1-1.1,1.6-1.6c0,0,1-1,1.5-0.5
	c0.5,0.5,1,0.6,1.6,1.1C158.6,175.2,158.1,175.7,157.6,175.7z M160.7,205.7c0.6,0,2-1,2.6-1.2c0,0,1,0.4,0.6,0.4s-0.6,0.5-0.6,0.9
	c0,0.4-0.7,0.3-2,0.3C160,206.1,160.1,205.7,160.7,205.7z"/>
<path class="st0" d="M195,191.9c-1-1-1.7-1.6-2.5-1.6c-0.8,0-1.7,1.4-2.5,2.8c-0.8,1.3-1.6,2.6-1.9,2.9c-0.3,0.3,0,2.4,0,3
	c0,0.6,1.5,0.8,2,0.8c0.5,0,0.5,0.2,0.2,0.9s-3.6,6-4.3,7.3c-0.7,1.3-1,2.3-0.3,3.1s1.1,0.9,1.8,0.6c0.6-0.3,1.8-0.9,2.2-1.7
	s1.5-2,1.7-2.2c0.2-0.2,0.4,0.1,0.2,0.7c-0.2,0.7-0.5,1.6-0.5,2.9s0.5,2.1,0.7,2.8c0.2,0.6,0.7,0.7,1.2,0.7c0.5,0,0.8-0.9,0.8-2.6
	c0-0.7-0.2-1.8-0.2-2.9c0-1.2,0-2.5-0.3-2.8s-0.8-0.6-0.8-1s0.1-1.1,0.8-0.4s1.4,1.1,2.4,1.1s2.4-0.7,3.4-1.4s1.2-0.9,1.6-0.9
	s1.2-0.2,1.2,0.3c0,0.5,0,7,0,8c0,1,0.1,1.5-0.7,1.8c-0.8,0.4-1.9,0.2-2.3,0.2s0,1.1,0.1,1.2c0.1,0.1,1.8,0.9,3.1,0.9
	c1.2,0,3-0.4,3.5-1.2c0.5-0.8,0.8-2,0.8-2.4s-0.5-0.5-0.5-0.8s-0.1-9.2-0.1-9.5s0.1-0.4,1.9-0.6c1.8-0.2,3.5-0.1,3.7-0.7
	c0.2-0.6,0.7-3.1-1.9-3.1s-4.9,0.2-5.1,0.2s-0.3-0.3-0.3-0.6s-0.4-0.2-0.9,0c-0.4,0.2-1,1-1,1.4s-0.8,0.8-2.7,1.3
	c-1.9,0.4-3.9,1.4-4.5,2s-0.7,0.6-1,0.8c-0.2,0.2-0.4-0.4-0.2-0.9c0.2-0.4,0.5-0.5,0.9-1c0.4-0.4,0-1.4,0-1.7c0-0.2-1.3-1.4-1.6-1.4
	s-0.8,0.2-0.8,0s0.3-0.7,1-1.1s1.8-1.4,2.5-1.7c0.6-0.3,0.4-1.4,0.1-2.1S195,191.9,195,191.9z"/>
<path class="st0" d="M202.3,191.1c-1.4,0.7-3,1.5-3.7,2.3s0.1,1.7,0.5,2.1c0.4,0.4,0.8,0.2,0.8,0.6s-0.2,0.8-0.4,0.8
	c-0.2,0,0.2,0.4,1,0.4c0.8,0,3.8-0.7,5.2-2.1s0.7-3,0.7-3.4s-1-1.5-2-1.5C203.5,190.3,202.3,191.1,202.3,191.1z"/>
<path class="st0" d="M241.5,213.8c-2.1,0-5.1-0.8-5.5-0.8s-0.3-1.2-0.3-2.4c0-1.2,0.1-2.1,0.1-2.3s0.6,0,1-0.4
	c0.4-0.4,1.3-1.1,1.3-1.6c0-0.5,0.2-1.8-0.3-1.8c-0.5,0-1.5,0.3-1.8,0.3c-0.3,0-0.8-0.3-0.1-0.6c0.7-0.3,1.7-0.6,1.9-1.1
	c0.2-0.6,0.8-2,0-2c-0.8,0-1.4-0.1-1.8,0.3c-0.3,0.3-0.6-0.7,0.2-1.1c0.7-0.4,1.4-0.6,1.7-1.3c0.3-0.7,0.2-1.1,0.2-1.7
	c0-0.6,0.2-1,0.5-1.2c0.3-0.3,0.4,0,1-0.2c0.7-0.2,1.3-0.4,1.3-1c0-0.6,0.1-1.4-0.7-1.4c-0.8,0-0.8,0.1-0.8-0.4
	c0-0.5-0.2-1.3-1.1-1.7c-0.9-0.4-1.8-0.4-2.1-0.7c-0.3-0.3-0.4-0.8-0.7-1c-0.2-0.2-1.4-0.3-1.7-0.3s-0.2,1.7-0.2,1.9
	c0,0.2-1.6-0.2-1.8,0c-0.2,0.2-1,1.2,0,2.2c1,1,1.7,0.9,1.8,1.1s0.5,0.4-0.4,0.4s-1.6,0.3-2.2,0.6s-1.3,0.8-1.6,0.8s-0.6-0.6-0.9-1
	s-1-0.2-1.3-0.2s-1.5,1.3-1.8,1.7c-0.4,0.4-0.6,0.8-0.7,0.8c-0.2,0-0.8,0-0.2-0.6s1-1.4,1-2.5s-0.6-2.4-1.3-2.8
	c-0.7-0.4-1.6-0.3-1.6-0.3c-0.2,0-0.6,0.5-1.3,1.6s-3.8,6.5-4.4,7.9c-0.6,1.4-0.2,3.4-0.2,4.1s0.5,0.6,1.3,0.6s0.9-0.8,1.3-0.8
	s0.3,0,0.3,0.8s0.2,8.2,0.2,8.8c0,0.6,0.4,0.9,1,0.9c0.6,0,1.5-0.1,1.5-0.5s0.1-1.1,0.4-0.9s0.1,0.8,1.4,0.8c1.3,0,2.4,0.2,2.9-0.7
	c0.5-0.9,0.7-0.8,1.3-0.8c0.6,0,3.8,1.9,5.9,2.9c2.1,0.9,3.3,1.6,3.7,1.6s2.9-0.7,4.5-1.7s1.6-1.3,1.6-1.8S243.6,213.8,241.5,213.8z
	 M236.6,192.7c0,0,0.3,0.1,0.3,0.2c0,0.1-0.1,0.1-0.3,0.2c-0.2,0.1-0.2-0.1-0.2-0.2C236.4,192.8,236.5,192.7,236.6,192.7z
	 M225.7,212.1c-0.3,0.3-1,0.5-1.8,0.5s-1.1-0.6-1.1-1.3s0-2,0.3-2c0.2,0,0.4,0.6,0.7,0.6c0.3,0,0.6,0.3,1.3,1
	C225.6,211.3,226,211.8,225.7,212.1z M226.8,208.6c-0.2-0.2-1.6-0.3-2.4-0.8c-0.8-0.5-1.9-1.1-2.2-1.3s-0.6-1.4-0.9-1.9
	c-0.2-0.5-0.5-0.4-0.9-0.4s-0.2-1.4-0.2-1.4s0.3-0.4,0.7-0.8c0.4-0.4,1-0.9,1-1.2s0.4-1.4,1.1-1.4c0.2,0,0.4,0.3,0.7,0.6
	c0.3,0.3,0.8,0.7,0.8,1.3c0,0.6,0.3,2,0,2.4c-0.3,0.3-0.6,0.3-0.6,1s0.3,0.9,0.6,1.3c0.3,0.3,0.3,1.1,0.7,1.1c0.4,0,0.8-0.7,1.3-1.3
	c0.6-0.6,0.6-0.4,0.6,0.4S227,208.8,226.8,208.6z M233.6,198c-0.2,0.2-0.3,0.6-0.6,1c-0.4,0.4-1,1-1.8,1.3c-0.8,0.3-0.6,0.8-0.6,1.4
	c0,0.6,0.2,0.6,0.7,0.6s0.5,0.1,0.5,0.3c0,0.2,0,0.7-0.2,0.9c-0.3,0.3-0.6,0.1-0.6,0.4c0,0.3,0.1,1,0.1,1.3s0.3,0.2,1,0
	c0.6-0.2,0.5,0.6,0.5,1.1c0,0.5-0.6,0.8-1,1.3c-0.5,0.5-1.1,0.8-0.8,1s0.4,0.7,1.1,1.2c0.7,0.5,1.2,0.5,1.5,1.3
	c0.3,0.8,0.4,1.3,0.4,1.3s0,0.4-0.4,0c-0.4-0.4-2.5-1.3-3.2-1.6s-0.7-0.2-0.7-0.8c0-0.5,0-1.7,0-2.5s0-1.9,0.3-2.2s0.2-0.8,0.2-1.4
	s-0.4-0.6-0.8-1s-0.9,0-0.9-0.4c0-0.4,0.1-0.6,0.3-1.1c0.2-0.5,0.9-1.6,0.9-1.6s1.1-0.4,1.7-0.6c0.6-0.2,1.2-0.9,1.6-1.3
	C233,197.6,233.8,197.8,233.6,198z"/>
</svg>
