<?xml version="1.0" encoding="utf-8"?>
<!-- Generator: Adobe Illustrator 22.0.1, SVG Export Plug-In . SVG Version: 6.00 Build 0)  -->
<svg version="1.1" id="图层_1" xmlns="http://www.w3.org/2000/svg" xmlns:xlink="http://www.w3.org/1999/xlink" x="0px" y="0px"
	 viewBox="0 0 215.4 215.4" style="enable-background:new 0 0 215.4 215.4;" xml:space="preserve">
<style type="text/css">
	.st0{display:none;}
	.st1{fill:none;stroke:#FFFFFF;stroke-width:5.1357;stroke-miterlimit:10;}
	.st2{fill:#FFFFFF;}
</style>
<title>mobike</title>
<rect class="st0" width="215.4" height="215.4"/>
<g>
	<g>
		<path class="st1" d="M97,110.3"/>
		<path class="st1" d="M152.6,102.9c24.6-2,41-1.2,41.8,2.8c1.1,6.6-40.6,19.4-93.2,28.6c-52.6,9.2-96.2,11.2-97.4,4.6
			c-0.7-3.8,13.1-9.8,35-15.8"/>
	</g>
	<g>
		<path class="st1" d="M41.2,106c-5.7,22.9,2.4,46.5,24.9,51c40.5,8.1,71.1-20.1,79.2-34.7c2.8-5.1,4.9-10.9,6-16.9l20.8-98.5
			c0,0-63.5,51-64.4,51c-4.4,0-9.2,0.4-14.4,1.1c-9.8,1.4-18.3,4.7-25.5,9.3l-3.7-40.5l-21.4,73l-1.5,5L41.2,106z"/>
	</g>
	<g>
		<path class="st1" d="M93.4,59c61.6-8.8,66.6,36.7,51.9,63.4c-8,14.5-38.7,42.8-79.2,34.7C22.2,148.2,33.2,67.5,93.4,59z"/>
	</g>
	<g>
		<path class="st1" d="M74.5,125.7l-33.8-14.9c0,0-1.5,12.2,2.5,17.8c4,5.5,11.4,7.2,15.1,7.2C67.1,135.9,74.5,125.7,74.5,125.7z"/>
	</g>
	<g>
		<path class="st1" d="M87.5,123.2l43.1-45.8c0,0,10.7,17.2,1.9,34.5c-5.6,11-16.3,16.3-27.9,16.3C94,128.3,87.5,123.2,87.5,123.2z"
			/>
	</g>
	<path class="st2" d="M128.6,120.5c-11.3-0.4-17-5.5-19.8-9.7c-3-4.6-3.3-9.1-3.3-9.3l5.1-0.3c0,0.5,1,13.5,18.1,14.2L128.6,120.5z"
		/>
	<path class="st2" d="M61.4,137.7c-11.8-4.1-13.5-16.5-12.7-22.5l5.1,0.6c-0.1,0.5-1.5,13.3,9.3,17L61.4,137.7z"/>
</g>
</svg>
