<?xml version="1.0" encoding="utf-8"?>
<!-- Generator: Adobe Illustrator 19.2.1, SVG Export Plug-In . SVG Version: 6.00 Build 0)  -->
<svg version="1.1" id="图层_1" xmlns="http://www.w3.org/2000/svg" xmlns:xlink="http://www.w3.org/1999/xlink" x="0px" y="0px"
	 viewBox="0 0 250 120" style="enable-background:new 0 0 250 120;" xml:space="preserve">
<style type="text/css">
	.st0{fill:#333333;}
</style>
<g>
	<path class="st0" d="M61.9,75.4C50,75.4,40,65.7,40,53.8c0-11.9,10-21.6,21.9-21.6c6.6,0,11.3,2.6,14.8,6l-4.2,4.2
		c-2.6-2.4-6-4.2-10.7-4.2c-8.8-0.1-15.5,6.9-15.5,15.6c0,8.7,6.8,15.7,15.5,15.7c5.6,0,8.9-2.3,10.9-4.3c1.7-1.7,2.8-4.1,3.2-7.4
		H62v-5.9h19.7c0.2,1,0.3,2.3,0.3,3.7c0,4.5-1.2,9.9-5.1,13.8C73.1,73.3,68.3,75.4,61.9,75.4"/>
	<rect x="175.4" y="33.7" class="st0" width="5.9" height="40.8"/>
	<g>
		<path class="st0" d="M98.1,47.6c-7.7,0-14,5.8-14,13.9c0,8,6.3,13.9,14,13.9c7.7,0,14-5.9,14-13.9
			C112.1,53.4,105.8,47.5,98.1,47.6z M98.1,69.9c-4.3,0-7.9-3.5-7.9-8.5c0-5,3.7-8.5,7.9-8.5c4.3,0,7.9,3.4,7.9,8.5
			C106,66.4,102.3,69.9,98.1,69.9z"/>
	</g>
	<g>
		<path class="st0" d="M128.4,47.6c-7.7,0-14,5.8-14,13.9c0,8,6.3,13.9,14,13.9c7.7,0,14-5.9,14-13.9
			C142.4,53.4,136.1,47.5,128.4,47.6z M128.3,69.9c-4.3,0-7.9-3.5-7.9-8.5c0-5,3.7-8.5,7.9-8.5c4.3,0,7.9,3.4,7.9,8.5
			C136.2,66.4,132.6,69.9,128.3,69.9z"/>
	</g>
	<g>
		<path class="st0" d="M165.6,50.6h-0.2c-1.3-1.6-4-3.1-7.3-3.1c-6.9,0-13.3,6.1-13.3,14c0,7.8,6.4,13.9,13.3,13.9
			c3.3,0,6-1.4,7.3-3.1h0.2v2c0,5.3-2.9,8.2-7.4,8.2c-3.8,0-6.1-2.7-7-4.9l-5.3,2.2c1.5,3.6,5.6,8.2,12.4,8.2
			c7.1,0,13.2-4.2,13.2-14.5v-25h-5.8V50.6z M158.6,69.9c-4.2,0-7.7-3.5-7.7-8.4c0-4.9,3.5-8.5,7.7-8.5c4.2,0,7.4,3.5,7.4,8.5
			C166,66.3,162.8,69.9,158.6,69.9z"/>
	</g>
	<g>
		<path class="st0" d="M198.1,69.9c-3.1,0-5.3-1.4-6.8-4.2L210,58l-0.7-1.6c-1.1-3.1-4.7-8.9-11.9-8.9c-7.1,0-13.1,5.6-13.1,13.9
			c0,7.8,5.9,13.9,13.8,13.9c6.4,0,10.1-3.9,11.6-6.2L205,66C203.3,68.3,201.2,69.9,198.1,69.9z M197.7,52.9c2.4,0,4.5,1.2,5.1,3
			L190.4,61C190.2,55.7,194.5,52.9,197.7,52.9z"/>
	</g>
</g>
</svg>
