<?xml version="1.0" encoding="utf-8"?>
<!-- Generator: Adobe Illustrator 19.0.0, SVG Export Plug-In . SVG Version: 6.00 Build 0)  -->
<svg version="1.1" id="图层_1" xmlns="http://www.w3.org/2000/svg" xmlns:xlink="http://www.w3.org/1999/xlink" x="0px" y="0px"
	 viewBox="0 0 250 120" style="enable-background:new 0 0 250 120;" xml:space="preserve">
<style type="text/css">
	.st0{display:none;}
	.st1{display:inline;fill:none;stroke:#29ABE2;stroke-width:0.5;stroke-miterlimit:10;}
	.st2{display:inline;opacity:0.3;fill:none;stroke:#29ABE2;stroke-width:0.5;stroke-miterlimit:10;}
	.st3{fill-rule:evenodd;clip-rule:evenodd;}
</style>
<g class="st0">
	<rect y="0" class="st1" width="250" height="120"/>
	<line class="st2" x1="0" y1="61.4" x2="250" y2="61.4"/>
	<line class="st2" x1="125" y1="0" x2="125" y2="120"/>
	<rect x="40" y="30" class="st1" width="170" height="60"/>
	<rect x="25" y="35" class="st1" width="200" height="50"/>
	<rect x="65" y="20" class="st1" width="120" height="80"/>
	<circle class="st1" cx="125" cy="60" r="40"/>
</g>
<g>
	<path class="st3" d="M210,29.9c-0.2,0.1-0.4,0.1-0.6,0.2c-22,9.7-44,19.4-65.9,29.1c-17.1,7.5-34.1,15.1-51.2,22.6
		c-2.2,1-4.5,2-6.7,3c-4,1.7-8.1,3.1-12.4,4.1c-2.2,0.5-4.3,1-6.5,1.3c-2.3,0.3-4.7,0.5-7,0.4c-3.4-0.1-6.8-0.7-9.9-2.2
		c-3.2-1.5-5.7-3.7-7.4-6.8c-1-1.8-1.6-3.7-2-5.7c-0.3-1.9-0.4-3.8-0.2-5.7c0.2-2.4,0.7-4.6,1.5-6.9c1.4-4,3.2-7.9,5.4-11.5
		c2.2-3.7,4.6-7.2,7.2-10.6c2.1-2.8,4.4-5.6,6.8-8.2c1.1-1.2,2.3-2.3,3.5-3.5c0.1-0.1,0.2-0.2,0.4-0.3c0.1,0.2,0,0.4-0.1,0.5
		c-0.9,1.9-1.8,3.7-2.6,5.7c-1.1,2.6-2,5.2-2.6,8c-0.4,1.8-0.7,3.7-0.7,5.6c0,2.1,0.2,4.1,0.9,6.1c1,2.5,2.5,4.6,4.8,6.2
		c1.9,1.4,4,2.2,6.3,2.7c2.4,0.6,4.8,0.7,7.3,0.6c2.8-0.1,5.5-0.6,8.2-1.3c4.3-1,8.6-2.3,12.8-3.4c8.2-2.2,16.4-4.4,24.6-6.7
		c7.9-2.2,15.9-4.4,23.8-6.5c7.6-2.1,15.3-4.2,22.9-6.2c7.6-2.1,15.3-4.2,22.9-6.3c5.3-1.4,10.5-2.9,15.8-4.3
		C209.4,29.9,209.7,29.7,210,29.9L210,29.9z"/>
	<path class="st3" d="M210,29.9c0,0,0-0.1,0-0.1C210,29.8,210,29.9,210,29.9C210,29.9,210,29.9,210,29.9z"/>
</g>
</svg>
