<?xml version="1.0" encoding="utf-8"?>
<!-- Generator: Adobe Illustrator 19.0.0, SVG Export Plug-In . SVG Version: 6.00 Build 0)  -->
<svg version="1.1" id="图层_1" xmlns="http://www.w3.org/2000/svg" xmlns:xlink="http://www.w3.org/1999/xlink" x="0px" y="0px"
	 viewBox="0 0 250 120" style="enable-background:new 0 0 250 120;" xml:space="preserve">
<style type="text/css">
	.st0{display:none;}
	.st1{display:inline;fill:none;stroke:#29ABE2;stroke-width:0.5;stroke-miterlimit:10;}
	.st2{display:inline;opacity:0.3;fill:none;stroke:#29ABE2;stroke-width:0.5;stroke-miterlimit:10;}
	.st3{fill-rule:evenodd;clip-rule:evenodd;fill:#323232;}
</style>
<g class="st0">
	<rect y="0" class="st1" width="250" height="120"/>
	<line class="st2" x1="0" y1="61.4" x2="250" y2="61.4"/>
	<line class="st2" x1="125" y1="0" x2="125" y2="120"/>
	<rect x="40" y="30" class="st1" width="170" height="60"/>
	<rect x="25" y="35" class="st1" width="200" height="50"/>
	<rect x="65" y="20" class="st1" width="120" height="80"/>
	<circle class="st1" cx="125" cy="60" r="40"/>
</g>
<polygon class="st3" points="60.9,69.5 60.9,45.5 70.3,45.5 70.3,77.4 54,77.4 34.5,53.3 34.5,77.3 25.1,77.4 25,45.5 25.1,45.5 
	41.4,45.5 60.9,69.5 "/>
<path class="st3" d="M175.2,45.5l0.1,31.9h-10l0-31.9l0.1-0.1C168.6,45.5,171.9,45.4,175.2,45.5L175.2,45.5z"/>
<polygon class="st3" points="130.5,60.9 130.5,60.9 131.8,59.9 147.7,45.5 161,45.5 142.7,61 142.8,61.2 163.3,77.3 148.9,77.4 
	130.6,61.1 130.5,61.2 130.5,77.4 120.5,77.4 120.5,45.5 130.5,45.5 130.5,60.9 "/>
<path class="st3" d="M105,45.1c4.1,0.2,8.6,0.5,10.8,4.5c0.5,1.1,0.8,2.3,0.7,3.7l0,17.4c-0.1,2.3-1.8,4.4-3.8,5.5
	c-4.3,1.9-9.6,1.4-14.6,1.5c-6-0.1-12.1,0.3-17.6-0.7c-2.5-0.4-5.1-2.4-5.8-4.9l-0.3-2l0.1-18.4c0.1-2.3,2.1-4.4,4.1-5.4
	c3.2-1.3,7.1-1.2,10.8-1.3L105,45.1L105,45.1z M85.4,53c-0.8,0.2-1.9,0.5-2,1.5c0,4.8-0.1,9.6,0.1,14.3c0.3,0.8,1.2,0.7,1.8,0.9
	l18,0c1.5-0.1,3.4,0.3,4.2-1.3l0-13.5l-0.1-1c-0.2-0.6-0.9-0.7-1.4-0.9L85.4,53L85.4,53z"/>
<path class="st3" d="M225,77.3v0.1h-11c-1-1.8-2-3.6-2.9-5.4l-0.2-0.1h-19.6l-3,5.4l-11.1,0.1l17.6-31.9h12.9L225,77.3L225,77.3z
	 M201.1,53.5L195,64.9h12.3C205.2,61.1,203.1,57.3,201.1,53.5L201.1,53.5z"/>
</svg>
