<?xml version="1.0" encoding="utf-8"?>
<!-- Generator: Adobe Illustrator 19.0.0, SVG Export Plug-In . SVG Version: 6.00 Build 0)  -->
<svg version="1.1" id="图层_1" xmlns="http://www.w3.org/2000/svg" xmlns:xlink="http://www.w3.org/1999/xlink" x="0px" y="0px"
	 viewBox="-834 481 250 120" style="enable-background:new -834 481 250 120;" xml:space="preserve">
<style type="text/css">
	.st0{display:none;}
	.st1{display:inline;fill:none;stroke:#29ABE2;stroke-width:0.5;stroke-miterlimit:10;}
	.st2{display:inline;opacity:0.3;fill:none;stroke:#29ABE2;stroke-width:0.5;stroke-miterlimit:10;enable-background:new    ;}
	.st3{fill:#323232;}
</style>
<g class="st0">
	<rect x="-2502" y="1443" class="st1" width="250" height="120"/>
	<line class="st2" x1="-2502" y1="1504.4" x2="-2252" y2="1504.4"/>
	<line class="st2" x1="-2377" y1="1443" x2="-2377" y2="1563"/>
	<rect x="-2462" y="1473" class="st1" width="170" height="60"/>
	<rect x="-2477" y="1478" class="st1" width="200" height="50"/>
	<rect x="-2437" y="1463" class="st1" width="120" height="80"/>
	<circle class="st1" cx="-2377" cy="1503" r="40"/>
</g>
<path id="XMLID_9_" class="st3" d="M-797.5,547.2c1.2-1,8.6-21.9,8.6-21.9h-5.9l-8.6,23.6C-803.4,548.9-801,550.4-797.5,547.2z"/>
<path id="XMLID_35_" class="st3" d="M-610.5,539.2c-3.6-1-8.5,2.5-8.5,2.5c-4.2,3.1-7.6,3.1-7.6,3.1c-3.9,0.2-3.4-2.9-3.4-2.9
	c1-3.9,4.9-3.7,4.9-3.7c8.1,2.7,11-1.5,11-1.5c2.2-2.2,0.7-3.7,0-2.9c-1.4,1.7-1.4,2-3.2,1.7c-1.7-0.2-4.4-3.7-9.2-3.7
	c-4.7,0-10,5.3-10,5.3c-1.7,1.9-2.7,1.5-2.7,1.5c-1.7-0.5,2.2-4.9,2.2-4.9c5.4-4.7,13.7-2.5,13.7-2.5c-1.4-4.9-10.5-4.2-10.5-4.2
	c-7.6,0.5-10.5,5.3-10.5,5.3h-20.3l-1.5,4.6l7.6,0.2l-0.3,2h-8.5l-1.5,3.7h6.9l-3.1,2.7h-4.6l-1.7,4.6h6.9l5.3-4.2l2.5,4.2l6.4,0.2
	c0,0,0.7,0.7-0.3,1h-20.3c-1.5,0.2-1.9-0.7-1.7-1.7c2-4.7,6.4-17.1,6.4-17.1h-4.7l-8.6,22.4c0,0,2,0.3,4.2-1.2c0.7,1,2,1.2,2,1.2
	l21.4,0.2c3.7,0.2,8.5-3.1,8.6-5.8c0,0-3.1,1.4-4.4,0.7c-0.3-0.2-0.7-0.7-0.3-1c1-1.2,6.3-7.5,10.7-6.1c1,0.3,1,2-0.3,1.9
	c-4.7-0.7-9.3,4.6-9.3,4.6c1.2,0.7,4.2-1.4,4.2-1.4c4.2-2.9,7.3,1,7.3,1c2.2,2.5,5.3,2.9,5.3,2.9c4.6,0.7,9.7-3.9,9.7-3.9
	c3.2-2.5,8-4.2,8-4.2c3.1-1,6.8,0.7,6.8,0.7C-605.3,540.4-610.5,539.2-610.5,539.2z M-648.7,545.3h-3.9l-1.4-2h7.5
	C-646.6,543.9-646.8,544.8-648.7,545.3z M-645.4,539h-8l0.3-2.2l8,0.2C-643.9,537-643.4,538.7-645.4,539z"/>
<polygon id="XMLID_37_" class="st3" points="-662.7,526 -667.6,526 -669.8,531.7 -664.9,531.7 "/>
<path id="XMLID_38_" class="st3" d="M-660.9,531.9h6.3l1.5-3.7h-3.4l0.7-1.9h-4.7c0,0-1.7,4.1-1.7,4.4
	C-662.6,531.6-660.9,531.9-660.9,531.9z"/>
<path id="XMLID_39_" class="st3" d="M-641.7,526h-4.6l-0.7,2h-4.6l-1.4,3.7c0,0,7.3,0,8,0c1,0,1.5-1.2,1.5-1.2L-641.7,526z"/>
<path id="XMLID_40_" class="st3" d="M-696.1,530.7h16.3l-0.7,1.7h5.9l2.5-5.1l-20.2-0.2l0.7-1.4l-5.3-0.2c0,0-1,1.7-1.9,1.9
	l-0.7,0.2l-1.5,4.2h3.2L-696.1,530.7z"/>
<path id="XMLID_41_" class="st3" d="M-701.2,532.8l-1.5,3.7l20.8,0.2c0.3,0.2,0.2,0.5-0.2,0.7h-21l-1.4,3.6l21.2,0.2
	c0,0,1.4,0.5-0.2,1l-21.2-0.2l-1.4,3.7l23.9-0.2c0,0,2,0,2.9-1.5l5.1-11.4L-701.2,532.8z"/>
<path id="XMLID_42_" class="st3" d="M-706.3,546.7c0,0.2-1.4,3.6-1.5,3.9c0,0.2-0.5,0.7-1.4,0.7l-1,3.2c0,0,2.5,0.2,3.4,0
	c0,0,1.2,0.2,2.2-2.2l2.2-5.4L-706.3,546.7z"/>
<path id="XMLID_43_" class="st3" d="M-695.4,546.5h-5.9c0,0-2,5.3-2.2,6.3c-0.2,0.7,0.7,1.7,2,1.9h12.2l1.4-3.7h-9.2L-695.4,546.5z"
	/>
<path id="XMLID_44_" class="st3" d="M-687.1,547.5h-3.7l-0.2-1.2c0,0-3.9,0-4.2,0l-0.7,2.9c-0.2,1.4,1.7,1.4,1.7,1.4l6.1-0.2
	L-687.1,547.5z"/>
<path id="XMLID_45_" class="st3" d="M-681.5,546.7h-4.2l-2,5.3c-0.5,2.2,0.7,2.7,0.7,2.7h3.6l1.2-3.1h-0.7c-0.5-0.2-0.2-1-0.2-1
	L-681.5,546.7z"/>
<polygon id="XMLID_46_" class="st3" points="-729,532.8 -728.5,531.1 -710,531.1 -710.7,532.8 -706.1,532.8 -703.9,527.2 
	-715.1,527.2 -714.2,525.6 -719.5,525.6 -720.2,527.2 -731.4,527.2 -733.4,532.8 "/>
<path id="XMLID_47_" class="st3" d="M-711.4,546.3l1.7-4.4h-14.2l1.4-3.6h12.5c0.2,0,0.3,0,0.5-0.2c0.5-0.2,1.2-0.5,1.2-1.2l2-4.2
	h-3.9c0,0-0.2,0.5-0.7,0.5h-22.5l-2.5,4.9h8.1l-1.4,3.6h-8l-1.7,4.4h8l-2.5,5.8c-0.2,0.7-0.3,2.7,1.9,2.9h16.4l2-4.4h-14.6l1.7-4.4
	h14.4v0.3H-711.4z"/>
<path id="XMLID_48_" class="st3" d="M-741.9,533.6h4.9l1.7-4.2h-4.9l1.4-3.4h-5.4l-1.4,3.4h-1l1.4-3.1h-4.6l-2.2,5.9
	c0,0-0.3,1.2-1.4,1l-1.4,3.4l3.1,0.2c0,0,1.4,0.3,2-1l1-2h1.7l-2.2,5.8h-5.8l-1.7,4.2h5.8l-2.9,6.9h-6.3l-1.5,3.9h19.5l1.5-3.9h-8
	l2.9-6.9l5.3-0.2l1.5-4.2l-5.3,0.2L-741.9,533.6z"/>
<path id="XMLID_51_" class="st3" d="M-751.2,526h-11l-11.5,28.8c0,0,2.7,0.7,3.7-0.2c0,0,1-0.3,1.9-3.1l2-5.3h2.5l-1.9,4.9h-1.4
	l-1.7,3.7c1.4,0.2,3.6,0,4.6-0.2c0.7-0.3,1.2-0.5,1.5-1c0,0,0.2-0.3,1.2-2.2L-751.2,526z M-759.5,530.4h2.7l-1.7,4.2h-2.5
	L-759.5,530.4z M-764.2,542.6l1.7-4.2h2.5l-1.7,4.2H-764.2z"/>
<path id="XMLID_53_" class="st3" d="M-790.9,548.7l21-13.2l3.6-9.8h-5.8l-2.2,6.6l-13.9,9.2l6.1-15.9h-6.1l-8,21.2l-3.1,2
	c0,0-3.1,1.9-4.7,1.4l-1.7,4.6c0,0,3.9,0.7,6.3-0.5l1-0.5c0.3,1.2,2,1.4,2,1.4l12.5,0.2l1.5-4.4h-9.3L-790.9,548.7z"/>
<path id="XMLID_54_" class="st3" d="M-775.8,550.6c0.2-0.3,3.7-9.5,3.7-9.5l-5.4-0.2c0,0-4.7,11.9-4.7,12.2c0,0-0.3,1.5,2.2,1.5h3.7
	l1.7-3.7C-774.4,550.9-775.9,551.1-775.8,550.6z"/>
<path id="XMLID_1_" class="st3" d="M-780,525.5h5.4l-2.7,8h-3.9c0,0-1.7,0-1-2.2L-780,525.5z"/>
</svg>
