<?xml version="1.0" encoding="utf-8"?>
<!-- Generator: Adobe Illustrator 19.0.0, SVG Export Plug-In . SVG Version: 6.00 Build 0)  -->
<svg version="1.1" id="图层_1" xmlns="http://www.w3.org/2000/svg" xmlns:xlink="http://www.w3.org/1999/xlink" x="0px" y="0px"
	 viewBox="0 0 320 320" style="enable-background:new 0 0 320 320;" xml:space="preserve">
<style type="text/css">
	.st0{fill:#E25947;}
	.st1{fill:#373735;}
	.st2{fill:#D41822;}
	.st3{fill:#DD1D2D;}
	.st4{fill:#FFFFFF;}
	.st5{opacity:0.1;}
	.st6{fill-rule:evenodd;clip-rule:evenodd;fill:#ED998D;}
	.st7{fill-rule:evenodd;clip-rule:evenodd;fill:#262830;}
	.st8{fill-rule:evenodd;clip-rule:evenodd;fill:#FFFFFF;}
	.st9{fill-rule:evenodd;clip-rule:evenodd;fill:none;}
	.st10{fill-rule:evenodd;clip-rule:evenodd;fill:#F8F7F8;}
	.st11{fill-rule:evenodd;clip-rule:evenodd;fill:#E9DEDE;}
	.st12{fill-rule:evenodd;clip-rule:evenodd;fill:#E2DDDE;}
	.st13{fill-rule:evenodd;clip-rule:evenodd;fill:#D6CED1;}
</style>
<rect x="-2333.9" y="-355.9" class="st0" width="1000" height="1000"/>
<path class="st1" d="M615,85.8c2.3-2.9,4.4-5.6,6.6-8.3c4.8-5.9,9.6-11.6,15.3-16.7c2.7-2.5,5.7-4.4,9.4-5
	c8.6-1.4,17.4,4.9,18.6,13.5c1,7.6-2.5,14.4-9.2,17.4c-1.8,0.8-3.9,1.2-5.9,1.4c-7.1,0.6-14.1,0.1-21.2-0.6c-4-0.4-7.9-0.9-11.9-1.3
	C616.2,86.1,615.7,85.9,615,85.8z"/>
<path class="st1" d="M656.4,138.5c-2.4,3.1-4.7,6-7,8.8c-4.8,5.9-9.8,11.6-15.4,16.8c-7,6.5-15.8,5.6-21.1,1.6
	c-4.9-3.7-7.2-8.7-6.6-14.9c0.7-6.7,4.4-11.5,10.8-13.6c2.9-1,6.3-1.2,9.4-1c7.8,0.3,15.6,1,23.4,1.6
	C652.1,137.9,654.1,138.3,656.4,138.5z"/>
<path class="st1" d="M631.2,126.1c1.9-2.4,3.6-4.7,5.5-7c4.8-5.9,9.6-11.8,15.2-17c2.4-2.2,4.8-4.4,8-5.5
	c8.3-2.8,17.5,1.7,20.5,10.2c2.9,8.2-1.4,17.7-9.6,20.5c-2.7,0.9-5.8,1.1-8.7,1.2c-10.2,0.3-20.3-1-30.3-2.2
	C631.6,126.3,631.5,126.2,631.2,126.1z"/>
<path class="st1" d="M640.3,98.1c-0.8,1-1.3,1.8-1.9,2.5c-5.9,7.6-12,15.2-19,21.8c-2.8,2.6-5.7,4.9-9.6,5.7
	c-8.2,1.7-16.5-3.3-18.9-11.5c-2.3-7.9,1.9-16.8,9.7-19.6c2.1-0.8,4.4-1,6.7-1.2c7-0.4,14,0.1,20.9,0.9
	C632,97.2,636,97.7,640.3,98.1z"/>
<path class="st1" d="M617,205.3c0,2.7-0.9,4.7-2.7,6.4c-2.7,2.6-6.1,3.3-9.6,2.3c-3.5-1-5.7-3.3-6.5-6.9c-0.2-0.9-0.2-1.8-0.2-2.7
	c0-2.6,0-5.2,0-7.8c0-5.4,3.8-9.3,9.3-9.5c4.8-0.2,8.9,3,9.7,7.7c0.2,1,0.2,2.3,0.2,2.3s-0.9,0.6-1.7,1.1c-3.4,2-6.8,4-10.2,5.9
	c-0.3,0.2-0.6,0.3-1.1,0.6c0-1.5,0.1-4.8,0.1-4.8l8.5-4.8c0,0,0-0.5-0.5-1.3c-1.3-2-3.8-3-6.3-2.3c-2.3,0.6-3.7,2.5-3.8,4.9
	c0,2.9,0,5.8,0,8.6c0,2.5,1.7,4.4,4.2,4.9c2.5,0.5,5.1-0.6,6-2.9c0.4-0.9,0.9-1.2,1.7-1.3C615,205.7,615.9,205.5,617,205.3z"/>
<path class="st1" d="M626.2,187c0,0,0,1.3,0,1.8c0,5.3,0,10.6,0,16c0,3.2,2.2,5.4,5.3,5.5c3.1,0,5.4-2.2,5.5-5.4
	c0-4.8,0-15.4,0-15.4s3-1.7,4.2-2.3c0,0.6,0,1,0,1.4c0,5.6,0,11.1,0,16.7c0,4.8-3.4,8.6-8.2,9.3c-4.9,0.7-9.4-2.1-10.6-6.7
	c-0.2-0.8-0.3-1.7-0.3-2.5c0-4.9,0-15.6,0-15.6L626.2,187z"/>
<path class="st1" d="M662.9,191.1c-1.1,0.6-3.5,2.2-3.5,2.2l-0.8-0.7c-1.8-1.4-4.4-1.6-6.4-0.5c-2,1.2-2.1,3.2-0.1,4.4
	c2.5,1.6,5,3.1,7.6,4.6c2.8,1.6,4.2,3.9,3.8,7.1c-0.4,3.1-2.6,4.7-5.4,5.7c-4.7,1.5-9.6-0.5-11.7-4.7c-0.1-0.1-0.1-0.3-0.2-0.6
	c1.2-0.7,2.4-1.4,3.6-2.1c1.9,3.1,3.9,4.1,6.8,3.4c0.5-0.1,1.1-0.4,1.5-0.7c1.8-1.1,1.8-3.1,0-4.2c-2.6-1.6-5.2-3.2-7.8-4.7
	c-2.6-1.5-4-3.7-3.7-6.7c0.2-2.9,2.1-4.7,4.6-5.8C655.3,186.1,660.1,187.4,662.9,191.1z"/>
<path class="st1" d="M694.6,191.1c-1.2,0.7-2.4,1.4-3.6,2.1c-1.4-1.3-3-2-5-1.8c-0.7,0.1-1.4,0.3-2,0.6c-2.3,1.1-2.3,3.3-0.2,4.6
	c2.7,1.7,5.5,3.3,8.2,5c2.1,1.3,3.2,3.3,3.2,5.8c0,1.8-0.7,3.2-1.9,4.5c-4.6,4.5-13.2,2.8-15.4-3.2c1.2-0.7,2.3-1.4,3.5-2.1
	c2,3.4,5.1,4.5,8,2.9c2.2-1.2,2.2-3.2,0.1-4.5c-2.7-1.7-5.5-3.3-8.2-5c-4.3-2.7-4.3-8.5,0-11.2c4-2.7,9.6-1.9,12.7,1.6
	C694.3,190.6,694.4,190.8,694.6,191.1z"/>
<path class="st1" d="M588.9,191.2c-3.1,0-9.8,0-9.8,0s-1.3-3-1.8-4.1c6.1,0,12.1,0,18.3,0c-4.2,7.6-8.4,15-12.7,22.7
	c3.1,0,10.1,0,10.1,0l2,4.2c0,0-12.3,0-18.8,0C580.4,206.4,584.5,198.9,588.9,191.2z"/>
<path class="st1" d="M610.6,226.9c6.4,0,12.7,0,19.2,0c0,1.8,0,3.6,0,5.4c0,1.2,0,2.4,0,3.5c0,1.9-0.8,2.7-2.6,2.8
	c-1.6,0.1-3.2,0.1-4.7,0.1c-3.9,0-7.9,0-11.9,0C610.6,234.7,610.6,230.8,610.6,226.9z M621,232c2.5,0,4.8,0,7.2,0c0-1.4,0-2.7,0-4.1
	c-2.4,0-4.7,0-7.2,0c0,0.9,0,1.8,0,2.6C621,231,621,231.5,621,232z M621.1,237.4c1.4,0,2.7,0,4,0c3,0,3.1-0.2,3.1-3.2
	c0-0.3,0-0.6,0-0.9c-2.4,0-4.7,0-7.1,0C621.1,234.7,621.1,236,621.1,237.4z M612.3,233.3c0,1.4,0,2.7,0,4.1c2.4,0,4.6,0,6.9,0
	c0-1.4,0-2.7,0-4.1C616.9,233.3,614.6,233.3,612.3,233.3z M619.3,232c0-1.4,0-2.7,0-4.1c-2.3,0-4.6,0-6.9,0c0,1.4,0,2.7,0,4.1
	C614.6,232,616.9,232,619.3,232z"/>
<path class="st1" d="M672.5,214.1c-1.4,0-2.7,0-4,0c0-0.5-0.1-0.9-0.1-1.2c0-7.3,0-22.9,0-22.9l4.1-2.4
	C672.5,187.5,672.5,205.2,672.5,214.1z"/>
<path class="st1" d="M677.5,250.3v-1.2c1.9-0.9,4.6-1.8,7.4-4.2c-2.2-2.2-3.8-4.7-4.9-7.5l1.6,0c1.1,2.6,2.7,5,4.3,6.6
	c2.7-2.3,4.1-4.8,5.2-8c-4,0-7.9,0-11.7,0c0-1.1,0-1.2,0-1.2s4.1,0,5.8,0c0-1.7,0-3.2,0-5c-1.8,0-4.4,0-6.1,0v-1c1.7,0,4.3,0,6.2,0
	c0-1.2,0-2.2,0-3.2l1.6,0c0,0.6,0,2.4,0,3.3c1.8,0,6.8,0.1,6.8,0.1l0,1c0,0-3.7,0-5.3,0c-0.4,0-0.9,0-1.4,0c0,1.7,0,3.2,0,4.9
	c1.9,0,3.8,0,6,0c-0.7,4.3-3,7.4-5.8,10.3c1.9,1.7,4.8,3,7.1,3.9v1.3c-2.6-1-4.8-2-7.1-3.5c-0.3-0.1-1.1-0.7-1.1-0.7
	s-0.9,0.7-1.2,0.8C682.3,248.3,680.3,249.5,677.5,250.3z"/>
<path class="st1" d="M601.9,250.1c-3.4-1.8-6.3-5-7.9-8.8c-1.7,3.7-4.1,6.7-7.6,8.7l0-1c0,0,1.1-1.1,2.3-2.4
	c-1.9-1.3-3.4-3.3-4.6-5.4c-0.6,1.6-1.6,3.4-2.7,4.8c-1.1,1.4-2.9,3.1-4.3,4v-1.2c0,0,0.4-0.3,0.8-0.7c2.5-2.6,4.3-5.5,4.9-9
	c0.3-1.6,0.2-3.4,0.3-5.2c0.5,0,1,0,1.7,0c0,1,0,2,0,2.9c0.1,2.9,1.3,5.3,3,7.6c0.2,0.3,0.9,0.9,0.9,0.9s0,0.7,0,1.2
	c3.1-3.1,4.3-5.6,4.3-12.6c1,0,1.8,0,1.8,0s0,0.7,0,1.4c-0.1,5.4,2.3,9.6,6.3,13c0.4,0.3,0.5,0.5,0.8,0.7V250.1z"/>
<path class="st1" d="M642.9,233.6c-1.4,0-2.7,0-3.9,0l0-1c1.1,0,2.8,0,4,0c0-1.5,0-2.8,0-4.3c-1.3,0-2.5,0-3.8,0l0-1.2
	c3.1,0,6.2,0.1,9.4-0.6l0,1.1c-1.1,0.4-2.3,0.6-3.9,0.6c0,1.4,0,2.9,0,4.3c1.4,0,3.8,0,3.8,0s0,0.7,0,1.1c-1.2,0-2.4,0-3.7,0
	c0.1,0.4,0,0.6,0.2,1c1.2,3.4,2.2,5.4,3.5,7.4l0.1,1.7c-1.2-1.3-2.7-3.6-3.9-6l0,1.2l0,11.4l-1.6,0c0,0,0-7.3,0-10.4
	c0-0.4,0-0.9,0-1.3c-1.5,2.8-3.1,5.4-4.6,7.1l-0.1-1.8c0,0,0.4-0.6,0.5-0.9C640.6,240,642,237,642.9,233.6z"/>
<path class="st1" d="M672.9,239.6c-1.2,0.3-2.3,0.4-3.6,0.6v-1.4c1.2-0.1,2.4-0.4,3.6-0.7c0,0,0-1.2,0-2.6c0-1.3,0-2.6,0-3.9
	c0-0.1,0-0.3,0-0.3c-1,0-2.1,0-3.1,0l0-1.2c0.7,0,2.3,0,3.1,0c0-1.6,0-3,0-4.6c0.6,0,1.1,0,1.8,0c0,1.5,0,3.1,0,4.6l2.9,0.1
	c0,0,0,0.7,0,1.1c-0.9,0-1.8,0-2.8,0c0,2.1,0,4.2,0,6.4c1-0.3,1.9-0.6,2.9-0.9c0.1,0.1,0.1,1.1,0.1,1.1c0,0.1-3.1,1.1-3.1,1.1
	s0,6.4,0,8.3c0,1.8-0.8,2.6-2,2.7c-0.5,0-2.5,0-2.5,0l0-1.1c3.4,0.1,2.8-0.4,2.8-3C672.9,243.8,672.9,241.8,672.9,239.6z"/>
<path class="st1" d="M659.6,225.5c0,5.5,0,10.8,0,16.3c1.1,0,3.8,0,3.8,0v1c-0.6,0-3.1,0-3.8,0c0,0,0,0.2,0,1c0.1,2,0,4,0,6.1
	c-0.6,0-1,0-1.5,0c0-2.4,0-4.7,0-7.2c-2.3,0-4.4,0-6.6,0c-0.6,0-1.6,0-2.4,0v-1c2.9,0,5.8,0,8.9,0c0-5.5,0-10.9,0-16.3
	C658.6,225.5,659,225.5,659.6,225.5z"/>
<path class="st1" d="M601.5,235.7c-4.6-1.7-8.8-4.5-12.1-8.3c-3.4,3.8-7.5,6.6-12.2,8.3l0-1c0,0,0.6-0.2,1-0.4
	c3.7-2,6.7-4.5,9.5-7.7c0.3-0.3,0.9-1.2,0.9-1.2h1.7c0,0,0,0.1,0.2,0.4c2.8,3.6,6.3,6.3,10.3,8.4c0.4,0.2,0.8,0.5,0.8,0.5V235.7z"/>
<path class="st1" d="M625.9,245.5c0.4,0,1,0,1.4,0c0.2,2.5-0.7,3.7-3,3.7c-2.5,0-5,0-7.4,0c-2,0-2.9-1-2.9-2.9c0-2,0-4,0-6.1
	c0.6,0,1,0,1.7,0c0,1.6,0,3.2,0,4.8c0,3,0.2,3.2,3.3,3.2c1.4,0,2.8,0,4.3,0C625.6,248.2,626,248,625.9,245.5z"/>
<path class="st1" d="M607.7,248c1.3-3,2.1-5.4,2.6-7.8h1.4c-0.2,1.6-0.6,2.9-1.2,5c-0.1,0.5-1,2.8-1,2.8S608.4,248,607.7,248z"/>
<path class="st1" d="M632.8,248c-1.2,0-1.8,0-1.8,0c-0.4-2.6-1.3-5.3-2.2-7.8h1.4C631,242.4,632.1,245.4,632.8,248z"/>
<path class="st1" d="M650.3,228.2c1.9,0.1,4.4,0.9,5.9,1.6l0,1.8c-2.1-1.2-3.9-1.8-5.9-2.3L650.3,228.2z"/>
<path class="st1" d="M649.5,234.5c2.4,0.1,6,1.8,6,1.8v1.6c-1.9-1-3.9-1.8-6.1-2.3C649.5,235.6,649.4,234.6,649.5,234.5z"/>
<path class="st1" d="M623.4,244.6c-1.2,0.4-1.6,0.1-1.9-0.8c-0.3-1.2-0.7-2.4-1.1-3.6c0.9-0.4,1.4-0.1,1.7,0.7
	C622.6,242.2,623,243.4,623.4,244.6z"/>
<g>
	<g>
		<path class="st2" d="M209.4,163.3l-2.5-9.9c-0.2-0.7-0.8-1.1-1.5-1.1h-3.5c-1,0-1.7,0.9-1.4,1.8l2.5,9.9c0.2,0.6,0.8,1.1,1.5,1.1
			h3.5C208.9,165.1,209.6,164.2,209.4,163.3z M191.3,136.3h-3.7c-0.8,0-1.5,0.7-1.5,1.5v2.8c0,1-0.4,1.9-1.1,2.6l-5.9,6.5
			c-0.6,0.6-0.6,1.5,0,2.1l2.3,2.2c0.6,0.6,1.5,0.6,2.1,0l1.5-1.6c0.4-0.4,1.1-0.1,1.1,0.5v30.8c0,0.8,0.7,1.5,1.5,1.5h3.7
			c0.8,0,1.5-0.7,1.5-1.5v-45.8C192.8,136.9,192.2,136.3,191.3,136.3z M228.7,139.5h-0.8c-0.6,0-1-0.4-1-1v-0.8
			c0-0.8-0.7-1.5-1.5-1.5h-3.7c-0.8,0-1.5,0.7-1.5,1.5v0.8c0,0.5-0.4,1-1,1h-20.3c-0.8,0-1.5,0.7-1.5,1.5v3.6c0,0.8,0.7,1.5,1.5,1.5
			h20.3c0.6,0,1,0.4,1,1v28.3c0,1.8-1.5,3.2-3.3,3.2h-6.6c-0.8,0-1.5,0.7-1.5,1.5v1.8c0,1.8,1.5,3.3,3.3,3.3h6.5
			c4.6,0,8.3-3.6,8.3-8.1V147c0-0.5,0.4-1,1-1h0.8c0.8,0,1.5-0.7,1.5-1.5V141C230.2,140.2,229.5,139.5,228.7,139.5z M246.3,163.8
			l-3.2-0.3c-0.8-0.1-1.5,0.5-1.6,1.3c-0.7,6-2,11.3-4.4,16.9c-0.3,0.7,0,1.6,0.8,1.9l3,1.3c0.8,0.3,1.7,0,2-0.8
			c2.6-6.2,4.2-12.1,4.9-18.7C247.7,164.6,247.1,163.8,246.3,163.8z M287.1,150.9h-15.6c-0.7,0-1.3,0.6-1.3,1.3v3.6
			c0,0.7,0.6,1.3,1.3,1.3h7.5c0.5,0,0.8,0.5,0.6,0.9l-1.5,3.7c-0.2,0.4-0.2,0.8-0.2,1.2v0.7c0,0.4-0.4,0.8-0.8,0.8h-5.4
			c-0.8,0-1.5,0.7-1.5,1.5v3.3c0,0.8,0.7,1.5,1.5,1.5h5.4c0.5,0,0.8,0.4,0.8,0.8v6.3c0,0.7-0.6,1.3-1.3,1.3h-5.1
			c-0.7,0-1.3,0.6-1.3,1.3v1.5c0,1.8,1.5,3.3,3.3,3.3h4c3.7,0,6.6-2.9,6.6-6.5v-7.2c0-0.4,0.4-0.8,0.8-0.8h2c0.8,0,1.5-0.7,1.5-1.5
			v-3.3c0-0.8-0.7-1.5-1.5-1.5h-2c-0.5,0-0.8-0.4-0.8-0.8v-0.8c0-0.3,0.1-0.6,0.2-0.9l1.7-4.2c0.1-0.3,0.4-0.5,0.8-0.5h0.4
			c0.7,0,1.3-0.6,1.3-1.3v-3.6C288.4,151.5,287.8,150.9,287.1,150.9z M266.1,139.5h-3.6c-0.5,0-0.9-0.4-0.9-0.9v-1.4
			c0-0.5-0.4-0.9-0.9-0.9h-4.8c-0.5,0-0.9,0.4-0.9,0.9v1.4c0,0.5-0.4,0.9-0.9,0.9h-3.5c-0.7,0-1.3,0.6-1.3,1.3v3.9
			c0,0.7,0.6,1.3,1.3,1.3h0c0.5,0,0.9,0.4,0.9,0.9c0,19,0,19,0,20.1c0,4.1-1.2,9.2-3.1,14.9c-0.3,0.8,0.2,1.7,1,2l2.8,1
			c0.9,0.3,1.9-0.2,2.1-1c2.2-6.7,3.4-14.1,3.4-16.9v-9c0-0.5,0.4-0.9,0.9-0.9h0.9c0.8,0,1.5,0.7,1.5,1.5v18.6
			c-0.1,1-0.3,2.6-0.9,4.1c-0.3,0.7-0.1,1.6,0.6,2l2.6,1.5c0.8,0.5,2,0.2,2.4-0.7c1-2.1,1.4-4.1,1.6-5.7c0.1-0.7,0.1-1.7,0.1-1.7
			v-19.6v-4.7c0-0.8-0.7-1.5-1.5-1.5h-7.3c-0.5,0-0.9-0.4-0.9-0.9v-3c0-0.5,0.4-0.9,0.9-0.9h7.4c0.7,0,1.3-0.6,1.3-1.3v-3.9
			C267.4,140.1,266.8,139.5,266.1,139.5z M243.1,157.7c0.4,0.3,1.1,0.2,1.4-0.2l2.2-3c0.3-0.4,0.2-1-0.2-1.4l-4.7-3.3
			c-0.4-0.3-1.1-0.2-1.4,0.2l-2.2,3c-0.3,0.4-0.2,1,0.2,1.4L243.1,157.7z M243.1,145.8c0.4,0.3,1.1,0.2,1.4-0.2l2.2-3
			c0.3-0.4,0.2-1-0.2-1.4l-4.7-3.3c-0.4-0.3-1.1-0.2-1.4,0.2l-2.2,3c-0.3,0.4-0.2,1,0.2,1.4L243.1,145.8z M287.1,139.5h-5.7
			c-0.4,0-0.8-0.4-0.6-0.8l0.4-1.1c0.2-0.6-0.3-1.3-1-1.3h-3.9c-0.6,0-1.1,0.4-1.3,0.9l-0.5,1.4c-0.2,0.5-0.7,0.9-1.3,0.9h-1.8
			c-0.7,0-1.3,0.6-1.3,1.3v3.9c0,0.7,0.6,1.3,1.3,1.3h15.6c0.7,0,1.3-0.6,1.3-1.3v-3.9C288.4,140.1,287.8,139.5,287.1,139.5z
			 M170.7,139.5h-4.9c-0.5,0-0.9-0.5-0.8-1l0.3-1c0.2-0.6-0.3-1.3-1-1.3h-4.1c-0.7,0-1.4,0.5-1.6,1.1l-0.5,1.7
			c-0.1,0.3-0.3,0.5-0.6,0.5H137c-0.3,0-0.5-0.2-0.6-0.5l-0.5-1.7c-0.2-0.7-0.9-1.1-1.6-1.1h-4.1c-0.7,0-1.2,0.6-1,1.3l0.3,1
			c0.2,0.5-0.2,1-0.8,1h-4.9c-0.8,0-1.5,0.7-1.5,1.5v3.6c0,0.8,0.7,1.5,1.5,1.5h19.3c0.5,0,0.8,0.4,0.8,0.8v3.3
			c0,0.4-0.4,0.8-0.8,0.8H127c-0.9,0-1.7,0.7-1.7,1.6v30.9c0,0.9,0.7,1.6,1.7,1.6h40.5c0.9,0,1.7-0.7,1.7-1.6v-30.9
			c0-0.9-0.7-1.6-1.7-1.6h-16.1c-0.5,0-0.8-0.4-0.8-0.8v-3.3c0-0.4,0.4-0.8,0.8-0.8h19.3c0.8,0,1.5-0.7,1.5-1.5V141
			C172.1,140.2,171.5,139.5,170.7,139.5z M161.8,156.7c0.7,0,1.3,0.6,1.3,1.3v19.8c0,0.7-0.6,1.3-1.3,1.3h-29.2
			c-0.7,0-1.3-0.6-1.3-1.3V158c0-0.7,0.6-1.3,1.3-1.3H161.8z M136.1,175.5h22.2c0.7,0,1.2-0.5,1.2-1.2v-2.9c0-0.6-0.5-1.2-1.2-1.2
			h-22.2c-0.7,0-1.2,0.5-1.2,1.2v2.9C134.9,175,135.5,175.5,136.1,175.5z M136.1,165.6h22.2c0.7,0,1.2-0.5,1.2-1.2v-2.9
			c0-0.6-0.5-1.2-1.2-1.2h-22.2c-0.7,0-1.2,0.5-1.2,1.2v2.9C134.9,165.1,135.5,165.6,136.1,165.6z M97.7,158.1
			c0.9-1.2,1.3-2.7,1.3-4.5c0-5.2-3.3-10-8.1-11.8c-5.1-1.9-10.4-0.2-14.9,4.5c0.5-2,0.8-4.1,0.8-6c0-10-6.6-13.7-10.7-13.7
			c-2.3,0-4.3,1-5.5,2.6c-1.3,1.8-1.5,4.3-0.6,6.9c0.8,2.1,1.2,4.7,1.3,7.8c-0.9-1.6-1.9-3-3.1-4.3c-2.4-2.4-5-3.7-7.6-3.7
			c-3.6,0-7.5,2.3-7.5,6.6c0,3,2.1,5.2,4.2,7.6c1.3,1.5,2.7,3,3.9,4.9c-2-1.7-4.3-3-6.7-3.3c-2.4-0.3-4.7,0.5-6.5,2.2
			c-1.4,1.3-2.2,3.1-2.2,5c0,2.8,1.7,5.4,4.6,7.1l0.2,0.1c6.1,3.5,9.5,5.5,13.1,11.5c0.6,0.9,1.1,1.9,1.6,3
			c2.7,5.1,5.8,10.9,13.7,10.9c4.5,0,8.7-1.7,11.8-4.7c2.2-2.1,3.7-4.7,4.4-7.5c1.4,0.5,3,0.7,4.6,0.7c2.9,0,5.8-0.8,7.8-2.3
			c2.8-2.1,4.6-6.2,4.6-10.6C102.4,162.9,100.5,159.5,97.7,158.1z M95.8,175.2c-2.4,1.8-7.1,2.1-9.8,0.8c0-0.3,0-0.5,0-0.8
			c0-0.9-0.7-1.6-1.7-1.6c-0.9,0-1.7,0.7-1.7,1.6c0,3.5-1.4,6.8-3.9,9.3c-2.5,2.4-5.9,3.8-9.5,3.8c-5.9,0-8.2-4.5-10.7-9.2
			c-0.5-1-1.1-2.1-1.7-3.1c-4.1-6.8-8.1-9.1-14.3-12.7l-0.2-0.1c-1.9-1.1-3-2.6-3-4.3c0-1,0.4-2,1.2-2.7c1.1-1.1,2.3-1.5,3.7-1.3
			c3.5,0.4,7.5,4.4,9.8,8.1c0.5,0.8,1.5,1,2.3,0.5c0.6-0.3,0.8-0.9,0.8-1.5c0,0,0,0,0,0c-0.6-6.9-4.2-10.9-7.1-14.1
			c-1.9-2.1-3.4-3.8-3.4-5.5c0-1.2,0.9-3.4,4.1-3.4c1.6,0,3.5,1,5.1,2.7c3.1,3.2,5.1,8.4,4.9,12.4c0,0.5-0.1,0.9-0.2,1.3
			c-0.2,0.9,0.4,1.7,1.3,1.9c0.9,0.2,1.8-0.4,2-1.2c0.1-0.5,0.2-1.1,0.2-1.8c1.1-8.6,0.8-15-0.8-19.5c-0.6-1.6-0.5-3,0.2-3.9
			c0.6-0.8,1.6-1.3,2.8-1.3c1.2,0,3.1,0.6,4.6,2.2c1.3,1.3,2.8,3.8,2.8,8.2c0,4.1-1.5,8.9-3.9,12.4c-0.3,0.5-0.4,1.1-0.1,1.7
			c0.3,0.5,0.9,0.9,1.5,0.9c1,0,2.2,0.6,2.5,0.8c0.3,0.3,0.8,0.5,1.2,0.5c0.4,0,0.8-0.1,1.1-0.4c0.7-0.6,0.7-1.6,0.1-2.3
			c-0.2-0.2-0.6-0.5-0.9-0.7c1.8-3,3.9-5.4,6.1-6.9c2.8-2,5.8-2.4,8.6-1.3c3.4,1.3,5.9,4.9,5.9,8.7c0,2.6-1.4,4.1-3.9,4.1
			c-1.9,0-3.1-0.8-4.2-2.9c0,0,0,0,0,0c-0.3-0.5-0.8-0.8-1.4-0.8c-2.5-0.1-5,1-6.5,2.9c-1.6,2-2.1,4.5-1.3,6.9
			c0.6,2,1.9,3.5,3.7,4.5c2.2,1.1,5,1.2,7.8,0.2c0.4-0.1,0.8-0.4,1-0.8c0.2-0.4,0.2-0.9,0-1.3c-0.6-1.5-0.5-3.1,0.3-4.1
			c0.7-1,1.9-1.5,3.5-1.5c2.2,0,4.4,2.3,4.4,6.6C99.1,170.5,97.8,173.7,95.8,175.2z M87.3,165.7c-1.4,0.2-2.7,0.1-3.7-0.4
			c-1-0.5-1.7-1.4-2.1-2.5c-0.4-1.4-0.2-2.8,0.8-4c0.7-0.9,1.8-1.5,2.9-1.6c0.7,1.1,1.8,2.3,3.3,3c0,0,0,0.1-0.1,0.1
			C87.4,161.8,87,163.8,87.3,165.7z M77.5,171c-0.8-0.4-1.8-0.2-2.3,0.6c-1.4,2.4-4.1,2.7-5.3,2.8c-1.2-1.3-2.6-2.4-4.2-2.9
			c-0.9-0.3-1.8,0.2-2.1,1c-0.3,0.9,0.2,1.8,1.1,2.1c2,0.6,4.1,3.3,4.3,4.6c0.1,0.8,0.8,1.3,1.6,1.3c0.1,0,0.2,0,0.3,0
			c0.9-0.2,1.5-1,1.4-1.9c-0.1-0.4-0.2-0.8-0.4-1.2c2-0.4,4.6-1.4,6.2-4.2C78.6,172.5,78.3,171.5,77.5,171z M72.7,166.2
			c0.7,0,1.3-1,1.3-2.3c0-1.3-0.6-2.3-1.3-2.3c-0.7,0-1.3,1-1.3,2.3C71.4,165.1,72,166.2,72.7,166.2z M64.8,168.4
			c0.7,0,1.3-1,1.3-2.3c0-1.3-0.6-2.3-1.3-2.3c-0.7,0-1.3,1-1.3,2.3C63.4,167.4,64,168.4,64.8,168.4z"/>
	</g>
</g>
<text transform="matrix(1 0 0 1 -356.7944 177.2563)" class="st3" style="font-family:'FZZZHUNHJW--GB1-0'; font-size:50px;">餐行健</text>
<g>
	<g>
		<path class="st4" d="M-2069.2,404.1h-43.4v-6.9c0-0.7-0.6-1.3-1.3-1.3h-6.3c-0.7,0-1.3,0.6-1.3,1.3v6.9h-41.1
			c-3.7,0-6.7,2.9-6.7,6.6v62.6c0,7.6-1.9,15.1-5.5,21.9l-2,3.9c-0.3,0.6-0.1,1.4,0.5,1.7l5.4,3c0.6,0.4,1.5,0.1,1.8-0.6l5.4-11.3
			c2.1-5.9,3.2-12.2,3.2-18.5V414c0-0.7,0.6-1.3,1.3-1.3h89.9c0.7,0,1.3-0.6,1.3-1.3v-6.1C-2067.9,404.6-2068.5,404.1-2069.2,404.1z
			 M-2131.5,414.2h-6.3c-0.7,0-1.3,0.6-1.3,1.3v5.2h-14.3c-0.7,0-1.3,0.6-1.3,1.3v6.1c0,0.7,0.6,1.3,1.3,1.3h8.5l-9,9.5
			c-0.5,0.5-0.5,1.3,0.1,1.8l4.6,4.2c0.5,0.5,1.3,0.4,1.8-0.1l8.3-8.9v11.5c0,0.7,0.6,1.3,1.3,1.3h6.3c0.7,0,1.3-0.6,1.3-1.3V436
			l8.3,8.7c0.5,0.5,1.3,0.5,1.8,0.1l4.5-4.2c0.5-0.5,0.5-1.3,0.1-1.8l-9.1-9.5h8.6c0.7,0,1.3-0.6,1.3-1.3v-6.1
			c0-0.7-0.6-1.3-1.3-1.3h-14.3v-5.2C-2130.2,414.8-2130.8,414.2-2131.5,414.2z M-2087.8,414.2h-6.3c-0.7,0-1.3,0.6-1.3,1.3v5.2
			h-14.3c-0.7,0-1.3,0.6-1.3,1.3v6.1c0,0.7,0.6,1.3,1.3,1.3h8.5l-9.1,9.5c-0.5,0.5-0.5,1.3,0.1,1.8l4.5,4.2c0.5,0.5,1.3,0.5,1.8-0.1
			l8.4-8.9v11.5c0,0.7,0.6,1.3,1.3,1.3h6.3c0.7,0,1.3-0.6,1.3-1.3V436l8.2,8.7c0.5,0.5,1.3,0.5,1.8,0.1l4.5-4.2
			c0.5-0.5,0.5-1.3,0.1-1.8l-8.9-9.5h8.5c0.7,0,1.3-0.6,1.3-1.3v-6.1c0-0.7-0.6-1.3-1.3-1.3h-14.1v-5.2
			C-2086.5,414.8-2087.1,414.2-2087.8,414.2z M-2069.3,480.5h-38V475h35.2c0.7,0,1.3-0.6,1.3-1.3v-6.1c0-0.7-0.6-1.3-1.3-1.3h-35.2
			v-5.5h25.5c2.5,0,5-0.7,7.1-2l3.7-2.3c0.6-0.4,0.8-1.1,0.4-1.7l-3.2-5.2c-0.4-0.6-1.2-0.8-1.8-0.4l-1.7,1c-2.1,1.3-4.6,2-7,2
			h-64.1c-0.7,0-1.3,0.6-1.3,1.3v6.1c0,0.7,0.6,1.3,1.3,1.3h32.2v5.5h-36.5c0,4.8,3.9,8.7,8.8,8.7h27.7v5.5h-39.3
			c0,4.8,3.9,8.7,8.8,8.7h30.5l-0.1,4.4c0,0.9-0.7,1.6-1.6,1.6h-12.9c-0.7,0-1.3,0.6-1.3,1.3v6.1c0,0.7,0.6,1.3,1.3,1.3h17.5
			c3.2,0,5.9-2.6,5.9-5.8l0-8.9h38c0.7,0,1.3-0.6,1.3-1.3v-6.1C-2068,481.1-2068.6,480.5-2069.3,480.5z M-1757.5,411.7
			c0.5,0.5,1.3,0.5,1.8,0l4.3-4.2c0.5-0.5,0.5-1.3,0-1.8l-7.5-7.5c-0.5-0.5-1.3-0.5-1.8,0l-4.3,4.3c-0.5,0.5-0.5,1.3,0,1.8
			L-1757.5,411.7z M-1713.3,411.7c0.5,0.5,1.3,0.5,1.8,0l7.5-7.4c0.5-0.5,0.5-1.3,0-1.8l-4.3-4.3c-0.5-0.5-1.3-0.5-1.8,0l-7.5,7.5
			c-0.5,0.5-0.5,1.3,0,1.8L-1713.3,411.7z M-1680.8,479.1h-49.4v-12.7h38.6c2.4,0,4.3-1.9,4.3-4.2v-43.3c0-2.3-1.9-4.2-4.3-4.2
			h-85.9c-2.4,0-4.3,1.9-4.3,4.2v43.3c0,2.3,1.9,4.2,4.3,4.2h38.5v12.7h-50.6c0,4.8,3.9,8.7,8.8,8.7h41.8v14.9
			c0,0.7,0.6,1.3,1.3,1.3h6.3c0.7,0,1.3-0.6,1.3-1.3v-14.9h49.4c0.7,0,1.3-0.6,1.3-1.3v-6.1
			C-1679.5,479.7-1680.1,479.1-1680.8,479.1z M-1730.2,423.3h32.8c0.7,0,1.3,0.6,1.3,1.3v11.7h-34V423.3z M-1730.2,444.9h34v11.5
			c0,0.7-0.6,1.3-1.3,1.3h-32.8V444.9z M-1739,457.7h-32.6c-0.7,0-1.3-0.6-1.3-1.3v-11.5h33.9V457.7z M-1739,436.3h-33.9v-11.7
			c0-0.7,0.6-1.3,1.3-1.3h32.6V436.3z M-1936,398.9c-0.4-0.6-1.1-0.8-1.8-0.5l-5.8,3.3c-1.8,1-3.9,1.6-6,1.6h-31.9
			c-0.7,0-1.3,0.6-1.3,1.3v6.1c0,0.7,0.6,1.3,1.3,1.3h18.9h0.5v19.4h-0.5h-20.2c0,4.8,3.9,8.7,8.8,8.7h11.4h0.5v16.9
			c0,1.1,0,2.2-0.1,3.2h-0.4h-20.2c0,4.8,3.9,8.7,8.8,8.7h8.7h2c-1.5,7.2-4.3,14-8.3,20.3l-6,9.5c-0.4,0.6-0.2,1.4,0.4,1.7l5.5,3.4
			c0.6,0.4,1.4,0.2,1.8-0.4l5.9-9.5c5-7.7,8.3-16.2,9.9-25h19.6c0.7,0,1.3-0.6,1.3-1.3v-6.1c0-0.7-0.6-1.3-1.3-1.3h-18.7
			c0.1-1.1,0.1-2.1,0.1-3.2V440h18.6c0.7,0,1.3-0.6,1.3-1.3v-6.1c0-0.7-0.6-1.3-1.3-1.3h-18.6V412h5.8c2.1,0,4.1-0.5,5.9-1.6
			l7.9-4.4c0.6-0.3,0.8-1.1,0.5-1.7L-1936,398.9z M-1873.9,403.3h-54c-0.2,0-0.5,0.2-0.5,0.4v7.8c0,0.2,0.2,0.4,0.5,0.4h22.9v14.1
			h-22.9c-0.2,0-0.5,0.2-0.5,0.4v7.8c0,0.2,0.2,0.4,0.5,0.4h22.9v14.1h-22.9c-0.2,0-0.5,0.2-0.5,0.4v7.8c0,0.2,0.2,0.4,0.5,0.4h22.9
			v14.1h-22.9c-0.2,0-0.5,0.2-0.5,0.4v7.8c0,0.2,0.2,0.4,0.5,0.4h22.9v22.4c0,0.7,0.6,1.3,1.3,1.3h6.3c0.7,0,1.3-0.6,1.3-1.3v-22.4
			h22.2c0.7,0,1.3-0.6,1.3-1.3v-6.1c0-0.7-0.6-1.3-1.3-1.3h-22.2v-14.1h22.2c0.7,0,1.3-0.6,1.3-1.3v-6.1c0-0.7-0.6-1.3-1.3-1.3
			h-22.2v-14.1h22.2c0.7,0,1.3-0.6,1.3-1.3v-6.1c0-0.7-0.6-1.3-1.3-1.3h-22.2V412h22.2c0.7,0,1.3-0.6,1.3-1.3v-6.1
			C-1872.6,403.9-1873.2,403.3-1873.9,403.3z M-1492.2,476.1h-44.8v-12.9v-3.4h32.2c0.7,0,1.3-0.6,1.3-1.3v-6.4
			c0-0.7-0.6-1.3-1.3-1.3h-32.2v-19.6c0-0.7-0.6-1.3-1.3-1.3h-6.3c-0.7,0-1.3,0.6-1.3,1.3v19.6h-26.2c-0.3,0-0.5-0.4-0.3-0.6
			l18.5-27.7h57.6c0.7,0,1.3-0.6,1.3-1.3v-6.1c0-0.7-0.6-1.3-1.3-1.3h-51.9l7.4-11.2l-7.6-4.9l-10.7,16h-1.1h-32.9
			c0,4.8,3.9,8.7,8.8,8.7h18h1.4l-18,27c-1.8,2.6-1.4,6.2,1.1,8.5c1.3,1.2,3,1.7,4.8,1.7h31v3.4v12.9h-51.2c0,4.8,3.9,8.7,8.8,8.7
			h42.4v17.9c0,0.7,0.6,1.3,1.3,1.3h6.3c0.7,0,1.3-0.6,1.3-1.3v-17.9h44.8c0.7,0,1.3-0.6,1.3-1.3v-6.1
			C-1490.9,476.7-1491.5,476.1-1492.2,476.1z"/>
	</g>
</g>
<g>
	<g class="st5">
		
			<image style="overflow:visible;" width="1050" height="469" xlink:href="2A65C0CD6E23F59E.png"  transform="matrix(0.24 0 0 0.24 -2189.446 216.2222)">
		</image>
	</g>
	<g class="st5">
		
			<image style="overflow:visible;" width="1050" height="469" xlink:href="2A65C0CD6E23F5A2.png"  transform="matrix(0.24 0 0 0.24 -1739.4685 216.2222)">
		</image>
	</g>
	<g>
		<path class="st6" d="M-1825.8,145.5c3.7,0,6.7,3.2,6.7,7.1v50.8c0,3.9-3,7.1-6.7,7.1c-3.7,0-6.7-3.2-6.7-7.1v-50.8
			C-1832.5,148.7-1829.5,145.5-1825.8,145.5z"/>
		<g>
			<g>
				<path class="st7" d="M-1719.6-245c-12.7,0-24.9,2.2-36.2,6.3l2.7,6.7c3.9,5.3,10,12.2,15.7,13.6c5.7-1.3,11.7-2,17.8-2
					c45.5,0,82.3,37.2,82.3,83c0,5.7-0.6,11.3-1.7,16.7c1.5,2.8,6,10.5,13.3,15.8l7,2.8c3.8-11.1,5.9-22.9,5.9-35.3
					C-1612.8-196.8-1660.6-245-1719.6-245z M-1719.6-197.9c-6.6,0-12.9,1.1-18.8,3l1.4,3.6c3.7,5.7,10.9,15.2,19.6,18l0,0.1
					c17.9,1.1,32.2,15.6,33.3,33.6h0.1c0,0,7.5,13.5,19.7,19.1l2.2,0.9c1.7-5.6,2.6-11.6,2.6-17.8
					C-1659.5-170.8-1686.4-197.9-1719.6-197.9z"/>
			</g>
		</g>
		<path class="st8" d="M-1851.2,197.2c0,0,25,0,40.8,0c14.1,0,12.6,17.9,12.6,17.9s-24.2,0-40,0
			C-1852.3,215.1-1851.2,197.2-1851.2,197.2z"/>
		<path class="st9" d="M-1824.5,145.5c3.7,0,6.7,3.2,6.7,7.1v50.8c0,3.9-3,7.1-6.7,7.1c-3.7,0-6.7-3.2-6.7-7.1v-50.8
			C-1831.1,148.7-1828.1,145.5-1824.5,145.5z"/>
		<path class="st10" d="M-1602.9,117.9C-1623,76.4-1664.7-6.5-1689.1-55l0,0l-0.1,0c-11.4-22.5-19-37.7-19-37.7
			s-17.8-50.3-47.7-51.5l0-0.1l-63.8,0.1c0,0-1,35.9,27.1,35.9c10,0,31.4,0,36.5,0l0,0.1c0,0,6.6,2,18.9,29.1l0.7,0l-0.5,0.3
			l12.1,24.4l-74.9,163.9c-4.9,8.1-13.5,18.9-24.4,20.1c-0.5,0-16.8,0-19.9,0l-115.7-222.9l-28.9,14.5l108.1,208.4
			c-52.8,0-129,0-167.5,0c-30.4,0-29.4,31.4-29.4,31.4l254.3-0.2c0,0,37.5,1.9,52.7-29l0,0l64.6-148.1l87.1,175.7
			C-1618.8,159.3-1589.5,145.6-1602.9,117.9z"/>
		<path class="st11" d="M-1624,74.9c-5.9-11.9-12.3-24.7-18.7-37.6l-29,15.1l18.7,37.6L-1624,74.9z"/>
		<path class="st12" d="M-1988.7-78.8l17.3,33.3c3.5,0.4,7.1,0.7,10.9,0.7c9,0,17.3-1.4,24-3.7l-18.4-35.4c-1.8-0.1-3.7-0.2-5.6-0.2
			C-1971.4-84.1-1981.3-82.1-1988.7-78.8z"/>
		<polygon class="st12" points="-1706.1,-15.9 -1725.2,-53.7 -1741.5,-18.2 -1722,20.3 		"/>
		<path class="st12" d="M-1872.8,144.3l-13-22.1l3.2,6.2c-52.8,0-129,0-167.5,0c-30.4,0-29.4,31.4-29.4,31.4l230.3-0.2
			C-1860.8,157.9-1868.9,149.4-1872.8,144.3z"/>
		<path class="st13" d="M-1945.9,144.8c0-5.8-0.6-11.4-1.6-16.4c-12.1,0-24.3,0-36,0c-1,5-1.6,10.6-1.6,16.4
			c0,5.3,0.5,10.3,1.3,14.9l36.6,0C-1946.4,155.1-1945.9,150.1-1945.9,144.8z"/>
		<path class="st8" d="M-2033.5-109.5c0,0,55.1,0,90.7,0c31,0,29.5,35.9,29.5,35.9s-57.5,0-93,0
			C-2035.7-73.6-2033.5-109.5-2033.5-109.5z"/>
		<path class="st7" d="M-2057.5,17.6c-73.2,0-132.5,59.3-132.5,132.4c0,73.1,59.3,132.4,132.5,132.4c73.2,0,132.5-59.3,132.5-132.4
			C-1925,76.9-1984.3,17.6-2057.5,17.6z M-2057.5,242.1c-50.8,0-92-41.2-92-92c0-50.8,41.2-92,92-92c50.8,0,92,41.2,92,92
			C-1965.5,200.9-2006.7,242.1-2057.5,242.1z"/>
		<path class="st8" d="M-2057.5,43.8c-58.7,0-106.3,47.6-106.3,106.3c0,58.7,47.6,106.3,106.3,106.3c58.7,0,106.3-47.6,106.3-106.3
			C-1951.2,91.4-1998.8,43.8-2057.5,43.8z M-2057.5,242.1c-50.8,0-92-41.2-92-92c0-50.8,41.2-92,92-92s92,41.2,92,92
			C-1965.5,200.9-2006.7,242.1-2057.5,242.1z"/>
		<path class="st7" d="M-1610.2,17.6c-73.2,0-132.5,59.3-132.5,132.4c0,73.1,59.3,132.4,132.5,132.4c73.2,0,132.5-59.3,132.5-132.4
			C-1477.7,76.9-1537.1,17.6-1610.2,17.6z M-1610.2,242.1c-50.8,0-92-41.2-92-92c0-50.8,41.2-92,92-92c50.8,0,92,41.2,92,92
			C-1518.2,200.9-1559.4,242.1-1610.2,242.1z"/>
		<path class="st8" d="M-1610.2,43.8c-58.7,0-106.3,47.6-106.3,106.3c0,58.7,47.6,106.3,106.3,106.3c58.7,0,106.3-47.6,106.3-106.3
			C-1503.9,91.4-1551.5,43.8-1610.2,43.8z M-1610.2,242.1c-50.8,0-92-41.2-92-92c0-50.8,41.2-92,92-92c50.8,0,92,41.2,92,92
			C-1518.2,200.9-1559.4,242.1-1610.2,242.1z"/>
	</g>
</g>
<rect x="-942.8" class="st0" width="320" height="320"/>
<g>
	<g>
		<path class="st4" d="M-859.9,236.2h-13.4v-2.1c0-0.2-0.2-0.4-0.4-0.4h-1.9c-0.2,0-0.4,0.2-0.4,0.4v2.1h-12.7c-1.1,0-2.1,0.9-2.1,2
			v19.4c0,2.4-0.6,4.7-1.7,6.8l-0.6,1.2c-0.1,0.2,0,0.4,0.2,0.5l1.7,0.9c0.2,0.1,0.5,0,0.6-0.2l1.7-3.5c0.7-1.8,1-3.8,1-5.7v-18.4
			c0-0.2,0.2-0.4,0.4-0.4h27.8c0.2,0,0.4-0.2,0.4-0.4v-1.9C-859.5,236.4-859.7,236.2-859.9,236.2z M-879.2,239.4h-1.9
			c-0.2,0-0.4,0.2-0.4,0.4v1.6h-4.4c-0.2,0-0.4,0.2-0.4,0.4v1.9c0,0.2,0.2,0.4,0.4,0.4h2.6l-2.8,3c-0.1,0.2-0.1,0.4,0,0.6l1.4,1.3
			c0.2,0.1,0.4,0.1,0.6,0l2.6-2.8v3.6c0,0.2,0.2,0.4,0.4,0.4h1.9c0.2,0,0.4-0.2,0.4-0.4v-3.5l2.6,2.7c0.2,0.2,0.4,0.2,0.6,0l1.4-1.3
			c0.2-0.1,0.2-0.4,0-0.5l-2.8-3h2.7c0.2,0,0.4-0.2,0.4-0.4v-1.9c0-0.2-0.2-0.4-0.4-0.4h-4.4v-1.6
			C-878.8,239.6-879,239.4-879.2,239.4z M-859.9,259.9h-11.8v-1.7h10.9c0.2,0,0.4-0.2,0.4-0.4v-1.9c0-0.2-0.2-0.4-0.4-0.4h-10.9
			v-1.7h7.9c0.8,0,1.5-0.2,2.2-0.6l1.2-0.7c0.2-0.1,0.2-0.4,0.1-0.5l-1-1.6c-0.1-0.2-0.4-0.2-0.5-0.1l-0.5,0.3
			c-0.7,0.4-1.4,0.6-2.2,0.6h-19.8c-0.2,0-0.4,0.2-0.4,0.4v1.9c0,0.2,0.2,0.4,0.4,0.4h10v1.7h-11.3c0,1.5,1.2,2.7,2.7,2.7h8.6v1.7
			h-12.2c0,1.5,1.2,2.7,2.7,2.7h9.4l0,1.4c0,0.3-0.2,0.5-0.5,0.5h-4c-0.2,0-0.4,0.2-0.4,0.4v1.9c0,0.2,0.2,0.4,0.4,0.4h5.4
			c1,0,1.8-0.8,1.8-1.8l0-2.8h11.8c0.2,0,0.4-0.2,0.4-0.4v-1.9C-859.5,260.1-859.7,259.9-859.9,259.9z M-865.7,239.4h-1.9
			c-0.2,0-0.4,0.2-0.4,0.4v1.6h-4.4c-0.2,0-0.4,0.2-0.4,0.4v1.9c0,0.2,0.2,0.4,0.4,0.4h2.6l-2.8,3c-0.1,0.2-0.1,0.4,0,0.5l1.4,1.3
			c0.2,0.1,0.4,0.1,0.6,0l2.6-2.8v3.6c0,0.2,0.2,0.4,0.4,0.4h1.9c0.2,0,0.4-0.2,0.4-0.4v-3.5l2.5,2.7c0.1,0.2,0.4,0.2,0.6,0l1.4-1.3
			c0.2-0.1,0.2-0.4,0-0.5l-2.8-3h2.6c0.2,0,0.4-0.2,0.4-0.4v-1.9c0-0.2-0.2-0.4-0.4-0.4h-4.4v-1.6
			C-865.3,239.6-865.4,239.4-865.7,239.4z M-749.8,238.6c0.2,0.2,0.4,0.2,0.6,0l2.3-2.3c0.2-0.2,0.2-0.4,0-0.5l-1.3-1.3
			c-0.2-0.2-0.4-0.2-0.6,0l-2.3,2.3c-0.2,0.2-0.2,0.4,0,0.5L-749.8,238.6z M-763.4,238.6c0.2,0.2,0.4,0.2,0.6,0l1.3-1.3
			c0.2-0.2,0.2-0.4,0-0.5l-2.3-2.3c-0.2-0.2-0.4-0.2-0.6,0l-1.3,1.3c-0.2,0.2-0.2,0.4,0,0.5L-763.4,238.6z M-739.7,259.5H-755v-3.9
			h11.9c0.7,0,1.3-0.6,1.3-1.3v-13.4c0-0.7-0.6-1.3-1.3-1.3h-26.6c-0.7,0-1.3,0.6-1.3,1.3v13.4c0,0.7,0.6,1.3,1.3,1.3h11.9v3.9
			h-15.7c0,1.5,1.2,2.7,2.7,2.7h12.9v4.6c0,0.2,0.2,0.4,0.4,0.4h1.9c0.2,0,0.4-0.2,0.4-0.4v-4.6h15.3c0.2,0,0.4-0.2,0.4-0.4v-1.9
			C-739.3,259.7-739.5,259.5-739.7,259.5z M-755,242.2h10.1c0.2,0,0.4,0.2,0.4,0.4v3.6H-755V242.2z M-755,248.9h10.5v3.6
			c0,0.2-0.2,0.4-0.4,0.4H-755V248.9z M-757.7,252.9h-10.1c-0.2,0-0.4-0.2-0.4-0.4v-3.6h10.5V252.9z M-757.7,246.2h-10.5v-3.6
			c0-0.2,0.2-0.4,0.4-0.4h10.1V246.2z M-799.5,236h-16.7c-0.1,0-0.1,0.1-0.1,0.1v2.4c0,0.1,0.1,0.1,0.1,0.1h7.1v4.4h-7.1
			c-0.1,0-0.1,0.1-0.1,0.1v2.4c0,0.1,0.1,0.1,0.1,0.1h7.1v4.4h-7.1c-0.1,0-0.1,0.1-0.1,0.1v2.4c0,0.1,0.1,0.1,0.1,0.1h7.1v4.4h-7.1
			c-0.1,0-0.1,0.1-0.1,0.1v2.4c0,0.1,0.1,0.1,0.1,0.1h7.1v6.9c0,0.2,0.2,0.4,0.4,0.4h1.9c0.2,0,0.4-0.2,0.4-0.4v-6.9h6.9
			c0.2,0,0.4-0.2,0.4-0.4v-1.9c0-0.2-0.2-0.4-0.4-0.4h-6.9v-4.4h6.9c0.2,0,0.4-0.2,0.4-0.4v-1.9c0-0.2-0.2-0.4-0.4-0.4h-6.9v-4.4
			h6.9c0.2,0,0.4-0.2,0.4-0.4v-1.9c0-0.2-0.2-0.4-0.4-0.4h-6.9v-4.4h6.9c0.2,0,0.4-0.2,0.4-0.4v-1.9
			C-799.1,236.2-799.2,236-799.5,236z M-818.7,234.7c-0.1-0.2-0.4-0.3-0.5-0.1l-1.8,1c-0.6,0.3-1.2,0.5-1.9,0.5h-9.9
			c-0.2,0-0.4,0.2-0.4,0.4v1.9c0,0.2,0.2,0.4,0.4,0.4h5.9h0.2v6h-0.2h-6.3c0,1.5,1.2,2.7,2.7,2.7h3.5h0.2v5.2c0,0.3,0,0.7,0,1h-0.1
			h-6.3c0,1.5,1.2,2.7,2.7,2.7h2.7h0.6c-0.5,2.2-1.3,4.3-2.6,6.3l-1.8,2.9c-0.1,0.2-0.1,0.4,0.1,0.5l1.7,1.1
			c0.2,0.1,0.4,0.1,0.6-0.1l1.8-2.9c1.5-2.4,2.6-5,3.1-7.8h6.1c0.2,0,0.4-0.2,0.4-0.4V254c0-0.2-0.2-0.4-0.4-0.4h-5.8
			c0-0.3,0-0.7,0-1v-5.2h5.7c0.2,0,0.4-0.2,0.4-0.4v-1.9c0-0.2-0.2-0.4-0.4-0.4h-5.7v-6h1.8c0.6,0,1.3-0.2,1.8-0.5l2.4-1.4
			c0.2-0.1,0.3-0.3,0.1-0.5L-818.7,234.7z M-681.3,258.5h-13.9v-4v-1.1h10c0.2,0,0.4-0.2,0.4-0.4v-2c0-0.2-0.2-0.4-0.4-0.4h-10v-6.1
			c0-0.2-0.2-0.4-0.4-0.4h-1.9c-0.2,0-0.4,0.2-0.4,0.4v6.1h-8.1c-0.1,0-0.2-0.1-0.1-0.2l5.7-8.6h17.8c0.2,0,0.4-0.2,0.4-0.4v-1.9
			c0-0.2-0.2-0.4-0.4-0.4h-16.1l2.3-3.5l-2.3-1.5l-3.3,5h-0.3h-10.2c0,1.5,1.2,2.7,2.7,2.7h5.6h0.4l-5.6,8.4
			c-0.5,0.8-0.4,1.9,0.3,2.6c0.4,0.4,0.9,0.5,1.5,0.5h9.6v1.1v4h-15.8c0,1.5,1.2,2.7,2.7,2.7h13.1v5.5c0,0.2,0.2,0.4,0.4,0.4h1.9
			c0.2,0,0.4-0.2,0.4-0.4v-5.5h13.9c0.2,0,0.4-0.2,0.4-0.4v-1.9C-680.9,258.7-681.1,258.5-681.3,258.5z"/>
	</g>
</g>
<g>
	<g class="st5">
		
			<image style="overflow:visible;" width="533" height="353" xlink:href="2A65C0CD6E23F5A5.png"  transform="matrix(0.24 0 0 0.24 -921.9933 153.2472)">
		</image>
	</g>
	<g class="st5">
		
			<image style="overflow:visible;" width="533" height="353" xlink:href="2A65C0CD6E23F5A6.png"  transform="matrix(0.24 0 0 0.24 -782.7031 153.2472)">
		</image>
	</g>
	<g>
		<path class="st6" d="M-784.6,156.2c1.1,0,2.1,1,2.1,2.2v15.7c0,1.2-0.9,2.2-2.1,2.2c-1.1,0-2.1-1-2.1-2.2v-15.7
			C-786.6,157.2-785.7,156.2-784.6,156.2z"/>
		<g>
			<g>
				<path class="st7" d="M-751.7,35.3c-3.9,0-7.7,0.7-11.2,2l0.8,2.1c1.2,1.7,3.1,3.8,4.9,4.2c1.8-0.4,3.6-0.6,5.5-0.6
					c14.1,0,25.5,11.5,25.5,25.7c0,1.8-0.2,3.5-0.5,5.1c0.4,0.8,1.8,3.3,4.1,4.9l2.2,0.9c1.2-3.4,1.8-7.1,1.8-10.9
					C-718.6,50.2-733.4,35.3-751.7,35.3z M-751.7,49.9c-2,0-4,0.3-5.8,0.9l0.4,1.1c1.1,1.8,3.4,4.7,6.1,5.6l0,0
					c5.5,0.4,10,4.8,10.3,10.4h0c0,0,2.3,4.2,6.1,5.9l0.7,0.3c0.5-1.7,0.8-3.6,0.8-5.5C-733.1,58.3-741.4,49.9-751.7,49.9z"/>
			</g>
		</g>
		<path class="st8" d="M-792.4,172.2c0,0,7.7,0,12.6,0c4.3,0,3.9,5.6,3.9,5.6s-7.5,0-12.4,0C-792.8,177.8-792.4,172.2-792.4,172.2z"
			/>
		<path class="st9" d="M-784.2,156.2c1.1,0,2.1,1,2.1,2.2v15.7c0,1.2-0.9,2.2-2.1,2.2c-1.1,0-2.1-1-2.1-2.2v-15.7
			C-786.2,157.2-785.3,156.2-784.2,156.2z"/>
		<path class="st10" d="M-715.6,147.7c-6.2-12.8-19.1-38.5-26.7-53.5l0,0l0,0c-3.5-7-5.9-11.7-5.9-11.7s-5.5-15.6-14.8-15.9l0,0
			l-19.7,0c0,0-0.3,11.1,8.4,11.1c3.1,0,9.7,0,11.3,0l0,0c0,0,2,0.6,5.9,9l0.2,0l-0.2,0.1l3.7,7.5l-23.2,50.7
			c-1.5,2.5-4.2,5.9-7.6,6.2c-0.2,0-5.2,0-6.2,0l-35.8-69l-8.9,4.5l33.5,64.5c-16.3,0-39.9,0-51.8,0c-9.4,0-9.1,9.7-9.1,9.7
			l78.7-0.1c0,0,11.6,0.6,16.3-9l0,0l20-45.8l27,54.4C-720.5,160.5-711.4,156.2-715.6,147.7z"/>
		<path class="st11" d="M-722.1,134.4c-1.8-3.7-3.8-7.6-5.8-11.6l-9,4.7l5.8,11.7L-722.1,134.4z"/>
		<path class="st12" d="M-835,86.8l5.3,10.3c1.1,0.1,2.2,0.2,3.4,0.2c2.8,0,5.3-0.4,7.4-1.1l-5.7-11c-0.6,0-1.2-0.1-1.7-0.1
			C-829.6,85.2-832.7,85.8-835,86.8z"/>
		<polygon class="st12" points="-747.5,106.2 -753.4,94.5 -758.5,105.5 -752.4,117.5 		"/>
		<path class="st12" d="M-799.1,155.8l-4-6.8l1,1.9c-16.3,0-39.9,0-51.8,0c-9.4,0-9.1,9.7-9.1,9.7l71.3-0.1
			C-795.4,160-797.9,157.4-799.1,155.8z"/>
		<path class="st13" d="M-821.7,156c0-1.8-0.2-3.5-0.5-5.1c-3.7,0-7.5,0-11.1,0c-0.3,1.6-0.5,3.3-0.5,5.1c0,1.6,0.1,3.2,0.4,4.6
			l11.3,0C-821.9,159.2-821.7,157.6-821.7,156z"/>
		<path class="st8" d="M-848.9,77.3c0,0,17.1,0,28.1,0c9.6,0,9.1,11.1,9.1,11.1s-17.8,0-28.8,0C-849.5,88.4-848.9,77.3-848.9,77.3z"
			/>
		<path class="st7" d="M-856.3,116.6c-22.7,0-41,18.4-41,41c0,22.6,18.4,41,41,41c22.7,0,41-18.4,41-41
			C-815.3,135-833.6,116.6-856.3,116.6z M-856.3,186.1c-15.7,0-28.5-12.7-28.5-28.5c0-15.7,12.8-28.5,28.5-28.5
			c15.7,0,28.5,12.7,28.5,28.5C-827.8,173.4-840.6,186.1-856.3,186.1z"/>
		<path class="st8" d="M-856.3,124.7c-18.2,0-32.9,14.7-32.9,32.9c0,18.2,14.7,32.9,32.9,32.9c18.2,0,32.9-14.7,32.9-32.9
			C-823.4,139.5-838.1,124.7-856.3,124.7z M-856.3,186.1c-15.7,0-28.5-12.7-28.5-28.5c0-15.7,12.8-28.5,28.5-28.5
			s28.5,12.7,28.5,28.5C-827.8,173.4-840.6,186.1-856.3,186.1z"/>
		<path class="st7" d="M-717.8,116.6c-22.7,0-41,18.4-41,41c0,22.6,18.4,41,41,41c22.7,0,41-18.4,41-41
			C-676.8,135-695.2,116.6-717.8,116.6z M-717.8,186.1c-15.7,0-28.5-12.7-28.5-28.5c0-15.7,12.8-28.5,28.5-28.5
			c15.7,0,28.5,12.7,28.5,28.5C-689.4,173.4-702.1,186.1-717.8,186.1z"/>
		<path class="st8" d="M-717.8,124.7c-18.2,0-32.9,14.7-32.9,32.9c0,18.2,14.7,32.9,32.9,32.9c18.2,0,32.9-14.7,32.9-32.9
			C-684.9,139.5-699.7,124.7-717.8,124.7z M-717.8,186.1c-15.7,0-28.5-12.7-28.5-28.5c0-15.7,12.8-28.5,28.5-28.5
			s28.5,12.7,28.5,28.5C-689.4,173.4-702.1,186.1-717.8,186.1z"/>
	</g>
</g>
</svg>
