<?xml version="1.0" encoding="utf-8"?>
<!-- Generator: Adobe Illustrator 19.0.0, SVG Export Plug-In . SVG Version: 6.00 Build 0)  -->
<svg version="1.1" id="图层_1" xmlns="http://www.w3.org/2000/svg" xmlns:xlink="http://www.w3.org/1999/xlink" x="0px" y="0px"
	 viewBox="-834 481 250 120" style="enable-background:new -834 481 250 120;" xml:space="preserve">
<style type="text/css">
	.st0{fill-rule:evenodd;clip-rule:evenodd;}
</style>
<g id="形状_1">
	<g>
		<path class="st0" d="M-735.8,539.4h-2.8l-4.5,9h2.8L-735.8,539.4z M-752.6,527.8L-752.6,527.8l-9.6,0l1-2.8h-2.8l-1,2.8h-0.3v0.8
			l-0.6,1.8h0.6v0h10.7l-4,11.6l-2.8-8.2h-2.8l4.2,12.2l-5,14.4h2.8l3.6-10.4l3.5,10.1h2.8l-4.9-14.2l6.4-18.2H-752.6z
			 M-767.5,524.8h-2.8v6.9v0v0.4h0c0,0.6-0.1,1.5-0.5,1.9h-2.5v-9.2h-2.8v9.2h-3.2v-9h-2.8v9v2.6h11.2c0,0,3.9,0.6,3.4-4.9V524.8z
			 M-748.1,560h17.6v-2.6h-17.6V560z M-792,537h3.2v23.6h3.2V537v-2.4v-0.9h-6.5V537z M-642.3,527.3h14.2v22.3h2.8v-24.9h-2.8v0
			h-14.2v0h-2.8v24.9h2.8V527.3z M-782.1,542.6h14.6V540h-14.6V542.6z M-792,529.7h6.5v-3.2h-6.5V529.7z M-781.6,546.2v2.1v12h2.8
			v-12h8.6v12h2.8v-12v-2.1v-0.4h-14.2V546.2z M-727.9,559.7h2.8l1.5-11.4h-2.8L-727.9,559.7z M-651.8,528.8h-1.3v-4.3h-2.8v4.3h-6
			v2.6h10.6l-11.7,21.3l3.2-0.1l4.4-7.9v15.9h2.8v-20.4h-0.3l6.3-11.4L-651.8,528.8L-651.8,528.8z M-633.5,542.6l0.1-0.2l-0.1,0
			v-9.1h-2.8v9l-9.5,18.3l3.1-0.1l9.1-17.8h0.1V542.6z M-730.5,535.9v-2.4v-0.2h-8.1l1.6-3.4h0.3l1.1-2.6h-8.5l1.4-3h-2.8l-1.4,3
			h-0.1v0.3l-1.1,2.3h1.1h1.7h5.5l-1.6,3.4h-6.7v0.4v2.1v18h0.6h2.2h11.4c0,0,3.9,0.6,3.4-4.9V535.9z M-733.3,549.6
			c0,0.6-0.1,1.4-0.5,1.8h-11.5v-15.4h12V549.6z M-630.7,557.8v-11h-2.8v13.5h0.4v0c0,0,8.1,0,8.2,0c2.4-0.5,2.4-2.6,2.4-2.6
			L-630.7,557.8z M-650.3,552.2h2.8v-13.3h-2.8V552.2z M-713.5,548.4l1.9,11.4h2.8l-1.9-11.4H-713.5z M-709.2,541.7L-709.2,541.7
			l0-0.1c0-0.5,0-1,0-1.6v-4.1v-2.1v-0.4h-18.1v0.2v2.4v9h0.2h2.6h5.1l-0.2,15.2c0,0,2.8,0.1,2.8-2.1c0-0.4,0.1-9,0.2-13.1h3.9
			C-712.6,544.9-709.6,545.4-709.2,541.7z M-724.5,542.4v-6.4h12.5v4.7c0,0.6-0.1,1.4-0.5,1.8H-724.5z M-684.2,557.6v-4.7h12.3v0
			c0.8,0,3.6-0.2,3.2-5v-16.7v-2.6v0h-2.8v0h-12.7v-4.3h-2.8v4.3h-12.7v0h-2.8v21.7v2.1v0.5h15.5v7.3h0.2v0c0,0,20.1,0.1,20.2,0
			c1.8-1.2,1.5-2.6,1.5-2.6L-684.2,557.6z M-684.2,531.2h12.7v8.4h-12.7V531.2z M-684.2,542.2h12.7v5.8v0v0.2h0c0,0.5,0,1.7-0.6,2.2
			h-12.1V542.2z M-687,550.3h-12.7v-8.2h12.7V550.3z M-687,539.6h-12.7v-8.4h12.7V539.6z M-717.1,524.3h-2.8v3h-8.6v2.6h20.9v-2.6
			h-9.5V524.3z"/>
	</g>
</g>
</svg>
