<?xml version="1.0" encoding="utf-8"?>
<!-- Generator: Adobe Illustrator 19.0.0, SVG Export Plug-In . SVG Version: 6.00 Build 0)  -->
<svg version="1.1" id="图层_1" xmlns="http://www.w3.org/2000/svg" xmlns:xlink="http://www.w3.org/1999/xlink" x="0px" y="0px"
	 viewBox="0 0 250 120" style="enable-background:new 0 0 250 120;" xml:space="preserve">
<style type="text/css">
	.st0{display:none;}
	.st1{display:inline;fill:none;stroke:#29ABE2;stroke-width:0.5;stroke-miterlimit:10;}
	.st2{display:inline;opacity:0.3;fill:none;stroke:#29ABE2;stroke-width:0.5;stroke-miterlimit:10;}
	.st3{fill:#333333;}
</style>
<g class="st0">
	<rect y="0" class="st1" width="250" height="120"/>
	<line class="st2" x1="0" y1="61.4" x2="250" y2="61.4"/>
	<line class="st2" x1="125" y1="0" x2="125" y2="120"/>
	<rect x="40" y="30" class="st1" width="170" height="60"/>
	<rect x="25" y="35" class="st1" width="200" height="50"/>
	<rect x="65" y="20" class="st1" width="120" height="80"/>
	<circle class="st1" cx="125" cy="60" r="40"/>
</g>
<path class="st3" d="M125.1,99.9c-22.1,0-40.1-17.9-40.1-40c0-22.1,17.9-40,40-40c22.2,0,40,17.9,40,40.2
	C165,82,147.1,99.9,125.1,99.9z M125.1,24.2C105.7,24,89.4,40,89.3,59.5C89.1,79,104.4,95.6,125,95.7c20.1,0,35.4-15.9,35.7-34.8
	C161.1,40.5,145.3,24.4,125.1,24.2z"/>
<path class="st3" d="M125.1,85.6c-2.4-4.3-4.6-8.4-6.9-12.4c-1.5,6.4-4.6,12.1-8.5,17.7c-1-1.6-2.1-3-3-4.6c-2.8-4.8-5.1-9.8-6-15.3
	c-0.2-1.3-0.3-2.5-0.3-3.8c0-6.4,0-12.9,0-19.3c0-0.2,0-0.4,0.1-0.8c5.1,0,10.3,0,15.5,0c0-1.9,0-3.7,0-5.5c5.2,0,10.3,0,15.6,0
	c0-1.9,0-3.7,0-5.5c6.2,0,12.3,0,18.5,0c0,0.4,0.1,0.8,0.1,1.2c0,5.3-0.2,10.6,0,15.9c0.3,7.5-1.8,14.3-5.5,20.7
	c-1.2,2.1-2.5,4-3.9,6.4c-2.5-4.4-4.7-8.5-6.9-12.5C132.3,74.1,129.2,79.8,125.1,85.6z M125.3,79.3c3.6-5.5,6.2-11.1,6.3-17.6
	c0.1-5.3,0-10.5,0-15.8c0-0.4,0-0.8,0-1.2c-4.3,0-8.4,0-12.7,0c0,0.4,0,0.8,0,1.1c0,4.9,0,9.9,0,14.8
	C118.8,67.5,121.4,73.5,125.3,79.3z M103.4,50.1c0,0.5,0,1,0,1.5c0,4.7,0,9.4,0,14.2c0,3.6,0.5,7,1.8,10.3c1.2,3.1,2.7,6,4.6,8.7
	c0.5-0.7,0.9-1.3,1.2-1.9c3.3-5.4,5.3-11.1,5.1-17.5c-0.2-4.6,0-9.3,0-13.9c0-0.5,0-0.9-0.1-1.4C111.7,50.1,107.6,50.1,103.4,50.1z
	 M140.8,73.7c3.2-4.8,5.8-9.6,6.1-15.2c0.3-6.4,0.2-12.8,0.2-19.2c0-0.1-0.1-0.1-0.1-0.2c-4.1,0-8.3,0-12.5,0c0,0.6,0,1.1,0,1.6
	c0,4.7,0.1,9.4,0,14.2C134.3,61.9,137,67.9,140.8,73.7z"/>
<path class="st3" d="M119.6,45.2c3.8,0,7.5,0,11.2,0c0,6.5,0,12.9,0,19.4c-0.1,0-0.2,0.1-0.2,0.1C126.9,58.3,123.3,51.8,119.6,45.2z
	"/>
<path class="st3" d="M125.5,78.2c-5.6-7.5-6.5-15.7-5.6-24.5c2,3.5,4,7,6,10.5c1,1.8,2.1,3.6,3,5.4c0.2,0.4,0.3,1.1,0.1,1.5
	C127.8,73.5,126.7,75.8,125.5,78.2z"/>
<path class="st3" d="M115.3,50.8c0,6.5,0,12.9,0,19.2c-0.1,0-0.2,0.1-0.3,0.1c-3.6-6.4-7.2-12.8-10.9-19.3
	C107.9,50.8,111.6,50.8,115.3,50.8z"/>
<path class="st3" d="M104.3,59.2c3,5.3,6,10.6,9,15.9c0.2,0.4,0.3,1.1,0.1,1.4c-1.1,2.4-2.3,4.7-3.5,7.2
	C104.3,76.3,103.4,68,104.3,59.2z"/>
<path class="st3" d="M135.2,39.7c3.8,0,7.5,0,11.2,0c0,6.5,0,12.9,0,19.4c-0.1,0-0.2,0-0.2,0.1C142.5,52.7,138.9,46.3,135.2,39.7z"
	/>
<path class="st3" d="M141,72.7c-5.6-7.5-6.5-15.7-5.7-24.5c0.6,1.1,1.2,2,1.7,3c2.4,4.3,4.9,8.6,7.3,12.8c0.4,0.7,0.5,1.2,0.1,1.9
	C143.3,68.1,142.2,70.3,141,72.7z"/>
</svg>
