<?xml version="1.0" encoding="utf-8"?>
<!-- Generator: Adobe Illustrator 19.0.0, SVG Export Plug-In . SVG Version: 6.00 Build 0)  -->
<svg version="1.1" id="Layer_1" xmlns="http://www.w3.org/2000/svg" xmlns:xlink="http://www.w3.org/1999/xlink" x="0px" y="0px"
	 viewBox="0 0 250 120" style="enable-background:new 0 0 250 120;" xml:space="preserve">
<style type="text/css">
	.st0{fill:#333333;}
</style>
<rect id="XMLID_253_" x="160.6" y="102.1" class="st0" width="3.9" height="5.6"/>
<rect id="XMLID_252_" x="42.9" y="85.9" class="st0" width="9" height="3"/>
<rect id="XMLID_251_" x="46.6" y="83.2" class="st0" width="3.5" height="24.6"/>
<rect id="XMLID_250_" x="43.2" y="90" class="st0" width="2.2" height="16.9"/>
<polygon id="XMLID_249_" class="st0" points="51.9,98.3 49.2,93.7 49.2,89.2 51.9,93.9 "/>
<g id="XMLID_245_">
	<rect id="XMLID_248_" x="52.6" y="84.1" class="st0" width="6.9" height="2.2"/>
	<polygon id="XMLID_247_" class="st0" points="59.5,86.3 56.3,86.3 52,93.8 55.2,93.8 	"/>
	<polygon id="XMLID_246_" class="st0" points="51.6,87.9 54.4,87.9 56.3,91.1 53.9,91.8 	"/>
</g>
<g id="XMLID_241_">
	<rect id="XMLID_244_" x="61" y="84.1" class="st0" width="6.9" height="2.2"/>
	<polygon id="XMLID_243_" class="st0" points="61,86.3 64.1,86.3 68.4,93.7 65.3,93.7 	"/>
	<polygon id="XMLID_242_" class="st0" points="68.8,87.8 66,87.8 64.1,91.1 66.5,91.8 	"/>
</g>
<rect id="XMLID_240_" x="54.8" y="90.5" class="st0" width="11.3" height="2.5"/>
<path id="XMLID_237_" class="st0" d="M53.1,94.9v7h13.6v-7H53.1z M63.1,99.4h-6.5v-2h6.5V99.4z"/>
<polygon id="XMLID_236_" class="st0" points="59.3,107.6 56.1,107.6 53.4,103.1 56.7,103.1 "/>
<polygon id="XMLID_235_" class="st0" points="60.6,107.6 63.9,107.6 66.5,103.1 63.2,103.1 "/>
<rect id="XMLID_234_" x="51.6" y="105.2" class="st0" width="16.8" height="2.5"/>
<rect id="XMLID_233_" x="71.8" y="84.1" class="st0" width="22.9" height="2.5"/>
<rect id="XMLID_232_" x="98.3" y="84" class="st0" width="25.3" height="2.3"/>
<rect id="XMLID_231_" x="98.9" y="87.3" class="st0" width="24.1" height="2.3"/>
<rect id="XMLID_230_" x="71.2" y="93.2" class="st0" width="24.1" height="2.5"/>
<rect id="XMLID_228_" x="81.1" y="86.3" class="st0" width="4.4" height="8.2"/>
<polygon id="XMLID_227_" class="st0" points="85.7,94.9 81,94.9 70.5,107.7 75.2,107.7 "/>
<polygon id="XMLID_226_" class="st0" points="81.1,94.9 85.8,94.9 96.3,107.7 91.6,107.7 "/>
<rect id="XMLID_225_" x="108.9" y="83.2" class="st0" width="3.9" height="5.7"/>
<path id="XMLID_222_" class="st0" d="M99.5,90.9v5.9h23.1v-5.9H99.5z M119.1,94.6H103v-1.4h16.1V94.6z"/>
<polygon id="XMLID_221_" class="st0" points="106.9,98.6 102.6,98.6 101.2,96.6 105.5,96.6 "/>
<polygon id="XMLID_220_" class="st0" points="115.3,98.6 119.6,98.6 120.9,96.6 116.6,96.6 "/>
<rect id="XMLID_219_" x="98.4" y="97.9" class="st0" width="25.6" height="2.2"/>
<rect id="XMLID_218_" x="98.4" y="102" class="st0" width="12.4" height="2.1"/>
<rect id="XMLID_217_" x="107" y="102" class="st0" width="3.8" height="5.7"/>
<polygon id="XMLID_216_" class="st0" points="105.1,101 101.3,101 98.4,107.7 102.2,107.7 "/>
<path id="XMLID_212_" class="st0" d="M112.1,102v5.7h10.9V102H112.1z M119.6,105.4h-4v-1.2h4V105.4z"/>
<polygon id="XMLID_211_" class="st0" points="150.3,86.2 126.6,87 126.6,84.2 150.3,83.4 "/>
<rect id="XMLID_210_" x="136.4" y="86.4" class="st0" width="4.4" height="21.4"/>
<rect id="XMLID_209_" x="126.4" y="92" class="st0" width="24.1" height="2.5"/>
<polygon id="XMLID_208_" class="st0" points="134,94.3 130.2,94.3 125.9,107.7 129.7,107.7 "/>
<polygon id="XMLID_207_" class="st0" points="144.1,95.7 147.9,95.7 151.8,107.7 148,107.7 "/>
<path id="XMLID_202_" class="st0" d="M154.4,84.1V92h16.1v-7.9H154.4z M167,90.1h-9v-0.8h9V90.1z M167,87h-9v-0.8h9V87z"/>
<rect id="XMLID_201_" x="160.6" y="91.9" class="st0" width="3.9" height="2.5"/>
<rect id="XMLID_200_" x="183.4" y="83.2" class="st0" width="3.7" height="22.9"/>
<rect id="XMLID_199_" x="153.9" y="93.4" class="st0" width="17.4" height="2"/>
<path id="XMLID_195_" class="st0" d="M154.7,96.7v5.7h15.7v-5.7H154.7z M166.9,100.1h-8.7v-1.3h8.7V100.1z"/>
<polygon id="XMLID_194_" class="st0" points="158.6,103.4 155.3,103.4 153.9,107.6 157.1,107.6 "/>
<polygon id="XMLID_193_" class="st0" points="179,83.2 174.9,83.2 171.6,90.1 175.6,90.1 "/>
<polygon id="XMLID_192_" class="st0" points="179.7,90.1 175.6,90.1 172.3,97 176.3,97 "/>
<polygon id="XMLID_190_" class="st0" points="180.1,97.2 176.1,97.2 171.9,107.6 175.9,107.6 "/>
<polygon id="XMLID_189_" class="st0" points="207.2,90.6 203.8,90.6 196.9,107.5 200.3,107.5 "/>
<polygon id="XMLID_188_" class="st0" points="196.6,83.2 200,83.2 207,107.6 203.6,107.6 "/>
<polygon id="XMLID_187_" class="st0" points="202.7,83.3 206.1,83.3 207,86.3 203.6,86.3 "/>
<polygon id="XMLID_186_" class="st0" points="166.4,103.4 169.6,103.4 171,107.6 167.8,107.6 "/>
<rect id="XMLID_185_" x="181.4" y="86.7" class="st0" width="7.1" height="2.9"/>
<polygon id="XMLID_184_" class="st0" points="188.5,106.3 181.4,107.9 181.4,105.1 188.5,103.4 "/>
<rect id="XMLID_183_" x="189.5" y="85.1" class="st0" width="17.8" height="2.3"/>
<rect id="XMLID_182_" x="189.5" y="85.1" class="st0" width="3.5" height="22.5"/>
<rect id="XMLID_181_" x="192.5" y="90.6" class="st0" width="5.2" height="1.7"/>
<rect id="XMLID_180_" x="194.6" y="90.6" class="st0" width="3" height="14.7"/>
<rect id="XMLID_178_" x="134.8" y="37.5" class="st0" width="17.8" height="34.6"/>
<rect id="XMLID_172_" x="118" y="17" class="st0" width="34.6" height="17.8"/>
<rect id="XMLID_171_" x="97.3" y="17" class="st0" width="17.8" height="34.6"/>
<rect id="XMLID_170_" x="97.3" y="54.4" class="st0" width="34.6" height="17.8"/>
</svg>
