<?xml version="1.0" encoding="utf-8"?>
<!-- Generator: Adobe Illustrator 19.0.0, SVG Export Plug-In . SVG Version: 6.00 Build 0)  -->
<svg version="1.1" id="图层_1" xmlns="http://www.w3.org/2000/svg" xmlns:xlink="http://www.w3.org/1999/xlink" x="0px" y="0px"
	 viewBox="0 0 250 120" style="enable-background:new 0 0 250 120;" xml:space="preserve">
<style type="text/css">
	.st0{display:none;}
	.st1{display:inline;fill:none;stroke:#29ABE2;stroke-width:0.5;stroke-miterlimit:10;}
	.st2{display:inline;opacity:0.3;fill:none;stroke:#29ABE2;stroke-width:0.5;stroke-miterlimit:10;}
	.st3{fill:#333333;}
</style>
<g class="st0">
	<rect y="0" class="st1" width="250" height="120"/>
	<line class="st2" x1="0" y1="61.4" x2="250" y2="61.4"/>
	<line class="st2" x1="125" y1="0" x2="125" y2="120"/>
	<rect x="40" y="30" class="st1" width="170" height="60"/>
	<rect x="25" y="35" class="st1" width="200" height="50"/>
	<rect x="65" y="20" class="st1" width="120" height="80"/>
	<circle class="st1" cx="125" cy="60" r="40"/>
</g>
<g>
	<path class="st3" d="M71.7,61.7c0,1.3,0.3,1.8,1.7,1.8c13.3,0,26.6,0,40,0c1.4,0,1.6-0.5,1.7-1.8c0-1.4-0.5-1.7-1.8-1.7
		c-1.8,0.1-3.7-0.1-5.5,0.1c-1.7,0.1-1.9-0.6-1.9-2c0-1.5,0.2-2.4,2-2.2c1.6,0.2,3.2,0,4.8,0c1.2,0,2.4,0.3,2.4-1.8
		c0-2-1.2-1.6-2.3-1.6c-1.8,0-3.7-0.1-5.5,0c-1.6,0.1-1.5-0.8-1.4-1.8c0.1-0.9-0.5-2.2,1.3-2.1c2.1,0.1,4.1,0,6.2,0
		c1.3,0.1,1.7-0.3,1.6-1.6c0-1.1,0-2-1.6-1.9c-2,0.1-4-0.1-5.9,0.1c-1.8,0.1-1.5-1-1.6-2.1c-0.1-1.3,0.3-1.8,1.7-1.8
		c1.9,0.1,3.8,0,5.7,0.1c1.4,0.1,1.8-0.4,1.7-1.8c0-1.2-0.1-2-1.6-1.9c-1.7,0.1-3.5-0.1-5.2,0.1c-1.7,0.1-2.6-0.3-2.3-2.2
		c0.2-1.4-0.4-1.8-1.7-1.7c-2.7,0.1-5.4,0.1-8.1,0c-1.9-0.1-2.9,0.3-2.5,2.4c0.1,0.7,0.2,1.5-0.9,1.5c-2.6,0-5.3,0-8,0
		c0.4-1.6,1.7-2.3,2-3.8c-1.2,0-2.3,0.2-3.3,0c-4.5-0.8-7.8,0.7-9.8,4.9c-0.6,1.3-1.9,2.2-1.9,4C71.8,49.1,71.8,55.4,71.7,61.7z
		 M92.2,60c-0.5-0.1-1.1-0.1-1.7-0.1c-0.6,0-1.1,0-1.7,0c-0.8,0-1.6-0.1-2.4,0c-2.1,0.3-2.5-0.6-2.4-2.5c0.1-1.3,0.4-1.8,1.8-1.7
		c2.1,0.1,4.3,0.1,6.4,0c2-0.1,1.3,1.3,1.4,2.3C93.7,59.1,93.8,60.2,92.2,60z M85.9,41.3c1,0.1,2.1,0,3.1,0c0.8,0,1.6,0,2.4,0
		c1.3-0.1,2.3-0.2,2.4,1.8c0,2.1-1,2-2.5,2c-1.7-0.1-3.5-0.1-5.2,0c-1.6,0.1-2-0.5-2-2C84,41.7,84.4,41.1,85.9,41.3z M84.1,49.2
		c0.3-0.8,0.9-0.6,1.3-0.6c2.3,0,4.6,0.1,6.9,0c1.8-0.1,1.3,1.2,1.3,2.1c0.1,1,0.2,1.9-1.3,1.8c-1.2-0.1-2.4,0-3.5,0
		c-0.8,0-1.6,0-2.4,0C84.3,52.4,83.4,51.1,84.1,49.2z"/>
	<path class="st3" d="M154.7,39.4c2.5-0.4,5-0.9,7.5-1.3c1.9-0.3,1.3-1.7,1.3-2.8c0-1.5-1.1-0.7-1.7-0.6c-3.8,0.7-7.6,1.3-11.5,2
		c-5.9,1.1-11.8,2.3-17.8,3.2c-2,0.3-1.4,1.6-1.4,2.6c0,1.6,1.3,0.8,2,0.7c2.2-0.3,4.4-0.8,6.5-1.2c0.7-0.1,1.3-0.2,1.2,0.8
		c-0.1,2.4,0.9,5.2-0.4,7c-0.9,1.3-3.7,0.3-5.7,0.4c-0.6,0-1.1,0.1-1.7,0c-1.4-0.2-2.1,0.2-2.1,1.9c0,1.7,0.9,1.7,2.1,1.6
		c1,0,2.1,0.1,3.1,0c1.8-0.2,1.9,0.5,1.5,2c-2,7.6-4,15.3-6,23c-0.6,2.5-0.5,2.6,2.1,2.5c1-0.1,1.3-0.6,1.6-1.4
		c0.4-1.5,0.8-3.1,1.2-4.6c1.3-5,2.6-10,3.9-15c0.1,0,0.2,0,0.3,0.1c0,0.5,0.1,0.9,0.1,1.4c0,5.8,0.1,11.6,0,17.4
		c0,1.8,0.5,2.3,2.3,2.2c2.5-0.1,5.1-0.2,7.6,0c1.9,0.1,2.6-0.4,2.5-2.4c-0.1-6.3-0.1-12.6-0.1-18.9c0.6,0.7,0.8,1.4,1,2.1
		c1.5,5.8,3.1,11.6,4.5,17.5c0.5,2.3,2.2,1.8,3.5,1.6c1.5-0.3,0.4-1.5,0.3-2.3c-0.2-1.2-0.6-2.3-0.9-3.5c-1.8-7.1-3.7-14.2-5.6-21.6
		c2.2,0,4.2-0.1,6.1,0c1.4,0.1,1.5-0.7,1.5-1.8c0-1.1-0.1-1.8-1.5-1.8c-2.5,0.1-4.9,0-7.4,0c-1.1,0-1.5-0.4-1.5-1.5
		c0.1-2.5,0.1-5.1,0-7.6C153.1,39.9,153.5,39.5,154.7,39.4z"/>
	<path class="st3" d="M66.5,50.1c0.2,0,0.3,0,0.5,0c1.3,0.2,2-0.1,2-1.7c0-1.7-0.7-1.8-2-1.7c-1.4,0.1-2.9-0.1-4.3,0
		c-1.4,0.1-1.8-0.4-1.7-1.8c0.1-3.1,0-6.2,0-9.3c0-0.7,0.2-1.5-1-1.7c-3.7-0.6-5.2,0-7.3,3.1c-0.5,0.8-1,1.6-1.6,2.4
		c-1.3,1.9-2.9,3.6-2.4,6.2c0.2,1-0.6,1.1-1.4,1.1c-1.9,0-3.8,0.1-5.7,0c-1.4-0.1-1.5,0.7-1.5,1.7c0,1.1,0,1.8,1.5,1.7
		c1.8-0.1,3.6,0,5.5,0c1.3-0.1,1.7,0.4,1.6,1.7c-0.1,2.9-0.1,5.7,0,8.6c0,1.4-0.5,2-1.8,2.3c-1.8,0.4-3.4,1.3-5.2,1.6
		c-2.3,0.4-1.8,2.1-1.5,3.3c0.3,1.2,1.4,0.1,2.1,0c1.6-0.4,3.2-0.9,4.8-1.5c1.2-0.4,1.6-0.1,1.5,1.1c0,3-0.1,6,0,9
		c0,1.5-0.6,1.7-1.9,1.7c-1.8-0.1-3.6,0-5.5,0c-1.4-0.1-1.3,0.9-1.2,1.7c0,0.8-0.3,1.8,1.1,1.8c5.5,0,10.9,0,16.4-0.1
		c2.3,0,3.3-1.3,3.3-3.7c-0.1-3.5,0-7,0-10.5c0-5.5,0-5.6,5.2-7c2.6-0.7,3.2-1.9,2.5-4.3c-2,0.6-4.1,1.2-6.1,1.9
		c-0.8,0.2-1.4,0.5-1.6-0.8C60,50.8,60.6,50.1,66.5,50.1z"/>
	<path class="st3" d="M207.9,77.7c-2.9,0.1-5.9,0-8.8,0c-5.2,0-5.2,0-5.2-5.2c0-1.6,0.3-2.2,2.1-2.2c3.9,0.1,7.8,0,11.7,0.1
		c1.5,0,1.9-0.5,1.9-1.9c0-1.4-0.4-1.8-1.8-1.7c-2.9,0.1-5.9,0-8.8,0c-5.1,0-5.1,0-5-5.2c0-1.5,0.5-1.8,1.9-1.8
		c4,0.1,7.9,0,11.9,0.1c1.4,0,1.8-0.4,1.7-1.7c0-1.2-0.1-1.9-1.6-1.9c-13.4,0.1-26.8,0.1-40.2,0c-1.5,0-1.6,0.7-1.6,1.9
		c0,1.4,0.4,1.8,1.8,1.7c3-0.1,6,0,9,0c5,0,4.9,0,4.9,5c0,1.7-0.6,2-2.1,1.9c-4-0.1-7.9,0-11.9-0.1c-1.4,0-1.7,0.5-1.7,1.8
		c0,1.3,0.3,1.9,1.7,1.8c2.9-0.1,5.7,0,8.6,0c5.5,0,5.4,0,5.4,5.4c0,1.7-0.7,1.9-2.1,1.9c-3.9-0.1-7.8,0-11.7,0c-1.4,0-2,0.2-2,1.8
		c0,1.6,0.6,1.8,2,1.8c6.6-0.1,13.2,0,19.8,0c6.7,0,13.5,0,20.2,0c1.4,0,1.6-0.6,1.5-1.7C209.4,78.5,209.5,77.6,207.9,77.7z"/>
	<path class="st3" d="M167.5,53.3c13.5,0,27,0,40.4,0c1.2,0,1.5-0.4,1.5-1.5c-0.1-2.4,0-4.8,0-7.1c0-7.3-2.1-9.6-9.4-10.3
		c-0.6-0.1-1.1-0.1-1.7-0.1c-6.8-0.4-13.4,0.8-19.8,2.9c-0.4-3.2-0.4-3.3-1.6-3.3c-3.2,0-6.3,0-9.5,0c-1,0-1.4,0.3-1.4,1.4
		c0,5.6,0,11.1,0,16.7C166,53,166.4,53.3,167.5,53.3z M178.3,47.3c0.1-0.6,0-1.3,0-1.9c0-4.7,0-4.7,4.5-6.1c2.8-0.9,5.7-1.4,8.7-1.2
		c2.9,0.2,4.4,1.4,5,4.2c1.5,7,1.1,7.6-5.9,7.6c-3.3,0-6.5-0.1-9.7,0.1C178.8,50,178,49.4,178.3,47.3z"/>
	<path class="st3" d="M111.9,71.6c0.4-1.8,1.7-3.4,1.8-5.4c-0.4-0.1-0.7-0.1-1-0.1c-13.1,0-26.1,0-39.2,0c-1.3,0-1.7,0.3-1.8,1.7
		c-0.1,1.9,1,1.9,2.2,1.7c2.1-0.3,2.5,0.5,1.5,2.3c-0.5,1-0.9,2.2-1.3,3.3c-0.7,1.9-2.5,4.7-1.9,5.6c1.1,1.5,3.9,0.5,6,0.5
		c5.7,0.1,5.7,0,7.9-5.4c0.8-2.1,1.1-4.9,2.7-5.9c1.5-1,4.3-0.4,6.5-0.4c5,0,5,0,3.3,5c5.2,0.4,5.2,0.4,6,5.7c0.2,1.1,0.7,1,1.4,1
		c2.6,0,5.2,0,7.8,0c0.5,0,1.1,0,1.5-0.5C117.4,77.5,115.6,72.7,111.9,71.6z"/>
</g>
</svg>
