<?xml version="1.0" encoding="utf-8"?>
<!-- Generator: Adobe Illustrator 19.0.0, SVG Export Plug-In . SVG Version: 6.00 Build 0)  -->
<svg version="1.1" id="图层_1" xmlns="http://www.w3.org/2000/svg" xmlns:xlink="http://www.w3.org/1999/xlink" x="0px" y="0px"
	 viewBox="0 0 250 120" style="enable-background:new 0 0 250 120;" xml:space="preserve">
<style type="text/css">
	.st0{display:none;}
	.st1{display:inline;fill:none;stroke:#29ABE2;stroke-width:0.5;stroke-miterlimit:10;}
	.st2{display:inline;opacity:0.3;fill:none;stroke:#29ABE2;stroke-width:0.5;stroke-miterlimit:10;}
	.st3{fill-rule:evenodd;clip-rule:evenodd;fill:#333333;}
</style>
<g class="st0">
	<rect y="0" class="st1" width="250" height="120"/>
	<line class="st2" x1="0" y1="61.4" x2="250" y2="61.4"/>
	<line class="st2" x1="125" y1="0" x2="125" y2="120"/>
	<rect x="40" y="30" class="st1" width="170" height="60"/>
	<rect x="25" y="35" class="st1" width="200" height="50"/>
	<rect x="65" y="20" class="st1" width="120" height="80"/>
	<circle class="st1" cx="125" cy="60" r="40"/>
</g>
<path class="st3" d="M208.7,84.4h-2V68.1h2v6.5l7.2-6.5h3.1l-8.1,7.5l8.8,8.9H217l-8.2-8.1V84.4L208.7,84.4z M112.5,82.9l1.6-1.1
	c1.1,1.3,2.8,1.7,4.3,1.3c1.3-0.4,2.3-1.1,2.5-2.6c0.1-0.8,0-1.6-0.5-2.1c-0.5-0.5-1.5-0.8-2.5-1.1c-1.8-0.6-3.3-1.3-4.4-2.9
	c-1.7-2.4-0.8-5.9,2.3-7c2.2-0.7,4.9-0.5,6.8,1.7l-0.9,1.6c-1.1-1.5-3.8-1.9-5.4-1.2c-1.5,0.8-2.3,3-0.4,4.6
	c1.9,1.5,4.6,1.1,6.1,2.9c1.2,1.4,1.4,3.4,0.7,5c-0.6,1.5-1.8,2.7-3.3,3.1C116.7,85.8,113.1,84.7,112.5,82.9L112.5,82.9z
	 M127.9,75.3l5.1,0c2.9-1.5,1.2-5.2,0-5.7l-5.1,0V75.3L127.9,75.3z M128,84.8h-2.3V67.7h5c1.1,0,1.9,0.1,2.4,0.2
	c0.6,0.1,1,0.3,1.5,0.6c0.7,0.4,1.2,1,1.6,1.8c0.4,0.8,0.6,1.6,0.6,2.5c0,1.6-0.5,2.9-1.5,3.8c-1,0.9-2.4,0.9-4.2,0.9H128V84.8
	L128,84.8z M143.6,84.8h-4.8V67.5h5.5c2.6,0,4.6,0.8,6.2,2.4c1.6,1.6,2.4,3.7,2.4,6.3c0,1.5-0.3,2.8-0.9,4c-0.6,1.2-1.4,2.2-2.5,3
	c-0.8,0.5-1.5,0.9-2.4,1.2C146.2,84.7,145.1,84.8,143.6,84.8L143.6,84.8z M140.7,82.9h3.3c2.1,0,3.7-0.6,5-1.8
	c1.2-1.2,1.8-2.8,1.8-4.8c0-2.1-0.6-3.8-1.9-5c-1.3-1.2-3.1-1.8-5.4-1.8h-2.8V82.9L140.7,82.9z M161.2,74.7l5,0
	c2-1.1,2.3-4.9,0.6-5.6l-5.6,0V74.7L161.2,74.7z M161.1,83.2h5.4c1.8-0.6,3.3-5.2-0.1-6.9h-5.3V83.2L161.1,83.2z M166.6,67.4
	c2.3,0.7,3.7,2.6,3.2,4.9c-0.3,1.2-1,2.3-2.1,2.9c2.3,1,2.8,4.3,2.2,6.4c-0.3,1.1-1.8,3.1-3.1,3.2c-0.7,0.1-2.2,0-3.5,0H159V67.4
	L166.6,67.4L166.6,67.4z M183,78.5l-3.5-8.4l-3.8,8.4H183L183,78.5z M175.2,80.3l-2,4.6h-2.6l7.4-17h2.7l7.4,17h-2.3l-2.1-4.5
	L175.2,80.3L175.2,80.3z M191.7,84.5h-2V68.2h2.7l9.8,13.3l-0.1-13.3h1.8v16.3h-2.4l-9.9-14.1L191.7,84.5L191.7,84.5z M35.9,88.1
	l-10.1-6.9l0.1-25.9c0,0-0.3-7.9,6.5-11.7c3.5-1.9,7.5-2.5,11.3-1c2.5,1,5.5,3,8.6,7.1c0,0-14.2-0.7-16.5,11.1L35.9,88.1L35.9,88.1z
	 M37.7,69.7c0,0,3.2,8.9,12,8.4c4.3-0.2,8.2-2.3,10.9-5.8c3.1-4.1,2.4-7.7,3.7-12c0.5-1.8,1.5-4,3.3-6.1c1.7-1.9,3.6-3.2,6-3.9
	c1.7-0.5,3.9-0.7,6.4-0.1c0,0-3.7-9.7-13.4-8.3c0,0-4.5-0.1-8.5,4.1c-2.6,2.7-3.5,5.1-4,8c-0.6,3.2-0.7,5.5-2.3,8.6
	c-1.9,3.8-4.7,6-8.7,7C41.5,70,39.5,70.2,37.7,69.7L37.7,69.7z M81.5,32.3l0.1,26.9c0,0-1.1,11.7-16.4,11.4c0,0,4.9,8.4,13.3,7.9
	c2.6-0.2,5-1.1,7.1-2.6c2.2-1.5,5.1-4.3,5.8-8.7l-0.1-28.1C91.3,39.1,81.5,32.4,81.5,32.3L81.5,32.3z M114.1,49.4
	c-1.6,3.7-2.2,5.6-4.8,10.6l2.5,1.5c0.9-1.2,3.2-5.4,4.5-10.6L114.1,49.4L114.1,49.4z M108.3,43.6c0,0,2.8,2.1,5.5,4.7l2.3-1.5
	c0,0-3-3.1-5.3-4.8L108.3,43.6L108.3,43.6z M117.1,43.3h6.9v-2h-7.4l0.4,0.3l-1.8,1.2c-0.7-0.7-5.2-4.6-5.4-4.6
	c-0.2,0,2.2-1.8,2.2-1.8l3.7,3.2l0-0.6h8.2v-3.6h2v3.6h3.3c-0.6-0.8-1.6-1.8-1.6-1.8l1.9-1.8c0,0,1.6,1.5,3.3,3.5h1.9v2.2h-8.9v2h7
	l0.1,17.6c-0.8,2.2-4.2,1.1-4.2,1.1c-0.2-0.7-0.9-2.6-0.9-2.6h2.7l-0.1-4h-4.6v6.1h-2v-6.1h-4.2v6.9h-2.7V43.3L117.1,43.3z
	 M126.1,45.9h4.6v2.2h-4.6V45.9L126.1,45.9z M126.1,50.4h4.6v2.2h-4.6V50.4L126.1,50.4z M120,50.4h4.1v2.2H120V50.4L120,50.4z
	 M120,45.8h4.1V48H120V45.8L120,45.8z M154.2,54.3c1.3-1.5,2-3,2.3-3.9h-5.1C151.8,51.2,152.7,52.7,154.2,54.3L154.2,54.3z
	 M163.6,45.2h-12.7c-0.2,0.6-0.3,1.2-0.5,1.8h9.3v3.4c-1.2,2.2-2.1,4-3.5,5.6c2,1.6,4.7,3.2,8.3,4.1l-1.7,2.3c0,0-4.3-1.4-8.3-4.6
	c-4.1,3.7-9.1,4.6-9.1,4.6l-1.1-2.3c3.7-0.8,6.4-2.4,8.3-4c-1.4-1.4-2.7-3.2-3.5-5.2c-1.7,3.9-4.4,7.8-8.6,10.8l-2-2.2
	c3.3-3,7.4-5,9.9-14.3h-6.4v-2.9c0.8-1.4,1.6-4.4,2.4-5.9c1.1,0.3,1.7,0.6,2.1,0.8c-0.3,2.4-1.2,4.7-1.6,5.7h4.1
	c0.4-1.9,0.8-4.1,1-6.6c0.3,0,2.7-0.1,2.7-0.1c-0.3,1.5-0.6,3.9-1.1,6.7h12.2V45.2L163.6,45.2z M154.9,37.6l2.2-2
	c0,0,3.5,3.4,4.8,5.4l-1.9,1.5C160,42.5,156.7,38.9,154.9,37.6L154.9,37.6z M181.7,39.1h7.4v3.4h-7.4V39.1L181.7,39.1z M181.7,44.5
	h7.4v3.4h-7.4V44.5L181.7,44.5z M181.7,36.8h-0.9h-1.3v23.4l1.2,1.9c0.7-0.4,5.8-2.3,5.8-2.3l0-2.3c-2.1,0.6-4.1,1.2-4.7,1.4v-9.2
	h2.4c0.3,2.4,1.8,8.8,8.1,11.6L194,60c0,0,1.4-1.1-1.4-1.4c0,0-2.7-1.4-3.8-3.2c0,0,2.8-2.2,3.6-3.6l-1.9-1.3c0,0-2.4,2.4-3,2.9
	c0,0-0.8-0.6-1.1-3.6h4.7v-13H181.7L181.7,36.8z M178.1,43.9h-5.8c0.3-0.6,0.6-1.2,0.8-1.9h5.3v-2.2h-4.6c0.3-1,0.5-2.2,0.7-3.3
	c-0.1,0-2.4-1.3-2.5-1.1c-0.7,3.6-0.9,7.1-4.9,11.4l2,2c0,0,0.9-1,1.9-2.7h1.7v3.1h-3.9v2.2h3.9l0,8.4l1.4,2.3l4.6-2.9l-0.2-2.1
	c-1.8,0.6-2.9,1.6-3.5,1.9l-0.1-7.6h4.2v-2.2H175v-3.1h3.1V43.9L178.1,43.9z M205.9,47.8v14.5h-2.7V50.7c-0.6,0.5-1.5,1.3-2.8,2.3
	l-2.1-1.8c0,0,6.1-4.6,9-9.1l2.1,1.7C209.3,43.8,207.4,46.1,205.9,47.8L205.9,47.8z M198.5,43.2l2.3,1.8c0,0,3.6-2.3,7-8.3l-2-1.5
	C205.9,35.3,201.9,40.5,198.5,43.2L198.5,43.2z M209.1,44.4H224v2.5h-4.7v12.5c0.2,2.2-1.2,3.1-3.1,2.9l-3,0
	c-1.6-0.5-1.3-2.8-1.3-2.8h4.6V46.9h-7.5V44.4L209.1,44.4z M209.5,37.6h13.1v2.5h-13.1V37.6L209.5,37.6z"/>
</svg>
