<?xml version="1.0" encoding="utf-8"?>
<!-- Generator: Adobe Illustrator 19.0.0, SVG Export Plug-In . SVG Version: 6.00 Build 0)  -->
<svg version="1.1" id="图层_1" xmlns="http://www.w3.org/2000/svg" xmlns:xlink="http://www.w3.org/1999/xlink" x="0px" y="0px"
	 viewBox="1154 -51.1 2849 236.1" style="enable-background:new 1154 -51.1 2849 236.1;" xml:space="preserve">
<style type="text/css">
	.st0{fill:#00B4F8;}
</style>
<g>
	<rect x="1740.4" y="-33.6" class="st0" width="47" height="211.5"/>
	<path class="st0" d="M2081.1-33.6c-58.4,0-105.7,47.3-105.7,105.7s47.3,105.7,105.7,105.7s105.7-47.3,105.7-105.7
		S2139.6-33.6,2081.1-33.6z M2081.1,130.9c-32.4,0-58.7-26.3-58.7-58.7s26.3-58.7,58.7-58.7s58.7,26.3,58.7,58.7
		S2113.6,130.9,2081.1,130.9z"/>
	<polygon class="st0" points="1575.9,-33.6 1575.9,-33.6 1575.9,13.4 1575.9,13.4 1575.9,130.9 1575.9,130.9 1575.9,177.9 
		1575.9,177.9 1575.9,177.9 1622.9,177.9 1622.9,177.9 1705.2,177.9 1705.2,130.9 1622.9,130.9 1622.9,95.6 1693.4,95.6 
		1693.4,48.7 1622.9,48.7 1622.9,13.4 1705.2,13.4 1705.2,-33.6 1622.9,-33.6 	"/>
	<path class="st0" d="M1963.2,138.3l-11.1-19.2c-9.8,7.4-22.1,11.9-35.4,11.9c-32.4,0-58.7-26.3-58.7-58.7s26.3-58.7,58.7-58.7
		c13.3,0,25.6,4.4,35.4,11.9l11.1-19.2c0.6-1.1,1.3-2.3,2-3.4l10.5-18.2c-16.9-11.4-37.1-18-59-18c-58.4,0-105.7,47.3-105.7,105.7
		s47.3,105.7,105.7,105.7c21.9,0,42.1-6.6,59-18l-10.5-18.2C1964.6,140.5,1963.8,139.4,1963.2,138.3z"/>
</g>
<g>
	<path d="M2316.7,53.1c-7.2,7.8-16.2,15.1-24.6,19.6c-1.5-3.2-4.6-7.8-7.3-10.5c9.8-3.9,20.4-12,27.6-20.7H2287V30.4h29.7V3.3h12.8
		v27.1h29.5v11.1h-25.6c7.3,4.3,18.3,11.2,21.4,13.3l-7.5,9.9c-3.6-3.4-11.2-9.6-17.8-14.5v18.6h-12.8V53.1z M2340.1,130.8
		c-3.3-2.6-7.5-5.4-12.3-8.1c-10.3,8.1-22.6,13.6-36.3,17.2c-1.2-3-3.9-8-6.3-10.5c11.5-2.7,22.2-6.9,31.3-13
		c-7.2-3.9-15-7.4-22-10.2c3-4,6-9.4,9.1-14.8h-13.8V79.9h19.5c1.5-3.3,2.9-6.3,3.8-9.3l12.4,2.4c-0.9,2.2-1.9,4.5-3,6.9h22l2.2-0.6
		l7.5,3c-3.7,12.9-9.7,23.4-17.5,31.9c4.3,2.5,8.5,5,11.7,7.2L2340.1,130.8z M2300.5,30.1c-1.2-5.2-4.9-13.3-8.8-19.3l10.2-4.2
		c3.9,5.7,7.9,13.5,9.3,18.9L2300.5,30.1z M2317.1,91.3c-2,3.6-3.9,7-5.7,10.2c4.9,2.1,9.9,4.5,14.8,7c5-5,9.2-10.7,12.3-17.2
		H2317.1z M2356.1,10.6c-4.5,6.8-9.3,13.9-13.3,18.6l-9-4c3.6-5.4,8.1-13.7,10.6-19.5L2356.1,10.6z M2411.5,44.5
		c-3.2,21.7-7.8,39.9-15.4,54.9c7.3,12.8,16.8,22.8,28.6,29.4c-3.2,2.4-7,7.5-9.1,10.8c-11-6.6-19.8-16.2-27-27.6
		c-8.5,12.1-19.6,21.9-34.3,29.5c-1.2-2.8-5.1-8.7-7.3-11.4c15.6-7.3,26.8-17.4,34.9-30.9c-4.9-10.8-9-22.8-12-36
		c-2.7,6.3-5.9,11.8-9.2,16.6c-2.1-2.4-7.3-6.7-10.3-8.7c11.7-15.8,18.4-40.6,21.9-66.9l12.8,1.8c-1.2,8.7-2.9,17.2-4.8,25.3h41.1
		v13H2411.5z M2377.7,44.5c2.5,14.4,6.3,27.9,11.2,40.2c4.3-11.7,7.5-24.9,9.6-40.2H2377.7z"/>
	<path d="M2586.4,96.6h-56.8v28c0,7.8-2,11.7-8.1,13.8c-6,2.2-14.7,2.4-27,2.4c-0.9-4-3.8-10.3-6-13.9c9.5,0.3,19.8,0.3,22.6,0.2
		c2.7,0,3.6-0.8,3.6-2.9V96.6h-56.8V83.2h56.8v-8.7c7.6-3.8,15.9-9.6,22.6-15.3h-54.6V46.3h68.7l3.1-0.8l9.5,7.2
		c-9.2,9.3-21.8,19-34.5,26.4v4h56.8V96.6z M2472.8,50.2h-13.6V18.1h57.3c-1.9-3.9-4.3-8.2-6.7-11.7l13.6-4.3c3.7,5,7.5,11.1,9.6,16
		h52v32.1h-14.2V31.3h-97.9V50.2z"/>
	<path d="M2674.6,7.5c-4,10-9.1,19.8-14.8,29.2V141h-14.5V58c-4.8,6.1-9.8,11.7-14.7,16.6c-1.8-3.4-6.3-10.8-9.2-13.9
		c15.6-13.6,30.4-35.4,39.3-57.6L2674.6,7.5z M2736.1,124.5c7.2,0,8.4-6.3,9.4-31.3c3.6,2.8,9.8,5.7,13.8,6.6
		c-1.8,28.3-5.5,38.5-22.2,38.5h-24.4c-16.3,0-21-5.2-21-24.1V92.8c-6.5,4.2-12.8,7.8-19.2,11c-2.1-3-6.8-7.8-10.2-10.6
		c9.5-4.5,19.5-10.3,29.4-17.2v-70h15v58.5c13.9-11.7,27-25.3,36.6-40.3l13.3,8.8c-13.6,19.2-31.3,36.3-49.9,49.9v31.6
		c0,8.4,1.2,10,7.8,10H2736.1z"/>
	<path d="M2835.7,57.4c-13.8,6.3-28.3,13-40,18l-5.4-13.5c10.5-3.5,27.1-9.9,43.2-15.9L2835.7,57.4z M2824.1,32.5
		c-6-4.8-18.1-11-27.7-14.7l6.9-9.9c9.4,3.3,21.9,9,28.2,13.5L2824.1,32.5z M2811.1,86.7h96.9v54.7h-15v-6.2h-67.5v6.6h-14.4V86.7z
		 M2825.5,99.3v23.5h67.5V99.3H2825.5z M2884.7,30.7c-0.5,3.3-1,6.2-1.8,9.2c6.1,17.7,19,28.3,42.4,31.9c-2.8,2.8-6.3,8.1-8,11.8
		c-20.1-4.3-32.4-13.5-40-28.2c-6.9,12.9-19,22.8-41.8,29.1c-1.3-3.3-4.9-8.8-7.6-11.5c31.3-7.8,39.3-22.2,42.6-42.3h-15.6
		c-3.9,7.4-8.4,13.8-12.9,19c-2.7-2.2-8.7-5.8-12.1-7.5c9.7-9.4,17.4-24.3,21.6-39.6l13.5,3c-1.2,4.2-2.7,8.5-4.4,12.6h50.5l2.1-0.5
		l9.6,2.7c-3.5,10.5-8,22.5-12,30.1l-11.4-3.4c2.1-4.5,4.5-10.5,6.3-16.5H2884.7z"/>
	<path d="M3005,97.9c1,3.8,3.3,9.2,4.8,11.7c-26.1,20.1-30.3,23.7-32.7,26.8c-1.2-3.3-4.7-9.1-7-11.8c3-2.1,7.3-6.8,7.3-13.6V62.8
		H2958V49.5h33v58.8L3005,97.9z M2987.5,37.9c-4-6.5-13.2-16.5-20.4-23.7l9.4-7.8c7.3,6.8,16.8,16,21.1,22.3L2987.5,37.9z
		 M3092,25.2c0,0,0,4.9-0.2,6.9c-2.1,69.3-4,93.3-9.9,100.6c-3.5,5-7,6.5-12.5,7.2c-4.9,0.6-13.2,0.5-21.3,0.1
		c-0.3-3.9-2.1-9.6-4.3-13.5c8.7,0.8,16.2,0.8,19.8,0.8c2.7,0,4.4-0.6,6-2.5c4.3-5.1,6.6-28,8.4-87h-52.2c-2.7,4.7-5.5,9.2-8.4,13
		h44.5V111h-34.9v8.7h-12.6V54.6c-1.8,2.4-3.6,4.5-5.2,6.3c-2.7-2.4-8.5-7.2-12-9.3c12.1-11.4,22.6-29.8,28.6-48.1l14.2,3.6
		c-2.1,6.3-4.6,12.3-7.6,18.1H3092z M3027.1,62.1v13.3h22.6V62.1H3027.1z M3049.7,99.7V86.4h-22.6v13.3H3049.7z"/>
	<path d="M3220.6,105.1H3128V91.8h92.5V105.1z M3253.6,60.1c0,0-0.2,4.3-0.6,6.4c-3.9,42.1-8,59.7-14.8,66.4
		c-4.3,4.4-8.7,5.5-15.6,6c-5.8,0.5-16.5,0.3-27.1-0.3c-0.3-4-2.4-9.9-5.2-13.9c11.5,1,23.2,1.2,28,1.2c3.6,0,5.8-0.2,7.9-1.8
		c5.1-4.2,9-19.6,12-51.1h-94.3c4.7-16.9,10.7-45.6,14.1-66.7l14.2,1.3c-0.9,4.8-1.8,9.9-2.9,15.1h81.3v13.3h-83.8
		c-1.6,8.4-3.4,16.6-5.1,24H3253.6z"/>
	<path d="M3426.4,72.9h-106.2v7c0,18.1-2.7,44.8-16,62.5c-2.2-2.8-8.5-8.1-11.5-9.9c11.7-15.7,13-37.5,13-52.9V59.2h32.2
		c-2.4-5.8-7.3-14.2-11.8-20.5l12.1-5c4.8,6.2,10.5,14.8,12.9,20.7l-10.6,4.8h37.2c4-6.9,9-17.2,11.5-24.6l15.4,5
		c-4.3,6.7-8.7,13.9-12.8,19.6h34.5V72.9z M3422.6,33.4h-118.8V20.1h53.8c-2.1-4.3-5-9.6-7.9-13.5l14.1-3.8
		c4.2,5.2,8.5,12.4,10.7,17.2h48.1V33.4z"/>
	<path d="M3467.6,75.3h54.3v64.6h-13.8v-6.8h-27.3v7.8h-13.2V75.3z M3480.8,88.6v31.2h27.3V88.6H3480.8z M3572.6,60.7h-83.8V9.6
		h83.8V60.7z M3558.4,22.9h-56.2v24.4h56.2V22.9z M3593.6,75.3v64.9h-13.9v-7H3550v7.8h-13.3V75.3H3593.6z M3579.7,119.8V88.6H3550
		v31.2H3579.7z"/>
	<path d="M3677.9,99c1.2,3.6,3.4,8.8,5.1,11.5c-26.8,21.1-31.2,24.7-33.6,27.9c-1.3-3.3-4.8-9.1-7.3-11.7c3-2.2,7.5-7.2,7.5-13.9
		V62.8h-19.5V49.5h32.8v61L3677.9,99z M3663.5,37.8c-4.5-6.4-14.7-16.5-22.8-23.5l9-8.5c8.1,6.6,18.4,16.2,23.2,22.3L3663.5,37.8z
		 M3758.5,71.7c-5.5,18.4-15.3,32.7-27.4,43.5c10.5,6.4,22.8,11.1,36.4,13.8c-3,2.9-6.8,8.5-8.5,12.5c-15.1-3.8-28.2-9.6-39.3-17.4
		c-12,7.8-25.6,13.2-40.2,16.9c-1.2-3.8-4.2-9.1-6.8-12.1c13-2.7,25.5-7,36.1-13.6c-9.4-8.8-17.1-19.8-22.9-32.4l3.9-1.4h-9v-13
		h66.9l2.1-0.5L3758.5,71.7z M3708.4,25.2c0,14.4-4.5,30.7-25.9,40.6c-1.7-2.7-6.5-8.2-9-10.2c19-8.5,22-20.2,22-30.9V8.5h49.8v33.7
		c0,4.2,0.3,5.7,2.5,5.7h9.2c2.1,0,5.5-0.3,7.5-0.9c0.2,3.6,0.6,8.5,1,11.7c-1.9,0.7-5.4,0.9-8.4,0.9h-10.5
		c-12,0-14.5-4.9-14.5-17.8V21.4h-23.7V25.2z M3698.8,81.4c5.1,10,12.3,18.7,21.3,26.1c8.5-7,15.6-15.6,20.7-26.1H3698.8z"/>
	<path d="M3852.2,98.7c0.9,4.1,3.1,9.9,4.3,12.6c-28.8,20.8-33.4,24.4-36,27.7c-1.2-3.8-4.6-9.9-7.2-13c3.1-1.8,7.6-6.5,7.6-13V63.3
		h-22.6V49.5h36.9v61L3852.2,98.7z M3834.8,37.8c-5-6.3-15.6-16.3-23.8-23.4l8.8-9c8.4,6.6,19.3,15.9,24.4,22.2L3834.8,37.8z
		 M3934.9,66h-36.3v75h-14.8V66h-36.9V51.6h36.9V3.9h14.8v47.7h36.3V66z"/>
</g>
</svg>
