<?xml version="1.0" encoding="utf-8"?>
<!-- Generator: Adobe Illustrator 22.0.1, SVG Export Plug-In . SVG Version: 6.00 Build 0)  -->
<svg version="1.1" id="图层_1" xmlns="http://www.w3.org/2000/svg" xmlns:xlink="http://www.w3.org/1999/xlink" x="0px" y="0px"
	 viewBox="0 0 2849 622.6" style="enable-background:new 0 0 2849 622.6;" xml:space="preserve">
<style type="text/css">
	.st0{display:none;}
	.st1{display:inline;fill:#00B4F8;}
	.st2{display:inline;}
	.st3{display:inline;fill:#FFFFFF;stroke:#000000;stroke-width:14.3046;stroke-miterlimit:10;}
	.st4{display:inline;stroke:#000000;stroke-width:14.3046;stroke-miterlimit:10;}
	.st5{display:inline;fill:none;stroke:#000000;stroke-width:14.3046;stroke-miterlimit:10;}
	.st6{display:none;enable-background:new    ;}
	.st7{font-family:'RuachLetPlain';}
	.st8{font-size:365.4642px;}
	.st9{font-family:'SourceHanSansSC-Heavy-GBpc-EUC-H';}
	.st10{font-size:303px;}
	.st11{enable-background:new    ;}
	.st12{fill:#FFFFFF;}
	.st13{fill:none;stroke:#000000;stroke-width:14.3046;stroke-miterlimit:10;}
</style>
<g class="st0">
	<rect x="586.4" y="211.5" class="st1" width="47" height="211.5"/>
	<path class="st1" d="M927.1,211.5c-58.4,0-105.7,47.3-105.7,105.7s47.3,105.7,105.7,105.7s105.7-47.3,105.7-105.7
		S985.6,211.5,927.1,211.5z M927.1,376c-32.4,0-58.7-26.3-58.7-58.7s26.3-58.7,58.7-58.7s58.7,26.3,58.7,58.7S959.6,376,927.1,376z"
		/>
	<polygon class="st1" points="421.9,211.5 421.9,211.5 421.9,258.5 421.9,258.5 421.9,376 421.9,376 421.9,423 421.9,423 421.9,423 
		468.9,423 468.9,423 551.2,423 551.2,376 468.9,376 468.9,340.7 539.4,340.7 539.4,293.8 468.9,293.8 468.9,258.5 551.2,258.5 
		551.2,211.5 468.9,211.5 	"/>
	<path class="st1" d="M809.2,383.4l-11.1-19.2c-9.8,7.4-22.1,11.9-35.4,11.9c-32.4,0-58.7-26.3-58.7-58.7s26.3-58.7,58.7-58.7
		c13.3,0,25.6,4.4,35.4,11.9l11.1-19.2c0.6-1.1,1.3-2.3,2-3.4l10.5-18.2c-16.9-11.4-37.1-18-59-18c-58.4,0-105.7,47.3-105.7,105.7
		s47.3,105.7,105.7,105.7c21.9,0,42.1-6.6,59-18L811.2,387C810.6,385.6,809.8,384.5,809.2,383.4z"/>
</g>
<g class="st0">
	<path class="st2" d="M1162.7,298.2c-7.2,7.8-16.2,15.1-24.6,19.6c-1.5-3.2-4.6-7.8-7.3-10.5c9.8-3.9,20.4-12,27.6-20.7H1133v-11.1
		h29.7v-27.1h12.8v27.1h29.5v11.1h-25.6c7.3,4.3,18.3,11.2,21.4,13.3l-7.5,9.9c-3.6-3.4-11.2-9.6-17.8-14.5v18.6h-12.8V298.2
		L1162.7,298.2z M1186.1,375.9c-3.3-2.6-7.5-5.4-12.3-8.1c-10.3,8.1-22.6,13.6-36.3,17.2c-1.2-3-3.9-8-6.3-10.5
		c11.5-2.7,22.2-6.9,31.3-13c-7.2-3.9-15-7.4-22-10.2c3-4,6-9.4,9.1-14.8h-13.8V325h19.5c1.5-3.3,2.9-6.3,3.8-9.3l12.4,2.4
		c-0.9,2.2-1.9,4.5-3,6.9h22l2.2-0.6l7.5,3c-3.7,12.9-9.7,23.4-17.5,31.9c4.3,2.5,8.5,5,11.7,7.2L1186.1,375.9z M1146.5,275.2
		c-1.2-5.2-4.9-13.3-8.8-19.3l10.2-4.2c3.9,5.7,7.9,13.5,9.3,18.9L1146.5,275.2z M1163.1,336.4c-2,3.6-3.9,7-5.7,10.2
		c4.9,2.1,9.9,4.5,14.8,7c5-5,9.2-10.7,12.3-17.2H1163.1z M1202.1,255.7c-4.5,6.8-9.3,13.9-13.3,18.6l-9-4
		c3.6-5.4,8.1-13.7,10.6-19.5L1202.1,255.7z M1257.5,289.6c-3.2,21.7-7.8,39.9-15.4,54.9c7.3,12.8,16.8,22.8,28.6,29.4
		c-3.2,2.4-7,7.5-9.1,10.8c-11-6.6-19.8-16.2-27-27.6c-8.5,12.1-19.6,21.9-34.3,29.5c-1.2-2.8-5.1-8.7-7.3-11.4
		c15.6-7.3,26.8-17.4,34.9-30.9c-4.9-10.8-9-22.8-12-36c-2.7,6.3-5.9,11.8-9.2,16.6c-2.1-2.4-7.3-6.7-10.3-8.7
		c11.7-15.8,18.4-40.6,21.9-66.9l12.8,1.8c-1.2,8.7-2.9,17.2-4.8,25.3h41.1v13h-9.9L1257.5,289.6L1257.5,289.6z M1223.7,289.6
		c2.5,14.4,6.3,27.9,11.2,40.2c4.3-11.7,7.5-24.9,9.6-40.2C1244.5,289.6,1223.7,289.6,1223.7,289.6z"/>
	<path class="st2" d="M1432.4,341.7h-56.8v28c0,7.8-2,11.7-8.1,13.8c-6,2.2-14.7,2.4-27,2.4c-0.9-4-3.8-10.3-6-13.9
		c9.5,0.3,19.8,0.3,22.6,0.2c2.7,0,3.6-0.8,3.6-2.9v-27.6h-56.8v-13.4h56.8v-8.7c7.6-3.8,15.9-9.6,22.6-15.3h-54.6v-12.9h68.7
		l3.1-0.8l9.5,7.2c-9.2,9.3-21.8,19-34.5,26.4v4h56.8L1432.4,341.7L1432.4,341.7z M1318.8,295.3h-13.6v-32.1h57.3
		c-1.9-3.9-4.3-8.2-6.7-11.7l13.6-4.3c3.7,5,7.5,11.1,9.6,16h52v32.1h-14.2v-18.9h-97.9v18.9H1318.8z"/>
	<path class="st2" d="M1520.6,252.6c-4,10-9.1,19.8-14.8,29.2v104.3h-14.5v-83c-4.8,6.1-9.8,11.7-14.7,16.6
		c-1.8-3.4-6.3-10.8-9.2-13.9c15.6-13.6,30.4-35.4,39.3-57.6L1520.6,252.6z M1582.1,369.6c7.2,0,8.4-6.3,9.4-31.3
		c3.6,2.8,9.8,5.7,13.8,6.6c-1.8,28.3-5.5,38.5-22.2,38.5h-24.4c-16.3,0-21-5.2-21-24.1v-21.4c-6.5,4.2-12.8,7.8-19.2,11
		c-2.1-3-6.8-7.8-10.2-10.6c9.5-4.5,19.5-10.3,29.4-17.2v-70h15v58.5c13.9-11.7,27-25.3,36.6-40.3l13.3,8.8
		c-13.6,19.2-31.3,36.3-49.9,49.9v31.6c0,8.4,1.2,10,7.8,10H1582.1z"/>
	<path class="st2" d="M1681.7,302.5c-13.8,6.3-28.3,13-40,18l-5.4-13.5c10.5-3.5,27.1-9.9,43.2-15.9L1681.7,302.5z M1670.1,277.6
		c-6-4.8-18.1-11-27.7-14.7l6.9-9.9c9.4,3.3,21.9,9,28.2,13.5L1670.1,277.6z M1657.1,331.8h96.9v54.7h-15v-6.2h-67.5v6.6h-14.4
		V331.8z M1671.5,344.4v23.5h67.5v-23.5H1671.5z M1730.7,275.8c-0.5,3.3-1,6.2-1.8,9.2c6.1,17.7,19,28.3,42.4,31.9
		c-2.8,2.8-6.3,8.1-8,11.8c-20.1-4.3-32.4-13.5-40-28.2c-6.9,12.9-19,22.8-41.8,29.1c-1.3-3.3-4.9-8.8-7.6-11.5
		c31.3-7.8,39.3-22.2,42.6-42.3h-15.6c-3.9,7.4-8.4,13.8-12.9,19c-2.7-2.2-8.7-5.8-12.1-7.5c9.7-9.4,17.4-24.3,21.6-39.6l13.5,3
		c-1.2,4.2-2.7,8.5-4.4,12.6h50.5l2.1-0.5l9.6,2.7c-3.5,10.5-8,22.5-12,30.1l-11.4-3.4c2.1-4.5,4.5-10.5,6.3-16.5L1730.7,275.8
		L1730.7,275.8z"/>
	<path class="st2" d="M1851,343c1,3.8,3.3,9.2,4.8,11.7c-26.1,20.1-30.3,23.7-32.7,26.8c-1.2-3.3-4.7-9.1-7-11.8
		c3-2.1,7.3-6.8,7.3-13.6v-48.2H1804v-13.3h33v58.8L1851,343z M1833.5,283c-4-6.5-13.2-16.5-20.4-23.7l9.4-7.8
		c7.3,6.8,16.8,16,21.1,22.3L1833.5,283z M1938,270.3c0,0,0,4.9-0.2,6.9c-2.1,69.3-4,93.3-9.9,100.6c-3.5,5-7,6.5-12.5,7.2
		c-4.9,0.6-13.2,0.5-21.3,0.1c-0.3-3.9-2.1-9.6-4.3-13.5c8.7,0.8,16.2,0.8,19.8,0.8c2.7,0,4.4-0.6,6-2.5c4.3-5.1,6.6-28,8.4-87
		h-52.2c-2.7,4.7-5.5,9.2-8.4,13h44.5v60.2H1873v8.7h-12.6v-65.1c-1.8,2.4-3.6,4.5-5.2,6.3c-2.7-2.4-8.5-7.2-12-9.3
		c12.1-11.4,22.6-29.8,28.6-48.1l14.2,3.6c-2.1,6.3-4.6,12.3-7.6,18.1L1938,270.3L1938,270.3z M1873.1,307.2v13.3h22.6v-13.3H1873.1
		z M1895.7,344.8v-13.3h-22.6v13.3H1895.7z"/>
	<path class="st2" d="M2066.6,350.2H1974v-13.3h92.5v13.3H2066.6z M2099.6,305.2c0,0-0.2,4.3-0.6,6.4c-3.9,42.1-8,59.7-14.8,66.4
		c-4.3,4.4-8.7,5.5-15.6,6c-5.8,0.5-16.5,0.3-27.1-0.3c-0.3-4-2.4-9.9-5.2-13.9c11.5,1,23.2,1.2,28,1.2c3.6,0,5.8-0.2,7.9-1.8
		c5.1-4.2,9-19.6,12-51.1h-94.3c4.7-16.9,10.7-45.6,14.1-66.7l14.2,1.3c-0.9,4.8-1.8,9.9-2.9,15.1h81.3v13.3h-83.8
		c-1.6,8.4-3.4,16.6-5.1,24L2099.6,305.2L2099.6,305.2L2099.6,305.2z"/>
	<path class="st2" d="M2272.4,318h-106.2v7c0,18.1-2.7,44.8-16,62.5c-2.2-2.8-8.5-8.1-11.5-9.9c11.7-15.7,13-37.5,13-52.9v-20.4
		h32.2c-2.4-5.8-7.3-14.2-11.8-20.5l12.1-5c4.8,6.2,10.5,14.8,12.9,20.7l-10.6,4.8h37.2c4-6.9,9-17.2,11.5-24.6l15.4,5
		c-4.3,6.7-8.7,13.9-12.8,19.6h34.5V318H2272.4z M2268.6,278.5h-118.8v-13.3h53.8c-2.1-4.3-5-9.6-7.9-13.5l14.1-3.8
		c4.2,5.2,8.5,12.4,10.7,17.2h48.1L2268.6,278.5L2268.6,278.5z"/>
	<path class="st2" d="M2313.6,320.4h54.3V385h-13.8v-6.8h-27.3v7.8h-13.2V320.4z M2326.8,333.7v31.2h27.3v-31.2H2326.8z
		 M2418.6,305.8h-83.8v-51.1h83.8V305.8z M2404.4,268h-56.2v24.4h56.2V268z M2439.6,320.4v64.9h-13.9v-7H2396v7.8h-13.3v-65.7
		L2439.6,320.4L2439.6,320.4z M2425.7,364.9v-31.2H2396v31.2H2425.7z"/>
	<path class="st2" d="M2523.9,344.1c1.2,3.6,3.4,8.8,5.1,11.5c-26.8,21.1-31.2,24.7-33.6,27.9c-1.3-3.3-4.8-9.1-7.3-11.7
		c3-2.2,7.5-7.2,7.5-13.9v-50h-19.5v-13.3h32.8v61L2523.9,344.1z M2509.5,282.9c-4.5-6.4-14.7-16.5-22.8-23.5l9-8.5
		c8.1,6.6,18.4,16.2,23.2,22.3L2509.5,282.9z M2604.5,316.8c-5.5,18.4-15.3,32.7-27.4,43.5c10.5,6.4,22.8,11.1,36.4,13.8
		c-3,2.9-6.8,8.5-8.5,12.5c-15.1-3.8-28.2-9.6-39.3-17.4c-12,7.8-25.6,13.2-40.2,16.9c-1.2-3.8-4.2-9.1-6.8-12.1
		c13-2.7,25.5-7,36.1-13.6c-9.4-8.8-17.1-19.8-22.9-32.4l3.9-1.4h-9v-13h66.9l2.1-0.5L2604.5,316.8z M2554.4,270.3
		c0,14.4-4.5,30.7-25.9,40.6c-1.7-2.7-6.5-8.2-9-10.2c19-8.5,22-20.2,22-30.9v-16.2h49.8v33.7c0,4.2,0.3,5.7,2.5,5.7h9.2
		c2.1,0,5.5-0.3,7.5-0.9c0.2,3.6,0.6,8.5,1,11.7c-1.9,0.7-5.4,0.9-8.4,0.9h-10.5c-12,0-14.5-4.9-14.5-17.8v-20.4h-23.7L2554.4,270.3
		L2554.4,270.3z M2544.8,326.5c5.1,10,12.3,18.7,21.3,26.1c8.5-7,15.6-15.6,20.7-26.1H2544.8z"/>
	<path class="st2" d="M2698.2,343.8c0.9,4.1,3.1,9.9,4.3,12.6c-28.8,20.8-33.4,24.4-36,27.7c-1.2-3.8-4.6-9.9-7.2-13
		c3.1-1.8,7.6-6.5,7.6-13v-49.7h-22.6v-13.8h36.9v61L2698.2,343.8z M2680.8,282.9c-5-6.3-15.6-16.3-23.8-23.4l8.8-9
		c8.4,6.6,19.3,15.9,24.4,22.2L2680.8,282.9z M2780.9,311.1h-36.3v75h-14.8v-75h-36.9v-14.4h36.9V249h14.8v47.7h36.3V311.1z"/>
</g>
<g class="st0">
	
		<ellipse transform="matrix(0.9852 -0.1716 0.1716 0.9852 -65.3393 82.6728)" class="st3" cx="445.5" cy="419.3" rx="269.4" ry="33.9"/>
	<path class="st4" d="M284.2,373.9c-15.8,63.9,6.6,129.5,69.3,142c112.8,22.6,198.1-56,220.5-96.5c7.9-14.2,13.7-30.4,16.8-47
		L648.8,98c0,0-176.9,141.9-179.3,141.9c-12.3,0-25.6,1-40,3c-27.3,3.9-51,13.1-71,26l-10.4-112.8l-59.7,203.4l-4.1,14L284.2,373.9z
		"/>
	<path class="st4" d="M429.5,243.1C601.1,218.7,615,345.3,573.9,419.5C551.5,460,466.1,538.7,353.4,516
		C231.5,491.5,262.1,266.8,429.5,243.1z"/>
	<path class="st5" d="M279.5,420.9c1,19.3,5.9,37.4,14.6,52.7c-67.2,5.5-111.9,3-113.9-8C178.3,454.7,217.4,438,279.5,420.9z"/>
	<path class="st5" d="M568.1,428.8c2.3-3.3,4.2-6.4,5.9-9.4c9-16.2,15.3-34.9,17.9-54c70.1-6,117.1-3.8,119.1,7.6
		C713.3,386.2,654.9,408.1,568.1,428.8z"/>
	<path class="st5" d="M451.4,452.7c42.1-7.3,81.7-15.5,116.7-23.9C539,470.8,457.9,537,353.4,516c-27.5-5.5-47.2-21.2-59.4-42.5
		C338.6,469.9,393,462.9,451.4,452.7z"/>
	<path class="st5" d="M376.9,428.9l-94-41.4c0,0-4.2,33.9,7,49.6c11.1,15.4,31.7,20.1,42,20.1C356.3,457.2,376.9,428.9,376.9,428.9z
		"/>
	<path class="st5" d="M413.2,421.7l120.1-127.4c0,0,25.7,46,5.4,96.2C527,419.3,493.2,436,460.8,436
		C431.3,436.1,413.2,421.7,413.2,421.7z"/>
	<path class="st5" d="M472.7,358.6"/>
	<path class="st3" d="M376.9,428.9l-94-41.4c0,0-4.2,33.9,7,49.6c11.1,15.4,31.7,20.1,42,20.1C356.3,457.2,376.9,428.9,376.9,428.9z
		"/>
	<path class="st3" d="M413.2,421.7l120.1-127.4c0,0,29.8,47.8,5.4,96.2c-15.5,30.7-45.4,45.5-77.8,45.5
		C431.3,436.1,413.2,421.7,413.2,421.7z"/>
	<path class="st5" d="M470.5,360.9c0,0,2,44.1,57.3,46.2"/>
	<path class="st5" d="M312.1,400.5c0,0-5.4,42.5,30.7,55"/>
</g>
<text transform="matrix(1 0 0 1 769.3335 440.6908)" class="st6 st7 st8">PlanetDesign</text>
<text transform="matrix(1 0 0 1 746.3314 425.6752)" class="st6 st9 st10">PlanetDesign</text>
<g class="st11">
	<path d="M764.4,195.2h79.1c49.7,0,90.6,17.6,90.6,73.3c0,53.6-41.5,77.3-89.1,77.3h-26.4v74.8h-54.2V195.2z M842.3,303.1
		c26.4,0,39.1-12.4,39.1-34.5c0-22.7-14.5-30.6-40.6-30.6h-22.1v65.1H842.3z"/>
	<path d="M968.3,364.6v-186h53.6v188.2c0,11.2,5.5,14.5,9.7,14.5c1.8,0,3,0,6.1-0.6l6.4,39.7c-5.8,2.4-14.8,4.5-26.7,4.5
		C980.4,424.9,968.3,400.7,968.3,364.6z"/>
	<path d="M1061.3,372.5c0-36.4,28.5-56.1,95.7-63.3c-1.2-13.9-8.5-22.1-26.1-22.1c-13.6,0-27.9,5.5-45.1,15.1l-18.8-35.5
		c22.7-13.6,47.3-22.7,74.2-22.7c44.5,0,69.7,24.8,69.7,78.8v97.9h-43.9l-3.9-17.3h-1.2c-14.2,12.7-30.3,21.5-49.4,21.5
		C1080.7,424.9,1061.3,401.3,1061.3,372.5z M1157.1,369.5v-27.6c-33.6,4.5-44.5,14.2-44.5,26.4c0,10,7.3,14.8,18.5,14.8
		C1141.9,383.1,1149.2,378,1157.1,369.5z"/>
	<path d="M1252.5,248.3h43.9l3.6,21.5h1.2c14.2-13.9,31.8-25.8,55.1-25.8c37.6,0,53.6,27,53.6,70v106.7h-53.9v-100
		c0-23.6-6.4-30.6-20-30.6c-12.1,0-19.4,5.5-30,15.5v115.1h-53.6V248.3z"/>
	<path d="M1442.2,334.6c0-56.1,40-90.6,81.8-90.6c49.7,0,73.9,36.1,73.9,83.3c0,9.4-1.2,19.1-2.4,23h-101.2
		c4.8,23.6,21.2,33.3,43,33.3c12.4,0,23.9-3.6,36.4-10.9l17.9,32.4c-17.9,12.7-41.5,19.7-61.8,19.7
		C1480.4,424.9,1442.2,391.6,1442.2,334.6z M1552.2,315.2c0-17.3-7.6-30-27.3-30c-14.8,0-27.9,9.4-31.5,30H1552.2z"/>
	<path d="M1635.8,356.7v-66.4h-23.3v-40l26.4-2.1l6.1-45.4h44.8v45.4h40.6v42.1h-40.6v65.7c0,19.1,9.1,26.7,21.8,26.7
		c5.5,0,11.5-1.8,15.8-3l8.5,38.8c-9.1,2.7-21.5,6.4-39.1,6.4C1653.4,424.9,1635.8,397.6,1635.8,356.7z"/>
	<path d="M1767.9,195.2h64.8c68.8,0,114.2,33,114.2,111.5c0,78.5-45.4,113.9-111.2,113.9h-67.9V195.2z M1829.4,377
		c36.4,0,62.1-16.7,62.1-70.3s-25.8-68.5-62.1-68.5h-7.3V377H1829.4z"/>
	<path d="M1974.9,334.6c0-56.1,40-90.6,81.8-90.6c49.7,0,73.9,36.1,73.9,83.3c0,9.4-1.2,19.1-2.4,23H2027
		c4.8,23.6,21.2,33.3,43,33.3c12.4,0,23.9-3.6,36.4-10.9l17.9,32.4c-17.9,12.7-41.5,19.7-61.8,19.7
		C2013,424.9,1974.9,391.6,1974.9,334.6z M2084.8,315.2c0-17.3-7.6-30-27.3-30c-14.8,0-27.9,9.4-31.5,30H2084.8z"/>
	<path d="M2150.3,400.7l23.9-33.6c15.8,12.1,30,18.2,43.6,18.2c14.2,0,20.3-5.2,20.3-13.6c0-10.3-16.7-15.1-34.2-22.1
		c-20.6-8.2-44.8-22.1-44.8-50.6c0-32.7,26.7-54.8,66.7-54.8c27.3,0,46.7,10.9,61.8,22.1l-24.2,32.1c-12.1-8.5-24.2-14.5-35.8-14.5
		c-12.1,0-18.2,4.2-18.2,12.4c0,10.3,15.8,14.2,33.6,20.6c21.5,8.2,45.4,20.6,45.4,51.8c0,31.8-24.8,56.4-71.8,56.4
		C2194.2,424.9,2167.6,415.2,2150.3,400.7z"/>
	<path d="M2315.7,196.8c0-16.4,12.7-27.9,30.9-27.9c17.9,0,30.6,11.5,30.6,27.9c0,16.1-12.7,27.6-30.6,27.6
		C2328.5,224.3,2315.7,212.8,2315.7,196.8z M2319.7,248.3h53.6v172.4h-53.6V248.3z"/>
	<path d="M2406.3,449.8c0-14.2,8.5-25.8,24.5-33.9v-1.5c-9.1-6.1-15.8-15.1-15.8-29.7c0-12.1,7.9-24.2,19.1-32.1v-1.2
		c-12.1-8.5-23.3-24.5-23.3-44.5c0-42.1,34.8-62.7,72.1-62.7c10,0,19.4,1.5,27.3,4.2h63.3v39.1h-26.7c2.7,4.8,4.8,12.7,4.8,20.9
		c0,40.3-30.6,57.9-68.8,57.9c-5.8,0-12.7-0.9-20.3-3c-3.9,3.6-5.5,6.4-5.5,12.1c0,7.9,7,11.5,25.5,11.5h27.3
		c42.4,0,66.4,13,66.4,44.2c0,36.4-37.6,62.1-97.6,62.1C2439,493.1,2406.3,480.7,2406.3,449.8z M2524.8,440.4
		c0-10.3-9.1-12.4-25.1-12.4h-16.4c-12.4,0-19.1-0.6-24.5-2.1c-5.5,4.8-8.2,9.7-8.2,15.5c0,12.1,14.5,18.2,36.7,18.2
		C2509.3,459.5,2524.8,451.3,2524.8,440.4z M2504.8,306.7c0-17.6-9.1-26.7-21.8-26.7c-12.4,0-21.8,9.1-21.8,26.7
		c0,17.9,9.4,27,21.8,27C2495.7,333.7,2504.8,324.6,2504.8,306.7z"/>
	<path d="M2603.6,248.3h43.9l3.6,21.5h1.2c14.2-13.9,31.8-25.8,55.1-25.8c37.6,0,53.6,27,53.6,70v106.7h-53.9v-100
		c0-23.6-6.4-30.6-20-30.6c-12.1,0-19.4,5.5-30,15.5v115.1h-53.6V248.3z"/>
</g>
<g>
	<g>
		
			<ellipse transform="matrix(0.9852 -0.1716 0.1716 0.9852 -66.1551 73.2351)" class="st12" cx="390.5" cy="419.3" rx="269.4" ry="33.9"/>
		<path d="M178.3,483.5c-49.8,0-58.8-8.3-60.2-16.8c-1.7-9.9,6.3-23.1,78.6-45.3c49.3-15.1,115.6-30.3,186.8-42.7
			c71.2-12.4,138.7-20.6,190.3-23c75.5-3.6,87.5,6.1,89.2,16c1.7,9.9-6.3,23.1-78.6,45.3c-49.3,15.1-115.6,30.3-186.8,42.7
			s-138.7,20.6-190.3,23C196.4,483.3,186.8,483.5,178.3,483.5z M133.1,464.1c4.3,2.2,20.9,7.3,81,4c49.9-2.8,114.2-10.8,181.1-22.4
			c66.8-11.6,130.1-25.9,178-40.1c57.6-17.1,71.6-27.6,74.9-31.1c-4.3-2.2-20.9-7.3-81-4c-49.9,2.8-114.2,10.8-181.1,22.4
			c-66.8,11.6-130.1,25.9-178,40.1C150.3,450.1,136.4,460.7,133.1,464.1z"/>
	</g>
	<g>
		<path d="M229.2,373.9c-15.8,63.9,6.6,129.5,69.3,142c112.8,22.6,198.1-56,220.5-96.5c7.9-14.2,13.7-30.4,16.8-47L593.8,98
			c0,0-176.9,141.9-179.3,141.9c-12.3,0-25.6,1-40,3c-27.3,3.9-51,13.1-71,26l-10.4-112.8l-59.7,203.4l-4.1,14L229.2,373.9z"/>
		<path d="M338.3,527.1c-13.1,0-26.9-1.3-41.2-4.1c-26.4-5.3-47.8-19.8-61.8-42c-18.3-28.8-23-68.4-13-108.8l0.1-0.5l0.2-0.5l4-13.6
			l70.3-239.4l12.8,138.8c19.3-10.7,40.8-17.8,63.9-21.1c13.9-2,27-3,39-3.1c13.6-9.7,111.7-88,176.9-140.3L605,79.9l-62.2,294
			c-3.3,17.3-9.3,34.2-17.5,49c-11,19.8-38.3,51.3-79.1,74.7C420.8,512.1,383.6,527.1,338.3,527.1z M236,376.1
			c-8.9,36.4-4.8,71.8,11.3,97.2c11.9,18.8,30.1,31.1,52.6,35.6c59.8,12,108.7-6.3,139.2-23.8c38.2-21.9,63.6-51,73.7-69.2
			c7.5-13.5,13-29,16-44.8l0-0.2l53.9-254.9c-16.9,13.5-45.1,36.1-73.2,58.5c-25.9,20.6-46.6,37-61.6,48.8
			c-29.9,23.5-30.3,23.8-33.6,23.7c-11.8,0-24.9,1-38.9,3c-25.1,3.6-48.1,12-68.1,24.9l-9.9,6.4l-8-87.2l-49.1,167.5L236,376.1z"/>
	</g>
	<g>
		<path d="M374.5,243.1C546.1,218.7,560,345.3,518.9,419.5C496.5,460,411.1,538.7,298.4,516C176.5,491.5,207.1,266.8,374.5,243.1z"
			/>
		<path d="M338.3,527.2c-13.1,0-26.9-1.3-41.3-4.2c-26.1-5.3-47.4-19.6-61.4-41.4c-12.8-20-19.2-45.2-18.4-73
			c2.2-75.1,56.5-158.5,156.3-172.6h0c92.1-13.1,134.1,17.1,153.1,44.7c29.6,43,20.6,102.4-1.4,142.3c-11,19.9-38.3,51.3-79.1,74.7
			C420.8,512.2,383.6,527.2,338.3,527.2z M415.1,247.2c-12.4,0-25.6,1-39.6,3h0c-91.9,13-142,89.8-144,158.9
			c-1.2,41.5,16.1,89.5,68.3,100c59.8,12,108.7-6.3,139.2-23.8c38.2-21.9,63.6-51,73.7-69.2c19.9-36,28.3-89.3,2.2-127.2
			C495.8,261.3,461.7,247.2,415.1,247.2z"/>
	</g>
	<path d="M178.9,483.5c-8,0-15.3-0.2-21.7-0.6c-25.7-1.7-37.3-6.5-39-16.1c-1.7-9.4,7.2-17.8,29.8-27.8c17.4-7.7,43.2-16.4,74.7-25
		l8.6-2.4l0.5,8.9c1,18.4,5.7,35.6,13.7,49.5l5.6,9.8l-11.2,0.9C216.6,482.6,196,483.5,178.9,483.5z M133.2,464.1
		c2.7,1.3,10.2,3.9,29.9,4.8c16.7,0.8,39,0.2,64.8-1.6c-5-11.3-8.3-23.8-9.8-37.1c-24.4,6.9-45,13.8-59.9,20.1
		C141.1,457.3,135.1,462,133.2,464.1z"/>
	<path d="M496.6,440.1l10.6-15.3c2.1-3.1,4-6,5.5-8.8c8.7-15.8,14.6-33.6,17.1-51.5l0.8-5.7l5.7-0.5c35.4-3,65.1-4,86.1-2.8
		c26.7,1.6,38.9,6.4,40.6,16.2c1.9,10.9-10.8,20.8-42.5,33c-25.6,9.9-62.2,20.6-105.8,31L496.6,440.1z M543,372.1
		c-2.8,15.8-8,31.5-15.2,45.7c86.1-21.5,114.7-37.4,120.2-43.4c-2.7-1.4-10.5-4-31.6-4.8C597.8,368.8,572.5,369.7,543,372.1z"/>
	<path d="M338.2,527.1c-13.7,0-27.5-1.4-41.2-4.1c-28-5.7-50.2-21.6-64.2-46l-5.6-9.8l11.2-0.9c46-3.6,100.2-10.8,156.7-20.7l0,0
		c40.7-7.1,79.8-15.1,116.2-23.8l18.1-4.3l-10.6,15.4c-18.3,26.6-48.8,52.6-81.6,69.5C405.8,518.8,372.1,527.1,338.2,527.1z
		 M251.6,479.5c11.8,15.3,28.2,25.4,48.2,29.4c90.5,18.2,161-30.4,195-68.6c-30.9,7-63.5,13.5-97.1,19.3l0,0
		C345.5,468.8,295.4,475.6,251.6,479.5z"/>
	<path d="M276.9,464.3c-10.8,0-34.7-4.8-47.8-23c-12.5-17.4-8.8-50.9-8.3-54.6l1.2-9.5L332.9,426l-5.2,7.2
		C326.7,434.4,304.6,464.3,276.9,464.3z M234.3,398.2c-0.3,11.1,0.6,26.7,6.4,34.7c9,12.5,26.6,17.1,36.2,17.1
		c12.8,0,25.5-10.3,33.3-18.4L234.3,398.2z"/>
	<path d="M405.6,443.2c-31.5,0-51-15.3-51.9-15.9l-6.1-4.8l132.1-140.1l4.8,8.5c1.1,2,27.1,49.6,5.8,102.4
		c-11.9,29.4-46.6,50-84.4,50C405.7,443.2,405.7,443.2,405.6,443.2z M369.4,420.2c7.2,3.7,19.8,8.7,36.2,8.7c0.1,0,0.1,0,0.2,0
		c32.2,0,61.4-16.9,71.2-41c13.6-33.6,4.9-65.6-0.9-80.8L369.4,420.2z"/>
	<path class="st13" d="M417.7,358.6"/>
	<g>
		<path class="st12" d="M321.9,428.9l-94-41.4c0,0-4.2,33.9,7,49.6c11.1,15.4,31.7,20.1,42,20.1
			C301.3,457.2,321.9,428.9,321.9,428.9z"/>
		<path d="M276.9,464.3c-10.8,0-34.7-4.8-47.8-23c-12.5-17.4-8.8-50.9-8.3-54.6l1.2-9.5L332.9,426l-5.2,7.2
			C326.7,434.4,304.6,464.3,276.9,464.3z M234.3,398.2c-0.3,11.1,0.6,26.7,6.4,34.7c9,12.5,26.6,17.1,36.2,17.1
			c12.8,0,25.5-10.3,33.3-18.4L234.3,398.2z"/>
	</g>
	<g>
		<path class="st12" d="M358.2,421.7l120.1-127.4c0,0,29.8,47.8,5.4,96.2c-15.5,30.7-45.4,45.5-77.8,45.5
			C376.3,436.1,358.2,421.7,358.2,421.7z"/>
		<path d="M405.6,443.2c-31.5,0-51-15.3-51.9-15.9l-6.1-4.8l131.8-139.8l4.9,7.9c1.3,2.1,31.6,51.8,5.7,103.2
			c-15.9,31.4-46.5,49.4-84.2,49.4C405.7,443.2,405.7,443.2,405.6,443.2z M369.4,420.2c7.2,3.7,19.8,8.7,36.2,8.7c0.1,0,0.1,0,0.2,0
			c32.1,0,58.1-15.2,71.4-41.6c16.5-32.8,6-65.6-0.7-80.7L369.4,420.2z"/>
	</g>
	<path d="M472.5,414.2c-31.6-1.2-47.4-15.4-55.1-27.1c-8.4-12.8-9.1-25.4-9.1-25.9l14.3-0.7c0.1,1.5,2.7,37.6,50.4,39.4L472.5,414.2
		z"/>
	<path d="M285.4,462.2c-32.8-11.4-37.5-46-35.4-62.7l14.2,1.8c-0.2,1.5-4.1,36.9,25.9,47.4L285.4,462.2z"/>
</g>
</svg>
