<svg id="svg1936" xmlns="http://www.w3.org/2000/svg" viewBox="0 0 602.28 181.5"><defs><style>.cls-1{fill:#f90;}.cls-2{fill:#fff;}</style></defs><title>Logo</title><path id="path8" class="cls-1" d="M380.72,149c-35,25.8-85.73,39.56-129.41,39.56-61.24,0-116.38-22.65-158.09-60.32-3.28-3-.34-7,3.59-4.69,45,26.19,100.67,41.95,158.17,41.95a314.52,314.52,0,0,0,120.65-24.67c5.93-2.52,10.88,3.88,5.09,8.18" transform="translate(-7.08 -7.08)"/><path id="path10" class="cls-1" d="M395.27,132.37c-4.46-5.72-29.57-2.7-40.85-1.36-3.43.42-4-2.57-.87-4.72,20-14.08,52.83-10,56.65-5.3s-1,37.65-19.79,53.35c-2.88,2.41-5.64,1.13-4.35-2.07,4.22-10.54,13.69-34.16,9.2-39.9" transform="translate(-7.08 -7.08)"/><path id="path12" class="cls-2" d="M355.22,26.9V13.22a3.38,3.38,0,0,1,3.46-3.46h61.27a3.41,3.41,0,0,1,3.54,3.46V24.93c0,2-1.68,4.54-4.61,8.6L387.12,78.86c11.8-.29,24.25,1.47,34.95,7.5a6.23,6.23,0,0,1,3.25,5.32v14.6c0,2-2.2,4.33-4.51,3.12-18.85-9.88-43.89-11-64.73.1-2.12,1.15-4.35-1.15-4.35-3.15V92.5c0-2.23,0-6,2.25-9.41l36.78-52.75h-32a3.39,3.39,0,0,1-3.54-3.43" transform="translate(-7.08 -7.08)"/><path id="path14" class="cls-2" d="M131.72,112.29H113.08a3.52,3.52,0,0,1-3.33-3.17V13.45A3.5,3.5,0,0,1,113.34,10h17.38a3.51,3.51,0,0,1,3.38,3.2V25.72h0.34C139,13.64,147.5,8,159,8c11.67,0,19,5.64,24.2,17.72C187.69,13.64,197.94,8,208.93,8c7.81,0,16.36,3.22,21.58,10.46,5.9,8,4.69,19.74,4.69,30l0,60.38a3.52,3.52,0,0,1-3.59,3.46H213a3.54,3.54,0,0,1-3.36-3.46V58.13c0-4,.37-14.1-0.52-17.93-1.39-6.42-5.56-8.23-11-8.23A12.38,12.38,0,0,0,187,39.8c-1.91,4.82-1.73,12.9-1.73,18.33v50.7a3.52,3.52,0,0,1-3.59,3.46H163a3.52,3.52,0,0,1-3.36-3.46l0-50.7c0-10.67,1.76-26.37-11.48-26.37-13.4,0-12.87,15.31-12.87,26.37v50.7a3.52,3.52,0,0,1-3.59,3.46" transform="translate(-7.08 -7.08)"/><path id="path16" class="cls-2" d="M476.23,8c27.66,0,42.63,23.75,42.63,54,0,29.18-16.54,52.33-42.63,52.33-27.16,0-41.95-23.75-41.95-53.35,0-29.78,15-52.93,41.95-52.93m0.16,19.53c-13.74,0-14.6,18.72-14.6,30.39s-0.18,36.65,14.45,36.65c14.45,0,15.13-20.13,15.13-32.4,0-8.07-.34-17.72-2.78-25.38-2.1-6.66-6.27-9.25-12.19-9.25" transform="translate(-7.08 -7.08)"/><path id="path18" class="cls-2" d="M554.73,112.29H536.16a3.54,3.54,0,0,1-3.36-3.46l0-95.69A3.53,3.53,0,0,1,536.37,10h17.28A3.57,3.57,0,0,1,557,12.69V27.32h0.34C562.54,14.24,569.85,8,582.72,8c8.36,0,16.52,3,21.76,11.27,4.88,7.66,4.88,20.53,4.88,29.78v60.22a3.58,3.58,0,0,1-3.59,3H587.08a3.53,3.53,0,0,1-3.3-3v-52c0-10.46,1.21-25.77-11.67-25.77-4.54,0-8.7,3-10.78,7.66-2.62,5.85-3,11.67-3,18.12v51.52a3.58,3.58,0,0,1-3.64,3.46" transform="translate(-7.08 -7.08)"/><path class="cls-2" d="M339.56,94.75c-3.41-4.72-7-8.55-7-17.28v-29c0-12.3.87-23.6-8.21-32.06-7.16-6.87-19-9.28-28.08-9.28-17.72,0-37.54,6.61-41.68,28.52a3.28,3.28,0,0,0,2.78,3.91l18.06,1.94c1.7-.08,2.94-1.73,3.25-3.41,1.55-7.55,7.87-11.19,15-11.19,3.85,0,8.21,1.42,10.46,4.85,2.62,3.83,2.28,9.07,2.28,13.5v2.41c-10.8,1.23-24.93,2-35.05,6.48-11.69,5-19.87,15.34-19.87,30.46,0,19.37,12.19,29,27.89,29,13.24,0,20.5-3.12,30.73-13.55,3.38,4.9,4.51,7.29,10.7,12.43a3.89,3.89,0,0,0,4.4-.45l0,0.05c3.72-3.3,10.49-9.2,14.29-12.37C341,98.45,340.74,96.43,339.56,94.75Zm-36.68-8.39c-3,5.24-7.68,8.47-12.9,8.47-7.16,0-11.35-5.45-11.35-13.5,0-15.89,14.24-18.77,27.74-18.77v4C306.37,73.86,306.56,79.91,302.89,86.36Z" transform="translate(-7.08 -7.08)"/><path class="cls-2" d="M95.2,94.75c-3.41-4.72-7-8.55-7-17.28v-29c0-12.3.87-23.6-8.21-32.06C72.81,9.49,61,7.08,51.89,7.08c-17.72,0-37.52,6.61-41.68,28.52A3.3,3.3,0,0,0,13,39.51l18.09,1.94c1.68-.08,2.91-1.73,3.22-3.41,1.55-7.55,7.89-11.19,15-11.19,3.83,0,8.18,1.42,10.46,4.85C62.35,35.53,62,40.77,62,45.2v2.41c-10.8,1.23-24.93,2-35.05,6.48-11.67,5-19.87,15.34-19.87,30.46,0,19.37,12.22,29,27.89,29,13.27,0,20.5-3.12,30.73-13.55,3.41,4.9,4.51,7.29,10.7,12.43a3.89,3.89,0,0,0,4.4-.45l0.05,0.05c3.72-3.3,10.49-9.2,14.29-12.37C96.66,98.45,96.4,96.43,95.2,94.75ZM58.52,86.36c-3,5.24-7.66,8.47-12.9,8.47-7.16,0-11.33-5.45-11.33-13.5,0-15.89,14.24-18.77,27.71-18.77v4h0C62,73.86,62.19,79.91,58.52,86.36Z" transform="translate(-7.08 -7.08)"/></svg>