<?xml version="1.0" encoding="utf-8"?>
<!-- Generator: Adobe Illustrator 19.0.0, SVG Export Plug-In . SVG Version: 6.00 Build 0)  -->
<svg version="1.1" id="图层_1" xmlns="http://www.w3.org/2000/svg" xmlns:xlink="http://www.w3.org/1999/xlink" x="0px" y="0px"
	 viewBox="0 0 638.2 182.9" style="enable-background:new 0 0 638.2 182.9;" xml:space="preserve">
<style type="text/css">
	.st0{fill:#ED723B;}
	.st1{fill:#1B3265;}
</style>
<path id="XMLID_429_" class="st0" d="M299.3,15.5l-83.6,122.7c-1.6,2.4-5.1,2.6-6.8,0.2l-37.3-52.7c-1.9-2.6-4.9-4.3-8.1-4.3h-37.9
	l62.2,88.9c1.9,2.7,4.9,4.1,8.1,4.1h32.3c3.3,0,6.3-2,8.2-4.7L344.9,10.5h-37.4C304.2,10.5,301.2,12.8,299.3,15.5z"/>
<path id="XMLID_428_" class="st1" d="M48.1,174.5H10.7L119.2,14.6c1.9-2.7,4.9-4.1,8.2-4.1h37.4L56.3,170.4
	C54.5,173,51.4,174.5,48.1,174.5z"/>
<path id="XMLID_427_" class="st1" d="M345.8,79.5H308l62.2,90.1c1.9,2.7,5,4.9,8.2,4.9h37.9L354,84.2
	C352.1,81.5,349.1,79.5,345.8,79.5z"/>
<path id="XMLID_426_" class="st1" d="M541.8,10.7l-38.5,0l69.1,64.4c1.8,1.7,4.3,2.7,6.8,2.7l38.4,0l-69-64.4
	C546.8,11.6,544.4,10.7,541.8,10.7z"/>
<rect id="XMLID_424_" x="473.5" y="34.8" class="st1" width="153.7" height="20.4"/>
<rect id="XMLID_423_" x="581.7" y="10.7" class="st1" width="28.2" height="17.8"/>
<path id="XMLID_422_" class="st1" d="M511.8,112.2"/>
<path id="XMLID_421_" class="st1" d="M624.9,174.5l-72.2-59c-1.7-1.4-3.8-2.1-6-2.1h-38c-2.2,0-4.3,0.8-6,2.1l-72.2,59h42.5
	c1.4,0,2.9-0.5,4-1.4l46.7-38.2c2.3-1.9,5.6-1.9,7.9,0l46.7,38.2c1.1,0.9,2.5,1.4,4,1.4H624.9z"/>
<path id="XMLID_420_" class="st1" d="M434.3,91.7v69l28.2-22v-32h130.2v32l28.2,22v-69c0-3.5-2.8-6.3-6.3-6.3H440.6
	C437.1,85.4,434.3,88.2,434.3,91.7z"/>
<path id="XMLID_419_" class="st1" d="M464.7,78.1h-30.5l0-26.7h-18.8L445,14.2c1.8-2.2,4.5-3.5,7.4-3.5h31.9L464.7,34L464.7,78.1z"
	/>
</svg>
