<?xml version="1.0" encoding="utf-8"?>
<!-- Generator: Adobe Illustrator 19.0.0, SVG Export Plug-In . SVG Version: 6.00 Build 0)  -->
<svg version="1.1" id="图层_1" xmlns="http://www.w3.org/2000/svg" xmlns:xlink="http://www.w3.org/1999/xlink" x="0px" y="0px"
	 viewBox="-834 481 250 120" style="enable-background:new -834 481 250 120;" xml:space="preserve">
<style type="text/css">
	.st0{fill-rule:evenodd;clip-rule:evenodd;}
</style>
<g id="形状_8">
	<g>
		<path class="st0" d="M-655,526.9h28.1v2.9h5.8v-6.3h-0.3h-5.6h-10.9v-3.1h-6.7v3.1H-655h-5.8v3.4v2.9h5.8V526.9z M-640.5,535.4
			c1.3-0.7,2.3-1.6,3-2.5h11.1v-2.9h-29.5v2.9h12.7c-1.6,1.1-6.3,3.6-17.7,4.9v3.4c0,0,9.6-1.2,16.7-4.1c0.4,0.4,0.7,0.9,1.1,1.4
			c-1.6,1-10,6-18.4,6.4v3.4c0,0,12.7-0.7,20-6.7c0.2,0.6,0.4,1.2,0.5,1.8c-1.7,1.4-9.7,7.8-20.5,8.6v3.7c0,0,16.2-2.5,20.9-8
			c0,2.6-0.3,4.3-0.3,4.3c0.1,1.2-1.7,1.4-1.7,1.4h-4.5v3.4h7.2c2.8-0.3,3.3-3.4,3.3-3.4l0.6-3.1c0.1-4.9,0.4-7.1-1.1-10.9
			C-637.7,537.8-639.1,536.4-640.5,535.4z M-630,540.4l7.8-0.3V537l-12.5,0.6c0,0-0.5,13.4,14.2,18v-4
			C-620.5,551.6-628,550-630,540.4z M-688.7,520.1h-5.8c0.1,0.6-0.4,2.1-1,3.4h-11.5v3.1h10.2c-0.1,0.2-0.1,0.3-0.1,0.3
			c-3.4,6.9-11.1,10.6-11.1,10.6v2.9c1.6-0.3,4-1.5,6.1-2.7V557h5v-22.3c3.4-2.6,5.4-5.5,6.6-8h24.3v-3.1h-23.1
			C-688.7,521.4-688.7,520.1-688.7,520.1z M-677.8,541h9.7v-3.7h-9.7v-7.4h-5.8v7.4h-10v3.7h10v10.3h-11.1v3.7h28.7v-3.7h-11.7V541z
			 M-744.7,519.5h-5.8v36.6h5.8v-24.6h1.4v-4h-1.4V519.5z M-755.2,540.4h2.8l0.6-13.7h-2.8L-755.2,540.4z M-722.7,520.1h-7v1.7h-12
			v0.6v2.6v18h0c0,1,0.1,4.3,0,6c0,0-0.5,2.9-1.4,3.1v4c0,0,6.1-3.5,6.4-8.6V543v-0.3v-6.9h8.9v3.7h-7v2.3h7v10.6
			c0,0-0.3,1.7-3.1,1.4v2.6h5c0,0,2.5,0.1,2.8-3.7h0v-4.2c1.7,3.8,9.5,6.7,9.5,6.8l0.3-3.4c-1.2-0.2-2.8-1.3-4.3-2.7
			c0.5-0.4,2.3-2,2.4-5l-3.1-0.6c0,0-0.3,2.8-1.8,3.1c-1.3-1.4-2.4-2.7-2.9-3.3v-1.5h3.6c0,0,4.3,0.4,4.5-2.9v-3.1h1.9v-2h-1.9v-3.4
			v-0.3v-2.3h-8.1v-2.9h10v-3.1h-9.7V520.1z M-727.7,527.8h-6.1v2.6h6.1v3.4h-8.9v-8.9h8.9V527.8z M-719.3,539.5h-3.6v-3.7h4.5v2
			C-718.5,537.8-718.4,539.2-719.3,539.5z M-718.5,530.4v3.4h-4.5v-3.4H-718.5z M-733.8,548.7l-2.2,1.4v3.7l5.6-3.4
			c1.4-0.7,0.6-2.9,0.6-2.9l-1.7-3.7h-3.6l1.9,3.7C-732.9,548.3-733.8,548.7-733.8,548.7z M-767.5,532.4l6.7-6.3v-4.3h-0.3h-7.5
			h-12.5v2.9h12.5v1.4l-5.8,6h-0.3v3.7h-8.1v3.7h8.1v11.2c0,0,0.2,1.7-0.7,2.6h-4v2.9h7c0,0,5.1,0.4,5-5.4v-11.2h7.8v-3.7h-7.8
			V532.4z M-785.6,519.8h-4.7v5.4h-5v-5.4h-4.7v5.4h-1.9v2.9h1.9v12.6h0.1c0.8,5,1.6,5.7,1.6,5.7c0.7,1.3,1.5,2.5,2.5,3.5
			c-1.6,1.2-3.5,2.1-6.1,2.5v4c0,0,4.6-1.1,8.9-4.1c4.4,3.1,9.5,4.1,9.5,4.1v-4c-2.7-0.5-4.8-1.5-6.4-2.7c1.1-1.1,2.1-2.4,2.8-3.9
			c0,0,0.9-0.8,1.6-6h0v-11.7h1.9v-2.9h-1.9V519.8z M-790.3,539.8c0,0-0.3,3.5-2.6,6.9c-2.2-3.1-2.4-6.3-2.4-6.3v-12.3h5V539.8z"/>
	</g>
</g>
</svg>
