<?xml version="1.0" encoding="utf-8"?>
<!-- Generator: Adobe Illustrator 19.0.0, SVG Export Plug-In . SVG Version: 6.00 Build 0)  -->
<svg version="1.1" id="图层_1" xmlns="http://www.w3.org/2000/svg" xmlns:xlink="http://www.w3.org/1999/xlink" x="0px" y="0px"
	 viewBox="-834 481 250 120" style="enable-background:new -834 481 250 120;" xml:space="preserve">
<style type="text/css">
	.st0{fill:#636363;}
	.st1{fill:none;stroke:#000000;stroke-linecap:round;stroke-linejoin:round;stroke-miterlimit:10;}
</style>
<path id="XMLID_433_" d="M-708.9,494.1l-5-4.4c-0.1-0.1-0.7-0.5-0.8-0.5l-3.8-0.7l1.4,6.3L-708.9,494.1z"/>
<path id="XMLID_432_" class="st0" d="M-675,538.4c0.8,2.3,1.3,7.7-3.2,10.8c-5.3,3.8-12.1-0.8-12.1-0.8s6.7,10.3,21,17.8
	c3.1,1.4-6.7,4-17.4-1.4c-15.3-7.8-19.1-15.9-19.1-15.9c-1.8,2.7-4.5,6.3-6.7,8.2c-7.7,7.7-20.9,14-37.4,12.7c-1.4-0.1-3-0.5-3-1.4
	c0-0.8,1.4-1.4,1.4-1.4c8.4-3.2,17.2-9,24.7-17.8c3.8-4.4,6.9-12.1,9.7-25.6c3.1-14.9,1.3-23.2,1.3-23.2l-1.4-5.5l8.1-0.7
	c0,0,4,1.7,8.2,13.4c4.4,12.2,3.6,17.6,5.5,22.8c0.5,1.4,2.4,8.2,9,11.8c5,2.4,8.6-1.3,10-3.6c0,0,0.1-0.5,0.6-0.5
	C-675.2,537.8-675,538.4-675,538.4z"/>
<path id="XMLID_431_" d="M-751.6,544.5c11.5,5.3,22.7-0.1,28.9-10.6c7.2-11.9,6.9-25.8,5.6-39.2c0,0,5.9,11.9,2.3,30.1
	c-1.4,7.4-5,15.3-11.5,23.3c-11.9,14.3-29.7,3.6-27.3-2.4c0,0,0.6-1.3,1.3-1.4"/>
<g id="XMLID_420_">
	<line id="XMLID_429_" class="st1" x1="-691" y1="580.5" x2="-691" y2="594.8"/>
	<path id="XMLID_428_" class="st1" d="M-726.8,592.8c-1.3,1.3-3.1,2.3-5.1,2.3s-3.8-0.7-5.1-2.3c-1.3-1.4-2.3-3.1-2.3-5.1
		c0-2.3,0.7-3.8,2.3-5.1c1.4-1.3,3.1-2.3,5.1-2.3s3.8,0.7,5.1,2.3"/>
	<path id="XMLID_427_" class="st1" d="M-694.4,593.4c-0.8,0.8-2.4,1.7-4,1.7s-3-0.7-4-1.7c-0.8-0.8-1.7-2.4-1.7-4c0-1.4,0.7-3,1.7-4
		c0.8-0.8,2.4-1.7,4-1.7s3,0.7,4,1.7"/>
	<path id="XMLID_426_" class="st1" d="M-691,586c2.7-2.7,7.7-2.3,7.7,2.3v6.7"/>
	<path id="XMLID_425_" class="st1" d="M-722.8,584.9c2.9-2.7,8.1-0.8,8.1,3.6v6.7"/>
	<line id="XMLID_424_" class="st1" x1="-712.3" y1="584.5" x2="-706.3" y2="584.5"/>
	<path id="XMLID_423_" class="st1" d="M-709.1,582.7v9.9c0,0-0.1,3,3.2,2.4"/>
	<path id="XMLID_422_" class="st1" d="M-715.2,588.7"/>
	<path id="XMLID_421_" class="st1" d="M-714.9,589.1c-1.4-1.1-3.2-1.7-5-1.3c-1.8,0.5-3.6,1.8-3.6,3.8c0,1.8,1.4,3.6,3.6,3.6
		c0.7,0,1.7-0.5,2.3-0.7"/>
</g>
</svg>
