<?xml version="1.0" encoding="utf-8"?>
<!-- Generator: Adobe Illustrator 19.0.0, SVG Export Plug-In . SVG Version: 6.00 Build 0)  -->
<svg version="1.1" id="图层_1" xmlns="http://www.w3.org/2000/svg" xmlns:xlink="http://www.w3.org/1999/xlink" x="0px" y="0px"
	 viewBox="-834 481 250 120" style="enable-background:new -834 481 250 120;" xml:space="preserve">
<style type="text/css">
	.st0{fill:#020100;}
	.st1{fill:#111820;}
</style>
<g id="XMLID_178_">
	<path id="XMLID_179_" class="st0" d="M-777.1,564v-9.3c4.4,0,8.1-3.7,8.1-8.1V532c0-4.4-3.7-8.1-8.1-8.1c-2.5,0-4.7-2-4.7-4.7
		c0-2.5,2-4.7,4.7-4.7c9.6,0,17.4,7.8,17.4,17.4v14.7C-759.7,556.3-767.5,564-777.1,564z"/>
</g>
<g id="XMLID_176_">
	<path id="XMLID_177_" class="st0" d="M-777.1,564c-9.6,0-17.3-7.8-17.3-17.3V532c0-9.6,7.8-17.4,17.4-17.4c2.5,0,4.7,2,4.7,4.7
		c0,2.5-2,4.7-4.7,4.7c-4.4,0-8.1,3.7-8.1,8.1v14.7c0,4.4,3.7,8.1,8.1,8.1c2.5,0,4.7,2,4.7,4.7C-772.5,562-774.5,564-777.1,564z"/>
</g>
<g id="XMLID_174_">
	<path id="XMLID_175_" class="st0" d="M-769,532c0-4.4-3.7-8.1-8.1-8.1c-2.5,0-4.7-2-4.7-4.7c0-2.5,2-4.7,4.7-4.7
		c9.6,0,17.4,7.8,17.4,17.4H-769z"/>
</g>
<circle id="XMLID_173_" class="st0" cx="-759.5" cy="564" r="3.2"/>
<g id="XMLID_138_">
	<path id="XMLID_169_" d="M-742.6,553c1.9,0,3.7,1.4,3.7,3.7c0,1.1-0.4,2-0.9,2.6l0.8,0.9c0,0.1,0,0.1,0,0.1l-0.7,0.6
		c-0.1,0-0.1,0-0.1,0l-0.8-0.9c-0.6,0.4-1.2,0.5-1.9,0.5c-1.9,0-3.7-1.4-3.7-3.7C-746.3,554.5-744.6,553-742.6,553z M-742.6,559.4
		c0.4,0,0.8-0.1,1.1-0.2l-1.1-1.3c0-0.1,0-0.1,0-0.1l0.7-0.6c0.1,0,0.1,0,0.1,0l1.1,1.3c0.3-0.4,0.5-1,0.5-1.7
		c0-1.8-1.2-2.6-2.4-2.6s-2.4,0.8-2.4,2.6C-745,558.5-743.8,559.4-742.6,559.4z"/>
	<path id="XMLID_167_" d="M-736.4,560.3v-7.1c0-0.1,0.1-0.1,0.1-0.1h1.1c0.1,0,0.1,0.1,0.1,0.1v7.1c0,0.1-0.1,0.1-0.1,0.1
		L-736.4,560.3C-736.4,560.4-736.4,560.4-736.4,560.3z"/>
	<path id="XMLID_165_" d="M-732.7,560.3v-1.1l0,0l4-4.9h-3.8c-0.1,0-0.1-0.1-0.1-0.1v-1c0-0.1,0.1-0.1,0.1-0.1h5.3
		c0.1,0,0.1,0.1,0.1,0.1v1.1l0,0l-4,4.9h4c0.1,0,0.1,0.1,0.1,0.1v1c0,0.1-0.1,0.1-0.1,0.1h-5.4
		C-732.6,560.4-732.7,560.4-732.7,560.3z"/>
	<path id="XMLID_163_" d="M-719.9,560.3v-3h-3.4v3c0,0.1-0.1,0.1-0.1,0.1h-1.1c-0.1,0-0.1-0.1-0.1-0.1v-7.1c0-0.1,0.1-0.1,0.1-0.1
		h1.1c0.1,0,0.1,0.1,0.1,0.1v2.9h3.4v-2.9c0-0.1,0.1-0.1,0.1-0.1h1.1c0.1,0,0.1,0.1,0.1,0.1v7.1c0,0.1-0.1,0.1-0.1,0.1L-719.9,560.3
		C-719.9,560.4-719.9,560.4-719.9,560.3z"/>
	<path id="XMLID_161_" d="M-715.7,560.3v-7.1c0-0.1,0.1-0.1,0.1-0.1h1.1c0.1,0,0.1,0.1,0.1,0.1v7.1c0,0.1-0.1,0.1-0.1,0.1
		L-715.7,560.3C-715.7,560.4-715.7,560.4-715.7,560.3z"/>
	<path id="XMLID_159_" d="M-705.6,554.3v6c0,0.1-0.1,0.1-0.1,0.1h-1.1c-0.1,0-0.1-0.1-0.1-0.1v-6h-2.3c-0.1,0-0.1-0.1-0.1-0.1v-1
		c0-0.1,0.1-0.1,0.1-0.1h5.7c0.1,0,0.1,0.1,0.1,0.1v1c0,0.1-0.1,0.1-0.1,0.1H-705.6z"/>
	<path id="XMLID_157_" d="M-701.1,560.3v-7.1c0-0.1,0.1-0.1,0.1-0.1h4.2c0.1,0,0.1,0.1,0.1,0.1v0.9c0,0.1-0.1,0.1-0.1,0.1h-3.2v1.9
		h2.8c0.1,0,0.1,0.1,0.1,0.1v0.9c0,0.1-0.1,0.1-0.1,0.1h-2.8v1.9h3.2c0.1,0,0.1,0.1,0.1,0.1v0.9c0,0.1-0.1,0.1-0.1,0.1h-4.2
		C-701,560.4-701.1,560.4-701.1,560.3z"/>
	<path id="XMLID_155_" d="M-694.4,556.8c0-2.3,1.8-3.7,3.7-3.7c1.8,0,2.9,1.1,3.2,2.3c0,0.1,0,0.1-0.1,0.1l-1,0.4
		c-0.1,0-0.1,0-0.1-0.1c-0.2-0.8-0.9-1.5-2-1.5c-1.2,0-2.4,0.8-2.4,2.6c0,1.7,1.1,2.6,2.4,2.6c1.2,0,1.8-0.7,2.1-1.5
		c0-0.1,0.1-0.1,0.1-0.1l0.9,0.3c0.1,0,0.1,0.1,0.1,0.1c-0.4,1.2-1.5,2.3-3.2,2.3C-692.7,560.6-694.4,559.2-694.4,556.8z"/>
	<path id="XMLID_153_" d="M-680.4,560.3v-3h-3.4v3c0,0.1-0.1,0.1-0.1,0.1h-1.1c-0.1,0-0.1-0.1-0.1-0.1v-7.1c0-0.1,0.1-0.1,0.1-0.1
		h1.1c0.1,0,0.1,0.1,0.1,0.1v2.9h3.4v-2.9c0-0.1,0.1-0.1,0.1-0.1h1.1c0.1,0,0.1,0.1,0.1,0.1v7.1c0,0.1-0.1,0.1-0.1,0.1L-680.4,560.3
		C-680.4,560.4-680.4,560.4-680.4,560.3z"/>
	<path id="XMLID_151_" d="M-671.4,560.4l-3.5-5.4v5.4c0,0.1-0.1,0.1-0.1,0.1h-1.1c-0.1,0-0.1-0.1-0.1-0.1v-7.1
		c0-0.1,0.1-0.1,0.1-0.1h1.4h0.1l3.2,5.1v-5c0-0.1,0.1-0.1,0.1-0.1h1.1c0.1,0,0.1,0.1,0.1,0.1v7.1c0,0.1-0.1,0.1-0.1,0.1H-671.4
		C-671.4,560.4-671.4,560.4-671.4,560.4z"/>
	<path id="XMLID_148_" d="M-664,553c1.9,0,3.7,1.4,3.7,3.7c0,2.4-1.8,3.7-3.7,3.7s-3.7-1.4-3.7-3.7C-667.6,554.5-665.9,553-664,553z
		 M-664,559.4c1.2,0,2.4-0.8,2.4-2.6c0-1.8-1.2-2.6-2.4-2.6s-2.4,0.8-2.4,2.6C-666.4,558.5-665.2,559.4-664,559.4z"/>
	<path id="XMLID_146_" d="M-657.8,560.3v-7.1c0-0.1,0.1-0.1,0.1-0.1h1.1c0.1,0,0.1,0.1,0.1,0.1v6h3.2c0.1,0,0.1,0.1,0.1,0.1v1
		c0,0.1-0.1,0.1-0.1,0.1L-657.8,560.3C-657.8,560.4-657.8,560.4-657.8,560.3z"/>
	<path id="XMLID_143_" d="M-648,553c1.9,0,3.7,1.4,3.7,3.7c0,2.4-1.8,3.7-3.7,3.7s-3.7-1.4-3.7-3.7C-651.6,554.5-649.9,553-648,553z
		 M-648,559.4c1.2,0,2.4-0.8,2.4-2.6c0-1.8-1.2-2.6-2.4-2.6s-2.4,0.8-2.4,2.6C-650.4,558.5-649.2,559.4-648,559.4z"/>
	<path id="XMLID_141_" d="M-636.3,560.4l-0.1-0.9c-0.3,0.6-1.1,1.1-2.2,1.1c-1.9,0-3.5-1.4-3.5-3.7c0-2.4,1.8-3.7,3.7-3.7
		c1.7,0,2.8,1,3.2,2.1c0,0.1,0,0.1-0.1,0.1l-1,0.4c-0.1,0-0.1,0-0.1-0.1c-0.3-0.8-1-1.4-2-1.4c-1.2,0-2.4,0.8-2.4,2.6
		c0,1.8,1.1,2.7,2.4,2.7c1.5,0,2-1,2-1.6h-2.3c-0.1,0-0.1-0.1-0.1-0.1V557c0-0.1,0.1-0.1,0.1-0.1h3.3c0.1,0,0.1,0.1,0.1,0.1v3.5
		c0,0.1-0.1,0.1-0.1,0.1L-636.3,560.4L-636.3,560.4z"/>
	<path id="XMLID_139_" d="M-627.5,553.2C-627.4,553.2-627.5,553.3-627.5,553.2l-2.5,4.2v3c0,0.1-0.1,0.1-0.1,0.1h-1.1
		c-0.1,0-0.1-0.1-0.1-0.1v-3l-2.5-4c-0.1-0.1,0-0.1,0.1-0.1h1.2c0.1,0,0.1,0,0.1,0.1l1.7,3l1.7-3l0.1-0.1H-627.5L-627.5,553.2z"/>
</g>
<g id="XMLID_119_">
	<path id="XMLID_137_" class="st1" d="M-645.1,535.9v-2.3c0-0.2-0.2-0.4-0.4-0.3l-2.7,1.1v-6.5h3c0.1,0,0.3-0.1,0.3-0.3v-2
		c0-0.1-0.1-0.3-0.3-0.3h-3v-4.1c0-0.1-0.1-0.3-0.3-0.3h-2.1c-0.1,0-0.3,0.1-0.3,0.3v4h-3.1c-0.1,0-0.3,0.1-0.3,0.3v2
		c0,0.1,0.1,0.3,0.3,0.3h3.1v7.5l-3.2,1.3c-0.1,0.1-0.2,0.1-0.2,0.3v2.3c0,0.2,0.2,0.4,0.4,0.3l3-1.2v5.6c0,0.2-0.1,0.4-0.4,0.4h-2
		c-0.2,0-0.4,0.2-0.3,0.4l0.8,2.1c0.1,0.1,0.1,0.2,0.3,0.2h2.3c1.1,0,1.9-0.8,1.9-1.9v-7.8l2.9-1.1
		C-645.2,536.2-645.1,536-645.1,535.9z"/>
	<path id="XMLID_136_" class="st1" d="M-634.8,531.2V527h5.8c0.1,0,0.3-0.1,0.3-0.3v-2c0-0.1-0.1-0.3-0.3-0.3h-5.8v-3.5
		c0-0.1-0.1-0.3-0.3-0.3h-2.1c-0.1,0-0.3,0.1-0.3,0.3v3.5h-5.6c-0.1,0-0.3,0.1-0.3,0.2l-0.6,2c-0.1,0.2,0.1,0.4,0.3,0.4h6.1v4.2
		h-4.9c-0.1,0-0.3,0.1-0.3,0.2l-0.6,2.1c-0.1,0.2,0.1,0.4,0.3,0.4h10.7c-0.6,1.8-1.8,4.2-4.1,6.3c-1.4-1.3-2.4-2.7-3.1-4
		c-0.1-0.1-0.2-0.3-0.4-0.3h-2.2c-0.2,0-0.4,0.2-0.3,0.4c0.2,0.5,0.5,1.1,0.8,1.6c0.7,1.2,1.7,2.6,3,3.9c-1.7,1.1-3.9,2.2-6.6,2.9
		c-0.2,0.1-0.3,0.2-0.2,0.4c0.3,0.5,0.8,1.4,1,1.8c0.1,0.1,0.2,0.2,0.4,0.1c3.1-0.8,5.6-2.1,7.5-3.5c1.9,1.4,4.4,2.7,7.5,3.5
		c0.1,0.1,0.3,0,0.4-0.1l1-1.8c0.1-0.1,0-0.4-0.2-0.4c-2.7-0.7-4.9-1.7-6.6-2.8c3-3,4.4-6.3,4.9-8.5c0.3-1.1-0.6-2.2-1.7-2.2
		L-634.8,531.2L-634.8,531.2z"/>
	<path id="XMLID_135_" class="st1" d="M-726.9,536.5h-2.1c-0.1,0-0.3,0.1-0.3,0.3v9.9c0,0.1,0.1,0.3,0.3,0.3h2.1
		c0.1,0,0.3-0.1,0.3-0.3v-9.9C-726.6,536.7-726.7,536.5-726.9,536.5z"/>
	<path id="XMLID_132_" class="st1" d="M-721.4,534.1c-3.9-0.6-7.2-1.6-9.7-2.8c3.2-2.3,4.9-4.5,5.6-5.6h3.4c0.1,0,0.3-0.1,0.3-0.3
		v-2c0-0.1-0.1-0.3-0.3-0.3h-10.2v-2.3c0-0.1-0.1-0.3-0.3-0.3h-2.1c-0.1,0-0.3,0.1-0.3,0.3v2.3h-9.9c-0.1,0-0.3,0.1-0.3,0.2l-0.5,2
		c-0.1,0.2,0.1,0.4,0.3,0.4h3.5c0.7,1.1,2.4,3.4,5.6,5.6c-2.5,1.2-5.7,2.3-9.7,2.8c-0.2,0-0.3,0.2-0.2,0.4l0.7,2
		c0.1,0.1,0.2,0.2,0.4,0.2c4.9-0.8,8.7-2.2,11.6-3.7c2.9,1.6,6.7,3,11.6,3.7c0.1,0,0.3-0.1,0.4-0.2l0.7-2
		C-721.1,534.3-721.1,534.1-721.4,534.1z M-736,528.2c-1.1-0.9-2-1.8-2.6-2.5h9.8c-1,1.1-2.5,2.7-4.9,4.2
		C-734.6,529.2-735.3,528.6-736,528.2z"/>
	<path id="XMLID_131_" class="st1" d="M-737.6,536.5h-2.1c-0.1,0-0.3,0.1-0.3,0.3v1.4c0,0.1-0.1,3.9-4.7,6.3
		c-0.1,0.1-0.2,0.3-0.1,0.4l1.2,1.7c0.1,0.1,0.3,0.1,0.4,0.1c5.8-3.2,5.9-8.3,5.9-8.5v-1.4C-737.3,536.7-737.4,536.5-737.6,536.5z"
		/>
	<path id="XMLID_130_" class="st1" d="M-676.4,532.7c-0.1-0.1-0.3-0.2-0.4-0.1l-1.2,0.6v-2.4h3.5c0.1,0,0.3-0.1,0.3-0.3v-2
		c0-0.1-0.1-0.3-0.3-0.3h-3.5v-4.6c1.3-0.1,2.5-0.3,3-0.4c0.1,0,0.3-0.1,0.3-0.3v-2c0-0.2-0.1-0.4-0.4-0.3c-1.3,0.1-6,0.6-8.6,0.9
		c-0.1,0-0.3,0.1-0.3,0.3v2c0,0.2,0.1,0.4,0.4,0.3c0.8-0.1,1.9-0.2,3-0.3v4.3h-3.9c-0.1,0-0.3,0.1-0.3,0.3v2c0,0.1,0.1,0.3,0.3,0.3
		h3.2c-0.3,1.5-1.4,6.9-3.9,12.6c-0.1,0.1,0,0.3,0.1,0.4l1.8,1.6c0.1,0.1,0.3,0.1,0.3-0.1c1-2.3,1.8-4.5,2.5-6.5v8.2h2.7v-11.4
		l1.8,3.6c0.1,0.1,0.3,0.2,0.4,0.1l1.9-1c0.1-0.1,0.2-0.3,0.1-0.4L-676.4,532.7z"/>
	<path id="XMLID_129_" class="st1" d="M-668.2,528.8c0.1,0.1,0.3,0.1,0.4,0.1l1.6-1.3c0.1-0.1,0.1-0.3,0.1-0.4l-3.9-4.8
		c-0.1-0.1-0.3-0.1-0.4-0.1l-1.6,1.3c-0.1,0.1-0.1,0.3-0.1,0.4L-668.2,528.8z"/>
	<path id="XMLID_128_" class="st1" d="M-669,536.3c0.1,0.1,0.3,0.1,0.4,0.1l1.6-1.3c0.1-0.1,0.1-0.3,0.1-0.4l-3.9-4.8
		c-0.1-0.1-0.3-0.1-0.4-0.1l-1.6,1.3c-0.1,0.1-0.1,0.3-0.1,0.4L-669,536.3z"/>
	<path id="XMLID_127_" class="st1" d="M-659.4,537.5l-2.5,0.3v-17.1c0-0.1-0.1-0.3-0.3-0.3h-2.1c-0.1,0-0.3,0.1-0.3,0.3v17.4
		l-8.2,0.9c-0.1,0-0.3,0.1-0.3,0.3v2c0,0.2,0.1,0.4,0.4,0.3l8.2-0.9v6.1c0,0.1,0.1,0.3,0.3,0.3h2.1c0.1,0,0.3-0.1,0.3-0.3v-6.3
		l2.5-0.3c0.1,0,0.3-0.1,0.3-0.3v-2C-659.1,537.7-659.2,537.5-659.4,537.5z"/>
	<path id="XMLID_126_" class="st1" d="M-713,521.2c-0.1-0.1-0.3-0.1-0.4,0l-1.6,1.4c-0.1,0.1-0.1,0.3,0,0.4l3.2,3.5
		c0.1,0.1,0.3,0.1,0.4,0l1.6-1.4c0.1-0.1,0.1-0.3,0-0.4L-713,521.2z"/>
	<path id="XMLID_125_" class="st1" d="M-713,534.5c0.1,0.1,0.3,0.1,0.4,0l1.6-1.4c0.1-0.1,0.1-0.3,0-0.4l-3.2-3.5
		c-0.1-0.1-0.3-0.1-0.4,0l-1.6,1.4c-0.1,0.1-0.1,0.3,0,0.4L-713,534.5z"/>
	<path id="XMLID_122_" class="st1" d="M-705.6,534.1c-0.8,0-1.5,0.6-1.5,1.5v11.1c0,0.1,0.1,0.3,0.3,0.3h2.1c0.1,0,0.3-0.1,0.3-0.3
		v-1.1h9.9v1.1c0,0.1,0.1,0.3,0.3,0.3h2.1c0.1,0,0.3-0.1,0.3-0.3v-11.1c0-0.8-0.6-1.5-1.5-1.5H-705.6z M-704.4,543.1v-6.3h9.9v6.3
		H-704.4z"/>
	<path id="XMLID_121_" class="st1" d="M-694.9,523.8c-0.1-0.1-0.3-0.1-0.4-0.1l-1.8,1.1c-0.1,0.1-0.2,0.3-0.1,0.4l2.3,3.4l-10.2,1
		c-0.1,0-0.1-0.1-0.1-0.1l5.4-7.5c0.1-0.1,0.1-0.4-0.1-0.4l-1.8-1.1c-0.1-0.1-0.3-0.1-0.4,0.1l-6.2,9c-0.4,0.6-0.4,1.5,0,2.1
		c0.4,0.6,1,0.8,1.7,0.8l13.4-1.3l0.9,1.4c0.1,0.1,0.3,0.1,0.4,0.1l1.8-1.1c0.1-0.1,0.2-0.3,0.1-0.4L-694.9,523.8z"/>
	<path id="XMLID_120_" class="st1" d="M-710.7,539.1l-1.9-0.8c-0.1-0.1-0.4,0-0.4,0.1c-0.6,1.6-1.8,4.2-3.2,6.8
		c-0.1,0.1,0,0.4,0.1,0.4l1.8,1.1c0.1,0.1,0.4,0,0.4-0.1c1.6-2.9,2.7-5.5,3.3-7.1C-710.4,539.3-710.6,539.1-710.7,539.1z"/>
</g>
</svg>
