<?xml version="1.0" encoding="utf-8"?>
<!-- Generator: Adobe Illustrator 19.0.0, SVG Export Plug-In . SVG Version: 6.00 Build 0)  -->
<svg version="1.1" id="图层_1" xmlns="http://www.w3.org/2000/svg" xmlns:xlink="http://www.w3.org/1999/xlink" x="0px" y="0px"
	 viewBox="-834 481 250 120" style="enable-background:new -834 481 250 120;" xml:space="preserve">
<style type="text/css">
	.st0{fill-rule:evenodd;clip-rule:evenodd;}
</style>
<g id="矩形_1">
	<g>
		<path class="st0" d="M-777.7,530l-11.6-4.8c-6.7-2.4-10.3,4.3-10.3,4.3l-5.9,19.6c-0.7,2.9-3,1.8-3,1.8c-5.9-2.5-3.4-8-3.4-8
			c1.6-1,5,0.7,5,0.7l2.3-6.8l-7.8-2.5c-2.5-0.9-4.1,3.2-4.1,3.2l-0.5,9.1c1,9.1,11.9,10.7,11.9,10.7c8,1.8,7.3-2.5,7.3-2.5
			s4.4-15.8,4.6-17.8c0.2-2,2.3-3.4,2.3-3.4l4.1,1.1c2.1,0.6,2.1,3.9,2.1,3.9l-1.4,3.2c-0.6,1.3-2.5,0.7-2.5,0.7l-3.2-1.1l-2.1,6.6
			l5.7,2.3c6.2,2.5,7.5-0.7,7.5-0.7l5-12.1C-772.9,532.6-777.7,530-777.7,530z M-701.3,533.2h-2.5h-3l-6.2,6.4l-1.6-6.4h-3h-0.9
			h-5.2l-6.8,18.5h6.2l4.7-12.8l3,9.1l10.7-9.1l-4.7,12.8h6.2l6.8-18.5H-701.3z M-765,532.8l-6.8,18.7h6.8l6.8-18.7H-765z
			 M-731.6,533h-2.5h-3l-6.2,6.4l-1.6-6.4h-3h-0.9h-5.2l-6.8,18.5h6.2l4.7-12.8l3,9.1l10.5-8.6l-4.5,12.2h6.2l6.8-18.5H-731.6z
			 M-642.4,546.2l1.1-2.5h9l0.9-3h-8.5l2-3.4h11.1l1.1-4.1h-14.6l0,0c-5.9,0.3-9.4,5.2-9.4,5.2c0.5,1.3,3.7-0.5,3.7-0.5l-2.7,8
			c-1.5,7,6.4,5.7,6.4,5.7h10.7l0.9-3.7h-11C-642.5,547.5-642.4,546.2-642.4,546.2z M-691,546.2l1.1-2.5h9l0.9-3h-8.5l2-3.4h11.1
			l1.1-4.1H-689l0,0c-5.9,0.3-9.4,5.2-9.4,5.2c0.5,1.3,3.7-0.5,3.7-0.5l-2.7,8c-1.5,7,6.4,5.7,6.4,5.7h10.7l0.9-3.7h-11
			C-691.1,547.5-691,546.2-691,546.2z M-601.5,532.6h-5.7l-7.6,6.3l-1.5-5.9h-5.7l2.5,9.8l-10.5,8.7h5.7l5.8-4.8l1.3,5.2h5.7
			l-2.3-9.1L-601.5,532.6z M-654.5,533.7l-9.4-0.7l0,0h-5.2l-6.8,18.7h5.2l5.6-15.3h6.7c0,0,3,3-1.8,6.2l-2.1,0.2c0,0-1.1,0-0.9,1.8
			c0,0,0.2,4.9,2.3,6.8h5.7l-2.3-5.7c0,0,4.9-1.1,6.2-7.3C-651.3,538.5-651.2,534.7-654.5,533.7z"/>
	</g>
</g>
</svg>
